<svg xmlns="http://www.w3.org/2000/svg" xmlns:xlink="http://www.w3.org/1999/xlink" width="410" zoomAndPan="magnify" viewBox="0 0 307.5 307.500004" height="410" preserveAspectRatio="xMidYMid meet" version="1.0"><defs><clipPath id="2111ce7a36"><path d="M 238 115 L 257.804688 115 L 257.804688 167 L 238 167 Z M 238 115 " clip-rule="nonzero"/></clipPath><clipPath id="c30eb37cb5"><path d="M 38.054688 144 L 47 144 L 47 205 L 38.054688 205 Z M 38.054688 144 " clip-rule="nonzero"/></clipPath><clipPath id="54fc7dad94"><path d="M 137 7.765625 L 167 7.765625 L 167 42 L 137 42 Z M 137 7.765625 " clip-rule="nonzero"/></clipPath></defs><path fill="#88c0fa" d="M 228.390625 59.144531 C 228.53125 59.046875 228.59375 59.015625 228.636719 58.96875 C 229.902344 57.578125 231.074219 56.109375 231.964844 54.449219 C 232.328125 53.773438 232.605469 53.046875 232.855469 52.320312 C 233.105469 51.601562 233.019531 50.875 232.671875 50.199219 C 232.261719 49.40625 231.539062 49.152344 230.726562 49.496094 C 230.226562 49.707031 229.789062 50.023438 229.507812 50.480469 C 229.152344 51.058594 228.804688 51.65625 228.5625 52.289062 C 228.105469 53.476562 228.023438 54.738281 228.039062 56 C 228.050781 57.03125 228.144531 58.054688 228.390625 59.144531 Z M 168.738281 62.828125 C 168.441406 62.675781 168.1875 62.46875 167.90625 62.421875 C 167.390625 62.34375 166.851562 62.292969 166.335938 62.355469 C 165.054688 62.507812 163.945312 63.097656 162.9375 63.882812 C 161.566406 64.953125 160.605469 66.347656 159.855469 67.886719 C 158.734375 70.183594 157.980469 72.597656 157.636719 75.128906 C 157.527344 75.949219 157.570312 76.796875 157.582031 77.632812 C 157.585938 78.023438 157.671875 78.414062 157.96875 78.703125 C 158.453125 78.515625 158.621094 78.429688 159.027344 77.910156 C 159.609375 77.164062 160.195312 76.414062 160.703125 75.613281 C 163.285156 71.558594 165.839844 67.484375 168.402344 63.417969 C 168.507812 63.253906 168.597656 63.082031 168.738281 62.828125 Z M 227.738281 79.863281 C 227.570312 79.988281 227.53125 80.007812 227.503906 80.042969 C 227.449219 80.109375 227.402344 80.183594 227.351562 80.257812 C 225.953125 82.382812 224.957031 84.667969 224.429688 87.167969 C 223.902344 89.671875 223.703125 92.1875 224.054688 94.730469 C 224.207031 95.839844 224.582031 96.875 225.265625 97.773438 C 225.808594 98.484375 226.625 98.601562 227.285156 98.003906 C 227.71875 97.613281 228.09375 97.121094 228.375 96.609375 C 229.175781 95.167969 229.378906 93.554688 229.449219 91.941406 C 229.570312 89.332031 229.378906 86.734375 228.816406 84.175781 C 228.503906 82.761719 228.117188 81.363281 227.738281 79.863281 Z M 238.644531 71.320312 C 236.894531 71.730469 235.449219 72.558594 233.992188 73.484375 C 234.15625 73.867188 234.304688 74.207031 234.449219 74.550781 C 235.507812 77.078125 236.433594 79.652344 237.035156 82.332031 C 237.722656 85.371094 237.851562 88.449219 237.5625 91.550781 C 237.363281 93.71875 236.925781 95.835938 235.984375 97.808594 C 234.738281 100.410156 232.851562 102.402344 230.15625 103.519531 C 228.308594 104.285156 226.367188 104.378906 224.417969 104.003906 C 222.980469 103.726562 221.8125 102.9375 220.890625 101.804688 C 219.570312 100.1875 218.832031 98.308594 218.488281 96.273438 C 217.914062 92.855469 218.320312 89.496094 219.21875 86.179688 C 220.394531 81.851562 222.414062 77.960938 225.308594 74.53125 C 225.617188 74.164062 225.691406 73.855469 225.507812 73.410156 C 225.085938 72.367188 224.714844 71.304688 224.292969 70.175781 C 224.078125 70.347656 223.90625 70.46875 223.75 70.609375 C 220.238281 73.8125 216.730469 77.015625 213.214844 80.210938 C 212.945312 80.453125 212.84375 80.734375 212.785156 81.074219 C 211.449219 88.773438 209.847656 96.421875 207.855469 103.980469 C 206.867188 107.746094 205.527344 111.394531 203.890625 114.925781 C 202.949219 116.953125 201.835938 118.886719 200.304688 120.546875 C 198.910156 122.0625 197.269531 123.183594 195.273438 123.726562 C 193.441406 124.222656 191.632812 124.164062 189.910156 123.308594 C 187.707031 122.207031 186.132812 120.503906 185.1875 118.226562 C 185.148438 118.125 185.117188 118.019531 185.046875 117.816406 C 186.804688 117.5625 188.519531 117.3125 190.230469 117.0625 C 190.371094 117.238281 190.476562 117.375 190.585938 117.507812 C 191.253906 118.304688 192.25 118.488281 193.144531 117.949219 C 193.859375 117.519531 194.460938 116.949219 194.832031 116.207031 C 195.503906 114.867188 196.1875 113.527344 196.722656 112.128906 C 198.71875 106.894531 200.039062 101.46875 201.222656 96.007812 C 201.585938 94.324219 201.949219 92.640625 202.308594 90.957031 C 202.332031 90.839844 202.339844 90.71875 202.367188 90.511719 C 202.222656 90.617188 202.148438 90.65625 202.089844 90.714844 C 199.222656 93.632812 196.414062 96.605469 194.074219 99.976562 C 192.515625 102.21875 191.203125 104.59375 190.304688 107.175781 C 189.65625 109.042969 189.261719 110.964844 189.277344 112.953125 C 189.28125 113.0625 189.277344 113.171875 189.269531 113.28125 C 189.265625 113.324219 189.238281 113.363281 189.199219 113.472656 C 187.605469 113.738281 185.980469 114.011719 184.269531 114.296875 C 184.238281 113.972656 184.203125 113.714844 184.191406 113.460938 C 184.121094 111.527344 184.402344 109.628906 184.855469 107.753906 C 185.792969 103.875 187.628906 100.414062 189.863281 97.148438 C 191.726562 94.425781 193.863281 91.917969 196.167969 89.558594 C 198.589844 87.078125 201.085938 84.667969 203.574219 82.25 C 203.988281 81.84375 204.253906 81.4375 204.363281 80.855469 C 204.839844 78.296875 205.398438 75.753906 205.617188 73.105469 C 205.5 73.261719 205.378906 73.414062 205.269531 73.578125 C 204.101562 75.371094 202.96875 77.195312 201.75 78.953125 C 200.832031 80.277344 199.816406 81.535156 198.804688 82.789062 C 198.148438 83.605469 197.332031 84.253906 196.449219 84.816406 C 193.628906 86.609375 190.148438 86.007812 188.085938 83.371094 C 186.960938 81.929688 186.460938 80.25 186.242188 78.472656 C 186.152344 77.761719 186.113281 77.042969 186.039062 76.1875 C 185.820312 76.46875 185.671875 76.648438 185.535156 76.835938 C 183.890625 79.03125 182.183594 81.175781 180.234375 83.113281 C 179.441406 83.902344 178.566406 84.625 177.683594 85.324219 C 176.972656 85.886719 176.148438 86.261719 175.296875 86.59375 C 173.535156 87.28125 171.886719 86.9375 170.339844 86.039062 C 168.230469 84.808594 167.101562 82.925781 166.832031 80.492188 C 166.664062 78.980469 166.824219 77.5 167.058594 76.011719 C 167.085938 75.820312 167.113281 75.628906 167.035156 75.386719 C 166.914062 75.585938 166.789062 75.78125 166.667969 75.980469 C 165.554688 77.808594 164.472656 79.660156 163.3125 81.460938 C 162.714844 82.386719 162.007812 83.242188 161.304688 84.09375 C 160.726562 84.796875 160.015625 85.363281 159.214844 85.808594 C 157.058594 87.015625 154.746094 86.671875 153.046875 84.878906 C 151.550781 83.300781 150.777344 81.382812 150.40625 79.269531 C 149.816406 75.910156 150.375 72.675781 151.480469 69.503906 C 152.457031 66.703125 153.890625 64.152344 155.816406 61.890625 C 158.3125 58.960938 161.464844 57.261719 165.316406 56.941406 C 167.511719 56.757812 169.589844 57.140625 171.515625 58.460938 C 171.6875 58.203125 171.867188 57.964844 172.011719 57.703125 C 172.476562 56.855469 173.191406 56.527344 174.144531 56.527344 C 175.359375 56.523438 176.527344 56.714844 177.617188 57.246094 C 178.046875 57.453125 178.449219 57.75 178.804688 58.074219 C 179.300781 58.523438 179.511719 59.121094 179.511719 59.796875 C 179.515625 60.695312 179.300781 61.550781 178.992188 62.382812 C 178.34375 64.117188 177.675781 65.851562 177.007812 67.578125 C 175.9375 70.339844 174.910156 73.113281 174.238281 76 C 173.933594 77.3125 173.660156 78.636719 173.664062 79.988281 C 173.664062 80.375 173.746094 80.78125 173.878906 81.144531 C 174.027344 81.550781 174.316406 81.636719 174.671875 81.394531 C 175.089844 81.109375 175.503906 80.792969 175.839844 80.417969 C 177.296875 78.789062 178.800781 77.195312 180.152344 75.480469 C 182.492188 72.511719 184.734375 69.46875 187 66.449219 C 187.21875 66.160156 187.375 65.796875 187.460938 65.445312 C 188.019531 63.058594 188.5625 60.667969 189.085938 58.277344 C 189.300781 57.304688 189.410156 56.316406 189.3125 55.316406 C 189.292969 55.101562 189.246094 54.882812 189.179688 54.675781 C 188.992188 54.097656 189.160156 53.609375 189.621094 53.265625 C 189.953125 53.015625 190.332031 52.78125 190.726562 52.675781 C 192.949219 52.078125 195.046875 52.25 196.929688 53.742188 C 198 54.59375 198.53125 55.703125 198.730469 57.023438 C 198.972656 58.628906 198.789062 60.207031 198.355469 61.742188 C 197.714844 64.015625 196.984375 66.261719 196.257812 68.507812 C 195.488281 70.878906 194.609375 73.21875 194.144531 75.679688 C 193.933594 76.804688 193.828125 77.949219 193.703125 79.085938 C 193.671875 79.335938 193.753906 79.59375 193.789062 79.875 C 194.285156 79.914062 194.636719 79.722656 194.914062 79.441406 C 195.347656 79.003906 195.773438 78.550781 196.144531 78.058594 C 197.957031 75.683594 199.589844 73.1875 201.074219 70.597656 C 203.300781 66.699219 205.21875 62.652344 206.820312 58.453125 C 206.921875 58.1875 207.039062 57.925781 207.148438 57.660156 C 207.699219 56.296875 208.730469 55.574219 210.167969 55.402344 C 211.847656 55.203125 213.421875 55.554688 214.898438 56.359375 C 215.6875 56.789062 216.117188 57.429688 215.996094 58.363281 C 215.84375 59.542969 215.691406 60.726562 215.535156 61.910156 C 215.238281 64.207031 214.945312 66.503906 214.644531 68.800781 C 214.535156 69.65625 214.410156 70.507812 214.296875 71.359375 C 214.261719 71.636719 214.238281 71.914062 214.191406 72.328125 C 214.449219 72.117188 214.601562 72.003906 214.746094 71.875 C 217.136719 69.742188 219.523438 67.605469 221.910156 65.46875 C 222.417969 65.015625 222.457031 65.117188 222.203125 64.417969 C 221.507812 62.527344 220.960938 60.59375 220.800781 58.578125 C 220.546875 55.386719 221.003906 52.3125 222.53125 49.46875 C 223.65625 47.375 225.382812 45.835938 227.5 44.84375 C 231.097656 43.15625 235.542969 44.414062 237.277344 48.046875 C 238.121094 49.824219 238.320312 51.683594 237.78125 53.597656 C 237.367188 55.074219 236.730469 56.453125 235.921875 57.757812 C 234.457031 60.117188 232.648438 62.199219 230.714844 64.179688 C 230.152344 64.761719 230.183594 64.609375 230.5 65.363281 C 230.894531 66.300781 231.300781 67.230469 231.703125 68.164062 C 231.78125 68.339844 231.871094 68.511719 231.976562 68.730469 C 232.21875 68.597656 232.429688 68.484375 232.636719 68.367188 C 234.285156 67.453125 235.972656 66.640625 237.847656 66.308594 C 239.089844 66.089844 240.320312 66.128906 241.519531 66.53125 C 243.914062 67.328125 245.253906 69.761719 244.601562 72.09375 C 244.171875 73.617188 242.898438 74.679688 241.476562 74.738281 C 239.878906 74.800781 238.40625 73.503906 238.613281 71.753906 C 238.625 71.648438 238.628906 71.542969 238.644531 71.320312 " fill-opacity="1" fill-rule="nonzero"/><path fill="#88c0fa" d="M 160.714844 214.25 C 161.53125 213.632812 162.261719 213.140625 162.929688 212.570312 C 166.433594 209.589844 169.453125 206.167969 171.996094 202.339844 C 173.296875 200.382812 174.300781 198.269531 174.890625 195.980469 C 174.988281 195.597656 175.070312 195.203125 175.105469 194.808594 C 175.160156 194.183594 174.882812 193.941406 174.265625 194.082031 C 173.925781 194.15625 173.566406 194.265625 173.285156 194.460938 C 172.453125 195.039062 171.609375 195.613281 170.851562 196.28125 C 169.339844 197.621094 168.109375 199.214844 166.964844 200.875 C 164.246094 204.8125 162.269531 209.109375 160.832031 213.660156 C 160.789062 213.800781 160.773438 213.949219 160.714844 214.25 Z M 85.695312 231.070312 C 85.539062 231.28125 85.382812 231.488281 85.234375 231.703125 C 83.808594 233.703125 82.335938 235.660156 80.574219 237.386719 C 79.65625 238.285156 78.617188 238.960938 77.351562 239.261719 C 75.730469 239.644531 74.386719 239.175781 73.269531 237.980469 C 72.390625 237.046875 71.953125 235.90625 71.730469 234.664062 C 71.453125 233.144531 71.558594 231.628906 71.796875 230.117188 C 71.816406 230.007812 71.835938 229.898438 71.851562 229.789062 C 71.851562 229.769531 71.839844 229.75 71.804688 229.621094 C 71.652344 229.839844 71.539062 230.003906 71.425781 230.167969 C 70.214844 231.9375 69.023438 233.71875 67.792969 235.472656 C 67.003906 236.59375 66.113281 237.636719 65.054688 238.523438 C 64.3125 239.144531 63.492188 239.589844 62.53125 239.78125 C 61.445312 240 60.472656 239.75 59.582031 239.121094 C 58.535156 238.386719 57.828125 237.394531 57.402344 236.195312 C 56.984375 235.019531 56.777344 233.800781 56.757812 232.558594 C 56.683594 228.613281 57.339844 224.769531 58.417969 220.996094 C 59.140625 218.46875 59.996094 215.984375 60.777344 213.476562 C 61.035156 212.65625 61.285156 211.828125 61.460938 210.988281 C 61.574219 210.4375 61.578125 209.851562 61.5625 209.285156 C 61.546875 208.695312 61.683594 208.273438 62.238281 208.046875 C 63.820312 207.394531 65.433594 207.289062 66.964844 208.144531 C 68.265625 208.871094 68.742188 210.125 68.808594 211.542969 C 68.867188 212.859375 68.59375 214.148438 68.203125 215.390625 C 67.503906 217.621094 66.757812 219.839844 65.964844 222.039062 C 64.894531 225.011719 63.875 227.996094 63.0625 231.050781 C 62.925781 231.5625 62.824219 232.082031 62.761719 232.609375 C 62.714844 233 62.710938 233.40625 62.773438 233.792969 C 62.871094 234.371094 63.160156 234.46875 63.585938 234.082031 C 63.875 233.816406 64.144531 233.511719 64.367188 233.1875 C 65.550781 231.480469 66.808594 229.820312 67.875 228.039062 C 70.105469 224.304688 72.230469 220.507812 74.402344 216.738281 C 74.710938 216.203125 75.015625 215.664062 75.328125 215.128906 C 75.816406 214.289062 76.554688 213.898438 77.527344 213.921875 C 78.621094 213.945312 79.6875 214.101562 80.671875 214.609375 C 81.734375 215.160156 82.195312 215.988281 81.992188 217.167969 C 81.851562 217.96875 81.621094 218.761719 81.351562 219.527344 C 80.675781 221.441406 79.933594 223.332031 79.246094 225.246094 C 78.390625 227.617188 77.707031 230.035156 77.378906 232.542969 C 77.300781 233.132812 77.214844 233.730469 77.515625 234.289062 C 77.863281 234.402344 78.019531 234.136719 78.179688 233.953125 C 78.90625 233.121094 79.648438 232.300781 80.324219 231.425781 C 84.132812 226.503906 87.105469 221.097656 89.53125 215.378906 C 89.730469 214.914062 89.929688 214.445312 90.128906 213.976562 C 90.359375 213.445312 90.738281 213.058594 91.285156 212.855469 C 92.8125 212.289062 94.382812 212.121094 95.976562 212.476562 C 97.21875 212.753906 97.941406 213.773438 97.632812 214.992188 C 97.339844 216.167969 96.960938 217.320312 96.617188 218.484375 C 96.550781 218.710938 96.46875 218.933594 96.507812 219.214844 C 96.683594 219.027344 96.863281 218.835938 97.039062 218.648438 C 98.25 217.328125 99.492188 216.039062 100.90625 214.929688 C 102.230469 213.882812 103.675781 213.050781 105.222656 212.367188 C 107.488281 211.367188 109.4375 212.464844 110.570312 213.667969 C 111.199219 214.335938 111.492188 215.140625 111.316406 216.042969 C 111.160156 216.839844 110.972656 217.644531 110.671875 218.398438 C 109.820312 220.507812 108.894531 222.585938 108.019531 224.683594 C 107.074219 226.945312 106.140625 229.210938 105.523438 231.589844 C 105.390625 232.101562 105.316406 232.628906 105.253906 233.15625 C 105.207031 233.546875 105.203125 233.953125 105.597656 234.328125 C 105.886719 234.113281 106.210938 233.925781 106.460938 233.667969 C 107.394531 232.695312 108.375 231.757812 109.210938 230.707031 C 111.5 227.839844 113.722656 224.921875 115.976562 222.03125 C 116.375 221.515625 116.625 220.949219 116.765625 220.308594 C 117.742188 215.851562 119.21875 211.554688 120.902344 207.324219 C 121 207.074219 121.089844 206.828125 121.183594 206.578125 C 121.195312 206.539062 121.183594 206.496094 121.183594 206.398438 C 121.066406 206.390625 120.945312 206.367188 120.824219 206.375 C 117.539062 206.5625 114.246094 206.691406 110.980469 207.148438 C 109.449219 207.363281 107.921875 207.621094 106.398438 207.882812 C 105.472656 208.042969 105.042969 207.890625 104.703125 207.050781 C 104.230469 205.886719 104.035156 204.660156 104.273438 203.414062 C 104.484375 202.308594 105.113281 201.484375 106.164062 201.015625 C 106.960938 200.660156 107.800781 200.453125 108.660156 200.394531 C 109.851562 200.308594 111.046875 200.226562 112.238281 200.246094 C 115.882812 200.300781 119.53125 200.40625 123.179688 200.492188 C 123.355469 200.496094 123.527344 200.492188 123.742188 200.492188 C 123.839844 200.300781 123.941406 200.105469 124.039062 199.910156 C 124.558594 198.839844 125.074219 197.761719 125.59375 196.691406 C 125.730469 196.414062 125.878906 196.140625 126.027344 195.871094 C 126.410156 195.15625 126.996094 194.800781 127.816406 194.871094 C 128.609375 194.941406 129.402344 194.996094 130.1875 195.09375 C 130.535156 195.136719 130.882812 195.25 131.207031 195.378906 C 132.039062 195.707031 132.382812 196.253906 132.269531 197.144531 C 132.207031 197.617188 132.042969 198.085938 131.886719 198.542969 C 131.671875 199.167969 131.414062 199.78125 131.179688 200.398438 C 131.167969 200.433594 131.183594 200.484375 131.191406 200.585938 C 131.363281 200.601562 131.550781 200.628906 131.738281 200.628906 C 132.953125 200.628906 134.171875 200.609375 135.386719 200.617188 C 135.757812 200.621094 136.140625 200.660156 136.496094 200.757812 C 137.070312 200.921875 137.320312 201.308594 137.3125 201.894531 C 137.3125 202.050781 137.296875 202.207031 137.261719 202.355469 C 137.101562 203.066406 136.9375 203.773438 136.761719 204.480469 C 136.46875 205.640625 135.933594 206.0625 134.738281 206.085938 C 133.148438 206.113281 131.554688 206.125 129.960938 206.152344 C 129.566406 206.160156 129.171875 206.191406 128.726562 206.214844 C 128.519531 206.730469 128.308594 207.238281 128.113281 207.75 C 126.578125 211.792969 124.992188 215.824219 123.824219 219.996094 C 123.027344 222.847656 122.347656 225.726562 121.972656 228.667969 C 121.851562 229.605469 121.796875 230.558594 121.78125 231.503906 C 121.777344 231.957031 121.875 232.429688 122.023438 232.863281 C 122.21875 233.433594 122.644531 233.589844 123.1875 233.300781 C 123.589844 233.085938 123.972656 232.808594 124.324219 232.511719 C 125.601562 231.4375 126.636719 230.136719 127.65625 228.832031 C 129.910156 225.957031 131.894531 222.902344 133.832031 219.8125 C 134.96875 217.996094 136.121094 216.1875 137.265625 214.378906 C 137.394531 214.171875 137.539062 213.976562 137.664062 213.765625 C 138.363281 212.558594 139.445312 212.109375 140.792969 212.207031 C 141.722656 212.269531 142.636719 212.421875 143.511719 212.761719 C 144.6875 213.21875 145.167969 214.042969 144.902344 215.269531 C 144.738281 216.023438 144.492188 216.761719 144.222656 217.480469 C 143.371094 219.753906 142.445312 222 141.628906 224.289062 C 140.910156 226.304688 140.238281 228.34375 139.886719 230.464844 C 139.804688 230.960938 139.777344 231.476562 139.804688 231.980469 C 139.84375 232.730469 140.292969 232.945312 140.925781 232.527344 C 141.273438 232.296875 141.578125 232 141.882812 231.710938 C 143.175781 230.496094 144.316406 229.140625 145.355469 227.710938 C 147.480469 224.804688 149.550781 221.859375 151.652344 218.933594 C 151.914062 218.5625 152.0625 218.171875 152.15625 217.726562 C 153.484375 211.6875 155.265625 205.800781 158.40625 200.417969 C 160.222656 197.3125 162.386719 194.46875 165.132812 192.105469 C 166.914062 190.574219 168.894531 189.394531 171.1875 188.800781 C 172.621094 188.429688 174.066406 188.308594 175.511719 188.726562 C 177.648438 189.34375 178.832031 190.804688 179.210938 192.957031 C 179.453125 194.339844 179.214844 195.6875 178.871094 197.019531 C 178.085938 200.046875 176.707031 202.808594 174.925781 205.363281 C 172.339844 209.074219 169.367188 212.457031 165.933594 215.417969 C 164.015625 217.070312 161.9375 218.484375 159.558594 219.410156 C 159.332031 219.496094 159.203125 219.613281 159.152344 219.867188 C 158.402344 223.414062 158.054688 226.980469 158.648438 230.585938 C 158.714844 230.996094 158.828125 231.410156 158.988281 231.792969 C 159.472656 232.972656 160.441406 233.398438 161.625 232.925781 C 162.109375 232.734375 162.578125 232.460938 163.007812 232.15625 C 164.527344 231.074219 165.835938 229.753906 167.046875 228.34375 C 169.324219 225.679688 171.355469 222.851562 172.894531 219.691406 C 173.117188 219.238281 173.179688 219.222656 173.675781 219.316406 C 174.265625 219.425781 174.746094 219.753906 175.144531 220.171875 C 176.589844 221.683594 177.28125 224.0625 176.292969 226.171875 C 175.59375 227.664062 174.640625 228.988281 173.605469 230.257812 C 171.667969 232.640625 169.449219 234.71875 166.855469 236.378906 C 164.921875 237.609375 162.839844 238.40625 160.535156 238.578125 C 156.914062 238.847656 154.050781 237.191406 152.5 233.910156 C 151.675781 232.167969 151.28125 230.320312 151.171875 228.40625 C 151.148438 227.964844 151.117188 227.527344 151.078125 226.910156 C 150.867188 227.179688 150.742188 227.335938 150.621094 227.492188 C 149.332031 229.175781 148.089844 230.898438 146.738281 232.53125 C 145.855469 233.597656 144.855469 234.582031 143.824219 235.515625 C 143.109375 236.160156 142.289062 236.707031 141.457031 237.203125 C 138.785156 238.785156 135.449219 237.8125 134.066406 234.6875 C 133.3125 232.988281 133.105469 231.207031 133.351562 229.371094 C 133.414062 228.898438 133.488281 228.421875 133.457031 227.894531 C 133.320312 228.082031 133.179688 228.265625 133.042969 228.457031 C 131.542969 230.621094 129.914062 232.683594 128.183594 234.667969 C 127.253906 235.738281 126.246094 236.726562 125 237.441406 C 124.304688 237.839844 123.582031 238.15625 122.792969 238.316406 C 122.125 238.449219 121.457031 238.457031 120.816406 238.277344 C 118.128906 237.519531 116.148438 235.964844 115.457031 233.144531 C 115.253906 232.320312 115.285156 231.4375 115.210938 230.582031 C 115.195312 230.410156 115.191406 230.242188 115.070312 230.011719 C 114.925781 230.183594 114.78125 230.359375 114.640625 230.535156 C 113.21875 232.34375 111.785156 234.140625 110.183594 235.792969 C 109.269531 236.734375 108.285156 237.582031 107.128906 238.214844 C 105.8125 238.9375 104.421875 239.191406 102.980469 238.664062 C 101.425781 238.09375 100.238281 237.070312 99.476562 235.585938 C 98.65625 233.984375 98.566406 232.300781 98.859375 230.554688 C 99.289062 227.984375 100.210938 225.574219 101.132812 223.160156 C 101.691406 221.699219 102.296875 220.257812 102.8125 218.730469 C 102.664062 218.851562 102.5 218.957031 102.359375 219.089844 C 99.222656 222.042969 96.625 225.386719 94.804688 229.316406 C 93.484375 232.167969 92.289062 235.058594 91.617188 238.144531 C 91.570312 238.359375 91.492188 238.566406 91.417969 238.773438 C 91.238281 239.300781 90.859375 239.621094 90.328125 239.746094 C 89.4375 239.953125 88.539062 239.992188 87.636719 239.792969 C 86.554688 239.550781 85.835938 238.890625 85.402344 237.898438 C 84.90625 236.769531 84.867188 235.578125 85.074219 234.390625 C 85.242188 233.433594 85.496094 232.492188 85.714844 231.546875 C 85.75 231.398438 85.777344 231.253906 85.8125 231.105469 C 85.773438 231.09375 85.734375 231.082031 85.695312 231.070312 " fill-opacity="1" fill-rule="nonzero"/><path fill="#88c0fa" d="M 72.375 67.105469 C 71.804688 66.617188 71.339844 66.164062 70.617188 66.082031 C 69.355469 65.9375 68.207031 66.175781 67.167969 66.914062 C 65.9375 67.789062 65.011719 68.925781 64.285156 70.238281 C 63.480469 71.695312 62.929688 73.253906 62.523438 74.863281 C 62.058594 76.683594 61.757812 78.535156 61.820312 80.421875 C 61.84375 81.054688 61.886719 81.695312 62.367188 82.269531 C 62.617188 82.121094 62.867188 82.019531 63.054688 81.851562 C 63.476562 81.464844 63.925781 81.089844 64.261719 80.632812 C 65.101562 79.496094 65.945312 78.359375 66.671875 77.152344 C 68.148438 74.695312 69.558594 72.195312 70.984375 69.707031 C 71.464844 68.863281 71.898438 67.996094 72.375 67.105469 Z M 98.855469 61.945312 C 98.898438 61.96875 98.9375 61.992188 98.980469 62.019531 C 99.089844 61.890625 99.207031 61.765625 99.3125 61.628906 C 102.9375 56.839844 106.039062 51.738281 108.324219 46.171875 C 109.441406 43.449219 110.273438 40.640625 110.660156 37.710938 C 110.707031 37.367188 110.683594 37.007812 110.632812 36.664062 C 110.578125 36.289062 110.386719 36.152344 110.046875 36.203125 C 109.859375 36.230469 109.652344 36.304688 109.507812 36.421875 C 109.152344 36.714844 108.796875 37.019531 108.492188 37.367188 C 107.578125 38.429688 106.851562 39.617188 106.277344 40.886719 C 103.675781 46.621094 101.484375 52.511719 99.757812 58.566406 C 99.4375 59.6875 99.15625 60.820312 98.855469 61.945312 Z M 74.832031 62.359375 C 75.226562 61.742188 75.597656 61.144531 75.984375 60.554688 C 76.738281 59.410156 77.808594 58.9375 79.164062 59.0625 C 80.386719 59.179688 81.5625 59.460938 82.671875 59.988281 C 83.695312 60.46875 84.03125 61.089844 83.71875 62.183594 C 83.378906 63.394531 82.953125 64.582031 82.519531 65.761719 C 81.234375 69.242188 79.976562 72.730469 79.234375 76.375 C 78.957031 77.757812 78.703125 79.15625 78.589844 80.558594 C 78.515625 81.46875 78.664062 82.410156 78.808594 83.320312 C 78.925781 84.0625 79.46875 84.253906 80.070312 83.789062 C 80.570312 83.398438 81.058594 82.960938 81.453125 82.464844 C 83.628906 79.734375 85.765625 76.976562 87.929688 74.234375 C 88.191406 73.898438 88.265625 73.53125 88.3125 73.132812 C 89.28125 65.296875 90.664062 57.546875 93.105469 50.019531 C 94.351562 46.167969 95.820312 42.410156 97.757812 38.84375 C 98.785156 36.953125 99.992188 35.1875 101.511719 33.652344 C 103.308594 31.847656 105.4375 30.65625 107.972656 30.261719 C 109.777344 29.976562 111.5 30.304688 113.128906 31.09375 C 114.261719 31.640625 114.976562 32.574219 115.390625 33.746094 C 115.914062 35.222656 115.9375 36.738281 115.726562 38.261719 C 115.140625 42.449219 113.855469 46.429688 112.085938 50.257812 C 109.429688 56 106.128906 61.347656 102.101562 66.230469 C 100.753906 67.871094 99.269531 69.394531 97.554688 70.664062 C 97.242188 70.898438 97.117188 71.175781 97.066406 71.550781 C 96.792969 73.609375 96.613281 75.671875 96.511719 77.746094 C 96.449219 79.054688 96.472656 80.351562 96.691406 81.636719 C 96.753906 82.003906 96.847656 82.378906 97 82.714844 C 97.300781 83.382812 97.773438 83.5 98.308594 83.007812 C 98.84375 82.519531 99.367188 81.992188 99.796875 81.414062 C 101.171875 79.570312 102.550781 77.730469 103.832031 75.828125 C 106.273438 72.199219 108.648438 68.523438 111.058594 64.871094 C 111.386719 64.375 111.734375 63.890625 112.109375 63.425781 C 112.644531 62.757812 113.355469 62.449219 114.210938 62.53125 C 115.457031 62.644531 116.660156 62.921875 117.753906 63.546875 C 118.921875 64.210938 119.257812 64.925781 119.003906 66.242188 C 118.875 66.9375 118.679688 67.617188 118.476562 68.292969 C 117.621094 71.101562 116.714844 73.894531 116.144531 76.78125 C 115.894531 78.035156 115.722656 79.304688 115.554688 80.574219 C 115.488281 81.09375 115.507812 81.632812 115.519531 82.160156 C 115.523438 82.445312 115.554688 82.824219 115.871094 82.871094 C 116.105469 82.902344 116.40625 82.71875 116.617188 82.558594 C 116.859375 82.375 117.066406 82.125 117.246094 81.875 C 118.054688 80.746094 118.910156 79.640625 119.640625 78.460938 C 121.449219 75.550781 122.957031 72.472656 124.433594 69.382812 C 125.257812 67.652344 126.050781 65.902344 126.863281 64.160156 C 127.253906 63.320312 127.949219 62.898438 128.871094 62.953125 C 130.003906 63.019531 131.109375 63.226562 132.171875 63.625 C 133.695312 64.195312 134.421875 65.226562 134.230469 66.839844 C 134.082031 68.082031 133.742188 69.304688 133.507812 70.539062 C 133.015625 73.117188 132.503906 75.695312 132.0625 78.28125 C 131.890625 79.277344 131.796875 80.296875 131.960938 81.3125 C 132 81.550781 132.039062 81.796875 132.132812 82.015625 C 132.363281 82.566406 132.839844 82.777344 133.367188 82.511719 C 133.753906 82.316406 134.125 82.054688 134.433594 81.753906 C 136.332031 79.902344 137.839844 77.746094 139.175781 75.476562 C 141.882812 70.875 143.835938 65.96875 145.027344 60.765625 C 145.484375 58.777344 145.734375 56.761719 145.703125 54.722656 C 145.675781 52.851562 145.476562 51.023438 144.476562 49.367188 C 143.496094 47.753906 142.15625 46.605469 140.351562 46.019531 C 139.75 45.824219 139.136719 45.777344 138.515625 45.828125 C 137.777344 45.890625 137.164062 46.21875 136.691406 46.789062 C 135.957031 47.675781 135.917969 48.726562 136.597656 49.65625 C 137.121094 50.375 137.824219 50.875 138.644531 51.179688 C 140.34375 51.8125 142.09375 52.128906 143.910156 51.832031 C 144.125 51.796875 144.339844 51.789062 144.609375 51.765625 C 144.945312 53.457031 144.984375 55.117188 144.789062 56.859375 C 143.816406 56.96875 142.878906 57.105469 141.9375 57.175781 C 139.445312 57.363281 136.984375 57.144531 134.589844 56.421875 C 132.433594 55.773438 130.726562 54.5 129.492188 52.617188 C 128.277344 50.761719 127.984375 48.710938 128.425781 46.578125 C 128.96875 43.9375 130.234375 41.707031 132.476562 40.113281 C 133.925781 39.082031 135.582031 38.605469 137.332031 38.566406 C 141.195312 38.476562 144.3125 40.101562 146.808594 42.949219 C 149.023438 45.476562 150.308594 48.441406 150.710938 51.78125 C 151.046875 54.527344 150.855469 57.253906 150.351562 59.957031 C 148.878906 67.792969 145.878906 74.996094 141.269531 81.519531 C 140.195312 83.035156 139.011719 84.46875 137.660156 85.75 C 136.992188 86.378906 136.261719 86.988281 135.472656 87.453125 C 132.089844 89.4375 128.15625 88.332031 126.242188 84.902344 C 125.574219 83.710938 125.234375 82.414062 125.074219 81.0625 C 125.023438 80.628906 124.992188 80.1875 124.933594 79.570312 C 124.726562 79.894531 124.597656 80.085938 124.484375 80.28125 C 123.46875 82.019531 122.386719 83.71875 121.042969 85.222656 C 120.285156 86.078125 119.449219 86.878906 118.578125 87.621094 C 117.765625 88.316406 116.800781 88.765625 115.730469 88.960938 C 114.550781 89.175781 113.4375 89.003906 112.398438 88.425781 C 110.660156 87.457031 109.460938 86.046875 108.894531 84.121094 C 108.417969 82.488281 108.296875 80.824219 108.351562 79.136719 C 108.363281 78.90625 108.355469 78.675781 108.355469 78.28125 C 108.128906 78.585938 108 78.753906 107.875 78.925781 C 106.472656 80.855469 105.09375 82.804688 103.660156 84.710938 C 102.59375 86.128906 101.371094 87.40625 99.960938 88.492188 C 98.925781 89.292969 97.785156 89.84375 96.476562 90.003906 C 94.101562 90.300781 92.117188 89.546875 90.578125 87.710938 C 89.441406 86.359375 88.878906 84.730469 88.460938 83.046875 C 88.398438 82.789062 88.34375 82.535156 88.261719 82.199219 C 88.105469 82.359375 87.980469 82.46875 87.875 82.597656 C 86.929688 83.765625 86.023438 84.96875 85.039062 86.097656 C 84.273438 86.980469 83.441406 87.8125 82.578125 88.597656 C 81.785156 89.320312 80.804688 89.738281 79.75 89.976562 C 77.277344 90.539062 74.46875 88.933594 73.316406 86.941406 C 72.574219 85.65625 72.179688 84.257812 72.015625 82.800781 C 71.875 81.597656 71.835938 80.382812 71.75 79.171875 C 71.746094 79.066406 71.734375 78.957031 71.628906 78.796875 C 71.507812 78.988281 71.386719 79.179688 71.265625 79.371094 C 69.925781 81.5 68.601562 83.640625 67.238281 85.761719 C 66.824219 86.40625 66.335938 87.019531 65.835938 87.605469 C 65.4375 88.070312 64.996094 88.515625 64.519531 88.90625 C 62.480469 90.574219 60.5 90.671875 58.234375 89.476562 C 56.8125 88.730469 55.878906 87.5 55.160156 86.101562 C 54.472656 84.769531 54.113281 83.335938 53.980469 81.851562 C 53.550781 77.078125 54.496094 72.582031 56.761719 68.363281 C 57.578125 66.839844 58.5625 65.425781 59.808594 64.210938 C 61.859375 62.214844 64.277344 60.914062 67.121094 60.464844 C 69.046875 60.15625 70.914062 60.394531 72.679688 61.242188 C 73.394531 61.582031 74.089844 61.96875 74.832031 62.359375 " fill-opacity="1" fill-rule="nonzero"/><path fill="#88c0fa" d="M 68.621094 182.136719 C 69.082031 180.296875 69.542969 178.457031 70.011719 176.621094 C 72.085938 168.515625 74.164062 160.414062 76.242188 152.3125 C 77.035156 149.210938 77.824219 146.109375 78.632812 143.011719 C 78.777344 142.460938 78.945312 141.90625 79.183594 141.382812 C 79.574219 140.515625 80.226562 139.886719 81.203125 139.746094 C 82.207031 139.601562 83.21875 139.507812 84.230469 139.445312 C 84.59375 139.421875 84.980469 139.515625 85.332031 139.628906 C 85.960938 139.828125 86.246094 140.277344 86.246094 140.929688 C 86.234375 149.257812 86.222656 157.585938 86.210938 165.914062 C 86.203125 176.453125 86.199219 186.992188 86.191406 197.527344 C 86.1875 198.683594 85.917969 199.0625 84.78125 199.335938 C 82.996094 199.769531 81.175781 200.003906 79.347656 200.152344 C 79.195312 200.164062 79.039062 200.164062 78.882812 200.148438 C 78.078125 200.085938 77.554688 199.527344 77.546875 198.722656 C 77.515625 195.652344 77.480469 192.582031 77.46875 189.511719 C 77.441406 183.964844 77.425781 178.421875 77.40625 172.875 C 77.40625 172.679688 77.40625 172.480469 77.316406 172.253906 C 77.261719 172.398438 77.191406 172.542969 77.152344 172.695312 C 75.078125 180.570312 73.011719 188.449219 70.9375 196.324219 C 70.644531 197.4375 70.3125 198.535156 70.035156 199.648438 C 69.824219 200.488281 69.335938 200.984375 68.488281 201.183594 C 67.605469 201.390625 66.730469 201.605469 65.8125 201.582031 C 64.621094 201.546875 64.140625 201.214844 63.792969 200.066406 C 62.503906 195.820312 61.226562 191.574219 59.945312 187.328125 C 58.296875 181.875 56.652344 176.421875 55.007812 170.96875 C 54.960938 170.808594 54.90625 170.648438 54.738281 170.492188 C 54.726562 170.671875 54.699219 170.851562 54.703125 171.03125 C 54.753906 178.984375 54.8125 186.9375 54.863281 194.890625 C 54.875 196.964844 54.878906 199.042969 54.875 201.117188 C 54.871094 202.101562 54.523438 202.632812 53.566406 202.839844 C 52.6875 203.03125 51.777344 203.132812 50.878906 203.140625 C 49.777344 203.152344 49.21875 202.550781 49.167969 201.453125 C 49.132812 200.679688 49.140625 199.90625 49.132812 199.132812 C 49.03125 183.203125 48.933594 167.277344 48.832031 151.347656 C 48.820312 149.9375 48.792969 148.523438 48.796875 147.109375 C 48.796875 146.582031 48.835938 146.050781 48.902344 145.523438 C 48.996094 144.804688 49.335938 144.203125 50.007812 143.894531 C 50.5625 143.640625 51.15625 143.425781 51.757812 143.3125 C 52.796875 143.117188 53.851562 142.980469 54.90625 142.886719 C 56.433594 142.75 56.707031 142.945312 57.148438 144.402344 C 57.945312 147.019531 58.730469 149.640625 59.515625 152.261719 C 62.441406 162.03125 65.367188 171.800781 68.292969 181.570312 C 68.355469 181.769531 68.433594 181.964844 68.5 182.164062 C 68.539062 182.15625 68.582031 182.148438 68.621094 182.136719 " fill-opacity="1" fill-rule="nonzero"/><path fill="#88c0fa" d="M 210.957031 150.332031 C 211.859375 150.03125 212.425781 149.527344 212.894531 148.894531 C 214.089844 147.265625 214.835938 145.4375 215.292969 143.480469 C 216.03125 140.304688 216.03125 137.09375 215.648438 133.875 C 215.5 132.636719 215.101562 131.46875 214.574219 130.34375 C 214.164062 129.476562 213.558594 128.789062 212.667969 128.402344 C 212.152344 128.175781 211.625 128.058594 211.058594 128.324219 C 211.027344 135.640625 210.992188 142.9375 210.957031 150.332031 Z M 210.957031 157.644531 C 210.957031 163.410156 210.957031 169.226562 210.957031 175.066406 C 211.066406 175.058594 211.15625 175.074219 211.234375 175.046875 C 211.507812 174.960938 211.785156 174.875 212.046875 174.761719 C 214.011719 173.890625 215.3125 172.410156 216.066406 170.414062 C 217.109375 167.65625 217.476562 164.820312 217.121094 161.894531 C 216.957031 160.535156 216.699219 159.191406 216.128906 157.929688 C 215.78125 157.167969 215.347656 156.460938 214.703125 155.976562 C 213.429688 156.546875 212.226562 157.082031 210.957031 157.644531 Z M 220.015625 151.121094 C 220.304688 151.332031 220.535156 151.507812 220.769531 151.667969 C 223.609375 153.585938 225.164062 156.316406 225.773438 159.628906 C 226.640625 164.371094 225.871094 168.851562 223.59375 173.085938 C 222.640625 174.855469 221.453125 176.4375 219.90625 177.734375 C 217.121094 180.074219 214.007812 181.78125 210.386719 182.417969 C 209.152344 182.632812 207.890625 182.753906 206.636719 182.8125 C 205.898438 182.847656 205.136719 182.734375 204.402344 182.589844 C 203.0625 182.328125 202.1875 181.171875 202.175781 179.679688 C 202.160156 177.78125 202.179688 175.882812 202.183594 173.980469 C 202.226562 162.339844 202.265625 150.699219 202.3125 139.058594 C 202.328125 135.128906 202.351562 131.195312 202.375 127.265625 C 202.375 126.886719 202.40625 126.511719 202.410156 126.136719 C 202.421875 124.910156 203.011719 124.042969 204.074219 123.476562 C 205.035156 122.964844 206.058594 122.621094 207.125 122.398438 C 209.847656 121.820312 212.53125 121.921875 215.15625 122.882812 C 218.625 124.152344 220.949219 126.589844 222.335938 129.96875 C 223.179688 132.015625 223.578125 134.148438 223.667969 136.351562 C 223.796875 139.527344 223.539062 142.660156 222.628906 145.71875 C 222.105469 147.46875 221.332031 149.097656 220.339844 150.625 C 220.242188 150.769531 220.148438 150.914062 220.015625 151.121094 " fill-opacity="1" fill-rule="nonzero"/><path fill="#88c0fa" d="M 129.125 269.507812 C 129.074219 274.882812 129.28125 279.484375 130.140625 284.039062 C 130.5 285.953125 130.90625 287.847656 131.722656 289.632812 C 132.101562 290.457031 132.527344 291.25 133.121094 291.949219 C 134.085938 293.089844 135.699219 293.5 137.046875 292.109375 C 137.859375 291.265625 138.414062 290.273438 138.84375 289.199219 C 139.492188 287.597656 139.914062 285.925781 140.191406 284.222656 C 140.488281 282.417969 140.699219 280.597656 140.929688 278.78125 C 141.253906 276.214844 141.492188 273.640625 141.457031 271.054688 C 141.417969 268.097656 141.277344 265.140625 141.148438 262.183594 C 141.035156 259.628906 140.4375 257.167969 139.546875 254.773438 C 139.164062 253.753906 138.644531 252.800781 137.957031 251.960938 C 137.640625 251.570312 137.257812 251.214844 136.847656 250.933594 C 136.121094 250.433594 135.304688 250.339844 134.527344 250.792969 C 134.023438 251.089844 133.539062 251.460938 133.132812 251.882812 C 132.441406 252.605469 131.941406 253.472656 131.550781 254.394531 C 130.375 257.1875 129.695312 260.105469 129.464844 263.113281 C 129.28125 265.492188 129.207031 267.875 129.125 269.507812 Z M 152.050781 270.753906 C 152.015625 276.402344 151.085938 281.875 148.824219 287.082031 C 147.570312 289.960938 145.933594 292.597656 143.671875 294.8125 C 142.511719 295.949219 141.230469 296.921875 139.761719 297.625 C 136.011719 299.429688 132.324219 299.292969 128.71875 297.21875 C 126.691406 296.050781 125.09375 294.414062 123.742188 292.523438 C 121.789062 289.792969 120.511719 286.75 119.644531 283.523438 C 118.363281 278.761719 118.003906 273.917969 118.40625 269.007812 C 118.769531 264.617188 119.722656 260.367188 121.496094 256.320312 C 122.683594 253.609375 124.210938 251.109375 126.28125 248.972656 C 127.839844 247.367188 129.617188 246.070312 131.734375 245.296875 C 135.613281 243.882812 139.210938 244.519531 142.554688 246.847656 C 145.003906 248.558594 146.753906 250.871094 148.148438 253.472656 C 149.855469 256.65625 150.875 260.078125 151.472656 263.625 C 151.867188 265.984375 152.0625 268.359375 152.050781 270.753906 " fill-opacity="1" fill-rule="nonzero"/><path fill="#88c0fa" d="M 161.964844 263.917969 C 161.957031 264.125 161.941406 264.335938 161.941406 264.546875 C 161.964844 274.484375 161.988281 284.425781 162.007812 294.363281 C 162.011719 295.246094 162 296.128906 161.976562 297.011719 C 161.953125 297.972656 161.546875 298.492188 160.597656 298.671875 C 159.609375 298.859375 158.613281 298.835938 157.632812 298.625 C 156.875 298.464844 156.453125 297.957031 156.390625 297.183594 C 156.332031 296.4375 156.285156 295.683594 156.285156 294.933594 C 156.253906 286.894531 156.238281 278.855469 156.210938 270.816406 C 156.1875 263.304688 156.152344 255.796875 156.132812 248.289062 C 156.132812 247.761719 156.203125 247.230469 156.285156 246.707031 C 156.386719 246.03125 156.753906 245.496094 157.363281 245.207031 C 159.003906 244.433594 160.730469 243.988281 162.558594 244.140625 C 163.296875 244.203125 163.878906 244.574219 164.226562 245.285156 C 167.164062 251.296875 170.101562 257.304688 173.050781 263.308594 C 175.199219 267.6875 177.363281 272.0625 179.523438 276.4375 C 179.625 276.640625 179.738281 276.839844 179.847656 277.039062 C 179.894531 277.027344 179.941406 277.015625 179.988281 277.003906 C 179.988281 276.792969 179.988281 276.582031 179.988281 276.371094 C 179.984375 267.160156 179.980469 257.949219 179.980469 248.738281 C 179.980469 247.945312 179.976562 247.148438 179.988281 246.355469 C 179.992188 246.046875 180.015625 245.734375 180.066406 245.433594 C 180.199219 244.683594 180.652344 244.203125 181.382812 244.015625 C 182.292969 243.785156 183.222656 243.746094 184.148438 243.875 C 184.960938 243.992188 185.480469 244.578125 185.578125 245.46875 C 185.648438 246.128906 185.703125 246.789062 185.707031 247.453125 C 185.722656 262.050781 185.730469 276.652344 185.730469 291.25 C 185.730469 291.753906 185.683594 292.269531 185.585938 292.761719 C 185.40625 293.628906 184.898438 294.289062 184.121094 294.714844 C 182.96875 295.34375 181.730469 295.742188 180.4375 295.96875 C 179.492188 296.140625 178.589844 295.789062 178.019531 294.679688 C 172.855469 284.648438 167.660156 274.636719 162.472656 264.617188 C 162.34375 264.371094 162.207031 264.128906 162.074219 263.886719 C 162.039062 263.898438 162.003906 263.90625 161.964844 263.917969 " fill-opacity="1" fill-rule="nonzero"/><path fill="#88c0fa" d="M 97.25 284.722656 C 97.695312 284.589844 98.0625 284.519531 98.398438 284.382812 C 101.183594 283.25 103.214844 281.3125 104.535156 278.621094 C 105.875 275.894531 106.378906 272.960938 106.597656 269.976562 C 106.761719 267.730469 106.675781 265.472656 106.515625 263.222656 C 106.386719 261.449219 106.078125 259.714844 105.433594 258.054688 C 104.109375 254.628906 101.804688 252.300781 98.070312 251.617188 C 97.777344 251.5625 97.480469 251.535156 97.140625 251.488281 C 97.175781 262.59375 97.210938 273.605469 97.25 284.722656 Z M 88.78125 253.0625 C 88.496094 253.203125 88.292969 253.28125 88.109375 253.390625 C 86.167969 254.519531 84.933594 256.175781 84.507812 258.386719 C 84.058594 260.722656 84.394531 262.960938 85.550781 265.050781 C 85.761719 265.433594 86.046875 265.78125 86.324219 266.121094 C 86.503906 266.339844 86.53125 266.527344 86.410156 266.78125 C 86.027344 267.582031 85.601562 268.351562 84.960938 268.980469 C 83.5625 270.355469 81.871094 270.570312 80.171875 269.597656 C 78.8125 268.816406 77.890625 267.671875 77.300781 266.238281 C 76.609375 264.566406 76.398438 262.816406 76.585938 261.039062 C 77.175781 255.484375 79.925781 251.261719 84.644531 248.3125 C 88.488281 245.90625 92.683594 244.976562 97.195312 245.398438 C 99.664062 245.632812 102.035156 246.246094 104.285156 247.246094 C 108.078125 248.929688 111.054688 251.542969 113 255.253906 C 115.152344 259.367188 116.011719 263.761719 115.722656 268.382812 C 115.535156 271.367188 115.070312 274.304688 114.09375 277.144531 C 113.429688 279.078125 112.582031 280.929688 111.449219 282.621094 C 108.675781 286.765625 104.824219 289.34375 99.945312 290.394531 C 97.546875 290.914062 95.121094 290.925781 92.6875 290.78125 C 92.644531 290.777344 92.601562 290.773438 92.554688 290.769531 C 90.578125 290.429688 90.765625 290.429688 89.894531 289.042969 C 89.238281 288.003906 88.898438 286.894531 88.996094 285.652344 C 89.054688 284.90625 89.003906 284.148438 89 283.398438 C 88.929688 273.613281 88.855469 263.832031 88.78125 254.046875 C 88.78125 253.761719 88.78125 253.476562 88.78125 253.0625 " fill-opacity="1" fill-rule="nonzero"/><path fill="#88c0fa" d="M 122.652344 165.855469 C 122.789062 168.710938 122.898438 171.976562 123.117188 175.234375 C 123.269531 177.570312 123.660156 179.882812 124.285156 182.144531 C 124.605469 183.292969 124.980469 184.429688 125.59375 185.464844 C 126.148438 186.398438 126.933594 186.460938 127.609375 185.601562 C 127.902344 185.226562 128.175781 184.796875 128.328125 184.347656 C 128.742188 183.117188 129.175781 181.878906 129.4375 180.609375 C 130.425781 175.816406 130.726562 170.945312 130.867188 166.066406 C 130.972656 162.402344 130.875 158.734375 130.679688 155.074219 C 130.515625 151.984375 130.238281 148.910156 129.710938 145.859375 C 129.46875 144.46875 129.210938 143.074219 128.664062 141.761719 C 128.453125 141.257812 128.199219 140.753906 127.867188 140.324219 C 127.277344 139.578125 126.480469 139.609375 125.9375 140.394531 C 125.628906 140.84375 125.367188 141.351562 125.21875 141.875 C 124.863281 143.101562 124.53125 144.34375 124.300781 145.597656 C 123.585938 149.421875 123.226562 153.289062 122.996094 157.167969 C 122.835938 159.925781 122.773438 162.683594 122.652344 165.855469 Z M 139.234375 161.765625 C 139.183594 168.671875 138.582031 174.71875 136.886719 180.625 C 136.226562 182.917969 135.390625 185.148438 134.210938 187.238281 C 133.359375 188.75 132.351562 190.136719 131.007812 191.257812 C 129.753906 192.304688 128.328125 192.980469 126.6875 193.078125 C 124.859375 193.1875 123.257812 192.550781 121.839844 191.429688 C 120.714844 190.542969 119.832031 189.441406 119.078125 188.238281 C 117.859375 186.296875 117.015625 184.1875 116.34375 182.007812 C 115.289062 178.578125 114.675781 175.058594 114.320312 171.492188 C 113.941406 167.640625 113.84375 163.78125 114.070312 159.914062 C 114.402344 154.339844 115.210938 148.851562 117.109375 143.566406 C 117.789062 141.671875 118.628906 139.847656 119.753906 138.167969 C 120.519531 137.023438 121.40625 135.988281 122.511719 135.148438 C 125.28125 133.042969 128.589844 133.070312 131.320312 135.222656 C 132.644531 136.265625 133.625 137.589844 134.460938 139.035156 C 135.828125 141.40625 136.710938 143.96875 137.386719 146.605469 C 138.265625 150.015625 138.78125 153.484375 139.007812 156.996094 C 139.128906 158.84375 139.183594 160.699219 139.234375 161.765625 " fill-opacity="1" fill-rule="nonzero"/><path fill="#88c0fa" d="M 97.382812 173.179688 C 97.75 173.046875 98.074219 172.972656 98.355469 172.816406 C 99.46875 172.195312 100.414062 171.390625 101.066406 170.261719 C 101.6875 169.183594 102.164062 168.054688 102.535156 166.867188 C 103.144531 164.910156 103.308594 162.886719 103.402344 160.859375 C 103.550781 157.769531 103.519531 154.679688 103.160156 151.601562 C 102.992188 150.15625 102.796875 148.710938 102.277344 147.335938 C 101.910156 146.378906 101.421875 145.492188 100.6875 144.765625 C 99.789062 143.875 98.730469 143.449219 97.382812 143.710938 C 97.382812 153.492188 97.382812 163.265625 97.382812 173.179688 Z M 97.382812 179.382812 C 97.363281 179.640625 97.339844 179.835938 97.335938 180.03125 C 97.304688 183.011719 97.261719 185.992188 97.25 188.972656 C 97.242188 191.488281 97.265625 194.007812 97.277344 196.523438 C 97.28125 197.269531 97.113281 197.511719 96.371094 197.652344 C 94.269531 198.058594 92.167969 198.492188 90.019531 198.558594 C 88.996094 198.589844 88.398438 198.058594 88.3125 197.035156 C 88.257812 196.398438 88.261719 195.753906 88.261719 195.113281 C 88.289062 182.042969 88.316406 168.96875 88.347656 155.894531 C 88.359375 151.191406 88.378906 146.488281 88.398438 141.78125 C 88.398438 141.519531 88.394531 141.25 88.425781 140.988281 C 88.578125 139.757812 89.117188 138.785156 90.25 138.164062 C 91.636719 137.40625 93.132812 137.027344 94.683594 136.933594 C 97.082031 136.789062 99.449219 136.996094 101.730469 137.855469 C 104.707031 138.980469 107.042969 140.886719 108.757812 143.550781 C 110.238281 145.855469 111.0625 148.40625 111.535156 151.082031 C 112.09375 154.230469 112.269531 157.398438 111.933594 160.578125 C 111.507812 164.605469 110.609375 168.503906 108.597656 172.070312 C 107.105469 174.714844 105.066406 176.796875 102.289062 178.109375 C 100.9375 178.75 99.523438 179.148438 98.039062 179.304688 C 97.84375 179.324219 97.648438 179.351562 97.382812 179.382812 " fill-opacity="1" fill-rule="nonzero"/><path fill="#88c0fa" d="M 184.203125 92.851562 C 183.734375 93.554688 183.289062 94.261719 182.796875 94.933594 C 182.695312 95.066406 182.410156 95.117188 182.210938 95.125 C 180.863281 95.175781 179.511719 95.214844 178.167969 95.242188 C 174.804688 95.308594 171.445312 95.355469 168.085938 95.433594 C 163.664062 95.53125 159.246094 95.660156 154.824219 95.765625 C 151.796875 95.835938 148.769531 95.886719 145.742188 95.953125 C 142.160156 96.03125 138.578125 96.117188 134.996094 96.191406 C 132.257812 96.25 129.515625 96.292969 126.773438 96.359375 C 122.355469 96.464844 117.933594 96.585938 113.515625 96.691406 C 110.484375 96.761719 107.457031 96.816406 104.429688 96.882812 C 100.871094 96.957031 97.3125 97.042969 93.753906 97.117188 C 90.988281 97.175781 88.226562 97.222656 85.464844 97.289062 C 81.042969 97.390625 76.625 97.515625 72.203125 97.621094 C 69.019531 97.695312 65.835938 97.746094 62.652344 97.8125 C 58.941406 97.894531 55.226562 97.984375 51.515625 98.074219 C 51.34375 98.078125 51.171875 98.109375 50.9375 98.136719 C 50.917969 98.417969 50.863281 98.675781 50.890625 98.925781 C 51.035156 100.199219 51.164062 101.472656 51.371094 102.734375 C 51.972656 106.460938 52.625 110.179688 53.222656 113.90625 C 53.691406 116.832031 53.433594 119.675781 52.0625 122.359375 C 51.515625 123.441406 51.003906 124.546875 50.464844 125.632812 C 48.996094 128.601562 47.511719 131.5625 46.050781 134.535156 C 45.671875 135.304688 45.347656 136.101562 44.9375 137.015625 C 57.585938 135.019531 70.109375 133.007812 82.640625 131.015625 C 95.207031 129.019531 107.773438 127 120.339844 124.996094 C 132.886719 122.992188 145.433594 120.996094 157.984375 119 C 170.523438 117.007812 183.0625 115.019531 195.726562 113.011719 C 195.53125 113.46875 195.378906 113.839844 195.210938 114.210938 C 194.53125 115.734375 194.527344 115.71875 192.886719 115.96875 C 190.855469 116.28125 188.832031 116.621094 186.804688 116.945312 C 182.175781 117.679688 177.550781 118.414062 172.925781 119.152344 C 168.367188 119.878906 163.808594 120.613281 159.25 121.34375 C 154.949219 122.027344 150.648438 122.707031 146.351562 123.390625 C 142.074219 124.070312 137.800781 124.757812 133.523438 125.441406 C 129.816406 126.035156 126.105469 126.625 122.394531 127.214844 C 118.382812 127.851562 114.367188 128.488281 110.351562 129.128906 C 106.292969 129.773438 102.234375 130.425781 98.175781 131.070312 C 94.164062 131.714844 90.148438 132.355469 86.132812 132.996094 C 82.121094 133.636719 78.105469 134.273438 74.089844 134.914062 C 70.335938 135.511719 66.585938 136.117188 62.832031 136.714844 C 58.859375 137.347656 54.890625 137.980469 50.917969 138.613281 C 48.5625 138.988281 46.203125 139.351562 43.847656 139.742188 C 43.339844 139.824219 42.890625 139.789062 42.476562 139.457031 C 41.863281 138.964844 41.683594 138.449219 41.945312 137.699219 C 42.140625 137.136719 42.378906 136.589844 42.617188 136.042969 C 44.316406 132.105469 46.28125 128.300781 48.230469 124.484375 C 48.84375 123.285156 49.402344 122.058594 49.988281 120.847656 C 50.859375 119.039062 51.109375 117.121094 50.828125 115.160156 C 50.386719 112.101562 49.871094 109.054688 49.382812 106.003906 C 49.070312 104.039062 48.730469 102.082031 48.445312 100.117188 C 48.320312 99.265625 48.285156 98.402344 48.5 97.546875 C 48.796875 96.34375 49.746094 95.589844 50.984375 95.5625 C 56.089844 95.460938 61.195312 95.355469 66.304688 95.25 C 70.214844 95.164062 74.128906 95.078125 78.039062 94.984375 C 83.148438 94.867188 88.253906 94.734375 93.359375 94.621094 C 98.042969 94.515625 102.730469 94.429688 107.417969 94.324219 C 111.859375 94.21875 116.300781 94.097656 120.746094 93.992188 C 123.863281 93.917969 126.980469 93.867188 130.097656 93.796875 C 133.742188 93.71875 137.390625 93.628906 141.039062 93.550781 C 145.613281 93.449219 150.1875 93.359375 154.765625 93.261719 C 158.699219 93.175781 162.632812 93.085938 166.570312 92.996094 C 170.503906 92.910156 174.4375 92.820312 178.371094 92.730469 C 179.984375 92.695312 181.597656 92.644531 183.214844 92.609375 C 183.535156 92.601562 183.875 92.566406 184.203125 92.851562 " fill-opacity="1" fill-rule="nonzero"/><path fill="#88c0fa" d="M 176.210938 142.890625 C 177.214844 142.28125 178.046875 141.527344 178.683594 140.578125 C 179.625 139.167969 180.066406 137.625 179.746094 135.925781 C 179.375 133.945312 177.53125 132.726562 175.550781 133.113281 C 173.734375 133.464844 172.667969 134.65625 172.039062 136.296875 C 171.554688 137.550781 171.609375 138.847656 171.839844 140.148438 C 172.097656 141.574219 172.636719 142.898438 173.300781 144.179688 C 174.316406 146.132812 175.632812 147.875 177.070312 149.53125 C 178.898438 151.628906 180.765625 153.695312 182.5625 155.820312 C 185.242188 158.992188 187.417969 162.488281 188.53125 166.5 C 190.113281 172.222656 189.511719 177.664062 185.550781 182.351562 C 182.835938 185.566406 179.285156 187.023438 175.0625 186.585938 C 172.808594 186.347656 170.867188 185.308594 169.273438 183.742188 C 166.742188 181.253906 165.523438 178.207031 165.816406 174.644531 C 165.976562 172.722656 166.914062 171.214844 168.609375 170.234375 C 169.832031 169.527344 171.136719 169.347656 172.507812 169.746094 C 173.722656 170.101562 174.566406 170.90625 175.246094 171.921875 C 175.453125 172.230469 175.367188 172.476562 175.230469 172.777344 C 174.503906 174.359375 174.328125 176.003906 174.828125 177.679688 C 175.183594 178.867188 175.949219 179.675781 177.191406 179.945312 C 178.476562 180.21875 179.53125 179.8125 180.402344 178.839844 C 181.390625 177.734375 181.683594 176.402344 181.75 174.984375 C 181.867188 172.378906 181.230469 169.960938 179.972656 167.683594 C 178.488281 164.996094 176.601562 162.613281 174.597656 160.304688 C 172.84375 158.289062 171.105469 156.257812 169.414062 154.1875 C 167.34375 151.648438 165.761719 148.828125 164.800781 145.679688 C 163.933594 142.84375 163.667969 139.96875 164.355469 137.054688 C 164.878906 134.832031 165.808594 132.792969 167.246094 131.007812 C 169.617188 128.054688 172.695312 126.5625 176.492188 126.710938 C 179.589844 126.832031 182.15625 128.078125 184.144531 130.5 C 186.78125 133.707031 187.429688 137.359375 186.632812 141.332031 C 186.492188 142.03125 186.179688 142.71875 185.839844 143.355469 C 184.5 145.855469 182.207031 146.863281 179.433594 146.246094 C 178.707031 146.082031 178.046875 145.789062 177.46875 145.332031 C 176.703125 144.726562 176.25 143.949219 176.210938 142.890625 " fill-opacity="1" fill-rule="nonzero"/><path fill="#88c0fa" d="M 151.003906 145.527344 C 153.09375 144.753906 154.121094 143.199219 154.585938 141.226562 C 154.828125 140.179688 154.765625 139.117188 154.375 138.097656 C 153.6875 136.320312 151.960938 135.398438 150.105469 135.816406 C 147.964844 136.296875 146.261719 138.238281 146.023438 140.429688 C 145.898438 141.617188 146.078125 142.757812 146.484375 143.875 C 146.875 144.957031 147.367188 146.003906 148.0625 146.921875 C 149.179688 148.402344 150.304688 149.882812 151.503906 151.292969 C 152.976562 153.027344 154.523438 154.699219 156.042969 156.394531 C 159.242188 159.960938 161.597656 164.023438 163.199219 168.53125 C 163.980469 170.726562 164.261719 172.988281 164.023438 175.3125 C 163.917969 176.339844 163.882812 177.386719 163.675781 178.398438 C 163.058594 181.417969 161.679688 184.078125 159.464844 186.21875 C 156.953125 188.648438 153.894531 189.859375 150.367188 189.632812 C 147.585938 189.453125 145.269531 188.191406 143.429688 186.148438 C 141.433594 183.929688 140.429688 181.269531 140.484375 178.273438 C 140.519531 176.265625 141.285156 174.578125 143.003906 173.417969 C 144.011719 172.742188 145.121094 172.433594 146.335938 172.554688 C 148.109375 172.730469 149.285156 173.730469 150.0625 175.277344 C 150.210938 175.566406 150.160156 175.816406 150.023438 176.089844 C 149.476562 177.199219 149.40625 178.378906 149.511719 179.582031 C 149.59375 180.515625 149.9375 181.339844 150.589844 182.019531 C 151.535156 183 152.726562 183.078125 153.796875 182.230469 C 154.4375 181.722656 154.871094 181.058594 155.191406 180.320312 C 155.726562 179.066406 155.960938 177.746094 156.003906 176.386719 C 156.082031 173.722656 155.347656 171.289062 153.917969 169.050781 C 152.300781 166.511719 150.398438 164.183594 148.507812 161.847656 C 146.824219 159.773438 145.117188 157.714844 143.488281 155.597656 C 141.863281 153.480469 140.613281 151.148438 139.726562 148.625 C 138.988281 146.519531 138.519531 144.363281 138.757812 142.125 C 139.21875 137.855469 140.9375 134.242188 144.464844 131.625 C 147.976562 129.027344 154.019531 128.804688 157.734375 132.289062 C 160.25 134.652344 161.480469 137.597656 161.367188 141.066406 C 161.304688 142.90625 160.839844 144.648438 159.933594 146.253906 C 158.839844 148.175781 157.179688 149.214844 154.949219 149.199219 C 153.113281 149.183594 151.6875 148.089844 151.171875 146.40625 C 151.085938 146.140625 151.066406 145.855469 151.003906 145.527344 " fill-opacity="1" fill-rule="nonzero"/><path fill="#88c0fa" d="M 200.039062 273.527344 C 200.039062 277.558594 200.039062 281.507812 200.039062 285.550781 C 200.292969 285.484375 200.515625 285.445312 200.730469 285.371094 C 203.910156 284.289062 207.085938 283.207031 210.265625 282.125 C 211.039062 281.859375 211.8125 281.59375 212.585938 281.335938 C 212.816406 281.261719 213.050781 281.195312 213.289062 281.15625 C 214.1875 281 214.664062 281.222656 215.082031 282.023438 C 215.230469 282.3125 215.355469 282.636719 215.394531 282.957031 C 215.515625 284.03125 215.566406 285.113281 215.410156 286.195312 C 215.308594 286.921875 214.957031 287.472656 214.246094 287.75 C 213.566406 288.019531 212.894531 288.304688 212.210938 288.554688 C 207.285156 290.328125 202.332031 292.023438 197.203125 293.121094 C 196.015625 293.378906 194.816406 293.585938 193.617188 293.777344 C 192.527344 293.949219 191.640625 293.613281 190.957031 292.691406 C 190.199219 291.65625 189.972656 290.484375 189.964844 289.253906 C 189.949219 285.628906 189.953125 282.007812 189.953125 278.386719 C 189.949219 268.402344 189.945312 258.421875 189.953125 248.4375 C 189.953125 247.84375 190 247.246094 190.097656 246.660156 C 190.148438 246.351562 190.300781 246.011719 190.507812 245.777344 C 191.28125 244.902344 192.214844 244.28125 193.445312 244.382812 C 195.074219 244.515625 196.699219 244.679688 198.324219 244.859375 C 200.894531 245.144531 203.453125 245.488281 206.027344 245.738281 C 208.269531 245.957031 210.519531 246.085938 212.765625 246.253906 C 213.027344 246.277344 213.292969 246.308594 213.550781 246.367188 C 214.25 246.53125 214.664062 246.980469 214.773438 247.6875 C 215.015625 249.242188 214.871094 250.773438 214.394531 252.261719 C 214.042969 253.375 213.292969 253.910156 212.105469 253.910156 C 211.222656 253.90625 210.335938 253.847656 209.464844 253.730469 C 206.488281 253.332031 203.515625 252.894531 200.542969 252.472656 C 200.414062 252.453125 200.285156 252.441406 200.101562 252.417969 C 200.101562 257.144531 200.101562 261.832031 200.101562 266.59375 C 200.753906 266.476562 201.378906 266.371094 202.003906 266.25 C 203.4375 265.972656 204.863281 265.6875 206.296875 265.402344 C 207.453125 265.175781 208.230469 265.691406 208.351562 266.855469 C 208.480469 268.085938 208.464844 269.328125 208.242188 270.550781 C 208.066406 271.511719 207.503906 272.164062 206.542969 272.371094 C 205.332031 272.625 204.109375 272.816406 202.894531 273.03125 C 201.960938 273.199219 201.027344 273.355469 200.039062 273.527344 " fill-opacity="1" fill-rule="nonzero"/><path fill="#88c0fa" d="M 204.238281 197.363281 C 203.25 197.5625 202.367188 197.738281 201.484375 197.921875 C 197.851562 198.675781 194.21875 199.441406 190.585938 200.1875 C 190.113281 200.285156 189.625 200.339844 189.140625 200.375 C 188.398438 200.433594 187.800781 200.117188 187.367188 199.53125 C 187.160156 199.25 186.980469 198.925781 186.890625 198.59375 C 186.636719 197.636719 186.382812 196.671875 186.226562 195.695312 C 186.050781 194.601562 186.476562 193.769531 187.484375 193.308594 C 188.300781 192.933594 189.175781 192.636719 190.050781 192.441406 C 193.175781 191.746094 196.3125 191.085938 199.449219 190.445312 C 206.980469 188.90625 214.515625 187.382812 222.054688 185.867188 C 222.898438 185.699219 223.753906 185.558594 224.609375 185.503906 C 225.796875 185.425781 226.359375 185.851562 226.710938 186.992188 C 227.085938 188.207031 227.203125 189.460938 227.152344 190.722656 C 227.109375 191.792969 226.609375 192.589844 225.511719 192.867188 C 223.949219 193.265625 222.390625 193.675781 220.816406 194.015625 C 218.613281 194.488281 216.398438 194.90625 214.1875 195.351562 C 214.0625 195.375 213.9375 195.417969 213.742188 195.46875 C 213.742188 195.757812 213.742188 196.039062 213.742188 196.320312 C 213.746094 208.890625 213.75 221.457031 213.753906 234.027344 C 213.753906 234.226562 213.757812 234.425781 213.75 234.625 C 213.722656 235.300781 213.488281 235.570312 212.8125 235.683594 C 211.75 235.863281 210.6875 235.800781 209.640625 235.625 C 208.664062 235.457031 207.6875 235.253906 206.738281 234.96875 C 206.15625 234.796875 205.605469 234.476562 205.085938 234.152344 C 204.613281 233.855469 204.414062 233.382812 204.414062 232.796875 C 204.390625 226.257812 204.355469 219.71875 204.324219 213.183594 C 204.296875 208.1875 204.269531 203.195312 204.238281 198.203125 C 204.238281 197.949219 204.238281 197.691406 204.238281 197.363281 " fill-opacity="1" fill-rule="nonzero"/><path fill="#88c0fa" d="M 236.5625 172.53125 C 237.285156 172.429688 237.917969 172.359375 238.542969 172.253906 C 241.484375 171.765625 244.421875 171.269531 247.363281 170.78125 C 247.601562 170.738281 247.84375 170.703125 248.085938 170.699219 C 248.78125 170.6875 249.332031 171.082031 249.503906 171.757812 C 249.605469 172.140625 249.660156 172.542969 249.660156 172.9375 C 249.664062 173.882812 249.707031 174.839844 249.578125 175.773438 C 249.414062 177.003906 248.886719 177.445312 247.664062 177.597656 C 246.152344 177.785156 244.636719 177.949219 243.125 178.117188 C 239.632812 178.507812 236.144531 178.902344 232.652344 179.273438 C 231.847656 179.359375 231.050781 179.550781 230.21875 179.347656 C 228.664062 178.964844 227.773438 177.953125 227.753906 176.339844 C 227.726562 174.308594 227.75 172.277344 227.753906 170.246094 C 227.765625 154.257812 227.773438 138.265625 227.789062 122.277344 C 227.792969 121.75 227.851562 121.222656 227.910156 120.695312 C 227.972656 120.125 228.304688 119.757812 228.867188 119.65625 C 229.691406 119.507812 230.519531 119.363281 231.355469 119.277344 C 232.628906 119.144531 233.90625 119.0625 235.179688 118.957031 C 236.253906 118.875 236.511719 119.113281 236.515625 120.210938 C 236.523438 122.902344 236.527344 125.597656 236.53125 128.292969 C 236.542969 142.757812 236.554688 157.222656 236.5625 171.6875 C 236.566406 171.945312 236.5625 172.207031 236.5625 172.53125 " fill-opacity="1" fill-rule="nonzero"/><g clip-path="url(#2111ce7a36)"><path fill="#88c0fa" d="M 246.945312 123.269531 C 246.945312 129.539062 246.945312 135.785156 246.945312 142.125 C 247.234375 142.082031 247.507812 142.058594 247.777344 142.007812 C 249.144531 141.742188 250.503906 141.453125 251.871094 141.214844 C 252.414062 141.117188 252.972656 141.085938 253.519531 141.109375 C 254.183594 141.136719 254.554688 141.457031 254.640625 142.113281 C 254.820312 143.433594 254.8125 144.757812 254.554688 146.070312 C 254.445312 146.640625 254.050781 146.996094 253.480469 147.117188 C 252.574219 147.304688 251.664062 147.476562 250.746094 147.636719 C 249.59375 147.835938 248.4375 148.007812 247.28125 148.199219 C 247.175781 148.21875 247.074219 148.261719 246.945312 148.300781 C 246.945312 151.820312 246.945312 155.324219 246.945312 158.875 C 247.109375 158.851562 247.257812 158.84375 247.398438 158.816406 C 249.839844 158.296875 252.277344 157.769531 254.71875 157.257812 C 254.953125 157.207031 255.207031 157.183594 255.441406 157.214844 C 256.027344 157.285156 256.441406 157.675781 256.445312 158.261719 C 256.453125 159.539062 256.425781 160.820312 256.363281 162.097656 C 256.324219 162.925781 255.847656 163.507812 255.089844 163.808594 C 254.558594 164.015625 254.003906 164.175781 253.445312 164.28125 C 249.859375 164.953125 246.277344 165.609375 242.691406 166.269531 C 242.097656 166.378906 241.511719 166.398438 240.914062 166.273438 C 239.59375 165.996094 238.15625 164.292969 238.199219 162.738281 C 238.257812 160.578125 238.222656 158.414062 238.226562 156.25 C 238.238281 144.765625 238.25 133.28125 238.261719 121.796875 C 238.261719 121.597656 238.25 121.398438 238.246094 121.203125 C 238.191406 119.75 238.882812 118.667969 240.257812 118.203125 C 240.945312 117.972656 241.667969 117.839844 242.382812 117.710938 C 245.84375 117.09375 249.300781 116.496094 252.761719 115.890625 C 253.546875 115.753906 254.324219 115.605469 255.109375 115.480469 C 255.371094 115.441406 255.640625 115.429688 255.902344 115.457031 C 256.6875 115.535156 257.21875 115.945312 257.433594 116.714844 C 257.792969 118.011719 257.8125 119.332031 257.621094 120.652344 C 257.535156 121.222656 257.105469 121.519531 256.566406 121.613281 C 253.605469 122.128906 250.644531 122.628906 247.683594 123.136719 C 247.445312 123.175781 247.210938 123.222656 246.945312 123.269531 " fill-opacity="1" fill-rule="nonzero"/></g><path fill="#88c0fa" d="M 200.234375 153.785156 C 200.234375 161.339844 200.234375 168.894531 200.230469 176.449219 C 200.230469 178.234375 200.21875 180.027344 200.214844 181.8125 C 200.210938 182.714844 199.984375 183.140625 199.097656 183.382812 C 197.992188 183.679688 196.859375 183.886719 195.730469 184.070312 C 194.925781 184.203125 194.105469 184.25 193.289062 184.292969 C 192.898438 184.3125 192.492188 184.269531 192.109375 184.191406 C 191.5625 184.078125 191.207031 183.738281 191.15625 183.148438 C 191.136719 182.910156 191.097656 182.667969 191.097656 182.425781 C 191.125 171.449219 191.15625 160.46875 191.195312 149.492188 C 191.222656 141.894531 191.269531 134.296875 191.308594 126.699219 C 191.3125 126.019531 191.585938 125.679688 192.320312 125.539062 C 193.144531 125.378906 193.976562 125.253906 194.804688 125.121094 C 195.828125 124.953125 196.851562 124.78125 197.878906 124.632812 C 198.316406 124.570312 198.761719 124.539062 199.199219 124.546875 C 200 124.558594 200.3125 124.898438 200.3125 125.691406 C 200.3125 135.054688 200.3125 144.421875 200.3125 153.785156 C 200.285156 153.785156 200.261719 153.785156 200.234375 153.785156 " fill-opacity="1" fill-rule="nonzero"/><g clip-path="url(#c30eb37cb5)"><path fill="#88c0fa" d="M 46.734375 174.203125 C 46.707031 183.476562 46.679688 192.75 46.652344 202.023438 C 46.652344 202.921875 46.320312 203.40625 45.433594 203.5625 C 44.128906 203.792969 42.816406 203.960938 41.5 204.125 C 40.867188 204.203125 40.222656 204.242188 39.585938 204.242188 C 38.5 204.242188 38.058594 203.792969 38.058594 202.703125 C 38.054688 196.761719 38.054688 190.820312 38.054688 184.878906 C 38.054688 172.535156 38.050781 160.191406 38.054688 147.847656 C 38.054688 147.5625 38.054688 147.265625 38.125 146.996094 C 38.324219 146.242188 38.84375 145.816406 39.589844 145.617188 C 41.046875 145.230469 42.527344 145.003906 44.035156 144.953125 C 44.5625 144.933594 45.097656 144.921875 45.625 144.953125 C 46.402344 145.003906 46.773438 145.40625 46.824219 146.179688 C 46.832031 146.3125 46.828125 146.441406 46.828125 146.574219 C 46.828125 155.785156 46.828125 164.992188 46.828125 174.203125 C 46.796875 174.203125 46.765625 174.203125 46.734375 174.203125 " fill-opacity="1" fill-rule="nonzero"/></g><path fill="#88c0fa" d="M 228.910156 221.78125 C 229.160156 222.582031 229.589844 223.082031 230.15625 223.445312 C 231.722656 224.449219 233.394531 224.65625 235.160156 224.027344 C 235.816406 223.792969 236.28125 223.351562 236.628906 222.753906 C 237.554688 221.15625 237.585938 219.476562 237.117188 217.753906 C 236.660156 216.085938 235.863281 214.589844 234.75 213.277344 C 233.949219 212.332031 233.085938 211.445312 232.25 210.535156 C 231.59375 209.820312 230.890625 209.136719 230.285156 208.378906 C 228.214844 205.773438 227.261719 202.808594 227.632812 199.480469 C 228.164062 194.761719 232.539062 191.230469 237.253906 191.789062 C 240.367188 192.15625 242.703125 193.699219 243.730469 196.792969 C 244.421875 198.867188 244.003906 200.816406 242.730469 202.566406 C 242.117188 203.414062 241.300781 204 240.222656 204.148438 C 238.890625 204.335938 237.613281 203.652344 237.066406 202.453125 C 236.507812 201.234375 236.84375 199.898438 237.921875 199 C 238.339844 198.65625 238.371094 198.40625 237.960938 198.050781 C 237.226562 197.414062 236.367188 197.332031 235.46875 197.617188 C 234.679688 197.871094 234.4375 198.535156 234.332031 199.261719 C 234.242188 199.886719 234.402344 200.488281 234.625 201.070312 C 235.074219 202.246094 235.773438 203.265625 236.59375 204.195312 C 237.601562 205.339844 238.648438 206.445312 239.691406 207.558594 C 241.183594 209.152344 242.46875 210.878906 243.347656 212.890625 C 245.65625 218.148438 244.351562 223.980469 240.152344 227.621094 C 235.847656 231.347656 229.28125 230.632812 225.8125 227.289062 C 223.261719 224.832031 222.421875 221.808594 223.28125 218.382812 C 223.757812 216.484375 224.882812 214.996094 226.636719 214.054688 C 228.347656 213.140625 230.0625 213.191406 231.65625 214.289062 C 233.269531 215.398438 233.9375 217.003906 233.75 218.9375 C 233.59375 220.515625 232.484375 221.78125 231.011719 222.046875 C 230.53125 222.132812 230.007812 222.023438 229.507812 221.980469 C 229.34375 221.96875 229.1875 221.875 228.910156 221.78125 " fill-opacity="1" fill-rule="nonzero"/><path fill="#88c0fa" d="M 151.699219 55.199219 C 151.5 53.488281 151.304688 51.847656 151.105469 50.160156 C 151.210938 50.121094 151.34375 50.050781 151.484375 50.011719 C 157.199219 48.441406 162.765625 46.433594 168.328125 44.40625 C 173.867188 42.386719 179.414062 40.378906 185.042969 38.621094 C 187.828125 37.75 190.65625 37.03125 193.546875 36.617188 C 196.03125 36.261719 198.511719 36.089844 200.988281 36.679688 C 203.558594 37.289062 205.777344 38.46875 207.441406 40.574219 C 208.355469 41.738281 208.894531 43.050781 208.914062 44.539062 C 208.933594 46.230469 208.289062 47.6875 207.117188 48.890625 C 206.191406 49.84375 205.050781 50.46875 203.753906 50.789062 C 203.480469 50.855469 203.1875 50.878906 202.902344 50.894531 C 202.394531 50.929688 202.039062 50.753906 201.816406 50.238281 C 201.296875 49.054688 200.367188 48.253906 199.222656 47.691406 C 197.902344 47.035156 196.503906 46.65625 195.039062 46.5 C 192.632812 46.242188 190.230469 46.417969 187.828125 46.585938 C 182.671875 46.941406 177.628906 47.984375 172.621094 49.160156 C 167.875 50.277344 163.175781 51.609375 158.542969 53.167969 C 156.433594 53.878906 154.273438 54.457031 152.136719 55.09375 C 151.992188 55.136719 151.839844 55.164062 151.699219 55.199219 " fill-opacity="1" fill-rule="nonzero"/><g clip-path="url(#54fc7dad94)"><path fill="#88c0fa" d="M 148.039062 14.855469 C 147.1875 14.890625 146.421875 14.917969 145.65625 14.953125 C 143.515625 15.050781 141.375 15.152344 139.234375 15.246094 C 138.277344 15.285156 137.679688 14.871094 137.589844 13.921875 C 137.5 12.917969 137.472656 11.886719 137.585938 10.886719 C 137.726562 9.644531 138.386719 9.078125 139.679688 8.851562 C 140.089844 8.773438 140.511719 8.742188 140.929688 8.726562 C 145.039062 8.578125 149.148438 8.4375 153.253906 8.289062 C 155.683594 8.203125 158.113281 8.105469 160.539062 8.015625 C 161.621094 7.976562 162.703125 7.917969 163.785156 7.894531 C 164.203125 7.890625 164.628906 7.929688 165.035156 8.007812 C 165.84375 8.171875 166.394531 8.722656 166.464844 9.539062 C 166.566406 10.703125 166.613281 11.875 166.621094 13.042969 C 166.628906 13.761719 166.234375 14.183594 165.527344 14.335938 C 165.269531 14.390625 165 14.394531 164.734375 14.398438 C 162.261719 14.445312 159.785156 14.488281 157.3125 14.53125 C 157.203125 14.535156 157.097656 14.550781 156.894531 14.566406 C 156.894531 14.835938 156.894531 15.09375 156.894531 15.347656 C 156.914062 23.320312 156.933594 31.292969 156.953125 39.265625 C 156.953125 39.375 156.953125 39.484375 156.953125 39.597656 C 156.9375 40.574219 156.453125 41.09375 155.46875 41.027344 C 154.546875 40.964844 153.628906 40.796875 152.71875 40.625 C 151.722656 40.441406 150.734375 40.199219 149.742188 39.984375 C 149.613281 39.957031 149.484375 39.917969 149.355469 39.882812 C 148.386719 39.613281 148.175781 39.335938 148.171875 38.347656 C 148.15625 34.324219 148.144531 30.304688 148.121094 26.285156 C 148.101562 22.6875 148.066406 19.085938 148.039062 15.488281 C 148.039062 15.3125 148.039062 15.136719 148.039062 14.855469 " fill-opacity="1" fill-rule="nonzero"/></g><path fill="#88c0fa" d="M 119.429688 112.105469 C 119.320312 112.339844 119.210938 112.578125 119.109375 112.816406 C 118.085938 115.1875 117.0625 117.5625 116.050781 119.9375 C 115.757812 120.621094 115.300781 121.054688 114.546875 121.183594 C 113.882812 121.296875 113.351562 121.101562 112.984375 120.558594 C 112.71875 120.160156 112.496094 119.722656 112.308594 119.277344 C 111.378906 117.035156 110.464844 114.78125 109.542969 112.535156 C 109.34375 112.046875 109.128906 111.566406 108.804688 111.085938 C 108.792969 111.261719 108.773438 111.433594 108.773438 111.605469 C 108.804688 114.480469 108.835938 117.347656 108.859375 120.21875 C 108.863281 120.617188 108.828125 121.015625 108.789062 121.410156 C 108.75 121.785156 108.554688 122.074219 108.226562 122.261719 C 107.582031 122.628906 106.875 122.65625 106.164062 122.566406 C 105.746094 122.507812 105.5 122.152344 105.453125 121.640625 C 105.417969 121.222656 105.410156 120.800781 105.410156 120.382812 C 105.421875 114.574219 105.433594 108.761719 105.453125 102.953125 C 105.453125 102.644531 105.507812 102.339844 105.539062 102.035156 C 105.601562 101.398438 105.988281 101.046875 106.574219 100.886719 C 107.503906 100.628906 108.449219 100.617188 109.402344 100.71875 C 109.71875 100.75 109.929688 100.941406 110.058594 101.214844 C 110.292969 101.714844 110.53125 102.210938 110.738281 102.722656 C 112.113281 106.09375 113.480469 109.472656 114.855469 112.847656 C 114.945312 113.066406 115.050781 113.28125 115.1875 113.589844 C 115.332031 113.273438 115.433594 113.058594 115.527344 112.835938 C 117.089844 109.207031 118.667969 105.582031 120.199219 101.9375 C 120.601562 100.980469 121.246094 100.5 122.253906 100.453125 C 122.695312 100.429688 123.136719 100.390625 123.578125 100.390625 C 124.570312 100.398438 124.882812 100.71875 124.878906 101.710938 C 124.863281 106.617188 124.84375 111.519531 124.824219 116.425781 C 124.820312 117.507812 124.824219 118.589844 124.808594 119.671875 C 124.800781 120.347656 124.683594 120.558594 124.023438 120.699219 C 123.054688 120.910156 122.074219 121.082031 121.089844 121.183594 C 120.179688 121.273438 119.691406 120.847656 119.644531 119.941406 C 119.566406 118.460938 119.546875 116.980469 119.53125 115.503906 C 119.519531 114.484375 119.554688 113.46875 119.566406 112.453125 C 119.566406 112.347656 119.554688 112.238281 119.550781 112.132812 C 119.511719 112.125 119.46875 112.113281 119.429688 112.105469 " fill-opacity="1" fill-rule="nonzero"/><path fill="#88c0fa" d="M 65.863281 128.957031 C 64.488281 129.011719 63.183594 128.734375 61.957031 128.113281 C 60.253906 127.253906 59.160156 125.839844 58.6875 124.050781 C 57.902344 121.066406 60.480469 119.433594 62.730469 119.707031 C 63.269531 119.769531 63.394531 119.976562 63.464844 120.554688 C 63.550781 121.230469 63.613281 121.917969 63.800781 122.566406 C 64.039062 123.386719 64.570312 124.011719 65.417969 124.28125 C 66.339844 124.570312 67.226562 124.511719 67.96875 123.832031 C 68.75 123.113281 69.015625 122.179688 68.742188 121.175781 C 68.570312 120.546875 68.304688 119.90625 67.921875 119.382812 C 67.285156 118.515625 66.554688 117.710938 65.808594 116.933594 C 65.015625 116.105469 64.148438 115.34375 63.328125 114.539062 C 62.457031 113.683594 61.710938 112.730469 61.117188 111.65625 C 59.175781 108.128906 60.457031 104.003906 64.070312 102.203125 C 65.746094 101.371094 67.503906 101.0625 69.347656 101.515625 C 72.921875 102.394531 74.894531 106.300781 73.464844 109.691406 C 73.289062 110.113281 73.007812 110.496094 72.726562 110.859375 C 72.496094 111.15625 72.140625 111.253906 71.769531 111.152344 C 70.933594 110.921875 70.121094 110.640625 69.414062 110.121094 C 68.761719 109.640625 68.683594 109.375 68.953125 108.601562 C 69.175781 107.957031 69.1875 107.292969 69.027344 106.640625 C 68.832031 105.839844 68.109375 105.34375 67.355469 105.4375 C 66.609375 105.527344 66.082031 106.117188 66.050781 106.949219 C 66.019531 107.8125 66.265625 108.605469 66.738281 109.328125 C 67.363281 110.28125 68.203125 111.03125 69.035156 111.789062 C 70.0625 112.726562 71.136719 113.632812 72.03125 114.6875 C 73.976562 116.976562 74.542969 119.648438 73.851562 122.566406 C 73.441406 124.300781 72.613281 125.808594 71.273438 127.023438 C 69.898438 128.265625 68.296875 128.886719 66.460938 128.953125 C 66.261719 128.960938 66.0625 128.957031 65.863281 128.957031 " fill-opacity="1" fill-rule="nonzero"/><path fill="#88c0fa" d="M 201.222656 215.839844 C 201.222656 220.171875 201.214844 224.5 201.230469 228.828125 C 201.230469 229.644531 200.878906 230.1875 200.140625 230.464844 C 199.5625 230.679688 198.972656 230.882812 198.371094 231.003906 C 196.996094 231.273438 195.609375 231.355469 194.214844 231.15625 C 193.996094 231.125 193.777344 231.089844 193.5625 231.03125 C 192.617188 230.777344 192.414062 230.511719 192.410156 229.546875 C 192.390625 221.0625 192.371094 212.582031 192.351562 204.097656 C 192.351562 203.984375 192.351562 203.875 192.351562 203.765625 C 192.371094 202.984375 192.585938 202.617188 193.34375 202.390625 C 194.613281 202.007812 195.894531 201.667969 197.179688 201.359375 C 197.800781 201.207031 198.441406 201.136719 199.078125 201.0625 C 200.253906 200.925781 201.167969 201.480469 201.152344 202.984375 C 201.128906 205.742188 201.15625 208.503906 201.160156 211.265625 C 201.160156 212.789062 201.160156 214.316406 201.160156 215.839844 C 201.179688 215.839844 201.203125 215.839844 201.222656 215.839844 " fill-opacity="1" fill-rule="nonzero"/><path fill="#88c0fa" d="M 82.6875 105.347656 C 82.6875 107.808594 82.6875 110.203125 82.6875 112.679688 C 83.015625 112.664062 83.335938 112.652344 83.65625 112.625 C 84.363281 112.558594 85.0625 112.488281 85.769531 112.414062 C 86.679688 112.316406 87.101562 112.667969 87.105469 113.59375 C 87.109375 114.144531 87.058594 114.699219 87.003906 115.246094 C 86.949219 115.867188 86.601562 116.273438 85.988281 116.390625 C 85.273438 116.53125 84.550781 116.632812 83.832031 116.746094 C 83.460938 116.804688 83.085938 116.851562 82.667969 116.910156 C 82.667969 118.742188 82.667969 120.5625 82.667969 122.441406 C 83.617188 122.328125 84.53125 122.230469 85.449219 122.113281 C 86.0625 122.03125 86.671875 121.917969 87.28125 121.824219 C 87.476562 121.796875 87.675781 121.78125 87.875 121.785156 C 88.394531 121.800781 88.726562 122.019531 88.859375 122.507812 C 89.0625 123.242188 89.078125 123.992188 88.886719 124.734375 C 88.726562 125.355469 88.296875 125.699219 87.667969 125.792969 C 86.335938 125.992188 85.003906 126.222656 83.667969 126.371094 C 82.128906 126.546875 80.585938 126.648438 79.046875 126.773438 C 78.851562 126.789062 78.648438 126.765625 78.449219 126.761719 C 77.273438 126.738281 76.765625 125.882812 76.621094 124.941406 C 76.601562 124.808594 76.609375 124.675781 76.609375 124.542969 C 76.566406 117.699219 76.523438 110.851562 76.484375 104.007812 C 76.484375 103.699219 76.496094 103.378906 76.582031 103.089844 C 76.851562 102.164062 77.40625 101.535156 78.4375 101.46875 C 79.316406 101.410156 80.199219 101.328125 81.082031 101.320312 C 83.027344 101.304688 84.972656 101.332031 86.917969 101.339844 C 87.070312 101.34375 87.226562 101.347656 87.378906 101.367188 C 88.121094 101.460938 88.503906 101.816406 88.566406 102.554688 C 88.613281 103.082031 88.605469 103.617188 88.582031 104.144531 C 88.539062 105.050781 88.15625 105.40625 87.238281 105.402344 C 85.957031 105.394531 84.675781 105.367188 83.390625 105.347656 C 83.175781 105.34375 82.960938 105.347656 82.6875 105.347656 " fill-opacity="1" fill-rule="nonzero"/><path fill="#88c0fa" d="M 97.195312 104.769531 C 97.195312 107.246094 97.195312 109.582031 97.195312 112 C 97.433594 111.96875 97.664062 111.945312 97.894531 111.914062 C 98.527344 111.820312 99.15625 111.707031 99.792969 111.636719 C 100.617188 111.542969 101.023438 111.832031 101.121094 112.640625 C 101.195312 113.230469 101.207031 113.832031 101.175781 114.425781 C 101.132812 115.144531 100.785156 115.496094 100.050781 115.585938 C 99.265625 115.683594 98.46875 115.71875 97.675781 115.785156 C 97.503906 115.800781 97.335938 115.828125 97.125 115.855469 C 97.125 117.421875 97.125 118.957031 97.125 120.554688 C 97.828125 120.464844 98.503906 120.386719 99.175781 120.296875 C 99.984375 120.1875 100.792969 120.066406 101.601562 119.953125 C 103.015625 119.757812 103.515625 120.191406 103.53125 121.628906 C 103.535156 121.871094 103.527344 122.113281 103.5 122.355469 C 103.398438 123.222656 103.046875 123.628906 102.175781 123.757812 C 100.820312 123.960938 99.460938 124.121094 98.101562 124.28125 C 96.671875 124.445312 95.246094 124.609375 93.816406 124.730469 C 93.382812 124.769531 92.933594 124.710938 92.503906 124.628906 C 91.753906 124.480469 91.316406 123.980469 91.179688 123.234375 C 91.132812 122.980469 91.128906 122.710938 91.128906 122.445312 C 91.15625 116.085938 91.1875 109.726562 91.21875 103.363281 C 91.21875 102.871094 91.25 102.394531 91.558594 101.976562 C 91.902344 101.523438 92.378906 101.296875 92.921875 101.25 C 94.574219 101.101562 96.222656 100.957031 97.875 100.855469 C 99 100.789062 100.128906 100.796875 101.257812 100.773438 C 101.496094 100.765625 101.742188 100.765625 101.984375 100.792969 C 102.480469 100.84375 102.800781 101.125 102.902344 101.609375 C 103.0625 102.359375 102.992188 103.109375 102.773438 103.832031 C 102.632812 104.308594 102.257812 104.539062 101.777344 104.574219 C 100.785156 104.644531 99.792969 104.714844 98.800781 104.765625 C 98.296875 104.789062 97.792969 104.769531 97.195312 104.769531 " fill-opacity="1" fill-rule="nonzero"/><path fill="#88c0fa" d="M 145.890625 27.765625 C 145.890625 31.035156 145.890625 34.304688 145.890625 37.570312 C 145.886719 38.710938 145.730469 38.894531 144.609375 38.675781 C 142.773438 38.316406 140.949219 37.871094 139.117188 37.460938 C 139.054688 37.445312 138.992188 37.417969 138.929688 37.394531 C 138.25 37.148438 138.175781 37.054688 138.179688 36.347656 C 138.183594 31.421875 138.191406 26.5 138.195312 21.574219 C 138.199219 20.5625 138.195312 19.546875 138.210938 18.527344 C 138.21875 17.628906 138.515625 17.257812 139.40625 17.046875 C 139.835938 16.945312 140.273438 16.871094 140.714844 16.84375 C 142.035156 16.757812 143.359375 16.679688 144.683594 16.640625 C 145.609375 16.613281 145.820312 16.890625 145.820312 17.832031 C 145.808594 21.144531 145.816406 24.457031 145.816406 27.769531 C 145.839844 27.765625 145.867188 27.765625 145.890625 27.765625 " fill-opacity="1" fill-rule="nonzero"/><path fill="#88c0fa" d="M 133.359375 105.777344 C 133.609375 105.3125 133.679688 104.796875 133.582031 104.261719 C 133.554688 104.089844 133.511719 103.914062 133.441406 103.753906 C 133.1875 103.1875 132.507812 102.839844 131.910156 102.957031 C 131.367188 103.0625 131.023438 103.566406 131.011719 104.261719 C 131.003906 104.847656 131.242188 105.34375 131.628906 105.753906 C 132.054688 106.199219 132.523438 106.605469 132.992188 107.007812 C 133.675781 107.601562 134.386719 108.160156 135.0625 108.761719 C 136.058594 109.644531 136.75 110.746094 137.21875 111.980469 C 138.53125 115.421875 136.316406 118.855469 133.40625 119.734375 C 132.097656 120.132812 130.800781 120.1875 129.496094 119.785156 C 127.589844 119.199219 126.425781 117.257812 126.800781 115.332031 C 127.070312 113.929688 128.550781 112.898438 129.964844 113.136719 C 130.132812 113.164062 130.292969 113.238281 130.414062 113.277344 C 130.460938 113.851562 130.441406 114.382812 130.550781 114.886719 C 130.703125 115.578125 131.277344 116.039062 131.894531 116.074219 C 132.953125 116.140625 133.671875 115.1875 133.363281 114.105469 C 133.097656 113.160156 132.5 112.417969 131.78125 111.78125 C 131.140625 111.210938 130.460938 110.679688 129.789062 110.136719 C 129.53125 109.929688 129.253906 109.746094 128.996094 109.539062 C 128.742188 109.328125 128.492188 109.109375 128.25 108.882812 C 125.628906 106.410156 126.273438 102.066406 129.445312 100.398438 C 131.035156 99.566406 132.722656 99.351562 134.464844 99.808594 C 136.394531 100.3125 137.753906 102.074219 137.679688 103.925781 C 137.640625 104.90625 137.203125 105.710938 136.417969 106.300781 C 135.453125 107.023438 134.144531 106.796875 133.359375 105.777344 " fill-opacity="1" fill-rule="nonzero"/><path fill="#88c0fa" d="M 233.160156 236.9375 C 233.191406 237.542969 233.21875 238.125 233.246094 238.746094 C 231.214844 239.199219 229.289062 238.914062 227.359375 238.496094 C 225.394531 238.066406 223.78125 237.035156 222.324219 235.648438 C 222.238281 235.785156 222.1875 235.847656 222.15625 235.921875 C 221.347656 237.675781 220.089844 239.046875 218.503906 240.121094 C 216.183594 241.699219 213.597656 242.484375 210.808594 242.710938 C 208.980469 242.855469 207.1875 242.703125 205.425781 242.238281 C 202.464844 241.457031 199.976562 239.96875 198.324219 237.242188 C 198.132812 237.289062 197.941406 237.328125 197.757812 237.382812 C 190.769531 239.414062 183.984375 235.625 182.171875 228.574219 C 180.964844 223.878906 181.90625 219.519531 184.625 215.53125 C 184.664062 215.476562 184.710938 215.429688 184.757812 215.367188 C 185.253906 215.710938 185.734375 216.039062 186.242188 216.386719 C 186.1875 216.480469 186.136719 216.597656 186.0625 216.703125 C 184.4375 219.082031 183.554688 221.710938 183.527344 224.589844 C 183.496094 228.0625 184.570312 231.136719 187.207031 233.488281 C 190.140625 236.105469 193.574219 236.640625 197.304688 235.582031 C 197.683594 235.472656 198.050781 235.316406 198.429688 235.195312 C 198.960938 235.03125 199.324219 235.175781 199.613281 235.644531 C 199.660156 235.71875 199.699219 235.800781 199.734375 235.878906 C 200.339844 237.210938 201.324219 238.203125 202.53125 238.992188 C 204.078125 240.003906 205.796875 240.554688 207.609375 240.789062 C 210.386719 241.148438 213.074219 240.769531 215.632812 239.621094 C 217.105469 238.960938 218.398438 238.054688 219.433594 236.804688 C 220.121094 235.972656 220.613281 235.042969 220.84375 233.988281 C 220.945312 233.535156 221.082031 233.109375 221.59375 233.003906 C 222.140625 232.886719 222.566406 233.128906 222.941406 233.53125 C 223.417969 234.046875 223.910156 234.554688 224.433594 235.027344 C 225.78125 236.253906 227.460938 236.707031 229.207031 236.972656 C 230.414062 237.15625 231.625 237.238281 232.828125 236.957031 C 232.910156 236.9375 233 236.945312 233.160156 236.9375 " fill-opacity="1" fill-rule="nonzero"/><path fill="#88c0fa" d="M 146.972656 194.859375 C 147.753906 194.976562 148.597656 195.027344 149.398438 195.234375 C 151.210938 195.707031 151.695312 197.128906 151.382812 198.378906 C 151.230469 199 151.101562 199.628906 150.894531 200.230469 C 149.90625 203.089844 148.664062 205.84375 147.339844 208.558594 C 147.109375 209.035156 146.835938 209.496094 146.535156 209.925781 C 146.09375 210.566406 145.472656 210.816406 144.691406 210.660156 C 143.628906 210.441406 142.566406 210.25 141.507812 210.035156 C 141.226562 209.976562 140.949219 209.898438 140.683594 209.789062 C 140.019531 209.511719 139.742188 209.011719 139.914062 208.304688 C 140.121094 207.425781 140.355469 206.550781 140.617188 205.6875 C 141.460938 202.875 142.199219 200.039062 142.746094 197.15625 C 142.792969 196.898438 142.878906 196.644531 142.972656 196.398438 C 143.199219 195.773438 143.628906 195.332031 144.289062 195.214844 C 145.152344 195.0625 146.03125 194.980469 146.972656 194.859375 " fill-opacity="1" fill-rule="nonzero"/><path fill="#88c0fa" d="M 223.5625 243.203125 C 224.210938 243.585938 224.800781 243.929688 225.4375 244.304688 C 225.398438 244.507812 225.375 244.722656 225.320312 244.929688 C 223.484375 252.316406 221.644531 259.703125 219.800781 267.089844 C 219.628906 267.777344 219.285156 267.945312 218.65625 267.601562 C 218.386719 267.457031 218.140625 267.253906 217.925781 267.035156 C 217.058594 266.148438 216.328125 265.148438 215.730469 264.058594 C 215.089844 262.894531 214.945312 261.679688 215.441406 260.425781 C 215.914062 259.210938 216.351562 257.980469 216.914062 256.808594 C 219.042969 252.371094 221.210938 247.953125 223.367188 243.53125 C 223.417969 243.433594 223.480469 243.34375 223.5625 243.203125 " fill-opacity="1" fill-rule="nonzero"/><path fill="#88c0fa" d="M 204.984375 113.964844 C 205.324219 113.140625 205.640625 112.394531 205.941406 111.636719 C 206.046875 111.363281 206.253906 111.304688 206.507812 111.265625 C 208.054688 111.023438 209.601562 110.769531 211.152344 110.519531 C 214.90625 109.921875 218.65625 109.324219 222.410156 108.726562 C 226.140625 108.128906 229.871094 107.535156 233.601562 106.941406 C 236.808594 106.429688 240.015625 105.917969 243.222656 105.40625 C 243.527344 105.359375 243.832031 105.320312 244.179688 105.273438 C 244.179688 106.105469 244.179688 106.894531 244.179688 107.6875 C 243.78125 107.945312 205.945312 113.90625 204.984375 113.964844 " fill-opacity="1" fill-rule="nonzero"/><path fill="#88c0fa" d="M 145.128906 109.171875 C 145.128906 108.3125 145.128906 107.527344 145.128906 106.660156 C 156.4375 105.746094 167.714844 104.839844 179.09375 103.921875 C 179 104.394531 178.917969 104.792969 178.84375 105.195312 C 178.769531 105.605469 178.710938 106.015625 178.632812 106.472656 C 167.46875 107.371094 156.339844 108.269531 145.128906 109.171875 " fill-opacity="1" fill-rule="nonzero"/><path fill="#88c0fa" d="M 222.964844 196.363281 C 224.269531 196.332031 224.953125 196.855469 225.007812 197.996094 C 225.050781 198.867188 224.976562 199.765625 224.789062 200.617188 C 224.296875 202.859375 223.648438 205.058594 222.699219 207.15625 C 222.445312 207.714844 222.152344 208.269531 221.800781 208.773438 C 221.171875 209.671875 220.519531 209.820312 219.503906 209.421875 C 218.460938 209.011719 217.675781 208.277344 216.972656 207.449219 C 216.613281 207.03125 216.523438 206.535156 216.605469 205.964844 C 216.90625 203.894531 217.234375 201.820312 217.410156 199.734375 C 217.527344 198.324219 218.15625 197.5 219.488281 197.117188 C 220.679688 196.773438 221.867188 196.4375 222.964844 196.363281 " fill-opacity="1" fill-rule="nonzero"/><path fill="#88c0fa" d="M 163.308594 29.113281 C 163.308594 28.378906 163.308594 27.679688 163.308594 26.9375 C 164.082031 26.871094 164.824219 26.800781 165.566406 26.753906 C 168.960938 26.535156 172.355469 26.316406 175.75 26.121094 C 176.183594 26.09375 176.632812 26.140625 177.058594 26.238281 C 177.726562 26.382812 178.023438 26.777344 177.882812 27.441406 C 177.707031 28.277344 177.480469 29.109375 177.183594 29.914062 C 176.871094 30.757812 176.128906 31.089844 175.28125 31.105469 C 174.46875 31.117188 173.640625 31.101562 172.84375 30.960938 C 169.824219 30.425781 166.8125 29.835938 163.796875 29.261719 C 163.628906 29.230469 163.46875 29.160156 163.308594 29.113281 " fill-opacity="1" fill-rule="nonzero"/><path fill="#88c0fa" d="M 252.609375 199.007812 C 252.007812 199.046875 251.445312 199.082031 250.835938 199.121094 C 250.835938 198.480469 250.847656 197.914062 250.835938 197.347656 C 250.78125 195.015625 250.257812 192.796875 249.066406 190.773438 C 247.121094 187.472656 244.230469 185.589844 240.421875 185.121094 C 237.917969 184.816406 235.542969 185.308594 233.25 186.285156 C 233.007812 186.390625 232.769531 186.503906 232.496094 186.625 C 232.117188 186.136719 232.019531 185.546875 231.710938 185.007812 C 231.910156 184.894531 232.050781 184.800781 232.207031 184.730469 C 234.609375 183.613281 237.144531 183 239.789062 183.203125 C 245.507812 183.648438 249.476562 186.574219 251.640625 191.886719 C 252.511719 194.023438 252.765625 196.277344 252.683594 198.574219 C 252.679688 198.679688 252.648438 198.785156 252.609375 199.007812 " fill-opacity="1" fill-rule="nonzero"/><path fill="#88c0fa" d="M 132.441406 27.003906 C 132.472656 27.597656 132.5 28.121094 132.527344 28.707031 C 131.507812 28.933594 130.53125 29.1875 129.539062 29.363281 C 126.519531 29.894531 123.492188 30.40625 120.464844 30.902344 C 118.773438 31.183594 118.058594 30.695312 117.648438 29.019531 C 117.523438 28.507812 117.421875 27.980469 117.386719 27.457031 C 117.328125 26.511719 117.707031 26.097656 118.640625 26.066406 C 119.257812 26.046875 119.878906 26.066406 120.496094 26.109375 C 124.21875 26.359375 127.9375 26.621094 131.660156 26.882812 C 131.898438 26.898438 132.132812 26.957031 132.441406 27.003906 " fill-opacity="1" fill-rule="nonzero"/><path fill="#88c0fa" d="M 133.382812 31.621094 C 133.683594 32.195312 133.976562 32.757812 134.304688 33.386719 C 134.171875 33.535156 134.019531 33.71875 133.847656 33.878906 C 131.472656 36.066406 129.011719 38.152344 126.414062 40.070312 C 125.191406 40.972656 124.601562 40.945312 123.488281 39.933594 C 122.953125 39.445312 122.441406 38.914062 121.988281 38.347656 C 121.386719 37.601562 121.523438 37.039062 122.359375 36.566406 C 122.644531 36.402344 122.953125 36.269531 123.253906 36.136719 C 126.539062 34.660156 129.824219 33.1875 133.113281 31.714844 C 133.191406 31.683594 133.273438 31.660156 133.382812 31.621094 " fill-opacity="1" fill-rule="nonzero"/><path fill="#88c0fa" d="M 162.875 24.441406 C 162.441406 23.675781 162.046875 22.988281 161.632812 22.265625 C 161.789062 22.132812 161.949219 21.984375 162.125 21.859375 C 164.683594 20.046875 167.246094 18.238281 169.808594 16.429688 C 169.933594 16.339844 170.070312 16.261719 170.207031 16.191406 C 170.914062 15.824219 171.457031 15.871094 172.007812 16.457031 C 172.457031 16.9375 172.855469 17.476562 173.207031 18.03125 C 173.578125 18.617188 173.457031 19.253906 172.910156 19.691406 C 172.519531 20.007812 172.078125 20.277344 171.621094 20.492188 C 169.378906 21.535156 167.125 22.546875 164.871094 23.566406 C 164.210938 23.867188 163.539062 24.152344 162.875 24.441406 " fill-opacity="1" fill-rule="nonzero"/><path fill="#88c0fa" d="M 161.746094 33.808594 C 162.011719 33.175781 162.269531 32.570312 162.539062 31.925781 C 162.660156 31.960938 162.761719 31.980469 162.855469 32.023438 C 165.84375 33.457031 168.828125 34.882812 171.8125 36.324219 C 172.207031 36.511719 172.605469 36.71875 172.964844 36.96875 C 173.589844 37.40625 173.679688 37.964844 173.203125 38.558594 C 172.613281 39.304688 171.835938 39.8125 170.933594 40.09375 C 170.433594 40.25 169.914062 40.179688 169.449219 39.9375 C 169.039062 39.730469 168.621094 39.503906 168.265625 39.21875 C 166.136719 37.496094 164.027344 35.753906 161.910156 34.015625 C 161.863281 33.976562 161.828125 33.914062 161.746094 33.808594 " fill-opacity="1" fill-rule="nonzero"/><path fill="#88c0fa" d="M 133.550781 22.101562 C 133.316406 22.710938 133.078125 23.324219 132.8125 24.007812 C 132.527344 23.925781 132.230469 23.867188 131.957031 23.753906 C 129.558594 22.746094 127.164062 21.730469 124.773438 20.707031 C 124.207031 20.464844 123.65625 20.179688 123.109375 19.894531 C 122.859375 19.761719 122.609375 19.605469 122.402344 19.414062 C 121.960938 19.011719 121.886719 18.527344 122.234375 18.050781 C 122.769531 17.308594 123.4375 16.703125 124.257812 16.28125 C 124.695312 16.054688 125.15625 16.042969 125.59375 16.277344 C 125.960938 16.476562 126.332031 16.675781 126.667969 16.925781 C 128.921875 18.589844 131.164062 20.265625 133.410156 21.945312 C 133.460938 21.980469 133.496094 22.039062 133.550781 22.101562 " fill-opacity="1" fill-rule="nonzero"/><path fill="#88c0fa" d="M 228 245.25 C 228.699219 245.371094 229.324219 245.476562 230.015625 245.597656 C 230.109375 245.933594 230.214844 246.289062 230.304688 246.644531 C 230.847656 248.761719 231.382812 250.878906 231.917969 252.996094 C 231.964844 253.1875 231.996094 253.382812 232.035156 253.578125 C 232.203125 254.457031 231.917969 255.167969 231.148438 255.617188 C 230.347656 256.082031 229.515625 256.488281 228.691406 256.902344 C 228.496094 257.003906 228.273438 257.058594 228.058594 257.09375 C 227.410156 257.199219 227.074219 256.878906 227.125 256.199219 C 227.257812 254.441406 227.402344 252.679688 227.539062 250.917969 C 227.671875 249.203125 227.796875 247.488281 227.929688 245.769531 C 227.941406 245.621094 227.96875 245.46875 228 245.25 " fill-opacity="1" fill-rule="nonzero"/><path fill="#88c0fa" d="M 138.320312 258.578125 C 138.054688 261.1875 137.824219 263.804688 137.503906 266.410156 C 137.160156 269.214844 136.75 272.011719 136.339844 274.808594 C 136.15625 276.074219 135.910156 277.332031 135.679688 278.589844 C 135.621094 278.894531 135.53125 279.195312 135.40625 279.472656 C 135.203125 279.921875 134.835938 279.984375 134.535156 279.597656 C 134.339844 279.34375 134.207031 279.015625 134.132812 278.703125 C 133.996094 278.125 133.90625 277.53125 133.824219 276.945312 C 133.492188 274.539062 133.144531 272.136719 132.851562 269.726562 C 132.574219 267.425781 132.355469 265.117188 132.105469 262.8125 C 131.925781 261.117188 132.410156 259.625 133.472656 258.3125 C 133.984375 257.675781 134.492188 257.035156 135.039062 256.425781 C 135.410156 256.019531 135.820312 255.640625 136.253906 255.304688 C 136.960938 254.75 137.589844 254.921875 137.9375 255.761719 C 138.085938 256.121094 138.167969 256.523438 138.199219 256.914062 C 138.242188 257.460938 138.210938 258.015625 138.210938 258.566406 C 138.25 258.570312 138.285156 258.574219 138.320312 258.578125 " fill-opacity="1" fill-rule="nonzero"/><path fill="#88c0fa" d="M 136.394531 284.773438 C 136.355469 285.34375 136.351562 285.921875 136.265625 286.484375 C 136.164062 287.144531 135.980469 287.332031 135.554688 287.363281 C 134.828125 287.417969 134.292969 287.140625 134.105469 286.582031 C 134.035156 286.375 133.980469 286.15625 133.976562 285.9375 C 133.953125 285.035156 133.921875 284.132812 133.949219 283.234375 C 133.96875 282.5625 134.230469 282.347656 134.90625 282.316406 C 135.0625 282.308594 135.21875 282.304688 135.371094 282.316406 C 136.003906 282.355469 136.304688 282.617188 136.351562 283.253906 C 136.386719 283.753906 136.355469 284.265625 136.355469 284.769531 C 136.371094 284.773438 136.382812 284.773438 136.394531 284.773438 " fill-opacity="1" fill-rule="nonzero"/></svg>