<svg xmlns="http://www.w3.org/2000/svg" xmlns:xlink="http://www.w3.org/1999/xlink" width="410" zoomAndPan="magnify" viewBox="0 0 307.5 307.500004" height="410" preserveAspectRatio="xMidYMid meet" version="1.0"><defs><clipPath id="afa2e0219b"><path d="M 9 57.453125 L 151 57.453125 L 151 122 L 9 122 Z M 9 57.453125 " clip-rule="nonzero"/></clipPath><clipPath id="cf5b0d76b4"><path d="M 266 176 L 298.441406 176 L 298.441406 223 L 266 223 Z M 266 176 " clip-rule="nonzero"/></clipPath><clipPath id="66d95d5633"><path d="M 96 240 L 162 240 L 162 250.203125 L 96 250.203125 Z M 96 240 " clip-rule="nonzero"/></clipPath></defs><g clip-path="url(#afa2e0219b)"><path fill="#ed7063" d="M 93.5625 90.550781 C 94.175781 90.585938 94.695312 90.617188 95.222656 90.648438 C 96.070312 90.707031 96.335938 90.363281 96.191406 89.496094 C 95.894531 87.734375 95.335938 86.082031 94.242188 84.667969 C 92.632812 82.585938 90.449219 81.355469 87.875 81.015625 C 85.421875 80.695312 84.472656 82.0625 85.488281 84.304688 C 87.085938 87.832031 89.976562 89.707031 93.5625 90.550781 Z M 83.628906 92.472656 C 82.734375 96.101562 82.789062 99.132812 83.703125 101.445312 C 84.765625 104.132812 86.707031 104.910156 89.316406 103.679688 C 90.121094 103.304688 90.804688 102.753906 91.417969 102.117188 C 92.523438 100.96875 93.421875 99.671875 94.164062 98.265625 C 94.34375 97.921875 94.648438 97.59375 94.332031 97.03125 C 90.394531 96.738281 86.867188 95.164062 83.628906 92.472656 Z M 64.171875 92.046875 C 64.707031 83.175781 62.085938 75.242188 55.738281 68.652344 C 54.210938 67.0625 52.265625 66.058594 50.164062 65.414062 C 48.585938 64.925781 46.960938 64.679688 45.304688 64.945312 C 43.839844 65.175781 43.507812 65.546875 43.425781 66.980469 C 43.347656 68.382812 43.289062 69.792969 43.230469 71.199219 C 42.964844 77.351562 42.914062 83.515625 42.433594 89.660156 C 42.015625 94.980469 41.660156 100.304688 41.289062 105.632812 C 41.140625 107.796875 41.066406 109.96875 40.886719 112.128906 C 40.820312 112.957031 41.109375 113.300781 41.886719 113.445312 C 42.421875 113.542969 42.929688 113.582031 43.449219 113.4375 C 44.292969 113.207031 45.15625 113.015625 45.984375 112.722656 C 55.792969 109.257812 61.8125 102.4375 64.171875 92.046875 Z M 134.179688 110.359375 C 134.96875 109.890625 135.191406 109.257812 135.527344 108.726562 C 137.652344 105.347656 139.695312 101.921875 142.042969 98.691406 C 142.628906 97.882812 143.238281 97.089844 143.863281 96.316406 C 144.378906 95.667969 144.996094 95.121094 145.738281 94.746094 C 146.972656 94.125 148.21875 93.96875 149.378906 94.863281 C 150.324219 95.589844 150.492188 96.902344 149.933594 98.4375 C 149.707031 99.050781 149.363281 99.59375 148.96875 100.105469 C 145.996094 103.972656 143.414062 108.101562 140.835938 112.230469 C 140.152344 113.324219 139.417969 114.386719 138.636719 115.414062 C 137.882812 116.402344 136.933594 117.1875 135.792969 117.722656 C 133 119.019531 130.1875 118.054688 128.820312 115.285156 C 127.746094 113.113281 127.707031 110.753906 127.707031 108.398438 C 127.707031 104.742188 128.847656 101.355469 130.183594 98.015625 C 130.921875 96.164062 131.703125 94.332031 132.441406 92.476562 C 132.703125 91.824219 132.917969 91.152344 133.097656 90.472656 C 133.828125 87.710938 132.519531 86.40625 129.722656 87.109375 C 128.089844 87.515625 126.664062 88.339844 125.488281 89.519531 C 121.691406 93.328125 119.179688 97.875 118.550781 103.230469 C 118.292969 105.425781 117.179688 107.050781 116.164062 108.78125 C 115.429688 110.039062 113.609375 110.128906 112.222656 109.222656 C 111.242188 108.582031 110.691406 107.625 110.308594 106.554688 C 109.730469 104.945312 109.457031 103.261719 109.257812 101.570312 C 108.988281 99.296875 108.847656 97.015625 108.800781 94.722656 C 108.789062 94.089844 108.847656 93.441406 108.640625 92.820312 C 108.074219 92.726562 107.789062 93.175781 107.421875 93.433594 C 106.363281 94.175781 105.285156 94.980469 104.042969 95.28125 C 102.316406 95.695312 101.671875 96.832031 101.109375 98.351562 C 99.957031 101.457031 98.21875 104.246094 95.894531 106.632812 C 93.960938 108.621094 91.664062 109.96875 88.90625 110.429688 C 84.273438 111.207031 80.546875 109.339844 78.410156 105.152344 C 76.785156 101.964844 76.398438 98.554688 76.726562 95.042969 C 76.839844 93.839844 77.011719 92.640625 77.179688 91.269531 C 74.867188 91.746094 72.882812 92.617188 70.828125 93.238281 C 70.117188 93.453125 70.148438 94.125 70.035156 94.679688 C 69.492188 97.28125 68.609375 99.765625 67.390625 102.121094 C 62.5 111.582031 54.746094 117.316406 44.453125 119.726562 C 43.828125 119.871094 43.160156 120.074219 42.546875 120 C 41.15625 119.824219 40.105469 120.039062 39.03125 121.152344 C 37.90625 122.320312 35.980469 121.820312 34.867188 120.421875 C 34.058594 119.398438 33.867188 118.183594 33.851562 116.9375 C 33.828125 114.585938 34.007812 112.246094 34.207031 109.90625 C 34.816406 102.59375 35.707031 95.308594 36.191406 87.984375 C 36.578125 82.1875 36.636719 76.375 36.902344 70.570312 C 36.988281 68.695312 37.078125 66.816406 37.214844 64.945312 C 37.269531 64.191406 37.027344 63.847656 36.25 63.882812 C 28.863281 64.210938 22.496094 66.652344 17.9375 72.789062 C 16.945312 74.121094 16.21875 75.578125 16.054688 77.277344 C 15.925781 78.640625 16.292969 79.832031 17.167969 80.871094 C 18.285156 82.1875 19.695312 82.375 21.035156 81.277344 C 22.359375 80.183594 23.398438 78.859375 23.980469 77.195312 C 24.542969 75.59375 25.550781 74.835938 26.910156 74.839844 C 28.695312 74.84375 30.082031 76.238281 30.132812 78.113281 C 30.15625 78.890625 29.964844 79.621094 29.625 80.324219 C 28.457031 82.738281 26.882812 84.839844 24.742188 86.464844 C 20.816406 89.441406 15.824219 88.957031 12.554688 85.269531 C 9.445312 81.765625 8.996094 77.742188 10.445312 73.414062 C 11.066406 71.558594 12.082031 69.910156 13.292969 68.382812 C 18.085938 62.324219 24.40625 58.980469 31.984375 57.886719 C 34.898438 57.46875 37.828125 57.453125 40.757812 57.480469 C 41.921875 57.492188 43.105469 57.628906 44.164062 58.222656 C 44.703125 58.523438 45.289062 58.519531 45.878906 58.511719 C 52.691406 58.421875 58.140625 61.261719 62.386719 66.453125 C 66.644531 71.65625 69.140625 77.675781 70.230469 84.300781 C 70.339844 84.984375 70.277344 85.707031 70.632812 86.378906 C 71.117188 86.574219 71.527344 86.28125 71.953125 86.148438 C 73.074219 85.800781 74.179688 85.417969 75.300781 85.070312 C 76.308594 84.761719 77.488281 84.714844 78.300781 84.140625 C 79.230469 83.480469 78.527344 82.191406 78.734375 81.1875 C 79.261719 78.628906 80.691406 76.824219 82.964844 75.671875 C 85.804688 74.234375 88.726562 74.273438 91.667969 75.371094 C 97.449219 77.527344 101.070312 81.578125 102.328125 87.671875 C 102.386719 87.957031 102.464844 88.238281 102.542969 88.519531 C 102.554688 88.566406 102.621094 88.601562 102.761719 88.734375 C 103.527344 88.570312 104.101562 87.976562 104.691406 87.453125 C 106.375 85.964844 107.683594 84.160156 108.898438 82.28125 C 109.246094 81.742188 109.582031 81.175781 110.007812 80.703125 C 110.910156 79.714844 112.046875 79.328125 113.355469 79.710938 C 114.667969 80.09375 115.394531 81.046875 115.65625 82.347656 C 115.820312 83.160156 115.800781 83.984375 115.722656 84.804688 C 115.542969 86.675781 115.367188 88.546875 115.207031 90.417969 C 115.15625 91.03125 115.015625 91.664062 115.347656 92.320312 C 115.96875 91.871094 116.167969 91.230469 116.492188 90.695312 C 118.21875 87.863281 120.25 85.300781 122.984375 83.367188 C 125.429688 81.640625 128.109375 80.542969 131.164062 80.5625 C 136.429688 80.601562 140.089844 84.582031 139.660156 89.828125 C 139.496094 91.839844 138.800781 93.714844 138.070312 95.578125 C 136.855469 98.6875 135.359375 101.695312 134.527344 104.953125 C 134.085938 106.671875 133.957031 108.394531 134.179688 110.359375 " fill-opacity="1" fill-rule="nonzero"/></g><path fill="#ed7063" d="M 231.148438 109.726562 C 228.140625 109.878906 226.0625 112.175781 226.023438 115.082031 C 226.011719 116.0625 226.273438 116.257812 227.171875 115.8125 C 229.628906 114.589844 230.773438 112.503906 231.148438 109.726562 Z M 247.183594 98.960938 C 247.152344 99.378906 247.085938 100.132812 247.050781 100.894531 C 246.96875 102.460938 247.035156 102.515625 248.402344 101.925781 C 251.921875 100.390625 254.507812 97.867188 256.207031 94.4375 C 256.730469 93.382812 257.097656 92.265625 257.03125 91.0625 C 256.917969 89.003906 255.457031 88.003906 253.523438 88.699219 C 252.046875 89.230469 250.929688 90.257812 250.007812 91.503906 C 248.449219 93.621094 247.617188 96.035156 247.183594 98.960938 Z M 226.730469 69.933594 C 227.171875 67.429688 226.136719 66.226562 223.625 66.34375 C 220.761719 66.472656 218.269531 67.445312 216.230469 69.515625 C 212.503906 73.3125 210.980469 78.148438 209.742188 83.128906 C 209.582031 83.769531 209.933594 83.976562 210.503906 83.964844 C 210.738281 83.960938 210.972656 83.945312 211.207031 83.9375 C 218.445312 83.707031 225.414062 77.421875 226.730469 69.933594 Z M 203.4375 81.898438 C 204.164062 79.425781 204.703125 77.269531 205.488281 75.1875 C 206.808594 71.699219 208.554688 68.476562 211.082031 65.699219 C 214.609375 61.820312 219.015625 59.976562 224.210938 59.964844 C 229.734375 59.957031 233.59375 64.15625 233.164062 69.652344 C 233.070312 70.832031 232.871094 71.996094 232.46875 73.097656 C 230.753906 77.796875 228.230469 82 224.4375 85.320312 C 220.367188 88.894531 215.523438 90.371094 210.167969 90.332031 C 208.675781 90.320312 208.660156 90.332031 208.574219 91.820312 C 208.382812 95.054688 208.632812 98.269531 209.226562 101.453125 C 209.289062 101.796875 209.332031 102.148438 209.5625 102.414062 C 209.871094 102.371094 209.933594 102.132812 210.027344 101.941406 C 212.386719 97.230469 216.285156 94.238281 221.03125 92.304688 C 225.925781 90.3125 230.125 91.550781 233.347656 95.738281 C 234.832031 97.667969 235.839844 99.839844 236.539062 102.167969 C 236.988281 103.671875 236.996094 103.671875 238.546875 103.792969 C 238.898438 103.820312 239.25 103.828125 239.601562 103.855469 C 240.351562 103.917969 240.632812 103.570312 240.648438 102.824219 C 240.675781 101.417969 240.726562 100.007812 240.859375 98.605469 C 241.21875 94.925781 242.351562 91.5 244.414062 88.40625 C 245.90625 86.171875 247.792969 84.34375 250.238281 83.179688 C 253.417969 81.667969 256.589844 81.542969 259.585938 83.625 C 262.574219 85.699219 263.617188 88.695312 263.351562 92.214844 C 263.199219 94.238281 262.535156 96.113281 261.582031 97.886719 C 258.851562 102.976562 254.734375 106.445312 249.324219 108.414062 C 247.335938 109.136719 247.332031 109.160156 248.257812 111.101562 C 248.433594 111.46875 248.632812 111.835938 248.863281 112.171875 C 250.171875 114.101562 251.34375 114.390625 253.300781 113.191406 C 254.398438 112.519531 255.445312 111.757812 256.492188 111 C 261.277344 107.535156 266.65625 105.457031 272.382812 104.195312 C 273.878906 103.863281 275.390625 103.699219 276.921875 103.765625 C 278.183594 103.820312 279.363281 104.152344 280.304688 105.042969 C 281.222656 105.910156 281.628906 106.972656 281.253906 108.234375 C 280.898438 109.441406 279.972656 110.007812 278.816406 110.257812 C 278.421875 110.34375 278 110.363281 277.59375 110.359375 C 271.972656 110.304688 266.875 112.066406 262.117188 114.917969 C 260.761719 115.730469 259.496094 116.691406 258.195312 117.597656 C 257.132812 118.335938 256.0625 119.054688 254.863281 119.554688 C 251.511719 120.949219 248.4375 120.460938 245.679688 118.113281 C 243.652344 116.382812 242.425781 114.128906 241.660156 111.613281 C 241.300781 110.433594 241.523438 110.058594 239.761719 110.21875 C 239.585938 110.234375 239.410156 110.234375 239.234375 110.214844 C 237.261719 110.003906 237.566406 110.292969 237.25 111.78125 C 236.214844 116.652344 233.542969 120.238281 228.800781 122.023438 C 224.117188 123.785156 220.335938 121.371094 219.707031 116.386719 C 219.144531 111.960938 222.144531 104.667969 228.785156 103.472656 C 230.246094 103.210938 230.234375 103.152344 229.617188 101.816406 C 229.171875 100.851562 228.609375 99.960938 227.917969 99.152344 C 226.796875 97.84375 225.433594 97.410156 223.820312 98.050781 C 219.34375 99.820312 215.863281 102.585938 214.789062 107.566406 C 214.40625 109.351562 213.640625 111.003906 213.273438 112.789062 C 212.980469 114.1875 211.542969 114.875 209.902344 114.578125 C 208.382812 114.304688 207.234375 113.417969 206.285156 112.246094 C 204.933594 110.574219 204.101562 108.640625 203.515625 106.589844 C 202.605469 103.414062 202.25 100.152344 202.15625 96.855469 C 202.089844 94.625 202.085938 92.390625 202.324219 90.171875 C 202.449219 89.027344 202.117188 88.429688 201.074219 87.824219 C 195.605469 84.671875 191.839844 80.128906 190.199219 73.945312 C 189.714844 72.117188 189.527344 70.253906 189.578125 68.367188 C 189.613281 67.125 189.816406 65.90625 190.386719 64.785156 C 191.191406 63.195312 192.789062 62.496094 194.34375 63.027344 C 195.820312 63.53125 196.613281 64.960938 196.269531 66.722656 C 196.066406 67.761719 195.867188 68.789062 195.957031 69.855469 C 196.394531 75.03125 199.066406 78.808594 203.4375 81.898438 " fill-opacity="1" fill-rule="nonzero"/><path fill="#606060" d="M 188.433594 123.910156 C 188.585938 123.179688 188.113281 122.5 187.378906 122.394531 C 186.714844 122.296875 186.097656 122.730469 185.964844 123.378906 C 185.824219 124.078125 186.328125 124.804688 187.027344 124.914062 C 187.660156 125.011719 188.296875 124.554688 188.433594 123.910156 Z M 190.824219 148.035156 C 190.113281 147.96875 189.476562 148.496094 189.386719 149.230469 C 189.296875 149.945312 189.800781 150.628906 190.5 150.738281 C 191.261719 150.859375 192.003906 150.246094 192.042969 149.46875 C 192.078125 148.742188 191.535156 148.101562 190.824219 148.035156 Z M 178.675781 125.542969 C 179.542969 125.675781 180.355469 125.078125 180.433594 124.25 C 180.5 123.550781 179.964844 122.898438 179.226562 122.777344 C 178.449219 122.652344 177.664062 123.167969 177.503906 123.914062 C 177.335938 124.707031 177.84375 125.414062 178.675781 125.542969 Z M 157.113281 168.058594 C 157.851562 168.164062 158.628906 167.59375 158.777344 166.835938 C 158.929688 166.050781 158.417969 165.242188 157.6875 165.097656 C 156.925781 164.953125 156.019531 165.609375 155.902344 166.402344 C 155.785156 167.148438 156.375 167.949219 157.113281 168.058594 Z M 165.949219 149.765625 C 166.75 149.847656 167.519531 149.175781 167.582031 148.328125 C 167.644531 147.539062 167.078125 146.839844 166.304688 146.746094 C 165.480469 146.648438 164.734375 147.296875 164.683594 148.167969 C 164.632812 148.964844 165.207031 149.6875 165.949219 149.765625 Z M 195.730469 167.464844 C 195.859375 166.773438 195.378906 166.023438 194.710938 165.859375 C 193.933594 165.667969 192.9375 166.367188 192.777344 167.214844 C 192.640625 167.929688 193.09375 168.636719 193.792969 168.800781 C 194.613281 168.992188 195.578125 168.332031 195.730469 167.464844 Z M 173.625 143.746094 C 174 143.882812 174.15625 143.976562 174.324219 143.992188 C 177.472656 144.328125 180.632812 144.351562 183.796875 144.351562 C 184.65625 144.347656 184.863281 144.023438 184.761719 143.167969 C 184.25 138.984375 183.632812 134.8125 182.949219 130.652344 C 182.914062 130.425781 182.839844 130.203125 182.421875 130.152344 C 179.136719 134.335938 176.242188 138.84375 173.625 143.746094 Z M 191.902344 119.28125 C 193.207031 119.414062 193.25 119.410156 193.375 120.910156 C 193.832031 126.523438 194.289062 132.140625 195.136719 137.707031 C 196.332031 145.539062 196.953125 153.433594 197.855469 161.300781 C 198.136719 163.742188 198.578125 166.171875 199.046875 168.589844 C 199.230469 169.523438 199.046875 169.980469 198.117188 170.273438 C 195.765625 171.007812 193.445312 171.835938 191.109375 172.597656 C 190.050781 172.941406 190.003906 172.917969 189.769531 171.722656 C 189.382812 169.765625 189.042969 167.800781 188.6875 165.839844 C 188.160156 162.953125 187.648438 160.066406 187.105469 157.183594 C 186.804688 155.578125 186.789062 155.574219 185.089844 155.394531 C 179.898438 154.847656 174.710938 154.296875 169.503906 153.9375 C 168.40625 153.859375 167.945312 154.234375 167.523438 155.144531 C 165.226562 160.09375 162.910156 165.03125 160.921875 170.109375 C 160.414062 171.414062 159.765625 172.03125 158.242188 171.980469 C 155.257812 171.882812 152.269531 172.046875 149.28125 172.082031 C 148.074219 172.097656 147.835938 171.808594 147.984375 170.632812 C 148.050781 170.101562 148.246094 169.617188 148.492188 169.144531 C 148.960938 168.261719 149.351562 167.335938 149.859375 166.480469 C 154.472656 158.710938 158.222656 150.464844 162.78125 142.671875 C 167.132812 135.230469 171.695312 127.914062 176.160156 120.539062 C 176.667969 119.699219 177.246094 119.082031 178.367188 119.101562 C 182.585938 119.171875 186.804688 119.179688 191.023438 119.214844 C 191.316406 119.214844 191.609375 119.253906 191.902344 119.28125 " fill-opacity="1" fill-rule="nonzero"/><path fill="#606060" d="M 82.710938 119.082031 C 82.789062 118.351562 82.265625 117.679688 81.566406 117.609375 C 80.847656 117.535156 80.214844 118.070312 80.132812 118.8125 C 80.054688 119.535156 80.585938 120.21875 81.28125 120.289062 C 81.996094 120.363281 82.628906 119.828125 82.710938 119.082031 Z M 64.808594 146.121094 C 65.589844 146.226562 66.371094 145.683594 66.503906 144.945312 C 66.636719 144.179688 66.050781 143.449219 65.234375 143.375 C 64.417969 143.300781 63.742188 143.847656 63.648438 144.652344 C 63.5625 145.40625 64.050781 146.019531 64.808594 146.121094 Z M 95.980469 139.054688 C 95.226562 138.933594 94.46875 139.46875 94.304688 140.242188 C 94.140625 140.996094 94.566406 141.660156 95.304688 141.8125 C 96.132812 141.988281 96.984375 141.398438 97.097656 140.574219 C 97.195312 139.84375 96.699219 139.171875 95.980469 139.054688 Z M 79.871094 160.734375 C 79.089844 160.601562 78.378906 161.140625 78.253906 161.960938 C 78.128906 162.769531 78.628906 163.539062 79.371094 163.695312 C 80.148438 163.859375 80.898438 163.359375 81.074219 162.5625 C 81.257812 161.710938 80.710938 160.878906 79.871094 160.734375 Z M 90.214844 143.230469 C 90.597656 139.703125 90.707031 135.960938 89.542969 132.300781 C 88.296875 128.378906 85.160156 126.714844 81.519531 125.691406 C 81.246094 125.613281 80.902344 125.589844 80.648438 125.6875 C 78.3125 126.558594 76 127.238281 74.777344 129.921875 C 71.703125 136.660156 70.675781 143.578125 72.097656 150.855469 C 72.445312 152.628906 73.210938 154.1875 74.316406 155.589844 C 75.78125 157.449219 77.65625 158.070312 79.941406 157.414062 C 82.820312 156.585938 85.085938 154.925781 86.75 152.4375 C 88.574219 149.707031 89.628906 146.679688 90.214844 143.230469 Z M 100.382812 144.652344 C 99.558594 149.691406 98.019531 153.972656 95.488281 157.871094 C 92.351562 162.703125 88.011719 165.941406 82.433594 167.382812 C 76.003906 169.042969 70.617188 167.226562 66.382812 162.128906 C 63.972656 159.230469 62.539062 155.871094 61.882812 152.132812 C 60.285156 143.054688 61.441406 134.371094 65.300781 126.023438 C 66.390625 123.660156 67.761719 121.488281 69.605469 119.632812 C 70.910156 118.316406 72.402344 117.332031 74.230469 116.882812 C 74.851562 116.726562 75.464844 116.507812 76.066406 116.277344 C 79.449219 114.980469 82.824219 115.023438 86.207031 116.285156 C 89.152344 117.378906 91.792969 118.984375 94.179688 121.023438 C 96.710938 123.1875 98.320312 125.941406 99.308594 129.082031 C 100.96875 134.34375 100.996094 139.707031 100.382812 144.652344 " fill-opacity="1" fill-rule="nonzero"/><path fill="#606060" d="M 232.464844 135.859375 C 232.597656 135.128906 232.128906 134.460938 231.410156 134.332031 C 230.691406 134.207031 230.035156 134.671875 229.898438 135.40625 C 229.765625 136.132812 230.238281 136.816406 230.949219 136.9375 C 231.660156 137.058594 232.339844 136.574219 232.464844 135.859375 Z M 213.894531 151.402344 C 213.15625 151.257812 212.480469 151.703125 212.332031 152.4375 C 212.183594 153.171875 212.613281 153.839844 213.34375 154.023438 C 214.144531 154.226562 214.910156 153.730469 215.019531 152.941406 C 215.113281 152.230469 214.613281 151.546875 213.894531 151.402344 Z M 238.117188 166.113281 C 238.1875 165.367188 237.675781 164.757812 236.90625 164.675781 C 236.175781 164.59375 235.46875 165.101562 235.351562 165.789062 C 235.226562 166.550781 235.847656 167.28125 236.664062 167.328125 C 237.421875 167.375 238.042969 166.851562 238.117188 166.113281 Z M 228.285156 153.472656 C 229.046875 153.558594 229.789062 152.949219 229.875 152.183594 C 229.964844 151.390625 229.363281 150.6875 228.566406 150.640625 C 227.84375 150.601562 227.21875 151.117188 227.097656 151.851562 C 226.964844 152.664062 227.492188 153.386719 228.285156 153.472656 Z M 213.359375 133.796875 C 214.136719 133.914062 214.949219 133.375 215.082031 132.644531 C 215.214844 131.910156 214.605469 131.113281 213.828125 131.019531 C 213.050781 130.921875 212.320312 131.503906 212.222656 132.296875 C 212.125 133.058594 212.597656 133.679688 213.359375 133.796875 Z M 211.386719 166.832031 C 212.175781 166.933594 213.109375 166.167969 213.234375 165.316406 C 213.339844 164.578125 212.871094 163.910156 212.15625 163.777344 C 211.285156 163.613281 210.28125 164.421875 210.207031 165.34375 C 210.148438 166.046875 210.699219 166.746094 211.386719 166.832031 Z M 218.355469 147.5625 C 221.15625 147.773438 223.957031 147.996094 226.707031 147.171875 C 229.550781 146.320312 230.117188 144.925781 228.6875 142.332031 C 228.574219 142.125 228.460938 141.917969 228.3125 141.738281 C 225.863281 138.734375 222.675781 137.285156 218.824219 137.339844 C 217.546875 137.363281 217.488281 137.480469 217.394531 138.804688 C 217.226562 141.195312 217.089844 143.589844 216.957031 145.984375 C 216.878906 147.394531 216.890625 147.394531 218.355469 147.5625 Z M 239.625 146.597656 C 239.125 149.441406 238.058594 151.738281 236.070312 153.558594 C 235.769531 153.835938 235.507812 154.160156 235.183594 154.40625 C 234.578125 154.859375 234.433594 155.355469 234.75 156.074219 C 235.347656 157.417969 235.933594 158.757812 236.851562 159.921875 C 237.609375 160.878906 238.628906 161.421875 239.726562 161.875 C 240.265625 162.09375 240.785156 162.371094 241.304688 162.644531 C 241.882812 162.949219 242.148438 163.398438 242.003906 164.085938 C 241.445312 166.785156 240.90625 169.488281 240.371094 172.191406 C 240.25 172.8125 239.859375 173.058594 239.285156 173.15625 C 238.101562 173.355469 236.945312 173.207031 235.816406 172.855469 C 232.339844 171.777344 229.554688 169.714844 227.371094 166.828125 C 225.691406 164.609375 224.472656 162.136719 223.570312 159.519531 C 223.039062 157.976562 223.007812 158.027344 221.472656 158.039062 C 220.363281 158.046875 219.246094 157.980469 218.136719 157.894531 C 217.390625 157.835938 217.105469 158.109375 217.054688 158.863281 C 216.875 161.554688 216.640625 164.242188 216.429688 166.929688 C 216.40625 167.21875 216.410156 167.515625 216.371094 167.804688 C 216.117188 169.617188 215.730469 169.9375 213.859375 169.832031 C 211.753906 169.714844 209.648438 169.574219 207.550781 169.421875 C 206.070312 169.3125 205.867188 169.09375 205.800781 167.601562 C 205.773438 167.074219 205.785156 166.542969 205.808594 166.019531 C 206.210938 156.941406 206.398438 147.855469 207.085938 138.792969 C 207.242188 136.75 207.167969 134.691406 207.207031 132.636719 C 207.214844 132.167969 207.203125 131.699219 207.253906 131.234375 C 207.527344 128.691406 208.1875 127.96875 210.726562 127.796875 C 214.753906 127.523438 218.792969 127.320312 222.832031 127.449219 C 224.5 127.5 226.035156 128.128906 227.554688 128.753906 C 231.320312 130.296875 234.539062 132.574219 236.855469 135.984375 C 239.074219 139.261719 240.070312 142.859375 239.625 146.597656 " fill-opacity="1" fill-rule="nonzero"/><path fill="#606060" d="M 52.152344 165.925781 C 52.289062 165.238281 51.789062 164.53125 51.066406 164.394531 C 50.339844 164.257812 49.644531 164.714844 49.503906 165.425781 C 49.367188 166.128906 49.847656 166.808594 50.578125 166.949219 C 51.300781 167.085938 52.015625 166.625 52.152344 165.925781 Z M 46.832031 138.527344 C 47.550781 138.605469 48.183594 138.074219 48.253906 137.328125 C 48.324219 136.597656 47.789062 135.917969 47.097656 135.855469 C 46.394531 135.789062 45.734375 136.34375 45.664062 137.066406 C 45.597656 137.792969 46.121094 138.449219 46.832031 138.527344 Z M 23.589844 142.863281 C 24.398438 142.984375 25.125 142.425781 25.199219 141.628906 C 25.265625 140.910156 24.703125 140.226562 23.988281 140.160156 C 23.265625 140.089844 22.605469 140.617188 22.488281 141.347656 C 22.363281 142.128906 22.8125 142.742188 23.589844 142.863281 Z M 35.671875 136.40625 C 35.765625 135.707031 35.25 135.011719 34.542969 134.890625 C 33.753906 134.753906 33.023438 135.316406 32.957031 136.113281 C 32.898438 136.824219 33.453125 137.488281 34.164062 137.558594 C 34.863281 137.632812 35.578125 137.085938 35.671875 136.40625 Z M 42.097656 153.195312 C 42.871094 153.339844 43.597656 152.847656 43.773438 152.066406 C 43.933594 151.34375 43.511719 150.652344 42.804688 150.476562 C 42.035156 150.285156 41.113281 150.902344 40.996094 151.683594 C 40.890625 152.386719 41.382812 153.0625 42.097656 153.195312 Z M 29.148438 151.1875 C 29.265625 150.523438 28.753906 149.796875 28.054688 149.628906 C 27.273438 149.449219 26.503906 149.957031 26.378906 150.742188 C 26.261719 151.472656 26.722656 152.140625 27.441406 152.296875 C 28.199219 152.464844 29.015625 151.929688 29.148438 151.1875 Z M 41.261719 169.265625 C 41.347656 168.527344 40.753906 167.769531 39.992188 167.648438 C 39.257812 167.53125 38.570312 168.007812 38.445312 168.71875 C 38.304688 169.527344 38.960938 170.378906 39.78125 170.453125 C 40.496094 170.511719 41.183594 169.964844 41.261719 169.265625 Z M 26.988281 169.039062 C 27.816406 169.121094 28.753906 168.335938 28.820312 167.507812 C 28.875 166.792969 28.335938 166.199219 27.558594 166.121094 C 26.714844 166.035156 25.882812 166.640625 25.753906 167.429688 C 25.628906 168.207031 26.203125 168.957031 26.988281 169.039062 Z M 53.144531 155.078125 C 53.285156 154.246094 52.691406 153.359375 51.917969 153.242188 C 51.175781 153.136719 50.410156 153.691406 50.242188 154.460938 C 50.066406 155.273438 50.664062 156.160156 51.46875 156.28125 C 52.21875 156.394531 53.023438 155.820312 53.144531 155.078125 Z M 32.65625 174 C 29.429688 173.238281 26 172.457031 22.582031 171.625 C 21.0625 171.253906 21.039062 171.199219 21.386719 169.714844 C 21.9375 167.375 22.527344 165.042969 23.125 162.714844 C 23.441406 161.480469 23.550781 161.382812 24.835938 161.648438 C 26.84375 162.0625 28.847656 162.519531 30.832031 163.03125 C 34.84375 164.066406 38.875 164.625 43.015625 163.984375 C 44.777344 163.707031 46.230469 162.933594 47.394531 161.59375 C 48.128906 160.75 48.546875 159.8125 48.117188 158.6875 C 47.703125 157.609375 46.761719 157.277344 45.734375 157.160156 C 43.566406 156.914062 41.402344 157.074219 39.238281 157.21875 C 35.640625 157.460938 32.085938 157.265625 28.648438 156.066406 C 26.695312 155.382812 24.882812 154.429688 23.269531 153.132812 C 18.097656 148.96875 17.199219 142.339844 21.058594 136.96875 C 23.058594 134.1875 25.773438 132.449219 29.007812 131.460938 C 32.316406 130.453125 35.707031 130.386719 39.117188 130.636719 C 43.167969 130.929688 47.09375 131.941406 51.019531 132.917969 C 51.636719 133.070312 52.242188 133.339844 52.796875 133.65625 C 54.679688 134.730469 54.847656 135.296875 54.089844 137.332031 C 53.554688 138.757812 53.082031 140.207031 52.589844 141.652344 C 52.171875 142.871094 51.996094 143.015625 50.722656 143.074219 C 49.835938 143.117188 48.972656 142.933594 48.113281 142.753906 C 45.417969 142.183594 42.761719 141.417969 40.023438 141.066406 C 37.742188 140.78125 35.464844 140.671875 33.1875 141.039062 C 32.019531 141.226562 30.898438 141.578125 29.988281 142.378906 C 28.742188 143.480469 28.769531 144.417969 30.105469 145.375 C 31.125 146.101562 32.28125 146.523438 33.507812 146.742188 C 35.074219 147.019531 36.652344 147.085938 38.238281 146.96875 C 40.988281 146.769531 43.742188 146.65625 46.496094 146.859375 C 52.976562 147.332031 57.945312 152.042969 58.558594 158.320312 C 58.867188 161.484375 58.085938 164.398438 56.234375 166.972656 C 53.519531 170.746094 49.917969 173.199219 45.285156 174.023438 C 41.144531 174.757812 37 174.675781 32.65625 174 " fill-opacity="1" fill-rule="nonzero"/><path fill="#606060" d="M 120.492188 164.347656 C 120.566406 163.59375 120.035156 162.96875 119.269531 162.917969 C 118.523438 162.863281 117.898438 163.429688 117.871094 164.175781 C 117.847656 164.863281 118.324219 165.425781 119.011719 165.511719 C 119.753906 165.605469 120.417969 165.082031 120.492188 164.347656 Z M 121.183594 146.921875 C 121.253906 146.167969 120.722656 145.554688 119.945312 145.535156 C 119.1875 145.507812 118.726562 145.902344 118.585938 146.628906 C 118.441406 147.371094 118.960938 148.011719 119.730469 148.101562 C 120.492188 148.191406 121.117188 147.6875 121.183594 146.921875 Z M 147.972656 144.109375 C 147.183594 143.988281 146.402344 144.558594 146.328125 145.308594 C 146.261719 146.007812 146.796875 146.667969 147.527344 146.789062 C 148.347656 146.921875 149.058594 146.398438 149.140625 145.589844 C 149.21875 144.855469 148.722656 144.230469 147.972656 144.109375 Z M 134.710938 144.753906 C 134.039062 144.617188 133.289062 145.125 133.15625 145.808594 C 133.023438 146.492188 133.523438 147.230469 134.207031 147.371094 C 134.898438 147.511719 135.621094 147.019531 135.753906 146.320312 C 135.886719 145.621094 135.40625 144.894531 134.710938 144.753906 Z M 120.546875 131.058594 C 119.777344 130.902344 119.128906 131.3125 118.972656 132.054688 C 118.816406 132.828125 119.289062 133.644531 120.011719 133.839844 C 120.769531 134.046875 121.566406 133.535156 121.703125 132.75 C 121.839844 131.980469 121.316406 131.214844 120.546875 131.058594 Z M 149.878906 129.765625 C 150.011719 128.96875 149.394531 128.09375 148.609375 127.957031 C 147.839844 127.816406 147.09375 128.378906 147 129.160156 C 146.902344 129.96875 147.542969 130.773438 148.367188 130.875 C 149.113281 130.96875 149.761719 130.492188 149.878906 129.765625 Z M 142.847656 132.589844 C 143.210938 129.503906 143.390625 127.097656 143.894531 124.746094 C 144.222656 123.191406 144.363281 123.070312 145.816406 123.09375 C 147.921875 123.125 150.027344 122.957031 152.136719 122.878906 C 153.589844 122.828125 153.882812 123.046875 153.996094 124.535156 C 154.058594 125.34375 154.011719 126.179688 153.898438 126.984375 C 152.664062 135.941406 152.03125 144.953125 151.515625 153.972656 C 151.449219 155.125 151.191406 156.132812 150.53125 157.089844 C 147.839844 160.996094 145.183594 164.929688 142.503906 168.847656 C 142.285156 169.167969 142.113281 169.675781 141.605469 169.546875 C 141.140625 169.429688 140.824219 169.027344 140.648438 168.582031 C 140.429688 168.019531 140.515625 167.414062 140.558594 166.835938 C 140.898438 162.035156 140.832031 157.226562 140.859375 152.417969 C 140.867188 151.109375 140.640625 150.761719 139.402344 150.878906 C 135.324219 151.265625 131.203125 151.109375 127.140625 151.722656 C 127.023438 151.738281 126.90625 151.746094 126.789062 151.765625 C 125.347656 151.992188 125.3125 151.992188 125.324219 153.539062 C 125.359375 158.234375 124.902344 162.90625 124.8125 167.597656 C 124.761719 170.429688 124.683594 170.457031 121.867188 170.683594 C 119.824219 170.847656 117.777344 170.945312 115.730469 171.015625 C 114.511719 171.058594 114.378906 170.980469 114.324219 169.792969 C 114.207031 167.160156 114.242188 164.519531 114.128906 161.882812 C 113.835938 155.070312 114.65625 148.292969 114.800781 141.492188 C 114.894531 136.863281 115.109375 132.234375 115.273438 127.601562 C 115.285156 127.253906 115.328125 126.902344 115.378906 126.554688 C 115.460938 125.992188 115.792969 125.777344 116.363281 125.816406 C 119.050781 126.015625 121.742188 126.101562 124.4375 126.046875 C 125.085938 126.03125 125.4375 126.328125 125.449219 126.972656 C 125.46875 128.027344 125.5 129.082031 125.460938 130.136719 C 125.347656 133.417969 125.1875 136.699219 125.082031 139.984375 C 125.035156 141.5625 125.082031 141.558594 126.628906 141.417969 C 131.292969 140.992188 135.964844 140.578125 140.632812 140.160156 C 142.152344 140.023438 142.175781 140.027344 142.316406 138.550781 C 142.53125 136.328125 142.710938 134.109375 142.847656 132.589844 " fill-opacity="1" fill-rule="nonzero"/><path fill="#606060" d="M 256.863281 132.570312 C 256.957031 131.832031 256.453125 131.140625 255.746094 131.042969 C 254.984375 130.9375 254.238281 131.566406 254.183594 132.351562 C 254.128906 133.101562 254.671875 133.734375 255.40625 133.792969 C 256.132812 133.851562 256.765625 133.316406 256.863281 132.570312 Z M 282.21875 146.996094 C 282.351562 146.277344 281.757812 145.429688 281.03125 145.304688 C 280.300781 145.179688 279.492188 145.785156 279.390625 146.535156 C 279.289062 147.265625 279.757812 147.917969 280.496094 148.074219 C 281.300781 148.246094 282.074219 147.761719 282.21875 146.996094 Z M 254.632812 164.699219 C 255.425781 164.816406 256.195312 164.179688 256.3125 163.308594 C 256.410156 162.566406 255.953125 161.902344 255.242188 161.761719 C 254.429688 161.597656 253.640625 162.179688 253.492188 163.050781 C 253.351562 163.882812 253.839844 164.585938 254.632812 164.699219 Z M 275.335938 149.9375 C 275.488281 147.476562 275.214844 144.746094 274.292969 142.105469 C 273.28125 139.191406 271.152344 137.636719 268.15625 137.308594 C 265.628906 137.03125 263.128906 137.285156 260.644531 137.835938 C 259.640625 138.054688 259.296875 138.550781 259.3125 139.527344 C 259.335938 141.167969 259.261719 142.8125 259.25 144.457031 C 259.230469 148.503906 259.207031 152.550781 259.214844 156.601562 C 259.222656 158.050781 259.28125 158.097656 260.703125 158.113281 C 262.757812 158.140625 264.804688 157.996094 266.820312 157.578125 C 268.917969 157.144531 270.84375 156.335938 272.550781 155.011719 C 274.117188 153.792969 274.980469 152.191406 275.335938 149.9375 Z M 270.023438 127.136719 C 276.789062 128.398438 281.558594 131.996094 283.863281 138.414062 C 285.699219 143.515625 286.351562 148.789062 284.921875 154.144531 C 283.917969 157.90625 281.769531 160.90625 278.691406 163.269531 C 274.492188 166.5 269.652344 167.90625 264.46875 168.261719 C 260.144531 168.5625 255.808594 168.496094 251.480469 168.191406 C 250.441406 168.117188 249.871094 167.679688 249.472656 166.800781 C 248.800781 165.316406 248.671875 163.742188 248.699219 162.152344 C 248.730469 159.746094 248.84375 157.34375 248.878906 154.941406 C 249.003906 147.140625 248.929688 139.339844 249.316406 131.542969 C 249.523438 127.296875 249.304688 128.152344 253.035156 127.71875 C 254.429688 127.554688 255.839844 127.324219 257.230469 127.378906 C 260.679688 127.519531 264.078125 126.703125 267.523438 126.953125 C 268.398438 127.019531 269.277344 127.082031 270.023438 127.136719 " fill-opacity="1" fill-rule="nonzero"/><path fill="#86cfcb" d="M 51.820312 188.609375 C 52.664062 191.90625 58.539062 207.488281 59.378906 208.648438 C 59.765625 208.285156 59.679688 207.789062 59.738281 207.355469 C 60.785156 199.859375 61.800781 192.355469 62.871094 184.859375 C 63 183.953125 62.808594 183.539062 61.941406 183.148438 C 60.722656 182.601562 60.265625 181.40625 60.546875 180.226562 C 60.820312 179.0625 61.765625 178.203125 63.097656 178.1875 C 65.335938 178.167969 67.53125 177.820312 69.742188 177.5625 C 71.445312 177.367188 72.660156 178.164062 72.980469 179.570312 C 73.3125 181.035156 72.472656 182.535156 70.746094 182.792969 C 69.007812 183.046875 68.691406 184.015625 68.484375 185.457031 C 67.199219 194.402344 65.90625 203.347656 64.894531 212.328125 C 64.71875 213.902344 64.519531 215.472656 63.976562 216.976562 C 63.441406 218.460938 62.546875 219.582031 60.902344 219.765625 C 59.265625 219.949219 58.085938 219.109375 57.269531 217.757812 C 55.808594 215.339844 54.609375 212.789062 53.601562 210.15625 C 52.363281 206.925781 51.199219 203.664062 49.984375 200.425781 C 49.78125 199.886719 49.699219 199.285156 49.207031 198.785156 C 48.777344 199.121094 48.871094 199.621094 48.816406 200.035156 C 48.074219 205.617188 47.730469 211.25 46.828125 216.816406 C 46.703125 217.582031 46.855469 217.949219 47.644531 218.234375 C 48.726562 218.621094 49.3125 219.511719 49.25 220.707031 C 49.179688 221.964844 48.46875 222.867188 47.304688 223.15625 C 44.863281 223.765625 42.390625 224.246094 39.914062 224.707031 C 39.234375 224.835938 38.507812 224.671875 37.890625 224.277344 C 36.96875 223.6875 36.496094 222.835938 36.589844 221.753906 C 36.683594 220.667969 37.304688 219.917969 38.328125 219.527344 C 38.546875 219.445312 38.78125 219.339844 39.003906 219.347656 C 40.457031 219.386719 40.8125 218.472656 41.035156 217.253906 C 41.738281 213.4375 42.023438 209.570312 42.464844 205.726562 C 42.933594 201.644531 43.347656 197.554688 44.023438 193.503906 C 44.136719 192.808594 44.214844 192.097656 44.421875 191.429688 C 44.800781 190.21875 45.050781 189.277344 43.664062 188.3125 C 42.433594 187.460938 42.824219 185.480469 44.089844 184.488281 C 44.714844 184 45.445312 183.808594 46.207031 183.703125 C 48.355469 183.410156 50.503906 183.125 52.652344 182.835938 C 52.941406 182.796875 53.234375 182.746094 53.527344 182.75 C 55.105469 182.753906 56.257812 183.640625 56.464844 184.984375 C 56.671875 186.335938 55.871094 187.558594 54.367188 188.035156 C 53.539062 188.296875 52.671875 188.421875 51.820312 188.609375 " fill-opacity="1" fill-rule="nonzero"/><path fill="#606060" d="M 144.984375 226.800781 C 145.574219 226.882812 146.128906 227.050781 146.648438 227.34375 C 148.234375 228.242188 148.640625 229.855469 147.640625 231.382812 C 147.003906 232.355469 146.054688 232.921875 144.980469 233.304688 C 143.699219 233.761719 142.359375 233.90625 141.015625 234.023438 C 130.042969 235.007812 119.039062 235.578125 108.035156 236.039062 C 92.699219 236.6875 77.359375 237.183594 62.023438 237.859375 C 54.886719 238.171875 47.753906 238.695312 40.71875 240.089844 C 40.378906 240.15625 40.019531 240.191406 39.671875 240.175781 C 38.363281 240.121094 37.367188 239.363281 37.050781 238.210938 C 36.734375 237.0625 37.199219 235.859375 38.25 235.144531 C 39.097656 234.570312 40.085938 234.386719 41.070312 234.21875 C 45.402344 233.46875 49.773438 233.019531 54.15625 232.683594 C 66.421875 231.75 78.71875 231.28125 91 230.570312 C 107.90625 229.59375 124.796875 228.46875 141.65625 226.855469 C 142.765625 226.75 143.875 226.636719 144.984375 226.800781 " fill-opacity="1" fill-rule="nonzero"/><path fill="#ed7063" d="M 167.488281 112.640625 C 168.308594 111.875 168.742188 110.898438 169.261719 109.992188 C 172.144531 104.957031 175.894531 100.632812 180.136719 96.707031 C 180.953125 95.953125 181.792969 95.210938 182.820312 94.742188 C 184.433594 94.007812 186.066406 94.292969 186.988281 95.453125 C 187.910156 96.609375 187.84375 98.308594 186.742188 99.675781 C 186.269531 100.265625 185.695312 100.78125 185.105469 101.257812 C 180.664062 104.828125 176.96875 109.015625 174.25 114.046875 C 173.636719 115.183594 172.9375 116.269531 172.070312 117.234375 C 168.804688 120.863281 164.511719 120.46875 162.03125 116.285156 C 160.480469 113.65625 159.796875 110.753906 159.511719 107.746094 C 159.046875 102.851562 159.574219 98.019531 160.496094 93.222656 C 161.027344 90.460938 161.640625 87.710938 162.234375 84.957031 C 162.671875 82.921875 162.773438 82.976562 160.789062 82.894531 C 160.324219 82.875 159.847656 82.808594 159.410156 82.671875 C 158.0625 82.238281 157.238281 81.140625 157.210938 79.804688 C 157.183594 78.515625 158.015625 77.335938 159.320312 76.855469 C 160.339844 76.484375 161.398438 76.566406 162.453125 76.613281 C 164.179688 76.691406 164.140625 76.679688 164.597656 75.097656 C 165.730469 71.152344 166.882812 67.214844 168.070312 63.285156 C 168.570312 61.636719 170.007812 60.71875 171.539062 60.945312 C 173.132812 61.1875 174.191406 62.566406 174.144531 64.390625 C 174.105469 65.757812 173.679688 67.039062 173.277344 68.328125 C 172.492188 70.847656 171.695312 73.363281 170.953125 75.894531 C 170.503906 77.417969 170.542969 77.441406 172.050781 77.730469 C 173.261719 77.960938 174.472656 78.191406 175.636719 78.601562 C 175.964844 78.71875 176.304688 78.824219 176.613281 78.984375 C 178.226562 79.8125 179.03125 81.433594 178.578125 82.890625 C 178.109375 84.402344 176.625 85.257812 174.765625 84.9375 C 173.269531 84.679688 171.804688 84.226562 170.3125 83.929688 C 169.0625 83.683594 169.023438 83.71875 168.753906 84.914062 C 167.492188 90.460938 166.160156 96 165.777344 101.703125 C 165.585938 104.640625 165.628906 107.570312 166.445312 110.429688 C 166.664062 111.199219 166.796875 112.035156 167.488281 112.640625 " fill-opacity="1" fill-rule="nonzero"/><path fill="#86cfcb" d="M 177.464844 191.878906 C 177.550781 191.894531 177.636719 191.90625 177.722656 191.917969 C 177.449219 194.304688 177.175781 196.691406 176.90625 199.078125 C 176.84375 199.644531 176.832031 200.175781 177.664062 200.066406 C 180.210938 199.722656 182.792969 199.5625 185.269531 198.820312 C 187.535156 198.140625 189.089844 196.082031 189.109375 193.707031 C 189.136719 190.96875 188.480469 188.367188 187.207031 185.9375 C 186.289062 184.191406 184.839844 183.050781 182.941406 182.527344 C 180.738281 181.917969 178.820312 183.1875 178.460938 185.460938 C 178.117188 187.597656 177.796875 189.738281 177.464844 191.878906 Z M 175.574219 209.042969 C 175.484375 209.621094 175.421875 210.207031 175.296875 210.777344 C 175.09375 211.71875 175.117188 212.417969 176.261719 212.820312 C 177.289062 213.179688 177.742188 214.144531 177.65625 215.238281 C 177.570312 216.328125 176.957031 217.226562 175.929688 217.460938 C 173.113281 218.113281 170.238281 218.070312 167.40625 217.625 C 166.210938 217.433594 165.566406 216.261719 165.585938 215.121094 C 165.613281 213.90625 166.371094 212.714844 167.644531 212.636719 C 169.308594 212.535156 169.496094 211.636719 169.707031 210.308594 C 171.203125 200.921875 171.960938 191.445312 173.125 182.019531 C 173.328125 180.390625 173.902344 179.226562 175.601562 178.828125 C 175.929688 178.75 176.261719 178.582031 176.542969 178.390625 C 179.902344 176.066406 183.355469 176.277344 186.855469 178 C 189.371094 179.238281 191.195312 181.179688 192.421875 183.671875 C 193.996094 186.875 194.828125 190.269531 194.773438 193.855469 C 194.703125 198.347656 191.835938 202.410156 187.640625 204.019531 C 186.148438 204.59375 186.140625 204.597656 186.265625 206.121094 C 186.414062 207.886719 186.734375 209.617188 187.523438 211.210938 C 188.09375 212.363281 188.285156 212.390625 189.382812 211.769531 C 189.949219 211.445312 190.5 211.125 191.175781 211.105469 C 192.257812 211.074219 193.132812 211.449219 193.664062 212.429688 C 194.191406 213.390625 194.234375 214.472656 193.472656 215.226562 C 191.296875 217.375 188.78125 219.097656 186.046875 220.449219 C 185.046875 220.945312 183.953125 220.578125 183.199219 219.667969 C 182.484375 218.804688 182.40625 217.722656 182.988281 216.871094 C 183.65625 215.894531 183.382812 215.285156 182.832031 214.414062 C 181.523438 212.347656 181.058594 209.972656 180.722656 207.578125 C 180.65625 207.117188 180.617188 206.648438 180.578125 206.179688 C 180.535156 205.660156 180.234375 205.476562 179.75 205.523438 C 178.703125 205.625 177.664062 205.835938 176.601562 205.75 C 176.140625 205.714844 176.027344 206.078125 175.96875 206.433594 C 175.824219 207.300781 175.695312 208.171875 175.5625 209.039062 C 175.566406 209.042969 175.570312 209.042969 175.574219 209.042969 " fill-opacity="1" fill-rule="nonzero"/><path fill="#86cfcb" d="M 221.992188 190.0625 C 221.816406 191.402344 221.382812 192.925781 220.570312 194.308594 C 220.203125 194.945312 220.078125 195.4375 220.6875 196.007812 C 221.011719 196.316406 221.242188 196.769531 221.40625 197.199219 C 221.804688 198.265625 221.523438 199.410156 220.703125 200.085938 C 219.863281 200.773438 218.914062 200.917969 217.90625 200.480469 C 217.636719 200.363281 217.351562 200.242188 217.140625 200.054688 C 215.34375 198.457031 213.523438 196.882812 211.796875 195.214844 C 210.882812 194.328125 210.65625 193.175781 211.25 191.972656 C 211.742188 190.976562 212.601562 190.550781 213.675781 190.511719 C 214.160156 190.492188 214.605469 190.65625 215.003906 190.910156 C 215.667969 191.328125 215.964844 190.996094 216.132812 190.386719 C 216.988281 187.28125 216.808594 184.34375 214.707031 181.722656 C 213.539062 180.261719 212.097656 179.804688 210.335938 180.445312 C 208.921875 180.957031 207.789062 181.867188 206.964844 183.144531 C 206.261719 184.238281 205.765625 185.425781 205.371094 186.660156 C 204.347656 189.851562 204.867188 192.671875 207.332031 195.054688 C 208.679688 196.363281 210 197.695312 211.300781 199.050781 C 213.339844 201.1875 214.644531 203.703125 215.085938 206.648438 C 216.023438 212.859375 212.34375 217.679688 206.097656 218.40625 C 200.824219 219.019531 196.203125 214.292969 196.921875 208.976562 C 197.070312 207.917969 197.316406 207.03125 196.234375 206.183594 C 195.417969 205.542969 195.375 204.421875 195.890625 203.425781 C 196.394531 202.449219 197.234375 201.847656 198.304688 201.96875 C 200.441406 202.21875 202.378906 203.125 203.976562 204.53125 C 205.257812 205.667969 204.984375 207.398438 203.582031 208.472656 C 202.484375 209.3125 202.332031 209.699219 202.679688 210.777344 C 203.058594 211.960938 204.007812 212.746094 205.082031 212.773438 C 207.839844 212.828125 209.746094 210.816406 209.546875 208.058594 C 209.386719 205.902344 208.394531 204.148438 206.902344 202.644531 C 205.378906 201.101562 203.761719 199.648438 202.363281 197.980469 C 200.621094 195.910156 199.382812 193.601562 199.261719 190.847656 C 199.050781 186.128906 200.429688 181.875 203.574219 178.359375 C 206.03125 175.609375 209.175781 174.171875 212.992188 174.589844 C 215.402344 174.855469 217.308594 175.976562 218.84375 177.808594 C 221.753906 181.28125 222.769531 185.09375 221.992188 190.0625 " fill-opacity="1" fill-rule="nonzero"/><g clip-path="url(#cf5b0d76b4)"><path fill="#86cfcb" d="M 273.984375 200.816406 C 274.96875 195.328125 275.878906 189.828125 276.660156 184.308594 C 276.890625 182.683594 276.84375 182.621094 275.179688 182.65625 C 273.367188 182.6875 271.554688 182.6875 269.753906 183.019531 C 267.878906 183.363281 266.519531 182.53125 266.195312 181.003906 C 265.878906 179.476562 266.785156 178.082031 268.480469 177.535156 C 269.609375 177.171875 270.789062 177.101562 271.957031 177.066406 C 276.996094 176.917969 282.035156 176.996094 287.066406 177.335938 C 288.8125 177.457031 290.582031 177.601562 292.246094 178.222656 C 292.789062 178.421875 293.070312 178.246094 293.464844 177.898438 C 294.753906 176.769531 295.859375 176.644531 296.945312 177.386719 C 297.996094 178.109375 298.386719 179.316406 297.863281 180.855469 C 297.144531 182.960938 296.246094 185.003906 295.625 187.148438 C 295.449219 187.769531 295.300781 188.402344 295.050781 188.996094 C 294.511719 190.28125 293.34375 191.003906 292.15625 190.847656 C 290.898438 190.679688 289.984375 189.609375 289.808594 188.144531 C 289.695312 187.234375 289.945312 186.398438 290.246094 185.566406 C 290.484375 184.910156 290.457031 184.484375 289.632812 184.292969 C 287.570312 183.816406 285.480469 183.542969 283.378906 183.335938 C 282.675781 183.265625 282.457031 183.605469 282.371094 184.21875 C 281.875 187.644531 281.367188 191.070312 280.851562 194.496094 C 280.75 195.164062 280.945312 195.460938 281.675781 195.449219 C 283.609375 195.410156 285.550781 195.34375 287.449219 195.808594 C 287.769531 195.886719 288.015625 195.789062 288.21875 195.539062 C 288.445312 195.269531 288.65625 194.980469 288.917969 194.746094 C 290.007812 193.753906 291.382812 193.628906 292.453125 194.398438 C 293.539062 195.179688 293.878906 196.496094 293.1875 197.84375 C 292.152344 199.878906 291.636719 202.003906 291.722656 204.285156 C 291.746094 204.75 291.679688 205.226562 291.585938 205.683594 C 291.386719 206.675781 290.863281 207.402344 289.839844 207.683594 C 288.726562 207.992188 287.890625 207.503906 287.203125 206.707031 C 286.34375 205.707031 286.144531 204.453125 286.273438 203.222656 C 286.4375 201.636719 286.253906 201.503906 284.558594 201.363281 C 283.390625 201.265625 282.230469 201.09375 281.050781 201.152344 C 279.773438 201.21875 279.734375 201.203125 279.527344 202.515625 C 278.851562 206.863281 277.851562 211.15625 277.453125 215.546875 C 277.335938 216.832031 277.160156 218.117188 276.902344 219.378906 C 276.527344 221.207031 275.148438 222.269531 273.554688 222.074219 C 272.035156 221.890625 270.96875 220.597656 270.890625 218.84375 C 270.847656 217.898438 271.015625 216.972656 271.183594 216.050781 C 272.121094 210.972656 273.050781 205.890625 273.984375 200.816406 " fill-opacity="1" fill-rule="nonzero"/></g><path fill="#86cfcb" d="M 141.574219 193.027344 C 141.816406 191.28125 142.355469 189.058594 142.90625 186.835938 C 143.285156 185.292969 143.261719 185.296875 141.734375 184.941406 C 141.335938 184.847656 140.925781 184.742188 140.574219 184.554688 C 139.605469 184.027344 139.085938 182.949219 139.265625 181.878906 C 139.460938 180.71875 140.164062 180.015625 141.292969 179.703125 C 141.992188 179.503906 142.691406 179.660156 143.390625 179.652344 C 145.558594 179.625 147.726562 179.605469 149.898438 179.558594 C 150.488281 179.546875 151.0625 179.558594 151.621094 179.792969 C 152.554688 180.183594 153.203125 180.8125 153.3125 181.855469 C 153.417969 182.859375 153.050781 183.691406 152.234375 184.316406 C 151.808594 184.640625 151.324219 184.957031 150.804688 184.933594 C 149.238281 184.851562 148.972656 185.875 148.660156 187.082031 C 147.300781 192.328125 146.292969 197.617188 146.453125 203.074219 C 146.503906 204.722656 146.699219 206.347656 147.207031 207.925781 C 147.476562 208.769531 147.839844 209.570312 148.445312 210.238281 C 149.625 211.53125 151.144531 211.671875 152.515625 210.585938 C 153.691406 209.652344 154.449219 208.394531 155.121094 207.082031 C 156.695312 203.980469 157.808594 200.703125 158.714844 197.359375 C 159.761719 193.507812 160.71875 189.632812 161.785156 185.789062 C 162.035156 184.871094 161.898438 184.460938 160.914062 184.425781 C 160.632812 184.414062 160.347656 184.277344 160.078125 184.160156 C 158.964844 183.675781 158.3125 182.65625 158.382812 181.53125 C 158.453125 180.417969 159.25 179.480469 160.425781 179.171875 C 160.761719 179.082031 161.125 179.019531 161.46875 179.042969 C 163.113281 179.15625 164.75 178.976562 166.382812 178.882812 C 166.976562 178.84375 167.558594 178.835938 168.121094 179.035156 C 170.136719 179.746094 170.667969 182.210938 168.984375 183.515625 C 168.222656 184.105469 167.910156 184.722656 167.65625 185.605469 C 165.636719 192.589844 164.367188 199.792969 161.582031 206.554688 C 160.550781 209.058594 159.398438 211.496094 157.589844 213.550781 C 155.992188 215.371094 154.085938 216.707031 151.621094 216.964844 C 148.21875 217.324219 145.578125 215.910156 143.574219 213.226562 C 142.207031 211.394531 141.566406 209.265625 141.175781 207.046875 C 140.550781 203.519531 140.664062 198.65625 141.574219 193.027344 " fill-opacity="1" fill-rule="nonzero"/><path fill="#86cfcb" d="M 225.433594 205.433594 C 226.457031 198.753906 226.554688 191.527344 226.964844 184.324219 C 226.996094 183.816406 226.871094 183.421875 226.566406 183.03125 C 225.140625 181.195312 226.605469 178.746094 228.925781 178.707031 C 232.152344 178.648438 235.371094 178.683594 238.59375 178.84375 C 239 178.867188 239.414062 178.886719 239.820312 178.921875 C 240.621094 178.988281 241.199219 178.902344 241.613281 177.976562 C 242.175781 176.722656 243.363281 176.285156 244.523438 176.566406 C 245.660156 176.847656 246.484375 177.800781 246.585938 179.125 C 246.648438 179.878906 246.585938 180.648438 246.5 181.402344 C 246.273438 183.386719 245.914062 185.351562 245.847656 187.351562 C 245.839844 187.585938 245.792969 187.820312 245.742188 188.046875 C 245.371094 189.589844 244.257812 190.535156 242.921875 190.457031 C 241.699219 190.378906 240.589844 189.335938 240.398438 187.902344 C 240.28125 187.042969 240.355469 186.148438 240.40625 185.273438 C 240.4375 184.679688 240.234375 184.390625 239.636719 184.371094 C 237.585938 184.300781 235.539062 184.230469 233.488281 184.144531 C 232.753906 184.113281 232.609375 184.589844 232.578125 185.160156 C 232.476562 187.210938 232.386719 189.261719 232.289062 191.3125 C 232.191406 193.304688 232.097656 195.296875 231.992188 197.289062 C 231.929688 198.53125 231.921875 198.558594 233.183594 198.628906 C 234.472656 198.699219 235.761719 198.707031 237.050781 198.753906 C 239.171875 198.824219 240.476562 199.839844 240.539062 201.460938 C 240.609375 203.109375 239.242188 204.308594 237.054688 204.371094 C 235.476562 204.414062 233.890625 204.335938 232.3125 204.246094 C 231.5625 204.203125 231.238281 204.476562 231.179688 205.203125 C 230.953125 207.957031 230.453125 210.671875 230.054688 213.402344 C 229.898438 214.460938 229.996094 214.535156 231.023438 214.414062 C 232.652344 214.226562 234.273438 213.96875 235.90625 213.820312 C 236.554688 213.757812 236.832031 213.507812 236.9375 212.890625 C 237.042969 212.257812 237.167969 211.613281 237.398438 211.015625 C 237.914062 209.683594 239.183594 209.011719 240.492188 209.292969 C 241.808594 209.582031 242.71875 210.707031 242.511719 212.171875 C 242.171875 214.617188 241.929688 217.054688 241.96875 219.53125 C 241.988281 220.835938 241.050781 221.851562 239.929688 222.089844 C 238.789062 222.332031 237.578125 221.855469 237.039062 220.609375 C 236.601562 219.605469 236.003906 219.546875 235.121094 219.667969 C 233.4375 219.90625 231.75 220.09375 230.0625 220.285156 C 229.363281 220.363281 228.660156 220.441406 227.960938 220.429688 C 225.503906 220.375 224.007812 218.851562 224.109375 216.386719 C 224.179688 214.691406 224.398438 212.996094 224.652344 211.316406 C 224.925781 209.515625 225.257812 207.726562 225.433594 205.433594 " fill-opacity="1" fill-rule="nonzero"/><path fill="#86cfcb" d="M 102.640625 183.425781 C 102.703125 183.019531 102.765625 182.613281 102.828125 182.207031 C 103.03125 180.898438 103.03125 180.898438 101.757812 180.378906 C 100.582031 179.898438 99.929688 178.972656 99.953125 177.832031 C 99.976562 176.664062 100.789062 175.527344 102.0625 175.347656 C 104.503906 175.007812 106.980469 174.996094 109.398438 175.542969 C 110.5 175.792969 111.195312 176.648438 111.292969 177.832031 C 111.390625 179.007812 110.898438 179.996094 109.808594 180.371094 C 108.824219 180.714844 108.65625 181.328125 108.554688 182.195312 C 108.136719 185.71875 107.183594 189.09375 105.675781 192.308594 C 104.636719 194.511719 103.363281 196.539062 101.167969 197.789062 C 100.648438 198.085938 100.476562 198.519531 100.394531 199.074219 C 99.808594 203.082031 99.457031 207.117188 99.078125 211.148438 C 99 211.960938 99.195312 212.378906 100.109375 212.613281 C 101.433594 212.949219 102.03125 213.871094 102.039062 215.015625 C 102.050781 216.210938 101.363281 217.289062 100.074219 217.636719 C 97.867188 218.238281 95.589844 218.535156 93.308594 218.585938 C 91.992188 218.617188 91.003906 217.710938 90.746094 216.570312 C 90.484375 215.402344 90.953125 214.128906 92.164062 213.652344 C 93.285156 213.207031 93.382812 212.511719 93.433594 211.5 C 93.621094 207.691406 94.074219 203.898438 94.535156 200.113281 C 94.730469 198.53125 94.796875 198.667969 93.453125 197.949219 C 90.117188 196.160156 88.109375 193.285156 86.96875 189.746094 C 86.21875 187.4375 85.972656 185.050781 85.894531 182.636719 C 85.851562 181.289062 85.839844 181.289062 84.46875 181.074219 C 82.640625 180.78125 81.621094 179.539062 81.90625 177.949219 C 82.132812 176.664062 83.179688 175.691406 84.65625 175.667969 C 87.640625 175.625 90.632812 175.640625 93.617188 175.742188 C 95.3125 175.804688 96.410156 176.898438 96.480469 178.300781 C 96.546875 179.65625 95.464844 180.84375 93.875 181.164062 C 93.816406 181.175781 93.757812 181.183594 93.699219 181.191406 C 93.019531 181.308594 92.089844 180.980469 91.707031 181.539062 C 91.257812 182.1875 91.582031 183.125 91.636719 183.933594 C 91.765625 185.875 92.117188 187.773438 92.980469 189.542969 C 93.582031 190.785156 94.40625 191.832031 95.558594 192.597656 C 96.917969 193.511719 98.046875 193.378906 99.148438 192.175781 C 99.710938 191.566406 100.105469 190.84375 100.449219 190.09375 C 101.425781 187.953125 102.277344 185.773438 102.640625 183.425781 " fill-opacity="1" fill-rule="nonzero"/><path fill="#86cfcb" d="M 129.128906 197.40625 C 129.632812 193.984375 129.535156 191.292969 128.898438 189.082031 C 128.480469 187.632812 127.78125 186.382812 126.480469 185.53125 C 125.496094 184.894531 124.523438 184.824219 123.542969 185.535156 C 122.640625 186.191406 121.703125 186.84375 121.089844 187.78125 C 118.492188 191.734375 116.511719 195.960938 115.859375 200.703125 C 115.589844 202.648438 115.777344 204.570312 116.800781 206.324219 C 117.851562 208.128906 119.328125 208.800781 121.386719 208.453125 C 123.171875 208.152344 124.496094 207.128906 125.574219 205.757812 C 127.570312 203.214844 128.796875 200.332031 129.128906 197.40625 Z M 134.636719 199.023438 C 134.191406 202.28125 132.582031 206.070312 129.921875 209.394531 C 128.035156 211.75 125.667969 213.398438 122.652344 213.996094 C 117.933594 214.929688 113.855469 212.988281 111.644531 208.71875 C 109.828125 205.207031 109.792969 201.515625 110.605469 197.75 C 111.226562 194.867188 112.289062 192.136719 113.574219 189.5 C 114.65625 187.285156 115.90625 185.164062 117.265625 183.109375 C 118.503906 181.238281 120.351562 180.109375 122.257812 179.085938 C 123.269531 178.542969 124.382812 178.523438 125.488281 178.988281 C 126.40625 179.371094 127.382812 179.621094 128.277344 180.050781 C 131.304688 181.496094 133.226562 183.90625 134.210938 187.089844 C 135.328125 190.695312 135.308594 194.363281 134.636719 199.023438 " fill-opacity="1" fill-rule="nonzero"/><path fill="#86cfcb" d="M 31.4375 204.910156 C 31.890625 201.78125 31.558594 198.84375 30.511719 195.988281 C 30.046875 194.722656 29.402344 193.53125 28.558594 192.472656 C 27.660156 191.34375 26.757812 191.246094 25.523438 192.039062 C 25.230469 192.230469 24.933594 192.53125 24.621094 192.550781 C 23.421875 192.632812 23.128906 193.523438 22.835938 194.417969 C 22.015625 196.929688 21.429688 199.496094 21.085938 202.113281 C 20.667969 205.257812 20.542969 208.410156 21.152344 211.550781 C 21.433594 213 21.835938 214.40625 22.652344 215.644531 C 23.414062 216.796875 24.128906 216.964844 25.328125 216.285156 C 26.472656 215.632812 27.308594 214.652344 28.027344 213.574219 C 29.808594 210.902344 30.824219 207.925781 31.4375 204.910156 Z M 37.101562 205.425781 C 36.269531 209.710938 34.910156 213.613281 32.480469 217.089844 C 31.328125 218.738281 29.953125 220.171875 28.199219 221.191406 C 24.285156 223.472656 20.261719 222.492188 17.839844 218.664062 C 16.335938 216.28125 15.609375 213.625 15.316406 210.863281 C 14.597656 204.210938 15.667969 197.773438 17.894531 191.507812 C 18.359375 190.191406 19.085938 189.066406 20.621094 188.808594 C 20.992188 188.75 21.238281 188.542969 21.484375 188.269531 C 24.136719 185.355469 28.257812 184.964844 31.394531 187.3125 C 32.347656 188.027344 33.074219 188.9375 33.71875 189.925781 C 36.835938 194.714844 37.742188 199.972656 37.101562 205.425781 " fill-opacity="1" fill-rule="nonzero"/><path fill="#86cfcb" d="M 251.105469 200.113281 C 252.105469 194.316406 253.242188 189.21875 253.980469 184.050781 C 254.191406 182.5625 254.199219 182.5625 252.894531 181.835938 C 251.945312 181.308594 251.40625 180.519531 251.453125 179.410156 C 251.503906 178.230469 252.140625 177.445312 253.214844 177.011719 C 253.484375 176.902344 253.78125 176.8125 254.066406 176.804688 C 256.640625 176.746094 259.214844 176.695312 261.789062 176.6875 C 262.242188 176.6875 262.726562 176.839844 263.136719 177.039062 C 264.765625 177.824219 265.070312 179.695312 263.804688 180.980469 C 263.113281 181.683594 262.226562 182.035156 261.273438 182.046875 C 260.226562 182.054688 259.886719 182.546875 259.753906 183.519531 C 258.949219 189.453125 257.730469 195.3125 256.644531 201.195312 C 255.984375 204.769531 255.25 208.328125 254.550781 211.894531 C 254.46875 212.300781 254.378906 212.699219 254.308594 213.105469 C 254.003906 214.886719 254.023438 214.910156 255.765625 214.9375 C 257.816406 214.964844 259.867188 214.953125 261.914062 215.035156 C 262.691406 215.066406 263.128906 214.863281 263.296875 214.078125 C 263.410156 213.5625 263.625 213.074219 263.796875 212.578125 C 264.460938 210.683594 265.839844 209.773438 267.332031 210.246094 C 268.867188 210.730469 269.484375 212.160156 268.992188 214.152344 C 268.839844 214.773438 268.605469 215.378906 268.421875 216 C 268.019531 217.34375 267.519531 218.660156 267.460938 220.09375 C 267.410156 221.355469 266.886719 222.402344 265.601562 222.800781 C 264.40625 223.175781 263.375 222.765625 262.683594 221.742188 C 262.207031 221.035156 261.539062 221.015625 260.839844 220.96875 C 258.152344 220.785156 255.464844 220.617188 252.777344 220.425781 C 252.195312 220.382812 251.605469 220.3125 251.046875 220.160156 C 249.1875 219.660156 248.179688 218.363281 248.234375 216.429688 C 248.273438 215.261719 248.425781 214.089844 248.640625 212.9375 C 249.480469 208.441406 250.363281 203.953125 251.105469 200.113281 " fill-opacity="1" fill-rule="nonzero"/><g clip-path="url(#66d95d5633)"><path fill="#606060" d="M 158.460938 240.6875 C 158.519531 240.695312 158.578125 240.703125 158.636719 240.714844 C 159.945312 240.953125 161.191406 241.300781 161.5625 242.828125 C 161.835938 243.964844 161.070312 245.246094 159.636719 246.078125 C 158.390625 246.804688 157.003906 247.050781 155.589844 247.113281 C 149.097656 247.414062 142.605469 247.714844 136.113281 247.984375 C 124.292969 248.480469 112.472656 248.882812 100.695312 250.074219 C 100.050781 250.136719 99.414062 250.203125 98.773438 250.035156 C 97.539062 249.71875 96.691406 248.742188 96.617188 247.5625 C 96.546875 246.335938 97.207031 245.289062 98.390625 244.800781 C 99.21875 244.457031 100.109375 244.441406 100.980469 244.351562 C 107.5625 243.664062 114.171875 243.347656 120.777344 242.925781 C 132.460938 242.175781 144.148438 241.402344 155.832031 240.625 C 156.714844 240.566406 157.589844 240.574219 158.460938 240.6875 " fill-opacity="1" fill-rule="nonzero"/></g><path fill="#ed7063" d="M 146.453125 79.375 C 146.917969 77.777344 147.371094 75.960938 147.984375 74.199219 C 148.546875 72.585938 149.875 71.792969 151.347656 71.972656 C 153.113281 72.1875 154.359375 73.734375 153.992188 75.644531 C 153.566406 77.875 152.96875 80.082031 152.273438 82.246094 C 151.722656 83.96875 150.265625 84.800781 148.792969 84.53125 C 147.332031 84.265625 146.363281 82.96875 146.316406 81.15625 C 146.300781 80.632812 146.394531 80.113281 146.453125 79.375 " fill-opacity="1" fill-rule="nonzero"/></svg>