<svg xmlns="http://www.w3.org/2000/svg" xmlns:xlink="http://www.w3.org/1999/xlink" width="410" zoomAndPan="magnify" viewBox="0 0 307.5 307.500004" height="410" preserveAspectRatio="xMidYMid meet" version="1.0"><path fill="#fefefe" d="M 49.285156 25.875 C 49.285156 25.875 40.40625 18.921875 29.832031 22.882812 C 19.382812 26.800781 16.980469 38.855469 16.605469 49.847656 C 16.167969 62.585938 15.941406 94.203125 23.265625 100.9375 C 23.265625 100.9375 24.605469 118.214844 21.457031 134.726562 C 19.480469 145.097656 12.5 153.996094 12.40625 161.789062 C 12.40625 161.789062 2.03125 164.816406 1.035156 176.25 C 0.0507812 187.558594 7.097656 191.957031 7.097656 191.957031 C 7.097656 191.957031 3.441406 249.359375 44.480469 255.160156 C 73.355469 259.242188 81.867188 244.1875 81.867188 244.1875 C 81.867188 244.1875 79.613281 251.96875 86.6875 252.46875 C 86.6875 252.46875 73.328125 281.40625 91.976562 296.492188 C 114.109375 314.390625 143.105469 302.035156 153.859375 284.019531 C 163.394531 268.054688 165.09375 242.375 165.09375 242.375 C 165.09375 242.375 168.941406 243.671875 183.386719 243.945312 C 192.023438 244.109375 197.230469 243.101562 197.230469 243.101562 C 197.230469 243.101562 188.605469 262.355469 204.988281 281.234375 C 220.140625 298.691406 260.980469 296.546875 276.339844 274.210938 C 291.484375 252.1875 282.953125 227.566406 282.953125 227.566406 C 282.953125 227.566406 307.488281 185.457031 296.816406 175.398438 C 286.691406 165.851562 278.0625 174.324219 278.0625 174.324219 L 276.027344 155.089844 C 276.027344 155.089844 287.289062 120.453125 270.828125 94.796875 C 270.828125 94.796875 282.234375 56.058594 271.484375 46.601562 C 263.960938 39.984375 257.398438 45.683594 257.398438 45.683594 C 257.398438 45.683594 262.988281 28.757812 250.34375 23.597656 C 244.859375 21.359375 236.949219 26.199219 228.367188 25.246094 C 220.769531 24.402344 212.773438 17.519531 203.691406 19.171875 C 191.109375 21.464844 189.480469 30.285156 189.480469 30.285156 C 189.480469 30.285156 179.179688 26.84375 170.34375 30.71875 C 163.207031 33.84375 151.996094 25.585938 133.675781 29.003906 C 123.714844 30.867188 119.257812 34.1875 119.257812 34.1875 C 119.257812 34.1875 113.175781 23.726562 98.4375 26.691406 C 90.824219 28.226562 72.457031 9.917969 49.285156 25.875 " fill-opacity="1" fill-rule="evenodd"/><path fill="#ecb96c" d="M 185.183594 184.234375 C 183.746094 183.75 180.347656 184.179688 180.683594 186.296875 C 181.015625 188.417969 180.960938 195.0625 181.292969 201.171875 C 181.527344 205.421875 182.167969 216.96875 183.378906 221.660156 C 184.898438 227.523438 187.984375 230.617188 192.453125 229.542969 C 196.917969 228.46875 200.96875 211.042969 202.210938 206.988281 C 202.914062 204.695312 204.539062 198.757812 205.8125 194.039062 C 205.945312 193.574219 206.398438 193.273438 206.871094 193.335938 C 207.351562 193.394531 207.71875 193.796875 207.726562 194.277344 C 207.851562 200.039062 208.011719 207.882812 208.011719 211.117188 C 208.011719 216.523438 209.269531 225.476562 214.769531 229.332031 C 220.324219 233.222656 227.242188 231.472656 230.828125 226.636719 C 235.570312 220.234375 237.050781 212.742188 237.050781 212.742188 L 233.113281 211.082031 C 233.113281 211.082031 228.867188 224.675781 224.03125 225.398438 C 221.933594 225.710938 217.980469 224.664062 217.710938 209.136719 C 217.386719 190.390625 217.664062 185.097656 213.445312 182.871094 C 210.367188 181.246094 203.792969 181.15625 201.070312 192.195312 C 197.992188 204.71875 193.570312 220.273438 193.128906 220.601562 C 192.691406 220.933594 191.386719 203.335938 190.59375 196.894531 C 189.710938 189.730469 189.140625 185.582031 185.183594 184.234375 " fill-opacity="1" fill-rule="evenodd"/><path fill="#ecb96c" d="M 35.894531 181.039062 C 35.894531 181.039062 25.9375 180.542969 23.546875 180.59375 C 21.15625 180.648438 17.890625 180.003906 17.5 181.339844 C 17.101562 182.679688 16.910156 184.371094 18.941406 184.808594 C 20.980469 185.238281 31.882812 184.792969 35.476562 185.144531 C 39.070312 185.496094 49.945312 185.769531 51.585938 185.5 C 53.230469 185.226562 53.59375 181.054688 51.320312 181.117188 C 49.050781 181.1875 35.894531 181.039062 35.894531 181.039062 " fill-opacity="1" fill-rule="evenodd"/><path fill="#ecb96c" d="M 116.242188 190.125 C 112.246094 189.980469 109.40625 191.125 108.976562 199.957031 C 108.550781 208.789062 110.535156 225.5625 121.371094 226.457031 C 135.183594 227.597656 137.179688 210.214844 137.179688 210.214844 L 136.324219 202.382812 C 136.324219 202.382812 132.050781 221.328125 124.789062 220.472656 C 119.976562 219.90625 119.804688 205.515625 120.089844 201.667969 C 120.375 197.820312 120.089844 190.269531 116.242188 190.125 " fill-opacity="1" fill-rule="evenodd"/><path fill="#ecb96c" d="M 163.941406 188.425781 C 159.949219 188.273438 157.105469 189.421875 156.679688 198.253906 C 156.25 207.085938 158.238281 223.859375 169.070312 224.75 C 182.886719 225.894531 184.882812 208.507812 184.882812 208.507812 L 184.027344 200.675781 C 184.027344 200.675781 179.75 219.621094 172.488281 218.769531 C 167.679688 218.203125 167.503906 203.808594 167.789062 199.960938 C 168.074219 196.117188 167.789062 188.566406 163.941406 188.425781 " fill-opacity="1" fill-rule="evenodd"/><path fill="#ecb96c" d="M 163.769531 172.191406 C 166.855469 172.191406 169.359375 174.699219 169.359375 177.785156 C 169.359375 180.871094 166.855469 183.378906 163.769531 183.378906 C 160.683594 183.378906 158.175781 180.871094 158.175781 177.785156 C 158.175781 174.699219 160.683594 172.191406 163.769531 172.191406 " fill-opacity="1" fill-rule="evenodd"/><path fill="#ecb96c" d="M 256.320312 182.738281 C 256.320312 182.738281 251.605469 170.820312 241.296875 172.542969 C 230.988281 174.269531 226.714844 185.699219 227.210938 196.207031 C 227.703125 206.710938 230.808594 217 243.171875 216.425781 C 253.828125 215.929688 256.953125 202.367188 256.953125 202.367188 L 256.332031 192.796875 C 256.332031 192.796875 248.269531 211.308594 241.730469 210.128906 C 235.195312 208.945312 235.726562 196.550781 236.019531 191.28125 C 236.316406 186.007812 239.136719 177.566406 245.199219 178.453125 C 251.261719 179.34375 253.226562 192.277344 253.226562 192.277344 L 256.320312 182.738281 " fill-opacity="1" fill-rule="evenodd"/><path fill="#ecb96c" d="M 77.480469 211.972656 C 81.957031 209.734375 86.460938 205.976562 86.460938 205.976562 C 86.460938 205.976562 82.585938 237.792969 101.789062 239.339844 C 115.105469 240.414062 118.46875 221.980469 118.46875 221.980469 L 116.664062 217.019531 C 116.664062 217.019531 111.253906 235.507812 103.816406 234.832031 C 96.382812 234.15625 95.703125 214.089844 96.601562 205.75 C 97.507812 197.40625 99.984375 188.167969 93.445312 187.492188 C 86.914062 186.8125 85.109375 197.1875 79.925781 202.371094 C 78.820312 203.476562 77.785156 204.351562 76.804688 205.035156 C 76.277344 202.777344 75.4375 200.917969 74.292969 199.664062 C 67.078125 191.777344 58.742188 198.539062 59.871094 205.976562 C 60.871094 212.59375 67.582031 214.394531 72.703125 213.601562 C 72.285156 219.851562 68.542969 234.230469 56.257812 235.238281 C 41.769531 236.425781 41.003906 214.195312 41.5 194.007812 C 41.921875 177.105469 41.792969 177.171875 42.382812 167.25 C 42.679688 162.3125 43.199219 152.699219 35.816406 153.167969 C 30.863281 153.484375 30.363281 157.6875 29.726562 170.300781 C 28.988281 185.117188 28.816406 205.179688 30.296875 218.007812 C 32.03125 233.054688 40.636719 245.414062 58.242188 242.578125 C 71.070312 240.515625 77.324219 224.273438 77.480469 211.972656 Z M 72.382812 207.050781 C 71.859375 203.695312 70.769531 201.132812 69.082031 201.132812 C 66.507812 201.132812 65.519531 205.882812 68.289062 206.773438 C 69.472656 207.152344 70.824219 207.351562 72.382812 207.050781 " fill-opacity="1" fill-rule="evenodd"/><path fill="#ecb96c" d="M 252.632812 224.199219 C 237.128906 233.988281 220.007812 240.855469 218.535156 255.746094 C 217.085938 270.378906 230.503906 277.152344 244.464844 272.007812 C 258.421875 266.863281 261.914062 242.613281 262.832031 231.59375 C 262.996094 229.609375 263.136719 226.910156 263.257812 223.78125 C 265.875 221.945312 268.242188 220.070312 270.179688 218.179688 C 277.710938 210.828125 281.199219 200.910156 281.199219 200.910156 C 281.199219 200.910156 282.628906 198.390625 281.695312 194.8125 C 280.648438 190.820312 278.84375 191.972656 278.441406 192.828125 C 278.121094 193.511719 278.035156 193.847656 277.214844 195.539062 C 275.179688 199.742188 270.621094 208.117188 263.503906 215.476562 C 263.8125 201.882812 263.8125 185.667969 263.566406 182.445312 C 263.195312 177.667969 261.996094 171.40625 257.546875 171.691406 C 253.628906 171.941406 252.078125 175.613281 252.222656 183.605469 C 252.359375 191.597656 252.078125 211.636719 252.640625 218.367188 C 252.757812 219.761719 252.75 221.78125 252.632812 224.199219 Z M 252.148438 230.691406 C 247.5 233.332031 242.851562 235.757812 238.953125 237.839844 C 229.328125 242.976562 219.242188 258.078125 227.382812 265.214844 C 233.226562 270.332031 243.546875 267.785156 247.21875 257.125 C 249.519531 250.449219 251.289062 239.546875 252.148438 230.691406 " fill-opacity="1" fill-rule="evenodd"/><path fill="#ecb96c" d="M 134.039062 239.757812 C 118.566406 249.558594 101.867188 256.527344 100.890625 271.035156 C 99.898438 285.703125 111.910156 292.714844 125.871094 287.566406 C 139.828125 282.425781 143.316406 258.171875 144.234375 247.152344 C 144.398438 245.171875 144.542969 242.476562 144.660156 239.355469 C 147.234375 237.558594 149.574219 235.699219 151.578125 233.742188 C 159.113281 226.394531 162.601562 216.46875 162.601562 216.46875 L 159.847656 208.386719 C 159.847656 208.386719 154.894531 220.710938 144.90625 231.035156 C 145.214844 217.441406 145.214844 201.226562 144.96875 198.007812 C 144.601562 193.226562 143.398438 186.96875 138.949219 187.25 C 135.03125 187.5 133.484375 191.175781 133.625 199.164062 C 133.765625 207.15625 133.484375 227.203125 134.046875 233.929688 C 134.160156 235.320312 134.152344 237.339844 134.039062 239.757812 Z M 133.5625 246.167969 C 129.25 248.585938 124.742188 250.964844 120.359375 253.398438 C 110.867188 258.664062 100.507812 271.445312 108.789062 280.773438 C 115.0625 287.839844 124.949219 283.34375 128.621094 272.6875 C 130.933594 265.984375 132.707031 255.039062 133.5625 246.167969 " fill-opacity="1" fill-rule="evenodd"/><path fill="#f88a85" d="M 117.691406 118.171875 C 115.261719 117.519531 113.632812 120.480469 113.730469 124.914062 C 113.828125 129.347656 113.539062 139.140625 114.117188 143.851562 C 114.695312 148.566406 114.40625 163.898438 129.28125 163.898438 C 144.152344 163.902344 145.792969 149.027344 145.792969 149.027344 L 145.019531 143.671875 C 145.019531 143.671875 141.640625 161.128906 131.5 161.039062 C 121.363281 160.941406 120.488281 145.148438 120.589844 140.988281 C 120.683594 136.832031 120.007812 122.507812 120.007812 120.839844 C 120.007812 119.179688 118.753906 118.453125 117.691406 118.171875 " fill-opacity="1" fill-rule="evenodd"/><path fill="#f88a85" d="M 117.675781 126.085938 C 117.675781 126.085938 110.597656 126.488281 108.910156 126.6875 C 107.226562 126.890625 104.867188 126.726562 104.695312 127.574219 C 104.53125 128.421875 104.53125 129.46875 106.003906 129.589844 C 107.480469 129.710938 115.144531 128.664062 117.714844 128.621094 C 120.28125 128.582031 127.996094 127.976562 129.128906 127.695312 C 130.265625 127.414062 130.183594 124.835938 128.582031 125.039062 C 126.984375 125.238281 117.675781 126.085938 117.675781 126.085938 " fill-opacity="1" fill-rule="evenodd"/><path fill="#f88a85" d="M 146.875 127.1875 C 145.21875 129.402344 143.757812 132.59375 143.265625 137.328125 C 142.59375 143.839844 143.160156 155.261719 153.214844 156.253906 C 159.1875 156.847656 162.75 151.472656 164.523438 145.355469 C 165.753906 145.652344 167.027344 145.851562 168.339844 145.949219 C 181.996094 146.941406 188.542969 138.316406 188.542969 138.316406 L 188.332031 134.949219 C 188.332031 134.949219 181.699219 144.652344 168.753906 143.96875 C 167.496094 143.902344 166.261719 143.617188 165.074219 143.167969 C 165.839844 139.660156 166.058594 136.113281 165.851562 133.460938 C 165.230469 125.53125 163.363281 114.628906 155.492188 115.722656 C 149.015625 116.617188 146.179688 121.382812 146.875 127.1875 Z M 151.484375 137.300781 C 150.824219 143.613281 151.933594 151.359375 155.390625 152.292969 C 158.304688 153.078125 160.628906 149.574219 162.046875 144.621094 C 157.789062 143.101562 154.136719 140.464844 151.484375 137.300781 Z M 162.683594 142.003906 C 162.921875 140.847656 163.117188 139.640625 163.261719 138.417969 C 164.191406 130.589844 161.8125 119.886719 158.496094 119.191406 C 156.644531 118.800781 155.175781 119.625 154.226562 121.445312 C 155.703125 120.847656 157.011719 120.765625 157.964844 121.4375 C 158.871094 122.070312 159.21875 123.058594 157.664062 124.242188 C 156.519531 125.125 154.75 126.597656 153.320312 129.941406 C 154.382812 134.109375 158.027344 139.242188 162.683594 142.003906 " fill-opacity="1" fill-rule="evenodd"/><path fill="#f88a85" d="M 212.21875 132.773438 C 208.308594 132.542969 204.203125 133.4375 203.851562 138.65625 C 203.523438 143.445312 207.242188 144.589844 209.664062 144.589844 C 211.65625 144.589844 215.804688 142.886719 217.816406 137.023438 C 219.621094 137.839844 221.492188 138.574219 223.617188 138.65625 C 228.367188 138.84375 230.789062 134.484375 228.949219 132.632812 C 227.105469 130.777344 224.296875 134.671875 222.9375 135.320312 C 222.257812 135.648438 220.542969 135.0625 218.511719 134.371094 C 218.613281 133.8125 218.703125 133.226562 218.773438 132.609375 C 219.839844 123.15625 216.933594 116.203125 209.566406 116.851562 C 202.203125 117.5 199.441406 127.363281 197.363281 138.871094 C 195.957031 146.679688 195.136719 152.664062 195.136719 152.664062 C 195.136719 152.664062 193.671875 146.054688 193.578125 137.335938 C 193.480469 128.621094 194.449219 125.472656 194.546875 122.875 C 194.644531 120.28125 193.773438 119.054688 191.296875 118.785156 C 188.875 118.523438 186.597656 120.0625 186.484375 125.839844 C 186.367188 131.609375 186.117188 136.0625 187.082031 144.035156 C 188.054688 152.007812 189.796875 161.925781 194.644531 161.460938 C 199.488281 161 197.929688 154.929688 199.84375 143.945312 C 201.730469 133.089844 204.625 119.746094 209.179688 119.746094 C 212.640625 119.746094 212.574219 127.78125 212.21875 132.773438 Z M 212.042969 134.800781 C 211.738281 134.742188 211.433594 134.699219 211.117188 134.671875 C 206.851562 134.300781 207.4375 141.253906 208.984375 141.4375 C 210.535156 141.625 211.601562 138.84375 211.894531 136.246094 C 211.929688 135.925781 211.984375 135.425781 212.042969 134.800781 " fill-opacity="1" fill-rule="evenodd"/><path fill="#f88a85" d="M 85.078125 153.28125 C 83.695312 153.898438 82.464844 154.488281 81.417969 155.085938 C 76.566406 157.84375 73.5 160.824219 74.097656 167.136719 C 74.695312 173.449219 84.75 177.523438 91.949219 170.632812 C 95.050781 167.667969 96.292969 162.726562 95.71875 158.847656 C 95.398438 156.671875 94.878906 154.839844 94.136719 153.195312 C 95.328125 152.726562 96.464844 152.234375 97.5 151.699219 C 108.964844 145.800781 113.277344 141.894531 115.675781 137.414062 L 115.492188 132.128906 C 115.492188 132.128906 111.535156 139.359375 103.257812 144.527344 C 99.589844 146.8125 95.832031 148.609375 92.359375 150.140625 C 90.914062 148.128906 89.011719 146.28125 86.566406 144.183594 C 83.640625 141.671875 71.28125 134.058594 72.898438 127.132812 C 73.867188 122.984375 77.683594 122.011719 80.347656 123.074219 C 83.21875 124.21875 84.234375 125.425781 84.652344 127.226562 C 84.945312 128.503906 83.097656 131.097656 83.933594 133.621094 C 84.777344 136.148438 88.617188 135.457031 88.855469 131.4375 C 89.097656 127.425781 85.859375 121.457031 80.21875 120.304688 C 74.578125 119.160156 66.058594 120.996094 65.21875 127.195312 C 64.378906 133.390625 69.175781 136.605469 75.898438 142.800781 C 79.554688 146.175781 82.890625 149.511719 85.078125 153.28125 Z M 86.449219 156.105469 C 81.617188 158.074219 77.539062 160.5 77.335938 164.839844 C 76.9375 173.441406 87.054688 172.761719 87.65625 163.921875 C 87.851562 161.058594 87.386719 158.484375 86.449219 156.105469 " fill-opacity="1" fill-rule="evenodd"/><path fill="#80a2ab" d="M 169.660156 63.269531 C 169.734375 62.65625 169.820312 62.050781 169.914062 61.441406 C 173.160156 40.523438 188.390625 42.257812 191.929688 46.644531 C 195.859375 51.515625 193.65625 63.792969 180.820312 67.332031 C 180.949219 77.46875 182.773438 94.417969 191.960938 94.535156 C 203.679688 94.679688 210.09375 73.226562 211.808594 60.46875 C 210.96875 60.160156 210.089844 59.804688 209.179688 59.402344 C 197.21875 54.050781 195.003906 34.339844 207.835938 33.671875 C 218.234375 33.128906 219.101562 45.261719 218.007812 56.40625 C 220.234375 56.230469 222.261719 54.964844 223.730469 53.167969 C 226.820312 49.394531 228.019531 47.554688 230.960938 46.230469 C 233.902344 44.902344 238.613281 43.679688 239.722656 47.976562 C 240.832031 52.269531 234.898438 81.113281 239.632812 84.121094 C 244.363281 87.132812 246.378906 69.242188 246.378906 69.242188 C 246.378906 69.242188 251.046875 68.703125 255.292969 63.769531 C 259.542969 58.835938 263.3125 66.558594 259.296875 69.871094 C 255.28125 73.179688 250.964844 72.378906 250.964844 72.378906 C 250.964844 72.378906 248.828125 90.695312 240.28125 91.527344 C 231.472656 92.386719 225.082031 85.714844 227.230469 60.875 C 227.230469 60.875 223.894531 62.996094 217.316406 61.929688 C 217.136719 63.128906 216.953125 64.285156 216.769531 65.375 C 214.492188 78.835938 209.269531 99.375 191.96875 99.035156 C 176.460938 98.730469 168.5625 84.707031 169.304688 67.527344 C 162.761719 66.21875 159.84375 62.222656 159.84375 62.222656 C 159.84375 62.222656 159.09375 71.523438 157.5625 79.105469 C 156.03125 86.683594 151.199219 101.9375 142.109375 102.585938 C 133.375 103.199219 128.101562 92.957031 125.601562 84.964844 C 121.863281 90.042969 115.460938 96.332031 106.515625 96.566406 C 98.941406 96.773438 92.421875 93.222656 88.304688 87.035156 C 87.726562 90.695312 86.570312 96.160156 84.292969 102.625 C 80.878906 112.320312 70.640625 111.96875 66.640625 105.082031 C 62.351562 97.707031 63.6875 80.386719 64.0625 74.050781 C 64.4375 67.71875 65.183594 46.355469 65.183594 46.355469 C 65.183594 46.355469 59.902344 64.90625 58.164062 69.574219 C 56.429688 74.238281 52.15625 93.007812 44.542969 94.570312 C 39.257812 95.65625 35.140625 91.679688 34.453125 84.320312 C 33.921875 78.648438 33.410156 65.535156 33.429688 60.535156 C 33.464844 53.347656 33.992188 45.558594 33.746094 43.050781 C 33.5 40.546875 37.511719 40.277344 39.164062 40.945312 C 43.714844 42.800781 44.09375 47.699219 44.628906 56.164062 C 45.113281 63.773438 43.917969 84.855469 45.730469 84.976562 C 48 85.125 55.921875 58.261719 59.40625 45.363281 C 62.890625 32.472656 69.328125 33.066406 72.996094 34.882812 C 77.996094 37.363281 76.746094 50.414062 75.578125 72.398438 C 74.402344 94.382812 74.429688 104.894531 76.910156 104.652344 C 78.859375 104.460938 83.609375 88.332031 85.535156 81.492188 C 84.195312 77.785156 83.53125 73.507812 83.699219 68.804688 C 84.308594 51.972656 97.097656 44.039062 105.605469 47.136719 C 114.109375 50.234375 112.667969 60.863281 109.234375 66.644531 C 105.871094 72.3125 99.652344 74.871094 94.183594 70.644531 C 94.183594 70.84375 94.183594 71.046875 94.1875 71.238281 C 94.40625 80.722656 97.46875 90.378906 105.605469 90.988281 C 111.695312 91.445312 119.332031 83.679688 123.589844 76.308594 C 122.308594 68.925781 121.648438 60.324219 121.847656 54.503906 C 122.125 46.453125 126.417969 45.648438 128.929688 46.167969 C 135.246094 47.472656 134.738281 61.03125 135.324219 67.753906 C 135.910156 74.476562 137.789062 94.261719 141.691406 94.789062 C 144.683594 95.191406 147.84375 86.6875 149.671875 76.179688 C 151.757812 64.199219 151.386719 50.605469 156.011719 50.484375 C 160.941406 50.359375 159.359375 53.734375 162.589844 58.941406 C 164.441406 61.917969 167.4375 62.9375 169.660156 63.269531 Z M 94.5625 66.414062 C 95.945312 57.992188 100.871094 49.460938 104.386719 52.386719 C 108.585938 55.878906 102.492188 68.5625 97.242188 67.859375 C 96.011719 67.699219 95.15625 67.117188 94.5625 66.414062 Z M 93.296875 63.660156 C 93.273438 63.542969 93.257812 63.441406 93.25 63.375 C 93.238281 63.308594 93.238281 63.273438 93.238281 63.273438 C 93.273438 63.273438 93.292969 63.417969 93.296875 63.660156 Z M 180.894531 62.519531 C 180.921875 61.917969 180.953125 61.40625 180.988281 61.003906 C 181.46875 55.164062 185.195312 49.796875 187.203125 50.457031 C 189.207031 51.125 189.367188 53.042969 187.382812 56.609375 C 186.085938 58.941406 182.925781 61.222656 180.894531 62.519531 Z M 212.476562 54.429688 C 211.78125 53.847656 211.089844 53.121094 210.421875 52.242188 C 205.738281 46.097656 207.34375 40.253906 209.625 40.324219 C 211.746094 40.390625 213.34375 43.867188 212.476562 54.429688 " fill-opacity="1" fill-rule="evenodd"/><path fill="#80a2ab" d="M 239.355469 115.082031 C 238.832031 114.96875 238.265625 115.0625 237.796875 115.398438 C 236.921875 116.023438 236.714844 117.238281 237.339844 118.117188 C 238.003906 119.046875 238.996094 119.386719 240.242188 118.980469 C 240.660156 118.847656 241.144531 118.589844 241.613281 118.285156 L 242.484375 117.730469 C 244.570312 117.074219 249.050781 115.460938 250.519531 113.984375 C 251.277344 113.226562 251.277344 111.988281 250.519531 111.226562 C 249.757812 110.46875 248.523438 110.46875 247.761719 111.226562 C 247.351562 111.640625 246.578125 112.011719 245.734375 112.390625 C 244.160156 113.09375 242.316406 113.699219 241.261719 114.03125 C 240.914062 114.140625 240.453125 114.386719 239.96875 114.703125 C 239.804688 114.808594 239.554688 114.964844 239.355469 115.082031 " fill-opacity="1" fill-rule="evenodd"/><path fill="#80a2ab" d="M 55.253906 114.773438 L 56.125 115.324219 C 56.59375 115.625 57.078125 115.882812 57.496094 116.019531 C 58.746094 116.425781 59.734375 116.089844 60.398438 115.15625 C 61.023438 114.28125 60.820312 113.058594 59.941406 112.4375 C 59.472656 112.105469 58.90625 112.003906 58.386719 112.125 C 58.1875 112.003906 57.9375 111.851562 57.769531 111.742188 C 57.285156 111.429688 56.824219 111.179688 56.476562 111.074219 C 55.421875 110.738281 53.582031 110.136719 52.003906 109.429688 C 51.160156 109.054688 50.386719 108.675781 49.976562 108.269531 C 49.214844 107.507812 47.984375 107.507812 47.222656 108.269531 C 46.460938 109.03125 46.460938 110.261719 47.222656 111.023438 C 48.691406 112.496094 53.167969 114.113281 55.253906 114.773438 " fill-opacity="1" fill-rule="evenodd"/><path fill="#80a2ab" d="M 256.335938 127.496094 C 255.949219 127.546875 253.933594 127.804688 253.152344 127.804688 C 250.699219 127.804688 248.371094 128.171875 245.859375 128.171875 C 244.78125 128.171875 243.910156 129.046875 243.910156 130.121094 C 243.910156 131.195312 244.78125 132.070312 245.859375 132.070312 C 248.371094 132.070312 250.699219 131.703125 253.152344 131.703125 C 254.222656 131.703125 256.832031 131.378906 257.160156 131.316406 C 258.398438 131.070312 258.636719 130.085938 258.671875 129.984375 C 258.808594 129.550781 258.792969 129.132812 258.648438 128.734375 C 258.53125 128.402344 258.308594 128.023438 257.835938 127.734375 C 257.734375 127.671875 257.417969 127.441406 256.800781 127.441406 C 256.644531 127.441406 256.488281 127.460938 256.335938 127.496094 Z M 255.199219 130.5 C 255.378906 130.796875 255.816406 131.339844 256.800781 131.339844 C 256.136719 131.339844 255.546875 131.007812 255.199219 130.5 " fill-opacity="1" fill-rule="evenodd"/><path fill="#80a2ab" d="M 41.402344 124.539062 C 41.25 124.5 41.097656 124.480469 40.9375 124.480469 C 39.675781 124.480469 39.292969 125.355469 39.214844 125.496094 C 38.949219 125.980469 38.898438 126.488281 39.066406 127.019531 C 39.101562 127.128906 39.339844 128.105469 40.578125 128.351562 C 40.90625 128.417969 43.515625 128.746094 44.585938 128.746094 C 47.039062 128.746094 49.367188 129.109375 51.882812 129.109375 C 52.957031 129.109375 53.832031 128.238281 53.832031 127.160156 C 53.832031 126.085938 52.957031 125.210938 51.882812 125.210938 C 49.367188 125.210938 47.039062 124.847656 44.585938 124.847656 C 43.804688 124.847656 41.789062 124.589844 41.402344 124.539062 Z M 41.835938 128.160156 C 41.566406 128.300781 41.261719 128.378906 40.9375 128.378906 C 41.398438 128.378906 41.683594 128.25 41.835938 128.160156 " fill-opacity="1" fill-rule="evenodd"/><path fill="#80a2ab" d="M 245.859375 144.476562 C 247.410156 144.476562 248.949219 144.910156 250.488281 145.324219 C 252.359375 145.824219 254.222656 146.300781 256.070312 146.300781 C 257.144531 146.300781 258.019531 145.425781 258.019531 144.351562 C 258.019531 143.273438 257.144531 142.402344 256.070312 142.402344 C 254.558594 142.402344 253.035156 141.96875 251.496094 141.554688 C 249.628906 141.058594 247.746094 140.578125 245.859375 140.578125 C 244.78125 140.578125 243.910156 141.449219 243.910156 142.527344 C 243.910156 143.601562 244.78125 144.476562 245.859375 144.476562 " fill-opacity="1" fill-rule="evenodd"/><path fill="#80a2ab" d="M 51.882812 137.617188 C 49.992188 137.617188 48.109375 138.09375 46.242188 138.59375 C 44.707031 139.007812 43.1875 139.441406 41.667969 139.441406 C 40.59375 139.441406 39.71875 140.316406 39.71875 141.390625 C 39.71875 142.464844 40.59375 143.339844 41.667969 143.339844 C 43.515625 143.339844 45.378906 142.859375 47.25 142.363281 C 48.789062 141.949219 50.332031 141.515625 51.882812 141.515625 C 52.957031 141.515625 53.832031 140.640625 53.832031 139.566406 C 53.832031 138.492188 52.957031 137.617188 51.882812 137.617188 " fill-opacity="1" fill-rule="evenodd"/></svg>