<svg xmlns="http://www.w3.org/2000/svg" xmlns:xlink="http://www.w3.org/1999/xlink" width="410" zoomAndPan="magnify" viewBox="0 0 307.5 307.500004" height="410" preserveAspectRatio="xMidYMid meet" version="1.0"><defs><clipPath id="cb3de5d8f4"><path d="M 12.175781 82.089844 L 295.675781 82.089844 L 295.675781 144 L 12.175781 144 Z M 12.175781 82.089844 " clip-rule="nonzero"/></clipPath><clipPath id="969f804d91"><path d="M 13 82.089844 L 295.675781 82.089844 L 295.675781 140 L 13 140 Z M 13 82.089844 " clip-rule="nonzero"/></clipPath><clipPath id="19c13dbe16"><path d="M 36 132 L 272 132 L 272 212.589844 L 36 212.589844 Z M 36 132 " clip-rule="nonzero"/></clipPath></defs><g clip-path="url(#cb3de5d8f4)"><path fill="#ff6f3b" d="M 282.953125 119.375 C 282.671875 119.238281 282.421875 118.984375 282.167969 118.511719 C 281.777344 117.867188 281.578125 116.890625 281.523438 115.601562 C 281.441406 112.667969 281.746094 109.875 282.449219 107.191406 C 283.066406 106.015625 283.679688 105.429688 284.324219 105.429688 C 285.027344 105.402344 286.007812 106.015625 287.265625 107.246094 L 287.296875 111.96875 C 287.128906 113.199219 286.902344 114.34375 286.59375 115.433594 C 286.0625 116.636719 285.558594 117.53125 285.027344 118.175781 C 284.324219 119.011719 283.792969 119.433594 283.34375 119.460938 C 283.203125 119.488281 283.066406 119.460938 282.953125 119.375 Z M 283.035156 132.511719 C 281.832031 131.925781 280.710938 130.808594 279.675781 129.101562 C 280.066406 129.132812 280.457031 129.160156 280.851562 129.132812 C 283.203125 129.046875 285.390625 127.007812 287.464844 123.011719 C 287.546875 126.449219 287.351562 129.355469 286.847656 131.84375 C 286.34375 132.570312 285.753906 132.933594 285.082031 132.960938 C 284.382812 132.960938 283.679688 132.820312 283.035156 132.511719 Z M 277.796875 141.039062 C 279.898438 142.769531 282.054688 143.609375 284.296875 143.527344 C 286.566406 143.441406 288.304688 142.632812 289.621094 141.09375 C 290.546875 140.003906 291.300781 138.660156 291.890625 137.070312 L 293.320312 133.128906 C 293.542969 132.539062 293.710938 131.925781 293.878906 131.285156 C 293.90625 131.199219 293.90625 131.117188 293.9375 131.058594 C 294.550781 128.515625 294.972656 125.945312 295.195312 123.289062 C 295.421875 120.632812 295.421875 116.554688 295.226562 110.992188 C 295.027344 105.402344 295.167969 101.320312 295.617188 98.582031 L 291.246094 98.105469 C 290.320312 97.296875 289.367188 96.625 288.386719 96.148438 C 286.960938 95.480469 285.503906 95.144531 283.933594 95.199219 C 282.421875 95.253906 280.90625 96.261719 279.339844 98.21875 C 278.019531 99.867188 276.929688 101.964844 276.003906 104.449219 L 274.574219 108.390625 C 274.378906 108.894531 274.210938 109.425781 274.042969 109.984375 C 273.035156 113.199219 272.585938 116.496094 272.699219 119.710938 C 272.808594 122.925781 273.621094 125.359375 275.105469 126.894531 C 276.003906 127.816406 277.039062 128.460938 278.246094 128.796875 L 274.125 130.753906 L 272.699219 134.691406 C 274.015625 137.179688 275.722656 139.304688 277.796875 141.039062 Z M 247.3125 114.792969 C 247.453125 119.207031 247.84375 124.324219 248.515625 130.136719 L 255.800781 130.585938 L 257.230469 126.644531 C 256.8125 122.253906 256.53125 119.179688 256.390625 117.503906 C 256.53125 114.316406 257.0625 111.019531 257.988281 107.664062 C 258.015625 107.554688 258.042969 107.46875 258.070312 107.359375 C 258.378906 106.828125 258.660156 106.546875 258.914062 106.546875 C 260.285156 106.492188 261.070312 108.894531 261.238281 113.703125 C 261.40625 118.539062 261.351562 123.289062 261.042969 128.039062 L 268.328125 128.488281 L 269.753906 124.546875 C 270.121094 119.179688 270.203125 114.066406 270.035156 109.285156 C 269.8125 102.382812 268.074219 98.132812 264.851562 96.597656 C 263.84375 96.121094 262.667969 95.898438 261.351562 95.925781 C 258.914062 96.011719 256.585938 98.496094 254.375 103.304688 C 253.757812 100.957031 253.394531 99.644531 253.308594 99.308594 L 248.714844 98.917969 L 247.285156 102.859375 C 247.144531 106.40625 247.144531 110.375 247.3125 114.792969 Z M 219.546875 122.449219 C 218.144531 121.78125 217.417969 119.570312 217.277344 115.769531 C 217.164062 113.253906 217.386719 110.601562 217.976562 107.859375 C 218.339844 107.414062 218.734375 107.191406 219.152344 107.191406 C 220.890625 107.132812 221.84375 109.761719 222.039062 115.042969 C 222.125 117.363281 221.925781 119.710938 221.453125 122.253906 C 221.199219 122.535156 220.945312 122.675781 220.640625 122.675781 C 220.21875 122.703125 219.882812 122.617188 219.546875 122.449219 Z M 233.613281 100.648438 L 234.648438 130.390625 L 241.765625 130.835938 L 243.195312 126.894531 L 242.15625 97.15625 L 240.390625 97.042969 L 241.765625 93.328125 L 242.15625 86.394531 L 235.179688 85.808594 L 233.75 89.75 L 233.332031 96.625 L 235.011719 96.792969 Z M 193.433594 120.828125 C 192.535156 120.382812 192.03125 119.039062 191.949219 116.691406 C 191.835938 114.011719 192.058594 111.4375 192.621094 108.949219 C 192.984375 108.417969 193.40625 108.140625 193.851562 108.140625 C 194.863281 108.113281 195.898438 108.449219 196.933594 109.203125 L 197.101562 115.210938 C 196.851562 116.21875 196.597656 117.167969 196.347656 118.0625 C 196.316406 118.117188 196.289062 118.148438 196.289062 118.203125 C 195.421875 120.046875 194.75 120.96875 194.1875 120.996094 C 193.910156 120.996094 193.65625 120.941406 193.433594 120.828125 Z M 208.535156 119.433594 C 208.871094 128.320312 212.457031 132.652344 219.351562 132.34375 C 222.65625 132.234375 225.175781 130.390625 226.914062 126.839844 C 227.222656 126.167969 227.53125 125.496094 227.785156 124.796875 L 229.210938 120.859375 C 230.332031 117.8125 230.835938 114.484375 230.699219 110.824219 C 230.585938 107.554688 229.773438 104.5625 228.316406 101.851562 C 227.585938 100.480469 226.496094 99.390625 225.148438 98.609375 C 224.980469 98.527344 224.839844 98.441406 224.671875 98.359375 C 223.414062 97.742188 221.957031 97.464844 220.300781 97.519531 C 218.425781 97.601562 216.800781 98.21875 215.316406 99.476562 C 213.832031 100.734375 212.738281 102.296875 211.980469 104.171875 C 211.898438 104.367188 211.839844 104.5625 211.757812 104.730469 L 210.300781 108.644531 C 208.984375 112.191406 208.394531 115.796875 208.535156 119.433594 Z M 185.363281 128.851562 C 186.679688 130.808594 188.921875 131.730469 192.117188 131.617188 C 194.21875 131.535156 196.066406 129.691406 197.71875 126.085938 C 197.914062 128.320312 198.113281 130.25 198.308594 131.898438 L 203.855469 132.207031 L 205.285156 128.265625 C 205.507812 116.105469 205.507812 106.15625 205.226562 98.441406 C 204.949219 90.726562 204.722656 85.390625 204.527344 82.480469 L 197.242188 82.117188 L 195.8125 86.058594 C 196.066406 89.691406 196.234375 92.933594 196.347656 95.785156 L 196.429688 98.945312 C 194.890625 98.441406 193.433594 98.191406 192.003906 98.191406 C 189.929688 98.273438 188.164062 100.3125 186.707031 104.339844 L 185.277344 108.28125 C 185.25 108.335938 185.25 108.363281 185.222656 108.417969 C 183.738281 112.527344 183.039062 116.46875 183.175781 120.269531 C 183.316406 124.070312 184.046875 126.894531 185.363281 128.851562 Z M 154.121094 114.738281 C 154.148438 113.226562 154.289062 111.828125 154.542969 110.542969 C 155.019531 109.84375 155.523438 109.480469 156.082031 109.453125 C 157.09375 109.425781 157.738281 110.824219 158.101562 113.703125 C 156.925781 114.039062 155.578125 114.375 154.121094 114.738281 Z M 156.28125 124.492188 C 155.859375 124.296875 155.46875 123.847656 155.128906 123.207031 C 155.074219 123.066406 155.019531 122.925781 154.933594 122.785156 C 157.035156 122.394531 158.941406 121.976562 160.679688 121.554688 C 159.363281 123.539062 158.074219 124.546875 156.8125 124.601562 C 156.644531 124.601562 156.476562 124.574219 156.28125 124.492188 Z M 148.238281 131.253906 C 150.144531 133.40625 152.328125 134.414062 154.960938 134.328125 C 156.753906 134.246094 158.324219 133.769531 159.753906 132.847656 C 161.15625 131.898438 162.21875 130.949219 162.890625 129.96875 C 163.59375 129.019531 164.292969 127.816406 165.050781 126.449219 L 166.476562 122.507812 L 163.425781 120.828125 C 164.125 120.632812 164.824219 120.4375 165.441406 120.242188 L 166.871094 116.300781 C 166.816406 114.707031 166.675781 112.917969 166.421875 110.933594 C 166.253906 109.453125 166.058594 108.308594 165.832031 107.554688 C 165.636719 106.769531 165.273438 105.765625 164.769531 104.535156 C 164.265625 103.277344 163.730469 102.382812 163.089844 101.738281 C 162.472656 101.125 161.632812 100.59375 160.621094 100.089844 C 159.585938 99.617188 158.269531 99.390625 156.644531 99.449219 C 154.960938 99.503906 153.421875 100.203125 151.910156 101.460938 C 150.394531 102.71875 149.273438 104.339844 148.519531 106.296875 C 148.519531 106.324219 148.488281 106.351562 148.488281 106.378906 L 147.089844 110.238281 L 147.0625 110.320312 C 145.6875 114.066406 145.101562 118.089844 145.238281 122.367188 C 145.351562 126.167969 146.359375 129.132812 148.238281 131.253906 Z M 109.460938 115.964844 L 110.582031 112.917969 C 110.609375 112.835938 110.609375 112.753906 110.636719 112.667969 C 111.195312 111.800781 111.785156 111.355469 112.484375 111.328125 C 113.691406 111.269531 114.449219 112.191406 114.8125 114.066406 C 112.851562 114.34375 111.085938 114.988281 109.460938 115.964844 Z M 111.730469 125.46875 C 111.449219 125.328125 111.226562 125.132812 111.085938 124.910156 C 112.039062 124.238281 113.382812 123.820312 115.089844 123.597656 L 115.121094 125.414062 C 114.476562 125.609375 113.832031 125.722656 113.214844 125.722656 C 112.597656 125.722656 112.121094 125.664062 111.730469 125.46875 Z M 128.878906 124.660156 C 128.90625 125.300781 128.960938 128.628906 129.046875 134.722656 L 136.273438 135.113281 L 137.703125 131.171875 C 137.757812 127.875 137.730469 124.882812 137.648438 122.226562 C 137.5625 119.542969 137.421875 116.777344 137.226562 113.898438 C 137.3125 113.367188 137.394531 112.863281 137.507812 112.417969 C 138.066406 111.578125 138.710938 111.132812 139.46875 111.101562 C 140.476562 111.046875 141.316406 111.269531 142.019531 111.691406 L 143.445312 107.75 L 144.875 101.992188 C 144.230469 101.292969 143.53125 100.789062 142.800781 100.425781 C 142.019531 100.035156 141.175781 99.867188 140.28125 99.894531 C 138.179688 99.921875 136.21875 102.1875 134.339844 106.601562 C 133.949219 105.707031 133.585938 104.648438 133.246094 103.5 L 128.570312 103.164062 L 127.140625 107.105469 C 128.007812 111.1875 128.597656 117.027344 128.878906 124.660156 Z M 105.144531 133.324219 C 106.519531 134.609375 108.199219 135.253906 110.246094 135.167969 C 112.289062 135.085938 114.25 134.441406 116.15625 133.269531 L 116.746094 135.253906 L 121.984375 135.503906 L 123.414062 131.5625 C 123.664062 123.960938 123.695312 118.035156 123.554688 113.730469 C 123.414062 109.453125 122.601562 106.128906 121.171875 103.863281 C 120.414062 102.660156 119.460938 101.796875 118.34375 101.238281 C 117.304688 100.734375 116.128906 100.511719 114.785156 100.566406 C 111.953125 100.675781 109.710938 101.878906 108.058594 104.171875 C 107.164062 105.429688 106.433594 106.828125 105.875 108.363281 L 104.445312 112.304688 C 103.96875 113.589844 103.632812 114.988281 103.378906 116.46875 L 108.199219 116.777344 C 108.113281 116.832031 108.003906 116.917969 107.917969 116.972656 C 106.378906 118.175781 105.3125 119.515625 104.78125 120.96875 L 104.753906 121.054688 L 103.351562 124.910156 C 103.042969 125.75 102.902344 126.644531 102.929688 127.566406 C 103.042969 130.136719 103.773438 132.039062 105.144531 133.324219 Z M 64.460938 133.9375 C 65.890625 135.476562 67.710938 136.203125 70.039062 136.117188 C 72.363281 136.035156 74.578125 134.273438 76.761719 130.863281 C 77.210938 132.625 77.546875 134.359375 77.742188 136.089844 L 83.933594 136.511719 L 85.363281 132.570312 C 84.886719 128.265625 84.496094 121.472656 84.160156 112.25 L 83.933594 102.464844 L 76.648438 102.046875 L 75.222656 105.988281 C 75.332031 112.332031 75.390625 116.105469 75.445312 117.335938 C 75.472656 118.59375 75.527344 119.65625 75.613281 120.550781 C 75.472656 121.390625 75.277344 122.171875 75.082031 122.925781 C 74.269531 124.601562 73.566406 125.46875 72.953125 125.496094 C 72.613281 125.496094 72.335938 125.441406 72.082031 125.328125 C 71.328125 124.964844 70.90625 124.015625 70.851562 122.421875 C 70.683594 117.726562 70.851562 111.859375 71.355469 104.757812 L 64.125 104.3125 L 62.695312 108.253906 C 62.136719 115.714844 61.96875 122.144531 62.164062 127.511719 C 62.277344 130.277344 63.03125 132.402344 64.460938 133.9375 Z M 49.246094 128.375 C 47.847656 127.707031 47.089844 125.496094 46.949219 121.695312 C 46.867188 119.179688 47.089844 116.527344 47.648438 113.785156 C 48.015625 113.339844 48.40625 113.117188 48.828125 113.117188 C 50.5625 113.058594 51.515625 115.6875 51.714844 120.96875 C 51.796875 123.289062 51.601562 125.636719 51.125 128.179688 C 50.871094 128.460938 50.621094 128.570312 50.3125 128.601562 C 49.917969 128.601562 49.554688 128.515625 49.246094 128.375 Z M 38.234375 125.328125 C 38.515625 134.21875 42.128906 138.550781 49.050781 138.242188 C 52.359375 138.132812 54.878906 136.285156 56.617188 132.738281 C 56.925781 132.066406 57.234375 131.394531 57.484375 130.695312 L 58.914062 126.753906 C 60.035156 123.707031 60.539062 120.355469 60.398438 116.691406 C 60.285156 113.421875 59.472656 110.433594 58.015625 107.691406 C 57.289062 106.324219 56.195312 105.207031 54.851562 104.449219 C 54.683594 104.367188 54.542969 104.285156 54.375 104.199219 C 53.113281 103.585938 51.65625 103.304688 50.003906 103.359375 C 48.125 103.445312 46.5 104.058594 45.015625 105.316406 C 43.53125 106.574219 42.4375 108.140625 41.683594 110.011719 C 41.597656 110.207031 41.542969 110.375 41.484375 110.570312 L 40.058594 114.484375 C 38.710938 118.089844 38.097656 121.695312 38.234375 125.328125 Z M 22.238281 125.722656 C 22.40625 130.082031 22.742188 134.191406 23.21875 137.992188 L 31.484375 138.578125 L 32.914062 134.636719 C 32.632812 131.785156 32.464844 128.992188 32.351562 126.140625 C 32.238281 123.484375 32.183594 120.410156 32.128906 116.917969 C 33.921875 112.695312 35.546875 108.476562 37.085938 104.339844 L 38.515625 100.398438 C 39.859375 96.707031 41.121094 93.019531 42.269531 89.386719 L 35.042969 88.9375 L 33.613281 92.878906 C 32.800781 95.8125 31.820312 98.917969 30.671875 102.1875 C 29.773438 104.535156 28.792969 106.964844 27.757812 109.480469 C 24.589844 103.164062 22.488281 97.6875 21.453125 93.074219 L 13.636719 92.601562 L 12.207031 96.539062 C 12.992188 101.570312 16.242188 109.734375 22.070312 120.941406 Z M 22.238281 125.722656 " fill-opacity="1" fill-rule="nonzero"/></g><g clip-path="url(#969f804d91)"><path fill="#ffc370" d="M 23.667969 121.78125 L 23.5 117 C 17.671875 105.792969 14.421875 97.632812 13.636719 92.601562 L 21.453125 93.074219 C 22.488281 97.6875 24.589844 103.164062 27.757812 109.480469 C 30.921875 101.878906 33.359375 95.03125 35.070312 88.910156 L 42.296875 89.359375 C 39.496094 98.191406 36.132812 107.191406 32.15625 116.328125 C 32.210938 120.046875 32.269531 123.316406 32.378906 126.113281 C 32.492188 128.964844 32.660156 131.757812 32.941406 134.609375 L 24.675781 134.023438 C 24.171875 130.25 23.835938 126.167969 23.667969 121.78125 Z M 39.691406 121.390625 C 39.554688 117.558594 40.226562 113.757812 41.683594 110.011719 C 42.46875 108.113281 43.558594 106.574219 45.015625 105.316406 C 46.5 104.058594 48.125 103.445312 50.003906 103.359375 C 51.882812 103.304688 53.476562 103.667969 54.851562 104.449219 C 56.222656 105.234375 57.316406 106.351562 58.015625 107.691406 C 59.472656 110.433594 60.285156 113.394531 60.398438 116.664062 C 60.566406 121.164062 59.753906 125.21875 58.046875 128.769531 C 56.308594 132.316406 53.816406 134.160156 50.480469 134.273438 C 43.585938 134.609375 39.972656 130.277344 39.691406 121.390625 Z M 46.949219 121.667969 C 47.117188 126.335938 48.238281 128.628906 50.285156 128.570312 C 51.207031 128.542969 51.910156 127.203125 52.46875 124.574219 C 53 121.890625 53.226562 119.433594 53.140625 117 C 52.945312 111.71875 51.992188 109.089844 50.257812 109.148438 C 49.136719 109.175781 48.265625 110.628906 47.679688 113.480469 C 47.117188 116.328125 46.867188 119.097656 46.949219 121.667969 Z M 83.933594 102.464844 L 84.160156 112.25 C 84.496094 121.445312 84.886719 128.238281 85.363281 132.570312 L 79.171875 132.148438 C 78.976562 130.417969 78.640625 128.683594 78.191406 126.921875 C 76.003906 130.332031 73.792969 132.09375 71.464844 132.175781 C 69.140625 132.261719 67.320312 131.535156 65.890625 129.996094 C 64.460938 128.460938 63.707031 126.335938 63.59375 123.539062 C 63.398438 118.175781 63.566406 111.746094 64.125 104.285156 L 71.355469 104.730469 C 70.851562 111.828125 70.683594 117.699219 70.851562 122.394531 C 70.933594 124.519531 71.632812 125.496094 72.953125 125.46875 C 73.597656 125.441406 74.296875 124.546875 75.136719 122.8125 C 75.976562 121.082031 76.621094 119.039062 77.070312 116.582031 C 76.984375 115.660156 76.929688 114.597656 76.902344 113.367188 C 76.847656 112.136719 76.789062 108.363281 76.679688 102.019531 Z M 108.085938 104.171875 C 109.738281 101.851562 111.980469 100.675781 114.8125 100.566406 C 117.640625 100.453125 119.742188 101.542969 121.199219 103.835938 C 122.628906 106.128906 123.441406 109.425781 123.582031 113.703125 C 123.722656 118.007812 123.695312 123.933594 123.441406 131.535156 L 118.203125 131.285156 L 117.613281 129.296875 C 115.707031 130.472656 113.746094 131.117188 111.703125 131.199219 C 109.65625 131.285156 107.976562 130.640625 106.601562 129.355469 C 105.230469 128.070312 104.5 126.167969 104.386719 123.625 C 104.304688 121.082031 105.480469 118.875 107.917969 116.972656 C 110.382812 115.070312 113.214844 114.011719 116.519531 113.84375 L 116.464844 112.164062 C 116.351562 108.921875 115.511719 107.300781 113.914062 107.359375 C 113.101562 107.386719 112.429688 107.972656 111.8125 109.089844 C 111.195312 110.207031 110.804688 111.496094 110.550781 112.890625 L 104.808594 112.527344 C 105.371094 109.285156 106.40625 106.519531 108.085938 104.171875 Z M 110.777344 123.820312 C 110.832031 125.132812 111.644531 125.777344 113.214844 125.722656 C 114.277344 125.691406 115.429688 125.386719 116.578125 124.855469 L 116.519531 119.65625 C 114.558594 119.90625 113.128906 120.4375 112.148438 121.277344 C 111.195312 122.085938 110.75 122.953125 110.777344 123.820312 Z M 140.925781 107.21875 C 139.1875 107.273438 137.953125 109.539062 137.253906 113.953125 C 137.449219 116.832031 137.589844 119.601562 137.675781 122.285156 C 137.757812 124.9375 137.785156 127.902344 137.730469 131.226562 L 130.503906 130.835938 C 130.417969 124.742188 130.363281 121.417969 130.332031 120.773438 C 130.054688 113.117188 129.464844 107.273438 128.597656 103.25 L 133.277344 103.585938 C 133.613281 104.757812 133.976562 105.820312 134.367188 106.6875 C 136.246094 102.269531 138.207031 100.007812 140.308594 99.980469 C 142.019531 99.921875 143.503906 100.621094 144.875 102.074219 L 143.445312 107.804688 C 142.746094 107.386719 141.933594 107.160156 140.925781 107.21875 Z M 156.839844 124.601562 C 158.410156 124.546875 160.007812 122.980469 161.6875 119.90625 L 166.476562 122.5625 C 165.722656 123.960938 165.019531 125.160156 164.320312 126.085938 C 163.621094 127.0625 162.554688 128.011719 161.183594 128.964844 C 159.753906 129.886719 158.15625 130.359375 156.390625 130.445312 C 153.757812 130.527344 151.570312 129.496094 149.667969 127.371094 C 147.789062 125.21875 146.78125 122.285156 146.667969 118.511719 C 146.527344 114.207031 147.144531 110.152344 148.546875 106.378906 C 149.332031 104.394531 150.453125 102.800781 151.9375 101.542969 C 153.449219 100.285156 154.992188 99.585938 156.671875 99.53125 C 158.324219 99.476562 159.640625 99.699219 160.648438 100.175781 C 161.660156 100.675781 162.5 101.207031 163.117188 101.824219 C 163.761719 102.464844 164.292969 103.359375 164.796875 104.617188 C 165.300781 105.847656 165.664062 106.855469 165.863281 107.636719 C 166.085938 108.417969 166.28125 109.566406 166.449219 111.019531 C 166.703125 113.003906 166.84375 114.792969 166.898438 116.386719 C 163.621094 117.390625 159.363281 118.398438 154.121094 119.320312 C 154.316406 120.96875 154.652344 122.285156 155.128906 123.261719 C 155.636719 124.128906 156.222656 124.632812 156.839844 124.601562 Z M 157.539062 105.511719 C 156.617188 105.539062 155.832031 106.464844 155.160156 108.363281 C 154.484375 110.207031 154.148438 112.332031 154.121094 114.738281 C 156.308594 114.207031 158.183594 113.703125 159.78125 113.226562 C 159.613281 108.027344 158.886719 105.457031 157.539062 105.511719 Z M 197.972656 99.503906 L 197.773438 91.816406 C 197.664062 88.9375 197.496094 85.722656 197.242188 82.089844 L 204.527344 82.453125 C 204.722656 85.390625 204.949219 90.726562 205.226562 98.414062 C 205.507812 106.101562 205.507812 116.078125 205.285156 128.238281 L 199.738281 127.929688 C 199.539062 126.28125 199.34375 124.351562 199.148438 122.117188 C 197.496094 125.722656 195.644531 127.566406 193.542969 127.648438 C 190.378906 127.761719 188.109375 126.839844 186.792969 124.882812 C 185.476562 122.925781 184.746094 120.101562 184.605469 116.273438 C 184.464844 112.445312 185.167969 108.53125 186.652344 104.421875 C 188.136719 100.3125 189.902344 98.21875 192.003906 98.132812 C 193.910156 98.160156 195.84375 98.582031 197.972656 99.503906 Z M 198.363281 105.261719 C 197.300781 104.507812 196.261719 104.171875 195.28125 104.199219 C 194.273438 104.226562 193.433594 105.597656 192.761719 108.28125 C 192.085938 110.992188 191.808594 113.757812 191.917969 116.691406 C 192.03125 119.628906 192.789062 120.996094 194.1875 120.96875 C 194.75 120.941406 195.421875 120.019531 196.289062 118.175781 C 197.160156 116.328125 197.886719 114.039062 198.558594 111.242188 Z M 209.964844 115.492188 C 209.824219 111.660156 210.496094 107.859375 211.953125 104.117188 C 212.738281 102.214844 213.832031 100.675781 215.285156 99.417969 C 216.773438 98.160156 218.398438 97.546875 220.273438 97.464844 C 222.152344 97.40625 223.75 97.769531 225.121094 98.554688 C 226.496094 99.363281 227.585938 100.453125 228.289062 101.796875 C 229.746094 104.535156 230.558594 107.496094 230.667969 110.769531 C 230.835938 115.269531 230.023438 119.320312 228.316406 122.871094 C 226.578125 126.417969 224.085938 128.265625 220.75 128.375 C 213.886719 128.710938 210.300781 124.378906 209.964844 115.492188 Z M 217.277344 115.769531 C 217.445312 120.4375 218.539062 122.730469 220.609375 122.675781 C 221.535156 122.648438 222.234375 121.304688 222.796875 118.675781 C 223.328125 115.996094 223.550781 113.535156 223.46875 111.101562 C 223.273438 105.820312 222.320312 103.191406 220.582031 103.25 C 219.460938 103.277344 218.59375 104.730469 218.003906 107.582031 C 217.417969 110.433594 217.164062 113.199219 217.277344 115.769531 Z M 235.152344 85.808594 L 242.128906 86.394531 L 241.738281 93.328125 L 234.761719 92.683594 Z M 235.039062 96.738281 L 242.15625 97.183594 L 243.195312 126.921875 L 236.078125 126.476562 Z M 261.378906 95.898438 C 266.839844 95.703125 269.753906 100.148438 270.0625 109.257812 C 270.230469 114.039062 270.148438 119.152344 269.785156 124.519531 L 262.5 124.070312 C 262.808594 119.347656 262.863281 114.597656 262.695312 109.734375 C 262.527344 104.925781 261.742188 102.523438 260.371094 102.578125 C 259.695312 102.605469 258.914062 104.3125 257.988281 107.636719 C 257.0625 110.992188 256.53125 114.289062 256.390625 117.476562 C 256.53125 119.179688 256.8125 122.226562 257.230469 126.617188 L 249.945312 126.167969 C 249.273438 120.355469 248.882812 115.238281 248.742188 110.824219 C 248.574219 106.40625 248.574219 102.410156 248.683594 98.890625 L 253.308594 99.222656 C 253.394531 99.558594 253.757812 100.902344 254.375 103.222656 C 256.585938 98.441406 258.941406 95.980469 261.378906 95.898438 Z M 285.082031 132.933594 C 286.371094 132.875 287.378906 131.535156 288.050781 128.878906 C 288.753906 126.195312 289.03125 122.953125 288.921875 119.070312 C 286.847656 123.066406 284.660156 125.105469 282.308594 125.191406 C 279.953125 125.273438 278.050781 124.519531 276.5625 122.980469 C 275.078125 121.445312 274.265625 119.039062 274.15625 115.796875 C 274.042969 112.585938 274.492188 109.285156 275.5 106.070312 C 276.507812 102.859375 277.796875 100.230469 279.367188 98.21875 C 280.933594 96.234375 282.449219 95.226562 283.960938 95.199219 C 286.59375 95.117188 289.003906 96.09375 291.273438 98.105469 L 295.644531 98.582031 C 295.195312 101.320312 295.058594 105.402344 295.253906 110.992188 C 295.449219 116.554688 295.449219 120.632812 295.226562 123.289062 C 295 125.945312 294.582031 128.515625 293.964844 131.058594 C 293.347656 133.632812 292.367188 135.644531 291.050781 137.179688 C 289.734375 138.71875 287.996094 139.527344 285.726562 139.613281 C 283.484375 139.695312 281.328125 138.859375 279.226562 137.125 C 277.125 135.390625 275.445312 133.296875 274.097656 130.808594 L 279.226562 128.375 C 280.964844 131.507812 282.925781 132.988281 285.082031 132.933594 Z M 285.726562 101.515625 C 284.691406 101.542969 283.679688 103.082031 282.726562 106.101562 C 281.777344 109.117188 281.355469 112.304688 281.46875 115.632812 C 281.523438 116.917969 281.71875 117.894531 282.113281 118.539062 C 282.503906 119.207031 282.898438 119.488281 283.316406 119.488281 C 283.765625 119.460938 284.296875 119.039062 284.996094 118.203125 C 285.699219 117.335938 286.371094 115.996094 287.128906 114.148438 C 287.882812 112.304688 288.386719 110.292969 288.695312 108.054688 L 288.667969 103.332031 C 287.40625 102.101562 286.425781 101.488281 285.726562 101.515625 Z M 285.726562 101.515625 " fill-opacity="1" fill-rule="nonzero"/></g><g clip-path="url(#19c13dbe16)"><path fill="#ff5252" d="M 255.691406 161.359375 C 256.054688 169.042969 257.0625 177.539062 258.660156 186.875 L 266.113281 187.6875 L 267.542969 183.746094 C 267.542969 163.453125 268.773438 147.1875 271.210938 134.945312 L 257.59375 132.570312 L 256.167969 136.511719 C 255.464844 145.398438 255.296875 153.699219 255.691406 161.359375 Z M 257.425781 198.113281 C 257.566406 200.683594 257.371094 203.058594 256.867188 205.433594 L 267.933594 207.363281 C 267.933594 207.335938 267.933594 207.335938 267.960938 207.308594 L 269.363281 203.421875 L 269.390625 203.367188 C 270.230469 201.046875 270.566406 198.335938 270.429688 195.175781 C 270.261719 192.074219 269.8125 189.867188 269.082031 188.609375 L 258.324219 187.6875 L 256.894531 191.628906 C 257.148438 193.417969 257.316406 195.570312 257.425781 198.113281 Z M 188.921875 179.441406 L 192.3125 156.382812 L 197.019531 178.964844 Z M 226.160156 177.207031 C 226.578125 185.480469 227.390625 195.148438 228.597656 206.21875 L 240.28125 207.027344 L 241.707031 203.085938 C 240.726562 189.027344 240.054688 178.238281 239.664062 170.722656 C 239.328125 164.238281 239.101562 157.222656 238.992188 149.617188 C 242.632812 149.226562 245.941406 148.917969 248.910156 148.695312 L 250.339844 144.753906 L 248.011719 134.359375 L 230.835938 135.617188 C 224.953125 136.257812 219.042969 137.152344 213.046875 138.382812 L 211.617188 142.324219 L 214.222656 153.195312 L 225.375 151.351562 C 225.457031 160.351562 225.738281 168.960938 226.160156 177.207031 Z M 99.542969 173.515625 C 99.375 168.933594 99.035156 162.167969 98.589844 153.222656 C 100.886719 152.46875 103.015625 152.050781 105.003906 152.023438 C 107.5 151.964844 109.488281 152.664062 111.085938 154.0625 C 112.683594 155.488281 113.550781 157.472656 113.691406 160.128906 C 113.71875 160.519531 113.691406 160.9375 113.632812 161.328125 C 112.933594 162.53125 111.953125 163.816406 110.75 165.101562 C 107.75 168.402344 104.023438 171.195312 99.542969 173.515625 Z M 183.542969 141.792969 L 170.539062 210.355469 L 183.515625 211.222656 L 184.941406 207.28125 L 186.988281 193.390625 L 199.847656 192.578125 L 202.679688 205.632812 L 216.128906 206.496094 L 217.554688 202.554688 L 202.203125 138.996094 L 185 137.851562 Z M 39.890625 158.589844 Z M 133.949219 180.222656 C 134.425781 189.085938 134.984375 198.449219 135.769531 208.34375 L 150.085938 209.347656 C 157.230469 209.179688 163.339844 207.839844 168.441406 205.296875 L 169.867188 201.355469 L 167.765625 191.039062 C 160.398438 192.660156 154.039062 193.753906 148.714844 194.253906 C 148.519531 191.515625 148.265625 187.324219 147.957031 181.675781 C 155.355469 180.785156 160.957031 180.222656 164.796875 180.085938 L 166.226562 176.144531 L 163.929688 165.828125 C 157.539062 166.109375 152.019531 166.640625 147.398438 167.394531 C 147.285156 164.347656 147.203125 160.210938 147.089844 154.984375 C 152.609375 154.480469 158.578125 154.175781 164.9375 154.0625 L 166.367188 150.121094 L 165.75 138.550781 C 155.746094 138.886719 145.492188 139.890625 135.070312 141.765625 L 133.640625 145.707031 C 133.359375 159.90625 133.472656 171.417969 133.949219 180.222656 Z M 85.25 169.632812 C 85.839844 181.425781 86.175781 194.871094 86.148438 209.933594 L 98.757812 211.082031 L 100.1875 207.140625 C 100.128906 200.433594 100.015625 193.332031 99.792969 185.871094 C 109.628906 198.085938 116.546875 207 120.5 212.589844 L 129.046875 205.714844 L 130.472656 201.773438 C 124.703125 193.976562 119.042969 186.820312 113.578125 180.253906 C 118.902344 175.976562 122.375 171.644531 123.972656 167.253906 L 125.402344 163.3125 C 126.1875 161.160156 126.523438 158.980469 126.410156 156.800781 C 126.074219 150.402344 123.972656 145.480469 120.164062 142.042969 C 118.734375 140.785156 117.222656 139.753906 115.597656 138.96875 C 112.792969 137.628906 109.683594 136.984375 106.265625 137.070312 C 98.953125 137.238281 91.949219 139.027344 85.390625 142.40625 L 83.960938 146.375 C 84.214844 150.066406 84.664062 157.835938 85.25 169.632812 Z M 43.585938 204.960938 C 47.679688 209.933594 52.945312 212.394531 59.335938 212.253906 C 63.003906 212.171875 66.339844 210.550781 69.308594 207.449219 C 72.082031 204.511719 74.183594 201.101562 75.558594 197.328125 L 76.984375 193.390625 C 77.070312 193.164062 77.152344 192.941406 77.210938 192.746094 C 78.582031 188.691406 79.199219 185.3125 79.058594 182.628906 C 78.917969 179.917969 78.582031 176.953125 78.050781 173.710938 C 69.644531 174.886719 62.695312 175.753906 57.148438 176.226562 L 55.71875 180.167969 L 58.15625 189.449219 C 60.679688 188.945312 63.003906 188.664062 65.21875 188.609375 C 64.992188 191.125 64.65625 193.277344 64.210938 195.09375 C 63.117188 197.132812 61.40625 198.167969 59.136719 198.222656 C 58.4375 198.253906 57.792969 198.113281 57.175781 197.804688 C 55.664062 197.078125 54.402344 195.429688 53.421875 192.828125 C 51.992188 189.195312 51.125 184.109375 50.761719 177.652344 C 50.425781 171.140625 51.125 165.046875 52.890625 159.34375 C 52.917969 159.289062 52.917969 159.207031 52.945312 159.148438 C 54.289062 156.160156 55.71875 154.648438 57.289062 154.621094 C 59.082031 154.59375 60.511719 155.769531 61.546875 158.144531 C 62.613281 160.546875 63.199219 163.148438 63.339844 166.027344 C 63.480469 168.90625 63.480469 170.917969 63.285156 172.203125 L 74.128906 172.929688 L 75.558594 168.988281 C 75.949219 165.96875 76.089844 162.839844 75.921875 159.679688 C 75.753906 156.464844 75.023438 153.417969 73.734375 150.539062 C 72.445312 147.664062 70.820312 145.453125 68.945312 143.890625 C 67.601562 142.828125 66.253906 141.960938 64.855469 141.316406 C 62.386719 140.144531 59.867188 139.554688 57.261719 139.613281 C 53 139.667969 49.359375 141.679688 46.332031 145.566406 C 44.289062 148.164062 42.636719 151.183594 41.347656 154.707031 C 41.347656 154.707031 41.347656 154.707031 41.347656 154.734375 L 39.917969 158.648438 L 39.917969 158.675781 C 39.273438 160.433594 38.710938 162.335938 38.265625 164.347656 C 36.917969 170.359375 36.414062 176.785156 36.75 183.605469 C 37.199219 192.828125 39.523438 199.957031 43.585938 204.960938 Z M 43.585938 204.960938 " fill-opacity="1" fill-rule="nonzero"/></g><path fill="#ff9e9e" d="M 257.59375 132.597656 C 256.894531 141.484375 256.726562 149.757812 257.121094 157.445312 C 257.484375 165.132812 258.492188 173.628906 260.0625 182.964844 L 267.515625 183.773438 C 267.515625 163.480469 268.746094 147.214844 271.183594 134.972656 Z M 270.457031 195.175781 C 270.289062 192.074219 269.839844 189.867188 269.109375 188.609375 L 258.351562 187.6875 C 258.574219 189.476562 258.746094 191.601562 258.882812 194.171875 C 259.023438 196.742188 258.828125 199.117188 258.324219 201.496094 L 269.390625 203.421875 C 270.261719 201.074219 270.597656 198.363281 270.457031 195.175781 Z M 238.933594 145.84375 C 243.164062 145.371094 246.976562 145.007812 250.339844 144.753906 L 248.011719 134.359375 L 230.835938 135.617188 C 224.953125 136.257812 219.042969 137.152344 213.046875 138.382812 L 215.625 149.253906 L 226.773438 147.410156 C 226.859375 156.382812 227.140625 165.019531 227.558594 173.265625 C 227.980469 181.539062 228.792969 191.207031 229.996094 202.277344 L 241.679688 203.085938 C 240.699219 189.027344 240.027344 178.238281 239.636719 170.722656 C 239.269531 163.175781 239.019531 154.902344 238.933594 145.84375 Z M 202.175781 138.996094 L 184.96875 137.851562 L 171.96875 206.441406 L 184.941406 207.308594 L 187.578125 189.53125 L 201.304688 188.664062 L 204.136719 201.71875 L 217.585938 202.585938 Z M 188.921875 179.441406 L 193.234375 150.039062 L 199.230469 178.828125 Z M 167.765625 191.039062 C 160.398438 192.660156 154.039062 193.753906 148.714844 194.253906 C 148.488281 190.957031 148.152344 185.535156 147.761719 177.960938 C 155.972656 176.925781 162.136719 176.3125 166.226562 176.144531 L 163.929688 165.828125 C 157.539062 166.109375 152.019531 166.640625 147.398438 167.394531 C 147.257812 163.648438 147.144531 158.226562 147.003906 151.183594 C 152.945312 150.597656 159.417969 150.234375 166.367188 150.121094 L 165.75 138.550781 C 155.746094 138.886719 145.492188 139.890625 135.070312 141.765625 C 134.789062 155.992188 134.902344 167.507812 135.378906 176.3125 C 135.855469 185.171875 136.414062 194.535156 137.199219 204.429688 L 151.515625 205.433594 C 158.660156 205.269531 164.769531 203.925781 169.867188 201.382812 Z M 130.472656 201.773438 C 124.167969 193.277344 118.035156 185.535156 112.09375 178.519531 C 122.011719 171.449219 126.804688 164.238281 126.4375 156.828125 C 126.101562 150.429688 124 145.511719 120.191406 142.070312 C 116.351562 138.660156 111.703125 136.984375 106.292969 137.097656 C 98.980469 137.265625 91.976562 139.054688 85.417969 142.433594 C 85.671875 146.125 86.121094 153.894531 86.707031 165.691406 C 87.296875 177.484375 87.632812 190.929688 87.605469 205.996094 L 100.214844 207.140625 C 100.15625 198.644531 99.960938 189.585938 99.625 179.890625 C 110.328125 193.164062 117.808594 202.722656 121.957031 208.621094 Z M 99.542969 173.515625 C 99.34375 168.375 98.953125 160.492188 98.421875 149.871094 C 101.304688 148.753906 103.996094 148.136719 106.460938 148.082031 C 108.957031 148.027344 110.945312 148.722656 112.542969 150.121094 C 114.140625 151.546875 115.007812 153.53125 115.121094 156.1875 C 115.261719 158.84375 113.804688 161.832031 110.75 165.132812 C 107.75 168.402344 104.023438 171.195312 99.542969 173.515625 Z M 79.085938 182.601562 C 78.949219 179.890625 78.609375 176.925781 78.078125 173.683594 C 69.671875 174.859375 62.722656 175.722656 57.175781 176.199219 L 59.613281 185.449219 C 62.136719 184.949219 64.460938 184.667969 66.675781 184.613281 C 66.28125 189.027344 65.527344 192.382812 64.40625 194.648438 C 63.3125 196.9375 61.546875 198.113281 59.136719 198.140625 C 56.726562 198.195312 54.824219 196.378906 53.421875 192.746094 C 51.992188 189.113281 51.125 184.027344 50.761719 177.570312 C 50.425781 171.054688 51.125 164.964844 52.890625 159.261719 C 54.628906 153.53125 56.558594 150.625 58.71875 150.597656 C 60.511719 150.570312 61.941406 151.742188 62.976562 154.117188 C 64.042969 156.523438 64.628906 159.121094 64.769531 162 C 64.910156 164.851562 64.910156 166.890625 64.714844 168.175781 L 75.558594 168.90625 C 75.949219 165.886719 76.089844 162.753906 75.921875 159.597656 C 75.753906 156.382812 75.023438 153.335938 73.734375 150.457031 C 72.445312 147.578125 70.820312 145.371094 68.945312 143.804688 C 65.246094 140.871094 61.324219 139.445312 57.261719 139.527344 C 53 139.585938 49.359375 141.597656 46.332031 145.480469 C 43.25 149.367188 41.066406 154.285156 39.691406 160.296875 C 38.347656 166.304688 37.84375 172.734375 38.179688 179.554688 C 38.65625 188.832031 40.980469 195.960938 45.042969 200.964844 C 49.136719 205.9375 54.402344 208.398438 60.792969 208.257812 C 64.460938 208.175781 67.796875 206.554688 70.765625 203.449219 C 73.707031 200.347656 75.867188 196.714844 77.238281 192.691406 C 78.609375 188.664062 79.226562 185.3125 79.085938 182.601562 Z M 79.085938 182.601562 " fill-opacity="1" fill-rule="nonzero"/><path fill="#ffcfcf" d="M 263.117188 179.75 L 263.984375 179.832031 C 264.125 163.0625 265.132812 149.03125 267.039062 137.824219 L 260.816406 136.734375 C 260.371094 144.027344 260.285156 150.875 260.621094 157.277344 C 260.957031 164.070312 261.796875 171.558594 263.117188 179.75 Z M 186.316406 181.816406 C 185.585938 181.035156 185.277344 179.972656 185.417969 178.910156 L 189.734375 149.507812 C 189.984375 147.800781 191.414062 146.542969 193.125 146.488281 C 194.832031 146.433594 196.347656 147.632812 196.683594 149.285156 L 202.679688 178.070312 C 202.875 179.078125 202.652344 180.113281 202.035156 180.921875 C 201.417969 181.734375 200.464844 182.238281 199.429688 182.292969 L 189.117188 182.90625 C 188.082031 183.019531 187.042969 182.601562 186.316406 181.816406 Z M 262.332031 198.617188 L 266.757812 199.398438 C 266.925781 198.222656 266.980469 196.882812 266.925781 195.375 C 266.839844 193.863281 266.703125 192.746094 266.535156 191.933594 L 262.273438 191.570312 C 262.332031 192.328125 262.386719 193.136719 262.414062 194.003906 C 262.5 195.570312 262.472656 197.105469 262.332031 198.617188 Z M 231.089844 173.097656 C 231.480469 180.558594 232.183594 189.167969 233.191406 198.980469 L 237.871094 199.3125 C 237.03125 187.210938 236.46875 177.738281 236.105469 170.917969 C 235.742188 163.3125 235.488281 155.011719 235.40625 145.902344 C 235.375 144.085938 236.75 142.574219 238.542969 142.351562 C 241.203125 142.042969 243.671875 141.792969 246.023438 141.597656 L 245.238281 138.101562 C 240.335938 138.464844 231.230469 139.136719 231.230469 139.136719 C 226.605469 139.640625 222.011719 140.3125 217.332031 141.148438 L 218.3125 145.257812 L 226.214844 143.945312 C 227.222656 143.777344 228.289062 144.054688 229.074219 144.726562 C 229.855469 145.398438 230.332031 146.375 230.332031 147.382812 C 230.390625 156.296875 230.667969 164.878906 231.089844 173.097656 Z M 187.855469 141.570312 L 176.171875 203.171875 L 181.917969 203.5625 L 184.074219 189 C 184.328125 187.351562 185.671875 186.09375 187.351562 186.011719 L 201.082031 185.144531 C 202.820312 185.03125 204.386719 186.207031 204.753906 187.910156 L 207.023438 198.363281 L 213.015625 198.753906 L 199.34375 142.351562 Z M 138.90625 176.117188 C 139.328125 184.054688 139.832031 192.382812 140.476562 201.132812 L 151.570312 201.914062 C 157.09375 201.773438 161.800781 200.878906 165.804688 199.3125 L 164.964844 195.234375 C 158.96875 196.464844 153.644531 197.328125 148.996094 197.777344 C 148.042969 197.859375 147.089844 197.582031 146.359375 196.964844 C 145.632812 196.351562 145.183594 195.457031 145.128906 194.507812 C 144.902344 191.179688 144.566406 185.757812 144.175781 178.15625 C 144.089844 176.3125 145.4375 174.71875 147.257812 174.464844 C 153.113281 173.738281 157.960938 173.207031 161.828125 172.902344 L 161.070312 169.519531 C 156.027344 169.828125 151.65625 170.273438 147.902344 170.890625 C 146.894531 171.054688 145.882812 170.777344 145.101562 170.132812 C 144.316406 169.492188 143.839844 168.539062 143.8125 167.535156 C 143.671875 163.761719 143.558594 158.28125 143.417969 151.269531 C 143.390625 149.421875 144.761719 147.859375 146.613281 147.691406 C 151.601562 147.1875 156.925781 146.851562 162.613281 146.683594 L 162.386719 142.210938 C 154.570312 142.601562 146.613281 143.414062 138.542969 144.726562 C 138.347656 157.585938 138.460938 168.039062 138.90625 176.117188 Z M 90.238281 165.523438 C 90.800781 176.535156 91.109375 188.972656 91.136719 202.78125 L 96.628906 203.28125 C 96.542969 195.960938 96.347656 188.21875 96.066406 180.027344 C 96.011719 178.632812 96.796875 177.34375 98.054688 176.730469 C 97.945312 176.675781 97.859375 176.617188 97.746094 176.5625 C 96.710938 175.949219 96.039062 174.859375 95.984375 173.65625 C 95.785156 168.539062 95.394531 160.6875 94.863281 150.066406 C 94.777344 148.554688 95.703125 147.160156 97.105469 146.601562 C 100.269531 145.371094 103.351562 144.644531 106.351562 144.558594 C 109.628906 144.476562 112.515625 145.425781 114.867188 147.496094 C 115.933594 148.445312 116.800781 149.589844 117.445312 150.933594 C 118.203125 152.496094 118.566406 154.230469 118.621094 156.019531 C 118.707031 157.554688 118.425781 159.066406 117.921875 160.519531 C 117.054688 162.921875 115.429688 165.269531 113.355469 167.535156 C 110.046875 171.140625 105.984375 174.1875 101.167969 176.675781 C 101.136719 176.675781 101.109375 176.703125 101.082031 176.703125 C 101.558594 176.925781 102.007812 177.261719 102.371094 177.707031 C 111.394531 188.917969 118.203125 197.554688 122.628906 203.5625 L 125.597656 201.1875 C 120.050781 193.808594 114.644531 187.015625 109.375 180.8125 C 108.730469 180.054688 108.453125 179.078125 108.5625 178.101562 C 108.675781 177.121094 109.207031 176.253906 110.019531 175.667969 C 115.933594 171.449219 119.601562 167.394531 121.453125 163.621094 C 122.542969 161.359375 122.992188 159.175781 122.882812 157.027344 C 122.574219 151.324219 120.75 147.382812 117.808594 144.726562 C 114.671875 141.933594 110.890625 140.5625 106.351562 140.648438 C 100.324219 140.785156 94.554688 142.101562 89.0625 144.585938 C 89.371094 148.808594 89.761719 155.824219 90.238281 165.523438 Z M 53.617188 203.367188 C 55.691406 204.316406 58.046875 204.792969 60.734375 204.738281 C 63.285156 204.679688 65.777344 203.589844 68.214844 201.019531 C 70.792969 198.308594 72.699219 195.121094 73.902344 191.542969 C 75.191406 187.714844 75.667969 184.863281 75.558594 182.769531 C 75.472656 181.175781 75.304688 179.46875 75.082031 177.652344 C 70.066406 178.324219 65.582031 178.882812 61.632812 179.300781 L 62.191406 181.425781 C 63.675781 181.230469 65.132812 181.117188 66.5625 181.0625 C 67.570312 181.035156 68.550781 181.453125 69.226562 182.179688 C 69.898438 182.90625 70.261719 183.914062 70.175781 184.890625 C 69.785156 189.476562 68.972656 193.332031 67.570312 196.128906 C 66.789062 197.777344 65.636719 199.230469 64.070312 200.238281 C 62.585938 201.1875 60.902344 201.632812 59.195312 201.632812 C 57.539062 201.660156 55.972656 201.214844 54.628906 200.292969 C 52.496094 198.867188 51.097656 196.519531 50.117188 194.003906 C 48.492188 189.867188 47.59375 184.332031 47.203125 177.707031 C 46.835938 170.832031 47.59375 164.320312 49.472656 158.199219 C 50.734375 154.007812 52.386719 150.234375 54.90625 148.359375 C 55.914062 147.605469 57.175781 147.046875 58.632812 147.046875 C 60.0625 147.019531 61.40625 147.410156 62.613281 148.191406 C 64.292969 149.285156 65.414062 150.933594 66.171875 152.691406 C 67.433594 155.542969 68.105469 158.5625 68.273438 161.832031 C 68.328125 162.921875 68.355469 163.957031 68.382812 164.90625 L 72.363281 165.1875 C 72.476562 163.425781 72.476562 161.609375 72.390625 159.820312 C 72.25 157.027344 71.605469 154.398438 70.515625 151.9375 C 69.394531 149.449219 68.074219 147.71875 66.757812 146.601562 C 63.59375 144.085938 60.453125 143.023438 57.316406 143.078125 C 55.886719 143.105469 54.570312 143.414062 53.367188 144 C 51.9375 144.699219 50.507812 145.875 49.105469 147.691406 C 46.417969 151.070312 44.429688 155.460938 43.140625 161.078125 C 41.878906 166.753906 41.375 172.84375 41.710938 179.386719 C 42.160156 188.21875 44.34375 194.535156 47.789062 198.726562 C 49.554688 200.878906 51.488281 202.390625 53.617188 203.367188 Z M 53.617188 203.367188 " fill-opacity="1" fill-rule="nonzero"/><path fill="#ffc370" d="M 27.503906 145.902344 L 29.046875 153.085938 L 35.828125 155.878906 L 29.496094 159.539062 L 28.933594 166.863281 L 23.46875 161.972656 L 16.324219 163.675781 L 19.296875 156.996094 L 15.429688 150.738281 L 22.742188 151.492188 Z M 27.503906 145.902344 " fill-opacity="1" fill-rule="nonzero"/><path fill="#ffcfcf" d="M 24.367188 169.769531 L 27.308594 172.902344 L 31.566406 172.257812 L 29.496094 176.03125 L 31.425781 179.890625 L 27.195312 179.078125 L 24.113281 182.097656 L 23.582031 177.820312 L 19.742188 175.863281 L 23.667969 174.019531 Z M 24.367188 169.769531 " fill-opacity="1" fill-rule="nonzero"/><path fill="#ffc370" d="M 281.101562 151.210938 L 279.816406 157.222656 L 274.097656 159.570312 L 279.421875 162.671875 L 279.898438 168.792969 L 284.492188 164.683594 L 290.488281 166.136719 L 287.996094 160.519531 L 291.246094 155.265625 L 285.109375 155.878906 Z M 281.101562 151.210938 " fill-opacity="1" fill-rule="nonzero"/><path fill="#ffcfcf" d="M 285.027344 172.035156 L 282.140625 174.914062 L 278.132812 174.160156 L 279.953125 177.765625 L 277.992188 181.34375 L 282.027344 180.726562 L 284.828125 183.691406 L 285.472656 179.664062 L 289.144531 177.933594 L 285.53125 176.058594 Z M 285.027344 172.035156 " fill-opacity="1" fill-rule="nonzero"/></svg>