<?xml version="1.0" encoding="utf-8"?>
<!-- Generator: Adobe Illustrator 27.0.0, SVG Export Plug-In . SVG Version: 6.00 Build 0)  -->
<svg version="1.1" id="Layer_1" xmlns="http://www.w3.org/2000/svg" xmlns:xlink="http://www.w3.org/1999/xlink" x="0px" y="0px"
	 viewBox="0 0 640 360" style="enable-background:new 0 0 640 360;" xml:space="preserve">
<style type="text/css">
	.st0{fill:#FEFEFE;}
	.st1{fill:#89AFC9;}
	.st2{fill:#71A8CE;}
	.st3{fill:#78ADCC;}
	.st4{fill:#78ACD0;}
	.st5{fill:#79ABCD;}
	.st6{fill:#78ADCD;}
	.st7{fill:#7FA3BB;}
	.st8{fill:#879FAE;}
	.st9{fill:#89A6B8;}
	.st10{fill:#89AFCA;}
	.st11{fill:#8CB0C8;}
	.st12{fill:#71A7CE;}
</style>
<g>
	<g>
		<path class="st0" d="M510,352c-126.67,0-253.33,0-380,0c0-114.67,0-229.33,0-344c126.67,0,253.33,0,380,0
			C510,122.67,510,237.33,510,352z M450.02,315.58c10.65-0.02,21.31-0.04,31.96-0.06c1.77-3.34,0.25-4.44-2.98-4.44
			c-8.78,0.01-17.57,0.02-26.35,0C449.1,311.06,448.05,312.42,450.02,315.58z M270.01,31.14c-2-0.04-4.01-0.23-5.98-0.02
			c-0.71,0.08-1.95,1.35-1.83,1.71c0.28,0.87,1.1,1.81,1.94,2.19c0.83,0.38,1.96,0.13,2.96,0.13c70.15,0,140.3,0.01,210.45-0.05
			c1.51,0,3.01-0.72,4.51-1.11c0.01-0.67,0.02-1.33,0.04-2c-1.86-0.34-3.72-0.99-5.58-0.99c-62.69-0.05-125.38-0.05-188.07-0.04
			C282.3,30.98,276.16,31.08,270.01,31.14z M369.41,311.27c-1.53-0.07-2.84-0.18-4.15-0.18c-70.28-0.01-140.56-0.01-210.84,0
			c-1.17,0-2.46-0.26-3.46,0.17c-0.82,0.35-1.78,1.54-1.76,2.34c0.02,0.79,1.05,1.97,1.88,2.24c1.21,0.39,2.63,0.13,3.96,0.13
			c60.45,0,120.91,0,181.36,0c9.83,0,19.65-0.07,29.48,0.04C369.03,316.03,370.84,315.36,369.41,311.27z M414.1,328.53
			c7.95-0.45,15.33-6.81,16.62-14.16c0.81-4.66-1.93-9.93-6.24-11.24c-4.09-1.25-7.57,0.2-9.93,3.69c-2.5,3.7-1.44,7.31,2.88,11.18
			c0.45,0.4,0.68,1.04,1.13,1.76C416.08,322.15,411.46,323.38,414.1,328.53z M388.93,328.44c8.48-0.54,15.54-6.65,16.84-14.4
			c0.77-4.56-1.82-9.06-6.18-10.73c-3.85-1.47-8.22,0.02-10.19,3.75c-2.3,4.37-1.26,7.96,2.94,10.67c0.59,0.38,0.83,1.29,1.36,2.15
			C391.09,322.18,386.37,323.19,388.93,328.44z M241.82,17.82c-3.03,1.55-6.29,2.78-9.05,4.71c-4.99,3.49-7.55,8.37-6.48,14.63
			c0.85,4.93,5.65,8.27,10.21,7.27c4.93-1.08,7.88-5.73,6.11-10.62c-0.82-2.27-3.06-4.02-5.04-6.48
			C241.05,25.5,244.92,23.53,241.82,17.82z M216.77,17.61c-3.48,2.02-7.25,3.68-10.37,6.15c-4.93,3.91-6.44,9.99-4.48,15.2
			c1.53,4.08,5.35,6.26,9.47,5.42c4.49-0.92,7.31-3.96,6.43-8.48c-0.57-2.95-2.97-5.55-4.83-8.79
			C215.15,25.38,220.38,24.08,216.77,17.61z M165.91,30.85c0-0.03,0-0.06,0-0.09c-4.63,0-9.28-0.14-13.9,0.11
			c-0.99,0.05-1.91,1.52-2.86,2.34c0.79,0.81,1.56,2.32,2.37,2.34c9.44,0.16,18.88,0.18,28.32-0.02c0.99-0.02,1.94-1.61,2.91-2.47
			c-1.14-0.73-2.26-2.04-3.44-2.1C174.86,30.7,170.38,30.85,165.91,30.85z"/>
		<path class="st1" d="M369.41,311.27c1.43,4.09-0.38,4.77-3.53,4.73c-9.82-0.11-19.65-0.04-29.48-0.04c-60.45,0-120.91,0-181.36,0
			c-1.33,0-2.76,0.26-3.96-0.13c-0.83-0.27-1.86-1.45-1.88-2.24c-0.02-0.8,0.94-1.99,1.76-2.34c1-0.42,2.29-0.17,3.46-0.17
			c70.28,0,140.56,0,210.84,0C366.58,311.09,367.89,311.2,369.41,311.27z"/>
		<path class="st2" d="M482.1,32c-0.01,0.67-0.02,1.33-0.04,2c-72.46,0-144.91,0-217.37,0c-0.01-0.67-0.01-1.35-0.02-2.02
			c1.78,0,3.56,0,5.33,0C340.71,31.99,411.4,32,482.1,32z"/>
		<path class="st3" d="M414.1,328.53c-2.64-5.14,1.98-6.37,4.47-8.77c-0.45-0.72-0.69-1.36-1.13-1.76
			c-4.32-3.87-5.38-7.48-2.88-11.18c2.36-3.49,5.84-4.94,9.93-3.69c4.3,1.31,7.05,6.59,6.24,11.24
			C429.43,321.72,422.04,328.08,414.1,328.53z"/>
		<path class="st4" d="M388.93,328.44c-2.56-5.25,2.16-6.26,4.77-8.57c-0.52-0.86-0.77-1.77-1.36-2.15
			c-4.19-2.71-5.24-6.3-2.94-10.67c1.96-3.73,6.34-5.22,10.19-3.75c4.35,1.66,6.94,6.16,6.18,10.73
			C404.47,321.79,397.4,327.9,388.93,328.44z"/>
		<path class="st5" d="M241.82,17.82c3.1,5.71-0.77,7.68-4.25,9.51c1.98,2.46,4.21,4.22,5.04,6.48c1.77,4.89-1.18,9.53-6.11,10.62
			c-4.56,1-9.36-2.33-10.21-7.27c-1.07-6.26,1.49-11.14,6.48-14.63C235.54,20.6,238.79,19.37,241.82,17.82z"/>
		<path class="st6" d="M216.77,17.61c3.61,6.47-1.62,7.77-3.78,9.5c1.86,3.25,4.26,5.84,4.83,8.79c0.88,4.52-1.95,7.57-6.43,8.48
			c-4.12,0.84-7.93-1.34-9.47-5.42c-1.96-5.21-0.45-11.29,4.48-15.2C209.53,21.28,213.29,19.63,216.77,17.61z"/>
		<path class="st7" d="M270.01,31.98c-1.78,0-3.56,0-5.33,0c0.01,0.67,0.01,1.35,0.02,2.02c72.46,0,144.91,0,217.37,0
			c-1.5,0.38-3.01,1.1-4.51,1.1c-70.15,0.06-140.3,0.05-210.45,0.05c-1,0-2.13,0.25-2.96-0.13c-0.84-0.38-1.66-1.32-1.94-2.19
			c-0.12-0.36,1.12-1.64,1.83-1.71c1.97-0.21,3.98-0.02,5.98,0.02C270,31.42,270,31.7,270.01,31.98z"/>
		<path class="st8" d="M270.01,31.98c-0.01-0.28-0.01-0.57,0-0.85c6.15-0.06,12.3-0.16,18.45-0.16
			c62.69-0.01,125.38-0.02,188.07,0.04c1.86,0,3.72,0.65,5.58,0.99C411.4,32,340.71,31.99,270.01,31.98z"/>
		<path class="st9" d="M165.91,30.85c4.47,0,8.95-0.15,13.41,0.1c1.18,0.07,2.29,1.37,3.44,2.1c-0.97,0.86-1.93,2.45-2.91,2.47
			c-9.44,0.19-18.88,0.18-28.32,0.02c-0.8-0.01-1.58-1.52-2.37-2.34c0.95-0.82,1.87-2.28,2.86-2.34c4.62-0.25,9.26-0.11,13.9-0.11
			C165.91,30.79,165.91,30.82,165.91,30.85z M177.35,33.49c-0.01-0.34-0.01-0.67-0.02-1.01c-8.21,0-16.42,0-24.63,0
			c0,0.34,0,0.67,0,1.01C160.91,33.49,169.13,33.49,177.35,33.49z"/>
		<path class="st10" d="M450.02,315.58c-1.97-3.16-0.91-4.51,2.63-4.5c8.78,0.02,17.57,0.02,26.35,0c3.23,0,4.76,1.1,2.98,4.44
			c-0.92-0.5-1.84-1.43-2.77-1.44c-8.82-0.11-17.65-0.11-26.47,0C451.83,314.09,450.92,315.05,450.02,315.58z"/>
		<path class="st11" d="M450.02,315.58c0.91-0.52,1.81-1.49,2.72-1.5c8.82-0.11,17.65-0.11,26.47,0c0.93,0.01,1.85,0.94,2.77,1.44
			C471.32,315.54,460.67,315.56,450.02,315.58z"/>
		<path class="st12" d="M177.35,33.49c-8.22,0-16.44,0-24.65,0c0-0.34,0-0.67,0-1.01c8.21,0,16.42,0,24.63,0
			C177.34,32.82,177.34,33.16,177.35,33.49z"/>
	</g>
</g>
</svg>
