<svg xmlns="http://www.w3.org/2000/svg" xmlns:xlink="http://www.w3.org/1999/xlink" width="410" zoomAndPan="magnify" viewBox="0 0 307.5 307.500004" height="410" preserveAspectRatio="xMidYMid meet" version="1.0"><defs><clipPath id="809c4046bb"><path d="M 27.664062 85 L 213 85 L 213 152 L 27.664062 152 Z M 27.664062 85 " clip-rule="nonzero"/></clipPath><clipPath id="242d024dde"><path d="M 247 114 L 279.664062 114 L 279.664062 186 L 247 186 Z M 247 114 " clip-rule="nonzero"/></clipPath></defs><path fill="#88c0fa" d="M 110.226562 270.453125 C 110.667969 270.449219 110.996094 270.246094 111.285156 269.96875 C 112.363281 268.9375 113.25 267.761719 113.867188 266.394531 C 114.058594 265.964844 114.265625 265.523438 114.132812 264.898438 C 113.285156 265.367188 112.753906 266.019531 112.238281 266.683594 C 111.210938 268.011719 110.496094 269.351562 110.226562 270.453125 Z M 185.257812 261.46875 C 182.890625 262.464844 179.316406 266.566406 178.96875 268.59375 C 181.5625 267.546875 184.695312 264.054688 185.257812 261.46875 Z M 135.925781 264.402344 C 135.988281 264.457031 136.046875 264.507812 136.109375 264.558594 C 136.34375 264.359375 136.585938 264.171875 136.808594 263.960938 C 138.773438 262.113281 140.757812 260.285156 142.402344 258.132812 C 144.425781 255.488281 146.5 252.867188 147.933594 249.84375 C 148.929688 247.734375 149.777344 245.546875 150.652344 243.382812 C 150.921875 242.71875 151.109375 242.011719 151.261719 241.3125 C 151.414062 240.625 151.582031 239.925781 151.511719 239.09375 C 151.183594 239.214844 150.902344 239.25 150.71875 239.402344 C 150.238281 239.800781 149.75 240.214844 149.351562 240.695312 C 146.78125 243.777344 144.582031 247.121094 142.496094 250.542969 C 139.914062 254.78125 137.988281 259.34375 136.050781 263.898438 C 135.984375 264.058594 135.964844 264.234375 135.925781 264.402344 Z M 216.25 244.1875 C 215.992188 244.261719 215.816406 244.296875 215.65625 244.363281 C 214.515625 244.851562 213.433594 244.59375 212.414062 244.050781 C 210.304688 242.933594 209.972656 240.675781 210.734375 238.945312 C 210.921875 238.515625 211.21875 238.195312 211.578125 237.914062 C 213.039062 236.765625 214.699219 236.59375 216.441406 236.953125 C 217.660156 237.203125 218.710938 237.820312 219.59375 238.691406 C 220.753906 239.835938 221.695312 241.152344 222.457031 242.597656 C 224.675781 246.820312 225.40625 251.347656 225.253906 256.070312 C 225.078125 261.441406 223.808594 266.582031 222.082031 271.636719 C 220.648438 275.839844 218.636719 279.757812 216.140625 283.425781 C 214.976562 285.136719 213.765625 286.828125 212.074219 288.085938 C 211.496094 288.515625 210.910156 288.941406 210.285156 289.289062 C 208.605469 290.214844 206.8125 290.234375 205.046875 289.65625 C 201.40625 288.460938 198.84375 286.101562 197.59375 282.421875 C 196.695312 279.78125 196.4375 277.058594 196.5 274.292969 C 196.507812 273.949219 196.488281 273.609375 196.476562 273.171875 C 195.992188 273.316406 195.832031 273.652344 195.617188 273.910156 C 193.621094 276.292969 191.683594 278.726562 189.628906 281.054688 C 188.046875 282.835938 186.339844 284.507812 184.652344 286.195312 C 183.273438 287.574219 181.636719 288.640625 179.9375 289.554688 C 178.359375 290.402344 176.683594 291.042969 174.867188 291.300781 C 171.25 291.808594 167.828125 289.957031 166.109375 286.734375 C 165.492188 285.570312 165.113281 284.324219 164.882812 283.03125 C 164.808594 282.636719 164.730469 282.242188 164.65625 281.871094 C 164.1875 281.726562 164.058594 282.09375 163.867188 282.296875 C 162.503906 283.730469 161.175781 285.203125 159.796875 286.621094 C 158.792969 287.652344 157.808594 288.714844 156.566406 289.480469 C 156.109375 289.761719 155.640625 290.035156 155.171875 290.304688 C 152.453125 291.875 148.480469 290.71875 147.179688 287.441406 C 146.589844 285.957031 146.257812 284.429688 146.269531 282.835938 C 146.269531 282.300781 146.269531 281.765625 146.269531 281.25 C 145.835938 281.152344 145.742188 281.464844 145.601562 281.660156 C 143.792969 284.1875 142.019531 286.738281 140.175781 289.242188 C 139.027344 290.800781 137.808594 292.308594 136.5625 293.785156 C 135.269531 295.3125 133.636719 296.425781 131.929688 297.460938 C 128.253906 299.683594 123.910156 297.714844 122.253906 294.925781 C 121.511719 293.679688 120.933594 292.375 120.578125 290.960938 C 120.046875 288.851562 119.808594 286.710938 119.820312 284.535156 C 119.820312 284.269531 119.789062 284.003906 119.761719 283.738281 C 119.757812 283.710938 119.699219 283.6875 119.585938 283.605469 C 119.078125 284 118.683594 284.53125 118.242188 285.023438 C 116.496094 286.972656 114.640625 288.804688 112.503906 290.335938 C 111.308594 291.195312 109.992188 291.757812 108.519531 291.851562 C 107.761719 291.894531 106.96875 291.90625 106.242188 291.726562 C 102.683594 290.859375 100.269531 288.734375 99.25 285.140625 C 98.726562 283.296875 98.605469 281.414062 98.742188 279.511719 C 98.941406 276.71875 99.4375 273.980469 100.292969 271.300781 C 100.949219 269.234375 101.746094 267.238281 102.800781 265.335938 C 104.324219 262.585938 106.460938 260.453125 109.1875 258.898438 C 111.433594 257.617188 113.8125 257.460938 116.226562 258.234375 C 118.707031 259.023438 120.386719 261.664062 120.292969 264.480469 C 120.226562 266.5 119.65625 268.386719 118.648438 270.132812 C 117.832031 271.546875 116.839844 272.824219 115.679688 273.96875 C 113.761719 275.859375 111.402344 276.738281 108.777344 277.023438 C 108.554688 277.046875 108.328125 277.050781 108.105469 277.074219 C 108.0625 277.078125 108.027344 277.109375 107.878906 277.183594 C 107.820312 277.34375 107.691406 277.578125 107.644531 277.828125 C 107.429688 278.984375 107.296875 280.148438 107.40625 281.324219 C 107.523438 282.542969 107.992188 283.578125 108.980469 284.351562 C 109.386719 284.667969 109.78125 284.742188 110.21875 284.472656 C 110.484375 284.308594 110.757812 284.144531 110.992188 283.9375 C 111.367188 283.617188 111.726562 283.273438 112.070312 282.914062 C 115.125 279.726562 117.992188 276.375 120.726562 272.90625 C 121.550781 271.863281 122.113281 270.734375 122.492188 269.453125 C 124.164062 263.785156 126.273438 258.277344 128.699219 252.890625 C 130.800781 248.234375 133.347656 243.84375 136.320312 239.691406 C 137.792969 237.632812 139.488281 235.765625 141.332031 234.039062 C 143.480469 232.023438 146.046875 230.738281 148.847656 229.945312 C 150.34375 229.523438 151.867188 229.589844 153.351562 230.179688 C 154.949219 230.820312 155.996094 232.027344 156.757812 233.496094 C 157.675781 235.265625 157.921875 237.164062 157.734375 239.136719 C 157.53125 241.304688 156.941406 243.386719 156.378906 245.46875 C 155.792969 247.65625 154.773438 249.679688 153.738281 251.675781 C 152.097656 254.839844 150.140625 257.808594 147.957031 260.628906 C 146.605469 262.378906 145.207031 264.082031 143.640625 265.640625 C 140.46875 268.804688 137.0625 271.65625 133.015625 273.648438 C 132.527344 273.886719 132.269531 274.226562 132.113281 274.742188 C 131.023438 278.371094 130.046875 282.027344 129.613281 285.796875 C 129.460938 287.132812 129.539062 288.496094 129.546875 289.847656 C 129.554688 290.296875 129.65625 290.769531 130.179688 290.9375 C 130.710938 291.105469 131.160156 290.90625 131.511719 290.511719 C 132.347656 289.570312 133.25 288.671875 133.988281 287.65625 C 136.539062 284.167969 139.023438 280.632812 141.550781 277.128906 C 144.265625 273.367188 146.988281 269.609375 149.746094 265.878906 C 150.492188 264.875 151.253906 263.867188 152.320312 263.132812 C 153.34375 262.425781 154.421875 262.152344 155.640625 262.390625 C 156.925781 262.636719 158.175781 262.972656 159.355469 263.574219 C 161.183594 264.507812 161.648438 266.226562 161.171875 267.625 C 160.90625 268.390625 160.675781 269.171875 160.34375 269.90625 C 159.46875 271.832031 158.519531 273.726562 157.652344 275.65625 C 156.871094 277.382812 156.238281 279.164062 155.839844 281.023438 C 155.773438 281.320312 155.753906 281.628906 155.6875 282.152344 C 156.105469 281.800781 156.390625 281.609375 156.625 281.363281 C 158.863281 279.023438 161.105469 276.679688 163.109375 274.125 C 164.277344 272.636719 165.511719 271.203125 166.683594 269.722656 C 166.988281 269.34375 167.226562 268.894531 167.425781 268.453125 C 168.378906 266.347656 169.550781 264.371094 170.949219 262.542969 C 172.753906 260.171875 174.757812 257.988281 177.207031 256.242188 C 178.996094 254.960938 180.964844 254.113281 183.105469 253.6875 C 184.253906 253.457031 185.445312 253.484375 186.589844 253.765625 C 188.972656 254.347656 190.335938 256.015625 191.023438 258.253906 C 191.710938 260.503906 191.453125 262.726562 190.441406 264.835938 C 188.617188 268.640625 185.882812 271.578125 182.183594 273.664062 C 180.691406 274.507812 179.128906 274.9375 177.480469 275.210938 C 176.953125 275.296875 176.425781 275.386719 175.863281 275.476562 C 175.117188 277.734375 174.726562 279.976562 174.863281 282.296875 C 174.894531 282.851562 175.066406 283.355469 175.367188 283.824219 C 175.859375 284.585938 176.410156 284.792969 177.1875 284.339844 C 178.082031 283.824219 178.964844 283.261719 179.753906 282.605469 C 181.84375 280.875 183.679688 278.890625 185.453125 276.847656 C 188.34375 273.515625 191.136719 270.09375 193.808594 266.582031 C 195.851562 263.890625 197.914062 261.210938 199.445312 258.175781 C 199.546875 257.976562 199.660156 257.78125 199.773438 257.585938 C 200.5 256.351562 201.542969 255.5625 202.972656 255.339844 C 204.527344 255.097656 206.070312 254.878906 207.667969 255.097656 C 209.554688 255.355469 210.460938 256.445312 210.742188 258.453125 C 210.820312 259.023438 210.761719 259.632812 210.660156 260.203125 C 210.320312 262.0625 209.964844 263.921875 209.554688 265.765625 C 208.84375 268.976562 208.136719 272.191406 207.726562 275.457031 C 207.496094 277.292969 207.410156 279.140625 207.84375 280.96875 C 207.953125 281.417969 208.117188 281.824219 208.472656 282.136719 C 208.933594 282.546875 209.355469 282.566406 209.753906 282.070312 C 210.429688 281.230469 211.089844 280.371094 211.679688 279.464844 C 214.808594 274.664062 216.902344 269.421875 218.203125 263.84375 C 218.804688 261.246094 219.238281 258.628906 219.296875 255.957031 C 219.363281 252.917969 219.128906 249.921875 217.90625 247.082031 C 217.480469 246.089844 217.027344 245.113281 216.25 244.1875 " fill-opacity="1" fill-rule="nonzero"/><path fill="#88c0fa" d="M 188.699219 47.039062 C 188.972656 46.820312 189.121094 46.738281 189.21875 46.617188 C 190.78125 44.640625 192.433594 42.726562 193.871094 40.660156 C 196.527344 36.839844 198.703125 32.746094 200.210938 28.324219 C 200.660156 27.007812 200.984375 25.644531 201.335938 24.296875 C 201.425781 23.957031 201.421875 23.585938 201.402344 23.230469 C 201.382812 22.863281 201.101562 22.671875 200.75 22.714844 C 200.136719 22.789062 199.667969 23.089844 199.257812 23.550781 C 198.207031 24.730469 197.300781 26.015625 196.464844 27.355469 C 195.179688 29.425781 194.144531 31.621094 193.1875 33.863281 C 191.453125 37.925781 190 42.089844 188.824219 46.347656 C 188.78125 46.511719 188.765625 46.679688 188.699219 47.039062 Z M 154.839844 44.628906 C 155.769531 44.273438 156.488281 43.832031 157.148438 43.296875 C 158.945312 41.847656 160.503906 40.15625 162.003906 38.429688 C 163.925781 36.21875 165.566406 33.792969 166.898438 31.167969 C 168.128906 28.742188 169.003906 26.199219 169.550781 23.539062 C 169.640625 23.101562 169.703125 22.648438 169.691406 22.203125 C 169.675781 21.640625 169.210938 21.324219 168.65625 21.441406 C 167.9375 21.589844 167.300781 21.925781 166.75 22.402344 C 166.203125 22.871094 165.667969 23.351562 165.160156 23.859375 C 162.882812 26.144531 161.089844 28.777344 159.632812 31.648438 C 157.675781 35.511719 156.207031 39.574219 154.992188 43.726562 C 154.90625 44.019531 154.890625 44.328125 154.839844 44.628906 Z M 173.320312 71.449219 C 172.960938 71.667969 172.730469 71.789062 172.519531 71.9375 C 169.566406 74.007812 166.503906 75.898438 163.296875 77.542969 C 161.863281 78.28125 160.371094 78.929688 158.851562 79.472656 C 155.304688 80.734375 151.871094 80.226562 148.511719 78.660156 C 144.652344 76.863281 142.25 73.78125 140.675781 69.941406 C 139.941406 68.144531 139.46875 66.265625 139.066406 64.371094 C 138.511719 61.757812 138.261719 59.113281 138.261719 56.453125 C 138.261719 53.65625 138.554688 50.878906 139.105469 48.132812 C 140.117188 43.074219 141.675781 38.203125 143.882812 33.53125 C 145.132812 30.878906 146.539062 28.316406 148.113281 25.851562 C 149.449219 23.761719 150.933594 21.785156 152.601562 19.941406 C 153.753906 18.671875 154.921875 17.4375 156.222656 16.320312 C 158.492188 14.367188 160.992188 12.777344 163.816406 11.777344 C 165.957031 11.015625 168.171875 10.710938 170.460938 10.9375 C 173.335938 11.222656 175.261719 12.757812 176.472656 15.320312 C 177.425781 17.332031 177.636719 19.46875 177.496094 21.652344 C 177.222656 25.886719 176.070312 29.890625 174.25 33.714844 C 172.175781 38.0625 169.378906 41.90625 166.074219 45.394531 C 164.804688 46.742188 163.484375 48.023438 162.074219 49.214844 C 159.671875 51.25 156.914062 52.640625 154 53.753906 C 153.539062 53.929688 153.082031 54.109375 152.5625 54.308594 C 152.480469 54.863281 152.382812 55.390625 152.328125 55.921875 C 152 59.070312 151.949219 62.214844 152.417969 65.355469 C 152.703125 67.269531 153.453125 68.972656 154.625 70.511719 C 155.195312 71.257812 155.898438 71.589844 156.832031 71.566406 C 157.664062 71.546875 158.4375 71.328125 159.164062 70.972656 C 160.175781 70.480469 161.160156 69.9375 162.140625 69.386719 C 165.207031 67.667969 168.136719 65.742188 170.96875 63.664062 C 171.222656 63.480469 171.445312 63.261719 171.707031 63.035156 C 171.707031 62.628906 171.722656 62.226562 171.703125 61.824219 C 171.472656 56.554688 172.195312 51.398438 173.648438 46.339844 C 174.566406 43.140625 175.632812 39.984375 176.867188 36.882812 C 178.183594 33.570312 179.851562 30.429688 181.539062 27.296875 C 183.085938 24.429688 184.960938 21.789062 187.035156 19.292969 C 188.941406 16.996094 191.113281 14.964844 193.75 13.503906 C 195.25 12.667969 196.824219 12.011719 198.523438 11.699219 C 200.367188 11.355469 202.214844 11.402344 204 11.949219 C 206.570312 12.738281 208.113281 14.609375 208.925781 17.097656 C 209.4375 18.65625 209.511719 20.28125 209.402344 21.914062 C 209.191406 25.128906 208.460938 28.234375 207.363281 31.257812 C 205.105469 37.496094 201.792969 43.148438 197.734375 48.371094 C 194.554688 52.464844 191.140625 56.355469 187.421875 59.96875 C 187.007812 60.371094 186.800781 60.792969 186.765625 61.382812 C 186.574219 64.46875 186.84375 67.503906 187.65625 70.484375 C 188.085938 72.058594 188.71875 73.550781 189.535156 74.957031 C 190.101562 75.941406 190.8125 76.808594 191.714844 77.507812 C 193.03125 78.527344 194.0625 78.5625 195.421875 77.640625 C 196.289062 77.054688 196.992188 76.296875 197.585938 75.4375 C 199.738281 72.335938 201.347656 68.984375 202.097656 65.261719 C 202.558594 62.980469 202.550781 60.695312 202.078125 58.417969 C 202 58.019531 201.9375 57.617188 201.90625 57.214844 C 201.84375 56.433594 202.152344 55.792969 202.765625 55.332031 C 203.15625 55.039062 203.585938 54.757812 204.042969 54.59375 C 205.640625 54.023438 207.285156 53.835938 208.949219 54.28125 C 210.644531 54.742188 211.859375 55.851562 212.757812 57.320312 C 213.542969 58.609375 213.941406 60.039062 214.066406 61.542969 C 214.414062 65.824219 213.558594 69.878906 211.664062 73.714844 C 210.15625 76.769531 208.183594 79.511719 205.78125 81.914062 C 203.335938 84.359375 200.515625 86.277344 197.171875 87.304688 C 194.6875 88.066406 192.160156 88.269531 189.566406 87.972656 C 185.136719 87.472656 181.753906 85.207031 178.964844 81.882812 C 176.800781 79.304688 175.175781 76.414062 174.011719 73.257812 C 173.808594 72.710938 173.59375 72.167969 173.320312 71.449219 " fill-opacity="1" fill-rule="nonzero"/><path fill="#88c0fa" d="M 118.882812 57.273438 C 118.957031 56.496094 119.011719 55.867188 119.078125 55.246094 C 119.148438 54.574219 119.222656 53.902344 119.300781 53.230469 C 119.378906 52.605469 119.460938 51.980469 119.546875 51.359375 C 119.636719 50.6875 119.726562 50.019531 119.828125 49.351562 C 119.921875 48.730469 120.027344 48.105469 120.132812 47.488281 C 120.246094 46.820312 120.359375 46.15625 120.476562 45.492188 C 120.59375 44.871094 120.71875 44.253906 120.835938 43.636719 C 120.964844 42.972656 121.085938 42.308594 121.222656 41.648438 C 121.347656 41.03125 121.492188 40.417969 121.625 39.800781 C 121.757812 39.1875 121.871094 38.566406 122.011719 37.953125 C 122.160156 37.296875 122.324219 36.640625 122.492188 35.988281 C 122.648438 35.378906 122.820312 34.769531 122.984375 34.164062 C 123.164062 33.515625 123.34375 32.863281 123.53125 32.214844 C 123.707031 31.609375 123.890625 31.007812 124.078125 30.40625 C 124.28125 29.761719 124.492188 29.121094 124.703125 28.480469 C 124.898438 27.882812 125.085938 27.28125 125.292969 26.6875 C 125.515625 26.050781 125.75 25.417969 125.984375 24.785156 C 126.207031 24.195312 126.429688 23.605469 126.664062 23.019531 C 126.917969 22.394531 127.195312 21.78125 127.445312 21.152344 C 127.667969 20.589844 128.046875 20.074219 128.105469 19.363281 C 127.886719 19.441406 127.738281 19.445312 127.65625 19.523438 C 127.027344 20.101562 126.371094 20.65625 125.796875 21.285156 C 123.050781 24.304688 120.941406 27.746094 119.195312 31.425781 C 117.179688 35.664062 115.667969 40.09375 114.429688 44.605469 C 113.277344 48.8125 112.316406 53.070312 111.273438 57.308594 C 111.238281 57.46875 111.269531 57.644531 111.269531 57.863281 C 113.804688 57.667969 116.292969 57.476562 118.882812 57.273438 Z M 116.289062 89.085938 C 115.097656 88.394531 114.710938 87.234375 114.722656 85.917969 C 114.726562 85.347656 114.863281 84.75 115.058594 84.207031 C 115.832031 82.0625 117.050781 80.273438 119.203125 79.285156 C 119.363281 79.210938 119.511719 79.109375 119.734375 78.980469 C 119.667969 78.769531 119.636719 78.554688 119.542969 78.371094 C 118.339844 75.984375 117.886719 73.425781 117.832031 70.789062 C 117.804688 69.441406 117.890625 68.085938 117.917969 66.734375 C 117.925781 66.386719 117.90625 66.035156 117.894531 65.621094 C 117.558594 65.621094 117.296875 65.585938 117.046875 65.628906 C 115.050781 65.957031 113.050781 66.273438 111.0625 66.644531 C 110.316406 66.785156 109.589844 67.050781 108.859375 67.269531 C 108.351562 67.421875 108.027344 67.753906 107.84375 68.265625 C 107.523438 69.15625 107.15625 70.027344 106.820312 70.910156 C 105.328125 74.800781 103.359375 78.429688 101.046875 81.886719 C 99.738281 83.839844 98.191406 85.585938 96.574219 87.285156 C 95.644531 88.257812 94.757812 89.269531 93.640625 90.046875 C 92.761719 90.664062 91.925781 91.371094 90.992188 91.890625 C 88.863281 93.078125 86.648438 94.027344 84.183594 94.335938 C 81.738281 94.644531 79.328125 94.550781 76.949219 93.96875 C 74.363281 93.335938 71.867188 92.433594 69.621094 90.957031 C 65.933594 88.527344 63.101562 85.339844 61.09375 81.394531 C 58.980469 77.238281 58.164062 72.8125 58.210938 68.195312 C 58.226562 66.398438 58.273438 64.589844 58.445312 62.800781 C 58.941406 57.625 60.714844 52.90625 63.691406 48.644531 C 65.617188 45.890625 67.878906 43.4375 70.667969 41.554688 C 75.441406 38.335938 80.660156 37.203125 86.347656 38.441406 C 88.453125 38.898438 90.347656 39.734375 92.089844 41.003906 C 94.242188 42.574219 95.632812 44.675781 96.585938 47.117188 C 97.164062 48.597656 97.507812 50.136719 97.613281 51.714844 C 97.898438 55.988281 97.460938 60.183594 96.027344 64.230469 C 94.847656 67.566406 93.269531 70.71875 90.863281 73.332031 C 88.644531 75.738281 85.929688 77.226562 82.507812 76.992188 C 81.503906 76.921875 80.554688 76.65625 79.636719 76.28125 C 78.648438 75.878906 77.902344 75.167969 77.316406 74.285156 C 76.59375 73.191406 76.351562 71.964844 76.359375 70.683594 C 76.363281 69.730469 76.796875 69.042969 77.765625 68.785156 C 80.035156 68.179688 81.601562 66.632812 82.867188 64.792969 C 84.835938 61.941406 86.136719 58.785156 86.691406 55.351562 C 86.964844 53.652344 86.996094 51.9375 86.535156 50.257812 C 86.277344 49.328125 85.882812 48.488281 85 47.960938 C 84.433594 47.625 83.847656 47.464844 83.195312 47.550781 C 82.113281 47.691406 81.097656 48.003906 80.164062 48.597656 C 78.8125 49.457031 77.71875 50.574219 76.792969 51.867188 C 75.898438 53.121094 75.179688 54.472656 74.582031 55.886719 C 73.042969 59.527344 72.1875 63.324219 71.894531 67.265625 C 71.667969 70.304688 71.859375 73.300781 72.539062 76.261719 C 73.050781 78.480469 73.886719 80.5625 75.449219 82.277344 C 76.644531 83.59375 78.039062 84.628906 79.675781 85.351562 C 81.167969 86.007812 82.71875 86.152344 84.300781 85.847656 C 86.273438 85.464844 88.050781 84.664062 89.578125 83.292969 C 92.078125 81.054688 94.167969 78.5 95.917969 75.628906 C 98.519531 71.363281 100.277344 66.75 101.851562 62.046875 C 103.3125 57.683594 104.363281 53.210938 105.4375 48.746094 C 106.4375 44.582031 107.511719 40.441406 108.945312 36.402344 C 109.773438 34.066406 110.589844 31.730469 111.609375 29.46875 C 113.109375 26.128906 114.863281 22.929688 116.96875 19.945312 C 119.191406 16.800781 121.742188 13.949219 125.03125 11.875 C 127.394531 10.382812 129.863281 9.105469 132.609375 8.425781 C 134.082031 8.066406 135.554688 8.015625 137.027344 8.265625 C 138.265625 8.476562 139.320312 9.121094 140.058594 10.136719 C 140.640625 10.929688 141.121094 11.8125 141.535156 12.707031 C 141.976562 13.671875 141.992188 14.734375 141.789062 15.761719 C 141.488281 17.261719 141.1875 18.769531 140.746094 20.230469 C 139.804688 23.332031 138.765625 26.402344 137.984375 29.550781 C 136.789062 34.359375 135.507812 39.148438 134.445312 43.984375 C 133.523438 48.203125 132.710938 52.449219 132.140625 56.742188 C 131.660156 60.320312 131.355469 63.910156 131.292969 67.511719 C 131.257812 69.539062 131.289062 71.570312 131.609375 73.582031 C 131.882812 75.296875 132.53125 76.867188 133.457031 78.328125 C 133.917969 79.0625 134.496094 79.6875 135.335938 80.011719 C 135.378906 80.027344 135.421875 80.042969 135.460938 80.066406 C 136.597656 80.6875 136.867188 81.597656 136.148438 82.636719 C 135.320312 83.835938 134.285156 84.8125 132.929688 85.4375 C 131.726562 85.992188 130.460938 86.269531 129.15625 86.382812 C 127.679688 86.511719 126.195312 86.601562 124.71875 86.714844 C 121.863281 86.933594 119.109375 87.503906 116.617188 89.007812 C 116.546875 89.050781 116.449219 89.050781 116.289062 89.085938 " fill-opacity="1" fill-rule="nonzero"/><path fill="#88c0fa" d="M 75.148438 253.933594 C 73.410156 254.203125 71.757812 255.648438 71.4375 257.066406 C 71.386719 257.296875 71.292969 257.589844 71.695312 257.796875 C 73.128906 256.867188 74.195312 255.574219 75.148438 253.933594 Z M 69.035156 250.292969 C 69.902344 249.75 70.597656 249.265625 71.339844 248.863281 C 72.085938 248.457031 72.867188 248.09375 73.660156 247.785156 C 74.453125 247.472656 75.273438 247.210938 76.097656 247 C 76.917969 246.792969 77.757812 246.675781 78.613281 246.515625 C 78.722656 246.167969 78.835938 245.875 78.90625 245.574219 C 79.511719 243.011719 79.726562 240.414062 79.5 237.789062 C 79.359375 236.15625 78.859375 234.617188 78.078125 233.175781 C 77.199219 231.550781 76.039062 230.191406 74.269531 229.503906 C 73.523438 229.214844 72.738281 228.976562 71.949219 228.84375 C 69.832031 228.492188 67.730469 228.636719 65.699219 229.371094 C 63.546875 230.148438 61.726562 231.449219 60.179688 233.132812 C 60.085938 233.238281 59.863281 233.347656 60.089844 233.609375 C 60.515625 233.402344 60.957031 233.195312 61.390625 232.980469 C 62.761719 232.3125 64.203125 232.046875 65.71875 232.210938 C 66.832031 232.332031 67.773438 232.777344 68.542969 233.621094 C 69.429688 234.59375 69.933594 235.738281 70.054688 237.015625 C 70.171875 238.269531 70.214844 239.535156 70.1875 240.792969 C 70.128906 243.59375 69.691406 246.351562 69.175781 249.097656 C 69.113281 249.433594 69.09375 249.777344 69.035156 250.292969 Z M 87.875 248.0625 C 88.257812 248.507812 88.785156 248.679688 89.25 248.9375 C 90.957031 249.882812 92.53125 251.007812 93.769531 252.527344 C 96.304688 255.640625 97.945312 259.128906 98.15625 263.210938 C 98.398438 267.902344 97.800781 272.472656 96.25 276.910156 C 95.597656 278.789062 94.726562 280.570312 93.632812 282.234375 C 92.199219 284.414062 90.695312 286.542969 88.882812 288.449219 C 87.785156 289.601562 86.585938 290.605469 85.277344 291.484375 C 82.789062 293.15625 80.121094 294.453125 77.175781 295.0625 C 74.121094 295.691406 71.105469 295.664062 68.21875 294.214844 C 66.503906 293.351562 64.964844 292.296875 63.773438 290.78125 C 61.613281 288.035156 60.804688 284.933594 61.507812 281.507812 C 62.050781 278.871094 63.078125 276.429688 64.964844 274.441406 C 67.785156 271.464844 71.238281 270.101562 75.316406 270.65625 C 78.167969 271.042969 80.332031 272.554688 81.605469 275.203125 C 82.277344 276.597656 82.429688 278.058594 82.011719 279.546875 C 81.265625 282.175781 79.734375 284.121094 77.085938 285.046875 C 75.886719 285.46875 74.679688 285.359375 73.386719 284.707031 C 73.375 284.484375 73.367188 284.222656 73.339844 283.964844 C 73.167969 282.101562 71.449219 280.800781 69.628906 281.117188 C 68.964844 281.234375 68.429688 281.539062 68.0625 282.078125 C 67.292969 283.199219 67.089844 284.414062 67.757812 285.644531 C 68.726562 287.421875 70.210938 288.386719 72.28125 288.207031 C 74.867188 287.976562 77.160156 287 79.105469 285.273438 C 79.746094 284.707031 80.351562 284.09375 80.910156 283.449219 C 81.378906 282.910156 81.824219 282.324219 82.164062 281.699219 C 84.34375 277.660156 85.867188 273.382812 86.445312 268.820312 C 86.738281 266.496094 86.804688 264.148438 86.300781 261.824219 C 85.898438 259.980469 85.011719 258.375 83.933594 256.859375 C 83.832031 256.714844 83.691406 256.59375 83.554688 256.480469 C 83.492188 256.433594 83.390625 256.425781 83.230469 256.378906 C 83.007812 256.667969 82.757812 256.972656 82.519531 257.289062 C 81.214844 259.015625 79.816406 260.660156 78.15625 262.0625 C 76.839844 263.175781 75.433594 264.152344 73.800781 264.722656 C 73 265.003906 72.167969 265.257812 71.328125 265.371094 C 69.777344 265.578125 68.40625 265.058594 67.199219 264.089844 C 66.921875 263.867188 66.675781 263.609375 66.335938 263.292969 C 66.214844 263.609375 66.085938 263.835938 66.039062 264.078125 C 65.5 266.910156 64.957031 269.742188 64.453125 272.578125 C 64.347656 273.171875 64.1875 273.691406 63.8125 274.175781 C 62.390625 276.011719 61.371094 278.0625 60.777344 280.3125 C 60.515625 281.308594 60.355469 282.332031 60.140625 283.378906 C 58.476562 284.40625 56.550781 284.5 54.824219 283.613281 C 54.664062 283.527344 54.507812 283.433594 54.34375 283.367188 C 53.253906 282.933594 52.585938 282.097656 52.296875 281.007812 C 52.042969 280.054688 51.855469 279.070312 51.773438 278.089844 C 51.582031 275.738281 51.941406 273.417969 52.378906 271.113281 C 53.050781 267.566406 54.074219 264.113281 55.035156 260.640625 C 56.382812 255.777344 57.617188 250.890625 58.167969 245.859375 C 58.375 243.980469 58.585938 242.097656 58.8125 240.21875 C 59.011719 238.601562 58.832031 237 58.695312 235.242188 C 58.480469 235.425781 58.328125 235.507812 58.25 235.636719 C 55.636719 239.667969 53.949219 244.046875 53.449219 248.84375 C 53.324219 250.046875 53.324219 251.273438 53.390625 252.484375 C 53.46875 253.898438 53.855469 255.238281 54.804688 256.355469 C 54.917969 256.488281 54.992188 256.65625 55.132812 256.886719 C 54.40625 259.710938 53.660156 262.574219 52.703125 265.386719 C 50.808594 265.8125 49.246094 265.335938 47.988281 263.964844 C 46.59375 262.445312 45.652344 260.675781 45.238281 258.628906 C 44.292969 253.933594 44.582031 249.304688 45.976562 244.742188 C 47.375 240.167969 49.550781 236.011719 52.546875 232.269531 C 54.5 229.824219 56.609375 227.585938 59.203125 225.808594 C 63.273438 223.019531 67.75 221.433594 72.695312 221.261719 C 74.539062 221.195312 76.378906 221.273438 78.207031 221.621094 C 81.570312 222.265625 84.328125 223.898438 86.449219 226.597656 C 88.15625 228.769531 89.226562 231.199219 89.5625 233.964844 C 90.070312 238.109375 89.597656 242.144531 88.414062 246.121094 C 88.222656 246.757812 87.902344 247.363281 87.875 248.0625 " fill-opacity="1" fill-rule="nonzero"/><path fill="#88c0fa" d="M 151.871094 214.660156 C 151.601562 214.554688 151.480469 214.480469 151.355469 214.464844 C 149.183594 214.1875 147.050781 214.445312 144.941406 214.953125 C 144.511719 215.058594 144.09375 215.273438 143.71875 215.511719 C 143.425781 215.695312 143.160156 215.964844 142.96875 216.253906 C 142.539062 216.914062 142.6875 217.59375 143.363281 217.996094 C 144.191406 218.488281 145.089844 218.707031 146.074219 218.535156 C 147.613281 218.261719 148.941406 217.523438 150.222656 216.675781 C 150.960938 216.191406 151.46875 215.535156 151.871094 214.660156 Z M 165.699219 211 C 165.90625 211.148438 166.007812 211.246094 166.125 211.296875 C 170.058594 212.964844 173.996094 214.625 177.933594 216.289062 C 181.242188 217.695312 184.566406 219.078125 187.988281 220.195312 C 188.542969 220.375 189.066406 220.652344 189.617188 220.847656 C 191.816406 221.640625 194.011719 222.441406 196.222656 223.195312 C 198.648438 224.023438 201.085938 224.824219 203.53125 225.597656 C 206.359375 226.492188 209.203125 227.347656 212.117188 227.941406 C 213.789062 228.277344 215.449219 228.691406 217.117188 229.054688 C 219.761719 229.628906 222.441406 229.886719 225.136719 230.121094 C 228.058594 230.375 230.980469 230.375 233.902344 230.316406 C 237.289062 230.25 240.636719 229.886719 243.902344 228.945312 C 247.664062 227.867188 251.101562 226.121094 254.210938 223.75 C 256.160156 222.265625 257.722656 220.390625 259.199219 218.457031 C 261.105469 215.964844 262.566406 213.238281 263.398438 210.195312 C 263.789062 208.757812 264.097656 207.300781 264.214844 205.820312 C 264.402344 203.449219 264.121094 201.140625 263.121094 198.953125 C 263.070312 198.839844 263.058594 198.703125 263.019531 198.542969 C 263.121094 198.457031 263.214844 198.351562 263.328125 198.285156 C 264.851562 197.417969 266.382812 196.558594 267.980469 195.65625 C 268.191406 195.917969 268.421875 196.125 268.558594 196.386719 C 269.144531 197.511719 269.464844 198.726562 269.730469 199.96875 C 270.660156 204.28125 270.089844 208.484375 268.847656 212.636719 C 267.695312 216.492188 265.679688 219.886719 263.175781 223 C 261.933594 224.542969 260.617188 226.023438 259.136719 227.351562 C 257.515625 228.800781 255.683594 229.949219 253.832031 231.058594 C 251.941406 232.195312 249.945312 233.121094 247.867188 233.882812 C 244.117188 235.257812 240.253906 235.996094 236.269531 236.199219 C 232.445312 236.394531 228.625 236.3125 224.804688 236.09375 C 220.652344 235.855469 216.589844 235.132812 212.542969 234.25 C 207.699219 233.195312 202.972656 231.746094 198.257812 230.238281 C 197.1875 229.894531 196.140625 229.476562 195.070312 229.132812 C 194.128906 228.832031 193.15625 228.625 192.222656 228.308594 C 190.433594 227.695312 188.648438 227.078125 186.890625 226.382812 C 182.628906 224.691406 178.390625 222.9375 174.128906 221.242188 C 170.371094 219.742188 166.59375 218.285156 162.824219 216.8125 C 162.746094 216.78125 162.652344 216.789062 162.46875 216.761719 C 162.332031 216.914062 162.132812 217.089844 161.992188 217.304688 C 160.300781 219.859375 158.144531 221.957031 155.660156 223.707031 C 151.726562 226.480469 147.394531 227.339844 142.703125 226.160156 C 141.527344 225.863281 140.386719 225.441406 139.296875 224.890625 C 137.410156 223.945312 136.230469 222.378906 135.546875 220.464844 C 134.148438 216.535156 135.117188 213.09375 137.992188 210.183594 C 139.246094 208.910156 140.847656 208.140625 142.550781 207.640625 C 145.554688 206.761719 148.621094 206.378906 151.757812 206.695312 C 152.734375 206.792969 153.710938 206.898438 154.71875 207.003906 C 155.027344 206.441406 155.074219 205.855469 155.113281 205.28125 C 155.503906 199.640625 154.679688 194.234375 152.027344 189.171875 C 151.371094 187.921875 150.5 186.835938 149.652344 185.730469 C 148.335938 184.011719 146.957031 182.34375 145.667969 180.609375 C 143.726562 178.003906 142.019531 175.246094 140.878906 172.179688 C 140.296875 170.613281 139.898438 168.992188 139.617188 167.347656 C 139.296875 165.480469 139.066406 163.605469 139.121094 161.703125 C 139.207031 158.675781 139.894531 155.796875 141.277344 153.121094 C 142.71875 150.324219 144.789062 148.125 147.777344 146.910156 C 148.234375 146.726562 148.65625 146.457031 149.109375 146.261719 C 152.296875 144.917969 155.527344 145.085938 158.753906 146.070312 C 160.0625 146.46875 161.191406 147.238281 162.15625 148.207031 C 164.46875 150.539062 165.972656 153.332031 166.664062 156.527344 C 167 158.074219 167.019531 159.660156 166.808594 161.238281 C 166.5625 163.074219 166.25 164.894531 165.4375 166.582031 C 165.167969 167.144531 164.863281 167.710938 164.488281 168.207031 C 163.394531 169.65625 161.632812 170.253906 159.917969 169.71875 C 158.121094 169.15625 156.605469 168.121094 155.367188 166.691406 C 154.367188 165.535156 154.273438 164.265625 154.996094 162.933594 C 155.316406 162.339844 155.683594 161.769531 156.003906 161.175781 C 156.679688 159.929688 157.125 158.617188 157.082031 157.179688 C 157.070312 156.820312 157.050781 156.453125 156.964844 156.105469 C 156.390625 153.761719 154.585938 153.445312 153.050781 153.914062 C 151.691406 154.328125 150.738281 155.171875 150.296875 156.625 C 149.558594 159.058594 149.59375 161.410156 150.613281 163.746094 C 151.320312 165.363281 152.171875 166.882812 153.191406 168.328125 C 154.992188 170.886719 157.175781 173.097656 159.367188 175.300781 C 161.15625 177.09375 162.726562 179.050781 164.160156 181.140625 C 165.964844 183.78125 167.148438 186.675781 167.824219 189.789062 C 168.433594 192.617188 168.738281 195.476562 168.636719 198.378906 C 168.5 202.195312 167.773438 205.886719 166.335938 209.425781 C 166.132812 209.925781 165.929688 210.425781 165.699219 211 " fill-opacity="1" fill-rule="nonzero"/><path fill="#88c0fa" d="M 47.941406 200.835938 C 48.207031 200.773438 48.515625 200.746094 48.777344 200.625 C 51.1875 199.476562 52.976562 197.683594 54.054688 195.246094 C 55 193.097656 55.632812 190.84375 56.050781 188.527344 C 56.53125 185.855469 56.667969 183.152344 56.726562 180.453125 C 56.785156 177.789062 56.53125 175.140625 56.003906 172.527344 C 55.71875 171.109375 55.3125 169.730469 54.652344 168.433594 C 54.15625 167.453125 53.507812 166.601562 52.640625 165.925781 C 51.367188 164.9375 49.65625 164.628906 48.164062 165.148438 C 48.144531 165.34375 48.097656 165.5625 48.097656 165.78125 C 47.988281 177.359375 47.882812 188.941406 47.78125 200.519531 C 47.78125 200.59375 47.855469 200.671875 47.941406 200.835938 Z M 47.683594 211.367188 C 47.664062 211.925781 47.640625 212.371094 47.636719 212.820312 C 47.578125 217.867188 47.523438 222.914062 47.472656 227.960938 C 47.464844 228.683594 47.5 229.402344 47.488281 230.125 C 47.480469 230.617188 47.464844 231.121094 47.378906 231.605469 C 47.246094 232.34375 46.824219 232.921875 46.191406 233.335938 C 46.007812 233.460938 45.808594 233.578125 45.597656 233.65625 C 42.535156 234.78125 39.421875 235.613281 36.109375 235.207031 C 35.664062 235.152344 35.222656 235.054688 34.785156 234.941406 C 33.855469 234.703125 33.335938 234.074219 33.207031 233.136719 C 33.144531 232.691406 33.113281 232.238281 33.109375 231.789062 C 33.089844 228.996094 33.078125 226.199219 33.0625 223.40625 C 33.035156 217.90625 33.011719 212.410156 32.976562 206.910156 C 32.960938 204.164062 32.882812 201.414062 32.910156 198.667969 C 32.960938 193.214844 33.0625 187.765625 33.15625 182.3125 C 33.234375 177.714844 33.339844 173.121094 33.414062 168.527344 C 33.429688 167.535156 33.40625 166.542969 33.324219 165.554688 C 33.183594 163.867188 33.789062 162.613281 35.175781 161.621094 C 38.097656 159.527344 41.238281 157.910156 44.757812 157.117188 C 46.777344 156.660156 48.839844 156.476562 50.90625 156.332031 C 53.585938 156.144531 56.207031 156.457031 58.757812 157.269531 C 59.910156 157.636719 61.046875 158.082031 62.144531 158.59375 C 64.546875 159.71875 66.261719 161.589844 67.636719 163.820312 C 69.792969 167.324219 70.726562 171.1875 71.019531 175.234375 C 71.097656 176.308594 71 177.394531 70.996094 178.476562 C 70.988281 181.546875 70.828125 184.601562 70.375 187.640625 C 69.539062 193.289062 67.429688 198.410156 63.882812 202.875 C 61.15625 206.3125 57.578125 208.609375 53.449219 210.050781 C 51.832031 210.613281 50.191406 211.082031 48.46875 211.207031 C 48.25 211.226562 48.035156 211.292969 47.683594 211.367188 " fill-opacity="1" fill-rule="nonzero"/><path fill="#88c0fa" d="M 257.597656 95.4375 C 258.683594 94.78125 259.277344 93.792969 259.820312 92.777344 C 260.105469 92.242188 260.394531 91.671875 260.179688 90.992188 C 258.816406 91.832031 257.742188 93.675781 257.597656 95.4375 Z M 221.761719 78.316406 C 221.550781 79.621094 221.796875 81 222.507812 82.292969 C 222.789062 82.808594 223.003906 83.433594 223.785156 83.675781 C 223.699219 82.601562 223.546875 81.636719 223.320312 80.683594 C 223.214844 80.253906 223.121094 79.8125 222.953125 79.402344 C 222.75 78.914062 222.464844 78.46875 221.761719 78.316406 Z M 201.074219 106.707031 C 201.164062 106.558594 201.265625 106.417969 201.34375 106.265625 C 202.699219 103.585938 203.992188 100.871094 205.675781 98.375 C 205.75 98.261719 205.816406 98.144531 205.882812 98.027344 C 206.050781 97.722656 206.042969 97.429688 205.804688 97.160156 C 205.550781 96.867188 205.230469 96.910156 204.945312 97.046875 C 204.03125 97.46875 203.292969 98.105469 202.746094 98.960938 C 201.933594 100.230469 201.5 101.640625 201.242188 103.105469 C 201.03125 104.285156 200.78125 105.46875 201.074219 106.707031 Z M 229.894531 86.734375 C 231.046875 86.851562 232.070312 86.976562 233.097656 87.054688 C 234.488281 87.160156 235.882812 87.195312 237.269531 87.320312 C 237.886719 87.378906 238.507812 87.546875 239.101562 87.738281 C 240.542969 88.203125 241.710938 89.132812 242.84375 90.097656 C 243.777344 90.894531 244.085938 91.945312 243.921875 93.144531 C 243.710938 94.675781 243.15625 96.101562 242.574219 97.523438 C 241.996094 98.9375 241.386719 100.34375 240.867188 101.785156 C 240.136719 103.820312 239.570312 105.910156 239.246094 108.050781 C 239.132812 108.792969 239.011719 109.546875 239.140625 110.285156 C 239.5 110.402344 239.589844 110.144531 239.71875 109.988281 C 242.222656 107.035156 244.714844 104.074219 247.222656 101.121094 C 247.621094 100.65625 247.820312 100.160156 247.859375 99.539062 C 248.0625 96.054688 249.160156 92.835938 250.855469 89.808594 C 251.949219 87.855469 253.4375 86.238281 255.242188 84.921875 C 257.027344 83.613281 258.984375 83.011719 261.210938 83.394531 C 261.988281 83.527344 262.679688 83.796875 263.304688 84.261719 C 265.023438 85.550781 265.949219 87.296875 266.1875 89.410156 C 266.617188 93.1875 265.191406 96.289062 262.636719 98.949219 C 261.347656 100.289062 259.878906 101.394531 258.175781 102.171875 C 257.894531 102.296875 257.632812 102.460938 257.320312 102.628906 C 257.523438 103.75 258.011719 104.699219 258.707031 105.535156 C 259.394531 106.355469 260.117188 106.488281 261.117188 105.988281 C 262.292969 105.398438 263.351562 104.640625 264.285156 103.710938 C 264.570312 103.425781 264.851562 103.132812 265.128906 102.835938 C 266.066406 101.847656 267.21875 101.484375 268.554688 101.65625 C 268.6875 101.675781 268.828125 101.695312 268.945312 101.75 C 270.222656 102.378906 270.875 104.066406 270.328125 105.457031 C 270.117188 105.996094 269.816406 106.519531 269.457031 106.972656 C 267.820312 109.042969 265.824219 110.707031 263.527344 112.007812 C 262.613281 112.527344 261.621094 112.808594 260.578125 112.886719 C 256.3125 113.203125 252.820312 111.742188 250.160156 108.359375 C 249.996094 108.148438 249.828125 107.945312 249.609375 107.671875 C 249.347656 107.914062 249.101562 108.09375 248.910156 108.320312 C 247.054688 110.523438 245.210938 112.738281 243.359375 114.941406 C 242.34375 116.152344 241.296875 117.328125 240.027344 118.28125 C 239.109375 118.972656 238.074219 119.398438 236.964844 119.632812 C 236.066406 119.816406 235.171875 119.765625 234.3125 119.394531 C 231.828125 118.304688 229.996094 116.621094 229.46875 113.84375 C 229.171875 112.289062 229.160156 110.714844 229.3125 109.128906 C 229.671875 105.421875 230.726562 101.890625 231.96875 98.40625 C 232.484375 96.96875 233.113281 95.570312 233.6875 94.152344 C 233.804688 93.867188 233.910156 93.578125 234.042969 93.226562 C 233.773438 93.148438 233.570312 93.046875 233.359375 93.03125 C 232.023438 92.921875 230.683594 92.832031 229.34375 92.734375 C 228.90625 93.570312 228.90625 94.445312 228.742188 95.269531 C 227.6875 100.507812 226.054688 105.535156 223.660156 110.324219 C 222.75 112.152344 221.761719 113.910156 220.421875 115.441406 C 219.835938 116.109375 219.125 116.6875 218.417969 117.234375 C 217.484375 117.953125 216.386719 118.199219 215.226562 118.050781 C 211.378906 117.5625 209.117188 115.0625 208.4375 112.011719 C 208.210938 111.007812 208.15625 109.960938 208.078125 108.933594 C 208.027344 108.21875 208.066406 107.496094 208.066406 106.796875 C 207.621094 106.664062 207.570312 107 207.464844 107.214844 C 206.472656 109.238281 205.503906 111.269531 204.507812 113.285156 C 203.910156 114.496094 203.277344 115.6875 202.433594 116.757812 C 201.808594 117.550781 201.042969 118.164062 200.1875 118.671875 C 199.203125 119.257812 198.15625 119.320312 197.070312 118.957031 C 195.027344 118.285156 193.800781 116.792969 193.023438 114.882812 C 192.054688 112.476562 191.550781 109.972656 191.550781 107.367188 C 191.550781 103.347656 192.5 99.617188 194.792969 96.261719 C 196.257812 94.117188 198.195312 92.554688 200.503906 91.441406 C 202.617188 90.421875 204.847656 90.34375 207.097656 90.875 C 207.929688 91.074219 208.703125 91.457031 209.359375 92.035156 C 209.59375 92.238281 209.855469 92.410156 210.121094 92.609375 C 210.421875 92.4375 210.699219 92.289062 210.964844 92.125 C 212.171875 91.382812 213.429688 91.382812 214.71875 91.875 C 215.574219 92.203125 216.3125 92.71875 216.9375 93.378906 C 217.503906 93.976562 217.90625 94.679688 217.953125 95.527344 C 217.980469 96.066406 217.992188 96.609375 217.921875 97.140625 C 217.785156 98.214844 217.597656 99.28125 217.417969 100.34375 C 217.058594 102.476562 216.683594 104.609375 216.699219 106.785156 C 216.703125 107.503906 216.683594 108.230469 217.132812 108.964844 C 217.300781 108.839844 217.5 108.75 217.613281 108.601562 C 218.957031 106.8125 219.78125 104.761719 220.535156 102.6875 C 221.648438 99.636719 222.511719 96.511719 223.101562 93.316406 C 223.175781 92.917969 223.222656 92.515625 223.261719 92.113281 C 223.269531 91.988281 223.214844 91.851562 223.175781 91.664062 C 222.691406 91.484375 222.191406 91.292969 221.6875 91.121094 C 219.894531 90.507812 218.171875 89.75 216.59375 88.675781 C 214.976562 87.570312 213.578125 86.265625 212.671875 84.484375 C 210.910156 81.015625 211.402344 77.761719 213.628906 74.710938 C 214.621094 73.351562 215.941406 72.316406 217.4375 71.535156 C 218.90625 70.765625 220.464844 70.410156 222.128906 70.578125 C 223.332031 70.699219 224.378906 71.148438 225.285156 71.957031 C 226.242188 72.804688 227.03125 73.773438 227.621094 74.90625 C 228.414062 76.433594 228.949219 78.046875 229.277344 79.742188 C 229.65625 81.699219 229.835938 83.664062 229.8125 85.652344 C 229.808594 85.964844 229.859375 86.273438 229.894531 86.734375 " fill-opacity="1" fill-rule="nonzero"/><g clip-path="url(#809c4046bb)"><path fill="#88c0fa" d="M 44.453125 91.179688 C 44.429688 91.492188 44.375 91.703125 44.398438 91.902344 C 44.53125 92.929688 44.652344 93.960938 44.835938 94.976562 C 45.617188 99.292969 46.898438 103.460938 48.601562 107.503906 C 49.175781 108.871094 49.714844 110.257812 50.207031 111.65625 C 50.460938 112.375 50.609375 113.132812 50.75 113.886719 C 51.027344 115.378906 50.714844 116.769531 49.789062 117.96875 C 49.15625 118.78125 48.453125 119.554688 47.714844 120.273438 C 45.648438 122.296875 43.367188 124.042969 40.902344 125.558594 C 38.523438 127.019531 36.175781 128.519531 33.8125 130.007812 C 33.625 130.125 33.445312 130.257812 33.28125 130.371094 C 33.226562 130.839844 33.546875 131.054688 33.792969 131.296875 C 35.144531 132.636719 36.660156 133.761719 38.25 134.792969 C 39.421875 135.550781 40.613281 136.273438 41.792969 137.027344 C 43.277344 137.976562 44.875 138.695312 46.496094 139.375 C 49.273438 140.542969 52.042969 141.726562 54.914062 142.660156 C 58.257812 143.75 61.695312 144.464844 65.140625 145.117188 C 68.011719 145.660156 70.894531 146.160156 73.789062 146.578125 C 76.011719 146.902344 78.253906 147.125 80.496094 147.296875 C 82.960938 147.488281 85.433594 147.625 87.90625 147.679688 C 90.378906 147.738281 92.859375 147.738281 95.328125 147.632812 C 98.925781 147.484375 102.523438 147.296875 106.105469 146.96875 C 109.015625 146.703125 111.914062 146.265625 114.800781 145.808594 C 120.226562 144.953125 125.550781 143.625 130.859375 142.230469 C 137.214844 140.558594 143.507812 138.695312 149.746094 136.640625 C 153.417969 135.429688 157.109375 134.285156 160.761719 133.007812 C 164.539062 131.691406 168.292969 130.300781 172.023438 128.851562 C 175.964844 127.320312 179.890625 125.753906 184.015625 124.761719 C 187.300781 123.972656 190.59375 123.261719 193.988281 123.179688 C 197.160156 123.101562 200.28125 123.394531 203.335938 124.273438 C 205.820312 124.992188 208.144531 126.046875 210.1875 127.660156 C 210.933594 128.25 211.652344 128.871094 212.089844 129.738281 C 212.269531 130.097656 212.441406 130.472656 212.542969 130.859375 C 212.8125 131.914062 212.40625 132.730469 211.445312 133.175781 C 210.503906 133.609375 209.484375 133.414062 208.976562 132.496094 C 208.164062 131.019531 206.804688 130.238281 205.429688 129.492188 C 203.554688 128.480469 201.519531 127.898438 199.417969 127.558594 C 196.058594 127.015625 192.714844 127.136719 189.359375 127.730469 C 185.222656 128.464844 181.210938 129.597656 177.296875 131.105469 C 173.390625 132.605469 169.492188 134.125 165.566406 135.566406 C 162.824219 136.574219 160.050781 137.503906 157.273438 138.410156 C 152.441406 139.984375 147.609375 141.558594 142.75 143.050781 C 139.570312 144.027344 136.355469 144.882812 133.140625 145.738281 C 129.96875 146.585938 126.792969 147.417969 123.597656 148.171875 C 119.789062 149.070312 115.933594 149.722656 112.0625 150.304688 C 106.171875 151.1875 100.246094 151.53125 94.308594 151.730469 C 89.222656 151.902344 84.140625 151.699219 79.074219 151.289062 C 75.078125 150.96875 71.113281 150.382812 67.179688 149.632812 C 63.734375 148.976562 60.292969 148.296875 56.882812 147.480469 C 53.289062 146.617188 49.851562 145.261719 46.453125 143.816406 C 45.210938 143.289062 43.972656 142.753906 42.742188 142.203125 C 40.347656 141.128906 38.222656 139.601562 36.023438 138.199219 C 34.503906 137.230469 33.011719 136.214844 31.703125 134.96875 C 30.789062 134.097656 29.910156 133.195312 29.023438 132.300781 C 28.800781 132.078125 28.601562 131.828125 28.421875 131.570312 C 27.660156 130.480469 27.835938 129.148438 28.855469 128.308594 C 29.09375 128.109375 29.375 127.957031 29.648438 127.800781 C 33.246094 125.753906 36.734375 123.519531 40.210938 121.265625 C 42.136719 120.015625 43.878906 118.511719 45.496094 116.863281 C 45.589844 116.769531 45.667969 116.65625 45.769531 116.574219 C 46.816406 115.707031 46.988281 114.636719 46.519531 113.410156 C 46.199219 112.570312 45.914062 111.714844 45.570312 110.886719 C 44.242188 107.679688 42.949219 104.460938 42.082031 101.09375 C 41.28125 97.996094 40.535156 94.882812 40.339844 91.675781 C 40.289062 90.867188 40.265625 90.050781 40.339844 89.246094 C 40.398438 88.582031 40.542969 87.902344 40.789062 87.285156 C 41.199219 86.265625 42.042969 85.78125 43.128906 85.765625 C 43.859375 85.757812 44.59375 85.828125 45.136719 86.394531 C 45.898438 87.183594 46.832031 87.730469 47.746094 88.300781 C 50.265625 89.871094 52.796875 91.449219 55.511719 92.65625 C 58.757812 94.101562 62.082031 95.359375 65.46875 96.449219 C 69.207031 97.652344 73.046875 98.347656 76.921875 98.9375 C 82.15625 99.734375 87.40625 99.863281 92.675781 99.617188 C 96.046875 99.457031 99.414062 99.1875 102.757812 98.714844 C 105.519531 98.328125 108.296875 98.03125 111.046875 97.582031 C 114.910156 96.953125 118.761719 96.269531 122.601562 95.515625 C 126.75 94.699219 130.890625 93.824219 135.011719 92.882812 C 138.910156 91.992188 142.78125 90.960938 146.613281 89.800781 C 150.488281 88.628906 154.359375 87.445312 158.316406 86.574219 C 161.484375 85.875 164.667969 85.296875 167.933594 85.320312 C 169.878906 85.335938 171.789062 85.589844 173.652344 86.167969 C 176.359375 87.003906 178.492188 88.546875 179.707031 91.167969 C 180.3125 92.472656 180.894531 93.800781 181.339844 95.164062 C 182.535156 98.847656 183.445312 102.613281 184.429688 106.363281 C 185.265625 109.542969 186.289062 112.667969 187.800781 115.609375 C 188.027344 116.046875 188.335938 116.445312 188.5625 116.882812 C 188.726562 117.195312 188.886719 117.535156 188.941406 117.878906 C 189.09375 118.824219 188.738281 119.554688 188.007812 119.941406 C 187.121094 120.40625 186.1875 120.332031 185.546875 119.570312 C 184.976562 118.890625 184.488281 118.113281 184.089844 117.3125 C 182.820312 114.769531 181.832031 112.109375 181.078125 109.363281 C 180.089844 105.761719 179.144531 102.144531 178.117188 98.550781 C 177.671875 96.996094 177.09375 95.476562 176.527344 93.960938 C 175.664062 91.652344 173.929688 90.363281 171.582031 89.800781 C 169.230469 89.234375 166.859375 89.242188 164.476562 89.542969 C 159.679688 90.148438 155.058594 91.496094 150.441406 92.867188 C 145.570312 94.316406 140.695312 95.753906 135.730469 96.851562 C 130.988281 97.90625 126.226562 98.875 121.464844 99.835938 C 118.734375 100.386719 115.996094 100.921875 113.242188 101.332031 C 108.835938 101.988281 104.425781 102.625 100 103.101562 C 94.898438 103.65625 89.769531 103.898438 84.632812 103.738281 C 81.613281 103.644531 78.613281 103.320312 75.636719 102.835938 C 73.019531 102.414062 70.417969 101.882812 67.824219 101.328125 C 64.78125 100.675781 61.867188 99.589844 58.964844 98.488281 C 58.164062 98.183594 57.378906 97.839844 56.578125 97.546875 C 53.390625 96.386719 50.433594 94.773438 47.550781 93.003906 C 46.710938 92.484375 45.867188 91.964844 45.019531 91.449219 C 44.875 91.363281 44.714844 91.304688 44.453125 91.179688 " fill-opacity="1" fill-rule="nonzero"/></g><path fill="#88c0fa" d="M 197.226562 142.273438 C 196.953125 142.695312 197.050781 143.15625 197.050781 143.597656 C 197.046875 145.84375 197.089844 148.089844 197.066406 150.335938 C 197.03125 153.527344 196.957031 156.714844 196.898438 159.90625 C 196.894531 160.164062 196.804688 160.453125 197.171875 160.621094 C 198.210938 160.097656 199.035156 159.273438 199.785156 158.386719 C 201.601562 156.21875 202.957031 153.8125 203.347656 150.96875 C 203.480469 150 203.480469 148.992188 203.402344 148.015625 C 203.171875 145.171875 201.417969 143.503906 198.917969 142.496094 C 198.398438 142.285156 197.820312 142.082031 197.226562 142.273438 Z M 196.117188 188.519531 C 197.230469 188.113281 198.070312 187.613281 198.898438 187.09375 C 200.167969 186.292969 201.246094 185.296875 202.097656 184.042969 C 203.796875 181.550781 204.589844 178.765625 204.757812 175.792969 C 204.839844 174.347656 204.53125 172.933594 204.046875 171.558594 C 203.308594 169.460938 200.566406 167.757812 197.957031 168.972656 C 196.613281 169.597656 196.59375 169.542969 196.546875 171.054688 C 196.386719 176.589844 196.222656 182.128906 196.0625 187.664062 C 196.058594 187.882812 196.089844 188.101562 196.117188 188.519531 Z M 209.132812 161.035156 C 209.777344 161.507812 210.3125 161.902344 210.851562 162.296875 C 212.453125 163.460938 213.585938 165.039062 214.527344 166.738281 C 216.78125 170.808594 217.339844 175.171875 216.382812 179.695312 C 215.542969 183.675781 213.578125 187.085938 210.554688 189.824219 C 209.320312 190.9375 208.039062 192.03125 206.636719 192.910156 C 205.238281 193.789062 203.691406 194.460938 202.160156 195.089844 C 199.035156 196.375 195.746094 197.160156 192.496094 198.050781 C 190.796875 198.515625 189.0625 198.761719 187.304688 198.84375 C 187.035156 198.855469 186.761719 198.875 186.496094 198.84375 C 185.476562 198.722656 184.75 198.199219 184.328125 197.246094 C 183.953125 196.398438 183.921875 195.496094 183.878906 194.601562 C 183.851562 194.015625 183.871094 193.425781 183.898438 192.84375 C 184.023438 190.277344 184 187.710938 183.949219 185.144531 C 183.894531 182.578125 183.984375 180.011719 184.027344 177.445312 C 184.113281 172.3125 184.214844 167.179688 184.296875 162.046875 C 184.363281 157.859375 184.414062 153.671875 184.472656 149.488281 C 184.511719 146.785156 184.542969 144.085938 184.613281 141.382812 C 184.636719 140.53125 184.761719 139.683594 184.859375 138.832031 C 185.015625 137.453125 185.738281 136.503906 187.03125 135.988281 C 190.824219 134.472656 194.699219 133.375 198.84375 133.679688 C 200.230469 133.785156 201.625 133.871094 203 134.09375 C 205.726562 134.53125 208.175781 135.582031 210.128906 137.621094 C 210.59375 138.109375 211.09375 138.566406 211.5625 139.050781 C 213.230469 140.765625 214.050781 142.851562 214.378906 145.199219 C 214.714844 147.574219 214.386719 149.871094 213.75 152.144531 C 213.046875 154.667969 212.148438 157.117188 210.566406 159.25 C 210.140625 159.828125 209.667969 160.375 209.132812 161.035156 " fill-opacity="1" fill-rule="nonzero"/><g clip-path="url(#242d024dde)"><path fill="#88c0fa" d="M 261.878906 128.363281 C 261.46875 132.050781 261.132812 147.484375 261.425781 149.207031 C 261.726562 149.148438 262.03125 149.109375 262.320312 149.023438 C 264.386719 148.398438 266.460938 147.789062 268.597656 147.457031 C 269.082031 147.382812 269.585938 147.359375 270.074219 147.386719 C 271.085938 147.445312 271.734375 148.03125 272.078125 148.949219 C 272.234375 149.367188 272.332031 149.8125 272.394531 150.257812 C 272.660156 152.089844 272.667969 153.941406 272.664062 155.789062 C 272.660156 157.066406 272.136719 158.054688 271.011719 158.683594 C 270.503906 158.96875 269.984375 159.25 269.441406 159.449219 C 267.039062 160.339844 264.625 161.203125 262.214844 162.074219 C 262.046875 162.136719 261.875 162.199219 261.648438 162.28125 C 261.601562 162.460938 261.5 162.671875 261.5 162.882812 C 261.503906 165.902344 261.519531 168.921875 261.535156 171.941406 C 261.535156 172.070312 261.59375 172.195312 261.640625 172.421875 C 261.988281 172.402344 262.335938 172.425781 262.664062 172.359375 C 265.890625 171.75 269.097656 171.050781 272.25 170.117188 C 273.367188 169.785156 274.515625 169.535156 275.664062 169.328125 C 277.894531 168.921875 279.128906 169.824219 279.421875 172.070312 C 279.648438 173.824219 279.601562 175.578125 279.167969 177.304688 C 278.847656 178.570312 278.167969 179.597656 277.144531 180.417969 C 275.507812 181.722656 273.609375 182.382812 271.585938 182.6875 C 267.671875 183.277344 263.75 183.808594 259.828125 184.363281 C 258.226562 184.585938 256.621094 184.820312 255.015625 185.023438 C 253.578125 185.203125 252.136719 185.175781 250.71875 184.875 C 249.792969 184.671875 248.894531 184.398438 248.230469 183.628906 C 247.707031 183.023438 247.40625 182.375 247.414062 181.554688 C 247.425781 179.75 247.382812 177.949219 247.378906 176.144531 C 247.375 171.863281 247.390625 167.582031 247.386719 163.300781 C 247.382812 158.703125 247.363281 154.109375 247.359375 149.511719 C 247.347656 142.34375 247.339844 135.179688 247.332031 128.011719 C 247.328125 126.300781 247.328125 124.589844 247.328125 122.875 C 247.328125 122.238281 247.394531 121.625 247.6875 121.039062 C 248.15625 120.101562 248.851562 119.441406 249.859375 119.140625 C 250.761719 118.871094 251.664062 118.582031 252.582031 118.378906 C 256.625 117.488281 260.667969 116.609375 264.714844 115.75 C 266.519531 115.367188 268.328125 115 270.144531 114.695312 C 271.070312 114.539062 272.023438 114.476562 272.964844 114.472656 C 274.796875 114.460938 275.800781 115.179688 276.441406 116.898438 C 276.609375 117.359375 276.722656 117.847656 276.8125 118.332031 C 277.085938 119.800781 277.160156 121.28125 277.050781 122.773438 C 276.964844 123.875 276.410156 124.734375 275.695312 125.5 C 275.257812 125.980469 274.652344 126.160156 274.003906 126.246094 C 272.308594 126.476562 270.617188 126.71875 268.933594 126.996094 C 266.800781 127.351562 264.679688 127.746094 262.554688 128.132812 C 262.339844 128.171875 262.136719 128.273438 261.878906 128.363281 " fill-opacity="1" fill-rule="nonzero"/></g><path fill="#88c0fa" d="M 87.179688 189.703125 C 87.050781 193.953125 87.023438 198.097656 87.421875 202.230469 C 87.605469 204.113281 87.882812 205.984375 88.417969 207.808594 C 88.738281 208.886719 89.074219 209.96875 89.722656 210.902344 C 90.78125 212.414062 91.511719 212.390625 92.308594 210.757812 C 92.738281 209.875 93.039062 208.917969 93.300781 207.96875 C 94.066406 205.179688 94.40625 202.320312 94.746094 199.457031 C 95.15625 196.007812 95.335938 192.546875 95.433594 189.082031 C 95.523438 185.835938 95.484375 182.59375 95.203125 179.359375 C 95.03125 177.429688 94.820312 175.503906 94.546875 173.589844 C 94.378906 172.386719 94.046875 171.199219 93.472656 170.121094 C 93.117188 169.453125 92.683594 168.800781 92.183594 168.238281 C 91.640625 167.625 90.683594 167.570312 90.199219 168.554688 C 89.699219 169.566406 89.292969 170.609375 88.992188 171.699219 C 88.183594 174.671875 87.871094 177.714844 87.660156 180.769531 C 87.449219 183.78125 87.332031 186.796875 87.179688 189.703125 Z M 108.058594 189.460938 C 107.898438 194.761719 107.253906 199.972656 105.71875 205.058594 C 104.75 208.265625 103.421875 211.308594 101.550781 214.097656 C 100.234375 216.058594 98.671875 217.800781 96.703125 219.117188 C 93.550781 221.222656 90.195312 221.753906 86.574219 220.324219 C 82.851562 218.855469 80.378906 216.09375 78.519531 212.699219 C 76.828125 209.601562 75.699219 206.277344 74.96875 202.824219 C 73.695312 196.773438 73.453125 190.675781 74.167969 184.546875 C 74.582031 181.007812 75.289062 177.523438 76.445312 174.140625 C 77.234375 171.835938 78.183594 169.589844 79.4375 167.511719 C 81.078125 164.785156 83.113281 162.398438 85.976562 160.847656 C 87.617188 159.960938 89.351562 159.363281 91.222656 159.277344 C 93.789062 159.160156 96.121094 159.878906 98.160156 161.4375 C 100.453125 163.1875 102.179688 165.421875 103.476562 167.988281 C 105.863281 172.707031 107.140625 177.75 107.652344 182.992188 C 107.863281 185.140625 107.925781 187.304688 108.058594 189.460938 " fill-opacity="1" fill-rule="nonzero"/><path fill="#88c0fa" d="M 137.1875 166.9375 C 137.136719 168.570312 137.140625 169.835938 136.78125 171.0625 C 136.5 172.023438 136.105469 172.921875 135.449219 173.691406 C 134.5625 174.734375 133.480469 175.203125 132.09375 174.917969 C 130.570312 174.605469 129.191406 173.964844 127.921875 173.09375 C 127.484375 172.792969 127.113281 172.378906 126.765625 171.96875 C 126.148438 171.238281 125.917969 170.398438 126.195312 169.449219 C 126.335938 168.972656 126.449219 168.488281 126.59375 168.015625 C 126.992188 166.691406 126.984375 165.347656 126.765625 164 C 126.605469 163 126.132812 162.121094 125.488281 161.351562 C 124.582031 160.269531 122.542969 160.050781 121.429688 160.929688 C 121.167969 161.136719 120.976562 161.488281 120.847656 161.808594 C 120.082031 163.734375 120.160156 165.6875 120.773438 167.628906 C 120.976562 168.269531 121.265625 168.890625 121.59375 169.476562 C 122.546875 171.171875 123.710938 172.710938 125.097656 174.085938 C 126.984375 175.960938 128.976562 177.710938 131.050781 179.375 C 132.984375 180.929688 134.785156 182.613281 136.351562 184.550781 C 138.183594 186.820312 139.292969 189.382812 139.742188 192.242188 C 140.15625 194.894531 140.054688 197.546875 139.605469 200.183594 C 139.390625 201.46875 139.050781 202.730469 138.761719 204.003906 C 138.511719 205.117188 137.980469 206.113281 137.367188 207.058594 C 136.535156 208.34375 135.640625 209.589844 134.539062 210.664062 C 134.21875 210.980469 133.902344 211.3125 133.539062 211.566406 C 130.769531 213.527344 127.726562 214.871094 124.3125 215.019531 C 121.273438 215.148438 118.433594 214.351562 115.96875 212.460938 C 115.613281 212.1875 115.25 211.921875 114.902344 211.636719 C 112.425781 209.605469 111.019531 206.933594 110.386719 203.847656 C 110.011719 202.015625 110.171875 200.175781 110.683594 198.367188 C 111.285156 196.257812 113.566406 194.910156 115.558594 195.0625 C 117.125 195.179688 118.550781 195.652344 119.867188 196.480469 C 121.082031 197.246094 121.5 198.199219 121.132812 199.597656 C 120.878906 200.570312 120.757812 201.535156 120.824219 202.53125 C 120.871094 203.265625 121.089844 203.941406 121.398438 204.601562 C 121.910156 205.707031 122.804688 206.210938 123.976562 206.222656 C 125.070312 206.234375 126.152344 205.453125 126.511719 204.3125 C 126.777344 203.460938 126.957031 202.5625 127.027344 201.671875 C 127.210938 199.363281 126.5625 197.207031 125.597656 195.148438 C 124.84375 193.550781 123.773438 192.164062 122.601562 190.839844 C 120.625 188.609375 118.382812 186.660156 116.253906 184.59375 C 114.3125 182.710938 112.511719 180.699219 111.113281 178.355469 C 108.574219 174.105469 107.707031 169.527344 108.75 164.710938 C 109.703125 160.320312 112.023438 156.757812 115.902344 154.316406 C 118.882812 152.441406 122.097656 151.703125 125.574219 152.191406 C 126.367188 152.300781 127.179688 152.503906 127.910156 152.828125 C 129.8125 153.667969 131.574219 154.738281 132.960938 156.34375 C 134.941406 158.636719 136.382812 161.203125 136.890625 164.222656 C 137.0625 165.238281 137.117188 166.277344 137.1875 166.9375 " fill-opacity="1" fill-rule="nonzero"/><path fill="#88c0fa" d="M 240.902344 265.933594 C 241.632812 266.15625 242.21875 265.878906 242.777344 265.636719 C 244.148438 265.042969 245.382812 264.226562 246.488281 263.226562 C 248.589844 261.324219 250.09375 259 251.304688 256.46875 C 251.632812 255.78125 251.878906 255.054688 252.128906 254.332031 C 252.300781 253.835938 252.292969 253.359375 251.644531 253.035156 C 251.285156 253.226562 250.882812 253.410156 250.507812 253.644531 C 249.359375 254.359375 248.355469 255.253906 247.417969 256.230469 C 244.980469 258.78125 242.984375 261.644531 241.394531 264.792969 C 241.21875 265.148438 241.078125 265.523438 240.902344 265.933594 Z M 238.453125 272.101562 C 237.882812 273.738281 237.449219 275.34375 237.328125 277.007812 C 237.246094 278.128906 237.238281 279.257812 237.269531 280.382812 C 237.316406 281.789062 237.875 283 238.820312 284.039062 C 239.867188 285.195312 241.136719 285.511719 242.617188 285.089844 C 244.472656 284.558594 246.074219 283.566406 247.496094 282.292969 C 249.355469 280.632812 250.9375 278.738281 252.082031 276.5 C 252.875 274.960938 253.40625 273.34375 253.472656 271.601562 C 253.476562 271.46875 253.527344 271.339844 253.5625 271.175781 C 254.382812 270.824219 255.15625 271.042969 255.859375 271.460938 C 258.128906 272.804688 259.335938 275.796875 258.695312 278.375 C 258.285156 280.015625 257.542969 281.5 256.59375 282.882812 C 253.691406 287.125 249.777344 290.039062 244.890625 291.5625 C 242.5625 292.289062 240.136719 292.636719 237.691406 292.292969 C 235.28125 291.953125 233.136719 290.949219 231.21875 289.449219 C 228.710938 287.488281 227.175781 284.882812 226.265625 281.882812 C 225.511719 279.398438 225.316406 276.847656 225.507812 274.261719 C 226 267.617188 228.367188 261.660156 232.089844 256.195312 C 234.023438 253.355469 236.191406 250.710938 238.761719 248.429688 C 241.429688 246.058594 244.261719 243.914062 247.792969 242.933594 C 249.3125 242.507812 250.835938 242.210938 252.4375 242.292969 C 255.949219 242.464844 257.820312 244.636719 258.519531 247.308594 C 258.914062 248.800781 258.972656 250.324219 258.75 251.867188 C 257.886719 257.785156 255.183594 262.78125 251.074219 267.039062 C 249.503906 268.667969 247.601562 269.902344 245.582031 270.921875 C 243.820312 271.808594 241.917969 272.117188 239.957031 272.101562 C 239.472656 272.097656 238.984375 272.101562 238.453125 272.101562 " fill-opacity="1" fill-rule="nonzero"/><path fill="#88c0fa" d="M 233.292969 179.871094 C 233.417969 179.882812 233.519531 179.921875 233.59375 179.894531 C 235.707031 179.128906 237.835938 178.390625 239.753906 177.183594 C 240.136719 176.941406 240.515625 176.703125 240.910156 176.484375 C 241.222656 176.308594 241.546875 176.144531 241.882812 176.023438 C 243.460938 175.480469 244.386719 175.917969 244.9375 177.480469 C 245.375 178.71875 245.714844 179.984375 245.734375 181.300781 C 245.75 182.058594 245.703125 182.835938 245.542969 183.574219 C 245.289062 184.738281 244.515625 185.574219 243.488281 186.132812 C 242.226562 186.820312 240.960938 187.519531 239.644531 188.09375 C 237.832031 188.882812 235.992188 189.609375 234.128906 190.273438 C 232.304688 190.921875 230.40625 191.347656 228.476562 191.542969 C 227.277344 191.667969 226.050781 191.652344 224.839844 191.601562 C 223.75 191.550781 222.734375 191.15625 221.808594 190.558594 C 220.765625 189.882812 220.128906 188.941406 219.984375 187.699219 C 219.917969 187.117188 219.867188 186.53125 219.863281 185.949219 C 219.855469 181.171875 219.863281 176.394531 219.855469 171.621094 C 219.84375 167.203125 219.835938 162.789062 219.804688 158.375 C 219.753906 150.667969 219.695312 142.960938 219.621094 135.253906 C 219.609375 133.90625 219.519531 132.554688 219.464844 131.203125 C 219.402344 129.570312 220.167969 128.460938 221.628906 127.800781 C 222.289062 127.503906 222.964844 127.292969 223.699219 127.234375 C 224.820312 127.144531 225.933594 126.988281 227.050781 126.867188 C 228.085938 126.757812 229.117188 126.820312 230.148438 126.972656 C 231.570312 127.1875 232.339844 127.863281 232.640625 129.253906 C 232.804688 130 232.890625 130.769531 232.9375 131.53125 C 233 132.652344 232.992188 133.78125 233.023438 134.90625 C 233.074219 136.707031 233.167969 138.507812 233.183594 140.308594 C 233.238281 146.257812 233.300781 152.207031 233.300781 158.15625 C 233.296875 164.917969 233.226562 171.675781 233.191406 178.433594 C 233.1875 178.914062 233.101562 179.414062 233.292969 179.871094 " fill-opacity="1" fill-rule="nonzero"/><path fill="#88c0fa" d="M 169.839844 141.875 C 170.179688 141.710938 170.574219 141.503906 170.980469 141.332031 C 173.632812 140.21875 176.285156 139.105469 178.949219 138.015625 C 179.441406 137.816406 179.972656 137.65625 180.5 137.617188 C 181.601562 137.535156 181.984375 137.890625 182.0625 138.976562 C 182.101562 139.511719 182.085938 140.054688 182.082031 140.597656 C 182.03125 144.96875 181.972656 149.335938 181.933594 153.707031 C 181.882812 159.25 181.859375 164.789062 181.808594 170.332031 C 181.738281 177.992188 181.65625 185.652344 181.578125 193.3125 C 181.5625 194.933594 181.507812 196.554688 181.542969 198.175781 C 181.566406 199.308594 181.101562 200.058594 180.109375 200.554688 C 178.863281 201.175781 177.640625 201.851562 176.382812 202.453125 C 175.28125 202.980469 174.09375 203.257812 172.871094 203.324219 C 171.476562 203.40625 170.761719 202.8125 170.589844 201.425781 C 170.523438 200.890625 170.515625 200.347656 170.507812 199.808594 C 170.421875 194.492188 170.339844 189.175781 170.261719 183.859375 C 170.171875 178.136719 170.082031 172.417969 169.996094 166.695312 C 169.890625 159.621094 169.789062 152.550781 169.683594 145.476562 C 169.667969 144.441406 169.523438 143.410156 169.71875 142.378906 C 169.746094 142.246094 169.78125 142.117188 169.839844 141.875 " fill-opacity="1" fill-rule="nonzero"/><path fill="#88c0fa" d="M 222.148438 53.472656 C 221.996094 54.128906 221.917969 54.515625 221.8125 54.898438 C 221.480469 56.144531 220.960938 57.289062 219.816406 58 C 219.449219 58.226562 219.003906 58.425781 218.582031 58.453125 C 217.925781 58.496094 217.324219 58.21875 216.996094 57.609375 C 216.679688 57.019531 216.390625 56.402344 216.167969 55.769531 C 215.316406 53.351562 214.519531 50.910156 213.660156 48.492188 C 212.769531 45.992188 211.828125 43.507812 210.910156 41.019531 C 210.691406 40.425781 210.46875 39.84375 210.507812 39.1875 C 210.554688 38.390625 210.847656 37.910156 211.601562 37.675781 C 211.976562 37.5625 212.40625 37.507812 212.792969 37.5625 C 214.082031 37.742188 215.359375 37.992188 216.648438 38.203125 C 218.863281 38.570312 221.082031 38.929688 223.300781 39.292969 C 224.808594 39.542969 226.316406 39.785156 227.824219 40.035156 C 228.046875 40.070312 228.265625 40.117188 228.484375 40.171875 C 229.851562 40.527344 230.335938 41.613281 229.664062 42.867188 C 229.515625 43.136719 229.300781 43.378906 229.089844 43.609375 C 228.261719 44.5 227.421875 45.378906 226.59375 46.265625 C 226.445312 46.425781 226.320312 46.601562 226.171875 46.785156 C 228.121094 48.175781 230.015625 49.546875 231.929688 50.886719 C 235.253906 53.214844 238.347656 55.824219 241.433594 58.449219 C 243.9375 60.582031 246.375 62.789062 248.621094 65.191406 C 249.785156 66.4375 250.863281 67.773438 251.921875 69.113281 C 252.390625 69.707031 252.773438 70.390625 253.089844 71.082031 C 253.328125 71.601562 253.472656 72.195312 253.519531 72.765625 C 253.625 73.957031 253.042969 74.75 251.90625 75.09375 C 251.074219 75.34375 250.21875 75.34375 249.363281 75.226562 C 248.5625 75.117188 247.761719 75 246.957031 74.898438 C 246.503906 74.839844 246.265625 74.972656 246.144531 75.402344 C 246.035156 75.789062 245.976562 76.191406 245.910156 76.59375 C 245.640625 78.234375 245.386719 79.878906 245.105469 81.523438 C 245.046875 81.875 244.949219 82.226562 244.824219 82.5625 C 244.589844 83.199219 244.175781 83.660156 243.464844 83.707031 C 242.769531 83.746094 242.257812 83.398438 241.917969 82.804688 C 241.695312 82.414062 241.496094 82.011719 241.285156 81.613281 C 238.453125 76.28125 235.441406 71.050781 232.117188 66.015625 C 229.507812 62.066406 226.691406 58.273438 223.46875 54.792969 C 223.105469 54.402344 222.714844 54.039062 222.148438 53.472656 " fill-opacity="1" fill-rule="nonzero"/><path fill="#88c0fa" d="M 88.925781 126.0625 C 90.421875 126.3125 91.761719 126.214844 93.183594 126.164062 C 93.222656 125.855469 93.296875 125.558594 93.296875 125.261719 C 93.265625 120.621094 93.226562 115.980469 93.191406 111.335938 C 93.1875 110.976562 93.164062 110.617188 93.179688 110.257812 C 93.246094 109.015625 93.722656 108.464844 94.980469 108.316406 C 96.1875 108.175781 97.402344 108.101562 98.613281 108.011719 C 98.925781 107.988281 99.242188 108.015625 99.554688 108.046875 C 100.683594 108.164062 101.171875 108.570312 101.414062 109.667969 C 101.539062 110.238281 101.613281 110.824219 101.648438 111.40625 C 101.714844 112.53125 101.765625 113.65625 101.769531 114.78125 C 101.820312 123.390625 101.855469 131.996094 101.898438 140.605469 C 101.898438 140.828125 101.867188 141.0625 101.90625 141.277344 C 102.042969 142.082031 101.621094 142.578125 100.980469 142.910156 C 100.546875 143.136719 100.078125 143.359375 99.601562 143.425781 C 98.027344 143.636719 96.464844 143.558594 94.953125 142.972656 C 94.304688 142.722656 93.902344 142.300781 93.785156 141.617188 C 93.714844 141.21875 93.640625 140.816406 93.625 140.414062 C 93.574219 138.886719 93.550781 137.355469 93.515625 135.824219 C 93.503906 135.382812 93.484375 134.941406 93.464844 134.421875 C 91.972656 134.246094 90.546875 134.347656 89.066406 134.171875 C 89.019531 134.5625 88.960938 134.863281 88.960938 135.164062 C 88.957031 137.101562 88.925781 139.042969 88.992188 140.976562 C 89.023438 142.007812 88.554688 142.589844 87.675781 142.9375 C 86.488281 143.40625 85.242188 143.601562 83.972656 143.488281 C 83.214844 143.417969 82.453125 143.28125 81.722656 143.082031 C 80.417969 142.726562 80.042969 142.210938 80.035156 140.851562 C 80.015625 138.507812 80.027344 136.164062 80.019531 133.820312 C 80.007812 130.53125 79.972656 127.246094 79.980469 123.957031 C 79.992188 119.992188 80.039062 116.027344 80.0625 112.0625 C 80.070312 111.238281 80.265625 110.460938 80.542969 109.691406 C 80.792969 109 81.273438 108.566406 81.953125 108.347656 C 82.292969 108.238281 82.648438 108.121094 83 108.105469 C 84.4375 108.035156 85.878906 108.019531 87.304688 108.316406 C 88.167969 108.496094 88.632812 109.03125 88.777344 109.859375 C 88.847656 110.253906 88.832031 110.664062 88.835938 111.070312 C 88.855469 115.578125 88.867188 120.082031 88.886719 124.589844 C 88.886719 125.035156 88.910156 125.484375 88.925781 126.0625 " fill-opacity="1" fill-rule="nonzero"/><path fill="#88c0fa" d="M 120.269531 122.917969 C 120.269531 123.222656 120.269531 123.53125 120.269531 123.839844 C 120.292969 127.714844 120.320312 131.589844 120.335938 135.460938 C 120.339844 136.410156 120.320312 137.355469 120.285156 138.300781 C 120.269531 138.703125 120.214844 139.109375 120.136719 139.503906 C 119.957031 140.414062 119.332031 140.894531 118.46875 141.046875 C 117.804688 141.167969 117.132812 141.230469 116.457031 141.265625 C 115.15625 141.335938 114.417969 140.679688 114.34375 139.382812 C 114.296875 138.574219 114.308594 137.761719 114.296875 136.949219 C 114.15625 128.4375 114.007812 119.925781 113.886719 111.414062 C 113.871094 110.289062 114.003906 109.164062 114.03125 108.039062 C 114.054688 107.160156 114.457031 106.589844 115.277344 106.316406 C 116.003906 106.082031 116.730469 105.835938 117.472656 105.664062 C 118.550781 105.414062 119.511719 105.65625 120.324219 106.457031 C 121.164062 107.289062 121.847656 108.230469 122.457031 109.234375 C 122.925781 110.003906 123.371094 110.785156 123.84375 111.554688 C 125.515625 114.277344 127.191406 116.996094 128.871094 119.714844 C 128.953125 119.84375 129.082031 119.945312 129.199219 120.070312 C 129.53125 119.757812 129.421875 119.425781 129.425781 119.128906 C 129.46875 116.832031 129.476562 114.535156 129.53125 112.238281 C 129.59375 109.761719 129.679688 107.285156 129.769531 104.808594 C 129.816406 103.503906 130.203125 103.019531 131.449219 102.734375 C 132.191406 102.5625 132.945312 102.40625 133.703125 102.347656 C 134.8125 102.261719 135.257812 102.597656 135.527344 103.703125 C 135.664062 104.261719 135.707031 104.859375 135.707031 105.441406 C 135.691406 107.871094 135.632812 110.304688 135.609375 112.738281 C 135.574219 117.0625 135.546875 121.386719 135.519531 125.710938 C 135.511719 127.242188 135.496094 128.777344 135.515625 130.304688 C 135.527344 131.429688 135.589844 132.554688 135.632812 133.675781 C 135.644531 134.082031 135.660156 134.488281 135.667969 134.890625 C 135.679688 136.023438 135.128906 136.769531 134.078125 137.136719 C 133 137.515625 131.882812 137.632812 130.753906 137.558594 C 130.09375 137.515625 129.546875 137.179688 129.144531 136.667969 C 128.671875 136.070312 128.203125 135.457031 127.800781 134.808594 C 126.734375 133.085938 125.703125 131.34375 124.664062 129.605469 C 123.554688 127.75 122.457031 125.890625 121.34375 124.039062 C 121.097656 123.625 120.816406 123.230469 120.550781 122.828125 C 120.457031 122.859375 120.363281 122.886719 120.269531 122.917969 " fill-opacity="1" fill-rule="nonzero"/><path fill="#88c0fa" d="M 241.625 194.898438 C 241.867188 195.230469 242.050781 195.480469 242.234375 195.734375 C 243.796875 197.917969 243.324219 201.277344 241.199219 202.910156 C 239.617188 204.125 236.992188 204.363281 235.347656 202.429688 C 234.867188 201.863281 234.585938 201.226562 234.523438 200.472656 C 234.378906 198.757812 234.734375 197.152344 235.613281 195.679688 C 238.125 191.476562 241.894531 189.230469 246.6875 188.625 C 247.945312 188.46875 249.191406 188.632812 250.433594 188.910156 C 253.800781 189.65625 256.832031 193.335938 256.324219 197.484375 C 256.078125 199.476562 255.371094 201.222656 254.085938 202.746094 C 251.050781 206.351562 247.285156 208.867188 242.800781 210.292969 C 240.742188 210.949219 238.652344 211.515625 236.503906 211.78125 C 234.585938 212.019531 232.660156 212.191406 230.730469 212.316406 C 225.953125 212.613281 221.203125 212.320312 216.453125 211.75 C 213.460938 211.390625 210.476562 210.960938 207.527344 210.335938 C 203.878906 209.566406 200.226562 208.796875 196.605469 207.886719 C 192.246094 206.792969 187.835938 205.890625 183.449219 204.90625 C 182.617188 204.71875 181.785156 204.53125 180.882812 204.328125 C 181.683594 203.277344 182.433594 202.289062 183.316406 201.128906 C 183.550781 200.980469 184.011719 201.125 184.441406 201.195312 C 186.480469 201.53125 188.527344 201.832031 190.546875 202.269531 C 193.488281 202.914062 196.402344 203.683594 199.335938 204.363281 C 202.621094 205.121094 205.90625 205.875 209.207031 206.558594 C 211.542969 207.039062 213.894531 207.429688 216.273438 207.625 C 216.902344 207.675781 217.519531 207.808594 218.148438 207.882812 C 221.816406 208.324219 225.5 208.480469 229.191406 208.367188 C 233.339844 208.238281 237.445312 207.804688 241.429688 206.535156 C 245.125 205.359375 248.273438 203.375 250.804688 200.429688 C 251.488281 199.636719 252.007812 198.753906 252.226562 197.707031 C 252.648438 195.667969 251.675781 193.789062 249.75 193 C 248.988281 192.691406 248.183594 192.527344 247.375 192.59375 C 245.40625 192.746094 243.601562 193.398438 241.972656 194.519531 C 241.863281 194.59375 241.792969 194.714844 241.625 194.898438 " fill-opacity="1" fill-rule="nonzero"/><path fill="#88c0fa" d="M 148.585938 104.871094 C 148.207031 104.746094 147.914062 104.859375 147.726562 105.144531 C 147.433594 105.59375 147.136719 106.050781 146.921875 106.539062 C 146.480469 107.53125 146.195312 108.582031 146.070312 109.65625 C 145.816406 111.757812 145.609375 113.867188 145.417969 115.976562 C 145.320312 117.050781 145.273438 118.132812 145.253906 119.214844 C 145.210938 121.472656 145.390625 123.714844 145.847656 125.929688 C 145.992188 126.648438 146.265625 127.308594 146.710938 127.890625 C 146.847656 128.066406 147.003906 128.238281 147.175781 128.375 C 147.480469 128.613281 147.890625 128.613281 148.15625 128.320312 C 148.457031 127.988281 148.722656 127.621094 148.9375 127.230469 C 149.636719 125.976562 149.851562 124.597656 149.847656 123.1875 C 149.847656 122.332031 149.777344 121.476562 149.71875 120.621094 C 149.707031 120.457031 149.605469 120.296875 149.527344 120.082031 C 149.105469 120.140625 148.714844 120.226562 148.324219 120.242188 C 147.253906 120.285156 146.582031 119.796875 146.421875 118.742188 C 146.289062 117.898438 146.257812 117.035156 146.253906 116.183594 C 146.246094 115.503906 146.613281 114.984375 147.203125 114.648438 C 147.472656 114.496094 147.765625 114.359375 148.0625 114.273438 C 149.488281 113.859375 150.90625 113.414062 152.347656 113.085938 C 153.929688 112.71875 154.871094 113.246094 155.390625 114.777344 C 155.675781 115.625 155.867188 116.527344 155.929688 117.417969 C 156.132812 120.257812 156.042969 123.089844 155.457031 125.894531 C 155.078125 127.734375 154.339844 129.40625 153.21875 130.910156 C 152.675781 131.640625 152 132.21875 151.191406 132.660156 C 148.960938 133.875 146.613281 134.265625 144.148438 133.632812 C 141.714844 133.007812 140.042969 131.457031 139.082031 129.152344 C 138.457031 127.648438 138.089844 126.066406 137.867188 124.453125 C 137.355469 120.691406 137.269531 116.917969 137.566406 113.125 C 137.796875 110.226562 138.421875 107.429688 139.488281 104.730469 C 139.699219 104.1875 139.957031 103.65625 140.238281 103.144531 C 141.015625 101.722656 142.125 100.640625 143.589844 99.921875 C 145.28125 99.101562 147.011719 98.539062 148.925781 98.867188 C 151.214844 99.261719 152.78125 100.503906 153.445312 102.777344 C 153.820312 104.046875 153.925781 105.34375 153.796875 106.660156 C 153.648438 108.171875 152.742188 109.152344 151.273438 109.421875 C 150.007812 109.652344 149.160156 109.035156 149.015625 107.742188 C 148.953125 107.207031 148.96875 106.664062 148.925781 106.125 C 148.894531 105.679688 148.875 105.222656 148.585938 104.871094 " fill-opacity="1" fill-rule="nonzero"/><path fill="#88c0fa" d="M 71.738281 114.328125 C 71.707031 114.820312 71.664062 115.21875 71.664062 115.613281 C 71.675781 121.832031 71.683594 128.050781 71.710938 134.265625 C 71.714844 135.304688 71.792969 136.339844 71.828125 137.375 C 71.847656 137.824219 71.882812 138.277344 71.84375 138.722656 C 71.738281 139.972656 70.972656 140.703125 69.71875 140.6875 C 68.957031 140.679688 68.191406 140.585938 67.4375 140.46875 C 66.503906 140.324219 65.578125 140.140625 64.660156 139.925781 C 64.183594 139.8125 63.714844 139.628906 63.269531 139.421875 C 62.46875 139.054688 62.007812 138.417969 61.949219 137.53125 C 61.882812 136.539062 61.808594 135.550781 61.800781 134.5625 C 61.761719 128.976562 61.746094 123.390625 61.71875 117.804688 C 61.710938 116.316406 61.683594 114.828125 61.664062 113.34375 C 61.660156 113.121094 61.632812 112.902344 61.613281 112.644531 C 61.191406 112.335938 60.6875 112.300781 60.222656 112.164062 C 59.101562 111.832031 57.964844 111.554688 56.859375 111.183594 C 55.253906 110.644531 54.699219 109.882812 54.648438 108.195312 C 54.621094 107.25 54.648438 106.300781 54.683594 105.355469 C 54.695312 105 54.757812 104.636719 54.867188 104.300781 C 55.152344 103.4375 55.695312 103.070312 56.589844 103.113281 C 56.949219 103.132812 57.304688 103.203125 57.648438 103.292969 C 59.042969 103.65625 60.417969 104.082031 61.816406 104.402344 C 65.457031 105.234375 69.097656 106.042969 72.75 106.816406 C 74.109375 107.101562 75.5 107.253906 76.878906 107.46875 C 77.894531 107.625 78.332031 108.023438 78.402344 109.019531 C 78.507812 110.460938 78.4375 111.90625 78.167969 113.328125 C 77.996094 114.21875 77.394531 114.75 76.46875 114.789062 C 75.710938 114.820312 74.945312 114.746094 74.1875 114.671875 C 73.394531 114.589844 72.609375 114.453125 71.738281 114.328125 " fill-opacity="1" fill-rule="nonzero"/><path fill="#88c0fa" d="M 164.703125 93.949219 C 165.636719 94.082031 166.589844 94.136719 167.5 94.363281 C 170.554688 95.128906 172.519531 98.046875 172.167969 101.207031 C 172.007812 102.640625 171.101562 103.578125 169.675781 103.820312 C 168.902344 103.949219 168.148438 103.882812 167.402344 103.679688 C 166.703125 103.484375 166.230469 103.035156 166.019531 102.328125 C 165.917969 101.980469 165.855469 101.625 165.722656 101.292969 C 165.488281 100.722656 165.054688 100.464844 164.441406 100.503906 C 163.714844 100.550781 163.152344 100.871094 162.832031 101.550781 C 162.503906 102.238281 162.632812 102.875 163.128906 103.421875 C 163.398438 103.71875 163.71875 103.980469 164.046875 104.210938 C 164.832031 104.753906 165.714844 105.082031 166.621094 105.367188 C 167.738281 105.71875 168.871094 106.027344 169.957031 106.449219 C 172.65625 107.507812 174.574219 109.355469 175.503906 112.152344 C 176.027344 113.726562 176.066406 115.34375 175.867188 116.964844 C 175.714844 118.175781 175.351562 119.332031 174.882812 120.464844 C 173.125 124.699219 168.160156 126.75 165.148438 126.558594 C 161.734375 126.347656 157.832031 123.695312 157.109375 119.203125 C 156.925781 118.054688 157.304688 117.183594 158.351562 116.601562 C 159.410156 116.011719 160.554688 115.859375 161.730469 115.855469 C 162.308594 115.855469 162.777344 116.125 163.109375 116.59375 C 163.394531 116.996094 163.648438 117.421875 163.898438 117.847656 C 164.222656 118.410156 164.660156 118.84375 165.25 119.125 C 166.207031 119.585938 167.359375 119.09375 167.574219 118.054688 C 167.8125 116.933594 167.632812 115.871094 166.644531 115.144531 C 166.105469 114.746094 165.503906 114.417969 164.890625 114.144531 C 163.910156 113.707031 162.886719 113.347656 161.886719 112.941406 C 160.027344 112.1875 158.308594 111.195312 157.101562 109.550781 C 154.910156 106.554688 154.335938 103.238281 155.425781 99.691406 C 156.039062 97.695312 157.417969 96.285156 159.238281 95.328125 C 160.9375 94.433594 162.769531 94.015625 164.703125 93.949219 " fill-opacity="1" fill-rule="nonzero"/><path fill="#88c0fa" d="M 103.734375 124.921875 C 103.699219 119.960938 103.660156 115.003906 103.621094 110.046875 C 103.621094 109.730469 103.617188 109.414062 103.621094 109.101562 C 103.648438 107.792969 103.90625 107.425781 105.121094 107.035156 C 105.460938 106.925781 105.824219 106.859375 106.179688 106.84375 C 107.253906 106.796875 108.332031 106.777344 109.410156 106.753906 C 109.679688 106.75 109.957031 106.742188 110.222656 106.773438 C 110.953125 106.867188 111.488281 107.25 111.703125 107.96875 C 111.828125 108.394531 111.898438 108.847656 111.90625 109.289062 C 112.039062 117.582031 112.152344 125.875 112.28125 134.167969 C 112.3125 136.152344 112.390625 138.132812 112.4375 140.117188 C 112.476562 141.742188 112.050781 142.320312 110.433594 142.59375 C 109.195312 142.800781 107.933594 142.882812 106.679688 143 C 105.886719 143.074219 105.175781 142.808594 104.511719 142.386719 C 104.105469 142.128906 103.863281 141.769531 103.84375 141.277344 C 103.828125 140.917969 103.824219 140.558594 103.824219 140.199219 C 103.820312 135.105469 103.824219 130.011719 103.824219 124.921875 C 103.792969 124.921875 103.761719 124.921875 103.734375 124.921875 " fill-opacity="1" fill-rule="nonzero"/><path fill="#88c0fa" d="M 109.457031 227.523438 C 109.09375 228.035156 109.09375 228.035156 109.457031 228.492188 C 109.457031 228.171875 109.457031 227.886719 109.457031 227.523438 Z M 111.644531 231.351562 C 111.222656 231.070312 110.824219 230.871094 110.519531 230.582031 C 110.179688 230.253906 109.921875 229.84375 109.539062 229.355469 C 109.496094 229.632812 109.425781 229.796875 109.457031 229.9375 C 109.546875 230.402344 109.886719 230.707031 110.253906 230.949219 C 110.648438 231.207031 111.050781 231.511719 111.644531 231.351562 Z M 114.535156 230.75 C 114.523438 230.679688 114.507812 230.613281 114.496094 230.542969 C 114.511719 230.605469 114.53125 230.667969 114.546875 230.730469 C 114.480469 230.722656 114.414062 230.714844 114.34375 230.707031 C 114.40625 230.71875 114.472656 230.734375 114.535156 230.75 Z M 112.65625 221.636719 C 115.925781 221.789062 118.441406 223.1875 119.847656 226.226562 C 121.117188 228.964844 120.34375 232.128906 118.035156 234.070312 C 116.03125 235.757812 113.730469 236.480469 111.128906 235.988281 C 108.785156 235.539062 107.011719 234.277344 105.9375 232.097656 C 105.371094 230.949219 104.984375 229.761719 105.097656 228.464844 C 105.355469 225.476562 107.007812 223.496094 109.632812 222.246094 C 110.578125 221.792969 111.585938 221.574219 112.65625 221.636719 " fill-opacity="1" fill-rule="nonzero"/><path fill="#88c0fa" d="M 155.054688 257.03125 C 155.09375 254.488281 155.804688 252.171875 157.339844 250.125 C 158.449219 248.648438 159.894531 247.894531 161.75 248.007812 C 162.554688 248.058594 163.359375 248.140625 164.15625 248.253906 C 165.816406 248.496094 166.636719 249.769531 166.472656 251.332031 C 166.429688 251.734375 166.332031 252.128906 166.230469 252.519531 C 165.730469 254.488281 164.96875 256.351562 163.957031 258.117188 C 163.78125 258.425781 163.582031 258.730469 163.351562 259.003906 C 162.433594 260.097656 161.28125 260.699219 159.832031 260.679688 C 158.695312 260.667969 157.605469 260.398438 156.566406 259.957031 C 156.167969 259.789062 155.808594 259.484375 155.488281 259.175781 C 155.125 258.824219 154.933594 258.363281 154.984375 257.835938 C 155.011719 257.566406 155.03125 257.296875 155.054688 257.03125 " fill-opacity="1" fill-rule="nonzero"/><path fill="#88c0fa" d="M 186.417969 236.804688 C 185.40625 237.210938 185.394531 237.207031 185.160156 237.632812 C 185.121094 237.699219 185.214844 237.84375 185.277344 238.066406 C 185.640625 237.667969 185.933594 237.34375 186.417969 236.804688 Z M 186.382812 232.785156 C 188.566406 232.769531 189.84375 233.304688 190.867188 234.453125 C 192.347656 236.101562 192.863281 238.039062 192.601562 240.199219 C 192.457031 241.40625 191.886719 242.417969 190.945312 243.199219 C 189.300781 244.5625 187.457031 245.207031 185.320312 244.644531 C 184.933594 244.546875 184.554688 244.375 184.210938 244.171875 C 181.953125 242.828125 180.59375 239.734375 181.140625 237.183594 C 181.363281 236.148438 181.863281 235.261719 182.648438 234.53125 C 183.894531 233.382812 185.363281 232.820312 186.382812 232.785156 " fill-opacity="1" fill-rule="nonzero"/><path fill="#88c0fa" d="M 221.46875 220.261719 C 221.121094 220.683594 220.867188 221.042969 220.558594 221.351562 C 220.179688 221.726562 219.792969 222.121094 219.34375 222.394531 C 218.488281 222.914062 217.566406 222.949219 216.617188 222.597656 C 214.640625 221.863281 213.632812 220.347656 213.277344 218.363281 C 213.0625 217.164062 213.121094 215.941406 213.28125 214.730469 C 213.378906 213.96875 213.691406 213.355469 214.519531 213.140625 C 215.363281 212.917969 216.078125 213.355469 216.167969 214.234375 C 216.207031 214.628906 216.101562 215.035156 216.082031 215.4375 C 216.050781 216.199219 215.945312 216.972656 216.03125 217.722656 C 216.15625 218.820312 216.753906 219.625 217.832031 219.984375 C 218.472656 219.71875 218.730469 219.175781 218.992188 218.664062 C 219.359375 217.941406 219.671875 217.195312 220.027344 216.464844 C 220.304688 215.898438 220.59375 215.339844 220.902344 214.792969 C 221.03125 214.558594 221.199219 214.332031 221.390625 214.152344 C 222.332031 213.269531 223.550781 213.578125 223.949219 214.796875 C 224.03125 215.050781 224.050781 215.328125 224.089844 215.59375 C 224.355469 217.425781 224.417969 219.273438 224.328125 221.121094 C 224.253906 222.628906 223.847656 224.042969 222.996094 225.3125 C 221.554688 227.457031 219.128906 228.464844 216.234375 227.496094 C 215.941406 227.398438 215.660156 227.234375 215.40625 227.050781 C 214.976562 226.742188 214.757812 226.320312 214.871094 225.765625 C 214.996094 225.160156 215.386719 224.828125 215.953125 224.695312 C 216.167969 224.644531 216.402344 224.65625 216.625 224.671875 C 216.800781 224.683594 216.972656 224.75 217.148438 224.792969 C 219.359375 225.355469 220.839844 224.457031 221.328125 222.230469 C 221.433594 221.746094 221.480469 221.25 221.539062 220.761719 C 221.554688 220.644531 221.507812 220.519531 221.46875 220.261719 " fill-opacity="1" fill-rule="nonzero"/><path fill="#88c0fa" d="M 234.875 221.460938 C 234.902344 220.121094 234.613281 218.855469 233.800781 217.777344 C 232.613281 216.199219 231.273438 216.164062 230.046875 217.710938 C 229.472656 218.429688 229.171875 219.277344 229.023438 220.175781 C 228.738281 221.878906 228.941406 223.503906 229.925781 224.957031 C 231.089844 226.6875 232.636719 226.707031 233.832031 225.023438 C 234.582031 223.960938 234.898438 222.757812 234.875 221.460938 Z M 226.132812 221.8125 C 226.082031 220.085938 226.375 218.597656 227.050781 217.195312 C 227.898438 215.4375 229.230469 214.25 231.195312 213.875 C 232.492188 213.628906 233.6875 213.867188 234.765625 214.660156 C 235.621094 215.292969 236.257812 216.09375 236.699219 217.042969 C 238.054688 219.957031 238.011719 222.875 236.652344 225.769531 C 236.191406 226.753906 235.492188 227.582031 234.585938 228.210938 C 233.042969 229.285156 231.421875 229.390625 229.746094 228.570312 C 228.664062 228.035156 227.875 227.1875 227.273438 226.15625 C 226.457031 224.761719 226.070312 223.257812 226.132812 221.8125 " fill-opacity="1" fill-rule="nonzero"/><path fill="#88c0fa" d="M 247.359375 216.03125 C 247.320312 214.902344 247.253906 213.777344 247.246094 212.652344 C 247.238281 211.878906 247.570312 211.480469 248.273438 211.246094 C 248.886719 211.042969 249.449219 211.246094 249.761719 211.828125 C 249.882812 212.058594 249.972656 212.332031 249.996094 212.589844 C 250.308594 215.789062 250.410156 218.980469 249.6875 222.144531 C 249.371094 223.527344 248.75 224.75 247.691406 225.75 C 246.433594 226.941406 244.957031 227.257812 243.324219 226.980469 C 241.128906 226.605469 239.875 225.15625 239.1875 223.152344 C 238.816406 222.085938 238.664062 220.960938 238.65625 219.828125 C 238.644531 218.164062 238.683594 216.496094 238.710938 214.828125 C 238.714844 214.558594 238.746094 214.285156 238.816406 214.027344 C 239.011719 213.277344 239.550781 212.917969 240.324219 212.984375 C 240.988281 213.042969 241.464844 213.484375 241.527344 214.214844 C 241.582031 214.886719 241.550781 215.566406 241.542969 216.242188 C 241.53125 217.414062 241.484375 218.585938 241.5 219.757812 C 241.519531 220.75 241.648438 221.734375 242.078125 222.652344 C 242.46875 223.476562 243.0625 224.027344 243.980469 224.210938 C 244.707031 224.359375 245.308594 224.191406 245.832031 223.671875 C 246.292969 223.21875 246.621094 222.671875 246.765625 222.054688 C 246.972656 221.136719 247.175781 220.207031 247.269531 219.269531 C 247.378906 218.199219 247.367188 217.113281 247.40625 216.03125 C 247.394531 216.03125 247.378906 216.03125 247.359375 216.03125 " fill-opacity="1" fill-rule="nonzero"/><path fill="#88c0fa" d="M 198.460938 215.101562 C 199.238281 215.324219 199.925781 215.523438 200.613281 215.722656 C 200.917969 215.808594 201.226562 215.875 201.515625 215.992188 C 202.246094 216.28125 202.566406 216.875 202.417969 217.597656 C 202.273438 218.289062 201.707031 218.726562 200.933594 218.695312 C 200.625 218.683594 200.316406 218.585938 200.007812 218.535156 C 199.574219 218.457031 199.132812 218.382812 198.601562 218.292969 C 198.574219 218.703125 198.558594 219.046875 198.53125 219.386719 C 198.496094 219.789062 198.492188 220.203125 198.398438 220.585938 C 198.238281 221.210938 197.71875 221.621094 197.15625 221.652344 C 196.535156 221.6875 196.066406 221.386719 195.808594 220.738281 C 195.550781 220.105469 195.480469 219.441406 195.496094 218.753906 C 195.542969 216.820312 195.5625 214.886719 195.582031 212.949219 C 195.585938 212.410156 195.535156 211.867188 195.542969 211.332031 C 195.558594 210.210938 196.230469 209.589844 197.355469 209.660156 C 197.757812 209.683594 198.15625 209.769531 198.550781 209.855469 C 200 210.175781 201.445312 210.507812 202.890625 210.832031 C 203.066406 210.871094 203.25 210.882812 203.417969 210.945312 C 204.023438 211.175781 204.398438 211.808594 204.328125 212.445312 C 204.253906 213.128906 203.824219 213.613281 203.09375 213.636719 C 202.429688 213.660156 201.753906 213.5625 201.09375 213.460938 C 200.476562 213.363281 199.871094 213.175781 199.253906 213.054688 C 199.042969 213.011719 198.820312 213.046875 198.570312 213.046875 C 198.527344 213.265625 198.46875 213.4375 198.464844 213.609375 C 198.453125 214.058594 198.460938 214.503906 198.460938 215.101562 " fill-opacity="1" fill-rule="nonzero"/><path fill="#88c0fa" d="M 106.371094 246.121094 C 106.375 247.996094 104.980469 249.585938 103.132812 249.847656 C 101.65625 250.050781 99.597656 249.300781 99.007812 247.144531 C 98.902344 246.753906 98.792969 246.363281 98.730469 245.964844 C 98.589844 245.058594 98.816406 244.25 99.582031 243.695312 C 100.503906 243.023438 101.539062 242.601562 102.695312 242.546875 C 105.140625 242.425781 106.355469 244.3125 106.371094 246.121094 " fill-opacity="1" fill-rule="nonzero"/><path fill="#88c0fa" d="M 219.546875 200.375 C 219.628906 201.929688 218 203.867188 216.171875 203.75 C 213.863281 203.601562 212.664062 201.875 212.757812 199.988281 C 212.867188 197.867188 215.003906 196.210938 217.09375 196.570312 C 217.597656 196.65625 218.078125 196.839844 218.351562 197.277344 C 218.859375 198.070312 219.277344 198.914062 219.5 199.839844 C 219.539062 200.011719 219.535156 200.199219 219.546875 200.375 " fill-opacity="1" fill-rule="nonzero"/><path fill="#88c0fa" d="M 190.832031 214.339844 C 190.832031 213.167969 190.828125 212 190.832031 210.828125 C 190.835938 210.46875 190.824219 210.101562 190.882812 209.75 C 190.976562 209.167969 191.339844 208.789062 191.890625 208.589844 C 192.515625 208.367188 193.195312 208.636719 193.492188 209.222656 C 193.765625 209.765625 193.753906 210.359375 193.765625 210.945312 C 193.800781 212.792969 193.824219 214.640625 193.863281 216.484375 C 193.875 217.117188 193.945312 217.746094 193.949219 218.375 C 193.953125 219.113281 193.648438 219.683594 192.921875 219.957031 C 192.089844 220.265625 191.230469 219.796875 191.066406 218.933594 C 191.011719 218.667969 191.007812 218.394531 191.007812 218.125 C 191.003906 216.863281 191.007812 215.601562 191.007812 214.339844 C 190.949219 214.339844 190.890625 214.339844 190.832031 214.339844 " fill-opacity="1" fill-rule="nonzero"/><path fill="#88c0fa" d="M 123.308594 243.726562 C 123.320312 245.292969 122.054688 246.570312 120.488281 246.53125 C 118.980469 246.492188 117.464844 245.484375 117.523438 243.867188 C 117.609375 241.523438 118.980469 240.757812 120.46875 240.722656 C 121.976562 240.683594 123.304688 242.136719 123.308594 243.726562 " fill-opacity="1" fill-rule="nonzero"/><path fill="#88c0fa" d="M 171.597656 232.238281 C 171.601562 233.40625 170.867188 234.300781 169.785156 234.558594 C 168.832031 234.78125 167.671875 234.1875 167.285156 233.199219 C 167.128906 232.800781 167.054688 232.324219 167.085938 231.894531 C 167.179688 230.539062 168.230469 230.078125 169.175781 230.085938 C 170.054688 230.09375 171.160156 230.878906 171.46875 231.703125 C 171.546875 231.90625 171.574219 232.132812 171.597656 232.238281 " fill-opacity="1" fill-rule="nonzero"/></svg>