<svg xmlns="http://www.w3.org/2000/svg" xmlns:xlink="http://www.w3.org/1999/xlink" width="410" zoomAndPan="magnify" viewBox="0 0 307.5 307.500004" height="410" preserveAspectRatio="xMidYMid meet" version="1.0"><defs><clipPath id="9b7af4904a"><path d="M 72 215 L 201 215 L 201 301.539062 L 72 301.539062 Z M 72 215 " clip-rule="nonzero"/></clipPath><clipPath id="f0b7cb1744"><path d="M 43.195312 120 L 71 120 L 71 179 L 43.195312 179 Z M 43.195312 120 " clip-rule="nonzero"/></clipPath><clipPath id="1a85203410"><path d="M 226 169 L 272.695312 169 L 272.695312 207 L 226 207 Z M 226 169 " clip-rule="nonzero"/></clipPath><clipPath id="b9fc2cb128"><path d="M 94 6.039062 L 155 6.039062 L 155 34 L 94 34 Z M 94 6.039062 " clip-rule="nonzero"/></clipPath></defs><path fill="#88c0fa" d="M 199.03125 177.238281 C 199.085938 177.203125 199.140625 177.167969 199.195312 177.128906 C 199.136719 176.125 199.121094 175.113281 199.003906 174.113281 C 198.8125 172.492188 198.332031 170.945312 197.558594 169.5 C 197.277344 168.976562 196.910156 168.515625 196.390625 168.210938 C 195.75 167.835938 195.132812 168 194.773438 168.644531 C 194.453125 169.214844 194.320312 169.839844 194.414062 170.484375 C 194.785156 173.136719 196.109375 175.222656 198.269531 176.789062 C 198.503906 176.960938 198.773438 177.089844 199.03125 177.238281 Z M 220.589844 169.644531 C 220.664062 169.644531 220.691406 169.652344 220.707031 169.644531 C 220.761719 169.605469 220.824219 169.566406 220.867188 169.515625 C 222.433594 167.605469 223.695312 165.53125 224.460938 163.167969 C 224.820312 162.058594 224.957031 160.921875 224.890625 159.761719 C 224.84375 158.972656 224.667969 158.222656 224.136719 157.605469 C 223.578125 156.957031 222.96875 156.867188 222.269531 157.371094 C 222.007812 157.558594 221.746094 157.792969 221.582031 158.066406 C 221.230469 158.644531 220.886719 159.242188 220.644531 159.871094 C 220.160156 161.105469 220.007812 162.417969 219.953125 163.738281 C 219.886719 165.4375 220.101562 167.117188 220.390625 168.785156 C 220.441406 169.078125 220.523438 169.367188 220.589844 169.644531 Z M 167.328125 188.792969 C 167.082031 188.910156 167.015625 188.929688 166.960938 188.96875 C 166.753906 189.125 166.546875 189.277344 166.351562 189.445312 C 164.730469 190.828125 163.339844 192.414062 162.203125 194.210938 C 161.140625 195.890625 160.269531 197.65625 159.96875 199.644531 C 159.800781 200.789062 159.761719 201.945312 160.261719 203.035156 C 160.625 203.828125 161.144531 204 161.828125 203.464844 C 162.371094 203.039062 162.871094 202.515625 163.28125 201.953125 C 164.058594 200.890625 164.644531 199.710938 165.136719 198.484375 C 165.929688 196.519531 166.476562 194.480469 166.820312 192.390625 C 167.007812 191.238281 167.148438 190.078125 167.328125 188.792969 Z M 194.472656 181.515625 C 194.394531 181.722656 194.285156 181.957031 194.21875 182.195312 C 193.765625 183.851562 193.277344 185.492188 192.882812 187.160156 C 192.246094 189.84375 191.878906 192.5625 191.9375 195.328125 C 191.949219 196.0625 192.050781 196.78125 192.363281 197.453125 C 192.601562 197.960938 193.007812 198.089844 193.449219 197.75 C 193.777344 197.496094 194.085938 197.179688 194.296875 196.828125 C 194.6875 196.191406 195.035156 195.515625 195.34375 194.832031 C 196.804688 191.605469 197.769531 188.222656 198.457031 184.757812 C 198.582031 184.121094 198.667969 183.476562 198.765625 182.863281 C 197.300781 182.402344 195.917969 181.96875 194.472656 181.515625 Z M 115.734375 192.402344 C 115.589844 192.605469 115.421875 192.800781 115.300781 193.019531 C 114.15625 195.125 112.984375 197.21875 111.882812 199.347656 C 109.53125 203.890625 107.644531 208.621094 106.097656 213.496094 C 105.707031 214.726562 105.257812 215.941406 104.820312 217.15625 C 104.6875 217.53125 104.519531 217.898438 104.339844 218.253906 C 103.949219 219.035156 103.285156 219.492188 102.433594 219.523438 C 100.609375 219.585938 98.871094 219.277344 97.398438 218.074219 C 96.878906 217.648438 96.484375 217.128906 96.21875 216.515625 C 95.539062 214.945312 95.125 213.3125 95.058594 211.601562 C 94.996094 210.097656 94.929688 208.59375 94.964844 207.089844 C 95.042969 204.105469 95.257812 201.128906 95.703125 198.175781 C 96.078125 195.714844 96.46875 193.253906 96.851562 190.796875 C 96.851562 190.78125 96.832031 190.757812 96.792969 190.683594 C 96.648438 190.898438 96.515625 191.085938 96.398438 191.28125 C 92.453125 198.015625 88.972656 204.960938 86.875 212.523438 C 86.046875 215.511719 85.1875 218.492188 84.335938 221.476562 C 84.222656 221.882812 84.089844 222.285156 83.941406 222.679688 C 83.636719 223.480469 83.027344 223.96875 82.203125 224.039062 C 81.414062 224.109375 80.589844 224.132812 79.816406 223.996094 C 77.804688 223.640625 76.464844 222.410156 75.871094 220.480469 C 75.515625 219.320312 75.285156 218.101562 75.167969 216.894531 C 74.925781 214.464844 74.800781 212.027344 74.625 209.527344 C 74.523438 209.773438 74.414062 210.011719 74.320312 210.25 C 72.722656 214.398438 70.96875 218.480469 69.078125 222.503906 C 68.304688 224.144531 67.449219 225.738281 66.367188 227.203125 C 65.667969 228.15625 64.878906 229.023438 63.925781 229.734375 C 62.488281 230.808594 60.914062 231.097656 59.1875 230.574219 C 56.664062 229.800781 54.734375 228.308594 53.480469 225.957031 C 52.433594 223.996094 51.875 221.898438 51.566406 219.722656 C 51.179688 217.007812 51.175781 214.277344 51.328125 211.554688 C 51.523438 208.078125 51.972656 204.628906 52.980469 201.277344 C 53.195312 200.558594 53.464844 199.855469 53.734375 199.152344 C 53.929688 198.640625 54.273438 198.277344 54.859375 198.207031 C 55.441406 198.136719 56.019531 198 56.601562 197.980469 C 58.035156 197.933594 59.46875 197.960938 60.886719 198.230469 C 61.140625 198.28125 61.394531 198.351562 61.625 198.453125 C 62.4375 198.808594 62.925781 199.433594 62.871094 200.324219 C 62.824219 201.1875 62.671875 202.046875 62.503906 202.898438 C 61.914062 205.917969 61.234375 208.921875 60.707031 211.957031 C 60.40625 213.707031 60.351562 215.503906 60.148438 217.277344 C 59.988281 218.714844 60.113281 220.140625 60.210938 221.570312 C 60.25 222.132812 60.367188 222.6875 60.460938 223.242188 C 60.492188 223.425781 60.546875 223.609375 60.621094 223.78125 C 60.777344 224.144531 60.921875 224.570312 61.371094 224.644531 C 61.867188 224.726562 62.230469 224.40625 62.480469 224.023438 C 62.953125 223.296875 63.464844 222.574219 63.824219 221.789062 C 65.417969 218.304688 67.023438 214.828125 68.507812 211.296875 C 71.203125 204.898438 73.453125 198.339844 75.421875 191.683594 C 75.707031 190.71875 76.070312 189.773438 76.40625 188.820312 C 76.699219 187.976562 77.265625 187.394531 78.0625 186.988281 C 79.429688 186.289062 80.898438 185.996094 82.402344 185.832031 C 83.078125 185.757812 83.761719 185.714844 84.441406 185.71875 C 84.808594 185.71875 85.191406 185.804688 85.539062 185.929688 C 86.324219 186.21875 86.78125 186.824219 86.742188 187.65625 C 86.691406 188.710938 86.566406 189.761719 86.402344 190.804688 C 85.832031 194.472656 85.230469 198.136719 84.644531 201.800781 C 84.605469 202.054688 84.589844 202.3125 84.652344 202.605469 C 84.746094 202.410156 84.847656 202.21875 84.929688 202.019531 C 87.527344 195.847656 90.628906 189.941406 94.207031 184.285156 C 95.148438 182.796875 96.160156 181.347656 97.167969 179.902344 C 97.527344 179.382812 97.953125 178.90625 98.378906 178.433594 C 99.90625 176.734375 101.8125 176.171875 104.003906 176.699219 C 104.933594 176.921875 105.847656 177.269531 106.707031 177.691406 C 108.109375 178.386719 108.804688 179.582031 108.628906 181.152344 C 108.488281 182.433594 108.226562 183.703125 107.976562 184.96875 C 107.289062 188.449219 106.542969 191.921875 105.886719 195.40625 C 105.558594 197.136719 105.367188 198.890625 105.117188 200.636719 C 105.101562 200.75 105.105469 200.867188 105.203125 201.03125 C 105.3125 200.800781 105.421875 200.574219 105.523438 200.339844 C 107.28125 196.355469 109.246094 192.476562 111.511719 188.757812 C 112.761719 186.707031 114.046875 184.679688 115.578125 182.824219 C 116.074219 182.226562 116.589844 181.640625 117.148438 181.101562 C 118.355469 179.9375 119.820312 179.527344 121.488281 179.695312 C 122.851562 179.832031 124.097656 180.269531 125.285156 180.917969 C 127.042969 181.878906 127.589844 182.988281 127.191406 184.9375 C 126.863281 186.527344 126.503906 188.105469 126.097656 189.675781 C 125.144531 193.390625 124.398438 197.144531 123.875 200.945312 C 123.609375 202.875 123.410156 204.816406 123.21875 206.753906 C 123.117188 207.792969 123.246094 208.824219 123.503906 209.828125 C 123.597656 210.183594 123.785156 210.53125 123.996094 210.832031 C 124.269531 211.226562 124.5625 211.308594 124.972656 211.066406 C 125.375 210.835938 125.757812 210.542969 126.074219 210.210938 C 127.71875 208.476562 129.109375 206.550781 130.265625 204.464844 C 132.945312 199.648438 135.191406 194.636719 137.035156 189.433594 C 138.761719 184.550781 140.113281 179.566406 141.402344 174.558594 C 141.738281 173.261719 142.144531 171.984375 142.511719 170.695312 C 142.832031 169.582031 143.507812 168.929688 144.710938 168.84375 C 145.882812 168.761719 147.046875 168.582031 148.21875 168.503906 C 148.777344 168.46875 149.347656 168.53125 149.902344 168.621094 C 151.082031 168.8125 151.738281 169.574219 151.691406 170.78125 C 151.65625 171.644531 151.523438 172.507812 151.367188 173.363281 C 150.765625 176.714844 150.136719 180.066406 149.515625 183.414062 C 149.503906 183.480469 149.5 183.550781 149.574219 183.667969 C 149.695312 183.46875 149.816406 183.273438 149.929688 183.074219 C 151.902344 179.550781 154.140625 176.21875 156.910156 173.265625 C 158.089844 172.011719 159.339844 170.832031 160.738281 169.820312 C 162.203125 168.761719 163.796875 167.984375 165.609375 167.710938 C 167.441406 167.433594 169.109375 167.847656 170.660156 168.824219 C 172.210938 169.804688 173.375 171.132812 174.292969 172.699219 C 175.335938 174.480469 176.09375 176.367188 176.46875 178.402344 C 176.503906 178.605469 176.570312 178.804688 176.628906 179.039062 C 177.660156 178.785156 178.660156 178.527344 179.664062 178.292969 C 181.980469 177.753906 184.316406 177.320312 186.691406 177.140625 C 187.449219 177.085938 188.21875 177.160156 189.019531 177.179688 C 188.929688 177.035156 188.828125 176.882812 188.730469 176.730469 C 187.195312 174.21875 186.464844 171.511719 186.890625 168.574219 C 187.261719 165.96875 188.488281 163.804688 190.617188 162.238281 C 193.464844 160.136719 196.910156 160.34375 199.558594 162.695312 C 200.304688 163.359375 200.902344 164.144531 201.425781 164.988281 C 202.625 166.914062 203.304688 169.027344 203.683594 171.25 C 204.046875 173.390625 204.191406 175.546875 204.183594 177.714844 C 204.183594 177.875 204.199219 178.035156 204.210938 178.273438 C 207.078125 178.238281 209.757812 177.578125 212.367188 176.34375 C 212.308594 176.101562 212.265625 175.875 212.207031 175.65625 C 211.636719 173.519531 211.085938 171.378906 210.828125 169.179688 C 210.496094 166.34375 210.367188 163.5 211.160156 160.710938 C 211.679688 158.875 212.378906 157.101562 213.339844 155.445312 C 214.367188 153.671875 215.707031 152.171875 217.433594 151.039062 C 218.773438 150.15625 220.234375 149.574219 221.839844 149.464844 C 223.054688 149.378906 224.222656 149.660156 225.316406 150.210938 C 226.914062 151.015625 228.039062 152.28125 228.8125 153.867188 C 229.875 156.0625 230.195312 158.398438 230.019531 160.808594 C 229.808594 163.628906 228.84375 166.210938 227.488281 168.667969 C 226.21875 170.972656 224.605469 173.023438 222.75 174.875 C 222.324219 175.292969 222.273438 175.644531 222.488281 176.164062 C 223.464844 178.507812 224.433594 180.855469 225.367188 183.214844 C 227.371094 188.289062 229.207031 193.421875 230.441406 198.75 C 231.242188 202.210938 231.597656 205.710938 231.332031 209.25 C 231.046875 213.046875 230.3125 216.75 228.667969 220.21875 C 227.402344 222.878906 225.667969 225.152344 223.117188 226.734375 C 221.386719 227.804688 219.523438 228.28125 217.519531 227.953125 C 214.933594 227.53125 213.0625 226.019531 211.761719 223.804688 C 210.808594 222.183594 210.273438 220.402344 210.042969 218.539062 C 209.640625 215.285156 209.894531 212.0625 210.53125 208.859375 C 211.375 204.628906 212.828125 200.625 214.945312 196.863281 C 215.519531 195.835938 216.101562 194.816406 216.6875 193.796875 C 216.800781 193.59375 216.9375 193.40625 217.113281 193.132812 C 217.1875 193.277344 217.234375 193.339844 217.257812 193.414062 C 217.808594 195.308594 218.351562 197.207031 218.902344 199.101562 C 219.039062 199.554688 218.964844 199.945312 218.746094 200.375 C 216.5 204.714844 215.1875 209.316406 214.886719 214.199219 C 214.78125 215.875 214.953125 217.535156 215.371094 219.160156 C 215.5 219.652344 215.710938 220.144531 215.972656 220.578125 C 216.167969 220.910156 216.476562 221.203125 216.800781 221.417969 C 217.484375 221.875 218.167969 221.816406 218.699219 221.1875 C 219.132812 220.675781 219.5 220.078125 219.765625 219.460938 C 220.316406 218.1875 220.679688 216.84375 220.863281 215.464844 C 221.125 213.507812 221.347656 211.542969 221.324219 209.5625 C 221.300781 207.398438 221.003906 205.257812 220.714844 203.113281 C 220.085938 198.414062 218.496094 193.996094 216.90625 189.570312 C 216 187.046875 215.140625 184.507812 214.257812 181.980469 C 214.164062 181.714844 214.054688 181.457031 213.9375 181.144531 C 212.296875 181.828125 210.664062 182.402344 208.953125 182.753906 C 207.269531 183.101562 205.570312 183.3125 203.792969 183.308594 C 203.714844 183.769531 203.636719 184.203125 203.5625 184.640625 C 202.839844 188.828125 201.707031 192.898438 199.945312 196.769531 C 199.304688 198.175781 198.496094 199.511719 197.679688 200.828125 C 196.960938 201.996094 196 202.980469 194.914062 203.820312 C 193.613281 204.824219 192.167969 205.449219 190.496094 205.460938 C 189.171875 205.472656 188 205.050781 186.972656 204.234375 C 185.71875 203.242188 184.898438 201.941406 184.324219 200.46875 C 183.5625 198.511719 183.285156 196.464844 183.25 194.386719 C 183.191406 190.542969 183.84375 186.800781 184.964844 183.136719 C 185.035156 182.914062 185.101562 182.691406 185.203125 182.363281 C 182.332031 182.722656 179.617188 183.386719 176.921875 184.199219 C 176.855469 185.140625 176.800781 186.027344 176.726562 186.914062 C 176.320312 191.722656 175.375 196.402344 173.320312 200.808594 C 172.296875 202.992188 171.015625 205.015625 169.472656 206.867188 C 168.328125 208.238281 166.964844 209.355469 165.414062 210.226562 C 163.738281 211.167969 161.933594 211.558594 159.988281 211.421875 C 158.734375 211.332031 157.589844 211.015625 156.523438 210.367188 C 153.871094 208.757812 152.808594 206.269531 152.734375 203.300781 C 152.675781 201.132812 153.199219 199.054688 154.023438 197.058594 C 155.730469 192.957031 158.402344 189.566406 161.726562 186.660156 C 163.113281 185.449219 164.617188 184.398438 166.207031 183.472656 C 166.449219 183.332031 166.691406 183.191406 166.972656 183.027344 C 166.960938 182.84375 166.992188 182.652344 166.9375 182.484375 C 166.671875 181.609375 166.417969 180.726562 166.089844 179.878906 C 165.921875 179.449219 165.640625 179.046875 165.339844 178.691406 C 164.292969 177.4375 162.804688 177.089844 161.339844 177.8125 C 160.695312 178.132812 160.078125 178.554688 159.539062 179.035156 C 157.183594 181.144531 155.371094 183.691406 153.816406 186.425781 C 152.402344 188.914062 151.492188 191.609375 150.589844 194.308594 C 149.074219 198.816406 147.980469 203.433594 147.042969 208.089844 C 146.390625 211.320312 146.019531 214.585938 145.742188 217.867188 C 145.472656 221.058594 145.429688 224.253906 145.484375 227.449219 C 145.5 228.527344 145.15625 229.34375 144.332031 230.039062 C 143.351562 230.867188 142.269531 231.523438 141.128906 232.085938 C 139.90625 232.691406 138.90625 232.390625 138.136719 231.246094 C 137.332031 230.050781 136.960938 228.6875 136.746094 227.285156 C 136.390625 225 136.347656 222.699219 136.414062 220.390625 C 136.445312 219.40625 136.441406 218.417969 136.480469 217.429688 C 136.566406 215.199219 136.632812 212.964844 136.777344 210.738281 C 136.984375 207.503906 137.285156 204.273438 137.820312 201.074219 C 137.824219 201.035156 137.796875 200.992188 137.761719 200.871094 C 137.628906 201.128906 137.519531 201.328125 137.414062 201.53125 C 136.625 203.082031 135.875 204.652344 135.042969 206.179688 C 133.460938 209.085938 131.578125 211.78125 129.238281 214.136719 C 128.355469 215.027344 127.359375 215.773438 126.269531 216.394531 C 124.570312 217.367188 122.808594 217.511719 120.984375 216.773438 C 120.851562 216.71875 120.722656 216.667969 120.589844 216.613281 C 118.085938 215.59375 116.40625 213.875 115.648438 211.207031 C 115.09375 209.242188 114.746094 207.269531 114.734375 205.238281 C 114.726562 203.523438 114.710938 201.800781 114.847656 200.09375 C 115.039062 197.707031 115.242188 195.316406 115.753906 192.964844 C 115.792969 192.792969 115.804688 192.617188 115.828125 192.441406 C 115.796875 192.429688 115.765625 192.414062 115.734375 192.402344 " fill-opacity="1" fill-rule="nonzero"/><g clip-path="url(#9b7af4904a)"><path fill="#88c0fa" d="M 91.101562 276.832031 C 91.003906 276.914062 90.9375 276.949219 90.902344 277.003906 C 90.785156 277.179688 90.671875 277.359375 90.570312 277.546875 C 88.855469 280.660156 87.636719 283.945312 87.207031 287.496094 C 87.019531 289.050781 87.132812 290.597656 87.636719 292.085938 C 87.859375 292.742188 88.195312 293.386719 88.601562 293.949219 C 89.226562 294.816406 89.941406 294.863281 90.773438 294.179688 C 91.042969 293.957031 91.300781 293.695312 91.472656 293.398438 C 91.808594 292.8125 92.144531 292.207031 92.375 291.574219 C 93.195312 289.324219 93.277344 286.996094 93.160156 284.628906 C 93.035156 282.121094 92.273438 279.792969 91.390625 277.484375 C 91.308594 277.269531 91.207031 277.0625 91.101562 276.832031 Z M 183.445312 244.691406 C 183.492188 244.71875 183.539062 244.746094 183.582031 244.773438 C 183.75 244.617188 183.921875 244.46875 184.078125 244.300781 C 186.46875 241.761719 188.632812 239.039062 190.519531 236.101562 C 192.503906 233 193.882812 229.648438 194.710938 226.066406 C 194.921875 225.164062 194.988281 224.253906 194.902344 223.332031 C 194.804688 222.339844 194.078125 221.894531 193.144531 222.261719 C 192.910156 222.355469 192.667969 222.480469 192.476562 222.648438 C 192.019531 223.050781 191.546875 223.449219 191.160156 223.914062 C 190.082031 225.203125 189.273438 226.664062 188.558594 228.179688 C 186.503906 232.539062 185.082031 237.105469 184.050781 241.804688 C 183.839844 242.765625 183.648438 243.726562 183.445312 244.691406 Z M 156.6875 266.421875 C 156.484375 266.523438 156.355469 266.570312 156.246094 266.644531 C 155.226562 267.320312 154.164062 267.941406 153.203125 268.691406 C 149.578125 271.496094 146.535156 274.84375 144.121094 278.742188 C 142.5625 281.261719 141.589844 283.980469 141.480469 286.976562 C 141.425781 288.488281 141.722656 289.914062 142.457031 291.246094 C 143.035156 292.289062 143.941406 292.777344 145.117188 292.816406 C 146.277344 292.859375 147.28125 292.394531 148.199219 291.761719 C 149.722656 290.707031 151.003906 289.402344 152.042969 287.867188 C 153.34375 285.945312 154.34375 283.863281 155.082031 281.679688 C 156.578125 277.269531 157.175781 272.722656 156.902344 268.066406 C 156.871094 267.539062 156.765625 267.011719 156.6875 266.421875 Z M 138.582031 243.230469 C 138.6875 243.027344 138.792969 242.824219 138.890625 242.617188 C 140.742188 238.675781 143.097656 235.0625 146 231.808594 C 147.371094 230.277344 148.898438 228.917969 150.554688 227.703125 C 151.796875 226.796875 153.125 226.0625 154.601562 225.585938 C 157.03125 224.808594 159.324219 225.191406 161.433594 226.511719 C 164.152344 228.214844 165.652344 230.722656 166 233.921875 C 166.226562 236.015625 165.757812 238 165.007812 239.914062 C 163.65625 243.363281 161.636719 246.417969 159.230469 249.21875 C 158.496094 250.074219 157.804688 250.964844 157.027344 251.917969 C 159.816406 252.921875 162.183594 254.429688 163.949219 256.769531 C 166.621094 255.648438 169.21875 254.554688 171.855469 253.449219 C 171.949219 252.644531 172.042969 251.832031 172.140625 251.019531 C 172.785156 245.460938 174.191406 240.078125 175.972656 234.785156 C 177.195312 231.160156 178.679688 227.664062 180.691406 224.402344 C 181.890625 222.453125 183.222656 220.601562 184.894531 219.023438 C 187.042969 217 189.535156 215.683594 192.515625 215.375 C 196.171875 215 199.332031 217.335938 200.027344 220.941406 C 200.5 223.40625 200.175781 225.808594 199.511719 228.1875 C 198.246094 232.75 196.121094 236.894531 193.414062 240.757812 C 190.371094 245.097656 186.832031 248.984375 182.746094 252.363281 C 182.324219 252.710938 182.140625 253.085938 182.09375 253.605469 C 181.804688 256.867188 181.613281 260.132812 181.828125 263.398438 C 182.160156 268.410156 182.820312 273.375 184.925781 278.007812 C 186.199219 280.8125 187.832031 283.402344 190.230469 285.398438 C 191.074219 286.101562 192.023438 286.691406 192.964844 287.257812 C 193.398438 287.519531 193.929688 287.628906 194.421875 287.765625 C 194.96875 287.917969 195.128906 288.019531 195.074219 288.585938 C 195.019531 289.132812 194.886719 289.699219 194.664062 290.203125 C 194.464844 290.667969 194.15625 291.117188 193.800781 291.480469 C 192.105469 293.203125 190.105469 294.238281 187.613281 294.273438 C 184.777344 294.316406 182.4375 293.230469 180.464844 291.292969 C 177.933594 288.8125 176.226562 285.800781 174.886719 282.550781 C 173.4375 279.023438 172.550781 275.359375 172.085938 271.585938 C 172.003906 270.910156 171.976562 270.226562 171.929688 269.546875 C 171.6875 266.148438 171.539062 262.742188 171.574219 259.332031 C 171.578125 259.265625 171.546875 259.203125 171.511719 259.054688 C 169.828125 259.691406 168.207031 260.402344 166.535156 261.117188 C 166.578125 261.296875 166.59375 261.453125 166.644531 261.601562 C 167.722656 264.785156 168.042969 268.058594 167.863281 271.40625 C 167.703125 274.472656 167.296875 277.496094 166.398438 280.433594 C 164.890625 285.371094 162.667969 289.929688 159.199219 293.808594 C 156.332031 297.007812 152.847656 299.242188 148.683594 300.355469 C 146.625 300.898438 144.546875 300.996094 142.503906 300.242188 C 139.496094 299.136719 137.574219 296.957031 136.460938 294.019531 C 135.621094 291.804688 135.402344 289.5 135.535156 287.152344 C 135.746094 283.425781 136.96875 280.027344 138.820312 276.832031 C 141.011719 273.039062 143.847656 269.800781 147.195312 266.996094 C 149.402344 265.148438 151.75 263.5 154.214844 262.019531 C 154.953125 261.574219 154.984375 261.386719 154.457031 260.699219 C 153.511719 259.46875 152.257812 258.667969 150.855469 258.054688 C 150.527344 257.910156 150.324219 258.050781 150.082031 258.203125 C 149.085938 258.84375 148.019531 259.332031 146.855469 259.578125 C 145.542969 259.851562 144.332031 259.664062 143.289062 258.746094 C 142.175781 257.765625 141.84375 256.242188 142.46875 254.898438 C 142.796875 254.195312 143.308594 253.65625 143.941406 253.21875 C 144.945312 252.523438 146.078125 252.113281 147.265625 251.910156 C 148.0625 251.773438 148.617188 251.382812 149.136719 250.796875 C 151.425781 248.214844 153.148438 245.289062 154.535156 242.152344 C 155.355469 240.300781 156.09375 238.417969 156.441406 236.414062 C 156.609375 235.441406 156.753906 234.457031 156.523438 233.472656 C 156.476562 233.265625 156.429688 233.058594 156.347656 232.863281 C 156.042969 232.132812 155.5 231.820312 154.707031 232 C 154.210938 232.109375 153.710938 232.296875 153.265625 232.546875 C 151.636719 233.472656 150.183594 234.617188 148.949219 236.035156 C 146.738281 238.570312 145.269531 241.539062 143.964844 244.597656 C 141.972656 249.269531 140.683594 254.152344 139.902344 259.160156 C 139.578125 261.246094 139.457031 263.363281 139.253906 265.46875 C 139.039062 267.722656 139.097656 269.980469 139.15625 272.238281 C 139.160156 272.542969 139.15625 272.851562 139.125 273.152344 C 139.085938 273.613281 138.914062 274.03125 138.554688 274.332031 C 137.234375 275.433594 135.714844 275.996094 133.988281 275.824219 C 132.558594 275.679688 131.539062 274.847656 130.960938 273.570312 C 130.546875 272.65625 130.257812 271.679688 129.976562 270.714844 C 129.792969 270.089844 129.710938 269.433594 129.574219 268.71875 C 129.339844 268.894531 129.308594 269.121094 129.242188 269.320312 C 128.320312 271.964844 127.300781 274.566406 125.984375 277.046875 C 125.15625 278.605469 124.277344 280.140625 123.09375 281.464844 C 122.5 282.128906 121.859375 282.761719 121.183594 283.34375 C 119.082031 285.152344 116.722656 285.496094 114.128906 284.542969 C 111.835938 283.707031 110.363281 282.035156 109.335938 279.914062 C 108.601562 278.398438 108.285156 276.757812 108.082031 275.089844 C 107.796875 272.75 107.78125 270.398438 107.960938 268.050781 C 108.125 265.945312 108.386719 263.84375 108.851562 261.777344 C 108.875 261.667969 108.882812 261.550781 108.917969 261.324219 C 104.757812 263.457031 101.097656 266.121094 97.65625 269.195312 C 97.789062 269.417969 97.902344 269.617188 98.027344 269.8125 C 100.476562 273.75 101.609375 278.0625 101.726562 282.671875 C 101.792969 285.316406 101.636719 287.9375 100.996094 290.515625 C 100.21875 293.648438 98.734375 296.378906 96.394531 298.625 C 95.148438 299.820312 93.738281 300.78125 92.003906 301.027344 C 88.875 301.46875 86.167969 300.636719 84.132812 298.109375 C 82.75 296.398438 82.085938 294.375 81.789062 292.214844 C 81.300781 288.691406 81.859375 285.285156 82.984375 281.941406 C 84.128906 278.546875 85.792969 275.429688 87.886719 272.53125 C 88.035156 272.320312 88.183594 272.109375 88.359375 271.859375 C 88.179688 271.601562 88.007812 271.355469 87.828125 271.113281 C 85.914062 268.574219 83.878906 266.136719 81.742188 263.785156 C 80.617188 262.550781 79.5 261.304688 78.421875 260.027344 C 76.839844 258.152344 75.488281 256.113281 74.386719 253.917969 C 73.328125 251.8125 72.765625 249.574219 72.582031 247.226562 C 72.285156 243.460938 73.34375 240.105469 75.636719 237.144531 C 77.414062 234.84375 79.699219 233.226562 82.550781 232.53125 C 87.992188 231.207031 93.179688 234.53125 94.6875 239.0625 C 95.628906 241.894531 95.660156 244.699219 94.621094 247.488281 C 93.96875 249.246094 92.863281 250.683594 91.039062 251.355469 C 88.871094 252.152344 86.09375 251.433594 85.171875 248.832031 C 84.878906 247.996094 84.976562 247.296875 85.71875 246.6875 C 86.816406 245.785156 87.257812 244.515625 87.425781 243.15625 C 87.550781 242.148438 87.539062 241.136719 87.136719 240.167969 C 86.5 238.644531 85.003906 237.898438 83.394531 238.316406 C 82.289062 238.597656 81.460938 239.257812 80.847656 240.203125 C 79.921875 241.628906 79.714844 243.21875 79.878906 244.871094 C 80.007812 246.152344 80.476562 247.332031 81.03125 248.480469 C 82.273438 251.046875 83.980469 253.285156 85.855469 255.410156 C 86.929688 256.625 88.0625 257.789062 89.140625 259.003906 C 90.765625 260.832031 92.367188 262.683594 93.976562 264.523438 C 94.164062 264.734375 94.339844 264.949219 94.554688 265.207031 C 94.765625 265.042969 94.945312 264.90625 95.121094 264.757812 C 98.9375 261.535156 102.964844 258.601562 107.277344 256.066406 C 108.453125 255.375 109.636719 254.6875 110.964844 254.320312 C 112.953125 253.769531 114.929688 253.921875 116.875 254.53125 C 118.53125 255.050781 119.339844 256.449219 118.972656 258.019531 C 118.617188 259.527344 118.28125 261.042969 117.9375 262.554688 C 117.214844 265.765625 116.554688 268.992188 116.3125 272.277344 C 116.175781 274.082031 116.066406 275.898438 116.539062 277.679688 C 116.613281 277.972656 116.710938 278.269531 116.851562 278.539062 C 117.171875 279.152344 117.640625 279.335938 118.261719 279.023438 C 118.628906 278.839844 118.988281 278.570312 119.246094 278.25 C 119.789062 277.570312 120.300781 276.867188 120.753906 276.125 C 122.46875 273.292969 123.617188 270.207031 124.722656 267.101562 C 125.863281 263.898438 126.542969 260.585938 127.125 257.25 C 127.730469 253.78125 128.273438 250.296875 128.769531 246.808594 C 129.023438 245.019531 129.128906 243.207031 129.269531 241.40625 C 129.375 240.023438 129.417969 238.640625 129.503906 237.253906 C 129.558594 236.289062 130.089844 235.644531 130.9375 235.234375 C 132.050781 234.691406 133.242188 234.421875 134.457031 234.261719 C 135.105469 234.171875 135.769531 234.128906 136.421875 234.132812 C 137.75 234.140625 138.503906 234.902344 138.59375 236.222656 C 138.746094 238.410156 138.597656 240.59375 138.464844 242.773438 C 138.457031 242.914062 138.464844 243.054688 138.464844 243.195312 C 138.503906 243.207031 138.542969 243.21875 138.582031 243.230469 " fill-opacity="1" fill-rule="nonzero"/></g><path fill="#88c0fa" d="M 237.089844 75.292969 C 237.007812 75.457031 236.914062 75.59375 236.867188 75.742188 C 236.496094 76.878906 236.074219 78.003906 235.785156 79.164062 C 235.433594 80.578125 235.230469 82.023438 235.3125 83.492188 C 235.347656 84.09375 235.496094 84.660156 235.863281 85.136719 C 236.3125 85.714844 236.765625 85.71875 237.160156 85.105469 C 237.410156 84.722656 237.597656 84.269531 237.707031 83.824219 C 238.410156 81 238.027344 78.226562 237.246094 75.480469 C 237.230469 75.421875 237.160156 75.375 237.089844 75.292969 Z M 211.042969 92.632812 C 211.007812 92.617188 210.972656 92.601562 210.941406 92.589844 C 210.828125 92.726562 210.699219 92.855469 210.609375 93.007812 C 209.496094 94.859375 208.332031 96.683594 207.292969 98.578125 C 206.015625 100.914062 205.054688 103.390625 204.449219 105.992188 C 203.988281 107.972656 203.664062 109.957031 203.828125 112 C 203.84375 112.207031 203.859375 112.421875 203.921875 112.621094 C 204.128906 113.308594 204.585938 113.417969 205.035156 112.867188 C 205.375 112.453125 205.714844 112.007812 205.925781 111.523438 C 206.539062 110.125 207.171875 108.726562 207.636719 107.28125 C 208.992188 103.023438 209.945312 98.664062 210.753906 94.269531 C 210.855469 93.726562 210.945312 93.179688 211.042969 92.632812 Z M 235.960938 49.25 C 236.097656 49.046875 236.167969 48.957031 236.21875 48.859375 C 237.488281 46.335938 238.5625 43.734375 239.277344 40.996094 C 239.667969 39.519531 239.976562 38.023438 239.972656 36.484375 C 239.96875 35.769531 239.828125 35.078125 239.464844 34.457031 C 238.800781 33.308594 237.578125 33.144531 236.625 34.050781 C 236.089844 34.5625 235.714844 35.183594 235.445312 35.871094 C 235.011719 37 234.800781 38.175781 234.738281 39.375 C 234.648438 41.023438 234.6875 42.664062 234.902344 44.296875 C 235.117188 45.929688 235.433594 47.539062 235.960938 49.25 Z M 169.78125 84.972656 C 169.855469 85 169.929688 85.023438 170.003906 85.046875 C 170.261719 84.695312 170.554688 84.363281 170.761719 83.984375 C 171.265625 83.054688 171.769531 82.121094 172.195312 81.15625 C 173.71875 77.667969 175.191406 74.152344 176.734375 70.671875 C 177.132812 69.765625 177.085938 68.933594 176.691406 68.09375 C 176.195312 67.035156 175.832031 66.824219 174.621094 67.335938 C 174.367188 67.445312 174.113281 67.605469 173.925781 67.804688 C 173.539062 68.210938 173.105469 68.613281 172.851562 69.097656 C 172.296875 70.15625 171.773438 71.242188 171.359375 72.359375 C 170.46875 74.777344 170.050781 77.308594 169.800781 79.863281 C 169.679688 81.125 169.660156 82.398438 169.632812 83.664062 C 169.621094 84.101562 169.726562 84.535156 169.78125 84.972656 Z M 213.578125 73.460938 C 213.480469 73.660156 213.378906 73.863281 213.285156 74.066406 C 211.925781 76.984375 210.585938 79.914062 209.191406 82.816406 C 208.507812 84.238281 207.65625 85.574219 206.585938 86.742188 C 206.097656 87.273438 205.542969 87.78125 204.929688 88.148438 C 203.113281 89.230469 201.074219 88.941406 199.550781 87.464844 C 198.761719 86.703125 198.191406 85.789062 197.730469 84.800781 C 196.875 82.960938 196.507812 81 196.351562 79 C 196.25 77.710938 196.238281 76.414062 196.191406 75.125 C 196.183594 74.921875 196.191406 74.71875 196.074219 74.484375 C 195.972656 74.683594 195.867188 74.878906 195.773438 75.078125 C 194.691406 77.480469 193.664062 79.90625 192.511719 82.273438 C 191.597656 84.152344 190.578125 85.984375 189.519531 87.785156 C 189.023438 88.625 188.371094 89.398438 187.695312 90.109375 C 185.960938 91.9375 184.050781 92.28125 181.351562 90.824219 C 180.21875 90.214844 179.449219 89.238281 178.929688 88.058594 C 178.214844 86.433594 177.996094 84.71875 177.960938 82.96875 C 177.945312 82.222656 177.957031 81.476562 177.886719 80.699219 C 177.78125 80.921875 177.675781 81.144531 177.578125 81.367188 C 176.574219 83.621094 175.621094 85.898438 174.554688 88.125 C 173.96875 89.351562 173.226562 90.503906 172.496094 91.652344 C 172.027344 92.386719 171.386719 92.992188 170.640625 93.46875 C 169.253906 94.351562 167.824219 94.433594 166.351562 93.691406 C 165.203125 93.113281 164.339844 92.238281 163.703125 91.132812 C 162.878906 89.707031 162.386719 88.15625 162.1875 86.539062 C 161.464844 80.640625 162.296875 74.953125 164.675781 69.511719 C 165.539062 67.535156 166.722656 65.757812 168.308594 64.265625 C 169.695312 62.960938 171.289062 62.066406 173.175781 61.710938 C 175.398438 61.289062 177.367188 61.84375 179.125 63.230469 C 179.308594 63.371094 179.484375 63.527344 179.722656 63.722656 C 179.8125 63.527344 179.886719 63.367188 179.960938 63.210938 C 180.230469 62.609375 180.484375 62.003906 180.769531 61.410156 C 181.058594 60.808594 181.550781 60.449219 182.21875 60.449219 C 182.898438 60.453125 183.59375 60.453125 184.246094 60.613281 C 185.015625 60.800781 185.773438 61.09375 186.484375 61.445312 C 187.863281 62.125 188.480469 63.300781 188.214844 64.816406 C 187.792969 67.269531 187.324219 69.714844 186.835938 72.15625 C 186.214844 75.269531 185.695312 78.398438 185.359375 81.554688 C 185.292969 82.183594 185.304688 82.824219 185.332031 83.457031 C 185.347656 83.789062 185.484375 84.117188 185.5625 84.445312 C 185.613281 84.445312 185.664062 84.445312 185.714844 84.445312 C 185.855469 84.210938 186.003906 83.976562 186.140625 83.738281 C 187.679688 81.085938 188.894531 78.277344 190.109375 75.476562 C 192.09375 70.90625 194.007812 66.300781 195.960938 61.71875 C 196.308594 60.894531 196.671875 60.078125 197.082031 59.285156 C 197.726562 58.042969 198.769531 57.394531 200.183594 57.492188 C 201.257812 57.566406 202.339844 57.667969 203.390625 57.898438 C 204.789062 58.203125 205.410156 59 205.335938 60.421875 C 205.269531 61.777344 205.078125 63.132812 204.886719 64.476562 C 204.449219 67.523438 203.898438 70.558594 203.800781 73.644531 C 203.734375 75.730469 203.710938 77.824219 203.726562 79.914062 C 203.730469 80.421875 203.679688 81 204.121094 81.503906 C 204.234375 81.359375 204.347656 81.253906 204.417969 81.125 C 206.109375 77.945312 207.726562 74.730469 208.894531 71.320312 C 210.269531 67.320312 211.527344 63.28125 212.847656 59.261719 C 213.113281 58.460938 213.417969 57.667969 213.734375 56.882812 C 214.121094 55.933594 214.847656 55.367188 215.875 55.273438 C 216.921875 55.175781 217.980469 55.101562 219.035156 55.101562 C 220.109375 55.101562 220.886719 55.644531 221.246094 56.660156 C 221.476562 57.296875 221.664062 57.964844 221.742188 58.632812 C 221.941406 60.363281 221.929688 62.105469 221.804688 63.84375 C 221.710938 65.15625 221.667969 66.472656 221.597656 67.785156 C 221.566406 68.394531 221.515625 69.003906 221.480469 69.613281 C 221.46875 69.789062 221.476562 69.964844 221.476562 70.296875 C 221.738281 70 221.902344 69.84375 222.035156 69.664062 C 224.613281 66.214844 227.183594 62.761719 229.769531 59.320312 C 230.074219 58.914062 230.109375 58.585938 229.886719 58.117188 C 228.488281 55.128906 227.316406 52.050781 226.640625 48.816406 C 225.492188 43.324219 226.042969 38.0625 228.9375 33.152344 C 229.980469 31.382812 231.324219 29.894531 233 28.707031 C 234.359375 27.742188 235.863281 27.195312 237.53125 27.136719 C 238.519531 27.101562 239.449219 27.332031 240.320312 27.785156 C 242.632812 28.988281 244.058594 30.867188 244.648438 33.40625 C 245.183594 35.722656 245.03125 38.03125 244.566406 40.332031 C 243.652344 44.875 241.839844 49.070312 239.636719 53.113281 C 239.242188 53.835938 238.824219 54.546875 238.398438 55.25 C 238.253906 55.492188 238.191406 55.703125 238.308594 55.972656 C 239.183594 58.023438 240.050781 60.078125 240.960938 62.21875 C 241.253906 62.007812 241.457031 61.867188 241.660156 61.722656 C 243.433594 60.449219 245.332031 59.441406 247.492188 58.980469 C 249.054688 58.648438 250.585938 58.726562 252.058594 59.355469 C 254.078125 60.210938 255.414062 62.191406 255.351562 64.199219 C 255.308594 65.445312 254.894531 66.546875 253.9375 67.394531 C 253.496094 67.785156 253.207031 67.933594 252.574219 68.070312 C 249.980469 64.925781 245.277344 65.152344 242.917969 67.355469 C 242.988281 67.59375 243.054688 67.859375 243.144531 68.121094 C 243.953125 70.585938 244.554688 73.089844 244.792969 75.679688 C 244.984375 77.75 244.925781 79.816406 244.644531 81.867188 C 244.410156 83.554688 243.851562 85.160156 243.0625 86.667969 C 242.363281 88.003906 241.351562 89.085938 240.136719 89.96875 C 238.648438 91.050781 236.960938 91.386719 235.175781 91.046875 C 233.554688 90.738281 232.40625 89.695312 231.550781 88.335938 C 230.851562 87.226562 230.46875 85.996094 230.363281 84.679688 C 230.007812 80.136719 231.136719 75.914062 233.144531 71.886719 C 233.582031 71.003906 234.097656 70.160156 234.609375 69.316406 C 234.808594 68.988281 234.878906 68.71875 234.703125 68.347656 C 234.070312 67.007812 233.472656 65.652344 232.855469 64.304688 C 232.8125 64.207031 232.746094 64.113281 232.65625 63.960938 C 232.542969 64.082031 232.457031 64.15625 232.394531 64.242188 C 228.847656 69.203125 225.035156 73.953125 221.230469 78.714844 C 220.871094 79.164062 220.644531 79.613281 220.570312 80.21875 C 220.207031 83.15625 219.824219 86.09375 219.351562 89.011719 C 218.445312 94.605469 217.457031 100.183594 215.710938 105.589844 C 214.851562 108.257812 213.789062 110.84375 212.445312 113.308594 C 211.738281 114.613281 210.945312 115.867188 209.980469 116.996094 C 208.957031 118.203125 207.746094 119.1875 206.195312 119.59375 C 203.738281 120.242188 201.683594 119.457031 200.355469 117.429688 C 199.472656 116.078125 199.074219 114.566406 198.878906 112.984375 C 198.503906 109.910156 199.039062 106.9375 199.796875 103.984375 C 200.597656 100.863281 201.898438 97.953125 203.449219 95.144531 C 205.085938 92.175781 206.964844 89.355469 208.949219 86.605469 C 210.074219 85.039062 211.234375 83.5 212.398438 81.960938 C 212.683594 81.585938 212.828125 81.203125 212.878906 80.742188 C 213.128906 78.5 213.40625 76.261719 213.667969 74.023438 C 213.6875 73.847656 213.671875 73.667969 213.671875 73.488281 C 213.640625 73.480469 213.609375 73.46875 213.578125 73.460938 " fill-opacity="1" fill-rule="nonzero"/><path fill="#88c0fa" d="M 109.710938 67 C 109.792969 67.050781 109.878906 67.097656 109.960938 67.148438 C 110.046875 67.003906 110.105469 66.839844 110.214844 66.722656 C 113.90625 62.753906 117.058594 58.402344 119.476562 53.542969 C 120.976562 50.539062 122.039062 47.378906 122.398438 44.019531 C 122.464844 43.414062 122.492188 42.792969 122.445312 42.1875 C 122.378906 41.28125 121.824219 41.035156 121.121094 41.59375 C 120.71875 41.914062 120.328125 42.277344 120.027344 42.691406 C 119.273438 43.738281 118.503906 44.785156 117.863281 45.90625 C 114.332031 52.089844 111.8125 58.683594 110.046875 65.574219 C 109.921875 66.046875 109.824219 66.523438 109.710938 67 Z M 129.75 92.28125 C 130.34375 91.902344 130.710938 91.398438 130.984375 90.816406 C 131.738281 89.222656 132.535156 87.644531 133.214844 86.019531 C 134.566406 82.789062 135.855469 79.53125 137.164062 76.285156 C 138.140625 73.863281 139.109375 71.441406 140.09375 69.023438 C 140.257812 68.613281 140.484375 68.222656 140.691406 67.828125 C 141.101562 67.039062 141.765625 66.59375 142.625 66.4375 C 143.890625 66.207031 145.152344 66.21875 146.402344 66.542969 C 147.765625 66.894531 148.40625 67.714844 148.449219 69.128906 C 148.484375 70.390625 148.195312 71.605469 147.96875 72.828125 C 147.371094 76.039062 146.808594 79.261719 146.632812 82.527344 C 146.519531 84.660156 146.519531 86.800781 146.515625 88.941406 C 146.515625 89.636719 146.640625 90.335938 147.074219 91.054688 C 147.300781 90.863281 147.53125 90.742188 147.664062 90.550781 C 148.136719 89.878906 148.644531 89.21875 149.015625 88.492188 C 150.625 85.34375 151.84375 82.039062 152.863281 78.652344 C 154.214844 74.148438 155.488281 69.625 156.300781 64.984375 C 157.070312 60.574219 157.546875 56.136719 157.347656 51.648438 C 157.257812 49.574219 157 47.515625 156.472656 45.515625 C 155.875 43.246094 154.761719 41.238281 153.042969 39.609375 C 152.050781 38.667969 150.902344 37.976562 149.511719 37.835938 C 148.585938 37.738281 147.640625 37.796875 147.054688 38.691406 C 146.433594 39.636719 146.277344 40.640625 146.855469 41.6875 C 147.269531 42.425781 147.871094 42.980469 148.554688 43.449219 C 150.628906 44.875 152.90625 45.398438 155.496094 44.9375 C 156.074219 46.492188 156.230469 48.128906 156.382812 49.871094 C 155.46875 49.996094 154.617188 50.152344 153.757812 50.226562 C 150.304688 50.527344 146.949219 50.117188 143.75 48.710938 C 142.421875 48.128906 141.230469 47.339844 140.261719 46.246094 C 137.730469 43.386719 137.339844 39.28125 139.289062 35.855469 C 141.5625 31.867188 145.488281 30.527344 149.257812 31.054688 C 153.195312 31.605469 156.226562 33.621094 158.351562 36.980469 C 159.941406 39.492188 160.949219 42.234375 161.558594 45.140625 C 162.316406 48.753906 162.53125 52.402344 162.355469 56.082031 C 161.996094 63.746094 160.308594 71.15625 158.140625 78.484375 C 156.746094 83.207031 155.078125 87.820312 152.832031 92.210938 C 152.1875 93.46875 151.492188 94.703125 150.558594 95.769531 C 150.007812 96.40625 149.386719 96.988281 148.75 97.542969 C 147.257812 98.84375 144.398438 98.695312 142.980469 97.671875 C 141.847656 96.855469 140.960938 95.855469 140.425781 94.550781 C 139.785156 92.996094 139.359375 91.386719 139.144531 89.726562 C 138.988281 88.515625 138.90625 87.296875 138.785156 86.046875 C 138.535156 86.132812 138.53125 86.402344 138.445312 86.589844 C 137.496094 88.636719 136.597656 90.710938 135.605469 92.738281 C 134.941406 94.085938 134.179688 95.386719 133.402344 96.675781 C 133.015625 97.316406 132.542969 97.917969 132.039062 98.46875 C 130.34375 100.304688 127.28125 100.902344 124.953125 98.535156 C 123.847656 97.414062 123.175781 96.058594 122.769531 94.5625 C 122.191406 92.4375 121.953125 90.265625 121.910156 88.074219 C 121.890625 86.875 121.972656 85.675781 122.007812 84.476562 C 122.011719 84.347656 122.011719 84.21875 121.914062 84.046875 C 121.777344 84.257812 121.632812 84.460938 121.503906 84.675781 C 118.765625 89.230469 116.039062 93.792969 113.289062 98.34375 C 112.597656 99.488281 111.863281 100.613281 111.113281 101.722656 C 110.492188 102.640625 109.761719 103.476562 108.894531 104.179688 C 106.167969 106.394531 102.75 106.066406 100.488281 103.375 C 99.46875 102.160156 98.867188 100.738281 98.46875 99.222656 C 97.707031 96.316406 97.382812 93.355469 97.335938 90.359375 C 97.273438 86.585938 97.640625 82.839844 98.144531 79.109375 C 98.734375 74.75 99.511719 70.425781 100.570312 66.152344 C 101.953125 60.539062 103.839844 55.105469 106.398438 49.921875 C 108.210938 46.253906 110.449219 42.867188 113.265625 39.878906 C 114.304688 38.777344 115.453125 37.808594 116.703125 36.957031 C 118.058594 36.035156 119.539062 35.386719 121.175781 35.144531 C 122.824219 34.894531 124.25 35.359375 125.453125 36.492188 C 126.726562 37.683594 127.234375 39.226562 127.414062 40.90625 C 127.707031 43.714844 127.226562 46.4375 126.496094 49.128906 C 125.777344 51.773438 124.769531 54.304688 123.480469 56.71875 C 120.695312 61.941406 117.246094 66.683594 113.101562 70.914062 C 111.683594 72.363281 110.136719 73.667969 108.414062 74.75 C 108.117188 74.941406 107.957031 75.15625 107.886719 75.519531 C 107.195312 79.171875 106.613281 82.835938 106.195312 86.527344 C 105.9375 88.804688 105.875 91.078125 105.976562 93.359375 C 106.011719 94.105469 106.132812 94.855469 106.25 95.59375 C 106.300781 95.914062 106.417969 96.234375 106.558594 96.53125 C 106.820312 97.085938 107.304688 97.230469 107.84375 96.933594 C 108.027344 96.832031 108.203125 96.695312 108.335938 96.539062 C 108.652344 96.164062 108.988281 95.789062 109.242188 95.371094 C 112.683594 89.644531 116.125 83.921875 119.539062 78.179688 C 120.558594 76.460938 121.472656 74.679688 122.453125 72.9375 C 123.058594 71.875 123.683594 70.824219 124.332031 69.789062 C 124.953125 68.789062 125.871094 68.324219 127.0625 68.34375 C 128.246094 68.359375 129.402344 68.550781 130.542969 68.835938 C 130.859375 68.917969 131.164062 69.0625 131.453125 69.21875 C 132.175781 69.621094 132.566406 70.253906 132.503906 71.074219 C 132.453125 71.773438 132.335938 72.476562 132.15625 73.15625 C 131.261719 76.542969 130.40625 79.941406 129.898438 83.40625 C 129.664062 85.011719 129.519531 86.628906 129.375 88.238281 C 129.296875 89.105469 129.289062 89.976562 129.277344 90.84375 C 129.269531 91.453125 129.390625 91.765625 129.75 92.28125 " fill-opacity="1" fill-rule="nonzero"/><path fill="#88c0fa" d="M 93.210938 47.375 C 93.085938 47.414062 93.027344 47.414062 93.003906 47.441406 C 92.804688 47.671875 92.605469 47.90625 92.421875 48.148438 C 90.625 50.523438 89.21875 53.128906 87.996094 55.835938 C 85.539062 61.265625 83.511719 66.847656 81.90625 72.585938 C 81.859375 72.761719 81.824219 72.941406 81.78125 73.125 C 82.378906 73.203125 85.796875 72.8125 87.210938 72.503906 C 88.8125 64.078125 90.808594 55.699219 93.210938 47.375 Z M 74.007812 81.671875 C 73.824219 81.714844 73.714844 81.730469 73.613281 81.769531 C 72.027344 82.351562 70.441406 82.9375 68.851562 83.523438 C 68.566406 83.628906 68.28125 83.753906 67.988281 83.824219 C 67.039062 84.046875 66.238281 83.550781 66.144531 82.585938 C 66.011719 81.203125 66.0625 79.816406 66.5 78.46875 C 66.84375 77.417969 67.523438 76.648438 68.558594 76.292969 C 69.824219 75.859375 71.117188 75.496094 72.410156 75.152344 C 73.65625 74.816406 74.917969 74.546875 76.214844 74.234375 C 76.425781 73.515625 76.640625 72.796875 76.839844 72.078125 C 78.53125 65.996094 80.625 60.0625 83.199219 54.296875 C 84.660156 51.027344 86.335938 47.875 88.519531 45.015625 C 89.511719 43.714844 90.652344 42.570312 91.925781 41.550781 C 93.515625 40.269531 95.308594 39.4375 97.324219 39.09375 C 98.125 38.960938 98.933594 38.964844 99.699219 39.222656 C 100.5625 39.511719 101.425781 39.84375 102.238281 40.257812 C 103.449219 40.875 103.734375 41.632812 103.378906 42.945312 C 103.339844 43.082031 103.296875 43.214844 103.246094 43.347656 C 101.382812 48.480469 99.941406 53.738281 98.597656 59.023438 C 97.257812 64.285156 96.078125 69.585938 95.132812 74.933594 C 94.648438 77.683594 94.265625 80.460938 93.941406 83.234375 C 93.5625 86.457031 93.210938 89.683594 93.007812 92.917969 C 92.828125 95.777344 92.832031 98.652344 92.820312 101.519531 C 92.816406 102.714844 92.96875 103.90625 93.078125 105.097656 C 93.152344 105.886719 92.945312 106.550781 92.332031 107.050781 C 92.007812 107.316406 91.660156 107.574219 91.285156 107.757812 C 89.738281 108.519531 88.136719 109.128906 86.457031 109.523438 C 85.8125 109.675781 85.148438 109.714844 84.503906 109.511719 C 83.410156 109.167969 82.71875 108.414062 82.359375 107.34375 C 82.09375 106.550781 82.019531 105.726562 82.070312 104.902344 C 82.164062 103.285156 82.273438 101.667969 82.4375 100.054688 C 83.175781 92.890625 84.613281 85.839844 85.957031 78.777344 C 85.976562 78.6875 85.980469 78.59375 85.996094 78.460938 C 85.84375 78.460938 85.710938 78.433594 85.589844 78.464844 C 83.855469 78.890625 82.125 79.339844 80.382812 79.746094 C 79.925781 79.851562 79.746094 80.082031 79.609375 80.511719 C 78.515625 83.9375 77.46875 87.378906 76.261719 90.765625 C 74.902344 94.578125 73.214844 98.253906 71.066406 101.703125 C 69.578125 104.089844 67.902344 106.324219 65.898438 108.300781 C 64.683594 109.492188 63.359375 110.539062 61.847656 111.34375 C 56.828125 114.015625 51.203125 112.523438 48.175781 107.710938 C 46.886719 105.65625 46.1875 103.394531 45.949219 101.007812 C 45.40625 95.574219 46.609375 90.539062 49.542969 85.929688 C 50.558594 84.332031 51.769531 82.894531 53.273438 81.726562 C 54.710938 80.609375 56.28125 79.804688 58.125 79.613281 C 59.589844 79.460938 60.925781 79.800781 62.125 80.660156 C 63.820312 81.867188 64.792969 83.554688 65.238281 85.546875 C 65.828125 88.171875 65.710938 90.78125 64.820312 93.332031 C 64.089844 95.425781 62.800781 97.144531 61.140625 98.589844 C 60.652344 99.015625 60.097656 99.296875 59.464844 99.457031 C 58.941406 99.585938 58.472656 99.519531 58.046875 99.238281 C 56.84375 98.441406 55.957031 97.351562 55.222656 96.132812 C 55.027344 95.8125 55.105469 95.554688 55.371094 95.257812 C 56.164062 94.359375 56.945312 93.449219 57.671875 92.496094 C 58.652344 91.210938 59.34375 89.765625 59.671875 88.175781 C 59.765625 87.699219 59.792969 87.195312 59.773438 86.707031 C 59.761719 86.414062 59.644531 86.109375 59.507812 85.847656 C 59.300781 85.453125 59.035156 85.339844 58.625 85.484375 C 58.300781 85.597656 57.980469 85.777344 57.714844 85.992188 C 56.953125 86.609375 56.414062 87.410156 55.933594 88.25 C 54.933594 89.984375 54.371094 91.875 53.992188 93.820312 C 53.4375 96.710938 53.382812 99.613281 53.832031 102.519531 C 53.980469 103.476562 54.222656 104.40625 54.707031 105.261719 C 55.304688 106.308594 56.191406 106.957031 57.390625 107.101562 C 57.796875 107.152344 58.25 107.109375 58.628906 106.96875 C 59.21875 106.753906 59.808594 106.476562 60.328125 106.125 C 62.210938 104.851562 63.867188 103.335938 65.203125 101.476562 C 67.371094 98.457031 69.070312 95.195312 70.5 91.777344 C 71.804688 88.648438 72.902344 85.449219 73.878906 82.207031 C 73.921875 82.054688 73.953125 81.902344 74.007812 81.671875 " fill-opacity="1" fill-rule="nonzero"/><g clip-path="url(#f0b7cb1744)"><path fill="#88c0fa" d="M 52.964844 147.933594 C 52.980469 147.933594 53.035156 147.957031 53.066406 147.941406 C 53.25 147.839844 53.4375 147.738281 53.613281 147.621094 C 55.722656 146.226562 57.070312 144.238281 57.890625 141.902344 C 59.027344 138.675781 59.320312 135.355469 58.71875 131.96875 C 58.515625 130.808594 58.21875 129.671875 57.660156 128.621094 C 56.859375 127.105469 55.664062 126.082031 53.9375 125.769531 C 53.652344 125.71875 53.355469 125.738281 52.964844 125.71875 C 52.964844 133.183594 52.964844 140.554688 52.964844 147.933594 Z M 52.855469 172.230469 C 53.183594 172.105469 53.492188 172.019531 53.777344 171.878906 C 56.480469 170.546875 58.246094 168.335938 59.46875 165.660156 C 60.5625 163.253906 60.839844 160.6875 60.703125 158.082031 C 60.628906 156.605469 60.359375 155.140625 59.78125 153.757812 C 59.535156 153.175781 59.21875 152.636719 58.722656 152.1875 C 56.898438 153.242188 54.960938 153.945312 52.855469 154.390625 C 52.855469 160.320312 52.855469 166.234375 52.855469 172.230469 Z M 65.292969 146.53125 C 65.808594 147.121094 66.3125 147.648438 66.761719 148.222656 C 68.515625 150.464844 69.421875 153.066406 69.933594 155.828125 C 71.167969 162.527344 67.8125 169.707031 63.121094 173.609375 C 59.972656 176.226562 56.425781 177.824219 52.367188 178.363281 C 50.605469 178.59375 48.863281 178.722656 47.109375 178.339844 C 45.992188 178.09375 44.945312 177.710938 44.078125 176.925781 C 43.492188 176.394531 43.191406 175.789062 43.195312 174.949219 C 43.242188 165.730469 43.253906 156.507812 43.285156 147.285156 C 43.3125 139.875 43.378906 132.464844 43.382812 125.054688 C 43.382812 123.855469 43.886719 123.101562 44.894531 122.582031 C 46.953125 121.527344 49.140625 120.960938 51.441406 120.738281 C 53.519531 120.535156 55.585938 120.5625 57.605469 121.101562 C 62.113281 122.308594 65.253906 125.082031 66.953125 129.457031 C 67.453125 130.738281 67.78125 132.0625 67.90625 133.421875 C 68.035156 134.777344 68.117188 136.140625 68.105469 137.5 C 68.082031 140.730469 67.199219 143.714844 65.355469 146.390625 C 65.332031 146.429688 65.316406 146.472656 65.292969 146.53125 " fill-opacity="1" fill-rule="nonzero"/></g><path fill="#88c0fa" d="M 184.515625 106.089844 C 184.515625 113.101562 184.515625 120.105469 184.515625 127.21875 C 184.878906 127.144531 185.1875 127.085938 185.5 127.023438 C 187.5 126.601562 189.5 126.175781 191.5 125.761719 C 191.800781 125.699219 192.109375 125.667969 192.410156 125.667969 C 193.253906 125.660156 193.898438 126.050781 193.972656 126.878906 C 194.085938 128.136719 194.109375 129.417969 193.96875 130.667969 C 193.871094 131.507812 193.167969 132.023438 192.304688 132.195312 C 190.644531 132.519531 188.980469 132.828125 187.320312 133.15625 C 186.398438 133.339844 185.484375 133.550781 184.539062 133.753906 C 184.539062 138.742188 184.539062 143.699219 184.539062 148.734375 C 185.035156 148.644531 185.488281 148.566406 185.941406 148.480469 C 189.316406 147.855469 192.6875 147.207031 196.066406 146.617188 C 197.011719 146.453125 197.988281 146.445312 198.949219 146.421875 C 199.800781 146.40625 200.246094 146.78125 200.46875 147.605469 C 200.539062 147.851562 200.585938 148.113281 200.585938 148.371094 C 200.589844 149.332031 200.570312 150.296875 200.554688 151.261719 C 200.539062 152.140625 200.121094 152.75 199.265625 152.980469 C 198.039062 153.304688 196.816406 153.65625 195.570312 153.878906 C 191.082031 154.675781 186.582031 155.410156 182.089844 156.195312 C 180.234375 156.519531 178.386719 156.847656 176.5 156.929688 C 174.953125 157 174.003906 156.320312 173.652344 154.792969 C 173.53125 154.273438 173.460938 153.730469 173.457031 153.195312 C 173.328125 139.363281 173.214844 125.53125 173.097656 111.703125 C 173.078125 109.46875 173.0625 107.230469 173.046875 105 C 173.035156 103.257812 173.605469 102.453125 175.230469 101.769531 C 176.65625 101.167969 178.167969 100.941406 179.675781 100.707031 C 183.277344 100.148438 186.878906 99.59375 190.484375 99.082031 C 191.972656 98.871094 193.476562 98.753906 194.972656 98.636719 C 195.941406 98.5625 196.527344 99.167969 196.492188 100.144531 C 196.457031 101.039062 196.414062 101.929688 196.359375 102.820312 C 196.3125 103.597656 195.984375 104.046875 195.21875 104.238281 C 194.46875 104.425781 193.695312 104.523438 192.929688 104.648438 C 190.261719 105.082031 187.59375 105.515625 184.925781 105.957031 C 184.789062 105.976562 184.660156 106.039062 184.515625 106.089844 " fill-opacity="1" fill-rule="nonzero"/><g clip-path="url(#1a85203410)"><path fill="#88c0fa" d="M 227.929688 186.996094 C 227.285156 185.355469 226.652344 183.742188 226.019531 182.125 C 226.117188 182.003906 226.175781 181.902344 226.261719 181.824219 C 230.953125 177.605469 236.113281 174.125 242.074219 171.929688 C 244.972656 170.859375 247.949219 170.078125 251.035156 169.78125 C 252.65625 169.625 254.273438 169.679688 255.898438 169.804688 C 257.453125 169.921875 258.96875 170.199219 260.476562 170.578125 C 266.457031 172.078125 271.25 177.457031 271.949219 183.972656 C 272.699219 190.953125 269.996094 196.453125 264.933594 200.972656 C 261.835938 203.742188 258.199219 205.546875 254.082031 206.207031 C 250.714844 206.746094 247.371094 206.660156 244.203125 205.152344 C 243.15625 204.65625 242.179688 204.046875 241.332031 203.246094 C 238.183594 200.28125 237.328125 196.691406 238.640625 192.625 C 240.148438 187.957031 244.660156 184.597656 249.566406 184.375 C 251.792969 184.273438 253.808594 184.910156 255.539062 186.3125 C 257.148438 187.617188 257.992188 189.328125 257.917969 191.425781 C 257.875 192.542969 257.464844 193.53125 256.660156 194.335938 C 255.863281 195.132812 254.875 195.441406 253.777344 195.433594 C 253.609375 195.433594 253.390625 195.359375 253.285156 195.242188 C 252.5 194.378906 251.484375 193.964844 250.378906 193.777344 C 249.007812 193.546875 247.648438 193.621094 246.363281 194.183594 C 245.855469 194.40625 245.363281 194.722656 244.941406 195.085938 C 243.269531 196.519531 243.800781 198.386719 244.890625 199.480469 C 245.515625 200.109375 246.277344 200.554688 247.136719 200.753906 C 247.910156 200.933594 248.707031 201.042969 249.5 201.09375 C 251.480469 201.214844 253.371094 200.792969 255.21875 200.078125 C 257.375 199.242188 259.050781 197.835938 260.382812 195.96875 C 261.800781 193.972656 262.726562 191.769531 262.941406 189.335938 C 263.21875 186.1875 262.324219 183.394531 260.113281 181.0625 C 259.214844 180.117188 258.132812 179.476562 256.960938 178.976562 C 253.886719 177.667969 250.6875 176.992188 247.335938 177.230469 C 245.183594 177.382812 243.101562 177.871094 241.117188 178.703125 C 236.4375 180.660156 232.152344 183.261719 228.394531 186.691406 C 228.308594 186.769531 228.21875 186.847656 228.128906 186.921875 C 228.113281 186.9375 228.085938 186.941406 227.929688 186.996094 " fill-opacity="1" fill-rule="nonzero"/></g><path fill="#88c0fa" d="M 133.195312 113.816406 C 133.152344 120.980469 133.113281 128.121094 133.070312 135.355469 C 134.0625 135.203125 134.945312 135.082031 135.820312 134.929688 C 137.046875 134.710938 138.265625 134.460938 139.492188 134.230469 C 140.753906 133.992188 141.433594 134.492188 141.527344 135.789062 C 141.582031 136.582031 141.578125 137.386719 141.542969 138.183594 C 141.496094 139.195312 141.027344 139.753906 140.03125 139.941406 C 138.574219 140.210938 137.109375 140.417969 135.644531 140.648438 C 134.816406 140.777344 133.980469 140.902344 133.101562 141.035156 C 133.101562 146.628906 133.101562 152.167969 133.101562 157.789062 C 133.953125 157.648438 134.78125 157.527344 135.609375 157.378906 C 138.222656 156.917969 140.835938 156.4375 143.449219 155.980469 C 143.910156 155.902344 144.386719 155.875 144.855469 155.890625 C 145.480469 155.914062 145.921875 156.296875 146.046875 156.90625 C 146.234375 157.808594 146.28125 158.726562 146.132812 159.640625 C 145.960938 160.703125 145.515625 161.152344 144.457031 161.355469 C 142.839844 161.664062 141.222656 161.964844 139.601562 162.238281 C 135.125 162.988281 130.652344 163.730469 126.175781 164.46875 C 124.222656 164.789062 122.882812 163.683594 122.890625 161.707031 C 122.910156 156.980469 122.957031 152.253906 122.996094 147.527344 C 123.050781 140.753906 123.109375 133.980469 123.164062 127.207031 C 123.199219 122.457031 123.234375 117.703125 123.269531 112.953125 C 123.273438 112.601562 123.28125 112.246094 123.324219 111.898438 C 123.460938 110.804688 124.191406 109.976562 125.269531 109.742188 C 128.96875 108.933594 132.664062 108.125 136.367188 107.355469 C 138.347656 106.949219 140.339844 106.621094 142.335938 106.28125 C 142.839844 106.195312 143.367188 106.179688 143.878906 106.191406 C 144.660156 106.207031 145.167969 106.589844 145.359375 107.359375 C 145.488281 107.875 145.523438 108.421875 145.558594 108.960938 C 145.582031 109.308594 145.527344 109.664062 145.511719 110.015625 C 145.457031 111.152344 145.128906 111.585938 144.035156 111.847656 C 143.144531 112.0625 142.246094 112.25 141.34375 112.40625 C 138.796875 112.847656 136.242188 113.265625 133.695312 113.691406 C 133.539062 113.71875 133.382812 113.769531 133.195312 113.816406 " fill-opacity="1" fill-rule="nonzero"/><path fill="#88c0fa" d="M 158.21875 147.199219 C 158.292969 146.71875 158.382812 146.238281 158.445312 145.753906 C 158.890625 142.425781 159.328125 139.09375 159.773438 135.761719 C 160.269531 132.085938 160.773438 128.40625 161.269531 124.726562 C 161.671875 121.746094 162.058594 118.765625 162.457031 115.785156 C 162.90625 112.453125 163.359375 109.125 163.8125 105.796875 C 163.878906 105.285156 163.976562 104.773438 163.996094 104.257812 C 164.03125 103.367188 164.507812 102.800781 165.28125 102.488281 C 166.492188 102 167.773438 101.792969 169.078125 101.851562 C 169.957031 101.886719 170.472656 102.480469 170.515625 103.375 C 170.578125 104.753906 170.242188 106.082031 170.003906 107.421875 C 169.179688 112.097656 168.320312 116.769531 167.527344 121.449219 C 166.800781 125.710938 166.140625 129.988281 165.460938 134.257812 C 164.914062 137.695312 164.40625 141.136719 163.847656 144.570312 C 163.472656 146.890625 163.054688 149.203125 162.640625 151.515625 C 162.308594 153.367188 161.960938 155.210938 161.617188 157.058594 C 161.585938 157.21875 161.519531 157.375 161.488281 157.535156 C 161.324219 158.3125 160.816406 158.773438 160.078125 158.953125 C 158.730469 159.277344 157.375 159.578125 156.015625 159.851562 C 155.582031 159.941406 155.128906 159.972656 154.683594 159.953125 C 153.386719 159.898438 152.480469 159.324219 152.027344 158.03125 C 150.832031 154.617188 149.613281 151.210938 148.671875 147.710938 C 146.886719 141.0625 145.058594 134.421875 143.328125 127.761719 C 142.367188 124.054688 141.566406 120.304688 140.679688 116.582031 C 140.503906 115.832031 140.789062 115.269531 141.375 114.878906 C 141.796875 114.59375 142.289062 114.371094 142.777344 114.238281 C 144.453125 113.773438 146.136719 113.332031 147.832031 112.941406 C 148.964844 112.679688 149.421875 112.984375 149.730469 114.136719 C 150.777344 118.042969 151.851562 121.9375 152.832031 125.859375 C 154.558594 132.742188 156.222656 139.640625 157.917969 146.53125 C 157.972656 146.753906 158.046875 146.972656 158.113281 147.195312 C 158.148438 147.199219 158.183594 147.199219 158.21875 147.199219 " fill-opacity="1" fill-rule="nonzero"/><path fill="#88c0fa" d="M 82.980469 148.789062 C 82.980469 154.183594 82.980469 159.53125 82.980469 164.949219 C 83.835938 164.785156 84.640625 164.636719 85.441406 164.46875 C 87.789062 163.976562 90.132812 163.476562 92.480469 162.980469 C 93.792969 162.703125 94.277344 163.042969 94.355469 164.386719 C 94.402344 165.25 94.410156 166.125 94.375 166.992188 C 94.34375 167.84375 94.046875 168.589844 92.941406 168.800781 C 91.464844 169.085938 90 169.417969 88.519531 169.695312 C 84.59375 170.433594 80.660156 171.160156 76.730469 171.882812 C 74.617188 172.273438 73.027344 170.9375 73.027344 168.753906 C 73.027344 160.519531 73.035156 152.289062 73.039062 144.058594 C 73.046875 136.578125 73.0625 129.097656 73.070312 121.617188 C 73.070312 121.40625 73.070312 121.195312 73.070312 120.984375 C 73.089844 119.207031 73.957031 118.054688 75.703125 117.625 C 77.207031 117.257812 78.730469 116.949219 80.253906 116.664062 C 83.1875 116.113281 86.132812 115.609375 89.066406 115.0625 C 90.015625 114.890625 90.949219 114.636719 91.894531 114.449219 C 93 114.234375 93.75 114.707031 93.859375 115.800781 C 93.953125 116.777344 93.964844 117.777344 93.875 118.753906 C 93.769531 119.90625 93.257812 120.378906 92.082031 120.597656 C 90.695312 120.855469 89.304688 121.078125 87.910156 121.3125 C 86.449219 121.554688 84.988281 121.792969 83.53125 122.039062 C 83.347656 122.066406 83.167969 122.132812 82.96875 122.1875 C 82.96875 129.089844 82.96875 135.972656 82.96875 142.929688 C 83.210938 142.894531 83.414062 142.875 83.609375 142.832031 C 85.574219 142.363281 87.539062 141.890625 89.507812 141.421875 C 89.78125 141.355469 90.054688 141.273438 90.332031 141.238281 C 91.03125 141.148438 91.546875 141.480469 91.671875 142.179688 C 91.78125 142.800781 91.804688 143.441406 91.839844 144.070312 C 91.863281 144.492188 91.855469 144.917969 91.839844 145.339844 C 91.804688 146.320312 91.480469 146.761719 90.523438 146.992188 C 88.125 147.574219 85.722656 148.132812 83.320312 148.699219 C 83.226562 148.71875 83.140625 148.746094 82.980469 148.789062 " fill-opacity="1" fill-rule="nonzero"/><path fill="#88c0fa" d="M 199.453125 261.207031 C 199.769531 261.089844 199.988281 261.015625 200.203125 260.929688 C 201.535156 260.382812 202.644531 259.519531 203.597656 258.457031 C 205.777344 256.035156 207.285156 253.25 208.144531 250.109375 C 208.386719 249.222656 208.539062 248.316406 208.480469 247.390625 C 208.410156 246.21875 207.5625 245.65625 206.472656 246.097656 C 206.046875 246.269531 205.640625 246.535156 205.277344 246.824219 C 204.046875 247.8125 203.171875 249.09375 202.429688 250.46875 C 200.972656 253.171875 200.191406 256.09375 199.726562 259.105469 C 199.625 259.773438 199.554688 260.445312 199.453125 261.207031 Z M 199.386719 266.46875 C 199.585938 268.371094 199.878906 270.195312 200.71875 271.886719 C 200.84375 272.140625 201 272.378906 201.164062 272.605469 C 202.296875 274.175781 204.085938 274.652344 205.851562 273.84375 C 207.164062 273.242188 208.195312 272.285156 209.085938 271.171875 C 210.875 268.941406 212.3125 266.484375 213.6875 263.992188 C 214.8125 261.953125 215.894531 259.890625 217 257.84375 C 217.097656 257.65625 217.203125 257.46875 217.34375 257.3125 C 217.644531 256.980469 218.019531 256.792969 218.476562 256.902344 C 220.246094 257.320312 221.679688 258.234375 222.667969 259.78125 C 223.128906 260.496094 223.195312 261.285156 222.898438 262.082031 C 222.726562 262.542969 222.527344 262.996094 222.285156 263.425781 C 220.171875 267.199219 217.664062 270.6875 214.691406 273.832031 C 212.96875 275.65625 211.050781 277.242188 208.765625 278.332031 C 206.910156 279.21875 204.984375 279.902344 202.898438 279.988281 C 199.828125 280.113281 197.234375 279.023438 195.082031 276.863281 C 193.078125 274.855469 191.878906 272.390625 191.269531 269.660156 C 189.902344 263.554688 190.453125 257.597656 192.878906 251.832031 C 194.171875 248.753906 195.824219 245.890625 198.140625 243.449219 C 199.523438 241.984375 201.089844 240.765625 202.953125 239.941406 C 208.183594 237.625 212.472656 241.257812 213.292969 245.515625 C 213.726562 247.753906 213.441406 249.917969 212.792969 252.054688 C 211.726562 255.597656 209.976562 258.765625 207.542969 261.554688 C 205.453125 263.945312 202.902344 265.574219 199.796875 266.320312 C 199.683594 266.347656 199.578125 266.398438 199.386719 266.46875 " fill-opacity="1" fill-rule="nonzero"/><path fill="#88c0fa" d="M 242.875 98.953125 C 230.308594 98.894531 220.355469 109.179688 220.296875 121.371094 C 220.238281 133.523438 230.015625 143.917969 242.65625 144.019531 C 255.496094 144.125 265.5 133.664062 265.414062 121.34375 C 265.324219 108.878906 255.144531 98.898438 242.875 98.953125 Z M 242.835938 148.082031 C 227.695312 147.917969 216.234375 135.824219 216.257812 121.390625 C 216.285156 106.664062 228.289062 94.792969 243.089844 94.910156 C 257.496094 95.023438 269.53125 106.574219 269.4375 121.644531 C 269.347656 136.550781 257.398438 147.976562 242.835938 148.082031 " fill-opacity="1" fill-rule="nonzero"/><path fill="#88c0fa" d="M 105.964844 161.570312 C 107.058594 161.433594 108.039062 161.335938 109.011719 161.1875 C 112.011719 160.726562 115.007812 160.246094 118.003906 159.78125 C 119.039062 159.617188 119.652344 160.117188 119.667969 161.144531 C 119.675781 161.707031 119.6875 162.273438 119.648438 162.835938 C 119.5625 164.128906 119.109375 164.734375 117.855469 165.03125 C 116.761719 165.292969 115.636719 165.441406 114.523438 165.625 C 110.042969 166.355469 105.566406 167.09375 101.082031 167.808594 C 100.296875 167.933594 99.496094 167.980469 98.699219 168.019531 C 98.117188 168.046875 97.613281 167.804688 97.136719 167.464844 C 96.683594 167.144531 96.519531 166.730469 96.519531 166.199219 C 96.523438 164.667969 96.511719 163.140625 96.511719 161.609375 C 96.511719 153.964844 96.515625 146.316406 96.503906 138.671875 C 96.496094 130.957031 96.472656 123.242188 96.460938 115.523438 C 96.457031 114.367188 96.8125 113.851562 97.910156 113.617188 C 100.121094 113.140625 102.355469 112.828125 104.613281 112.722656 C 104.800781 112.714844 104.992188 112.710938 105.175781 112.738281 C 105.699219 112.824219 106.011719 113.164062 106.054688 113.695312 C 106.074219 113.925781 106.058594 114.164062 106.058594 114.398438 C 106.027344 129.738281 105.996094 145.074219 105.964844 160.414062 C 105.964844 160.761719 105.964844 161.109375 105.964844 161.570312 " fill-opacity="1" fill-rule="nonzero"/><path fill="#88c0fa" d="M 119.292969 133.4375 C 119.292969 140.097656 119.292969 146.753906 119.292969 153.410156 C 119.292969 153.691406 119.304688 153.976562 119.3125 154.257812 C 119.332031 155.101562 119.027344 155.605469 118.207031 155.84375 C 117.398438 156.078125 116.566406 156.265625 115.730469 156.390625 C 114.59375 156.558594 113.449219 156.691406 112.300781 156.75 C 111.246094 156.804688 110.699219 156.347656 110.445312 155.300781 C 110.320312 154.78125 110.226562 154.238281 110.226562 153.703125 C 110.207031 140.859375 110.195312 128.015625 110.195312 115.171875 C 110.195312 114.632812 110.25 114.089844 110.324219 113.558594 C 110.4375 112.777344 110.902344 112.300781 111.679688 112.125 C 113.800781 111.652344 115.933594 111.328125 118.109375 111.402344 C 118.933594 111.433594 119.304688 111.78125 119.304688 112.550781 C 119.304688 119.511719 119.304688 126.476562 119.304688 133.4375 C 119.300781 133.4375 119.296875 133.4375 119.292969 133.4375 " fill-opacity="1" fill-rule="nonzero"/><path fill="#88c0fa" d="M 161.796875 42.761719 C 163.617188 42.039062 165.390625 41.351562 167.148438 40.625 C 173.910156 37.832031 180.757812 35.257812 187.625 32.738281 C 190.144531 31.8125 192.734375 31.109375 195.402344 30.75 C 198.484375 30.328125 201.558594 30.304688 204.558594 31.257812 C 205.535156 31.570312 206.480469 32.023438 207.386719 32.507812 C 208.378906 33.039062 209.132812 33.855469 209.714844 34.824219 C 210.878906 36.765625 210.761719 38.675781 209.507812 40.523438 C 208.773438 41.605469 207.707031 42.296875 206.515625 42.800781 C 205.910156 43.054688 205.398438 42.914062 204.902344 42.460938 C 202.867188 40.601562 200.453125 39.640625 197.707031 39.402344 C 192.679688 38.964844 187.769531 39.65625 182.882812 40.773438 C 177.238281 42.058594 171.882812 44.164062 166.523438 46.285156 C 165.429688 46.714844 164.328125 47.125 163.230469 47.542969 C 163.125 47.582031 163.015625 47.605469 162.839844 47.652344 C 162.492188 46.011719 162.152344 44.417969 161.796875 42.761719 " fill-opacity="1" fill-rule="nonzero"/><g clip-path="url(#b9fc2cb128)"><path fill="#88c0fa" d="M 97.085938 32.730469 C 96.125 32.945312 95.207031 33.148438 94.246094 33.359375 C 94.246094 32.992188 94.183594 32.636719 94.253906 32.3125 C 95.074219 28.566406 97.140625 25.808594 100.757812 24.367188 C 103.171875 23.402344 105.515625 23.871094 107.78125 24.964844 C 107.972656 25.054688 108.15625 25.160156 108.34375 25.253906 C 108.363281 25.261719 108.390625 25.242188 108.457031 25.226562 C 108.457031 25.039062 108.472656 24.835938 108.457031 24.636719 C 108.203125 21.578125 108.6875 18.621094 109.777344 15.777344 C 111.199219 12.070312 113.585938 9.183594 117.335938 7.636719 C 121.09375 6.082031 124.75 6.414062 128.210938 8.539062 C 129.660156 9.433594 130.710938 10.742188 131.667969 12.121094 C 132.871094 13.855469 133.683594 15.785156 134.472656 17.726562 C 134.558594 17.941406 134.65625 18.144531 134.78125 18.425781 C 134.960938 18.167969 135.085938 17.976562 135.21875 17.796875 C 137.796875 14.183594 141.320312 12.324219 145.742188 12.355469 C 150.109375 12.390625 153.972656 16.339844 154.46875 20.070312 C 154.628906 21.269531 154.574219 22.449219 154.125 23.664062 C 153.203125 23.457031 152.3125 23.265625 151.382812 23.058594 C 151.402344 22.894531 151.402344 22.777344 151.433594 22.675781 C 151.945312 20.9375 151.578125 19.355469 150.480469 17.960938 C 149.488281 16.699219 148.269531 15.714844 146.640625 15.367188 C 145.804688 15.191406 144.953125 15.144531 144.117188 15.320312 C 141.644531 15.828125 139.476562 16.882812 137.953125 18.976562 C 137.527344 19.554688 137.226562 20.230469 136.890625 20.875 C 136.652344 21.328125 136.5 21.839844 136.214844 22.261719 C 135.425781 23.429688 133.996094 23.402344 133.25 22.203125 C 132.941406 21.710938 132.726562 21.15625 132.5 20.617188 C 131.964844 19.335938 131.472656 18.035156 130.925781 16.761719 C 130.175781 15.023438 129.210938 13.417969 127.898438 12.035156 C 126.5 10.558594 124.753906 9.8125 122.765625 9.652344 C 119.082031 9.351562 116.246094 10.910156 114.085938 13.8125 C 112.726562 15.640625 112.015625 17.753906 111.59375 19.972656 C 111.152344 22.289062 111.207031 24.601562 111.660156 26.910156 C 111.738281 27.324219 111.78125 27.753906 111.757812 28.171875 C 111.6875 29.449219 110.46875 30.183594 109.328125 29.601562 C 108.789062 29.328125 108.320312 28.914062 107.847656 28.527344 C 107.117188 27.921875 106.339844 27.429688 105.433594 27.109375 C 103.21875 26.320312 101.3125 26.890625 99.617188 28.378906 C 98.519531 29.34375 97.742188 30.539062 97.324219 31.953125 C 97.25 32.199219 97.171875 32.445312 97.085938 32.730469 " fill-opacity="1" fill-rule="nonzero"/></g><path fill="#88c0fa" d="M 186.078125 19.382812 C 186.554688 18.976562 186.960938 18.621094 187.371094 18.273438 C 188.761719 17.074219 190.144531 15.871094 191.542969 14.683594 C 191.863281 14.414062 192.21875 14.160156 192.59375 13.980469 C 193.679688 13.453125 194.785156 13.953125 195.070312 15.121094 C 195.1875 15.589844 195.226562 16.113281 195.148438 16.585938 C 194.71875 19.230469 194.238281 21.863281 193.78125 24.503906 C 193.742188 24.75 193.621094 24.867188 193.386719 24.925781 C 192.523438 25.140625 191.660156 25.367188 190.699219 25.617188 C 191 23.101562 191.542969 20.707031 191.945312 18.171875 C 191.714844 18.335938 191.558594 18.421875 191.429688 18.535156 C 190.402344 19.4375 189.390625 20.347656 188.355469 21.238281 C 187.984375 21.558594 187.589844 21.867188 187.167969 22.121094 C 186.105469 22.765625 185.003906 22.609375 184.179688 21.675781 C 183.839844 21.292969 183.566406 20.839844 183.3125 20.394531 C 182.453125 18.863281 181.96875 17.191406 181.519531 15.507812 C 181.285156 14.621094 181.054688 13.734375 180.820312 12.851562 C 180.785156 12.71875 180.734375 12.59375 180.640625 12.316406 C 180.523438 12.640625 180.441406 12.835938 180.378906 13.039062 C 179.4375 15.945312 178.515625 18.859375 177.550781 21.757812 C 177.308594 22.488281 176.953125 23.183594 176.609375 23.878906 C 176.429688 24.230469 176.191406 24.566406 175.925781 24.855469 C 175.15625 25.683594 174.066406 25.84375 173.097656 25.265625 C 172.71875 25.039062 172.359375 24.753906 172.058594 24.433594 C 171.265625 23.59375 170.496094 22.734375 169.75 21.859375 C 167.734375 19.5 165.734375 17.121094 163.722656 14.757812 C 163.527344 14.527344 163.3125 14.316406 163.035156 14.148438 C 163.925781 17.320312 164.84375 20.488281 165.703125 23.667969 C 166.566406 26.84375 167.128906 30.082031 167.703125 33.390625 C 166.804688 33.738281 165.9375 34.078125 165.027344 34.429688 C 164.964844 34.222656 164.890625 34.050781 164.863281 33.871094 C 163.753906 26.863281 161.863281 20.054688 159.667969 13.320312 C 159.433594 12.605469 159.238281 11.871094 159.140625 11.132812 C 159.082031 10.714844 159.175781 10.230469 159.34375 9.839844 C 159.683594 9.050781 160.578125 8.707031 161.433594 9.023438 C 161.90625 9.199219 162.378906 9.457031 162.773438 9.777344 C 163.414062 10.289062 164.046875 10.832031 164.585938 11.449219 C 167.0625 14.28125 169.503906 17.148438 171.957031 19.996094 C 172.589844 20.726562 173.230469 21.445312 173.871094 22.167969 C 173.933594 22.234375 174.019531 22.277344 174.15625 22.378906 C 174.355469 21.921875 174.578125 21.507812 174.722656 21.066406 C 175.671875 18.1875 176.609375 15.304688 177.542969 12.421875 C 177.882812 11.371094 178.1875 10.308594 178.539062 9.261719 C 178.671875 8.867188 178.851562 8.472656 179.078125 8.121094 C 179.875 6.894531 181.371094 6.867188 182.167969 8.078125 C 182.5 8.582031 182.746094 9.164062 182.917969 9.742188 C 183.46875 11.613281 183.929688 13.511719 184.496094 15.378906 C 184.847656 16.539062 185.320312 17.671875 185.746094 18.816406 C 185.8125 18.984375 185.929688 19.132812 186.078125 19.382812 " fill-opacity="1" fill-rule="nonzero"/><path fill="#88c0fa" d="M 234.179688 246.785156 C 234.15625 246.8125 234.132812 246.839844 234.105469 246.863281 C 236.078125 249.023438 238.050781 251.183594 240.023438 253.34375 C 240.652344 252.613281 240.691406 252.242188 240.128906 251.554688 C 239.792969 251.136719 239.425781 250.726562 239.007812 250.398438 C 237.796875 249.433594 236.558594 248.507812 235.320312 247.578125 C 234.953125 247.300781 234.5625 247.046875 234.179688 246.785156 Z M 223.132812 239.632812 C 224.246094 239 225.304688 238.398438 226.386719 237.78125 C 226.496094 237.84375 226.625 237.902344 226.738281 237.984375 C 230.828125 240.875 234.921875 243.765625 239 246.675781 C 239.746094 247.207031 240.46875 247.785156 241.128906 248.417969 C 241.734375 248.996094 242.3125 249.636719 242.789062 250.328125 C 243.578125 251.484375 243.632812 252.765625 243.027344 254.015625 C 242.722656 254.644531 242.320312 255.246094 241.851562 255.761719 C 240.75 256.960938 239.472656 257.96875 238.074219 258.808594 C 237.753906 259 237.402344 259.152344 237.046875 259.269531 C 235.851562 259.667969 234.742188 259.460938 233.851562 258.574219 C 233.289062 258.015625 232.800781 257.367188 232.375 256.695312 C 230.054688 253.039062 228.015625 249.222656 226 245.394531 C 225.105469 243.6875 224.265625 241.953125 223.398438 240.230469 C 223.316406 240.0625 223.25 239.886719 223.132812 239.632812 " fill-opacity="1" fill-rule="nonzero"/><path fill="#88c0fa" d="M 122.886719 235.316406 C 122.789062 237.277344 122.507812 239.085938 122.128906 240.882812 C 121.582031 243.480469 120.84375 246.027344 119.96875 248.535156 C 119.34375 250.320312 118.726562 250.785156 116.847656 250.722656 C 115.558594 250.679688 114.269531 250.570312 112.984375 250.429688 C 111.5625 250.273438 110.910156 249.460938 111.039062 248.023438 C 111.160156 246.691406 111.386719 245.367188 111.496094 244.035156 C 111.605469 242.703125 111.679688 241.363281 111.671875 240.023438 C 111.667969 238.738281 111.582031 237.445312 111.460938 236.160156 C 111.390625 235.441406 111.257812 234.710938 111.015625 234.035156 C 110.765625 233.328125 110.921875 232.800781 111.414062 232.3125 C 111.5625 232.167969 111.730469 232.027344 111.917969 231.929688 C 114.015625 230.789062 116.234375 230.066406 118.648438 230.1875 C 119.289062 230.222656 119.949219 230.429688 120.542969 230.6875 C 121.835938 231.246094 122.488281 232.335938 122.714844 233.691406 C 122.8125 234.269531 122.839844 234.859375 122.886719 235.316406 " fill-opacity="1" fill-rule="nonzero"/><path fill="#88c0fa" d="M 249.285156 237.007812 C 249.660156 236.09375 249.5625 235.753906 248.785156 235.378906 C 247.257812 234.636719 245.582031 234.414062 243.945312 234.050781 C 245.710938 235.027344 247.476562 236.003906 249.285156 237.007812 Z M 233.117188 231.984375 C 233.886719 231.113281 234.597656 230.328125 235.277344 229.519531 C 235.53125 229.214844 235.8125 229.292969 236.109375 229.351562 C 237.90625 229.714844 239.710938 230.050781 241.5 230.449219 C 243.632812 230.925781 245.761719 231.425781 247.875 231.988281 C 248.753906 232.21875 249.621094 232.566406 250.421875 232.992188 C 252.023438 233.839844 252.6875 235.3125 252.304688 237.082031 C 251.945312 238.753906 251.285156 240.304688 250.246094 241.679688 C 249.832031 242.226562 249.351562 242.707031 248.742188 243.050781 C 247.695312 243.640625 246.628906 243.707031 245.597656 243.066406 C 244.921875 242.652344 244.269531 242.171875 243.671875 241.648438 C 241.882812 240.085938 240.117188 238.496094 238.359375 236.894531 C 236.878906 235.550781 235.421875 234.179688 233.957031 232.816406 C 233.6875 232.5625 233.429688 232.292969 233.117188 231.984375 " fill-opacity="1" fill-rule="nonzero"/><path fill="#88c0fa" d="M 61.605469 181.070312 C 62.285156 181.160156 62.953125 181.1875 63.582031 181.347656 C 65.4375 181.816406 66.25 183.03125 65.898438 184.917969 C 65.535156 186.855469 65.070312 188.773438 64.628906 190.695312 C 64.453125 191.449219 64.230469 192.191406 64.011719 192.9375 C 63.910156 193.273438 63.773438 193.601562 63.625 193.917969 C 63.246094 194.714844 62.605469 195.160156 61.722656 195.132812 C 60.644531 195.097656 59.566406 195.019531 58.492188 194.910156 C 57.886719 194.847656 57.277344 194.730469 56.699219 194.554688 C 55.652344 194.230469 55.175781 193.589844 55.257812 192.5 C 55.34375 191.285156 55.535156 190.078125 55.703125 188.867188 C 55.972656 186.960938 56.265625 185.058594 56.542969 183.15625 C 56.625 182.582031 56.898438 182.125 57.421875 181.875 C 57.78125 181.707031 58.164062 181.554688 58.550781 181.488281 C 59.566406 181.320312 60.59375 181.207031 61.605469 181.070312 " fill-opacity="1" fill-rule="nonzero"/><path fill="#88c0fa" d="M 252.457031 216.644531 C 250.496094 217.089844 248.675781 217.597656 246.894531 218.273438 C 248.664062 218.160156 250.429688 218.046875 252.238281 217.929688 C 252.308594 217.519531 252.375 217.136719 252.457031 216.644531 Z M 240.007812 220.339844 C 240.136719 219.308594 240.265625 218.289062 240.398438 217.21875 C 240.460938 217.183594 240.554688 217.101562 240.65625 217.066406 C 244.285156 215.839844 247.949219 214.730469 251.683594 213.863281 C 252.222656 213.738281 252.804688 213.722656 253.359375 213.765625 C 254.363281 213.839844 255.035156 214.484375 255.261719 215.464844 C 255.457031 216.308594 255.351562 217.152344 255.179688 217.980469 C 254.878906 219.4375 254.339844 220.8125 253.660156 222.132812 C 252.953125 223.511719 251.839844 224.144531 250.3125 223.925781 C 249.367188 223.789062 248.40625 223.601562 247.503906 223.292969 C 245.949219 222.765625 244.429688 222.132812 242.898438 221.539062 C 242.042969 221.207031 241.191406 220.867188 240.34375 220.527344 C 240.238281 220.484375 240.140625 220.414062 240.007812 220.339844 " fill-opacity="1" fill-rule="nonzero"/><path fill="#88c0fa" d="M 265.574219 148.523438 C 266.085938 149.382812 266.554688 150.164062 267.058594 151.011719 C 263.519531 154.078125 259.582031 156.394531 255.230469 158.03125 C 248.957031 160.390625 242.085938 160.910156 236.625 160.066406 C 236.585938 159.152344 236.597656 158.230469 236.691406 157.234375 C 247.589844 158.550781 257.195312 155.667969 265.574219 148.523438 " fill-opacity="1" fill-rule="nonzero"/><path fill="#88c0fa" d="M 210.476562 24.042969 C 210.984375 23.914062 211.410156 23.796875 211.84375 23.691406 C 213.144531 23.371094 214.449219 23.351562 215.753906 23.6875 C 217.585938 24.160156 219.074219 25.140625 220.066406 26.757812 C 221.933594 29.808594 222.265625 32.957031 220.519531 36.191406 C 220.078125 37.007812 219.480469 37.679688 218.585938 38.210938 C 218.125 37.347656 217.691406 36.527344 217.265625 35.730469 C 219.539062 33.269531 218.886719 29.925781 217.417969 28.03125 C 216.335938 26.628906 214.847656 26.191406 213.15625 26.390625 C 212.507812 26.464844 211.878906 26.683594 211.242188 26.851562 C 209.667969 27.261719 208.75 26.878906 207.949219 25.453125 C 207.777344 25.148438 207.632812 24.824219 207.472656 24.511719 C 207.367188 24.300781 207.273438 24.082031 207.144531 23.886719 C 205.996094 22.199219 205.101562 22.101562 203.617188 22.554688 C 203.441406 22.609375 203.265625 22.683594 203.042969 22.765625 C 202.359375 22.144531 201.667969 21.519531 200.9375 20.851562 C 201.109375 20.691406 201.226562 20.546875 201.375 20.453125 C 202.609375 19.671875 203.964844 19.320312 205.410156 19.46875 C 207.382812 19.667969 208.683594 20.886719 209.671875 22.492188 C 209.96875 22.96875 210.195312 23.488281 210.476562 24.042969 " fill-opacity="1" fill-rule="nonzero"/><path fill="#88c0fa" d="M 213.84375 144.082031 C 213.152344 144.832031 212.53125 145.5 211.863281 146.222656 C 207.148438 140.34375 204.355469 133.699219 203.460938 126.171875 C 204.449219 126.070312 205.351562 125.972656 206.324219 125.867188 C 207.152344 132.699219 209.671875 138.8125 213.84375 144.082031 " fill-opacity="1" fill-rule="nonzero"/><path fill="#88c0fa" d="M 57.9375 68.226562 C 57.839844 67.234375 57.75 66.328125 57.65625 65.398438 C 62.160156 64.527344 66.621094 63.667969 71.191406 62.78125 C 70.875 63.824219 70.613281 64.742188 70.304688 65.644531 C 70.253906 65.789062 70 65.921875 69.820312 65.960938 C 67.195312 66.492188 64.566406 67.015625 61.9375 67.527344 C 60.644531 67.773438 59.34375 67.980469 57.9375 68.226562 " fill-opacity="1" fill-rule="nonzero"/><path fill="#88c0fa" d="M 248.21875 83.921875 C 251.992188 84.566406 255.519531 85.710938 258.925781 87.402344 C 258.75 88.371094 258.578125 89.308594 258.386719 90.355469 C 254.851562 88.539062 251.203125 87.3125 247.273438 86.691406 C 247.59375 85.753906 247.890625 84.878906 248.21875 83.921875 " fill-opacity="1" fill-rule="nonzero"/><path fill="#88c0fa" d="M 63.457031 56.273438 C 63.828125 55.335938 64.164062 54.476562 64.535156 53.535156 C 67.597656 54.464844 70.597656 55.375 73.664062 56.308594 C 73.292969 57.195312 72.945312 58.035156 72.5625 58.957031 C 69.515625 58.167969 66.578125 57.070312 63.457031 56.273438 " fill-opacity="1" fill-rule="nonzero"/><path fill="#88c0fa" d="M 69.007812 47.71875 C 69.59375 47.035156 70.183594 46.339844 70.832031 45.582031 C 72.761719 47.179688 74.652344 48.746094 76.59375 50.355469 C 76.171875 51.195312 75.761719 52.003906 75.308594 52.898438 C 75.082031 52.765625 74.871094 52.679688 74.703125 52.539062 C 72.851562 51.011719 71.007812 49.480469 69.167969 47.945312 C 69.117188 47.902344 69.089844 47.835938 69.007812 47.71875 " fill-opacity="1" fill-rule="nonzero"/><path fill="#88c0fa" d="M 242.785156 122.527344 C 242.785156 122.773438 242.785156 123.023438 242.785156 123.269531 C 242.800781 127.265625 242.816406 131.265625 242.832031 135.261719 C 242.832031 135.5 242.839844 135.734375 242.824219 135.96875 C 242.757812 136.890625 242.132812 137.417969 241.25 137.203125 C 240.570312 137.039062 239.90625 136.78125 239.261719 136.507812 C 238.699219 136.265625 238.40625 135.804688 238.402344 135.167969 C 238.390625 133.261719 238.355469 131.359375 238.34375 129.457031 C 238.308594 123.410156 238.28125 117.367188 238.253906 111.320312 C 238.25 111.042969 238.277344 110.757812 238.265625 110.476562 C 238.238281 109.777344 238.582031 109.304688 239.171875 109.007812 C 240.1875 108.492188 241.289062 108.394531 242.402344 108.496094 C 243.039062 108.554688 243.425781 109.054688 243.746094 109.550781 C 244.40625 110.550781 245.042969 111.570312 245.667969 112.589844 C 247.460938 115.519531 249.238281 118.457031 251.027344 121.386719 C 251.15625 121.597656 251.304688 121.796875 251.539062 122.140625 C 251.550781 121.84375 251.5625 121.71875 251.5625 121.589844 C 251.574219 117.753906 251.578125 113.921875 251.597656 110.085938 C 251.597656 109.621094 251.644531 109.148438 251.722656 108.6875 C 251.847656 107.925781 252.25 107.527344 253.039062 107.460938 C 253.640625 107.410156 254.257812 107.410156 254.855469 107.484375 C 255.960938 107.628906 256.457031 108.246094 256.4375 109.359375 C 256.429688 109.78125 256.390625 110.207031 256.394531 110.628906 C 256.425781 117.777344 256.457031 124.925781 256.492188 132.074219 C 256.496094 132.476562 256.484375 132.875 256.496094 133.277344 C 256.507812 133.929688 256.25 134.46875 255.789062 134.910156 C 255.007812 135.660156 254.050781 136.113281 253.011719 136.371094 C 252.261719 136.554688 251.601562 136.296875 251.121094 135.703125 C 250.753906 135.246094 250.421875 134.753906 250.117188 134.253906 C 247.84375 130.546875 245.585938 126.828125 243.320312 123.113281 C 243.191406 122.90625 243.054688 122.703125 242.921875 122.496094 C 242.875 122.507812 242.832031 122.515625 242.785156 122.527344 " fill-opacity="1" fill-rule="nonzero"/><path fill="#88c0fa" d="M 235.722656 122.144531 C 235.722656 126.074219 235.722656 130 235.722656 133.925781 C 235.722656 134.140625 235.734375 134.351562 235.714844 134.5625 C 235.65625 135.335938 235.0625 135.878906 234.292969 135.808594 C 232.675781 135.667969 231.074219 135.421875 229.507812 134.976562 C 229.328125 134.925781 229.148438 134.859375 228.976562 134.789062 C 228.320312 134.511719 227.992188 134.011719 227.992188 133.304688 C 227.988281 132.316406 228.003906 131.328125 228.003906 130.339844 C 228.003906 123.992188 228 117.640625 228.007812 111.292969 C 228.007812 110.847656 228.054688 110.398438 228.140625 109.964844 C 228.253906 109.390625 228.589844 108.96875 229.195312 108.871094 C 229.867188 108.765625 230.542969 108.675781 231.222656 108.644531 C 232.210938 108.59375 233.199219 108.59375 234.1875 108.585938 C 234.417969 108.585938 234.65625 108.625 234.878906 108.691406 C 235.523438 108.878906 235.761719 109.191406 235.765625 109.871094 C 235.777344 111.140625 235.769531 112.410156 235.769531 113.679688 C 235.769531 116.5 235.769531 119.324219 235.769531 122.144531 C 235.753906 122.144531 235.738281 122.144531 235.722656 122.144531 " fill-opacity="1" fill-rule="nonzero"/></svg>