<svg xmlns="http://www.w3.org/2000/svg" xmlns:xlink="http://www.w3.org/1999/xlink" width="410" zoomAndPan="magnify" viewBox="0 0 307.5 307.500004" height="410" preserveAspectRatio="xMidYMid meet" version="1.0"><defs><clipPath id="a845f4aab5"><path d="M 65 184 L 273 184 L 273 243.929688 L 65 243.929688 Z M 65 184 " clip-rule="nonzero"/></clipPath><clipPath id="400c760b06"><path d="M 20.007812 134 L 34 134 L 34 155 L 20.007812 155 Z M 20.007812 134 " clip-rule="nonzero"/></clipPath></defs><path fill="#88c0fa" d="M 43.609375 103.046875 C 43.285156 102.835938 43.042969 103.019531 42.785156 103.121094 C 41.558594 103.597656 40.496094 104.277344 39.753906 105.355469 C 39.46875 105.773438 39.183594 106.222656 39.46875 106.800781 C 40.054688 107.082031 40.390625 106.765625 40.730469 106.546875 C 41.808594 105.851562 43.230469 104.101562 43.609375 103.046875 Z M 81.277344 99.644531 C 80.953125 99.75 80.609375 99.808594 80.332031 99.964844 C 79.527344 100.425781 78.960938 101.121094 78.507812 101.914062 C 77.535156 103.628906 77.007812 105.539062 76.710938 107.539062 C 76.683594 107.722656 76.726562 107.925781 76.742188 108.238281 C 77.0625 108.105469 77.296875 108.046875 77.480469 107.921875 C 79.265625 106.734375 80.5625 105.132812 81.3125 103.097656 C 81.527344 102.519531 81.652344 101.886719 81.742188 101.257812 C 81.804688 100.785156 81.855469 100.265625 81.277344 99.644531 Z M 192.75 98.503906 C 193.445312 98.8125 193.90625 98.640625 194.335938 98.441406 C 197.191406 97.125 199.003906 94.945312 199.554688 91.753906 C 199.679688 91.027344 199.667969 90.277344 199.421875 89.519531 C 199.28125 89.085938 198.851562 88.78125 198.464844 88.914062 C 197.96875 89.085938 197.472656 89.296875 197.058594 89.59375 C 196.15625 90.230469 195.519531 91.117188 194.96875 92.066406 C 193.84375 94.019531 193.214844 96.1875 192.75 98.503906 Z M 135.953125 106.738281 C 136.503906 107.058594 136.828125 106.769531 137.128906 106.589844 C 140.167969 104.804688 141.90625 102.117188 142.167969 98.4375 C 142.191406 98.097656 142.160156 97.738281 142.089844 97.390625 C 141.953125 96.679688 141.78125 95.933594 140.953125 95.640625 C 140.277344 95.402344 139.804688 95.808594 139.390625 96.191406 C 139.015625 96.542969 138.652344 96.925781 138.382812 97.363281 C 137.964844 98.046875 137.582031 98.765625 137.273438 99.511719 C 136.515625 101.332031 136.1875 103.304688 136.015625 105.320312 C 135.972656 105.800781 135.96875 106.289062 135.953125 106.738281 Z M 175.304688 92.714844 C 175.316406 92.523438 175.347656 92.296875 175.347656 92.066406 C 175.351562 89.3125 175.023438 86.546875 174.46875 83.777344 C 174.160156 82.222656 173.65625 80.691406 172.945312 79.210938 C 172.503906 78.296875 171.929688 77.46875 171.039062 76.890625 C 169.902344 76.152344 169.058594 76.378906 168.691406 77.535156 C 168.589844 77.851562 168.503906 78.199219 168.527344 78.542969 C 168.578125 79.390625 168.617188 80.253906 168.804688 81.097656 C 169.34375 83.515625 170.28125 85.84375 171.523438 88.078125 C 172.347656 89.5625 173.285156 90.980469 174.457031 92.25 C 174.65625 92.46875 174.820312 92.796875 175.304688 92.714844 Z M 98.886719 101.925781 C 99.261719 101.902344 99.484375 101.722656 99.675781 101.53125 C 100.671875 100.519531 101.722656 99.558594 102.628906 98.476562 C 104.839844 95.847656 106.355469 92.769531 107.566406 89.511719 C 108.339844 87.433594 108.914062 85.28125 109.199219 83.03125 C 109.382812 81.566406 109.503906 80.074219 109.089844 78.550781 C 108.929688 77.964844 108.664062 77.378906 108.351562 76.839844 C 108.054688 76.332031 107.492188 76.152344 107 76.351562 C 106.648438 76.496094 106.292969 76.683594 106.03125 76.941406 C 105.503906 77.476562 104.945312 78.015625 104.5625 78.660156 C 103.863281 79.839844 103.203125 81.0625 102.667969 82.335938 C 101.179688 85.882812 100.25 89.65625 99.621094 93.527344 C 99.277344 95.652344 99.050781 97.8125 98.808594 99.964844 C 98.742188 100.578125 98.65625 101.210938 98.886719 101.925781 Z M 56.269531 117.746094 C 56.078125 117.757812 55.871094 117.734375 55.695312 117.789062 C 53.96875 118.324219 52.328125 119.023438 50.890625 120.046875 C 47.027344 122.800781 45.148438 126.726562 45.117188 131.695312 C 45.109375 132.800781 45.308594 133.910156 45.792969 134.980469 C 46.632812 136.84375 48.027344 137.429688 49.625 136.515625 C 50.320312 136.117188 50.9375 135.582031 51.5 135.015625 C 52.574219 133.9375 53.367188 132.636719 54.003906 131.238281 C 55.652344 127.628906 56.378906 123.710938 56.453125 119.589844 C 56.460938 119 56.554688 118.402344 56.269531 117.746094 Z M 53.960938 100.832031 C 54.328125 101.066406 54.761719 101.367188 55.210938 101.625 C 58.582031 103.558594 61.078125 106.25 62.65625 109.753906 C 62.976562 110.464844 63.34375 111.160156 63.695312 111.886719 C 64.53125 112.042969 65.21875 111.75 65.949219 111.679688 C 66.636719 111.609375 67.300781 111.433594 68.042969 111.292969 C 68.105469 110.390625 68.179688 109.511719 68.226562 108.628906 C 68.328125 106.683594 68.691406 104.816406 69.234375 103.007812 C 69.796875 101.136719 70.648438 99.4375 71.890625 97.980469 C 73.484375 96.113281 75.539062 94.988281 78.132812 94.75 C 79.398438 94.632812 80.664062 94.851562 81.902344 95.339844 C 84.417969 96.335938 86.09375 98.886719 85.933594 101.527344 C 85.785156 103.957031 85.027344 106.109375 83.53125 107.914062 C 81.996094 109.765625 80.058594 111.113281 77.886719 112.175781 C 77.414062 112.410156 76.933594 112.621094 76.402344 112.871094 C 76.371094 113.25 76.316406 113.636719 76.308594 114.027344 C 76.261719 116.332031 76.476562 118.644531 77.128906 120.953125 C 77.324219 121.640625 77.644531 122.316406 77.980469 122.96875 C 78.230469 123.449219 78.722656 123.613281 79.167969 123.402344 C 79.554688 123.222656 79.9375 122.996094 80.230469 122.703125 C 80.769531 122.171875 81.28125 121.609375 81.730469 121 C 82.65625 119.742188 83.578125 118.476562 84.417969 117.15625 C 86.457031 113.957031 88.445312 110.714844 90.476562 107.507812 C 90.84375 106.921875 90.992188 106.3125 90.972656 105.578125 C 90.894531 102.375 90.855469 99.167969 91.226562 96.03125 C 91.730469 91.816406 92.507812 87.691406 93.902344 83.773438 C 94.726562 81.453125 95.839844 79.289062 97.21875 77.296875 C 98.582031 75.328125 100.230469 73.65625 102.402344 72.53125 C 103.664062 71.878906 105.019531 71.554688 106.535156 71.664062 C 109.101562 71.855469 111.234375 73.347656 112.21875 75.820312 C 112.636719 76.875 112.886719 78.007812 113.039062 79.101562 C 113.402344 81.753906 113.046875 84.292969 112.484375 86.773438 C 111.515625 91.023438 109.910156 94.96875 107.628906 98.558594 C 106.453125 100.414062 105.039062 102.058594 103.324219 103.433594 C 102.171875 104.359375 100.925781 105.140625 99.503906 105.664062 C 99.285156 105.746094 99.074219 105.847656 98.816406 105.960938 C 98.773438 107.28125 98.910156 108.589844 99.03125 109.890625 C 99.28125 112.664062 99.558594 115.4375 100.375 118.183594 C 100.667969 119.171875 101.011719 120.171875 101.5 121.09375 C 102.46875 122.90625 103.292969 123.046875 104.410156 121.632812 C 104.964844 120.933594 105.433594 120.148438 105.847656 119.347656 C 106.988281 117.140625 107.765625 114.75 108.539062 112.363281 C 109.65625 108.921875 110.75 105.472656 111.886719 102.039062 C 112.109375 101.355469 112.414062 100.699219 112.769531 100.085938 C 113.542969 98.742188 114.804688 98.167969 116.453125 98.25 C 117.433594 98.304688 118.382812 98.558594 119.3125 98.941406 C 120.289062 99.347656 120.878906 100.078125 120.953125 101.089844 C 121.003906 101.789062 120.980469 102.492188 120.902344 103.171875 C 120.636719 105.421875 120.292969 107.652344 120.054688 109.90625 C 119.796875 112.3125 119.742188 114.757812 120.007812 117.234375 C 120.082031 117.933594 120.230469 118.640625 120.410156 119.339844 C 120.515625 119.726562 120.722656 120.117188 120.949219 120.46875 C 121.238281 120.925781 121.769531 121.046875 122.136719 120.734375 C 122.492188 120.425781 122.832031 120.082031 123.082031 119.6875 C 123.632812 118.800781 124.199219 117.914062 124.621094 116.957031 C 125.734375 114.414062 126.765625 111.832031 127.855469 109.273438 C 128.070312 108.761719 128.03125 108.222656 128 107.671875 C 127.832031 104.777344 128.183594 102.007812 129.066406 99.375 C 129.976562 96.65625 131.558594 94.453125 133.867188 92.8125 C 135.046875 91.976562 136.371094 91.441406 137.878906 91.25 C 139.304688 91.070312 140.6875 91.320312 142.070312 91.972656 C 144.160156 92.960938 145.257812 94.605469 145.59375 96.726562 C 145.816406 98.152344 145.6875 99.535156 145.375 100.871094 C 144.902344 102.882812 144.058594 104.695312 142.832031 106.289062 C 141.28125 108.300781 139.257812 109.636719 136.625 110.101562 C 136.429688 110.136719 136.246094 110.199219 136.0625 110.242188 C 135.75 110.75 135.976562 111.324219 136.011719 111.863281 C 136.136719 113.589844 136.527344 115.292969 137.273438 116.9375 C 137.59375 117.644531 138.023438 118.335938 138.515625 118.957031 C 139.058594 119.640625 139.738281 119.792969 140.445312 119.449219 C 140.867188 119.242188 141.273438 118.953125 141.570312 118.597656 C 142.292969 117.730469 142.996094 116.832031 143.628906 115.890625 C 145.316406 113.359375 146.675781 110.621094 147.925781 107.824219 C 149.640625 103.980469 151.285156 100.097656 152.945312 96.222656 C 153.207031 95.609375 153.386719 94.949219 153.582031 94.300781 C 153.789062 93.605469 154.246094 93.164062 154.933594 92.941406 C 156.671875 92.378906 158.476562 92.167969 160.40625 92.648438 C 162.203125 93.09375 163.265625 94.148438 163.660156 95.929688 C 163.761719 96.378906 163.820312 96.839844 163.835938 97.289062 C 163.910156 99.144531 163.96875 101 164.015625 102.855469 C 164.074219 105.160156 164.066406 107.457031 164.191406 109.765625 C 164.261719 111.117188 164.503906 112.484375 164.714844 113.839844 C 164.84375 114.648438 165.089844 115.449219 165.601562 116.164062 C 166.050781 116.789062 166.617188 117 167.199219 116.660156 C 167.730469 116.355469 168.261719 115.984375 168.613281 115.5 C 169.363281 114.46875 170.078125 113.398438 170.660156 112.257812 C 172.5625 108.492188 173.75 104.40625 174.546875 100.164062 C 174.691406 99.402344 174.785156 98.625 174.917969 97.789062 C 174.402344 97.488281 173.957031 97.214844 173.503906 96.960938 C 170.492188 95.277344 167.832031 93.136719 165.527344 90.539062 C 163.945312 88.757812 162.644531 86.816406 161.769531 84.652344 C 161.046875 82.882812 160.582031 81.085938 160.949219 79.296875 C 161.117188 78.492188 161.339844 77.6875 161.6875 76.964844 C 162.5 75.246094 163.785156 73.933594 165.394531 72.9375 C 166.171875 72.453125 167.019531 72.097656 167.960938 71.976562 C 169.941406 71.726562 171.789062 72.242188 173.449219 73.679688 C 174.640625 74.714844 175.613281 75.902344 176.355469 77.277344 C 177.726562 79.832031 178.445312 82.507812 178.90625 85.242188 C 179.429688 88.335938 179.453125 91.375 179.160156 94.386719 C 179.132812 94.683594 179.128906 94.980469 179.128906 95.28125 C 179.128906 95.375 179.191406 95.476562 179.222656 95.574219 C 180.722656 96.457031 182.285156 96.886719 184.117188 96.917969 C 184.5 96.605469 184.476562 96.070312 184.59375 95.613281 C 185.207031 93.300781 186.117188 91.148438 187.523438 89.269531 C 188.730469 87.65625 190.183594 86.320312 192.003906 85.390625 C 193.078125 84.84375 194.222656 84.480469 195.46875 84.316406 C 197.21875 84.089844 198.894531 84.507812 200.542969 85.351562 C 201.738281 85.964844 202.570312 86.921875 203.039062 88.152344 C 203.632812 89.703125 203.808594 91.273438 203.433594 92.765625 C 202.171875 97.832031 198.914062 100.910156 193.78125 102.066406 C 193.351562 102.164062 192.90625 102.214844 192.382812 102.296875 C 192.335938 102.59375 192.257812 102.914062 192.234375 103.246094 C 192.105469 105.496094 192.355469 107.753906 193.007812 110.015625 C 193.324219 111.117188 193.804688 112.171875 194.601562 113.082031 C 195.730469 114.367188 197.117188 114.671875 198.445312 113.917969 C 198.816406 113.707031 199.179688 113.464844 199.492188 113.179688 C 200.289062 112.441406 201.113281 111.71875 201.816406 110.898438 C 203.960938 108.402344 205.550781 105.542969 206.667969 102.382812 C 207.164062 100.96875 207.496094 99.5 207.527344 97.941406 C 207.539062 97.347656 207.828125 97.078125 208.375 96.964844 C 209.742188 96.675781 211.207031 97.339844 212.085938 98.75 C 212.875 100.007812 213.175781 101.351562 213.085938 102.726562 C 212.964844 104.472656 212.53125 106.109375 211.84375 107.648438 C 210.285156 111.132812 207.90625 113.898438 204.695312 115.933594 C 203.238281 116.855469 201.632812 117.488281 199.886719 117.867188 C 198.007812 118.277344 196.121094 118.09375 194.179688 117.503906 C 190.628906 116.429688 188.097656 114.089844 186.257812 110.929688 C 184.53125 107.964844 183.820312 104.832031 183.8125 101.617188 C 183.808594 101.269531 183.816406 100.921875 183.808594 100.574219 C 183.808594 100.527344 183.765625 100.480469 183.703125 100.34375 C 183.519531 100.292969 183.28125 100.210938 183.042969 100.164062 C 181.878906 99.941406 180.714844 99.726562 179.550781 99.511719 C 179.253906 99.457031 178.957031 99.425781 178.59375 99.371094 C 178.480469 99.886719 178.359375 100.347656 178.269531 100.820312 C 177.484375 104.855469 176.441406 108.789062 174.871094 112.503906 C 174.273438 113.914062 173.53125 115.25 172.820312 116.597656 C 172.257812 117.660156 171.46875 118.535156 170.582031 119.332031 C 169.667969 120.148438 168.570312 120.621094 167.296875 120.714844 C 163.707031 120.976562 159.429688 119.421875 157.316406 114.917969 C 156.390625 112.941406 155.898438 110.882812 155.636719 108.816406 C 155.382812 106.804688 155.308594 104.792969 155.148438 102.78125 C 155.128906 102.492188 155.085938 102.199219 155.054688 101.902344 C 154.542969 101.8125 154.558594 102.207031 154.460938 102.417969 C 152.628906 106.359375 150.792969 110.304688 149 114.265625 C 148.164062 116.101562 147.167969 117.828125 146.074219 119.492188 C 145.839844 119.847656 145.566406 120.179688 145.3125 120.523438 C 142.601562 124.195312 137.191406 123.636719 133.9375 121.117188 C 132.410156 119.933594 131.296875 118.457031 130.433594 116.792969 C 130.09375 116.140625 129.796875 115.46875 129.417969 114.675781 C 129.226562 114.9375 129.042969 115.113281 128.941406 115.335938 C 128.320312 116.679688 127.765625 118.066406 127.09375 119.378906 C 126.527344 120.476562 125.90625 121.558594 125.164062 122.53125 C 123.386719 124.859375 120.820312 125.242188 117.789062 123.886719 C 116.308594 123.226562 115.273438 122.097656 114.496094 120.714844 C 113.652344 119.214844 113.21875 117.625 112.949219 116.003906 C 112.773438 114.949219 112.632812 113.894531 112.480469 112.839844 C 112.078125 112.695312 112.082031 113.03125 112.019531 113.203125 C 111.539062 114.511719 111.105469 115.839844 110.621094 117.148438 C 110.019531 118.773438 109.453125 120.414062 108.75 121.984375 C 108.261719 123.066406 107.632812 124.085938 106.957031 125.050781 C 105.886719 126.570312 104.296875 127.09375 102.296875 126.777344 C 99.882812 126.394531 97.859375 125.269531 96.210938 123.335938 C 94.679688 121.542969 93.753906 119.488281 93.054688 117.351562 C 92.71875 116.316406 92.484375 115.257812 92.203125 114.214844 C 92.0625 113.683594 91.914062 113.15625 91.757812 112.585938 C 91.207031 112.769531 91.117188 113.234375 90.894531 113.578125 C 88.972656 116.570312 87.089844 119.59375 85.121094 122.554688 C 84.390625 123.65625 83.523438 124.671875 82.621094 125.632812 C 81.316406 127.015625 79.582031 127.53125 77.535156 127.328125 C 75.433594 127.121094 73.65625 126.199219 72.1875 124.546875 C 71.324219 123.574219 70.6875 122.472656 70.191406 121.304688 C 69.507812 119.710938 68.988281 118.082031 68.675781 116.414062 C 68.605469 116.019531 68.488281 115.632812 68.382812 115.191406 C 67.695312 115.089844 67.136719 115.25 66.566406 115.363281 C 65.996094 115.476562 65.421875 115.582031 64.777344 115.707031 C 64.835938 116.28125 64.886719 116.773438 64.9375 117.269531 C 65.621094 124.015625 64.398438 130.136719 60.921875 135.492188 C 59.203125 138.144531 56.804688 140.046875 53.828125 141.238281 C 50.816406 142.441406 47.675781 142.496094 44.421875 140.84375 C 40.917969 139.0625 38.691406 136.324219 37.722656 132.589844 C 36.328125 127.230469 37.789062 120.628906 43.769531 117.230469 C 45.863281 116.046875 48.132812 115.226562 50.503906 114.613281 C 52.203125 114.171875 53.921875 113.78125 55.613281 113.371094 C 55.808594 111.042969 53.703125 106.785156 51.429688 104.878906 C 51.003906 104.859375 50.898438 105.226562 50.699219 105.46875 C 49.527344 106.902344 48.226562 108.207031 46.75 109.335938 C 45.457031 110.324219 44.042969 111.105469 42.378906 111.457031 C 40.898438 111.769531 39.410156 111.710938 37.90625 110.957031 C 35.484375 109.742188 34.160156 107.242188 34.628906 104.789062 C 34.855469 103.601562 35.40625 102.621094 36.203125 101.789062 C 37.4375 100.496094 38.960938 99.628906 40.757812 99.191406 C 41.902344 98.914062 43.078125 98.757812 44.304688 98.796875 C 44.804688 98.8125 45.304688 98.8125 45.890625 98.824219 C 46.0625 98.375 46.253906 97.941406 46.398438 97.488281 C 47.472656 94.058594 48.109375 90.5 48.113281 86.78125 C 48.117188 85.589844 47.9375 84.371094 47.765625 83.164062 C 47.640625 82.304688 47.300781 81.46875 46.785156 80.707031 C 46.101562 79.6875 45.3125 79.367188 44.265625 79.761719 C 43.683594 79.980469 43.101562 80.269531 42.65625 80.671875 C 41.917969 81.328125 41.214844 82.046875 40.632812 82.84375 C 38.527344 85.746094 37.195312 89.082031 36.140625 92.566406 C 35.113281 95.957031 34.527344 99.484375 34.109375 103.054688 C 33.433594 108.789062 33.164062 114.59375 33.601562 120.496094 C 33.796875 123.109375 34.125 125.734375 34.464844 128.351562 C 34.585938 129.300781 34.90625 130.25 35.148438 131.195312 C 35.378906 132.09375 35.207031 132.5 34.417969 132.835938 C 32.460938 133.671875 29.632812 132.898438 27.917969 131.058594 C 27.015625 130.09375 26.457031 128.964844 26.023438 127.777344 C 25.324219 125.855469 25.019531 123.890625 24.738281 121.921875 C 24.105469 117.480469 23.960938 113.066406 23.730469 108.648438 C 23.480469 103.925781 23.21875 99.199219 22.910156 94.472656 C 22.816406 93.019531 22.582031 91.550781 22.335938 90.09375 C 22.152344 88.988281 21.867188 87.878906 21.21875 86.871094 C 20.878906 86.332031 20.957031 85.902344 21.324219 85.519531 C 21.355469 85.484375 21.386719 85.449219 21.425781 85.417969 C 22.90625 84.214844 24.609375 83.523438 26.703125 83.714844 C 28.15625 83.847656 29.25 84.59375 30.019531 85.878906 C 30.574219 86.804688 30.917969 87.789062 31.101562 88.800781 C 31.265625 89.703125 31.378906 90.613281 31.515625 91.519531 C 31.558594 91.800781 31.601562 92.082031 31.675781 92.566406 C 32.023438 92.113281 32.085938 91.738281 32.183594 91.378906 C 32.910156 88.707031 33.804688 86.113281 35.023438 83.671875 C 35.835938 82.046875 36.765625 80.503906 37.910156 79.109375 C 40.1875 76.339844 43.179688 74.839844 47.027344 74.820312 C 48.722656 74.808594 50.382812 75.171875 51.96875 76 C 54.4375 77.292969 56.011719 79.3125 56.78125 81.886719 C 57.507812 84.304688 57.542969 86.710938 57.351562 89.089844 C 57.054688 92.726562 55.9375 96.054688 54.488281 99.25 C 54.289062 99.683594 54.097656 100.121094 53.910156 100.5625 C 53.894531 100.597656 53.925781 100.660156 53.960938 100.832031 " fill-opacity="1" fill-rule="nonzero"/><path fill="#88c0fa" d="M 189.21875 161.367188 C 189.457031 161.328125 189.664062 161.332031 189.820312 161.257812 C 192.441406 160.015625 194.042969 157.953125 194.507812 155.019531 C 194.609375 154.402344 194.566406 153.726562 194.480469 153.078125 C 194.351562 152.097656 193.675781 151.609375 192.726562 151.785156 C 192.351562 151.855469 191.953125 151.992188 191.679688 152.230469 C 191.253906 152.59375 190.867188 153.023438 190.578125 153.5 C 189.832031 154.730469 189.453125 156.136719 189.253906 157.601562 C 189.089844 158.808594 188.925781 160.019531 189.21875 161.367188 Z M 168.941406 171.765625 C 168.136719 172.011719 167.554688 172.488281 167.027344 173.023438 C 165.5 174.566406 164.472656 176.425781 164.019531 178.621094 C 163.5625 180.839844 163.519531 183.128906 163.867188 185.460938 C 164.054688 186.71875 164.328125 187.976562 164.875 189.1875 C 165.226562 189.957031 165.625 190.703125 166.234375 191.328125 C 167.097656 192.210938 168.085938 192.367188 168.980469 191.757812 C 169.625 191.324219 170.0625 190.703125 170.417969 190.023438 C 170.980469 188.957031 171.273438 187.78125 171.429688 186.558594 C 171.890625 182.988281 171.433594 179.378906 170.386719 175.765625 C 170.003906 174.4375 169.628906 173.09375 168.941406 171.765625 Z M 240.183594 152.140625 C 241.332031 152.207031 242.105469 151.824219 242.863281 151.421875 C 244.226562 150.691406 245.355469 149.6875 246.410156 148.59375 C 250.175781 144.679688 252.300781 139.8125 253.5 134.410156 C 253.839844 132.878906 253.957031 131.300781 253.769531 129.675781 C 253.695312 129.023438 253.578125 128.363281 253.375 127.722656 C 253.089844 126.804688 252.527344 126.433594 251.609375 126.539062 C 251.179688 126.589844 250.730469 126.726562 250.390625 126.960938 C 249.804688 127.359375 249.222656 127.796875 248.78125 128.335938 C 248.089844 129.171875 247.449219 130.0625 246.910156 131.007812 C 245.398438 133.660156 244.144531 136.453125 243.238281 139.417969 C 242.066406 143.25 241.070312 147.15625 240.289062 151.132812 C 240.234375 151.410156 240.226562 151.699219 240.183594 152.140625 Z M 213.3125 156.183594 C 213.902344 155.796875 214.226562 155.617188 214.511719 155.398438 C 217.136719 153.375 219.09375 150.777344 220.6875 147.890625 C 223.320312 143.132812 224.734375 137.867188 225.378906 132.3125 C 225.601562 130.40625 225.652344 128.457031 225.179688 126.476562 C 225.074219 126.03125 224.949219 125.570312 224.738281 125.15625 C 224.273438 124.257812 223.566406 123.902344 222.691406 124.222656 C 222.117188 124.4375 221.585938 124.792969 221.140625 125.199219 C 220.15625 126.097656 219.457031 127.234375 218.816406 128.402344 C 217.71875 130.410156 216.871094 132.546875 216.199219 134.765625 C 214.355469 140.855469 213.515625 147.214844 213.308594 153.742188 C 213.285156 154.433594 213.308594 155.132812 213.3125 156.183594 Z M 238.742188 175.339844 C 238.675781 175.910156 238.628906 176.09375 238.636719 176.285156 C 238.855469 181.957031 239.316406 187.632812 240.414062 193.324219 C 240.773438 195.183594 241.335938 197.015625 242.132812 198.796875 C 242.542969 199.714844 243.015625 200.597656 243.714844 201.359375 C 244.765625 202.515625 245.886719 202.71875 246.917969 201.808594 C 247.472656 201.320312 247.953125 200.683594 248.253906 200 C 248.792969 198.78125 249.25 197.503906 249.601562 196.199219 C 250.671875 192.207031 251.140625 188.046875 251.265625 183.816406 C 251.355469 180.828125 251.132812 177.8125 250.25 174.796875 C 249.664062 172.804688 248.953125 170.851562 247.824219 169.027344 C 247.289062 168.164062 246.667969 167.363281 245.859375 166.71875 C 245.347656 166.308594 244.804688 166 244.164062 165.914062 C 243.222656 165.792969 242.695312 166.070312 242.558594 166.957031 C 242.453125 167.625 242.441406 168.339844 242.527344 169.03125 C 242.710938 170.46875 243.34375 171.800781 244.175781 173.058594 C 245.398438 174.914062 246.992188 176.410156 248.84375 177.640625 C 249.242188 177.902344 249.640625 178.15625 250.070312 178.4375 C 250.234375 179.945312 250.476562 181.429688 250.132812 182.953125 C 245.523438 181.855469 241.621094 179.78125 238.742188 175.339844 Z M 229.878906 168.355469 C 229.679688 168.667969 229.464844 168.972656 229.28125 169.292969 C 228.246094 171.058594 227.265625 172.855469 226.175781 174.582031 C 225.242188 176.0625 224.234375 177.503906 223.164062 178.886719 C 222.53125 179.703125 221.757812 180.417969 220.964844 181.089844 C 220.035156 181.878906 218.867188 182.1875 217.546875 182.128906 C 214.398438 181.984375 211.753906 180.671875 209.632812 178.085938 C 208.46875 176.671875 207.515625 175.144531 206.777344 173.5 C 205.851562 171.433594 205.125 169.320312 204.613281 167.164062 C 204.542969 166.871094 204.4375 166.585938 204.351562 166.300781 C 203.859375 166.238281 203.863281 166.609375 203.761719 166.824219 C 203.015625 168.429688 202.308594 170.050781 201.566406 171.65625 C 200.761719 173.394531 199.839844 175.058594 198.71875 176.589844 C 198.214844 177.277344 197.675781 177.949219 197.050781 178.519531 C 195.128906 180.28125 192.730469 180.507812 190.074219 179.527344 C 187.816406 178.691406 186.074219 177.132812 184.734375 175.105469 C 183.25 172.851562 182.332031 170.417969 181.628906 167.917969 C 181.507812 167.476562 181.371094 167.039062 181.210938 166.515625 C 179.636719 166.820312 178.308594 167.453125 176.867188 168.023438 C 176.980469 168.398438 177.058594 168.738281 177.1875 169.0625 C 178.453125 172.1875 179.246094 175.382812 179.710938 178.613281 C 180.128906 181.519531 179.953125 184.347656 179.253906 187.039062 C 178.148438 191.304688 175.375 194.105469 171.226562 195.46875 C 166.984375 196.863281 162.757812 195.210938 160.023438 191.433594 C 157.421875 187.84375 156.613281 184.042969 157.234375 180.078125 C 157.71875 176.980469 159.117188 174.433594 161.3125 172.363281 C 162.769531 170.992188 164.425781 169.886719 166.179688 168.902344 C 166.546875 168.695312 166.910156 168.476562 167.351562 168.222656 C 167.183594 167.851562 167.058594 167.519531 166.886719 167.210938 C 165.53125 164.8125 164.171875 162.417969 162.8125 160.019531 C 161.582031 157.855469 160.296875 155.710938 159.140625 153.515625 C 157.6875 150.773438 156.84375 147.910156 156.605469 144.945312 C 156.390625 142.261719 157.050781 139.914062 158.609375 137.972656 C 161.132812 134.820312 164.617188 133.734375 168.921875 134.808594 C 171.914062 135.554688 175.476562 138.226562 176.570312 142.8125 C 177.136719 145.191406 176.988281 147.429688 175.9375 149.460938 C 175.300781 150.707031 174.328125 151.554688 172.835938 151.742188 C 171.953125 151.855469 171.117188 151.644531 170.355469 151.046875 C 169.773438 150.59375 169.390625 150.011719 169.476562 149.304688 C 169.554688 148.628906 169.894531 148.132812 170.628906 148.015625 C 170.816406 147.988281 170.996094 147.917969 171.222656 147.855469 C 171.496094 147.058594 171.464844 146.203125 171.433594 145.359375 C 171.371094 143.894531 171.011719 142.441406 170.394531 141.035156 C 169.988281 140.101562 169.394531 139.285156 168.59375 138.617188 C 166.488281 136.859375 164 137.449219 163.367188 139.84375 C 163.140625 140.710938 163.152344 141.597656 163.351562 142.515625 C 163.675781 144.027344 164.183594 145.5 164.980469 146.894531 C 166.246094 149.101562 167.507812 151.308594 168.769531 153.519531 C 170.6875 156.878906 172.605469 160.238281 174.527344 163.597656 C 174.78125 164.046875 175.050781 164.488281 175.359375 165.011719 C 177.160156 164.335938 178.871094 163.699219 180.652344 163.03125 C 180.632812 162.445312 180.613281 161.902344 180.59375 161.359375 C 180.484375 158.558594 180.925781 155.925781 182.050781 153.496094 C 182.910156 151.644531 184.167969 150.121094 185.808594 148.9375 C 187.484375 147.730469 189.414062 147.183594 191.65625 147.464844 C 192.640625 147.589844 193.574219 147.898438 194.46875 148.390625 C 196.648438 149.597656 198.128906 151.613281 198.035156 154.429688 C 197.867188 159.589844 195.285156 162.941406 190.601562 164.652344 C 190.242188 164.785156 189.875 164.902344 189.445312 165.050781 C 189.433594 165.292969 189.382812 165.53125 189.417969 165.765625 C 189.761719 167.933594 190.164062 170.097656 190.984375 172.203125 C 191.359375 173.171875 191.8125 174.144531 192.394531 175.019531 C 193.296875 176.386719 194.09375 176.496094 195.046875 175.378906 C 195.84375 174.449219 196.535156 173.414062 197.167969 172.359375 C 197.851562 171.222656 198.476562 170.035156 199.023438 168.816406 C 200.316406 165.9375 201.53125 163.015625 202.824219 160.136719 C 203.25 159.195312 203.398438 158.210938 203.371094 157.144531 C 203.195312 151.042969 203.949219 145.152344 205.226562 139.378906 C 206.015625 135.804688 207.152344 132.371094 208.757812 129.160156 C 210.003906 126.667969 211.542969 124.402344 213.617188 122.554688 C 214.609375 121.667969 215.667969 120.863281 216.898438 120.296875 C 218.683594 119.476562 220.605469 119.144531 222.707031 119.582031 C 225.3125 120.125 227.140625 121.714844 228.351562 124.085938 C 229.058594 125.476562 229.34375 126.9375 229.417969 128.402344 C 229.617188 132.300781 229.183594 136.058594 228.191406 139.679688 C 227.527344 142.113281 226.695312 144.476562 225.691406 146.753906 C 223.660156 151.367188 220.8125 155.355469 216.898438 158.476562 C 215.828125 159.332031 214.636719 160.039062 213.457031 160.84375 C 213.445312 160.875 213.378906 160.960938 213.378906 161.050781 C 213.425781 165.476562 214.089844 169.894531 215.34375 174.296875 C 215.554688 175.039062 215.84375 175.777344 216.164062 176.492188 C 216.375 176.96875 216.671875 177.425781 217 177.839844 C 217.4375 178.402344 217.933594 178.523438 218.476562 178.175781 C 218.996094 177.847656 219.511719 177.476562 219.898438 177.007812 C 220.835938 175.882812 221.765625 174.742188 222.570312 173.519531 C 223.71875 171.777344 224.773438 169.972656 225.828125 168.164062 C 227.363281 165.539062 228.847656 162.878906 230.371094 160.246094 C 230.785156 159.535156 231.042969 158.789062 231.144531 157.941406 C 231.824219 152.113281 232.921875 146.40625 234.410156 140.828125 C 235 138.628906 235.742188 136.488281 236.488281 134.351562 C 237.1875 132.347656 238.148438 130.480469 239.210938 128.675781 C 240.179688 127.03125 241.351562 125.546875 242.746094 124.257812 C 244.085938 123.019531 245.660156 122.164062 247.488281 121.671875 C 251.4375 120.605469 256.128906 123.441406 257.09375 128.054688 C 257.5625 130.289062 257.621094 132.484375 257.324219 134.640625 C 256.492188 140.730469 254.335938 146.171875 250.785156 150.917969 C 249.441406 152.707031 247.867188 154.265625 246.007812 155.539062 C 244.203125 156.773438 242.222656 157.574219 239.824219 157.378906 C 239.675781 157.367188 239.53125 157.410156 239.398438 157.425781 C 239.023438 158.570312 238.824219 161.707031 239.007812 163.738281 C 239.246094 163.621094 239.457031 163.554688 239.621094 163.433594 C 242.988281 160.917969 247.492188 161.289062 251.085938 164.390625 C 253.308594 166.308594 254.757812 168.6875 255.78125 171.316406 C 257.101562 174.714844 257.796875 178.167969 257.984375 181.65625 C 258.21875 186.003906 257.8125 190.222656 256.761719 194.289062 C 256.101562 196.839844 255.074219 199.207031 253.664062 201.367188 C 252.777344 202.726562 251.710938 203.917969 250.457031 204.945312 C 247.230469 207.589844 242.507812 207.015625 239.238281 204.386719 C 237.039062 202.621094 235.425781 200.476562 234.21875 198.035156 C 232.8125 195.175781 231.898438 192.203125 231.34375 189.171875 C 230.492188 184.535156 230.0625 179.90625 230.011719 175.292969 C 229.992188 173.191406 230.089844 171.109375 230.128906 169.015625 C 230.132812 168.820312 230.109375 168.621094 230.097656 168.421875 C 230.023438 168.402344 229.949219 168.378906 229.878906 168.355469 " fill-opacity="1" fill-rule="nonzero"/><path fill="#88c0fa" d="M 88.164062 167.265625 C 88.179688 167.019531 88.222656 166.828125 88.207031 166.632812 C 87.992188 163.695312 87.308594 160.808594 86.015625 158.015625 C 85.625 157.164062 85.101562 156.351562 84.582031 155.554688 C 84.328125 155.160156 83.984375 154.792969 83.617188 154.492188 C 82.527344 153.609375 80.964844 153.269531 79.96875 154.773438 C 79.761719 155.089844 79.558594 155.425781 79.464844 155.796875 C 79.273438 156.542969 79.078125 157.300781 79.023438 158.082031 C 78.839844 160.488281 79.488281 162.792969 80.96875 164.929688 C 82.140625 166.625 83.710938 167.589844 85.714844 167.636719 C 86.523438 167.652344 87.320312 167.640625 88.164062 167.265625 Z M 133.195312 147.144531 C 133.191406 146.8125 133.210938 146.613281 133.183594 146.417969 C 132.785156 143.527344 131.9375 140.71875 130.570312 138.015625 C 130.171875 137.222656 129.671875 136.453125 129.117188 135.742188 C 128.175781 134.539062 126.945312 133.859375 125.480469 133.757812 C 123.984375 133.65625 122.90625 134.375 122.507812 135.734375 C 122.042969 137.3125 122.359375 138.898438 123.207031 140.425781 C 125.023438 143.710938 127.699219 145.925781 131.277344 146.972656 C 131.875 147.148438 132.472656 147.222656 133.195312 147.144531 Z M 81.386719 170.570312 C 81.304688 170.835938 81.199219 171.054688 81.171875 171.289062 C 80.789062 174.421875 80.703125 177.597656 81.09375 180.824219 C 81.238281 182.023438 81.53125 183.234375 81.871094 184.421875 C 82.035156 184.992188 82.394531 185.5625 82.769531 186.0625 C 83.234375 186.679688 83.828125 186.722656 84.335938 186.234375 C 84.574219 186.011719 84.785156 185.742188 84.941406 185.453125 C 85.367188 184.660156 85.800781 183.871094 86.15625 183.035156 C 86.945312 181.183594 87.4375 179.203125 87.761719 177.175781 C 88.050781 175.390625 88.226562 173.578125 88.421875 171.769531 C 88.453125 171.464844 88.328125 171.125 88.277344 170.816406 C 87.074219 170.878906 85.984375 171.011719 84.878906 170.972656 C 83.734375 170.925781 82.570312 170.714844 81.386719 170.570312 Z M 133.691406 151.722656 C 133.246094 151.691406 132.992188 151.660156 132.742188 151.65625 C 130.140625 151.648438 127.570312 150.996094 125.015625 150.238281 C 123.703125 149.847656 122.457031 149.257812 121.300781 148.464844 C 117.339844 145.742188 115.320312 142.132812 115.363281 137.636719 C 115.378906 135.902344 115.925781 134.351562 116.933594 133.050781 C 119.160156 130.195312 122.199219 128.925781 126.125 129.570312 C 128.164062 129.90625 129.976562 130.902344 131.570312 132.347656 C 133.277344 133.894531 134.523438 135.734375 135.355469 137.816406 C 136.328125 140.261719 136.945312 142.753906 137.273438 145.285156 C 137.335938 145.78125 137.410156 146.277344 137.484375 146.828125 C 137.839844 146.851562 138.136719 146.921875 138.410156 146.882812 C 140.710938 146.550781 142.996094 146.152344 145.308594 145.867188 C 147.242188 145.628906 149.21875 145.726562 151.195312 146.414062 C 151.683594 146.585938 152.167969 146.8125 152.625 147.074219 C 154.417969 148.097656 155.136719 149.648438 155.101562 151.492188 C 155.070312 152.945312 154.742188 154.324219 154.355469 155.675781 C 153.453125 158.839844 152.535156 161.996094 151.644531 165.164062 C 150.605469 168.855469 149.832031 172.625 149.488281 176.527344 C 149.226562 179.5 149.25 182.484375 150.136719 185.523438 C 150.964844 188.339844 152.203125 190.988281 154.21875 193.4375 C 154.039062 193.675781 153.886719 193.964844 153.652344 194.164062 C 152.664062 194.996094 151.414062 195.261719 150.070312 195.191406 C 147.375 195.046875 145.0625 193.941406 143.269531 191.667969 C 141.625 189.585938 140.832031 187.25 140.390625 184.792969 C 139.664062 180.761719 139.945312 176.871094 140.523438 173.023438 C 141.273438 168.011719 142.617188 163.210938 144.265625 158.527344 C 145.09375 156.167969 145.960938 153.820312 146.804688 151.464844 C 146.976562 150.980469 147.238281 150.515625 147.199219 149.945312 C 145.726562 149.707031 140.429688 150.503906 137.8125 151.355469 C 137.792969 151.621094 137.75 151.910156 137.757812 152.207031 C 137.863281 158.605469 136.910156 164.75 135.511719 170.78125 C 134.972656 173.101562 134.3125 175.382812 133.640625 177.652344 C 133.082031 179.558594 132.296875 181.359375 131.316406 183.050781 C 130.714844 184.082031 130.046875 185.054688 129.1875 185.882812 C 128.035156 186.988281 126.628906 187.46875 124.882812 187.25 C 122.171875 186.90625 120.085938 185.59375 118.640625 183.128906 C 117.429688 181.058594 116.921875 178.875 116.652344 176.640625 C 116.585938 176.089844 116.585938 175.539062 116.558594 175.011719 C 116.101562 174.839844 116.070312 175.140625 115.996094 175.328125 C 115.269531 177.15625 114.578125 179.003906 113.824219 180.816406 C 113.292969 182.101562 112.707031 183.355469 112.089844 184.59375 C 111.773438 185.230469 111.363281 185.820312 110.957031 186.402344 C 109.652344 188.269531 107.449219 188.527344 105.210938 187.605469 C 103.644531 186.960938 102.441406 185.820312 101.488281 184.417969 C 100.453125 182.890625 99.859375 181.226562 99.484375 179.507812 C 98.902344 176.828125 98.765625 174.164062 98.890625 171.53125 C 99.015625 168.855469 99.265625 166.195312 99.453125 163.527344 C 99.460938 163.394531 99.40625 163.25 99.355469 162.960938 C 98.203125 164.144531 97.183594 165.3125 96.039062 166.34375 C 94.882812 167.386719 93.605469 168.292969 92.332031 169.300781 C 92.199219 170.796875 92.082031 172.371094 91.929688 173.941406 C 91.636719 176.894531 91.003906 179.746094 90.175781 182.53125 C 89.746094 183.96875 89.175781 185.347656 88.390625 186.597656 C 88.011719 187.195312 87.597656 187.777344 87.121094 188.300781 C 86.335938 189.160156 85.320312 189.636719 84.082031 189.796875 C 80.566406 190.25 77.304688 188.808594 75.207031 185.632812 C 74.316406 184.285156 73.648438 182.863281 73.207031 181.363281 C 72.375 178.554688 72.078125 175.742188 72.144531 172.9375 C 72.183594 171.277344 72.660156 169.75 73.378906 168.332031 C 73.683594 167.722656 74.109375 167.226562 74.683594 166.863281 C 74.921875 166.714844 75.160156 166.5625 75.429688 166.390625 C 75.089844 165.902344 74.765625 165.476562 74.484375 165.03125 C 71.960938 160.972656 71.664062 157 73.792969 153.308594 C 76.636719 148.382812 83.460938 148.378906 87.714844 153.191406 C 89.46875 155.179688 90.480469 157.464844 91.078125 159.902344 C 91.308594 160.851562 91.460938 161.808594 91.628906 162.765625 C 91.765625 163.507812 91.875 164.253906 92.015625 165.140625 C 92.351562 164.964844 92.582031 164.894531 92.746094 164.75 C 93.457031 164.125 94.191406 163.519531 94.839844 162.832031 C 96.566406 161.015625 98.273438 159.175781 99.691406 157.097656 C 100.300781 156.203125 101.15625 155.800781 102.289062 155.800781 C 103.402344 155.800781 104.507812 155.859375 105.613281 156.316406 C 107.371094 157.046875 108.316406 158.183594 108.390625 159.976562 C 108.441406 161.277344 108.34375 162.566406 108.199219 163.835938 C 107.800781 167.3125 107.308594 170.761719 106.917969 174.238281 C 106.679688 176.347656 106.578125 178.484375 106.820312 180.660156 C 106.90625 181.464844 107.085938 182.269531 107.273438 183.066406 C 107.355469 183.402344 107.574219 183.71875 107.78125 184.152344 C 108.074219 183.96875 108.378906 183.882812 108.511719 183.679688 C 109.007812 182.929688 109.503906 182.171875 109.898438 181.359375 C 111.089844 178.910156 111.984375 176.3125 112.792969 173.679688 C 114.003906 169.753906 115.183594 165.820312 116.378906 161.890625 C 116.546875 161.335938 116.710938 160.777344 116.90625 160.234375 C 117.242188 159.308594 117.941406 158.75 118.914062 158.582031 C 119.988281 158.394531 121.101562 158.40625 122.226562 158.730469 C 123.882812 159.207031 124.898438 160.386719 124.855469 162.023438 C 124.808594 163.5625 124.625 165.085938 124.425781 166.59375 C 124.050781 169.472656 123.703125 172.359375 123.628906 175.296875 C 123.574219 177.289062 123.539062 179.289062 124.082031 181.3125 C 124.203125 181.757812 124.34375 182.210938 124.542969 182.632812 C 124.972656 183.542969 125.53125 183.757812 126.210938 183.199219 C 126.753906 182.753906 127.234375 182.214844 127.640625 181.640625 C 128.523438 180.402344 129.167969 179.015625 129.734375 177.582031 C 130.773438 174.941406 131.503906 172.175781 132.128906 169.371094 C 133.277344 164.21875 133.898438 158.949219 133.8125 153.519531 C 133.804688 152.976562 133.742188 152.429688 133.691406 151.722656 " fill-opacity="1" fill-rule="nonzero"/><path fill="#88c0fa" d="M 59.578125 199.957031 C 59.832031 200.773438 59.746094 201.507812 59.703125 202.226562 C 59.660156 202.964844 59.722656 203.820312 59.378906 204.378906 C 59.035156 204.933594 58.253906 205.199219 57.640625 205.550781 C 52.007812 208.746094 48.46875 213.644531 46.507812 219.816406 C 45.460938 223.121094 45.1875 226.609375 45.523438 230.222656 C 45.648438 231.5625 46.070312 232.828125 46.929688 233.976562 C 47.636719 234.921875 48.542969 235.367188 49.640625 235.207031 C 49.929688 235.167969 50.207031 235.058594 50.460938 234.933594 C 51.207031 234.574219 51.808594 234.054688 52.347656 233.445312 C 54.335938 231.1875 55.78125 228.570312 56.898438 225.746094 C 58.875 220.761719 59.929688 215.460938 60.492188 209.996094 C 60.746094 207.492188 60.945312 204.976562 61.078125 202.453125 C 61.199219 200.074219 61.214844 197.675781 61.238281 195.285156 C 61.300781 189.292969 60.894531 183.257812 60.488281 177.222656 C 60.457031 176.796875 60.503906 176.359375 60.316406 175.933594 C 59.753906 175.976562 59.824219 176.421875 59.710938 176.699219 C 58.695312 179.234375 57.765625 181.816406 56.691406 184.320312 C 55.957031 186.035156 55.097656 187.6875 54.175781 189.296875 C 53.636719 190.234375 52.925781 191.078125 52.183594 191.867188 C 51.0625 193.054688 49.582031 193.3125 47.820312 192.90625 C 45.179688 192.300781 43.277344 190.738281 41.925781 188.402344 C 41.035156 186.867188 40.515625 185.234375 40.273438 183.558594 C 39.785156 180.171875 39.695312 176.8125 39.847656 173.484375 C 40.070312 168.722656 40.414062 163.980469 40.625 159.21875 C 40.722656 157.039062 40.664062 154.828125 40.621094 152.625 C 40.597656 151.371094 40.402344 150.121094 39.691406 148.925781 C 39.328125 148.316406 39.449219 147.902344 39.917969 147.46875 C 41.78125 145.753906 45.328125 146.175781 47.183594 148.359375 C 48.410156 149.796875 49.078125 151.445312 49.21875 153.199219 C 49.34375 154.808594 49.460938 156.429688 49.363281 158.007812 C 49.121094 161.914062 48.792969 165.804688 48.429688 169.6875 C 48.039062 173.816406 47.664062 177.949219 47.558594 182.132812 C 47.515625 183.878906 47.578125 185.636719 48.023438 187.402344 C 48.125 187.792969 48.273438 188.191406 48.464844 188.5625 C 48.667969 188.957031 49.199219 189.160156 49.519531 188.925781 C 49.972656 188.59375 50.441406 188.234375 50.738281 187.769531 C 51.449219 186.652344 52.125 185.5 52.699219 184.296875 C 54.148438 181.277344 55.285156 178.105469 56.175781 174.832031 C 57.140625 171.277344 58.011719 167.691406 58.929688 164.121094 C 59.078125 163.558594 59.234375 163 59.40625 162.449219 C 59.585938 161.855469 60 161.488281 60.589844 161.304688 C 61.734375 160.949219 62.941406 160.9375 64.164062 161.324219 C 65.746094 161.820312 66.796875 162.976562 67.367188 164.453125 C 67.871094 165.761719 68.214844 167.121094 68.53125 168.46875 C 69.457031 172.394531 69.742188 176.320312 69.878906 180.234375 C 70.011719 183.992188 70.113281 187.753906 70.058594 191.492188 C 69.996094 195.726562 69.84375 199.957031 69.546875 204.152344 C 69.167969 209.535156 68.503906 214.855469 67.121094 219.976562 C 66.183594 223.449219 65.035156 226.816406 63.199219 229.84375 C 61.988281 231.839844 60.625 233.714844 58.882812 235.273438 C 57.535156 236.480469 56.019531 237.453125 54.265625 238.074219 C 53.113281 238.484375 51.914062 238.703125 50.640625 238.714844 C 47.507812 238.738281 44.949219 237.34375 42.859375 234.84375 C 40.894531 232.492188 39.9375 229.808594 39.695312 226.972656 C 39.128906 220.359375 40.9375 214.667969 44.765625 209.8125 C 48.421875 205.171875 53.273438 202.074219 58.949219 200.082031 C 59.125 200.023438 59.320312 200.007812 59.578125 199.957031 " fill-opacity="1" fill-rule="nonzero"/><g clip-path="url(#a845f4aab5)"><path fill="#88c0fa" d="M 67.941406 238.078125 C 66.421875 237.085938 65.910156 235.65625 65.957031 234.082031 C 66.011719 232.066406 67.015625 230.585938 68.589844 229.539062 C 70.367188 228.355469 72.433594 227.824219 74.671875 227.710938 C 77.535156 227.566406 80.429688 227.808594 83.324219 228.136719 C 86.625 228.507812 89.929688 228.910156 93.230469 229.375 C 97.800781 230.023438 102.371094 230.75 106.9375 231.433594 C 108.765625 231.703125 110.597656 231.921875 112.425781 232.191406 C 115.574219 232.660156 118.722656 233.148438 121.867188 233.628906 C 123.59375 233.890625 125.320312 234.179688 127.046875 234.417969 C 132.378906 235.152344 137.714844 235.816406 143.046875 236.605469 C 151.238281 237.820312 159.402344 238.328125 167.5625 238.804688 C 172.375 239.085938 177.171875 239.144531 181.957031 239.101562 C 186.636719 239.0625 191.292969 238.867188 195.921875 238.519531 C 211.414062 237.371094 225.90625 233.636719 239.195312 226.835938 C 244.113281 224.316406 248.683594 221.304688 252.78125 217.691406 C 257.703125 213.355469 261.554688 208.179688 263.964844 201.9375 C 265.359375 198.324219 266.125 194.511719 266.117188 190.46875 C 266.109375 188.710938 265.890625 186.953125 265.347656 185.203125 C 265.273438 184.960938 265.207031 184.722656 265.148438 184.523438 C 265.484375 184.132812 265.871094 184.140625 266.289062 184.257812 C 267.265625 184.535156 268.132812 185.046875 268.910156 185.730469 C 269.808594 186.519531 270.535156 187.4375 271.082031 188.480469 C 271.777344 189.804688 272.25 191.171875 272.480469 192.597656 C 273.023438 195.972656 272.78125 199.207031 271.921875 202.328125 C 270.3125 208.175781 267.335938 213.15625 263.34375 217.484375 C 259.394531 221.753906 254.707031 225.136719 249.589844 227.984375 C 241.035156 232.746094 231.851562 236.257812 222.207031 238.875 C 214.648438 240.925781 206.863281 242.183594 198.929688 242.960938 C 194.867188 243.359375 190.75 243.480469 186.636719 243.582031 C 184.476562 243.636719 182.320312 243.71875 180.164062 243.769531 C 174.535156 243.90625 168.878906 243.804688 163.195312 243.410156 C 158.121094 243.054688 153.046875 242.710938 147.96875 242.207031 C 143.097656 241.722656 138.21875 241.070312 133.339844 240.445312 C 129.632812 239.972656 125.925781 239.4375 122.21875 238.921875 C 116.988281 238.195312 111.753906 237.4375 106.523438 236.742188 C 99.460938 235.800781 92.398438 234.816406 85.347656 234.5 C 81.851562 234.34375 78.390625 234.433594 75.007812 234.960938 C 73.535156 235.191406 72.101562 235.542969 70.832031 236.222656 C 69.871094 236.738281 69 237.390625 67.941406 238.078125 " fill-opacity="1" fill-rule="nonzero"/></g><path fill="#88c0fa" d="M 232.125 112.089844 C 232.808594 111.867188 233.132812 111.394531 233.410156 110.90625 C 233.902344 110.039062 234.390625 109.164062 234.789062 108.242188 C 235.515625 106.578125 236.234375 104.902344 236.859375 103.1875 C 238.765625 97.945312 240.644531 92.691406 242.488281 87.421875 C 242.808594 86.511719 243.339844 85.976562 244.304688 85.820312 C 245.433594 85.640625 246.574219 85.535156 247.75 85.730469 C 248.300781 85.820312 248.871094 85.984375 249.382812 86.234375 C 250.308594 86.691406 250.894531 87.445312 250.949219 88.453125 C 250.988281 89.152344 250.996094 89.859375 250.894531 90.535156 C 250.550781 92.8125 250.113281 95.066406 249.785156 97.351562 C 249.5625 98.902344 249.464844 100.488281 249.320312 102.0625 C 249.304688 102.226562 249.351562 102.40625 249.386719 102.742188 C 249.90625 102.183594 249.933594 101.566406 250.097656 101.03125 C 251.40625 96.8125 253.195312 92.859375 255.503906 89.1875 C 256.460938 87.652344 257.539062 86.214844 258.785156 84.914062 C 260.003906 83.636719 261.394531 82.578125 263.089844 81.929688 C 264.863281 81.253906 266.671875 81.34375 268.523438 82.363281 C 270.238281 83.304688 271.203125 84.660156 271.128906 86.523438 C 271.09375 87.414062 270.992188 88.304688 270.800781 89.152344 C 270.109375 92.242188 269.367188 95.308594 268.652344 98.386719 C 267.714844 102.417969 266.90625 106.488281 266.574219 110.683594 C 266.308594 114 266.378906 117.355469 267.269531 120.742188 C 267.4375 121.386719 267.683594 122.027344 267.957031 122.648438 C 268.144531 123.074219 268.398438 123.496094 268.6875 123.875 C 269.707031 125.21875 270.949219 125.496094 272.117188 124.59375 C 272.636719 124.195312 273.125 123.707031 273.457031 123.148438 C 274.070312 122.132812 274.660156 121.085938 275.070312 119.96875 C 276.269531 116.726562 276.738281 113.289062 276.382812 109.65625 C 276.304688 108.847656 276.191406 108.050781 275.726562 107.28125 C 275.40625 107.261719 275.105469 107.273438 274.808594 107.210938 C 274.101562 107.054688 273.675781 106.335938 273.875 105.675781 C 274.035156 105.136719 274.398438 104.773438 274.882812 104.53125 C 276.535156 103.710938 278.238281 103.890625 279.941406 105.011719 C 281.242188 105.867188 282.117188 107.070312 282.640625 108.484375 C 283.222656 110.070312 283.511719 111.679688 283.453125 113.285156 C 283.335938 116.351562 282.667969 119.222656 281.328125 121.851562 C 280.148438 124.15625 278.40625 125.917969 276.179688 127.214844 C 274.800781 128.019531 273.261719 128.480469 271.59375 128.566406 C 268 128.757812 263.980469 126.832031 261.761719 123.035156 C 260.4375 120.761719 259.621094 118.363281 259.136719 115.878906 C 258.425781 112.230469 258.445312 108.640625 258.691406 105.070312 C 259.089844 99.210938 260.371094 93.628906 262.144531 88.199219 C 262.289062 87.753906 262.410156 87.300781 262.644531 86.515625 C 262.140625 86.917969 261.878906 87.085938 261.671875 87.300781 C 260.019531 89.011719 258.675781 90.960938 257.558594 93.074219 C 255.003906 97.898438 253.140625 103.035156 252.058594 108.527344 C 251.839844 109.628906 251.621094 110.730469 251.429688 111.839844 C 250.988281 114.382812 249.5 114.375 247.773438 113.976562 C 245.761719 113.519531 244.269531 112.3125 243.25 110.476562 C 242.457031 109.058594 242.105469 107.550781 241.972656 106.039062 C 241.839844 104.53125 241.851562 103.03125 241.804688 101.53125 C 241.796875 101.199219 241.808594 100.871094 241.8125 100.449219 C 241.257812 100.769531 241.226562 101.304688 241.054688 101.730469 C 240.171875 103.90625 239.335938 106.109375 238.441406 108.277344 C 238.003906 109.339844 237.507812 110.378906 236.984375 111.394531 C 236.570312 112.195312 236.117188 112.984375 235.597656 113.714844 C 234.222656 115.648438 232.140625 116.152344 229.667969 115.222656 C 226.976562 114.210938 225.414062 112.292969 224.816406 109.59375 C 224.378906 107.621094 224.300781 105.667969 224.320312 103.71875 C 224.359375 99.773438 224.785156 95.902344 225.171875 92.023438 C 225.324219 90.492188 225.421875 88.960938 225.125 87.390625 C 224.980469 86.621094 225.230469 86.152344 225.902344 85.882812 C 227.085938 85.414062 228.328125 85.160156 229.679688 85.324219 C 231.699219 85.570312 233.089844 86.777344 233.511719 88.769531 C 233.683594 89.605469 233.734375 90.492188 233.652344 91.3125 C 233.429688 93.519531 233.121094 95.707031 232.8125 97.894531 C 232.300781 101.492188 231.742188 105.078125 231.609375 108.761719 C 231.585938 109.40625 231.585938 110.054688 231.601562 110.707031 C 231.609375 111.164062 231.703125 111.613281 232.125 112.089844 " fill-opacity="1" fill-rule="nonzero"/><path fill="#88c0fa" d="M 71.3125 200.777344 C 71.128906 199.328125 71.382812 198.027344 71.355469 196.632812 C 71.695312 196.53125 72 196.398438 72.328125 196.347656 C 76.277344 195.703125 80.238281 195.105469 84.296875 194.9375 C 89.054688 194.738281 93.800781 194.472656 98.578125 194.425781 C 102.351562 194.386719 106.15625 194.570312 109.953125 194.777344 C 118.976562 195.273438 128.015625 196.164062 137.054688 196.988281 C 145.328125 197.742188 153.605469 198.4375 161.859375 198.757812 C 167.578125 198.980469 173.265625 198.953125 178.914062 198.617188 C 185.054688 198.246094 191.167969 197.777344 197.179688 196.847656 C 202.023438 196.097656 206.753906 195.039062 211.25 193.339844 C 213.964844 192.3125 216.5625 191.074219 219.03125 189.617188 C 221.179688 188.351562 223.15625 186.886719 224.753906 184.984375 C 224.875 184.84375 225.027344 184.730469 225.230469 184.554688 C 225.539062 184.757812 225.878906 184.914062 226.132812 185.160156 C 227.183594 186.179688 227.714844 187.429688 227.921875 188.769531 C 228.320312 191.347656 227.824219 193.625 226.3125 195.542969 C 225.363281 196.746094 224.1875 197.6875 222.816406 198.40625 C 219.574219 200.109375 216.070312 201.25 212.425781 202.0625 C 207.101562 203.246094 201.65625 203.960938 196.113281 204.335938 C 188.128906 204.878906 180.0625 204.867188 171.96875 204.539062 C 165.792969 204.292969 159.59375 203.746094 153.410156 203.316406 C 150.871094 203.140625 148.335938 202.980469 145.796875 202.722656 C 138.789062 202 131.78125 201.207031 124.773438 200.480469 C 117.304688 199.707031 109.835938 198.898438 102.410156 198.84375 C 97.367188 198.808594 92.316406 198.773438 87.316406 198.984375 C 83.71875 199.136719 80.1875 199.679688 76.636719 200.085938 C 75.207031 200.25 73.808594 200.53125 72.390625 200.742188 C 72.066406 200.789062 71.722656 200.765625 71.3125 200.777344 " fill-opacity="1" fill-rule="nonzero"/><path fill="#88c0fa" d="M 261.929688 157.101562 C 262.144531 156.925781 262.359375 156.753906 262.570312 156.578125 C 263.507812 155.789062 265.160156 156.410156 265.65625 157.824219 C 266.027344 158.890625 265.816406 159.8125 265.164062 160.589844 C 264.027344 161.941406 261.925781 162.324219 259.964844 161.550781 C 257.480469 160.566406 255.789062 158.289062 255.578125 155.648438 C 255.5 154.679688 255.625 153.753906 255.890625 152.871094 C 257.046875 148.976562 259.753906 146.769531 263.800781 146.082031 C 268.628906 145.261719 273.511719 147.65625 276.28125 152.195312 C 277.523438 154.222656 278.210938 156.378906 278.492188 158.625 C 278.960938 162.332031 278.390625 165.769531 277.070312 169.023438 C 274.574219 175.210938 270.078125 179.417969 263.992188 182.046875 C 262.539062 182.671875 261.011719 183.148438 259.332031 183.285156 C 258.910156 182.679688 259.058594 182.078125 258.992188 181.496094 C 258.921875 180.898438 258.917969 180.304688 258.882812 179.726562 C 259.039062 179.617188 259.136719 179.5 259.269531 179.460938 C 261.742188 178.785156 263.648438 177.316406 265.332031 175.5625 C 267.746094 173.046875 269.539062 170.09375 270.609375 166.6875 C 271.632812 163.4375 271.679688 160.035156 270.742188 156.507812 C 270.40625 155.25 269.875 154.054688 269.105469 152.945312 C 268.363281 151.871094 267.441406 150.992188 266.265625 150.414062 C 264.203125 149.394531 262.242188 149.90625 261.265625 151.710938 C 260.316406 153.464844 260.539062 155.398438 261.929688 157.101562 " fill-opacity="1" fill-rule="nonzero"/><path fill="#88c0fa" d="M 280.28125 182.433594 C 281.222656 182.269531 282.0625 182.40625 282.910156 182.746094 C 285.21875 183.671875 286.960938 185.277344 288.28125 187.367188 C 289.488281 189.28125 290.234375 191.332031 290.703125 193.453125 C 291.664062 197.804688 291.429688 201.980469 290.285156 205.996094 C 288.085938 213.726562 283.9375 220.066406 277.71875 224.914062 C 275.84375 226.375 273.871094 227.6875 271.597656 228.5625 C 270.242188 229.085938 268.835938 229.476562 267.34375 229.628906 C 267.15625 229.648438 266.957031 229.621094 266.609375 229.613281 C 266.722656 229.355469 266.753906 229.171875 266.859375 229.066406 C 267.089844 228.832031 267.359375 228.632812 267.621094 228.429688 C 270.214844 226.421875 272.523438 224.121094 274.625 221.625 C 278.5 217.027344 280.902344 211.597656 282.230469 205.578125 C 283.117188 201.566406 283.417969 197.429688 283.023438 193.171875 C 282.707031 189.722656 281.824219 186.351562 280.433594 183.042969 C 280.375 182.902344 280.359375 182.746094 280.28125 182.433594 " fill-opacity="1" fill-rule="nonzero"/><path fill="#88c0fa" d="M 133.753906 229.820312 C 134.640625 229.484375 135.082031 228.820312 135.390625 228.054688 C 135.554688 227.660156 135.660156 227.226562 135.722656 226.792969 C 136.070312 224.40625 136.140625 221.96875 136.058594 219.507812 C 136.054688 219.425781 135.964844 219.335938 135.914062 219.246094 C 135.589844 219.191406 135.679688 219.484375 135.621094 219.632812 C 135.222656 220.609375 134.925781 221.640625 134.433594 222.554688 C 133.46875 224.347656 131.996094 224.796875 129.890625 224.082031 C 128.125 223.480469 126.835938 222.359375 126.25 220.566406 C 125.976562 219.730469 125.722656 218.875 125.59375 218.027344 C 125.363281 216.46875 125.179688 214.902344 125.0625 213.347656 C 124.855469 210.628906 124.710938 207.917969 124.539062 205.203125 C 124.527344 205 124.503906 204.800781 124.507812 204.601562 C 124.511719 204.203125 124.734375 203.96875 125.105469 203.902344 C 125.394531 203.847656 125.699219 203.8125 126 203.851562 C 126.859375 203.964844 127.726562 204.085938 128.582031 204.273438 C 129.640625 204.5 130.382812 205.171875 130.730469 206.203125 C 130.910156 206.738281 131.054688 207.304688 131.078125 207.84375 C 131.179688 210.203125 131.226562 212.554688 131.292969 214.910156 C 131.335938 216.414062 131.367188 217.917969 131.421875 219.421875 C 131.441406 219.859375 131.480469 220.316406 131.984375 220.679688 C 132.539062 220.464844 132.75 219.980469 132.898438 219.476562 C 133.179688 218.503906 133.441406 217.519531 133.667969 216.523438 C 134.339844 213.527344 134.765625 210.460938 134.953125 207.339844 C 135.042969 205.820312 135.4375 205.339844 137.226562 205.5 C 137.984375 205.566406 138.746094 205.738281 139.503906 205.910156 C 140.167969 206.0625 140.613281 206.523438 140.824219 207.167969 C 140.96875 207.609375 141.105469 208.066406 141.148438 208.511719 C 141.316406 210.222656 141.5 211.9375 141.574219 213.640625 C 141.683594 216.148438 141.722656 218.652344 141.746094 221.15625 C 141.761719 223.058594 141.597656 224.929688 141.21875 226.75 C 140.796875 228.769531 139.800781 230.40625 138.1875 231.617188 C 136.886719 232.59375 135.382812 233.066406 133.628906 232.839844 C 132.820312 232.738281 132.003906 232.574219 131.207031 232.347656 C 130.230469 232.074219 129.378906 231.523438 128.679688 230.734375 C 127.855469 229.800781 127.445312 228.757812 127.535156 227.605469 C 127.601562 226.730469 128.03125 226.265625 128.921875 226.253906 C 129.722656 226.242188 130.542969 226.347656 131.355469 226.421875 C 131.6875 226.453125 131.9375 226.691406 132.054688 226.996094 C 132.226562 227.433594 132.332031 227.890625 132.496094 228.328125 C 132.71875 228.925781 133.003906 229.488281 133.753906 229.820312 " fill-opacity="1" fill-rule="nonzero"/><path fill="#88c0fa" d="M 109.144531 205.730469 C 109.109375 206.0625 109.054688 206.292969 109.0625 206.527344 C 109.082031 207.230469 109.117188 207.929688 109.15625 208.632812 C 109.414062 213.695312 109.667969 218.757812 109.941406 223.820312 C 109.960938 224.25 109.835938 224.714844 110.222656 225.113281 C 111.152344 224.964844 111.300781 224.898438 111.828125 224.320312 C 112.578125 223.503906 112.984375 222.484375 113.285156 221.40625 C 113.671875 220 113.867188 218.535156 113.871094 217.039062 C 113.875 214.113281 113.378906 211.222656 111.972656 208.421875 C 111.515625 207.511719 110.953125 206.679688 110.0625 206.109375 C 109.8125 205.949219 109.511719 205.878906 109.144531 205.730469 Z M 103.207031 214.996094 C 103.019531 211.578125 102.828125 208.164062 102.644531 204.746094 C 102.554688 203.023438 102.816406 202.726562 104.554688 202.507812 C 106.992188 202.203125 109.453125 202.308594 111.949219 203.015625 C 114.679688 203.792969 116.726562 205.453125 118.140625 207.960938 C 119.035156 209.550781 119.585938 211.210938 119.871094 212.941406 C 120.335938 215.742188 120.261719 218.460938 119.664062 221.097656 C 119.28125 222.78125 118.5625 224.28125 117.496094 225.578125 C 115.851562 227.59375 113.648438 228.613281 110.859375 228.527344 C 109.242188 228.476562 107.617188 228.429688 105.996094 227.964844 C 105.601562 227.851562 105.199219 227.714844 104.828125 227.519531 C 104.273438 227.226562 103.933594 226.757812 103.871094 226.148438 C 103.832031 225.746094 103.808594 225.34375 103.789062 224.941406 C 103.605469 221.625 103.421875 218.3125 103.238281 214.996094 L 103.207031 214.996094 " fill-opacity="1" fill-rule="nonzero"/><path fill="#88c0fa" d="M 165.902344 218.035156 C 166.046875 220.613281 166.144531 223.027344 166.324219 225.441406 C 166.414062 226.644531 166.625 227.855469 166.828125 229.0625 C 166.96875 229.871094 167.210938 230.664062 167.828125 231.332031 C 168.472656 232.03125 169.105469 232.074219 169.617188 231.425781 C 170.136719 230.777344 170.335938 229.972656 170.390625 229.125 C 170.46875 227.886719 170.542969 226.648438 170.53125 225.398438 C 170.472656 220.34375 170.378906 215.285156 170.300781 210.230469 C 170.292969 209.980469 170.28125 209.726562 170.3125 209.484375 C 170.390625 208.84375 170.691406 208.492188 171.332031 208.476562 C 172.488281 208.453125 173.648438 208.460938 174.8125 208.542969 C 175.605469 208.597656 175.9375 208.964844 175.984375 209.75 C 176.0625 210.953125 176.09375 212.160156 176.113281 213.359375 C 176.183594 217.265625 176.25 221.171875 176.296875 225.074219 C 176.320312 226.832031 176.058594 228.53125 175.664062 230.191406 C 175.414062 231.238281 175.015625 232.210938 174.457031 233.101562 C 171.667969 237.59375 165.425781 236.210938 162.804688 232.03125 C 161.976562 230.710938 161.410156 229.300781 161.027344 227.847656 C 160.539062 226 160.191406 224.136719 160.078125 222.269531 C 159.8125 217.949219 159.578125 213.628906 159.332031 209.304688 C 159.316406 209.003906 159.292969 208.699219 159.3125 208.40625 C 159.34375 207.804688 159.601562 207.5 160.238281 207.535156 C 161.707031 207.613281 163.179688 207.730469 164.652344 207.898438 C 165.347656 207.972656 165.65625 208.335938 165.75 209.039062 C 165.816406 209.542969 165.820312 210.046875 165.828125 210.546875 C 165.859375 213.097656 165.882812 215.648438 165.902344 218.035156 " fill-opacity="1" fill-rule="nonzero"/><path fill="#88c0fa" d="M 214.664062 217.214844 C 214.949219 217.234375 215.070312 217.277344 215.136719 217.238281 C 215.296875 217.148438 215.460938 217.039062 215.582031 216.902344 C 217.285156 215.003906 217.476562 212.695312 216.570312 210.121094 C 216.324219 209.414062 215.820312 208.84375 215.117188 208.492188 C 214.777344 208.324219 214.429688 208.226562 213.992188 208.570312 C 214.1875 211.355469 214.449219 214.257812 214.664062 217.214844 Z M 215.59375 227.976562 C 217.820312 227.554688 219.519531 225.941406 219.984375 223.917969 C 220.230469 222.835938 220.109375 221.753906 219.660156 220.671875 C 219.441406 220.148438 219.195312 219.609375 218.652344 219.398438 C 217.414062 220.007812 216.226562 220.59375 215.019531 221.191406 C 214.96875 222.566406 215.300781 226.648438 215.59375 227.976562 Z M 220.871094 216.332031 C 221.230469 216.507812 221.417969 216.597656 221.605469 216.6875 C 223.628906 217.675781 224.640625 219.316406 224.9375 221.378906 C 225.160156 222.921875 224.945312 224.367188 224.359375 225.710938 C 223.539062 227.605469 222.222656 229.058594 220.460938 230.101562 C 217.855469 231.640625 214.894531 232.253906 211.75 232.351562 C 211.457031 232.359375 211.136719 232.296875 210.847656 232.199219 C 210.363281 232.03125 210.03125 231.703125 209.988281 231.171875 C 209.960938 230.820312 209.9375 230.46875 209.917969 230.117188 C 209.523438 223.285156 209.128906 216.457031 208.738281 209.625 C 208.730469 209.527344 208.738281 209.425781 208.71875 209.324219 C 208.394531 207.761719 209.132812 206.933594 210.4375 206.410156 C 212.402344 205.625 214.414062 205.144531 216.691406 205.734375 C 219.050781 206.34375 220.5625 207.808594 221.292969 210.117188 C 221.808594 211.761719 221.6875 213.320312 221.289062 214.84375 C 221.167969 215.304688 221.03125 215.757812 220.871094 216.332031 " fill-opacity="1" fill-rule="nonzero"/><path fill="#88c0fa" d="M 90.539062 215.484375 C 90.707031 218.574219 90.863281 221.386719 91.015625 224.195312 C 91.035156 224.546875 91.074219 224.902344 91.0625 225.25 C 91.050781 225.6875 90.8125 225.992188 90.414062 226.105469 C 89.675781 226.3125 88.921875 226.203125 88.199219 225.765625 C 87.761719 225.503906 87.507812 225.09375 87.4375 224.613281 C 87.382812 224.210938 87.363281 223.808594 87.34375 223.40625 C 87.019531 217.128906 86.699219 210.847656 86.378906 204.570312 C 86.363281 204.21875 86.328125 203.863281 86.34375 203.519531 C 86.382812 202.773438 86.769531 202.304688 87.511719 202.308594 C 88.363281 202.308594 89.234375 202.390625 90.089844 202.558594 C 90.996094 202.742188 91.71875 203.34375 92.1875 204.164062 C 92.628906 204.945312 93.035156 205.75 93.367188 206.574219 C 94.679688 209.820312 95.957031 213.082031 97.253906 216.335938 C 97.425781 216.765625 97.613281 217.1875 97.792969 217.601562 C 98.351562 217.515625 98.117188 217.121094 98.101562 216.882812 C 97.902344 212.765625 97.679688 208.644531 97.46875 204.527344 C 97.441406 204.074219 97.410156 203.621094 97.425781 203.175781 C 97.441406 202.6875 97.660156 202.394531 98.109375 202.402344 C 98.808594 202.414062 99.523438 202.46875 100.222656 202.601562 C 100.71875 202.699219 101.035156 203.09375 101.089844 203.613281 C 101.128906 204.019531 101.152344 204.421875 101.171875 204.820312 C 101.472656 211.796875 101.773438 218.777344 102.070312 225.75 C 102.128906 227.175781 101.773438 227.507812 100.371094 227.417969 C 98.214844 227.285156 96.460938 226.378906 95.367188 224.324219 C 94.078125 221.898438 92.835938 219.453125 91.5625 217.019531 C 91.332031 216.570312 91.222656 216.050781 90.539062 215.484375 " fill-opacity="1" fill-rule="nonzero"/><path fill="#88c0fa" d="M 153.410156 221.394531 C 153.367188 221.390625 153.328125 221.382812 153.285156 221.378906 C 153.214844 220.074219 153.191406 218.769531 153.058594 217.460938 C 152.863281 215.550781 152.625 213.628906 151.925781 211.753906 C 151.730469 211.226562 151.464844 210.699219 151.132812 210.222656 C 150.757812 209.683594 150.238281 209.671875 149.867188 210.121094 C 149.308594 210.800781 149.089844 211.65625 148.960938 212.523438 C 148.757812 213.882812 148.613281 215.253906 148.507812 216.636719 C 148.269531 219.714844 148.617188 222.835938 149.097656 225.960938 C 149.277344 227.113281 149.609375 228.261719 149.929688 229.40625 C 150.082031 229.945312 150.328125 230.484375 150.800781 230.890625 C 151.15625 231.199219 151.621094 231.25 151.898438 230.96875 C 152.09375 230.765625 152.304688 230.542969 152.394531 230.28125 C 152.667969 229.464844 153.023438 228.648438 153.097656 227.78125 C 153.277344 225.667969 153.3125 223.527344 153.410156 221.394531 Z M 143.234375 220.203125 C 143.019531 217.429688 143.007812 214.6875 143.730469 212.082031 C 144.148438 210.570312 144.777344 209.191406 145.824219 208.058594 C 146.855469 206.941406 148.128906 206.289062 149.785156 206.257812 C 151.640625 206.21875 153.195312 206.910156 154.507812 208.355469 C 155.992188 209.992188 156.914062 211.886719 157.425781 213.90625 C 158.695312 218.917969 158.996094 223.855469 157.910156 228.652344 C 157.628906 229.890625 157.230469 231.078125 156.546875 232.121094 C 154.46875 235.304688 149.785156 235.296875 146.882812 232.101562 C 145.855469 230.96875 145.148438 229.675781 144.628906 228.296875 C 143.976562 226.578125 143.507812 224.839844 143.390625 223.0625 C 143.328125 222.109375 143.285156 221.15625 143.234375 220.203125 " fill-opacity="1" fill-rule="nonzero"/><path fill="#88c0fa" d="M 78.707031 205.90625 C 78.003906 206.109375 77.8125 206.5625 77.59375 206.964844 C 76.394531 209.171875 76.027344 211.6875 75.746094 214.230469 C 75.683594 214.796875 75.566406 215.367188 75.820312 216.042969 C 77.007812 216.058594 78.167969 216.390625 79.265625 216.027344 C 79.082031 212.667969 78.898438 209.371094 78.707031 205.90625 Z M 79.527344 219.46875 C 78.121094 219.167969 76.933594 219.214844 75.664062 219.171875 C 75.601562 219.542969 75.503906 219.863281 75.5 220.191406 C 75.492188 221.242188 75.535156 222.292969 75.519531 223.339844 C 75.503906 224.117188 75.25 224.363281 74.484375 224.472656 C 74.335938 224.496094 74.191406 224.515625 74.039062 224.519531 C 72.660156 224.570312 71.890625 223.910156 71.785156 222.53125 C 71.472656 218.433594 71.699219 214.4375 72.535156 210.550781 C 72.855469 209.066406 73.265625 207.628906 73.9375 206.304688 C 75.195312 203.820312 77.285156 202.378906 80.097656 201.871094 C 81.289062 201.65625 82.503906 201.789062 83.703125 202.28125 C 84.648438 202.667969 84.914062 203.050781 85.003906 204.046875 C 85.027344 204.347656 85.039062 204.648438 85.054688 204.949219 C 85.324219 210.921875 85.59375 216.894531 85.867188 222.867188 C 85.882812 223.21875 85.90625 223.574219 85.902344 223.921875 C 85.886719 224.9375 85.527344 225.34375 84.472656 225.316406 C 83.414062 225.289062 82.339844 225.183594 81.277344 225.023438 C 80.160156 224.851562 79.832031 224.472656 79.75 223.386719 C 79.652344 222.132812 79.605469 220.882812 79.527344 219.46875 " fill-opacity="1" fill-rule="nonzero"/><path fill="#88c0fa" d="M 233.550781 199.207031 C 234.210938 200.257812 234.90625 201.363281 235.625 202.507812 C 234.816406 203.09375 233.878906 203.238281 233.027344 203.554688 C 232.171875 203.875 231.292969 204.140625 230.460938 204.417969 C 230.324219 205.886719 230.59375 210.101562 230.902344 211.261719 C 231.136719 211.226562 231.382812 211.210938 231.605469 211.148438 C 232.164062 210.984375 232.707031 210.777344 233.273438 210.625 C 234.203125 210.375 234.609375 210.660156 234.6875 211.660156 C 234.882812 214.222656 234.882812 214.320312 232.683594 215.191406 C 232.148438 215.402344 231.621094 215.625 231.125 215.828125 C 230.976562 217.246094 231.15625 220.121094 231.476562 221.320312 C 231.796875 221.191406 232.109375 221.089844 232.394531 220.945312 C 233.917969 220.152344 235.4375 219.339844 236.964844 218.550781 C 237.335938 218.359375 237.660156 218.035156 238.214844 218.175781 C 238.289062 218.289062 238.433594 218.414062 238.445312 218.535156 C 238.550781 219.640625 238.644531 220.742188 238.71875 221.84375 C 238.742188 222.214844 238.570312 222.5 238.265625 222.6875 C 237.976562 222.859375 237.707031 223.054688 237.414062 223.210938 C 235.429688 224.257812 233.445312 225.3125 231.445312 226.328125 C 230.894531 226.609375 230.289062 226.808594 229.683594 226.988281 C 228.902344 227.21875 228.105469 227.105469 227.3125 226.683594 C 226.5 226.25 225.980469 225.675781 225.964844 224.730469 C 225.945312 223.628906 225.851562 222.523438 225.789062 221.417969 C 225.46875 215.699219 225.148438 209.980469 224.828125 204.257812 C 224.8125 203.957031 224.816406 203.65625 224.773438 203.355469 C 224.644531 202.4375 224.960938 201.824219 225.816406 201.546875 C 228.257812 200.753906 230.695312 199.949219 233.140625 199.160156 C 233.222656 199.132812 233.339844 199.179688 233.550781 199.207031 " fill-opacity="1" fill-rule="nonzero"/><path fill="#88c0fa" d="M 189.113281 230.996094 C 189.65625 230.933594 190.191406 230.875 190.722656 230.816406 C 191.167969 230.765625 191.609375 230.691406 192.054688 230.667969 C 193.339844 230.605469 193.675781 230.90625 193.863281 232.226562 C 193.886719 232.378906 193.894531 232.53125 193.902344 232.679688 C 194.027344 234.542969 193.464844 234.589844 192.339844 234.761719 C 190.234375 235.082031 188.101562 235.265625 185.921875 235.1875 C 185.421875 235.171875 184.902344 235.105469 184.402344 234.972656 C 183.613281 234.761719 183.144531 234.214844 183.015625 233.421875 C 182.953125 233.070312 182.949219 232.71875 182.929688 232.367188 C 182.515625 225.132812 182.105469 217.894531 181.695312 210.660156 C 181.6875 210.558594 181.6875 210.457031 181.675781 210.359375 C 181.566406 209.171875 181.554688 208.480469 183.378906 208.511719 C 184.285156 208.527344 185.199219 208.550781 186.109375 208.636719 C 187.085938 208.734375 187.484375 209.160156 187.601562 210.136719 C 187.648438 210.539062 187.65625 210.941406 187.679688 211.34375 C 188.039062 217.273438 188.390625 223.203125 188.757812 229.136719 C 188.796875 229.71875 188.710938 230.324219 189.113281 230.996094 " fill-opacity="1" fill-rule="nonzero"/><path fill="#88c0fa" d="M 200.011719 229.136719 C 200.761719 229.316406 201.28125 229.011719 201.835938 228.886719 C 202.554688 228.730469 203.238281 228.472656 203.953125 228.316406 C 204.566406 228.183594 204.949219 228.480469 205.003906 229.125 C 205.078125 229.980469 205.097656 230.828125 205.132812 231.679688 C 205.15625 232.25 204.851562 232.59375 204.367188 232.777344 C 204.007812 232.914062 203.625 233.003906 203.25 233.101562 C 201.601562 233.546875 199.898438 233.808594 198.175781 234.027344 C 195.992188 234.304688 194.628906 232.667969 194.519531 230.882812 C 194.503906 230.632812 194.488281 230.382812 194.472656 230.128906 C 194.085938 223.507812 193.703125 216.882812 193.316406 210.261719 C 193.222656 208.625 193.316406 208.5 194.953125 208.386719 C 195.796875 208.328125 196.652344 208.289062 197.507812 208.363281 C 198.433594 208.445312 198.773438 208.832031 198.917969 209.757812 C 198.972656 210.105469 198.988281 210.460938 199.003906 210.8125 C 199.289062 216.476562 199.570312 222.144531 199.859375 227.808594 C 199.882812 228.242188 199.957031 228.679688 200.011719 229.136719 " fill-opacity="1" fill-rule="nonzero"/><path fill="#88c0fa" d="M 39.792969 200.308594 C 38.316406 200.410156 37.101562 199.949219 35.917969 199.328125 C 34.636719 198.65625 33.480469 197.785156 32.4375 196.765625 C 28.71875 193.121094 26.234375 188.878906 25.207031 184 C 24.230469 179.363281 24.703125 174.996094 26.34375 170.890625 C 26.988281 169.28125 27.796875 167.773438 28.949219 166.492188 C 29.605469 165.757812 29.804688 165.621094 30.789062 165.214844 C 31.039062 165.636719 30.820312 165.988281 30.722656 166.328125 C 30.066406 168.613281 29.65625 170.972656 29.53125 173.40625 C 29.246094 178.972656 30.332031 184.433594 32.890625 189.78125 C 34.609375 193.371094 36.773438 196.699219 39.457031 199.738281 C 39.554688 199.847656 39.609375 199.996094 39.792969 200.308594 " fill-opacity="1" fill-rule="nonzero"/><path fill="#88c0fa" d="M 66.167969 146.433594 C 66.042969 145.597656 66.292969 145.066406 66.53125 144.566406 C 67.945312 141.609375 69.730469 138.945312 72.464844 137.078125 C 76.648438 134.21875 81.257812 134.078125 86.273438 136.769531 C 88.066406 137.730469 89.671875 138.980469 91.132812 140.421875 C 91.664062 140.945312 92.203125 141.457031 92.785156 142.023438 C 93.3125 141.757812 93.78125 141.527344 94.242188 141.292969 C 96.230469 140.28125 98.386719 139.714844 100.730469 139.65625 C 102.058594 139.621094 103.371094 139.878906 104.644531 140.4375 C 106.355469 141.1875 107.710938 142.355469 108.433594 144.128906 C 108.488281 144.261719 108.476562 144.410156 108.492188 144.554688 C 108.375 144.558594 108.257812 144.597656 108.203125 144.554688 C 105.84375 142.660156 103.265625 142.222656 100.625 142.652344 C 99.46875 142.84375 98.363281 143.25 97.269531 143.628906 C 96.402344 143.929688 95.589844 144.34375 94.746094 144.695312 C 94.300781 144.882812 93.855469 145.078125 93.394531 145.21875 C 92.261719 145.566406 91.25 145.253906 90.289062 144.339844 C 89.164062 143.265625 88 142.230469 86.816406 141.226562 C 85.582031 140.183594 84.222656 139.34375 82.753906 138.707031 C 80.742188 137.828125 78.761719 137.640625 76.789062 138.117188 C 74.902344 138.570312 73.273438 139.453125 71.785156 140.566406 C 69.761719 142.082031 67.9375 143.785156 66.609375 145.964844 C 66.539062 146.082031 66.421875 146.167969 66.167969 146.433594 " fill-opacity="1" fill-rule="nonzero"/><path fill="#88c0fa" d="M 234.4375 73.015625 C 234.285156 74.183594 234.105469 75.695312 233.882812 77.195312 C 233.683594 78.550781 233.441406 79.894531 233.214844 81.242188 C 233.179688 81.4375 233.144531 81.628906 233.089844 81.8125 C 232.828125 82.734375 232.339844 83.113281 231.367188 82.960938 C 230.5625 82.832031 229.75 82.628906 228.960938 82.359375 C 227.285156 81.777344 226.355469 80.5625 226.121094 78.886719 C 226.011719 78.085938 226 77.28125 225.992188 76.484375 C 225.980469 75.386719 226.015625 74.292969 226.03125 73.199219 C 226.042969 72.046875 225.96875 70.894531 225.46875 69.761719 C 225.171875 69.089844 225.371094 68.597656 225.878906 68.210938 C 227.554688 66.914062 230.492188 67.011719 232.417969 68.441406 C 233.464844 69.21875 234.113281 70.207031 234.273438 71.449219 C 234.324219 71.847656 234.355469 72.25 234.4375 73.015625 " fill-opacity="1" fill-rule="nonzero"/><path fill="#88c0fa" d="M 283.339844 177.363281 C 284.078125 176.28125 284.878906 175.246094 285.535156 174.117188 C 286.199219 172.96875 286.8125 171.769531 287.277344 170.515625 C 287.742188 169.257812 288.078125 167.929688 288.316406 166.589844 C 288.550781 165.242188 288.671875 163.855469 288.703125 162.464844 C 288.730469 161.125 288.675781 159.757812 288.488281 158.40625 C 288.296875 157.003906 287.996094 155.585938 287.570312 154.203125 C 287.144531 152.824219 286.570312 151.460938 285.949219 150.128906 C 285.328125 148.804688 284.566406 147.527344 283.855469 146.214844 C 284.023438 145.980469 284.203125 146.238281 284.339844 146.335938 C 287.261719 148.445312 289.304688 151.210938 290.695312 154.40625 C 292.25 157.976562 293.015625 161.621094 292.765625 165.304688 C 292.527344 168.777344 291.207031 171.710938 288.890625 174.082031 C 287.566406 175.441406 286.082031 176.621094 284.265625 177.363281 C 284.003906 177.46875 283.753906 177.632812 283.339844 177.363281 " fill-opacity="1" fill-rule="nonzero"/><path fill="#88c0fa" d="M 118.644531 96.730469 C 117.789062 96.535156 116.925781 96.390625 116.082031 96.132812 C 114.984375 95.792969 114.511719 95.183594 114.507812 94.070312 C 114.503906 93.074219 114.582031 92.085938 114.695312 91.113281 C 114.902344 89.34375 114.894531 87.5625 114.640625 85.738281 C 114.484375 84.609375 114.660156 84.355469 115.691406 84.011719 C 116.8125 83.640625 117.984375 83.511719 119.226562 83.746094 C 121.425781 84.160156 122.878906 85.789062 122.984375 87.960938 C 123.003906 88.410156 123.039062 88.878906 122.945312 89.296875 C 122.523438 91.140625 122.0625 92.96875 121.613281 94.804688 C 121.589844 94.898438 121.550781 94.984375 121.511719 95.070312 C 120.914062 96.484375 120.289062 96.832031 118.644531 96.730469 " fill-opacity="1" fill-rule="nonzero"/><path fill="#88c0fa" d="M 185.46875 78.578125 C 185.664062 77.753906 186.066406 77.410156 186.460938 77.113281 C 187.371094 76.429688 188.265625 75.710938 189.277344 75.179688 C 192.394531 73.546875 195.796875 72.761719 199.585938 73.296875 C 203.046875 73.785156 206.023438 75.324219 208.410156 78.164062 C 209.699219 79.695312 210.773438 81.328125 211.480469 83.15625 C 211.632812 83.542969 211.796875 83.925781 211.996094 84.410156 C 212.5 84.445312 213 84.472656 213.5 84.519531 C 215.253906 84.683594 216.949219 85.167969 218.527344 86.140625 C 219.0625 86.46875 219.535156 86.925781 220.015625 87.347656 C 220.148438 87.46875 220.199219 87.683594 220.390625 88.050781 C 219.972656 87.902344 219.738281 87.835938 219.515625 87.738281 C 216.574219 86.457031 213.625 86.050781 210.671875 86.554688 C 210.523438 86.578125 210.382812 86.621094 210.234375 86.628906 C 209.761719 86.667969 209.484375 86.496094 209.277344 85.996094 C 209.113281 85.609375 208.992188 85.210938 208.84375 84.820312 C 208.355469 83.546875 207.753906 82.320312 206.945312 81.179688 C 204.1875 77.277344 200.53125 75.476562 196.074219 75.578125 C 192.707031 75.65625 189.632812 76.53125 186.765625 77.949219 C 186.421875 78.117188 186.078125 78.28125 185.46875 78.578125 " fill-opacity="1" fill-rule="nonzero"/><path fill="#88c0fa" d="M 62.859375 90.621094 C 62.835938 88.679688 64.929688 85.511719 67.339844 83.683594 C 69.652344 81.929688 72.300781 80.867188 75.335938 80.546875 C 78.347656 80.222656 81.277344 81.003906 84.242188 82.324219 C 86.257812 78.871094 88.417969 75.613281 91.96875 73.339844 C 92.003906 73.984375 91.703125 74.234375 91.527344 74.539062 C 90.257812 76.710938 88.960938 78.867188 87.71875 81.0625 C 87.226562 81.925781 86.851562 82.867188 86.421875 83.773438 C 86.28125 84.074219 86.167969 84.398438 85.996094 84.679688 C 85.527344 85.457031 84.957031 85.617188 84.113281 85.070312 C 80.964844 83.019531 77.664062 82.722656 74.316406 82.96875 C 72.910156 83.074219 71.644531 83.5625 70.441406 84.179688 C 67.855469 85.507812 65.703125 87.339844 63.839844 89.511719 C 63.539062 89.859375 63.226562 90.207031 62.859375 90.621094 " fill-opacity="1" fill-rule="nonzero"/><path fill="#88c0fa" d="M 270.320312 234.679688 C 271.25 236.636719 271.183594 238.894531 270.203125 240.226562 C 269.589844 241.058594 268.722656 241.558594 267.628906 241.613281 C 266.835938 241.65625 266.019531 241.652344 265.21875 241.523438 C 261.445312 240.933594 258.09375 239.292969 255.265625 236.4375 C 254.9375 236.105469 254.535156 235.800781 254.492188 235.292969 C 254.699219 234.96875 255.039062 235.15625 255.296875 235.214844 C 257.628906 235.730469 259.949219 235.855469 262.265625 235.914062 C 264.804688 235.976562 267.253906 235.703125 269.554688 234.867188 C 269.773438 234.785156 270.015625 234.753906 270.320312 234.679688 " fill-opacity="1" fill-rule="nonzero"/><path fill="#88c0fa" d="M 25.421875 202.046875 C 29.617188 204.699219 34.0625 206.6875 38.914062 206.96875 C 39.238281 207.3125 39.097656 207.574219 38.859375 207.746094 C 38.398438 208.074219 37.925781 208.398438 37.410156 208.644531 C 35.75 209.449219 33.902344 209.773438 32.015625 209.957031 C 31.175781 210.039062 30.316406 210.078125 29.460938 210.015625 C 28.761719 209.964844 28.042969 209.777344 27.351562 209.5625 C 26.644531 209.335938 26.015625 208.890625 25.550781 208.277344 C 24.304688 206.636719 23.867188 204.90625 24.433594 203.101562 C 24.578125 202.640625 24.804688 202.207031 25.421875 202.046875 " fill-opacity="1" fill-rule="nonzero"/><path fill="#88c0fa" d="M 124.441406 76.5625 C 126.140625 75.964844 127.632812 76.519531 128.992188 77.734375 C 129.839844 78.492188 130.46875 79.421875 131.054688 80.375 C 131.386719 80.910156 131.621094 81.503906 132.136719 81.972656 C 136.410156 80.839844 140.726562 80.632812 145.28125 82.851562 C 145.449219 82.640625 145.640625 82.390625 145.84375 82.148438 C 146.535156 81.3125 147.164062 80.410156 147.941406 79.664062 C 149.316406 78.351562 151.070312 77.707031 153.085938 77.605469 C 153.730469 77.574219 154.355469 77.648438 155.121094 78.148438 C 154.757812 78.265625 154.550781 78.367188 154.320312 78.394531 C 151.234375 78.800781 149.066406 80.445312 147.515625 82.917969 C 147.164062 83.480469 146.894531 84.09375 146.554688 84.664062 C 146.253906 85.179688 145.90625 85.277344 145.296875 85.0625 C 145.050781 84.972656 144.8125 84.855469 144.574219 84.734375 C 141.445312 83.167969 138.3125 82.949219 135.179688 83.546875 C 134.601562 83.65625 134.042969 83.832031 133.46875 83.964844 C 133.089844 84.050781 132.707031 84.144531 132.308594 84.171875 C 131.445312 84.238281 130.980469 83.984375 130.527344 83.183594 C 130.164062 82.542969 129.867188 81.863281 129.507812 81.21875 C 129.015625 80.339844 128.523438 79.464844 127.976562 78.617188 C 127.238281 77.472656 126.234375 76.75 124.875 76.695312 C 124.734375 76.6875 124.585938 76.609375 124.441406 76.5625 " fill-opacity="1" fill-rule="nonzero"/><path fill="#88c0fa" d="M 176.636719 126.792969 C 179.164062 126.050781 181.523438 126.835938 183.808594 128.242188 C 186.121094 129.660156 187.742188 131.667969 188.886719 134.058594 C 189.664062 134.113281 190.367188 134.144531 191.070312 134.21875 C 193.828125 134.492188 196.382812 135.488281 198.722656 137.230469 C 198.890625 137.355469 199.046875 137.511719 199.183594 137.667969 C 199.242188 137.738281 199.242188 137.855469 199.296875 138.042969 C 198.730469 137.902344 198.195312 137.792969 197.664062 137.640625 C 194.414062 136.707031 191.203125 136.433594 188.039062 136.992188 C 187.796875 137.03125 187.550781 137.0625 187.300781 137.066406 C 186.742188 137.070312 186.292969 136.816406 186.019531 136.296875 C 185.75 135.785156 185.523438 135.253906 185.285156 134.730469 C 184.589844 133.1875 183.671875 131.769531 182.484375 130.503906 C 181.09375 129.027344 179.457031 127.96875 177.628906 127.214844 C 177.296875 127.078125 176.96875 126.933594 176.636719 126.792969 " fill-opacity="1" fill-rule="nonzero"/><path fill="#88c0fa" d="M 37.304688 240.671875 C 37.128906 240.601562 36.933594 240.558594 36.773438 240.457031 C 35.832031 239.84375 34.957031 239.132812 34.214844 238.277344 C 31.46875 235.105469 29.414062 231.640625 28.601562 227.648438 C 27.929688 224.335938 28.273438 221.257812 29.597656 218.40625 C 30.019531 217.496094 30.644531 216.746094 31.582031 215.871094 C 31.542969 216.332031 31.558594 216.503906 31.511719 216.652344 C 30.714844 219.101562 30.4375 221.699219 30.472656 224.351562 C 30.503906 227.183594 31.261719 229.96875 32.503906 232.675781 C 33.609375 235.070312 34.972656 237.335938 36.617188 239.457031 C 36.875 239.792969 37.140625 240.125 37.402344 240.460938 C 37.371094 240.53125 37.335938 240.601562 37.304688 240.671875 " fill-opacity="1" fill-rule="nonzero"/><path fill="#88c0fa" d="M 284.675781 134.6875 C 283.636719 136.714844 282.136719 138.125 280.222656 139.078125 C 276.402344 140.972656 272.410156 140.546875 268.347656 138.214844 C 267.316406 137.621094 266.503906 136.765625 265.820312 135.796875 C 265.78125 135.734375 265.820312 135.625 265.828125 135.453125 C 266.027344 135.527344 266.214844 135.578125 266.386719 135.664062 C 269.882812 137.460938 273.417969 137.789062 276.964844 137.230469 C 279.609375 136.820312 282.117188 136.09375 284.292969 134.664062 C 284.328125 134.644531 284.390625 134.667969 284.675781 134.6875 " fill-opacity="1" fill-rule="nonzero"/><g clip-path="url(#400c760b06)"><path fill="#88c0fa" d="M 20.074219 134.621094 C 20.519531 135.011719 20.574219 135.429688 20.734375 135.792969 C 21.480469 137.519531 22.585938 138.996094 24.074219 140.21875 C 25.5 141.390625 27.117188 141.929688 28.828125 142.144531 C 29.335938 142.207031 29.84375 142.242188 30.347656 142.269531 C 31.289062 142.3125 31.945312 142.816406 32.257812 143.683594 C 32.570312 144.5625 32.859375 145.46875 32.992188 146.363281 C 33.390625 149.011719 33.140625 151.5625 32.566406 154.046875 C 32.480469 154.40625 32.390625 154.792969 31.972656 154.917969 C 31.886719 154.824219 31.777344 154.753906 31.769531 154.691406 C 31.746094 154.339844 31.734375 153.988281 31.742188 153.640625 C 31.792969 151.285156 31.515625 148.921875 30.960938 146.5625 C 30.777344 145.765625 30.480469 144.984375 30.226562 144.15625 C 29.75 144.074219 29.355469 144 28.957031 143.941406 C 27.730469 143.757812 26.53125 143.429688 25.363281 142.90625 C 22.289062 141.515625 20.148438 138.472656 20.007812 135.273438 C 20 135.09375 20.042969 134.917969 20.074219 134.621094 " fill-opacity="1" fill-rule="nonzero"/></g><path fill="#88c0fa" d="M 145.464844 138.765625 C 145.019531 136.890625 145.550781 135.261719 146.207031 133.6875 C 147.234375 131.21875 148.996094 129.425781 151.484375 128.371094 C 153.707031 127.429688 156.488281 127.214844 158.621094 127.851562 C 158.316406 128.023438 158.109375 128.183594 157.871094 128.261719 C 155.25 129.089844 152.949219 130.417969 150.875 132.09375 C 148.980469 133.628906 147.519531 135.535156 146.335938 137.671875 C 146.132812 138.046875 145.917969 138.414062 145.699219 138.78125 C 145.6875 138.800781 145.605469 138.777344 145.464844 138.765625 " fill-opacity="1" fill-rule="nonzero"/><path fill="#88c0fa" d="M 177.292969 210.980469 C 177.261719 210.429688 177.210938 209.878906 177.207031 209.332031 C 177.203125 208.882812 177.472656 208.582031 177.898438 208.539062 C 178.484375 208.484375 179.089844 208.476562 179.691406 208.542969 C 180.171875 208.589844 180.542969 208.988281 180.617188 209.496094 C 180.824219 210.9375 180.613281 212.273438 179.957031 213.472656 C 179.867188 213.636719 179.726562 213.769531 179.582031 213.890625 C 178.824219 214.507812 177.714844 214.097656 177.414062 213.078125 C 177.324219 212.785156 177.300781 212.476562 177.273438 212.175781 C 177.234375 211.773438 177.222656 211.375 177.203125 210.976562 L 177.292969 210.980469 " fill-opacity="1" fill-rule="nonzero"/></svg>