<svg xmlns="http://www.w3.org/2000/svg" xmlns:xlink="http://www.w3.org/1999/xlink" width="410" zoomAndPan="magnify" viewBox="0 0 307.5 307.500004" height="410" preserveAspectRatio="xMidYMid meet" version="1.0"><defs><clipPath id="1b8774a439"><path d="M 70 211 L 194 211 L 194 294.597656 L 70 294.597656 Z M 70 211 " clip-rule="nonzero"/></clipPath><clipPath id="9a21ece583"><path d="M 42.433594 120 L 69 120 L 69 177 L 42.433594 177 Z M 42.433594 120 " clip-rule="nonzero"/></clipPath><clipPath id="9b8a5bbe90"><path d="M 218 167 L 262.933594 167 L 262.933594 204 L 218 204 Z M 218 167 " clip-rule="nonzero"/></clipPath><clipPath id="9f4a98e33f"><path d="M 91 10.347656 L 150 10.347656 L 150 37 L 91 37 Z M 91 10.347656 " clip-rule="nonzero"/></clipPath></defs><path fill="#88c0fa" d="M 192.160156 175.03125 C 192.210938 174.996094 192.265625 174.960938 192.316406 174.925781 C 192.257812 173.957031 192.246094 172.984375 192.132812 172.023438 C 191.949219 170.460938 191.488281 168.976562 190.746094 167.585938 C 190.476562 167.082031 190.125 166.636719 189.621094 166.34375 C 189.003906 165.984375 188.414062 166.144531 188.066406 166.765625 C 187.761719 167.3125 187.632812 167.914062 187.722656 168.53125 C 188.078125 171.085938 189.355469 173.089844 191.425781 174.597656 C 191.65625 174.765625 191.914062 174.886719 192.160156 175.03125 Z M 212.875 167.722656 C 212.945312 167.722656 212.972656 167.730469 212.984375 167.722656 C 213.039062 167.683594 213.097656 167.648438 213.140625 167.597656 C 214.644531 165.765625 215.859375 163.765625 216.59375 161.496094 C 216.9375 160.425781 217.066406 159.332031 217.003906 158.21875 C 216.960938 157.457031 216.792969 156.738281 216.28125 156.140625 C 215.742188 155.519531 215.15625 155.433594 214.488281 155.917969 C 214.234375 156.097656 213.984375 156.324219 213.824219 156.585938 C 213.488281 157.144531 213.160156 157.714844 212.921875 158.320312 C 212.457031 159.511719 212.3125 160.773438 212.261719 162.042969 C 212.195312 163.675781 212.40625 165.292969 212.683594 166.898438 C 212.730469 167.179688 212.808594 167.457031 212.875 167.722656 Z M 161.703125 186.144531 C 161.464844 186.257812 161.398438 186.273438 161.347656 186.3125 C 161.148438 186.460938 160.949219 186.609375 160.761719 186.773438 C 159.203125 188.101562 157.867188 189.628906 156.773438 191.355469 C 155.753906 192.96875 154.917969 194.667969 154.628906 196.582031 C 154.464844 197.683594 154.429688 198.792969 154.910156 199.84375 C 155.257812 200.605469 155.757812 200.773438 156.414062 200.257812 C 156.9375 199.847656 157.417969 199.34375 157.8125 198.804688 C 158.558594 197.78125 159.121094 196.644531 159.59375 195.46875 C 160.355469 193.574219 160.882812 191.617188 161.210938 189.605469 C 161.394531 188.496094 161.527344 187.382812 161.703125 186.144531 Z M 187.78125 179.140625 C 187.703125 179.34375 187.601562 179.566406 187.535156 179.796875 C 187.101562 181.390625 186.628906 182.96875 186.25 184.574219 C 185.640625 187.152344 185.285156 189.769531 185.34375 192.429688 C 185.355469 193.136719 185.453125 193.828125 185.753906 194.472656 C 185.980469 194.964844 186.375 195.085938 186.796875 194.757812 C 187.109375 194.515625 187.40625 194.210938 187.613281 193.875 C 187.988281 193.257812 188.320312 192.613281 188.617188 191.953125 C 190.019531 188.851562 190.949219 185.597656 191.609375 182.261719 C 191.730469 181.648438 191.808594 181.027344 191.90625 180.4375 C 190.496094 179.996094 189.167969 179.578125 187.78125 179.140625 Z M 112.128906 189.613281 C 111.988281 189.8125 111.828125 189.996094 111.714844 190.210938 C 110.613281 192.234375 109.488281 194.25 108.429688 196.296875 C 106.171875 200.664062 104.355469 205.21875 102.871094 209.90625 C 102.496094 211.089844 102.0625 212.257812 101.644531 213.429688 C 101.515625 213.789062 101.351562 214.140625 101.179688 214.484375 C 100.804688 215.234375 100.167969 215.675781 99.351562 215.703125 C 97.597656 215.765625 95.925781 215.46875 94.511719 214.3125 C 94.011719 213.902344 93.632812 213.402344 93.378906 212.808594 C 92.722656 211.300781 92.328125 209.726562 92.261719 208.085938 C 92.203125 206.640625 92.140625 205.191406 92.175781 203.746094 C 92.25 200.875 92.453125 198.011719 92.886719 195.167969 C 93.242188 192.800781 93.621094 190.4375 93.988281 188.070312 C 93.988281 188.054688 93.96875 188.035156 93.929688 187.964844 C 93.792969 188.171875 93.664062 188.347656 93.550781 188.539062 C 89.761719 195.015625 86.417969 201.695312 84.402344 208.972656 C 83.605469 211.847656 82.78125 214.710938 81.964844 217.582031 C 81.851562 217.972656 81.726562 218.359375 81.582031 218.742188 C 81.292969 219.511719 80.707031 219.980469 79.910156 220.050781 C 79.152344 220.117188 78.363281 220.136719 77.617188 220.007812 C 75.683594 219.667969 74.398438 218.480469 73.828125 216.625 C 73.488281 215.507812 73.265625 214.335938 73.152344 213.175781 C 72.921875 210.839844 72.800781 208.492188 72.632812 206.085938 C 72.53125 206.328125 72.429688 206.554688 72.339844 206.785156 C 70.804688 210.773438 69.117188 214.699219 67.300781 218.570312 C 66.558594 220.148438 65.738281 221.683594 64.699219 223.09375 C 64.027344 224.007812 63.265625 224.84375 62.351562 225.527344 C 60.972656 226.558594 59.457031 226.839844 57.800781 226.332031 C 55.375 225.59375 53.523438 224.15625 52.316406 221.890625 C 51.3125 220.007812 50.773438 217.988281 50.476562 215.894531 C 50.105469 213.285156 50.101562 210.65625 50.246094 208.039062 C 50.4375 204.695312 50.867188 201.375 51.835938 198.152344 C 52.042969 197.460938 52.300781 196.785156 52.558594 196.109375 C 52.75 195.617188 53.082031 195.269531 53.640625 195.199219 C 54.199219 195.132812 54.753906 195 55.3125 194.980469 C 56.691406 194.9375 58.070312 194.960938 59.433594 195.222656 C 59.675781 195.269531 59.917969 195.339844 60.144531 195.4375 C 60.921875 195.777344 61.390625 196.378906 61.339844 197.234375 C 61.292969 198.066406 61.148438 198.894531 60.988281 199.710938 C 60.417969 202.617188 59.765625 205.507812 59.261719 208.425781 C 58.96875 210.109375 58.921875 211.839844 58.726562 213.542969 C 58.566406 214.925781 58.6875 216.300781 58.78125 217.675781 C 58.820312 218.214844 58.933594 218.746094 59.023438 219.28125 C 59.050781 219.457031 59.105469 219.636719 59.175781 219.800781 C 59.328125 220.152344 59.46875 220.558594 59.898438 220.632812 C 60.375 220.710938 60.722656 220.402344 60.960938 220.035156 C 61.417969 219.332031 61.90625 218.640625 62.253906 217.886719 C 63.785156 214.535156 65.328125 211.1875 66.757812 207.789062 C 69.34375 201.636719 71.503906 195.328125 73.398438 188.925781 C 73.671875 187.996094 74.019531 187.085938 74.34375 186.167969 C 74.625 185.359375 75.167969 184.796875 75.9375 184.40625 C 77.25 183.738281 78.660156 183.453125 80.101562 183.292969 C 80.753906 183.222656 81.410156 183.183594 82.0625 183.183594 C 82.417969 183.1875 82.785156 183.265625 83.117188 183.390625 C 83.875 183.667969 84.3125 184.25 84.273438 185.050781 C 84.226562 186.0625 84.101562 187.074219 83.949219 188.078125 C 83.398438 191.605469 82.824219 195.132812 82.257812 198.65625 C 82.222656 198.902344 82.207031 199.148438 82.269531 199.429688 C 82.355469 199.242188 82.453125 199.058594 82.535156 198.867188 C 85.027344 192.929688 88.007812 187.25 91.445312 181.808594 C 92.351562 180.375 93.324219 178.984375 94.292969 177.589844 C 94.636719 177.089844 95.046875 176.632812 95.453125 176.179688 C 96.921875 174.546875 98.753906 174 100.859375 174.507812 C 101.75 174.722656 102.632812 175.058594 103.457031 175.464844 C 104.804688 176.132812 105.46875 177.285156 105.304688 178.792969 C 105.164062 180.027344 104.917969 181.246094 104.675781 182.464844 C 104.015625 185.8125 103.300781 189.152344 102.667969 192.503906 C 102.351562 194.167969 102.167969 195.859375 101.929688 197.535156 C 101.914062 197.644531 101.914062 197.757812 102.011719 197.914062 C 102.117188 197.695312 102.222656 197.476562 102.320312 197.253906 C 104.007812 193.417969 105.894531 189.6875 108.074219 186.109375 C 109.273438 184.136719 110.507812 182.1875 111.980469 180.402344 C 112.453125 179.824219 112.949219 179.261719 113.484375 178.746094 C 114.648438 177.625 116.054688 177.230469 117.65625 177.394531 C 118.964844 177.523438 120.164062 177.941406 121.304688 178.566406 C 122.992188 179.492188 123.523438 180.558594 123.136719 182.433594 C 122.824219 183.960938 122.476562 185.484375 122.085938 186.996094 C 121.171875 190.566406 120.453125 194.179688 119.953125 197.832031 C 119.695312 199.691406 119.503906 201.554688 119.320312 203.421875 C 119.222656 204.417969 119.347656 205.414062 119.597656 206.378906 C 119.683594 206.722656 119.863281 207.054688 120.066406 207.34375 C 120.332031 207.722656 120.609375 207.800781 121.007812 207.570312 C 121.390625 207.347656 121.757812 207.066406 122.066406 206.746094 C 123.644531 205.078125 124.980469 203.222656 126.09375 201.21875 C 128.664062 196.585938 130.824219 191.765625 132.59375 186.761719 C 134.253906 182.0625 135.550781 177.269531 136.789062 172.449219 C 137.113281 171.203125 137.503906 169.972656 137.859375 168.734375 C 138.164062 167.664062 138.8125 167.035156 139.96875 166.953125 C 141.09375 166.875 142.214844 166.703125 143.339844 166.628906 C 143.875 166.59375 144.425781 166.652344 144.957031 166.738281 C 146.089844 166.921875 146.722656 167.65625 146.675781 168.816406 C 146.644531 169.648438 146.515625 170.480469 146.367188 171.300781 C 145.785156 174.527344 145.183594 177.746094 144.585938 180.96875 C 144.574219 181.035156 144.570312 181.101562 144.640625 181.214844 C 144.757812 181.023438 144.875 180.835938 144.984375 180.640625 C 146.878906 177.25 149.027344 174.046875 151.691406 171.207031 C 152.824219 170 154.023438 168.867188 155.367188 167.894531 C 156.777344 166.875 158.304688 166.128906 160.046875 165.863281 C 161.808594 165.597656 163.410156 165.996094 164.902344 166.9375 C 166.390625 167.875 167.507812 169.15625 168.390625 170.664062 C 169.394531 172.375 170.121094 174.191406 170.480469 176.148438 C 170.515625 176.34375 170.578125 176.539062 170.636719 176.761719 C 171.628906 176.515625 172.585938 176.269531 173.550781 176.042969 C 175.777344 175.523438 178.019531 175.105469 180.300781 174.9375 C 181.03125 174.882812 181.769531 174.957031 182.542969 174.972656 C 182.453125 174.832031 182.355469 174.6875 182.265625 174.539062 C 180.789062 172.125 180.085938 169.519531 180.492188 166.695312 C 180.851562 164.191406 182.03125 162.109375 184.074219 160.597656 C 186.8125 158.578125 190.121094 158.777344 192.667969 161.039062 C 193.382812 161.679688 193.957031 162.433594 194.460938 163.242188 C 195.609375 165.097656 196.265625 167.128906 196.628906 169.269531 C 196.980469 171.328125 197.117188 173.402344 197.109375 175.484375 C 197.109375 175.640625 197.125 175.792969 197.136719 176.023438 C 199.890625 175.988281 202.464844 175.355469 204.972656 174.167969 C 204.917969 173.933594 204.875 173.71875 204.816406 173.507812 C 204.269531 171.453125 203.742188 169.394531 203.492188 167.277344 C 203.175781 164.546875 203.050781 161.8125 203.8125 159.132812 C 204.3125 157.367188 204.984375 155.65625 205.90625 154.066406 C 206.894531 152.359375 208.183594 150.917969 209.839844 149.828125 C 211.128906 148.976562 212.53125 148.417969 214.070312 148.3125 C 215.242188 148.230469 216.363281 148.5 217.414062 149.03125 C 218.949219 149.804688 220.03125 151.019531 220.773438 152.550781 C 221.792969 154.660156 222.101562 156.90625 221.933594 159.222656 C 221.730469 161.9375 220.804688 164.421875 219.503906 166.785156 C 218.28125 169.003906 216.734375 170.972656 214.945312 172.753906 C 214.539062 173.160156 214.488281 173.496094 214.695312 173.996094 C 215.632812 176.25 216.566406 178.507812 217.460938 180.777344 C 219.390625 185.660156 221.152344 190.597656 222.339844 195.722656 C 223.109375 199.050781 223.449219 202.417969 223.191406 205.824219 C 222.917969 209.472656 222.214844 213.039062 220.632812 216.371094 C 219.417969 218.929688 217.753906 221.117188 215.300781 222.640625 C 213.640625 223.671875 211.847656 224.128906 209.921875 223.8125 C 207.4375 223.40625 205.640625 221.953125 204.390625 219.820312 C 203.476562 218.265625 202.960938 216.550781 202.742188 214.757812 C 202.355469 211.628906 202.597656 208.527344 203.210938 205.445312 C 204.019531 201.375 205.414062 197.523438 207.449219 193.90625 C 208.003906 192.921875 208.5625 191.9375 209.121094 190.957031 C 209.230469 190.761719 209.363281 190.582031 209.53125 190.316406 C 209.605469 190.457031 209.652344 190.519531 209.671875 190.589844 C 210.199219 192.410156 210.722656 194.238281 211.253906 196.058594 C 211.382812 196.496094 211.3125 196.875 211.101562 197.285156 C 208.945312 201.457031 207.683594 205.886719 207.390625 210.582031 C 207.292969 212.195312 207.457031 213.792969 207.859375 215.355469 C 207.980469 215.828125 208.183594 216.300781 208.4375 216.71875 C 208.625 217.039062 208.921875 217.320312 209.230469 217.527344 C 209.886719 217.964844 210.546875 217.910156 211.058594 217.304688 C 211.472656 216.8125 211.828125 216.238281 212.082031 215.644531 C 212.609375 214.417969 212.960938 213.125 213.136719 211.796875 C 213.386719 209.917969 213.597656 208.027344 213.578125 206.125 C 213.554688 204.039062 213.273438 201.984375 212.996094 199.917969 C 212.386719 195.398438 210.863281 191.148438 209.335938 186.890625 C 208.464844 184.464844 207.636719 182.023438 206.789062 179.589844 C 206.699219 179.335938 206.59375 179.089844 206.480469 178.789062 C 204.90625 179.445312 203.335938 179.996094 201.695312 180.335938 C 200.074219 180.667969 198.441406 180.871094 196.734375 180.867188 C 196.65625 181.3125 196.585938 181.730469 196.511719 182.148438 C 195.820312 186.175781 194.730469 190.09375 193.039062 193.816406 C 192.421875 195.171875 191.644531 196.453125 190.863281 197.722656 C 190.167969 198.84375 189.246094 199.789062 188.203125 200.601562 C 186.957031 201.566406 185.566406 202.164062 183.960938 202.179688 C 182.6875 202.191406 181.5625 201.78125 180.574219 200.996094 C 179.367188 200.042969 178.582031 198.789062 178.03125 197.375 C 177.296875 195.492188 177.03125 193.523438 177 191.527344 C 176.941406 187.828125 177.570312 184.230469 178.644531 180.703125 C 178.710938 180.488281 178.777344 180.277344 178.871094 179.960938 C 176.117188 180.304688 173.507812 180.941406 170.917969 181.722656 C 170.851562 182.628906 170.800781 183.480469 170.726562 184.335938 C 170.339844 188.960938 169.433594 193.464844 167.457031 197.699219 C 166.476562 199.800781 165.246094 201.746094 163.757812 203.53125 C 162.660156 204.847656 161.347656 205.925781 159.863281 206.761719 C 158.25 207.667969 156.515625 208.042969 154.648438 207.910156 C 153.441406 207.824219 152.34375 207.519531 151.316406 206.898438 C 148.769531 205.347656 147.75 202.957031 147.679688 200.101562 C 147.625 198.015625 148.125 196.015625 148.917969 194.09375 C 150.554688 190.148438 153.125 186.886719 156.320312 184.09375 C 157.652344 182.925781 159.09375 181.917969 160.621094 181.023438 C 160.855469 180.890625 161.089844 180.753906 161.355469 180.597656 C 161.347656 180.421875 161.375 180.238281 161.324219 180.074219 C 161.070312 179.234375 160.828125 178.386719 160.507812 177.566406 C 160.347656 177.15625 160.078125 176.769531 159.789062 176.425781 C 158.785156 175.21875 157.355469 174.886719 155.945312 175.582031 C 155.328125 175.886719 154.734375 176.296875 154.21875 176.757812 C 151.953125 178.785156 150.214844 181.234375 148.71875 183.867188 C 147.359375 186.257812 146.484375 188.855469 145.617188 191.449219 C 144.160156 195.785156 143.109375 200.226562 142.207031 204.707031 C 141.585938 207.8125 141.226562 210.957031 140.960938 214.109375 C 140.699219 217.179688 140.660156 220.253906 140.710938 223.332031 C 140.726562 224.363281 140.398438 225.148438 139.605469 225.820312 C 138.660156 226.613281 137.621094 227.25 136.527344 227.789062 C 135.351562 228.371094 134.394531 228.082031 133.652344 226.980469 C 132.878906 225.828125 132.523438 224.519531 132.316406 223.171875 C 131.976562 220.972656 131.933594 218.757812 132 216.539062 C 132.027344 215.589844 132.023438 214.640625 132.0625 213.691406 C 132.144531 211.542969 132.207031 209.398438 132.347656 207.253906 C 132.542969 204.140625 132.835938 201.035156 133.347656 197.957031 C 133.351562 197.921875 133.328125 197.878906 133.292969 197.761719 C 133.164062 198.007812 133.058594 198.203125 132.960938 198.398438 C 132.199219 199.890625 131.480469 201.402344 130.679688 202.871094 C 129.160156 205.664062 127.351562 208.257812 125.105469 210.523438 C 124.253906 211.378906 123.296875 212.097656 122.25 212.695312 C 120.617188 213.628906 118.925781 213.769531 117.171875 213.058594 C 117.046875 213.007812 116.921875 212.957031 116.796875 212.90625 C 114.390625 211.925781 112.773438 210.269531 112.046875 207.703125 C 111.515625 205.816406 111.179688 203.917969 111.167969 201.964844 C 111.160156 200.3125 111.144531 198.65625 111.277344 197.015625 C 111.460938 194.71875 111.65625 192.417969 112.148438 190.160156 C 112.183594 189.992188 112.195312 189.820312 112.21875 189.652344 C 112.1875 189.640625 112.160156 189.628906 112.128906 189.613281 " fill-opacity="1" fill-rule="nonzero"/><g clip-path="url(#1b8774a439)"><path fill="#88c0fa" d="M 88.464844 270.832031 C 88.367188 270.910156 88.304688 270.945312 88.269531 270.996094 C 88.160156 271.167969 88.046875 271.339844 87.949219 271.515625 C 86.304688 274.511719 85.132812 277.675781 84.71875 281.085938 C 84.539062 282.585938 84.648438 284.074219 85.132812 285.503906 C 85.347656 286.136719 85.671875 286.757812 86.0625 287.296875 C 86.660156 288.128906 87.347656 288.175781 88.148438 287.519531 C 88.40625 287.304688 88.652344 287.050781 88.816406 286.765625 C 89.144531 286.203125 89.464844 285.621094 89.6875 285.011719 C 90.476562 282.847656 90.550781 280.609375 90.4375 278.332031 C 90.320312 275.917969 89.585938 273.679688 88.742188 271.457031 C 88.664062 271.253906 88.5625 271.054688 88.464844 270.832031 Z M 177.183594 239.914062 C 177.226562 239.941406 177.273438 239.96875 177.316406 239.996094 C 177.476562 239.84375 177.640625 239.699219 177.792969 239.539062 C 180.089844 237.09375 182.171875 234.476562 183.980469 231.648438 C 185.890625 228.667969 187.210938 225.441406 188.007812 221.996094 C 188.210938 221.128906 188.277344 220.253906 188.191406 219.367188 C 188.101562 218.414062 187.398438 217.984375 186.503906 218.339844 C 186.277344 218.429688 186.046875 218.550781 185.863281 218.710938 C 185.421875 219.097656 184.96875 219.480469 184.597656 219.929688 C 183.5625 221.167969 182.785156 222.574219 182.097656 224.03125 C 180.121094 228.222656 178.757812 232.617188 177.765625 237.136719 C 177.566406 238.0625 177.378906 238.988281 177.183594 239.914062 Z M 151.476562 260.816406 C 151.28125 260.914062 151.160156 260.960938 151.050781 261.03125 C 150.070312 261.679688 149.054688 262.28125 148.125 263 C 144.644531 265.699219 141.722656 268.917969 139.40625 272.671875 C 137.90625 275.09375 136.96875 277.707031 136.867188 280.589844 C 136.8125 282.042969 137.101562 283.417969 137.804688 284.695312 C 138.359375 285.699219 139.230469 286.171875 140.359375 286.207031 C 141.476562 286.25 142.4375 285.804688 143.320312 285.195312 C 144.785156 284.179688 146.015625 282.921875 147.015625 281.445312 C 148.261719 279.597656 149.226562 277.59375 149.9375 275.496094 C 151.371094 271.25 151.945312 266.878906 151.683594 262.402344 C 151.652344 261.890625 151.554688 261.382812 151.476562 260.816406 Z M 134.082031 238.507812 C 134.179688 238.3125 134.285156 238.121094 134.375 237.921875 C 136.15625 234.125 138.417969 230.648438 141.210938 227.523438 C 142.523438 226.050781 143.992188 224.738281 145.585938 223.574219 C 146.777344 222.699219 148.054688 221.992188 149.46875 221.539062 C 151.808594 220.789062 154.011719 221.15625 156.035156 222.425781 C 158.648438 224.0625 160.089844 226.476562 160.425781 229.554688 C 160.640625 231.570312 160.191406 233.476562 159.472656 235.320312 C 158.171875 238.636719 156.234375 241.574219 153.917969 244.269531 C 153.214844 245.089844 152.550781 245.949219 151.804688 246.867188 C 154.484375 247.832031 156.757812 249.28125 158.453125 251.53125 C 161.019531 250.453125 163.515625 249.402344 166.050781 248.335938 C 166.140625 247.566406 166.230469 246.78125 166.320312 246 C 166.945312 240.652344 168.292969 235.476562 170.007812 230.386719 C 171.179688 226.898438 172.605469 223.535156 174.539062 220.398438 C 175.691406 218.523438 176.96875 216.738281 178.578125 215.222656 C 180.640625 213.277344 183.035156 212.011719 185.902344 211.714844 C 189.410156 211.351562 192.449219 213.601562 193.113281 217.066406 C 193.570312 219.4375 193.257812 221.75 192.621094 224.039062 C 191.40625 228.425781 189.363281 232.414062 186.761719 236.128906 C 183.835938 240.304688 180.4375 244.042969 176.511719 247.292969 C 176.109375 247.628906 175.929688 247.988281 175.886719 248.492188 C 175.609375 251.625 175.425781 254.769531 175.632812 257.910156 C 175.949219 262.730469 176.582031 267.503906 178.605469 271.964844 C 179.832031 274.660156 181.398438 277.148438 183.703125 279.074219 C 184.515625 279.75 185.425781 280.3125 186.332031 280.863281 C 186.746094 281.113281 187.257812 281.214844 187.734375 281.347656 C 188.257812 281.496094 188.410156 281.59375 188.355469 282.136719 C 188.304688 282.664062 188.175781 283.210938 187.964844 283.695312 C 187.769531 284.140625 187.476562 284.574219 187.132812 284.921875 C 185.503906 286.582031 183.582031 287.574219 181.191406 287.609375 C 178.464844 287.648438 176.214844 286.605469 174.320312 284.742188 C 171.890625 282.355469 170.25 279.460938 168.960938 276.332031 C 167.570312 272.9375 166.71875 269.414062 166.269531 265.785156 C 166.191406 265.136719 166.167969 264.480469 166.121094 263.824219 C 165.886719 260.554688 165.742188 257.277344 165.78125 253.996094 C 165.78125 253.933594 165.753906 253.871094 165.71875 253.730469 C 164.101562 254.34375 162.542969 255.027344 160.9375 255.714844 C 160.976562 255.886719 160.996094 256.039062 161.042969 256.179688 C 162.082031 259.242188 162.386719 262.394531 162.214844 265.613281 C 162.058594 268.5625 161.667969 271.46875 160.808594 274.296875 C 159.359375 279.042969 157.222656 283.429688 153.886719 287.160156 C 151.136719 290.238281 147.789062 292.386719 143.789062 293.457031 C 141.808594 293.980469 139.8125 294.078125 137.847656 293.351562 C 134.960938 292.285156 133.113281 290.191406 132.042969 287.367188 C 131.238281 285.234375 131.027344 283.019531 131.152344 280.757812 C 131.355469 277.175781 132.53125 273.90625 134.308594 270.828125 C 136.414062 267.183594 139.140625 264.066406 142.359375 261.367188 C 144.476562 259.589844 146.734375 258.007812 149.101562 256.582031 C 149.808594 256.15625 149.839844 255.972656 149.332031 255.3125 C 148.425781 254.128906 147.21875 253.359375 145.871094 252.769531 C 145.558594 252.632812 145.363281 252.765625 145.132812 252.914062 C 144.171875 253.527344 143.148438 253.996094 142.027344 254.234375 C 140.769531 254.5 139.605469 254.320312 138.601562 253.433594 C 137.535156 252.488281 137.214844 251.023438 137.816406 249.730469 C 138.128906 249.054688 138.621094 248.535156 139.230469 248.117188 C 140.195312 247.449219 141.28125 247.054688 142.421875 246.859375 C 143.191406 246.726562 143.722656 246.351562 144.222656 245.785156 C 146.421875 243.304688 148.074219 240.492188 149.410156 237.472656 C 150.195312 235.691406 150.90625 233.878906 151.238281 231.949219 C 151.398438 231.015625 151.539062 230.070312 151.320312 229.121094 C 151.273438 228.925781 151.226562 228.722656 151.152344 228.535156 C 150.855469 227.835938 150.335938 227.53125 149.574219 227.703125 C 149.097656 227.8125 148.617188 227.992188 148.191406 228.230469 C 146.625 229.121094 145.226562 230.226562 144.042969 231.585938 C 141.917969 234.023438 140.507812 236.878906 139.253906 239.824219 C 137.339844 244.320312 136.101562 249.015625 135.351562 253.832031 C 135.035156 255.839844 134.921875 257.878906 134.726562 259.902344 C 134.519531 262.066406 134.578125 264.238281 134.628906 266.410156 C 134.636719 266.703125 134.628906 267 134.605469 267.292969 C 134.5625 267.734375 134.398438 268.136719 134.054688 268.425781 C 132.785156 269.488281 131.324219 270.027344 129.667969 269.863281 C 128.292969 269.722656 127.316406 268.921875 126.761719 267.695312 C 126.359375 266.8125 126.085938 265.875 125.8125 264.945312 C 125.632812 264.34375 125.558594 263.714844 125.425781 263.027344 C 125.199219 263.195312 125.171875 263.414062 125.105469 263.605469 C 124.222656 266.148438 123.242188 268.652344 121.976562 271.035156 C 121.179688 272.539062 120.335938 274.011719 119.199219 275.289062 C 118.628906 275.925781 118.015625 276.535156 117.367188 277.09375 C 115.347656 278.835938 113.078125 279.164062 110.585938 278.25 C 108.382812 277.441406 106.96875 275.839844 105.980469 273.796875 C 105.277344 272.335938 104.972656 270.757812 104.777344 269.15625 C 104.503906 266.90625 104.488281 264.644531 104.660156 262.386719 C 104.820312 260.359375 105.070312 258.339844 105.515625 256.351562 C 105.539062 256.242188 105.546875 256.132812 105.578125 255.914062 C 101.585938 257.96875 98.066406 260.527344 94.761719 263.484375 C 94.890625 263.699219 94.996094 263.890625 95.117188 264.082031 C 97.46875 267.867188 98.558594 272.015625 98.667969 276.449219 C 98.734375 278.992188 98.585938 281.511719 97.96875 283.992188 C 97.222656 287.007812 95.792969 289.636719 93.546875 291.796875 C 92.351562 292.945312 90.996094 293.871094 89.328125 294.105469 C 86.324219 294.53125 83.71875 293.726562 81.765625 291.296875 C 80.4375 289.652344 79.800781 287.707031 79.515625 285.628906 C 79.046875 282.238281 79.582031 278.964844 80.664062 275.746094 C 81.761719 272.480469 83.363281 269.480469 85.375 266.691406 C 85.515625 266.492188 85.660156 266.289062 85.828125 266.046875 C 85.652344 265.800781 85.492188 265.5625 85.316406 265.328125 C 83.480469 262.886719 81.523438 260.542969 79.46875 258.28125 C 78.386719 257.09375 77.316406 255.894531 76.28125 254.667969 C 74.757812 252.863281 73.464844 250.902344 72.402344 248.789062 C 71.386719 246.765625 70.847656 244.609375 70.667969 242.351562 C 70.382812 238.730469 71.402344 235.503906 73.605469 232.652344 C 75.3125 230.441406 77.507812 228.886719 80.246094 228.21875 C 85.476562 226.941406 90.457031 230.140625 91.90625 234.5 C 92.8125 237.222656 92.839844 239.921875 91.84375 242.605469 C 91.214844 244.296875 90.15625 245.675781 88.402344 246.324219 C 86.320312 247.09375 83.652344 246.402344 82.765625 243.894531 C 82.484375 243.09375 82.578125 242.417969 83.289062 241.835938 C 84.34375 240.96875 84.769531 239.746094 84.929688 238.4375 C 85.050781 237.46875 85.039062 236.496094 84.652344 235.5625 C 84.039062 234.097656 82.605469 233.378906 81.054688 233.78125 C 79.996094 234.054688 79.199219 234.6875 78.609375 235.59375 C 77.722656 236.96875 77.523438 238.496094 77.679688 240.089844 C 77.800781 241.320312 78.253906 242.453125 78.789062 243.558594 C 79.980469 246.027344 81.621094 248.179688 83.421875 250.222656 C 84.453125 251.394531 85.542969 252.515625 86.578125 253.679688 C 88.140625 255.441406 89.679688 257.21875 91.226562 258.992188 C 91.402344 259.195312 91.574219 259.402344 91.78125 259.648438 C 91.980469 259.488281 92.15625 259.359375 92.324219 259.21875 C 95.992188 256.113281 99.859375 253.292969 104.003906 250.855469 C 105.132812 250.191406 106.273438 249.527344 107.546875 249.175781 C 109.457031 248.644531 111.355469 248.792969 113.226562 249.382812 C 114.816406 249.878906 115.59375 251.222656 115.238281 252.734375 C 114.898438 254.1875 114.574219 255.640625 114.246094 257.097656 C 113.550781 260.1875 112.917969 263.289062 112.683594 266.453125 C 112.554688 268.183594 112.449219 269.933594 112.902344 271.648438 C 112.976562 271.929688 113.066406 272.214844 113.203125 272.472656 C 113.511719 273.0625 113.960938 273.238281 114.558594 272.941406 C 114.910156 272.761719 115.257812 272.503906 115.503906 272.195312 C 116.023438 271.542969 116.519531 270.863281 116.949219 270.152344 C 118.597656 267.425781 119.703125 264.460938 120.765625 261.472656 C 121.863281 258.390625 122.515625 255.203125 123.074219 251.996094 C 123.652344 248.65625 124.175781 245.308594 124.652344 241.949219 C 124.898438 240.230469 125 238.488281 125.132812 236.753906 C 125.234375 235.425781 125.277344 234.09375 125.355469 232.761719 C 125.414062 231.832031 125.921875 231.210938 126.734375 230.816406 C 127.804688 230.296875 128.949219 230.035156 130.117188 229.878906 C 130.742188 229.796875 131.378906 229.753906 132.007812 229.757812 C 133.28125 229.765625 134.007812 230.496094 134.09375 231.769531 C 134.238281 233.875 134.09375 235.972656 133.96875 238.070312 C 133.960938 238.203125 133.96875 238.339844 133.96875 238.472656 C 134.007812 238.484375 134.042969 238.496094 134.082031 238.507812 " fill-opacity="1" fill-rule="nonzero"/></g><path fill="#88c0fa" d="M 228.726562 76.964844 C 228.648438 77.125 228.558594 77.253906 228.511719 77.394531 C 228.15625 78.492188 227.75 79.574219 227.472656 80.6875 C 227.132812 82.046875 226.9375 83.4375 227.019531 84.851562 C 227.050781 85.429688 227.191406 85.976562 227.546875 86.433594 C 227.976562 86.988281 228.414062 86.992188 228.792969 86.40625 C 229.035156 86.035156 229.210938 85.597656 229.320312 85.167969 C 229.992188 82.453125 229.625 79.785156 228.875 77.144531 C 228.859375 77.085938 228.792969 77.042969 228.726562 76.964844 Z M 203.699219 93.644531 C 203.667969 93.628906 203.632812 93.617188 203.601562 93.601562 C 203.492188 93.734375 203.371094 93.859375 203.285156 94.003906 C 202.214844 95.785156 201.09375 97.542969 200.097656 99.363281 C 198.867188 101.613281 197.949219 103.992188 197.367188 106.496094 C 196.921875 108.398438 196.609375 110.3125 196.769531 112.273438 C 196.785156 112.472656 196.800781 112.683594 196.859375 112.875 C 197.058594 113.53125 197.496094 113.636719 197.929688 113.109375 C 198.253906 112.707031 198.582031 112.28125 198.785156 111.816406 C 199.371094 110.46875 199.980469 109.125 200.425781 107.734375 C 201.730469 103.636719 202.644531 99.445312 203.421875 95.21875 C 203.519531 94.695312 203.609375 94.167969 203.699219 93.644531 Z M 227.640625 51.914062 C 227.773438 51.71875 227.839844 51.632812 227.886719 51.539062 C 229.109375 49.109375 230.140625 46.609375 230.828125 43.976562 C 231.203125 42.550781 231.5 41.113281 231.496094 39.632812 C 231.492188 38.945312 231.355469 38.28125 231.007812 37.683594 C 230.371094 36.582031 229.195312 36.421875 228.277344 37.292969 C 227.761719 37.785156 227.402344 38.382812 227.148438 39.042969 C 226.730469 40.128906 226.527344 41.257812 226.464844 42.414062 C 226.378906 44 226.417969 45.574219 226.625 47.148438 C 226.828125 48.71875 227.136719 50.265625 227.640625 51.914062 Z M 164.054688 86.277344 C 164.128906 86.300781 164.199219 86.324219 164.273438 86.347656 C 164.515625 86.007812 164.800781 85.691406 165 85.324219 C 165.480469 84.429688 165.96875 83.535156 166.375 82.601562 C 167.839844 79.246094 169.253906 75.867188 170.734375 72.519531 C 171.121094 71.648438 171.074219 70.847656 170.695312 70.039062 C 170.21875 69.023438 169.871094 68.816406 168.707031 69.3125 C 168.460938 69.414062 168.21875 69.570312 168.039062 69.761719 C 167.664062 70.152344 167.25 70.539062 167.003906 71.007812 C 166.472656 72.023438 165.96875 73.066406 165.574219 74.144531 C 164.714844 76.46875 164.316406 78.90625 164.078125 81.363281 C 163.960938 82.574219 163.941406 83.796875 163.914062 85.015625 C 163.902344 85.4375 164.003906 85.855469 164.054688 86.277344 Z M 206.136719 75.203125 C 206.042969 75.394531 205.945312 75.589844 205.855469 75.785156 C 204.546875 78.589844 203.261719 81.410156 201.921875 84.199219 C 201.265625 85.570312 200.445312 86.855469 199.417969 87.980469 C 198.949219 88.488281 198.417969 88.980469 197.824219 89.332031 C 196.082031 90.371094 194.125 90.09375 192.660156 88.675781 C 191.902344 87.941406 191.351562 87.0625 190.910156 86.109375 C 190.085938 84.339844 189.738281 82.453125 189.585938 80.53125 C 189.488281 79.289062 189.476562 78.042969 189.433594 76.800781 C 189.425781 76.605469 189.429688 76.410156 189.316406 76.1875 C 189.222656 76.375 189.121094 76.5625 189.03125 76.757812 C 187.992188 79.066406 187 81.402344 185.894531 83.679688 C 185.015625 85.484375 184.039062 87.25 183.019531 88.980469 C 182.542969 89.789062 181.917969 90.53125 181.269531 91.21875 C 179.601562 92.976562 177.769531 93.308594 175.171875 91.90625 C 174.085938 91.316406 173.347656 90.378906 172.847656 89.242188 C 172.160156 87.679688 171.949219 86.03125 171.914062 84.347656 C 171.902344 83.628906 171.914062 82.914062 171.84375 82.167969 C 171.746094 82.378906 171.640625 82.59375 171.546875 82.808594 C 170.585938 84.976562 169.667969 87.167969 168.640625 89.308594 C 168.078125 90.488281 167.367188 91.597656 166.664062 92.699219 C 166.214844 93.410156 165.597656 93.988281 164.882812 94.445312 C 163.550781 95.300781 162.175781 95.375 160.761719 94.664062 C 159.65625 94.109375 158.828125 93.265625 158.214844 92.199219 C 157.421875 90.828125 156.953125 89.339844 156.761719 87.78125 C 156.066406 82.109375 156.867188 76.636719 159.152344 71.402344 C 159.980469 69.503906 161.117188 67.789062 162.644531 66.355469 C 163.972656 65.101562 165.503906 64.242188 167.316406 63.898438 C 169.453125 63.492188 171.34375 64.027344 173.035156 65.359375 C 173.210938 65.5 173.378906 65.644531 173.605469 65.832031 C 173.695312 65.648438 173.765625 65.496094 173.835938 65.339844 C 174.09375 64.765625 174.339844 64.179688 174.613281 63.609375 C 174.890625 63.03125 175.367188 62.6875 176.007812 62.6875 C 176.65625 62.691406 177.328125 62.691406 177.953125 62.84375 C 178.691406 63.023438 179.421875 63.304688 180.105469 63.644531 C 181.429688 64.296875 182.023438 65.429688 181.769531 66.886719 C 181.359375 69.246094 180.910156 71.601562 180.441406 73.949219 C 179.847656 76.941406 179.347656 79.949219 179.023438 82.988281 C 178.960938 83.59375 178.972656 84.207031 179 84.816406 C 179.015625 85.136719 179.144531 85.449219 179.21875 85.769531 C 179.269531 85.769531 179.316406 85.769531 179.363281 85.769531 C 179.5 85.542969 179.644531 85.316406 179.777344 85.085938 C 181.253906 82.539062 182.417969 79.835938 183.585938 77.140625 C 185.496094 72.742188 187.332031 68.316406 189.210938 63.90625 C 189.546875 63.117188 189.890625 62.328125 190.285156 61.566406 C 190.90625 60.371094 191.910156 59.746094 193.265625 59.839844 C 194.296875 59.914062 195.339844 60.011719 196.347656 60.230469 C 197.695312 60.523438 198.289062 61.292969 198.21875 62.65625 C 198.152344 63.964844 197.96875 65.265625 197.785156 66.5625 C 197.363281 69.492188 196.835938 72.410156 196.742188 75.375 C 196.679688 77.386719 196.65625 79.398438 196.671875 81.410156 C 196.675781 81.898438 196.628906 82.457031 197.050781 82.9375 C 197.160156 82.796875 197.269531 82.699219 197.332031 82.574219 C 198.957031 79.515625 200.515625 76.421875 201.636719 73.140625 C 202.957031 69.292969 204.167969 65.410156 205.433594 61.542969 C 205.691406 60.773438 205.980469 60.007812 206.285156 59.257812 C 206.660156 58.339844 207.355469 57.796875 208.339844 57.707031 C 209.351562 57.613281 210.367188 57.542969 211.378906 57.542969 C 212.410156 57.542969 213.15625 58.066406 213.503906 59.042969 C 213.722656 59.652344 213.902344 60.296875 213.980469 60.9375 C 214.171875 62.605469 214.160156 64.277344 214.039062 65.953125 C 213.949219 67.214844 213.910156 68.480469 213.839844 69.742188 C 213.808594 70.332031 213.761719 70.914062 213.726562 71.5 C 213.71875 71.667969 213.726562 71.839844 213.726562 72.160156 C 213.976562 71.875 214.132812 71.722656 214.261719 71.546875 C 216.738281 68.230469 219.207031 64.910156 221.691406 61.601562 C 221.984375 61.210938 222.019531 60.894531 221.804688 60.441406 C 220.460938 57.566406 219.335938 54.609375 218.6875 51.496094 C 217.582031 46.210938 218.109375 41.152344 220.890625 36.429688 C 221.894531 34.726562 223.183594 33.292969 224.796875 32.152344 C 226.101562 31.226562 227.546875 30.699219 229.152344 30.640625 C 230.101562 30.609375 230.992188 30.832031 231.828125 31.265625 C 234.050781 32.421875 235.421875 34.230469 235.984375 36.671875 C 236.503906 38.902344 236.355469 41.121094 235.910156 43.335938 C 235.03125 47.703125 233.289062 51.742188 231.171875 55.628906 C 230.792969 56.324219 230.390625 57.007812 229.980469 57.6875 C 229.84375 57.914062 229.785156 58.121094 229.894531 58.382812 C 230.738281 60.351562 231.570312 62.328125 232.445312 64.386719 C 232.726562 64.1875 232.921875 64.050781 233.117188 63.910156 C 234.820312 62.6875 236.644531 61.714844 238.71875 61.273438 C 240.222656 60.953125 241.695312 61.03125 243.109375 61.632812 C 245.046875 62.457031 246.332031 64.363281 246.269531 66.292969 C 246.230469 67.492188 245.832031 68.550781 244.914062 69.367188 C 244.492188 69.742188 244.210938 69.882812 243.605469 70.015625 C 241.109375 66.992188 236.59375 67.210938 234.324219 69.332031 C 234.390625 69.554688 234.457031 69.8125 234.542969 70.066406 C 235.320312 72.433594 235.898438 74.84375 236.125 77.339844 C 236.308594 79.328125 236.253906 81.3125 235.984375 83.289062 C 235.761719 84.914062 235.222656 86.453125 234.464844 87.90625 C 233.792969 89.191406 232.820312 90.234375 231.652344 91.082031 C 230.222656 92.121094 228.601562 92.445312 226.886719 92.117188 C 225.332031 91.820312 224.222656 90.816406 223.402344 89.511719 C 222.734375 88.445312 222.363281 87.257812 222.265625 85.996094 C 221.917969 81.625 223.007812 77.5625 224.933594 73.6875 C 225.355469 72.839844 225.851562 72.027344 226.34375 71.214844 C 226.535156 70.898438 226.601562 70.640625 226.433594 70.28125 C 225.824219 68.996094 225.25 67.691406 224.660156 66.394531 C 224.613281 66.296875 224.550781 66.210938 224.464844 66.066406 C 224.359375 66.179688 224.277344 66.25 224.214844 66.335938 C 220.808594 71.105469 217.140625 75.675781 213.488281 80.253906 C 213.144531 80.6875 212.925781 81.121094 212.851562 81.703125 C 212.503906 84.527344 212.136719 87.351562 211.683594 90.164062 C 210.8125 95.539062 209.863281 100.90625 208.183594 106.109375 C 207.359375 108.675781 206.335938 111.160156 205.050781 113.53125 C 204.367188 114.789062 203.605469 115.992188 202.679688 117.082031 C 201.695312 118.238281 200.53125 119.1875 199.042969 119.582031 C 196.683594 120.203125 194.707031 119.449219 193.429688 117.496094 C 192.585938 116.199219 192.199219 114.742188 192.015625 113.21875 C 191.652344 110.265625 192.167969 107.40625 192.894531 104.5625 C 193.664062 101.5625 194.914062 98.761719 196.402344 96.058594 C 197.976562 93.203125 199.785156 90.492188 201.6875 87.847656 C 202.769531 86.339844 203.882812 84.859375 205.003906 83.378906 C 205.273438 83.019531 205.414062 82.648438 205.464844 82.207031 C 205.703125 80.050781 205.96875 77.898438 206.222656 75.742188 C 206.242188 75.574219 206.226562 75.402344 206.226562 75.230469 C 206.195312 75.222656 206.164062 75.210938 206.136719 75.203125 " fill-opacity="1" fill-rule="nonzero"/><path fill="#88c0fa" d="M 106.34375 68.988281 C 106.421875 69.035156 106.503906 69.082031 106.582031 69.128906 C 106.664062 68.992188 106.722656 68.832031 106.828125 68.71875 C 110.371094 64.902344 113.402344 60.714844 115.726562 56.042969 C 117.164062 53.152344 118.1875 50.113281 118.535156 46.878906 C 118.597656 46.296875 118.621094 45.703125 118.578125 45.121094 C 118.515625 44.246094 117.980469 44.011719 117.304688 44.550781 C 116.917969 44.859375 116.542969 45.207031 116.253906 45.605469 C 115.53125 46.609375 114.789062 47.617188 114.175781 48.695312 C 110.78125 54.644531 108.363281 60.988281 106.664062 67.613281 C 106.546875 68.070312 106.449219 68.527344 106.34375 68.988281 Z M 125.59375 93.304688 C 126.167969 92.941406 126.519531 92.457031 126.78125 91.898438 C 127.507812 90.363281 128.269531 88.847656 128.925781 87.285156 C 130.222656 84.175781 131.460938 81.042969 132.71875 77.917969 C 133.65625 75.589844 134.585938 73.261719 135.53125 70.933594 C 135.691406 70.539062 135.90625 70.164062 136.105469 69.78125 C 136.5 69.027344 137.140625 68.597656 137.964844 68.445312 C 139.179688 68.222656 140.394531 68.234375 141.59375 68.546875 C 142.902344 68.886719 143.519531 69.675781 143.5625 71.035156 C 143.597656 72.246094 143.316406 73.414062 143.097656 74.59375 C 142.527344 77.683594 141.984375 80.78125 141.816406 83.921875 C 141.707031 85.976562 141.707031 88.035156 141.703125 90.09375 C 141.703125 90.761719 141.820312 91.4375 142.238281 92.125 C 142.457031 91.941406 142.679688 91.824219 142.808594 91.640625 C 143.261719 90.996094 143.75 90.363281 144.105469 89.664062 C 145.652344 86.632812 146.824219 83.453125 147.800781 80.199219 C 149.101562 75.863281 150.324219 71.511719 151.105469 67.050781 C 151.84375 62.804688 152.300781 58.535156 152.113281 54.21875 C 152.023438 52.222656 151.773438 50.246094 151.269531 48.320312 C 150.695312 46.136719 149.625 44.207031 147.976562 42.640625 C 147.019531 41.734375 145.917969 41.066406 144.582031 40.933594 C 143.691406 40.839844 142.785156 40.894531 142.222656 41.753906 C 141.625 42.664062 141.476562 43.628906 142.03125 44.636719 C 142.425781 45.347656 143.007812 45.878906 143.664062 46.332031 C 145.65625 47.703125 147.84375 48.207031 150.332031 47.765625 C 150.886719 49.261719 151.039062 50.835938 151.183594 52.507812 C 150.304688 52.628906 149.488281 52.78125 148.664062 52.851562 C 145.34375 53.140625 142.117188 52.746094 139.046875 51.394531 C 137.769531 50.835938 136.628906 50.074219 135.695312 49.023438 C 133.261719 46.269531 132.886719 42.324219 134.761719 39.027344 C 136.941406 35.191406 140.714844 33.902344 144.339844 34.410156 C 148.121094 34.941406 151.03125 36.878906 153.074219 40.109375 C 154.605469 42.527344 155.570312 45.164062 156.15625 47.960938 C 156.882812 51.4375 157.089844 54.945312 156.921875 58.488281 C 156.578125 65.859375 154.953125 72.984375 152.875 80.035156 C 151.53125 84.578125 149.929688 89.011719 147.773438 93.238281 C 147.152344 94.449219 146.484375 95.632812 145.589844 96.660156 C 145.058594 97.273438 144.460938 97.835938 143.851562 98.367188 C 142.414062 99.617188 139.667969 99.476562 138.308594 98.492188 C 137.21875 97.703125 136.363281 96.742188 135.851562 95.488281 C 135.238281 93.996094 134.828125 92.445312 134.621094 90.847656 C 134.46875 89.683594 134.390625 88.511719 134.277344 87.308594 C 134.035156 87.390625 134.03125 87.648438 133.949219 87.832031 C 133.039062 89.800781 132.175781 91.796875 131.21875 93.746094 C 130.585938 95.042969 129.851562 96.292969 129.105469 97.53125 C 128.734375 98.148438 128.28125 98.726562 127.792969 99.257812 C 126.167969 101.023438 123.222656 101.597656 120.984375 99.324219 C 119.925781 98.246094 119.277344 96.9375 118.886719 95.5 C 118.335938 93.457031 118.105469 91.367188 118.066406 89.257812 C 118.042969 88.105469 118.125 86.953125 118.15625 85.796875 C 118.160156 85.675781 118.160156 85.550781 118.066406 85.386719 C 117.933594 85.585938 117.796875 85.78125 117.671875 85.988281 C 115.042969 90.371094 112.421875 94.761719 109.78125 99.136719 C 109.117188 100.242188 108.410156 101.320312 107.6875 102.390625 C 107.089844 103.273438 106.390625 104.074219 105.558594 104.75 C 102.9375 106.882812 99.652344 106.566406 97.480469 103.976562 C 96.503906 102.808594 95.921875 101.441406 95.539062 99.984375 C 94.808594 97.1875 94.496094 94.335938 94.449219 91.457031 C 94.390625 87.824219 94.742188 84.226562 95.230469 80.632812 C 95.796875 76.441406 96.542969 72.28125 97.558594 68.171875 C 98.890625 62.773438 100.703125 57.546875 103.160156 52.558594 C 104.902344 49.03125 107.050781 45.773438 109.757812 42.898438 C 110.753906 41.839844 111.859375 40.90625 113.058594 40.089844 C 114.363281 39.199219 115.785156 38.578125 117.355469 38.34375 C 118.9375 38.105469 120.308594 38.550781 121.46875 39.640625 C 122.691406 40.785156 123.179688 42.269531 123.351562 43.886719 C 123.632812 46.585938 123.171875 49.207031 122.46875 51.796875 C 121.777344 54.339844 120.808594 56.773438 119.570312 59.097656 C 116.894531 64.121094 113.582031 68.683594 109.601562 72.75 C 108.234375 74.148438 106.75 75.398438 105.097656 76.441406 C 104.808594 76.625 104.65625 76.835938 104.589844 77.183594 C 103.925781 80.695312 103.363281 84.21875 102.964844 87.773438 C 102.714844 89.960938 102.65625 92.148438 102.757812 94.34375 C 102.789062 95.0625 102.90625 95.78125 103.015625 96.492188 C 103.066406 96.800781 103.179688 97.109375 103.3125 97.394531 C 103.566406 97.929688 104.027344 98.066406 104.546875 97.78125 C 104.722656 97.683594 104.894531 97.554688 105.019531 97.402344 C 105.328125 97.039062 105.648438 96.679688 105.890625 96.277344 C 109.195312 90.769531 112.503906 85.265625 115.785156 79.738281 C 116.765625 78.085938 117.640625 76.375 118.585938 74.699219 C 119.164062 73.675781 119.765625 72.664062 120.386719 71.667969 C 120.988281 70.707031 121.871094 70.261719 123.011719 70.277344 C 124.152344 70.296875 125.261719 70.476562 126.359375 70.753906 C 126.660156 70.832031 126.953125 70.972656 127.230469 71.125 C 127.925781 71.507812 128.300781 72.117188 128.242188 72.90625 C 128.191406 73.582031 128.082031 74.257812 127.90625 74.910156 C 127.046875 78.167969 126.226562 81.433594 125.738281 84.769531 C 125.515625 86.3125 125.375 87.867188 125.234375 89.417969 C 125.160156 90.25 125.152344 91.089844 125.144531 91.925781 C 125.136719 92.511719 125.25 92.8125 125.59375 93.304688 " fill-opacity="1" fill-rule="nonzero"/><path fill="#88c0fa" d="M 90.492188 50.109375 C 90.367188 50.144531 90.3125 50.144531 90.289062 50.171875 C 90.101562 50.394531 89.910156 50.621094 89.730469 50.855469 C 88.003906 53.140625 86.65625 55.644531 85.476562 58.246094 C 83.117188 63.46875 81.171875 68.84375 79.628906 74.363281 C 79.582031 74.53125 79.546875 74.703125 79.507812 74.878906 C 80.082031 74.953125 83.363281 74.578125 84.726562 74.28125 C 86.261719 66.175781 88.179688 58.117188 90.492188 50.109375 Z M 72.039062 83.101562 C 71.863281 83.144531 71.757812 83.160156 71.660156 83.195312 C 70.136719 83.753906 68.609375 84.320312 67.085938 84.882812 C 66.808594 84.980469 66.539062 85.101562 66.253906 85.167969 C 65.339844 85.382812 64.574219 84.910156 64.484375 83.980469 C 64.355469 82.648438 64.402344 81.3125 64.824219 80.019531 C 65.15625 79.011719 65.808594 78.269531 66.804688 77.925781 C 68.019531 77.507812 69.261719 77.160156 70.503906 76.828125 C 71.699219 76.507812 72.914062 76.246094 74.160156 75.949219 C 74.359375 75.253906 74.570312 74.566406 74.761719 73.871094 C 76.382812 68.023438 78.394531 62.3125 80.871094 56.769531 C 82.273438 53.621094 83.886719 50.589844 85.980469 47.839844 C 86.933594 46.589844 88.03125 45.488281 89.253906 44.503906 C 90.78125 43.277344 92.503906 42.472656 94.441406 42.144531 C 95.210938 42.015625 95.988281 42.019531 96.722656 42.265625 C 97.554688 42.546875 98.382812 42.863281 99.164062 43.261719 C 100.328125 43.855469 100.597656 44.585938 100.257812 45.847656 C 100.222656 45.980469 100.179688 46.109375 100.132812 46.234375 C 98.34375 51.171875 96.957031 56.230469 95.664062 61.3125 C 94.375 66.375 93.242188 71.472656 92.335938 76.617188 C 91.867188 79.265625 91.503906 81.933594 91.191406 84.605469 C 90.828125 87.703125 90.492188 90.808594 90.292969 93.917969 C 90.121094 96.667969 90.125 99.433594 90.113281 102.191406 C 90.109375 103.339844 90.253906 104.488281 90.363281 105.636719 C 90.433594 106.394531 90.234375 107.03125 89.644531 107.515625 C 89.332031 107.769531 89 108.015625 88.636719 108.195312 C 87.152344 108.925781 85.613281 109.511719 84 109.894531 C 83.378906 110.039062 82.742188 110.074219 82.125 109.878906 C 81.074219 109.550781 80.410156 108.824219 80.066406 107.792969 C 79.808594 107.035156 79.738281 106.238281 79.785156 105.449219 C 79.875 103.890625 79.980469 102.332031 80.136719 100.785156 C 80.847656 93.890625 82.226562 87.109375 83.519531 80.316406 C 83.539062 80.230469 83.542969 80.140625 83.558594 80.011719 C 83.414062 80.011719 83.28125 79.984375 83.164062 80.015625 C 81.5 80.421875 79.839844 80.859375 78.164062 81.246094 C 77.726562 81.351562 77.550781 81.570312 77.421875 81.984375 C 76.371094 85.277344 75.363281 88.589844 74.203125 91.847656 C 72.898438 95.515625 71.277344 99.054688 69.210938 102.371094 C 67.785156 104.664062 66.171875 106.816406 64.246094 108.714844 C 63.082031 109.863281 61.804688 110.871094 60.355469 111.644531 C 55.53125 114.214844 50.128906 112.777344 47.21875 108.148438 C 45.980469 106.171875 45.308594 103.996094 45.078125 101.699219 C 44.558594 96.476562 45.714844 91.632812 48.53125 87.195312 C 49.507812 85.660156 50.671875 84.277344 52.117188 83.152344 C 53.496094 82.082031 55.007812 81.304688 56.777344 81.121094 C 58.1875 80.972656 59.46875 81.300781 60.621094 82.125 C 62.25 83.289062 63.1875 84.914062 63.613281 86.828125 C 64.179688 89.351562 64.066406 91.863281 63.210938 94.316406 C 62.507812 96.332031 61.269531 97.984375 59.675781 99.375 C 59.207031 99.78125 58.675781 100.054688 58.066406 100.207031 C 57.566406 100.332031 57.113281 100.269531 56.703125 99.996094 C 55.546875 99.234375 54.695312 98.183594 53.988281 97.011719 C 53.804688 96.703125 53.878906 96.453125 54.132812 96.167969 C 54.894531 95.304688 55.648438 94.429688 56.34375 93.511719 C 57.285156 92.273438 57.949219 90.886719 58.261719 89.355469 C 58.355469 88.898438 58.378906 88.414062 58.363281 87.945312 C 58.351562 87.664062 58.238281 87.371094 58.105469 87.117188 C 57.910156 86.738281 57.65625 86.628906 57.257812 86.765625 C 56.945312 86.875 56.640625 87.046875 56.382812 87.257812 C 55.652344 87.847656 55.136719 88.621094 54.671875 89.429688 C 53.714844 91.097656 53.171875 92.914062 52.808594 94.789062 C 52.277344 97.566406 52.222656 100.359375 52.65625 103.15625 C 52.796875 104.078125 53.027344 104.96875 53.496094 105.789062 C 54.070312 106.800781 54.921875 107.425781 56.074219 107.5625 C 56.464844 107.609375 56.898438 107.570312 57.265625 107.4375 C 57.832031 107.226562 58.394531 106.960938 58.894531 106.625 C 60.703125 105.398438 62.292969 103.941406 63.578125 102.148438 C 65.660156 99.246094 67.296875 96.109375 68.667969 92.820312 C 69.921875 89.8125 70.976562 86.734375 71.914062 83.613281 C 71.957031 83.46875 71.984375 83.320312 72.039062 83.101562 " fill-opacity="1" fill-rule="nonzero"/><g clip-path="url(#9a21ece583)"><path fill="#88c0fa" d="M 51.820312 146.839844 C 51.835938 146.839844 51.886719 146.863281 51.917969 146.84375 C 52.097656 146.75 52.273438 146.648438 52.441406 146.539062 C 54.46875 145.199219 55.765625 143.285156 56.554688 141.039062 C 57.648438 137.933594 57.929688 134.738281 57.351562 131.484375 C 57.152344 130.367188 56.867188 129.273438 56.332031 128.265625 C 55.5625 126.804688 54.414062 125.820312 52.757812 125.519531 C 52.480469 125.472656 52.195312 125.488281 51.820312 125.46875 C 51.820312 132.652344 51.820312 139.742188 51.820312 146.839844 Z M 51.71875 170.210938 C 52.03125 170.09375 52.328125 170.007812 52.601562 169.875 C 55.199219 168.589844 56.894531 166.46875 58.070312 163.890625 C 59.121094 161.578125 59.386719 159.105469 59.257812 156.601562 C 59.183594 155.183594 58.925781 153.773438 58.367188 152.445312 C 58.132812 151.882812 57.832031 151.363281 57.351562 150.933594 C 55.597656 151.949219 53.738281 152.621094 51.71875 153.050781 C 51.71875 158.753906 51.71875 164.441406 51.71875 170.210938 Z M 63.664062 145.492188 C 64.160156 146.058594 64.644531 146.566406 65.078125 147.117188 C 66.761719 149.273438 67.632812 151.777344 68.125 154.433594 C 69.308594 160.878906 66.085938 167.785156 61.578125 171.539062 C 58.554688 174.054688 55.144531 175.59375 51.246094 176.109375 C 49.554688 176.332031 47.878906 176.457031 46.195312 176.089844 C 45.121094 175.851562 44.117188 175.480469 43.285156 174.726562 C 42.722656 174.214844 42.429688 173.636719 42.433594 172.828125 C 42.480469 163.957031 42.488281 155.085938 42.523438 146.214844 C 42.550781 139.085938 42.609375 131.960938 42.613281 124.832031 C 42.613281 123.679688 43.101562 122.953125 44.070312 122.453125 C 46.046875 121.4375 48.148438 120.894531 50.355469 120.679688 C 52.355469 120.484375 54.339844 120.511719 56.28125 121.03125 C 60.613281 122.191406 63.628906 124.859375 65.261719 129.066406 C 65.742188 130.296875 66.054688 131.570312 66.175781 132.878906 C 66.300781 134.183594 66.378906 135.496094 66.367188 136.804688 C 66.347656 139.910156 65.5 142.78125 63.726562 145.355469 C 63.703125 145.390625 63.6875 145.4375 63.664062 145.492188 " fill-opacity="1" fill-rule="nonzero"/></g><path fill="#88c0fa" d="M 178.210938 106.585938 C 178.210938 113.332031 178.210938 120.070312 178.210938 126.914062 C 178.5625 126.84375 178.859375 126.789062 179.15625 126.722656 C 181.082031 126.320312 183 125.910156 184.925781 125.511719 C 185.210938 125.449219 185.507812 125.421875 185.796875 125.421875 C 186.609375 125.414062 187.226562 125.792969 187.300781 126.589844 C 187.410156 127.796875 187.429688 129.03125 187.292969 130.230469 C 187.203125 131.039062 186.527344 131.535156 185.695312 131.699219 C 184.101562 132.011719 182.503906 132.308594 180.90625 132.625 C 180.023438 132.800781 179.144531 133.003906 178.234375 133.199219 C 178.234375 138 178.234375 142.765625 178.234375 147.609375 C 178.710938 147.523438 179.148438 147.445312 179.585938 147.367188 C 182.828125 146.765625 186.0625 146.140625 189.3125 145.574219 C 190.21875 145.417969 191.15625 145.40625 192.082031 145.386719 C 192.898438 145.371094 193.324219 145.730469 193.542969 146.523438 C 193.605469 146.761719 193.652344 147.015625 193.65625 147.257812 C 193.65625 148.1875 193.636719 149.113281 193.621094 150.039062 C 193.605469 150.886719 193.207031 151.472656 192.386719 151.695312 C 191.207031 152.007812 190.03125 152.34375 188.835938 152.558594 C 184.519531 153.324219 180.199219 154.03125 175.882812 154.785156 C 174.101562 155.097656 172.324219 155.414062 170.511719 155.496094 C 169.027344 155.5625 168.113281 154.90625 167.777344 153.441406 C 167.660156 152.9375 167.589844 152.414062 167.585938 151.898438 C 167.464844 138.597656 167.355469 125.292969 167.246094 111.988281 C 167.226562 109.835938 167.207031 107.6875 167.195312 105.539062 C 167.183594 103.867188 167.730469 103.089844 169.292969 102.433594 C 170.660156 101.855469 172.113281 101.636719 173.5625 101.410156 C 177.023438 100.875 180.484375 100.339844 183.949219 99.847656 C 185.378906 99.644531 186.820312 99.53125 188.261719 99.421875 C 189.191406 99.347656 189.753906 99.933594 189.71875 100.871094 C 189.683594 101.730469 189.644531 102.585938 189.59375 103.445312 C 189.546875 104.191406 189.230469 104.625 188.496094 104.808594 C 187.777344 104.988281 187.035156 105.082031 186.296875 105.199219 C 183.734375 105.621094 181.171875 106.039062 178.609375 106.460938 C 178.476562 106.480469 178.351562 106.539062 178.210938 106.585938 " fill-opacity="1" fill-rule="nonzero"/><g clip-path="url(#9b8a5bbe90)"><path fill="#88c0fa" d="M 219.921875 184.414062 C 219.304688 182.835938 218.699219 181.285156 218.089844 179.730469 C 218.183594 179.613281 218.238281 179.515625 218.320312 179.441406 C 222.832031 175.382812 227.789062 172.03125 233.511719 169.921875 C 236.300781 168.894531 239.160156 168.140625 242.125 167.855469 C 243.679688 167.707031 245.234375 167.757812 246.796875 167.875 C 248.289062 167.988281 249.746094 168.257812 251.195312 168.621094 C 256.941406 170.0625 261.546875 175.238281 262.21875 181.503906 C 262.941406 188.222656 260.339844 193.511719 255.476562 197.859375 C 252.5 200.523438 249.007812 202.261719 245.050781 202.894531 C 241.816406 203.414062 238.605469 203.328125 235.558594 201.878906 C 234.554688 201.402344 233.613281 200.816406 232.800781 200.046875 C 229.777344 197.195312 228.953125 193.742188 230.214844 189.832031 C 231.664062 185.339844 236 182.105469 240.714844 181.894531 C 242.851562 181.796875 244.789062 182.410156 246.453125 183.757812 C 247.996094 185.011719 248.808594 186.660156 248.734375 188.675781 C 248.695312 189.75 248.300781 190.699219 247.527344 191.476562 C 246.761719 192.242188 245.8125 192.539062 244.757812 192.53125 C 244.597656 192.53125 244.386719 192.460938 244.285156 192.34375 C 243.53125 191.515625 242.554688 191.121094 241.492188 190.941406 C 240.179688 190.714844 238.867188 190.789062 237.632812 191.332031 C 237.144531 191.546875 236.675781 191.847656 236.269531 192.195312 C 234.664062 193.574219 235.175781 195.375 236.21875 196.425781 C 236.820312 197.03125 237.554688 197.457031 238.378906 197.648438 C 239.121094 197.820312 239.886719 197.925781 240.648438 197.972656 C 242.550781 198.09375 244.367188 197.6875 246.140625 197 C 248.214844 196.195312 249.828125 194.84375 251.105469 193.046875 C 252.46875 191.125 253.359375 189.007812 253.566406 186.664062 C 253.832031 183.636719 252.96875 180.953125 250.84375 178.707031 C 249.984375 177.800781 248.945312 177.183594 247.816406 176.703125 C 244.863281 175.441406 241.792969 174.792969 238.570312 175.019531 C 236.503906 175.167969 234.503906 175.636719 232.59375 176.4375 C 228.097656 178.320312 223.980469 180.824219 220.371094 184.121094 C 220.289062 184.199219 220.203125 184.273438 220.117188 184.34375 C 220.101562 184.359375 220.074219 184.363281 219.921875 184.414062 " fill-opacity="1" fill-rule="nonzero"/></g><path fill="#88c0fa" d="M 128.90625 114.019531 C 128.867188 120.914062 128.824219 127.78125 128.785156 134.742188 C 129.738281 134.59375 130.585938 134.476562 131.425781 134.328125 C 132.605469 134.121094 133.777344 133.878906 134.953125 133.660156 C 136.167969 133.429688 136.824219 133.910156 136.910156 135.15625 C 136.964844 135.921875 136.960938 136.695312 136.925781 137.460938 C 136.882812 138.433594 136.429688 138.972656 135.472656 139.148438 C 134.074219 139.410156 132.664062 139.609375 131.261719 139.832031 C 130.460938 139.957031 129.660156 140.074219 128.8125 140.203125 C 128.8125 145.585938 128.8125 150.910156 128.8125 156.320312 C 129.632812 156.1875 130.429688 156.066406 131.222656 155.925781 C 133.734375 155.480469 136.246094 155.019531 138.757812 154.582031 C 139.199219 154.503906 139.660156 154.476562 140.109375 154.496094 C 140.707031 154.515625 141.132812 154.886719 141.253906 155.46875 C 141.433594 156.339844 141.476562 157.222656 141.335938 158.101562 C 141.167969 159.125 140.746094 159.558594 139.726562 159.75 C 138.171875 160.046875 136.617188 160.335938 135.058594 160.597656 C 130.761719 161.324219 126.460938 162.035156 122.160156 162.742188 C 120.28125 163.054688 118.996094 161.992188 119.003906 160.089844 C 119.023438 155.542969 119.070312 150.996094 119.105469 146.449219 C 119.160156 139.933594 119.214844 133.417969 119.265625 126.902344 C 119.300781 122.332031 119.332031 117.761719 119.367188 113.191406 C 119.371094 112.851562 119.378906 112.511719 119.421875 112.175781 C 119.554688 111.125 120.257812 110.328125 121.292969 110.101562 C 124.84375 109.324219 128.394531 108.542969 131.953125 107.808594 C 133.855469 107.414062 135.769531 107.097656 137.6875 106.773438 C 138.171875 106.691406 138.675781 106.675781 139.171875 106.6875 C 139.917969 106.703125 140.40625 107.070312 140.589844 107.808594 C 140.714844 108.308594 140.75 108.832031 140.785156 109.351562 C 140.804688 109.6875 140.753906 110.027344 140.738281 110.363281 C 140.6875 111.457031 140.371094 111.878906 139.320312 112.128906 C 138.464844 112.335938 137.601562 112.515625 136.734375 112.664062 C 134.285156 113.089844 131.835938 113.492188 129.386719 113.902344 C 129.234375 113.929688 129.085938 113.976562 128.90625 114.019531 " fill-opacity="1" fill-rule="nonzero"/><path fill="#88c0fa" d="M 152.945312 146.132812 C 153.019531 145.671875 153.105469 145.207031 153.164062 144.746094 C 153.59375 141.539062 154.011719 138.335938 154.441406 135.132812 C 154.917969 131.59375 155.402344 128.058594 155.878906 124.519531 C 156.265625 121.652344 156.636719 118.78125 157.019531 115.914062 C 157.449219 112.710938 157.886719 109.511719 158.320312 106.304688 C 158.386719 105.8125 158.480469 105.320312 158.5 104.828125 C 158.53125 103.96875 158.988281 103.425781 159.730469 103.125 C 160.898438 102.65625 162.128906 102.457031 163.378906 102.511719 C 164.226562 102.546875 164.722656 103.117188 164.761719 103.976562 C 164.820312 105.304688 164.5 106.582031 164.273438 107.871094 C 163.480469 112.367188 162.652344 116.859375 161.890625 121.363281 C 161.195312 125.464844 160.558594 129.578125 159.90625 133.6875 C 159.382812 136.992188 158.890625 140.300781 158.359375 143.605469 C 157.996094 145.835938 157.59375 148.0625 157.195312 150.285156 C 156.878906 152.066406 156.542969 153.839844 156.210938 155.617188 C 156.183594 155.773438 156.121094 155.921875 156.085938 156.074219 C 155.929688 156.824219 155.441406 157.265625 154.734375 157.4375 C 153.4375 157.753906 152.136719 158.039062 150.832031 158.304688 C 150.414062 158.390625 149.980469 158.421875 149.554688 158.402344 C 148.304688 158.351562 147.4375 157.796875 147 156.554688 C 145.847656 153.269531 144.679688 149.992188 143.777344 146.625 C 142.058594 140.230469 140.304688 133.84375 138.640625 127.433594 C 137.714844 123.871094 136.945312 120.265625 136.097656 116.679688 C 135.925781 115.960938 136.203125 115.417969 136.765625 115.042969 C 137.171875 114.769531 137.640625 114.554688 138.113281 114.425781 C 139.722656 113.980469 141.339844 113.554688 142.964844 113.179688 C 144.058594 112.929688 144.496094 113.222656 144.792969 114.332031 C 145.800781 118.085938 146.828125 121.835938 147.773438 125.605469 C 149.429688 132.226562 151.03125 138.863281 152.65625 145.488281 C 152.710938 145.707031 152.785156 145.917969 152.847656 146.132812 C 152.878906 146.132812 152.914062 146.132812 152.945312 146.132812 " fill-opacity="1" fill-rule="nonzero"/><path fill="#88c0fa" d="M 80.660156 147.660156 C 80.660156 152.851562 80.660156 157.996094 80.660156 163.210938 C 81.480469 163.046875 82.253906 162.90625 83.027344 162.746094 C 85.28125 162.273438 87.53125 161.792969 89.785156 161.3125 C 91.050781 161.046875 91.515625 161.375 91.585938 162.664062 C 91.636719 163.5 91.640625 164.339844 91.609375 165.171875 C 91.578125 165.992188 91.292969 166.710938 90.230469 166.914062 C 88.8125 167.183594 87.402344 167.507812 85.980469 167.773438 C 82.207031 168.484375 78.429688 169.179688 74.65625 169.878906 C 72.625 170.253906 71.097656 168.96875 71.097656 166.867188 C 71.097656 158.949219 71.101562 151.03125 71.109375 143.113281 C 71.117188 135.917969 71.128906 128.722656 71.140625 121.527344 C 71.140625 121.324219 71.140625 121.121094 71.140625 120.917969 C 71.15625 119.207031 71.988281 118.097656 73.667969 117.6875 C 75.113281 117.332031 76.574219 117.035156 78.042969 116.761719 C 80.859375 116.230469 83.6875 115.746094 86.507812 115.222656 C 87.417969 115.054688 88.316406 114.808594 89.222656 114.628906 C 90.285156 114.421875 91.007812 114.878906 91.113281 115.929688 C 91.203125 116.867188 91.214844 117.832031 91.128906 118.769531 C 91.023438 119.882812 90.535156 120.335938 89.402344 120.542969 C 88.070312 120.792969 86.734375 121.007812 85.398438 121.230469 C 83.996094 121.464844 82.589844 121.695312 81.1875 121.929688 C 81.011719 121.957031 80.839844 122.023438 80.648438 122.074219 C 80.648438 128.714844 80.648438 135.335938 80.648438 142.027344 C 80.878906 141.992188 81.074219 141.976562 81.265625 141.929688 C 83.152344 141.480469 85.039062 141.027344 86.929688 140.574219 C 87.191406 140.511719 87.457031 140.433594 87.722656 140.398438 C 88.394531 140.3125 88.890625 140.632812 89.011719 141.304688 C 89.117188 141.902344 89.136719 142.515625 89.171875 143.125 C 89.195312 143.53125 89.1875 143.9375 89.171875 144.347656 C 89.140625 145.289062 88.828125 145.710938 87.90625 145.933594 C 85.601562 146.496094 83.292969 147.03125 80.984375 147.574219 C 80.898438 147.597656 80.8125 147.621094 80.660156 147.660156 " fill-opacity="1" fill-rule="nonzero"/><path fill="#88c0fa" d="M 192.566406 255.800781 C 192.871094 255.6875 193.082031 255.617188 193.285156 255.53125 C 194.566406 255.007812 195.628906 254.175781 196.546875 253.15625 C 198.640625 250.828125 200.089844 248.144531 200.914062 245.125 C 201.148438 244.273438 201.296875 243.402344 201.238281 242.511719 C 201.167969 241.382812 200.359375 240.839844 199.308594 241.265625 C 198.898438 241.433594 198.507812 241.6875 198.164062 241.964844 C 196.976562 242.917969 196.136719 244.148438 195.421875 245.472656 C 194.023438 248.074219 193.277344 250.882812 192.828125 253.78125 C 192.730469 254.421875 192.660156 255.066406 192.566406 255.800781 Z M 192.5 260.863281 C 192.691406 262.695312 192.976562 264.449219 193.78125 266.074219 C 193.898438 266.316406 194.050781 266.546875 194.210938 266.765625 C 195.296875 268.277344 197.015625 268.734375 198.710938 267.957031 C 199.972656 267.378906 200.964844 266.457031 201.820312 265.386719 C 203.539062 263.242188 204.921875 260.878906 206.242188 258.480469 C 207.320312 256.519531 208.363281 254.535156 209.421875 252.566406 C 209.519531 252.386719 209.621094 252.203125 209.753906 252.054688 C 210.042969 251.734375 210.402344 251.554688 210.84375 251.660156 C 212.542969 252.0625 213.921875 252.941406 214.871094 254.429688 C 215.3125 255.117188 215.375 255.875 215.089844 256.640625 C 214.925781 257.085938 214.734375 257.523438 214.503906 257.9375 C 212.46875 261.5625 210.058594 264.917969 207.207031 267.945312 C 205.550781 269.699219 203.707031 271.226562 201.511719 272.277344 C 199.726562 273.128906 197.878906 273.785156 195.875 273.867188 C 192.925781 273.988281 190.433594 272.9375 188.363281 270.863281 C 186.4375 268.929688 185.289062 266.558594 184.699219 263.933594 C 183.386719 258.058594 183.917969 252.332031 186.25 246.78125 C 187.492188 243.820312 189.078125 241.066406 191.300781 238.71875 C 192.632812 237.308594 194.136719 236.140625 195.929688 235.34375 C 200.953125 233.117188 205.074219 236.613281 205.863281 240.707031 C 206.277344 242.859375 206.003906 244.941406 205.382812 247 C 204.355469 250.40625 202.675781 253.453125 200.335938 256.132812 C 198.332031 258.433594 195.878906 260.003906 192.898438 260.71875 C 192.789062 260.746094 192.683594 260.796875 192.5 260.863281 " fill-opacity="1" fill-rule="nonzero"/><path fill="#88c0fa" d="M 234.285156 99.722656 C 222.210938 99.667969 212.648438 109.558594 212.589844 121.289062 C 212.535156 132.976562 221.929688 142.976562 234.074219 143.074219 C 246.410156 143.175781 256.023438 133.113281 255.9375 121.261719 C 255.855469 109.269531 246.070312 99.671875 234.285156 99.722656 Z M 234.246094 146.980469 C 219.699219 146.824219 208.6875 135.191406 208.710938 121.304688 C 208.738281 107.140625 220.273438 95.722656 234.488281 95.835938 C 248.332031 95.945312 259.894531 107.054688 259.804688 121.550781 C 259.71875 135.886719 248.238281 146.878906 234.246094 146.980469 " fill-opacity="1" fill-rule="nonzero"/><path fill="#88c0fa" d="M 102.742188 159.957031 C 103.796875 159.828125 104.738281 159.730469 105.671875 159.589844 C 108.550781 159.144531 111.429688 158.683594 114.308594 158.234375 C 115.304688 158.078125 115.890625 158.558594 115.90625 159.546875 C 115.914062 160.089844 115.925781 160.636719 115.890625 161.175781 C 115.804688 162.417969 115.371094 163 114.167969 163.289062 C 113.117188 163.539062 112.035156 163.679688 110.964844 163.855469 C 106.660156 164.5625 102.359375 165.269531 98.050781 165.957031 C 97.296875 166.078125 96.527344 166.121094 95.765625 166.160156 C 95.203125 166.1875 94.71875 165.953125 94.261719 165.628906 C 93.824219 165.320312 93.667969 164.917969 93.667969 164.410156 C 93.671875 162.9375 93.660156 161.464844 93.660156 159.996094 C 93.660156 152.640625 93.664062 145.285156 93.652344 137.933594 C 93.644531 130.507812 93.625 123.085938 93.609375 115.664062 C 93.609375 114.550781 93.949219 114.058594 95.003906 113.828125 C 97.128906 113.375 99.273438 113.070312 101.445312 112.96875 C 101.625 112.960938 101.808594 112.957031 101.988281 112.984375 C 102.488281 113.066406 102.785156 113.394531 102.828125 113.902344 C 102.847656 114.128906 102.832031 114.355469 102.832031 114.582031 C 102.800781 129.335938 102.773438 144.089844 102.742188 158.84375 C 102.742188 159.179688 102.742188 159.515625 102.742188 159.957031 " fill-opacity="1" fill-rule="nonzero"/><path fill="#88c0fa" d="M 115.546875 132.894531 C 115.546875 139.300781 115.546875 145.703125 115.546875 152.109375 C 115.546875 152.378906 115.558594 152.652344 115.566406 152.921875 C 115.585938 153.734375 115.292969 154.21875 114.503906 154.449219 C 113.726562 154.671875 112.929688 154.855469 112.125 154.972656 C 111.035156 155.136719 109.933594 155.265625 108.832031 155.320312 C 107.816406 155.371094 107.289062 154.933594 107.046875 153.929688 C 106.929688 153.425781 106.839844 152.902344 106.835938 152.390625 C 106.816406 140.035156 106.808594 127.679688 106.808594 115.324219 C 106.808594 114.804688 106.859375 114.285156 106.933594 113.773438 C 107.039062 113.019531 107.484375 112.5625 108.234375 112.394531 C 110.269531 111.941406 112.320312 111.628906 114.414062 111.699219 C 115.203125 111.726562 115.558594 112.066406 115.558594 112.804688 C 115.5625 119.5 115.5625 126.199219 115.5625 132.894531 C 115.554688 132.894531 115.550781 132.894531 115.546875 132.894531 " fill-opacity="1" fill-rule="nonzero"/><path fill="#88c0fa" d="M 156.386719 45.671875 C 158.132812 44.976562 159.839844 44.316406 161.527344 43.617188 C 168.023438 40.929688 174.601562 38.457031 181.199219 36.03125 C 183.625 35.140625 186.109375 34.464844 188.671875 34.117188 C 191.632812 33.710938 194.589844 33.6875 197.46875 34.605469 C 198.410156 34.90625 199.316406 35.339844 200.1875 35.808594 C 201.140625 36.316406 201.867188 37.105469 202.421875 38.035156 C 203.542969 39.902344 203.429688 41.742188 202.226562 43.519531 C 201.519531 44.558594 200.496094 45.226562 199.351562 45.707031 C 198.769531 45.953125 198.277344 45.816406 197.800781 45.382812 C 195.847656 43.59375 193.527344 42.667969 190.886719 42.441406 C 186.054688 42.019531 181.339844 42.683594 176.644531 43.757812 C 171.222656 44.992188 166.074219 47.019531 160.925781 49.0625 C 159.875 49.476562 158.816406 49.871094 157.761719 50.273438 C 157.660156 50.308594 157.554688 50.328125 157.386719 50.375 C 157.054688 48.800781 156.726562 47.261719 156.386719 45.671875 " fill-opacity="1" fill-rule="nonzero"/><g clip-path="url(#9f4a98e33f)"><path fill="#88c0fa" d="M 94.210938 36.023438 C 93.289062 36.226562 92.40625 36.421875 91.484375 36.625 C 91.484375 36.273438 91.425781 35.933594 91.492188 35.617188 C 92.28125 32.015625 94.265625 29.363281 97.738281 27.976562 C 100.0625 27.050781 102.3125 27.503906 104.488281 28.550781 C 104.671875 28.640625 104.847656 28.738281 105.03125 28.828125 C 105.046875 28.839844 105.074219 28.820312 105.136719 28.804688 C 105.136719 28.625 105.152344 28.429688 105.136719 28.234375 C 104.890625 25.296875 105.359375 22.453125 106.40625 19.714844 C 107.773438 16.148438 110.066406 13.371094 113.667969 11.882812 C 117.277344 10.390625 120.789062 10.707031 124.117188 12.753906 C 125.507812 13.613281 126.519531 14.871094 127.441406 16.199219 C 128.597656 17.863281 129.375 19.722656 130.132812 21.589844 C 130.214844 21.792969 130.308594 21.992188 130.429688 22.261719 C 130.601562 22.015625 130.722656 21.832031 130.851562 21.65625 C 133.328125 18.183594 136.710938 16.394531 140.960938 16.425781 C 145.15625 16.457031 148.867188 20.257812 149.34375 23.84375 C 149.5 24.996094 149.445312 26.132812 149.015625 27.300781 C 148.125 27.101562 147.273438 26.917969 146.378906 26.71875 C 146.398438 26.558594 146.398438 26.449219 146.425781 26.347656 C 146.921875 24.675781 146.570312 23.15625 145.511719 21.816406 C 144.558594 20.601562 143.390625 19.652344 141.824219 19.320312 C 141.019531 19.152344 140.199219 19.105469 139.398438 19.273438 C 137.023438 19.761719 134.941406 20.777344 133.476562 22.789062 C 133.070312 23.347656 132.78125 23.996094 132.457031 24.617188 C 132.226562 25.054688 132.082031 25.546875 131.808594 25.953125 C 131.050781 27.078125 129.671875 27.050781 128.960938 25.894531 C 128.664062 25.421875 128.453125 24.886719 128.234375 24.367188 C 127.722656 23.136719 127.25 21.886719 126.722656 20.664062 C 126.003906 18.988281 125.078125 17.445312 123.816406 16.113281 C 122.472656 14.695312 120.792969 13.976562 118.886719 13.820312 C 115.347656 13.53125 112.621094 15.03125 110.546875 17.824219 C 109.238281 19.585938 108.554688 21.613281 108.152344 23.75 C 107.726562 25.976562 107.78125 28.203125 108.214844 30.425781 C 108.292969 30.820312 108.332031 31.234375 108.308594 31.636719 C 108.238281 32.867188 107.070312 33.570312 105.972656 33.011719 C 105.457031 32.75 105.003906 32.351562 104.554688 31.976562 C 103.851562 31.394531 103.105469 30.921875 102.234375 30.613281 C 100.101562 29.855469 98.273438 30.402344 96.644531 31.835938 C 95.589844 32.765625 94.84375 33.914062 94.441406 35.277344 C 94.371094 35.511719 94.296875 35.75 94.210938 36.023438 " fill-opacity="1" fill-rule="nonzero"/></g><path fill="#88c0fa" d="M 179.714844 23.183594 C 180.171875 22.789062 180.5625 22.453125 180.957031 22.113281 C 182.292969 20.960938 183.621094 19.804688 184.964844 18.664062 C 185.273438 18.402344 185.613281 18.160156 185.976562 17.984375 C 187.019531 17.476562 188.082031 17.957031 188.355469 19.085938 C 188.464844 19.535156 188.503906 20.039062 188.429688 20.492188 C 188.015625 23.035156 187.554688 25.570312 187.117188 28.109375 C 187.078125 28.34375 186.964844 28.457031 186.734375 28.515625 C 185.90625 28.71875 185.078125 28.941406 184.15625 29.179688 C 184.441406 26.761719 184.964844 24.457031 185.351562 22.015625 C 185.128906 22.175781 184.980469 22.261719 184.855469 22.371094 C 183.871094 23.234375 182.894531 24.109375 181.902344 24.96875 C 181.542969 25.277344 181.164062 25.574219 180.761719 25.816406 C 179.738281 26.4375 178.683594 26.285156 177.886719 25.386719 C 177.5625 25.019531 177.300781 24.585938 177.058594 24.15625 C 176.230469 22.683594 175.765625 21.074219 175.335938 19.457031 C 175.109375 18.601562 174.890625 17.75 174.664062 16.898438 C 174.628906 16.773438 174.582031 16.652344 174.492188 16.382812 C 174.375 16.699219 174.300781 16.886719 174.238281 17.078125 C 173.335938 19.875 172.449219 22.675781 171.519531 25.464844 C 171.289062 26.167969 170.949219 26.839844 170.617188 27.507812 C 170.445312 27.847656 170.214844 28.171875 169.957031 28.449219 C 169.222656 29.246094 168.171875 29.398438 167.246094 28.839844 C 166.878906 28.625 166.53125 28.347656 166.242188 28.042969 C 165.484375 27.234375 164.746094 26.40625 164.027344 25.566406 C 162.089844 23.292969 160.167969 21.007812 158.234375 18.730469 C 158.050781 18.511719 157.84375 18.308594 157.574219 18.148438 C 158.433594 21.199219 159.3125 24.246094 160.140625 27.304688 C 160.964844 30.359375 161.511719 33.476562 162.058594 36.660156 C 161.199219 36.992188 160.363281 37.316406 159.488281 37.660156 C 159.429688 37.457031 159.359375 37.292969 159.332031 37.121094 C 158.265625 30.378906 156.449219 23.828125 154.339844 17.347656 C 154.117188 16.664062 153.929688 15.957031 153.832031 15.246094 C 153.777344 14.84375 153.867188 14.378906 154.027344 14.003906 C 154.355469 13.242188 155.214844 12.914062 156.035156 13.21875 C 156.492188 13.386719 156.945312 13.636719 157.324219 13.941406 C 157.941406 14.433594 158.550781 14.957031 159.066406 15.550781 C 161.445312 18.277344 163.789062 21.03125 166.148438 23.773438 C 166.753906 24.476562 167.371094 25.167969 167.988281 25.863281 C 168.042969 25.925781 168.128906 25.96875 168.261719 26.066406 C 168.453125 25.625 168.664062 25.226562 168.804688 24.804688 C 169.71875 22.03125 170.617188 19.261719 171.511719 16.488281 C 171.839844 15.476562 172.132812 14.453125 172.472656 13.449219 C 172.601562 13.066406 172.773438 12.6875 172.988281 12.347656 C 173.753906 11.171875 175.191406 11.144531 175.957031 12.308594 C 176.277344 12.792969 176.511719 13.355469 176.675781 13.910156 C 177.207031 15.707031 177.652344 17.535156 178.191406 19.328125 C 178.53125 20.449219 178.984375 21.535156 179.398438 22.636719 C 179.457031 22.800781 179.574219 22.941406 179.714844 23.183594 " fill-opacity="1" fill-rule="nonzero"/><path fill="#88c0fa" d="M 225.929688 241.929688 C 225.90625 241.953125 225.882812 241.980469 225.859375 242.003906 C 227.753906 244.082031 229.648438 246.160156 231.546875 248.238281 C 232.148438 247.535156 232.183594 247.179688 231.648438 246.515625 C 231.320312 246.117188 230.972656 245.71875 230.570312 245.402344 C 229.40625 244.476562 228.214844 243.585938 227.027344 242.691406 C 226.671875 242.421875 226.296875 242.183594 225.929688 241.929688 Z M 215.316406 235.046875 C 216.386719 234.4375 217.402344 233.859375 218.441406 233.265625 C 218.546875 233.328125 218.671875 233.382812 218.78125 233.460938 C 222.710938 236.246094 226.644531 239.023438 230.5625 241.824219 C 231.277344 242.332031 231.972656 242.890625 232.605469 243.496094 C 233.191406 244.058594 233.746094 244.667969 234.199219 245.335938 C 234.960938 246.449219 235.011719 247.679688 234.429688 248.886719 C 234.140625 249.488281 233.75 250.066406 233.296875 250.5625 C 232.242188 251.71875 231.015625 252.6875 229.671875 253.492188 C 229.363281 253.675781 229.027344 253.824219 228.6875 253.9375 C 227.535156 254.320312 226.46875 254.125 225.613281 253.269531 C 225.074219 252.730469 224.605469 252.105469 224.195312 251.460938 C 221.96875 247.945312 220.007812 244.273438 218.074219 240.589844 C 217.210938 238.949219 216.402344 237.28125 215.574219 235.621094 C 215.492188 235.460938 215.425781 235.292969 215.316406 235.046875 " fill-opacity="1" fill-rule="nonzero"/><path fill="#88c0fa" d="M 119 230.898438 C 118.90625 232.785156 118.636719 234.523438 118.273438 236.25 C 117.75 238.75 117.039062 241.199219 116.195312 243.613281 C 115.597656 245.328125 115.003906 245.777344 113.199219 245.714844 C 111.960938 245.675781 110.71875 245.570312 109.488281 245.433594 C 108.121094 245.285156 107.492188 244.5 107.617188 243.117188 C 107.734375 241.835938 107.953125 240.566406 108.058594 239.285156 C 108.164062 238 108.234375 236.710938 108.226562 235.425781 C 108.222656 234.1875 108.136719 232.941406 108.023438 231.707031 C 107.957031 231.015625 107.828125 230.316406 107.597656 229.664062 C 107.355469 228.984375 107.503906 228.476562 107.980469 228.007812 C 108.121094 227.867188 108.285156 227.734375 108.460938 227.636719 C 110.476562 226.542969 112.609375 225.84375 114.929688 225.964844 C 115.542969 225.996094 116.175781 226.195312 116.746094 226.441406 C 117.992188 226.980469 118.617188 228.03125 118.835938 229.332031 C 118.929688 229.890625 118.957031 230.457031 119 230.898438 " fill-opacity="1" fill-rule="nonzero"/><path fill="#88c0fa" d="M 240.445312 232.519531 C 240.800781 231.644531 240.710938 231.316406 239.960938 230.957031 C 238.496094 230.242188 236.886719 230.03125 235.3125 229.679688 C 237.007812 230.617188 238.707031 231.558594 240.445312 232.519531 Z M 224.910156 227.691406 C 225.648438 226.851562 226.332031 226.097656 226.984375 225.320312 C 227.230469 225.027344 227.5 225.101562 227.785156 225.160156 C 229.511719 225.507812 231.242188 225.832031 232.960938 226.214844 C 235.011719 226.675781 237.058594 227.152344 239.085938 227.691406 C 239.929688 227.917969 240.765625 228.25 241.535156 228.660156 C 243.074219 229.476562 243.714844 230.894531 243.34375 232.59375 C 243 234.203125 242.363281 235.695312 241.367188 237.015625 C 240.96875 237.542969 240.507812 238.003906 239.921875 238.335938 C 238.914062 238.902344 237.890625 238.96875 236.898438 238.351562 C 236.25 237.953125 235.625 237.492188 235.046875 236.988281 C 233.328125 235.484375 231.632812 233.953125 229.945312 232.414062 C 228.523438 231.121094 227.125 229.804688 225.71875 228.492188 C 225.457031 228.25 225.210938 227.988281 224.910156 227.691406 " fill-opacity="1" fill-rule="nonzero"/><path fill="#88c0fa" d="M 60.125 178.714844 C 60.777344 178.800781 61.417969 178.828125 62.023438 178.980469 C 63.804688 179.433594 64.585938 180.601562 64.246094 182.417969 C 63.898438 184.28125 63.449219 186.125 63.027344 187.972656 C 62.859375 188.699219 62.644531 189.414062 62.433594 190.128906 C 62.335938 190.453125 62.207031 190.769531 62.0625 191.074219 C 61.699219 191.839844 61.085938 192.269531 60.234375 192.242188 C 59.199219 192.210938 58.164062 192.132812 57.132812 192.027344 C 56.550781 191.964844 55.964844 191.855469 55.410156 191.683594 C 54.402344 191.375 53.945312 190.757812 54.023438 189.710938 C 54.109375 188.542969 54.289062 187.378906 54.453125 186.214844 C 54.710938 184.382812 54.992188 182.554688 55.257812 180.722656 C 55.339844 180.167969 55.597656 179.730469 56.105469 179.492188 C 56.449219 179.328125 56.816406 179.179688 57.1875 179.117188 C 58.164062 178.957031 59.152344 178.84375 60.125 178.714844 " fill-opacity="1" fill-rule="nonzero"/><path fill="#88c0fa" d="M 243.492188 212.9375 C 241.605469 213.363281 239.855469 213.851562 238.144531 214.5 C 239.84375 214.390625 241.542969 214.28125 243.277344 214.171875 C 243.347656 213.777344 243.410156 213.410156 243.492188 212.9375 Z M 231.527344 216.488281 C 231.652344 215.5 231.777344 214.515625 231.90625 213.488281 C 231.964844 213.453125 232.054688 213.375 232.152344 213.339844 C 235.640625 212.160156 239.160156 211.09375 242.746094 210.261719 C 243.261719 210.140625 243.824219 210.125 244.359375 210.164062 C 245.320312 210.234375 245.96875 210.855469 246.1875 211.796875 C 246.375 212.613281 246.269531 213.421875 246.105469 214.21875 C 245.816406 215.621094 245.300781 216.941406 244.644531 218.214844 C 243.964844 219.539062 242.894531 220.148438 241.429688 219.9375 C 240.519531 219.808594 239.601562 219.625 238.730469 219.332031 C 237.238281 218.824219 235.777344 218.214844 234.304688 217.640625 C 233.484375 217.324219 232.667969 216.996094 231.851562 216.667969 C 231.75 216.628906 231.65625 216.5625 231.527344 216.488281 " fill-opacity="1" fill-rule="nonzero"/><path fill="#88c0fa" d="M 256.089844 147.40625 C 256.585938 148.234375 257.035156 148.988281 257.519531 149.800781 C 254.121094 152.75 250.335938 154.980469 246.15625 156.554688 C 240.128906 158.824219 233.523438 159.324219 228.28125 158.511719 C 228.242188 157.632812 228.253906 156.742188 228.34375 155.785156 C 238.816406 157.054688 248.042969 154.28125 256.089844 147.40625 " fill-opacity="1" fill-rule="nonzero"/><path fill="#88c0fa" d="M 203.15625 27.664062 C 203.644531 27.539062 204.054688 27.429688 204.46875 27.328125 C 205.71875 27.019531 206.972656 27.003906 208.226562 27.324219 C 209.984375 27.777344 211.417969 28.71875 212.371094 30.277344 C 214.164062 33.214844 214.480469 36.242188 212.804688 39.351562 C 212.382812 40.136719 211.804688 40.785156 210.945312 41.292969 C 210.507812 40.464844 210.085938 39.675781 209.675781 38.90625 C 211.863281 36.539062 211.234375 33.324219 209.824219 31.5 C 208.785156 30.15625 207.355469 29.734375 205.730469 29.921875 C 205.109375 29.996094 204.5 30.207031 203.890625 30.367188 C 202.378906 30.761719 201.5 30.390625 200.730469 29.023438 C 200.5625 28.726562 200.421875 28.417969 200.269531 28.117188 C 200.167969 27.914062 200.082031 27.703125 199.953125 27.515625 C 198.851562 25.894531 197.992188 25.796875 196.566406 26.230469 C 196.394531 26.285156 196.230469 26.359375 196.011719 26.4375 C 195.355469 25.839844 194.691406 25.238281 193.992188 24.59375 C 194.15625 24.441406 194.269531 24.304688 194.414062 24.210938 C 195.597656 23.460938 196.902344 23.125 198.289062 23.265625 C 200.183594 23.457031 201.433594 24.628906 202.386719 26.171875 C 202.667969 26.632812 202.886719 27.132812 203.15625 27.664062 " fill-opacity="1" fill-rule="nonzero"/><path fill="#88c0fa" d="M 206.394531 143.132812 C 205.726562 143.855469 205.132812 144.5 204.488281 145.195312 C 199.957031 139.539062 197.273438 133.148438 196.417969 125.90625 C 197.363281 125.808594 198.230469 125.714844 199.167969 125.613281 C 199.960938 132.1875 202.386719 138.066406 206.394531 143.132812 " fill-opacity="1" fill-rule="nonzero"/><path fill="#88c0fa" d="M 56.601562 70.167969 C 56.503906 69.210938 56.417969 68.34375 56.328125 67.445312 C 60.65625 66.609375 64.941406 65.78125 69.332031 64.929688 C 69.027344 65.929688 68.777344 66.816406 68.480469 67.683594 C 68.433594 67.824219 68.1875 67.953125 68.015625 67.988281 C 65.492188 68.5 62.96875 69.003906 60.441406 69.492188 C 59.199219 69.730469 57.953125 69.929688 56.601562 70.167969 " fill-opacity="1" fill-rule="nonzero"/><path fill="#88c0fa" d="M 239.417969 85.265625 C 243.042969 85.886719 246.433594 86.984375 249.703125 88.613281 C 249.535156 89.546875 249.371094 90.445312 249.1875 91.453125 C 245.792969 89.707031 242.285156 88.527344 238.507812 87.925781 C 238.816406 87.027344 239.105469 86.183594 239.417969 85.265625 " fill-opacity="1" fill-rule="nonzero"/><path fill="#88c0fa" d="M 61.902344 58.667969 C 62.257812 57.769531 62.582031 56.9375 62.9375 56.035156 C 65.878906 56.929688 68.761719 57.804688 71.707031 58.703125 C 71.351562 59.558594 71.019531 60.363281 70.648438 61.25 C 67.722656 60.492188 64.902344 59.433594 61.902344 58.667969 " fill-opacity="1" fill-rule="nonzero"/><path fill="#88c0fa" d="M 67.238281 50.441406 C 67.796875 49.78125 68.363281 49.113281 68.988281 48.382812 C 70.84375 49.921875 72.660156 51.429688 74.523438 52.976562 C 74.117188 53.785156 73.722656 54.5625 73.289062 55.421875 C 73.070312 55.296875 72.867188 55.210938 72.707031 55.078125 C 70.929688 53.609375 69.15625 52.132812 67.386719 50.660156 C 67.339844 50.617188 67.3125 50.554688 67.238281 50.441406 " fill-opacity="1" fill-rule="nonzero"/><path fill="#88c0fa" d="M 234.199219 122.402344 C 234.199219 122.640625 234.195312 122.875 234.199219 123.113281 C 234.214844 126.960938 234.226562 130.804688 234.242188 134.652344 C 234.242188 134.878906 234.25 135.105469 234.234375 135.328125 C 234.171875 136.21875 233.570312 136.722656 232.722656 136.519531 C 232.066406 136.363281 231.429688 136.113281 230.8125 135.847656 C 230.269531 135.617188 229.992188 135.175781 229.984375 134.558594 C 229.972656 132.726562 229.941406 130.898438 229.929688 129.066406 C 229.894531 123.25 229.871094 117.4375 229.84375 111.621094 C 229.839844 111.351562 229.867188 111.078125 229.855469 110.808594 C 229.828125 110.136719 230.160156 109.683594 230.722656 109.394531 C 231.703125 108.902344 232.761719 108.804688 233.828125 108.90625 C 234.441406 108.960938 234.8125 109.441406 235.121094 109.917969 C 235.753906 110.882812 236.367188 111.859375 236.964844 112.84375 C 238.6875 115.660156 240.398438 118.484375 242.117188 121.304688 C 242.238281 121.507812 242.382812 121.699219 242.605469 122.027344 C 242.621094 121.742188 242.632812 121.621094 242.632812 121.496094 C 242.640625 117.808594 242.644531 114.121094 242.664062 110.433594 C 242.664062 109.984375 242.710938 109.53125 242.785156 109.085938 C 242.90625 108.351562 243.292969 107.972656 244.050781 107.90625 C 244.628906 107.855469 245.222656 107.859375 245.796875 107.933594 C 246.859375 108.070312 247.332031 108.664062 247.316406 109.734375 C 247.308594 110.140625 247.269531 110.546875 247.273438 110.953125 C 247.300781 117.832031 247.335938 124.707031 247.367188 131.585938 C 247.371094 131.96875 247.359375 132.355469 247.371094 132.738281 C 247.382812 133.367188 247.136719 133.886719 246.691406 134.3125 C 245.941406 135.035156 245.023438 135.472656 244.023438 135.714844 C 243.300781 135.894531 242.667969 135.648438 242.207031 135.074219 C 241.851562 134.636719 241.535156 134.164062 241.242188 133.683594 C 239.058594 130.113281 236.886719 126.539062 234.710938 122.964844 C 234.589844 122.765625 234.457031 122.570312 234.328125 122.371094 C 234.285156 122.382812 234.242188 122.390625 234.199219 122.402344 " fill-opacity="1" fill-rule="nonzero"/><path fill="#88c0fa" d="M 227.414062 122.03125 C 227.414062 125.8125 227.414062 129.589844 227.414062 133.367188 C 227.414062 133.570312 227.421875 133.773438 227.40625 133.976562 C 227.347656 134.722656 226.777344 135.242188 226.039062 135.175781 C 224.484375 135.042969 222.945312 134.804688 221.441406 134.378906 C 221.269531 134.328125 221.097656 134.265625 220.929688 134.195312 C 220.296875 133.929688 219.984375 133.449219 219.984375 132.765625 C 219.980469 131.816406 219.996094 130.867188 219.996094 129.917969 C 219.996094 123.808594 219.992188 117.699219 220 111.59375 C 220 111.167969 220.042969 110.734375 220.125 110.316406 C 220.234375 109.765625 220.558594 109.355469 221.140625 109.265625 C 221.785156 109.164062 222.4375 109.078125 223.089844 109.042969 C 224.035156 108.996094 224.988281 108.996094 225.9375 108.992188 C 226.15625 108.988281 226.390625 109.027344 226.601562 109.089844 C 227.21875 109.273438 227.449219 109.570312 227.453125 110.226562 C 227.464844 111.445312 227.457031 112.667969 227.457031 113.890625 C 227.457031 116.605469 227.457031 119.320312 227.457031 122.035156 C 227.441406 122.035156 227.425781 122.03125 227.414062 122.03125 " fill-opacity="1" fill-rule="nonzero"/></svg>