<svg xmlns="http://www.w3.org/2000/svg" xmlns:xlink="http://www.w3.org/1999/xlink" width="410" zoomAndPan="magnify" viewBox="0 0 307.5 307.500004" height="410" preserveAspectRatio="xMidYMid meet" version="1.0"><defs><clipPath id="b85c503d63"><path d="M 36.683594 108 L 82 108 L 82 182 L 36.683594 182 Z M 36.683594 108 " clip-rule="nonzero"/></clipPath><clipPath id="f1805b3315"><path d="M 122 232 L 162 232 L 162 299.9375 L 122 299.9375 Z M 122 232 " clip-rule="nonzero"/></clipPath><clipPath id="c6a2730ab4"><path d="M 153 244 L 183 244 L 183 299.9375 L 153 299.9375 Z M 153 244 " clip-rule="nonzero"/></clipPath><clipPath id="b41cad34da"><path d="M 135 7.4375 L 161 7.4375 L 161 51 L 135 51 Z M 135 7.4375 " clip-rule="nonzero"/></clipPath><clipPath id="a9985ef52d"><path d="M 229 133 L 260.933594 133 L 260.933594 174 L 229 174 Z M 229 133 " clip-rule="nonzero"/></clipPath></defs><path fill="#88c0fa" d="M 83.539062 221.429688 C 83.441406 220.363281 82.945312 219.011719 82.347656 218.273438 C 82.105469 217.976562 81.816406 217.695312 81.496094 217.484375 C 80.578125 216.890625 79.640625 216.949219 78.8125 217.621094 C 78.164062 218.144531 78.015625 218.882812 78.011719 219.664062 C 78.003906 220.816406 78.601562 221.597656 79.722656 221.851562 C 81.039062 222.148438 82.308594 221.890625 83.539062 221.429688 Z M 180.941406 184.847656 C 180.992188 184.84375 181.046875 184.835938 181.101562 184.832031 C 181.902344 183.078125 182.722656 181.335938 183.125 179.429688 C 183.335938 178.433594 183.414062 177.425781 183.175781 176.425781 C 183.070312 175.96875 182.867188 175.511719 182.617188 175.109375 C 182.304688 174.597656 181.835938 174.476562 181.304688 174.765625 C 180.9375 174.96875 180.574219 175.253906 180.320312 175.589844 C 179.664062 176.453125 179.347656 177.445312 179.308594 178.539062 C 179.238281 180.324219 179.683594 181.996094 180.375 183.617188 C 180.550781 184.03125 180.75 184.4375 180.941406 184.847656 Z M 185.058594 210.335938 C 184.902344 210.53125 184.78125 210.664062 184.679688 210.808594 C 182.847656 213.429688 181.429688 216.253906 180.5 219.316406 C 179.675781 222.046875 179.230469 224.828125 179.476562 227.691406 C 179.582031 228.914062 179.84375 230.105469 180.40625 231.203125 C 180.675781 231.730469 181 232.25 181.398438 232.683594 C 182.472656 233.867188 183.988281 233.933594 185.210938 232.90625 C 185.765625 232.441406 186.183594 231.863281 186.507812 231.222656 C 187.273438 229.703125 187.722656 228.082031 187.761719 226.386719 C 187.800781 224.804688 187.757812 223.210938 187.628906 221.632812 C 187.332031 218.019531 186.519531 214.511719 185.359375 211.078125 C 185.28125 210.847656 185.175781 210.625 185.058594 210.335938 Z M 227.484375 173.1875 C 227.582031 173.210938 227.667969 173.242188 227.753906 173.246094 C 229.222656 173.3125 230.695312 173.34375 232.160156 173.441406 C 235.117188 173.640625 238.070312 173.871094 241.023438 174.089844 C 241.160156 174.101562 241.296875 174.121094 241.433594 174.152344 C 242.640625 174.414062 243.039062 174.992188 242.847656 176.222656 C 242.660156 177.40625 242.46875 178.582031 242.273438 179.765625 C 242.246094 179.921875 242.207031 180.078125 242.164062 180.234375 C 241.832031 181.414062 241.171875 181.921875 239.941406 181.839844 C 239.09375 181.785156 238.253906 181.648438 237.414062 181.519531 C 233.960938 180.992188 230.507812 180.472656 227.015625 180.285156 C 226.496094 180.257812 225.972656 180.214844 225.457031 180.175781 C 225.386719 180.3125 225.328125 180.390625 225.304688 180.472656 C 223.898438 185.070312 222.453125 189.652344 221.101562 194.265625 C 219.792969 198.726562 218.746094 203.253906 218.039062 207.847656 C 217.78125 209.527344 217.707031 211.234375 217.53125 212.925781 C 217.351562 214.652344 217.464844 216.375 217.585938 218.09375 C 217.738281 220.265625 218.167969 222.375 219.089844 224.363281 C 219.558594 225.375 220.15625 226.292969 220.988281 227.050781 C 222.152344 228.113281 223.550781 228.328125 225.039062 228.195312 C 226.113281 228.097656 227.085938 227.691406 228 227.132812 C 230.179688 225.792969 232.0625 224.128906 233.570312 222.046875 C 236.3125 218.257812 238.308594 214.121094 239.289062 209.523438 C 239.691406 207.640625 239.796875 205.738281 239.355469 203.84375 C 239.246094 203.382812 239.0625 202.921875 238.832031 202.503906 C 238.082031 201.167969 236.585938 200.863281 235.363281 201.804688 C 234.128906 202.753906 233.371094 204.023438 233.03125 205.535156 C 232.703125 206.988281 232.820312 208.417969 233.382812 209.800781 C 233.75 210.691406 234.113281 211.59375 234.761719 212.332031 C 234.945312 212.535156 234.941406 212.726562 234.839844 212.960938 C 234.046875 214.828125 232.765625 216.152344 230.675781 216.34375 C 228.515625 216.546875 226.742188 215.785156 225.628906 213.816406 C 224.859375 212.460938 224.546875 210.972656 224.53125 209.441406 C 224.46875 204.066406 226.417969 199.558594 230.503906 196.042969 C 232.199219 194.582031 234.210938 193.679688 236.4375 193.492188 C 239.5625 193.226562 242.296875 194.175781 244.417969 196.585938 C 246.101562 198.503906 246.910156 200.792969 247.230469 203.292969 C 247.535156 205.65625 247.226562 207.976562 246.796875 210.289062 C 246.03125 214.425781 244.636719 218.328125 242.386719 221.890625 C 239.816406 225.957031 236.609375 229.394531 232.402344 231.816406 C 230.234375 233.066406 227.941406 233.96875 225.449219 234.351562 C 223.085938 234.714844 220.820312 234.351562 218.632812 233.453125 C 216.21875 232.464844 214.238281 230.871094 212.566406 228.902344 C 210.324219 226.261719 209.035156 223.15625 208.332031 219.796875 C 207.683594 216.695312 207.511719 213.554688 207.632812 210.390625 C 207.796875 206.125 208.472656 201.929688 209.34375 197.757812 C 209.359375 197.671875 209.371094 197.585938 209.398438 197.40625 C 209.113281 197.378906 208.855469 197.332031 208.589844 197.328125 C 205.894531 197.277344 203.289062 197.808594 200.742188 198.640625 C 198.054688 199.519531 195.570312 200.808594 193.246094 202.410156 C 193.121094 202.496094 193.003906 202.605469 192.863281 202.71875 C 192.949219 202.886719 193.015625 203.03125 193.09375 203.167969 C 195.410156 207.183594 196.660156 211.515625 197.039062 216.128906 C 197.519531 221.917969 196.375 227.347656 193.507812 232.394531 C 192.929688 233.410156 192.257812 234.390625 191.492188 235.269531 C 189.722656 237.296875 187.480469 238.570312 184.796875 238.914062 C 181.910156 239.285156 179.4375 238.363281 177.445312 236.242188 C 175.855469 234.554688 175.003906 232.480469 174.507812 230.242188 C 173.898438 227.503906 173.988281 224.753906 174.441406 222.007812 C 175.457031 215.867188 178.0625 210.457031 181.9375 205.628906 C 182.113281 205.414062 182.285156 205.199219 182.496094 204.941406 C 181.457031 202.984375 180.304688 201.097656 179.09375 199.140625 C 178.902344 199.402344 178.765625 199.578125 178.644531 199.761719 C 174.03125 206.800781 168.902344 213.441406 163.355469 219.761719 C 161.4375 221.941406 159.429688 224.035156 157.140625 225.828125 C 155.617188 227.023438 153.941406 227.917969 152.039062 228.316406 C 149.925781 228.753906 147.886719 228.476562 146.0625 227.324219 C 143.101562 225.457031 141.273438 222.785156 140.847656 219.265625 C 140.546875 216.746094 140.613281 214.214844 140.816406 211.6875 C 141.046875 208.832031 141.566406 206.03125 142.507812 203.324219 C 143.402344 200.734375 144.390625 198.183594 145.628906 195.738281 C 145.699219 195.597656 145.75 195.449219 145.847656 195.210938 C 144.132812 195.453125 142.480469 195.515625 140.847656 195.332031 C 139.207031 195.148438 137.589844 194.785156 135.882812 194.484375 C 135.796875 194.820312 135.671875 195.230469 135.582031 195.648438 C 134.105469 202.585938 131.488281 209.101562 128.25 215.378906 C 127.246094 217.328125 126.011719 219.132812 124.671875 220.867188 C 123.667969 222.164062 122.542969 223.347656 121.21875 224.320312 C 119.332031 225.707031 117.25 226.449219 114.886719 226.171875 C 112.519531 225.890625 110.476562 224.90625 108.847656 223.152344 C 106.789062 220.9375 105.589844 218.273438 104.964844 215.335938 C 104.589844 213.574219 104.464844 211.789062 104.558594 209.984375 C 104.570312 209.769531 104.5625 209.546875 104.449219 209.300781 C 104.304688 209.496094 104.152344 209.6875 104.011719 209.886719 C 101.996094 212.75 99.898438 215.542969 97.507812 218.109375 C 95.96875 219.761719 94.359375 221.335938 92.527344 222.671875 C 92.292969 222.839844 92.136719 223.003906 92.160156 223.339844 C 92.367188 226.210938 91.996094 229.039062 91.441406 231.84375 C 90.296875 237.628906 88.28125 243.082031 85.25 248.148438 C 84.054688 250.140625 82.59375 251.894531 80.792969 253.375 C 77.398438 256.160156 73.703125 256.210938 69.859375 254.519531 C 67.691406 253.5625 66.089844 251.9375 64.835938 249.933594 C 63.003906 246.992188 61.792969 243.808594 61.085938 240.421875 C 60.652344 238.347656 60.390625 236.253906 60.222656 234.140625 C 59.996094 231.316406 59.945312 228.484375 60.019531 225.65625 C 60.085938 223.21875 60.253906 220.789062 60.414062 218.355469 C 60.945312 210.292969 62.503906 202.449219 65.484375 194.921875 C 67.792969 189.09375 71.050781 183.882812 75.554688 179.492188 C 77.316406 177.773438 79.269531 176.34375 81.5625 175.40625 C 83.585938 174.578125 85.675781 174.46875 87.800781 174.742188 C 90.679688 175.113281 92.652344 177.523438 92.960938 180.253906 C 93.214844 182.511719 92.875 184.710938 92.320312 186.882812 C 91.28125 190.957031 89.585938 194.746094 87.28125 198.25 C 83.910156 203.386719 79.765625 207.78125 74.609375 211.167969 C 74.003906 211.566406 73.355469 211.910156 72.578125 212.371094 C 72.667969 211.777344 72.730469 211.363281 72.796875 210.945312 C 73.097656 209.101562 73.523438 207.292969 74.089844 205.511719 C 74.234375 205.058594 74.484375 204.710938 74.847656 204.398438 C 79.082031 200.757812 82.589844 196.535156 85.011719 191.46875 C 85.855469 189.699219 86.546875 187.871094 86.933594 185.941406 C 87.054688 185.316406 87.078125 184.667969 87.140625 184.027344 C 87.152344 183.9375 87.148438 183.84375 87.140625 183.753906 C 87.03125 182.472656 86.304688 181.746094 85.023438 182.699219 C 84.4375 183.136719 83.882812 183.632812 83.375 184.160156 C 81.894531 185.6875 80.648438 187.394531 79.597656 189.246094 C 76.75 194.25 74.578125 199.53125 73.09375 205.09375 C 72.308594 208.054688 71.664062 211.042969 71.296875 214.085938 C 70.953125 216.960938 70.601562 219.835938 70.355469 222.722656 C 70.164062 225.011719 70.164062 227.320312 70.019531 229.613281 C 69.867188 231.988281 69.980469 234.355469 70.097656 236.722656 C 70.25 239.71875 70.707031 242.671875 71.722656 245.511719 C 71.960938 246.175781 72.273438 246.824219 72.613281 247.445312 C 72.96875 248.09375 73.566406 248.503906 74.242188 248.773438 C 75.183594 249.15625 76.082031 249.0625 76.929688 248.484375 C 77.601562 248.023438 78.164062 247.4375 78.585938 246.746094 C 79.085938 245.921875 79.582031 245.089844 79.988281 244.214844 C 81.890625 240.140625 83.128906 235.875 83.601562 231.394531 C 83.742188 230.046875 83.84375 228.691406 83.957031 227.339844 C 83.96875 227.210938 83.929688 227.078125 83.914062 226.914062 C 83.292969 227.023438 82.710938 227.148438 82.121094 227.21875 C 80.136719 227.449219 78.230469 227.195312 76.445312 226.222656 C 73.675781 224.710938 72.386719 221.605469 72.722656 218.769531 C 73.550781 211.753906 81.496094 208.648438 86.925781 212.316406 C 88.46875 213.355469 89.660156 214.691406 90.472656 216.367188 C 90.59375 216.609375 90.714844 216.851562 90.871094 217.167969 C 91.097656 216.972656 91.292969 216.824219 91.472656 216.65625 C 93.222656 215.019531 94.792969 213.214844 96.316406 211.367188 C 99.148438 207.929688 101.273438 204.066406 103.160156 200.0625 C 104.121094 198.023438 105.011719 195.953125 105.949219 193.902344 C 106.242188 193.253906 106.570312 192.617188 106.925781 192 C 107.367188 191.234375 108.066406 190.808594 108.9375 190.695312 C 110.933594 190.441406 112.925781 190.5 114.894531 190.949219 C 115.25 191.027344 115.601562 191.160156 115.925781 191.328125 C 116.882812 191.8125 117.363281 192.664062 117.171875 193.714844 C 116.945312 194.957031 116.671875 196.191406 116.339844 197.410156 C 115.65625 199.917969 114.953125 202.417969 114.550781 204.992188 C 114.078125 208.023438 113.792969 211.066406 113.964844 214.132812 C 114.03125 215.351562 114.21875 216.5625 114.75 217.683594 C 114.933594 218.074219 115.140625 218.472656 115.414062 218.808594 C 116.46875 220.109375 117.914062 220.167969 119.15625 219.074219 C 119.71875 218.578125 120.191406 217.96875 120.65625 217.371094 C 121.894531 215.761719 123 214.066406 123.90625 212.246094 C 126.382812 207.273438 128.523438 202.167969 129.863281 196.757812 C 130.230469 195.289062 130.507812 193.796875 130.835938 192.289062 C 130.578125 192.117188 130.375 191.972656 130.167969 191.839844 C 128.285156 190.640625 126.664062 189.160156 125.402344 187.304688 C 124.09375 185.378906 123.253906 183.277344 123.238281 180.929688 C 123.21875 178.152344 124.199219 175.839844 126.660156 174.339844 C 129.433594 172.652344 132.792969 173.058594 135.003906 175.660156 C 136.171875 177.03125 136.78125 178.667969 137.09375 180.40625 C 137.285156 181.484375 137.332031 182.59375 137.40625 183.695312 C 137.449219 184.335938 137.414062 184.984375 137.414062 185.652344 C 138.644531 186.597656 140.019531 187.28125 141.5 187.734375 C 144.136719 188.539062 146.839844 188.902344 149.597656 188.710938 C 150.300781 188.660156 151.007812 188.5 151.6875 188.300781 C 152.269531 188.132812 152.820312 188.105469 153.371094 188.339844 C 154.886719 188.976562 156.28125 189.8125 157.457031 190.976562 C 158.234375 191.746094 158.566406 192.710938 158.246094 193.757812 C 157.925781 194.808594 157.507812 195.835938 157.042969 196.832031 C 156.109375 198.832031 155.054688 200.777344 154.152344 202.792969 C 152.460938 206.554688 151.085938 210.433594 150.296875 214.496094 C 149.976562 216.144531 149.738281 217.808594 149.792969 219.496094 C 149.808594 219.976562 149.855469 220.464844 149.980469 220.925781 C 150.3125 222.171875 151.390625 222.710938 152.59375 222.292969 C 153.371094 222.023438 154.03125 221.554688 154.617188 221.003906 C 155.828125 219.875 157.054688 218.753906 158.179688 217.542969 C 162.171875 213.234375 165.804688 208.628906 169.296875 203.910156 C 171.460938 200.984375 173.519531 197.988281 175.449219 194.902344 C 175.582031 194.691406 175.707031 194.472656 175.847656 194.238281 C 175.738281 194.050781 175.648438 193.871094 175.535156 193.699219 C 173.839844 191.195312 172.511719 188.484375 171.230469 185.757812 C 169.375 181.800781 169.3125 177.75 171.464844 173.882812 C 173.351562 170.492188 176.222656 168.1875 180.007812 167.152344 C 181.578125 166.722656 183.171875 166.824219 184.707031 167.300781 C 187.335938 168.121094 188.703125 170.058594 189.128906 172.691406 C 189.542969 175.238281 189.191406 177.734375 188.511719 180.203125 C 187.660156 183.300781 186.382812 186.226562 184.925781 189.078125 C 184.757812 189.40625 184.589844 189.730469 184.386719 190.136719 C 186.382812 192.695312 188.386719 195.261719 190.421875 197.871094 C 196.582031 193.859375 203.214844 191.542969 210.753906 192.109375 C 211.800781 188.273438 212.855469 184.421875 213.9375 180.464844 C 213.261719 180.519531 212.660156 180.554688 212.058594 180.625 C 208.792969 180.996094 205.546875 181.511719 202.34375 182.242188 C 201.316406 182.476562 200.296875 182.773438 199.296875 183.117188 C 198.585938 183.363281 198.035156 183.238281 197.59375 182.652344 C 197.386719 182.382812 197.164062 182.097656 197.046875 181.78125 C 196.421875 180.097656 196.269531 178.386719 196.867188 176.652344 C 197.398438 175.113281 198.433594 174.035156 199.984375 173.574219 C 201.074219 173.246094 202.214844 173.039062 203.351562 172.894531 C 206.113281 172.554688 208.890625 172.4375 211.675781 172.476562 C 213.054688 172.496094 214.433594 172.570312 215.808594 172.617188 C 215.921875 172.621094 216.035156 172.617188 216.214844 172.617188 C 216.308594 172.261719 216.40625 171.914062 216.5 171.5625 C 217.058594 169.449219 217.617188 167.335938 217.890625 165.164062 C 217.964844 164.574219 218.015625 163.96875 217.988281 163.378906 C 217.949219 162.535156 218.359375 162.007812 219.066406 161.703125 C 220.125 161.246094 221.234375 160.9375 222.386719 160.839844 C 223.394531 160.753906 224.40625 160.734375 225.402344 160.964844 C 226.175781 161.144531 226.878906 161.472656 227.519531 161.9375 C 228.246094 162.464844 228.578125 163.183594 228.726562 164.085938 C 229.121094 166.457031 228.53125 168.703125 227.984375 170.960938 C 227.828125 171.609375 227.652344 172.25 227.488281 172.898438 C 227.46875 172.980469 227.484375 173.074219 227.484375 173.1875 " fill-opacity="1" fill-rule="nonzero"/><path fill="#88c0fa" d="M 203.5 79.433594 C 203.875 79.234375 204.164062 79.113281 204.417969 78.941406 C 206.234375 77.710938 207.699219 76.148438 208.746094 74.214844 C 208.960938 73.820312 209.097656 73.371094 209.214844 72.929688 C 209.324219 72.519531 209.328125 72.0625 208.925781 71.808594 C 208.542969 71.570312 208.144531 71.761719 207.851562 72.03125 C 207.316406 72.527344 206.765625 73.027344 206.328125 73.605469 C 205.085938 75.25 204.226562 77.101562 203.566406 79.046875 C 203.539062 79.125 203.535156 79.210938 203.5 79.433594 Z M 228.945312 89.425781 C 229.5625 89.234375 230.03125 88.835938 230.4375 88.363281 C 231.703125 86.890625 232.789062 85.292969 233.675781 83.570312 C 236.261719 78.535156 238.183594 73.246094 239.765625 67.824219 C 240.121094 66.613281 240.519531 65.410156 240.863281 64.191406 C 241.183594 63.074219 241.871094 62.292969 242.921875 61.832031 C 244.261719 61.238281 245.667969 60.929688 247.140625 61.070312 C 248.335938 61.183594 249.164062 61.835938 249.566406 62.945312 C 249.90625 63.890625 250.191406 64.871094 250.390625 65.859375 C 250.808594 67.980469 250.992188 70.136719 251.113281 72.296875 C 251.269531 75.054688 251.492188 77.804688 251.613281 80.5625 C 251.726562 83.113281 251.746094 85.667969 251.804688 88.21875 C 251.847656 90.199219 251.90625 92.175781 251.921875 94.15625 C 251.9375 96.15625 251.949219 98.160156 251.882812 100.160156 C 251.695312 105.898438 251.199219 111.597656 249.570312 117.140625 C 248.421875 121.054688 246.855469 124.773438 244.195312 127.933594 C 243.578125 128.667969 242.894531 129.367188 242.15625 129.976562 C 238.035156 133.359375 232.710938 132.289062 229.679688 128.769531 C 228.191406 127.042969 227.292969 125.011719 226.6875 122.84375 C 226.023438 120.476562 225.769531 118.054688 225.84375 115.601562 C 225.941406 112.410156 226.386719 109.277344 227.511719 106.265625 C 228.183594 104.464844 229.058594 102.773438 230.265625 101.269531 C 231.238281 100.054688 232.375 99.023438 233.785156 98.332031 C 234.8125 97.824219 235.890625 97.542969 237.050781 97.65625 C 239.070312 97.859375 240.46875 98.925781 241.265625 100.765625 C 242.035156 102.539062 242.066406 104.351562 241.265625 106.121094 C 241.027344 106.652344 240.644531 107.148438 240.234375 107.5625 C 239.648438 108.148438 238.867188 108.386719 238.066406 108.171875 C 237.304688 107.96875 236.742188 108.242188 236.269531 108.738281 C 235.863281 109.164062 235.503906 109.65625 235.214844 110.171875 C 234.457031 111.53125 234.039062 113.011719 233.773438 114.542969 C 233.347656 116.984375 233.226562 119.433594 233.695312 121.886719 C 233.871094 122.796875 234.199219 123.65625 234.667969 124.457031 C 234.820312 124.710938 234.988281 124.964844 235.1875 125.183594 C 236.195312 126.28125 237.605469 126.3125 238.636719 125.222656 C 239.023438 124.804688 239.355469 124.320312 239.652344 123.832031 C 240.535156 122.386719 241.089844 120.800781 241.523438 119.175781 C 242.429688 115.785156 242.917969 112.328125 243.152344 108.828125 C 243.347656 105.90625 243.230469 102.988281 243.101562 100.070312 C 243.035156 98.527344 243.007812 96.988281 242.921875 95.449219 C 242.757812 92.648438 242.585938 89.847656 242.375 87.050781 C 242.183594 84.550781 241.941406 82.054688 241.722656 79.558594 C 241.714844 79.476562 241.691406 79.398438 241.554688 79.28125 C 241.421875 79.558594 241.28125 79.832031 241.152344 80.113281 C 239.429688 83.867188 237.425781 87.460938 234.941406 90.769531 C 233.992188 92.035156 232.941406 93.230469 231.871094 94.398438 C 231.058594 95.285156 230.074219 95.976562 228.933594 96.410156 C 226.78125 97.226562 224.632812 96.703125 223.109375 94.96875 C 222.066406 93.78125 221.449219 92.382812 221.148438 90.839844 C 220.75 88.8125 220.761719 86.761719 220.9375 84.71875 C 221.042969 83.503906 221.242188 82.296875 221.398438 81.089844 C 221.421875 80.910156 221.425781 80.726562 221.332031 80.488281 C 221.207031 80.691406 221.078125 80.890625 220.957031 81.09375 C 218.964844 84.527344 216.691406 87.757812 214.015625 90.699219 C 212.695312 92.148438 211.285156 93.5 209.675781 94.628906 C 208.191406 95.664062 206.613281 96.5 204.796875 96.785156 C 201.953125 97.226562 199.582031 96.367188 197.71875 94.160156 C 197.042969 93.359375 196.535156 92.460938 196.164062 91.484375 C 196.066406 91.230469 195.960938 90.972656 195.816406 90.601562 C 195.632812 90.859375 195.492188 91.046875 195.359375 91.246094 C 193.675781 93.773438 192.007812 96.3125 190.296875 98.820312 C 189.390625 100.15625 188.347656 101.386719 187.097656 102.421875 C 185.90625 103.414062 184.578125 104.09375 183.015625 104.289062 C 182.320312 104.375 181.644531 104.328125 180.972656 104.136719 C 178.472656 103.414062 176.910156 101.722656 176.023438 99.339844 C 175.296875 97.390625 175.082031 95.359375 175.140625 93.296875 C 175.246094 89.824219 175.929688 86.441406 176.929688 83.128906 C 178.03125 79.472656 179.257812 75.855469 180.425781 72.222656 C 180.488281 72.039062 180.535156 71.851562 180.476562 71.601562 C 180.3125 71.785156 180.144531 71.964844 179.980469 72.152344 C 177.640625 74.863281 175.691406 77.847656 173.945312 80.96875 C 171.441406 85.449219 169.125 90.023438 167.457031 94.902344 C 167.222656 95.597656 166.921875 96.269531 166.617188 96.941406 C 166.09375 98.074219 165.226562 98.539062 163.953125 98.453125 C 161.246094 98.269531 158.589844 96.429688 158.199219 93.023438 C 157.941406 90.792969 158 88.554688 158.316406 86.347656 C 158.785156 83.066406 159.398438 79.808594 159.953125 76.546875 C 160.40625 73.867188 160.886719 71.195312 161.316406 68.515625 C 161.488281 67.425781 161.621094 66.320312 161.449219 65.214844 C 161.402344 64.929688 161.3125 64.636719 161.179688 64.375 C 160.777344 63.605469 160.835938 63.054688 161.386719 62.417969 C 163.097656 60.441406 166.597656 59.539062 169.113281 60.574219 C 170.78125 61.261719 171.714844 62.484375 172.050781 64.210938 C 172.289062 65.425781 172.128906 66.640625 171.960938 67.851562 C 171.585938 70.550781 170.777344 73.144531 170.050781 75.761719 C 169.679688 77.089844 169.292969 78.414062 168.917969 79.742188 C 168.871094 79.914062 168.835938 80.089844 168.890625 80.300781 C 169.046875 80.03125 169.210938 79.761719 169.363281 79.488281 C 171.707031 75.222656 174.34375 71.148438 177.550781 67.476562 C 178.742188 66.109375 180.074219 64.867188 181.363281 63.589844 C 181.707031 63.25 182.113281 62.980469 182.5 62.6875 C 184.136719 61.453125 185.929688 61.347656 187.796875 62.03125 C 189.265625 62.566406 190.523438 63.449219 191.609375 64.574219 C 192.632812 65.636719 193.007812 66.90625 192.609375 68.324219 C 192.222656 69.695312 191.835938 71.082031 191.285156 72.386719 C 189.054688 77.671875 187.289062 83.125 185.445312 88.546875 C 184.730469 90.660156 184.117188 92.808594 183.839844 95.035156 C 183.773438 95.558594 183.757812 96.089844 183.71875 96.617188 C 183.71875 96.664062 183.714844 96.710938 183.714844 96.753906 C 183.75 97.226562 183.832031 97.734375 184.304688 97.921875 C 184.746094 98.101562 185.085938 97.734375 185.351562 97.417969 C 185.855469 96.820312 186.375 96.230469 186.804688 95.582031 C 188.949219 92.363281 191.027344 89.105469 193.207031 85.914062 C 194.160156 84.511719 194.6875 83.042969 194.972656 81.367188 C 195.738281 76.886719 197.46875 72.816406 200.601562 69.425781 C 201.804688 68.121094 203.203125 67.097656 204.835938 66.402344 C 206.265625 65.796875 207.753906 65.558594 209.289062 65.867188 C 212.003906 66.410156 213.941406 68.660156 214.125 71.433594 C 214.234375 73.101562 213.921875 74.695312 213.1875 76.1875 C 211.664062 79.277344 209.414062 81.726562 206.503906 83.550781 C 205.441406 84.214844 204.261719 84.605469 203.039062 84.875 C 202.863281 84.914062 202.6875 84.960938 202.539062 84.996094 C 202.488281 85.066406 202.445312 85.101562 202.441406 85.136719 C 202.339844 86.457031 202.433594 87.761719 202.898438 89.011719 C 203.457031 90.515625 204.617188 91.074219 206.082031 90.449219 C 206.917969 90.09375 207.710938 89.585938 208.4375 89.039062 C 209.191406 88.476562 209.898438 87.832031 210.53125 87.140625 C 214.859375 82.394531 218.164062 76.996094 220.457031 71.007812 C 221.859375 67.347656 222.671875 63.511719 223.027344 59.597656 C 223.105469 58.730469 223.101562 57.851562 223.078125 56.976562 C 223.054688 56.085938 223.429688 55.429688 224.121094 54.921875 C 224.160156 54.894531 224.195312 54.863281 224.238281 54.84375 C 226.207031 53.789062 228.277344 53.414062 230.414062 54.183594 C 232.375 54.890625 233.242188 56.519531 233.5625 58.464844 C 233.886719 60.421875 233.679688 62.363281 233.355469 64.304688 C 232.5625 69.074219 231.316406 73.742188 230.195312 78.441406 C 229.640625 80.769531 229.148438 83.109375 228.707031 85.460938 C 228.535156 86.378906 228.558594 87.335938 228.542969 88.277344 C 228.535156 88.679688 228.566406 89.113281 228.945312 89.425781 " fill-opacity="1" fill-rule="nonzero"/><path fill="#88c0fa" d="M 135.441406 66.980469 C 135.652344 65.667969 135.609375 64.527344 135.429688 63.386719 C 135.292969 62.5 135.035156 61.644531 134.582031 60.855469 C 134.289062 60.339844 133.886719 59.9375 133.382812 59.648438 C 132.414062 59.089844 131.261719 59.589844 131.03125 60.691406 C 130.953125 61.0625 130.9375 61.46875 130.996094 61.84375 C 131.277344 63.773438 132.414062 65.144531 133.96875 66.203125 C 134.398438 66.496094 134.890625 66.695312 135.441406 66.980469 Z M 90.363281 80.167969 C 90.40625 78.523438 90.300781 76.953125 89.746094 75.445312 C 89.507812 74.792969 89.121094 74.203125 88.558594 73.785156 C 88.199219 73.515625 87.785156 73.28125 87.355469 73.160156 C 86.601562 72.949219 86.03125 73.238281 85.753906 73.972656 C 85.585938 74.410156 85.492188 74.910156 85.507812 75.375 C 85.605469 77.664062 87.871094 79.914062 90.363281 80.167969 Z M 83.917969 84.246094 C 83.824219 84.886719 83.722656 85.496094 83.644531 86.105469 C 83.40625 87.902344 83.082031 89.695312 83.195312 91.515625 C 83.238281 92.191406 83.355469 92.894531 83.609375 93.519531 C 84.046875 94.589844 84.699219 94.867188 85.613281 93.859375 C 86.359375 93.035156 86.945312 92.105469 87.445312 91.121094 C 88.277344 89.476562 88.917969 87.761719 89.476562 86.007812 C 89.519531 85.863281 89.542969 85.707031 89.578125 85.542969 C 88.609375 85.402344 87.671875 85.324219 86.765625 85.117188 C 85.835938 84.90625 84.933594 84.5625 83.917969 84.246094 Z M 59.675781 94.441406 C 59.53125 94.492188 59.453125 94.496094 59.410156 94.539062 C 58.347656 95.488281 57.199219 96.359375 56.253906 97.414062 C 53.242188 100.769531 51.167969 104.660156 49.96875 109.011719 C 49.492188 110.730469 49.210938 112.46875 49.335938 114.257812 C 49.386719 115.027344 49.566406 115.761719 49.992188 116.414062 C 50.46875 117.148438 51.183594 117.347656 51.957031 116.9375 C 52.253906 116.78125 52.554688 116.570312 52.765625 116.308594 C 53.335938 115.59375 53.921875 114.875 54.386719 114.089844 C 55.796875 111.726562 56.746094 109.160156 57.5 106.523438 C 58.328125 103.621094 58.894531 100.667969 59.289062 97.679688 C 59.429688 96.617188 59.542969 95.554688 59.675781 94.441406 Z M 140.679688 67.109375 C 141.320312 67.066406 141.933594 67.03125 142.542969 66.980469 C 144.796875 66.785156 147.003906 66.320312 149.175781 65.742188 C 151.617188 65.09375 153.480469 66.070312 155.175781 67.640625 C 155.863281 68.28125 156.039062 69.101562 155.675781 69.980469 C 155.417969 70.597656 155.125 71.195312 154.808594 71.78125 C 153.421875 74.332031 152.121094 76.917969 151.117188 79.644531 C 150.078125 82.464844 149.378906 85.359375 149.117188 88.359375 C 148.910156 90.757812 148.988281 93.140625 149.542969 95.488281 C 149.914062 97.082031 150.59375 98.542969 151.832031 99.660156 C 152.320312 100.097656 152.90625 100.425781 153.558594 100.878906 C 153.53125 101.070312 153.535156 101.398438 153.433594 101.683594 C 153.167969 102.433594 152.742188 103.085938 152.125 103.601562 C 150.90625 104.617188 149.492188 105.191406 147.914062 105.316406 C 147.023438 105.390625 146.128906 105.34375 145.246094 105.109375 C 143.164062 104.558594 141.757812 103.222656 140.839844 101.332031 C 139.832031 99.25 139.320312 97.046875 139.300781 94.734375 C 139.265625 90.027344 140.253906 85.507812 141.867188 81.113281 C 142.964844 78.125 144.453125 75.320312 146.113281 72.609375 C 146.230469 72.414062 146.34375 72.21875 146.476562 71.988281 C 144.1875 72.34375 141.945312 72.6875 139.667969 73.039062 C 139.375 74.058594 139.09375 75.125 138.757812 76.175781 C 137.351562 80.570312 135.585938 84.808594 133.253906 88.800781 C 132.324219 90.394531 131.273438 91.902344 130.035156 93.277344 C 129.15625 94.253906 128.175781 95.121094 127.054688 95.824219 C 126.25 96.324219 125.386719 96.703125 124.449219 96.875 C 122.125 97.296875 119.71875 96.144531 118.355469 93.960938 C 117.652344 92.835938 117.21875 91.597656 116.980469 90.300781 C 116.820312 89.441406 116.734375 88.574219 116.609375 87.671875 C 116.382812 87.710938 116.324219 87.953125 116.207031 88.125 C 114.867188 90.105469 113.554688 92.113281 111.953125 93.898438 C 111.246094 94.683594 110.5 95.4375 109.734375 96.164062 C 109.078125 96.789062 108.296875 97.238281 107.425781 97.503906 C 105.617188 98.054688 104.0625 97.636719 102.792969 96.238281 C 101.738281 95.074219 101.234375 93.648438 100.964844 92.132812 C 100.570312 89.921875 100.769531 87.726562 101.164062 85.542969 C 101.371094 84.394531 101.632812 83.253906 101.898438 81.976562 C 99.722656 83.273438 97.503906 84.226562 95.078125 84.796875 C 95.015625 85.007812 94.945312 85.222656 94.898438 85.4375 C 94.148438 88.835938 92.902344 92.039062 91.136719 95.035156 C 90.4375 96.230469 89.648438 97.363281 88.695312 98.371094 C 87.472656 99.660156 86.082031 100.6875 84.304688 101.082031 C 82.40625 101.503906 80.683594 101.132812 79.191406 99.890625 C 77.152344 98.191406 76.027344 95.992188 75.707031 93.359375 C 75.425781 91.074219 75.671875 88.8125 75.914062 86.546875 C 75.945312 86.253906 75.980469 85.960938 76.019531 85.601562 C 75.808594 85.652344 75.65625 85.667969 75.519531 85.726562 C 73.671875 86.492188 71.832031 87.269531 69.980469 88.027344 C 69.59375 88.1875 69.417969 88.421875 69.371094 88.84375 C 69.152344 90.945312 68.859375 93.039062 68.675781 95.148438 C 68.109375 101.792969 66.398438 108.128906 63.597656 114.175781 C 62.535156 116.464844 61.203125 118.574219 59.40625 120.375 C 57.351562 122.433594 54.875 123.628906 51.988281 123.753906 C 48.621094 123.894531 45.921875 122.476562 43.925781 119.765625 C 42.238281 117.476562 41.789062 114.871094 42.105469 112.101562 C 42.597656 107.773438 44.257812 103.894531 46.65625 100.304688 C 49.515625 96.019531 53.1875 92.535156 57.347656 89.542969 C 58.074219 89.019531 58.816406 88.515625 59.574219 88.03125 C 59.871094 87.835938 60.007812 87.632812 60.015625 87.257812 C 60.070312 84.3125 60.203125 81.367188 60.21875 78.425781 C 60.238281 75.132812 60.167969 71.839844 60.117188 68.550781 C 60.105469 67.585938 60.03125 66.621094 59.988281 65.65625 C 59.945312 64.8125 60.296875 64.144531 61.050781 63.796875 C 63.058594 62.867188 65.125 62.097656 67.378906 62.058594 C 68.671875 62.035156 69.417969 62.570312 69.726562 63.847656 C 69.9375 64.710938 70.046875 65.617188 70.054688 66.503906 C 70.078125 69.472656 70.066406 72.441406 70.011719 75.410156 C 69.972656 77.429688 69.839844 79.453125 69.746094 81.472656 C 69.730469 81.792969 69.691406 82.109375 69.652344 82.554688 C 69.933594 82.441406 70.132812 82.363281 70.332031 82.289062 C 72.222656 81.566406 74.109375 80.839844 76 80.132812 C 76.453125 79.964844 76.921875 79.8125 77.394531 79.75 C 77.996094 79.664062 78.613281 79.675781 79.21875 79.648438 C 79.011719 78.957031 78.746094 78.226562 78.582031 77.476562 C 77.699219 73.441406 79.808594 69.070312 83.492188 67.214844 C 85.199219 66.359375 86.929688 66.308594 88.699219 66.984375 C 90.316406 67.601562 91.589844 68.667969 92.628906 70.027344 C 94.164062 72.039062 94.960938 74.339844 95.296875 76.820312 C 95.378906 77.4375 95.410156 78.058594 95.46875 78.675781 C 95.484375 78.875 95.519531 79.074219 95.554688 79.34375 C 95.910156 79.214844 96.207031 79.113281 96.5 78.996094 C 99.195312 77.917969 101.4375 76.179688 103.511719 74.191406 C 103.992188 73.726562 104.464844 73.253906 104.941406 72.789062 C 105.625 72.132812 106.433594 71.828125 107.382812 71.863281 C 108.585938 71.902344 109.761719 72.070312 110.875 72.554688 C 111.128906 72.664062 111.378906 72.785156 111.613281 72.929688 C 112.503906 73.476562 112.867188 74.199219 112.597656 75.210938 C 112.296875 76.339844 111.910156 77.449219 111.496094 78.542969 C 110.589844 80.929688 109.582031 83.28125 108.945312 85.757812 C 108.644531 86.9375 108.421875 88.136719 108.183594 89.332031 C 108.121094 89.640625 108.132812 89.96875 108.109375 90.339844 C 108.433594 90.277344 108.546875 90.03125 108.683594 89.855469 C 110.722656 87.261719 112.570312 84.542969 114.203125 81.679688 C 115.433594 79.523438 116.589844 77.324219 117.785156 75.148438 C 118.074219 74.625 118.382812 74.109375 118.699219 73.605469 C 119.167969 72.863281 119.863281 72.503906 120.71875 72.464844 C 122.285156 72.394531 123.789062 72.703125 125.21875 73.324219 C 126.28125 73.785156 126.882812 74.839844 126.769531 76.003906 C 126.714844 76.546875 126.566406 77.089844 126.40625 77.613281 C 125.714844 79.878906 124.917969 82.113281 124.496094 84.453125 C 124.28125 85.625 124.132812 86.816406 124.046875 88.003906 C 124 88.707031 124.085938 89.433594 124.203125 90.128906 C 124.355469 91 124.753906 91.136719 125.425781 90.585938 C 125.816406 90.269531 126.179688 89.910156 126.507812 89.527344 C 127.882812 87.933594 128.960938 86.140625 129.925781 84.277344 C 131.742188 80.777344 133.183594 77.121094 134.28125 73.332031 C 134.335938 73.15625 134.371094 72.976562 134.429688 72.730469 C 134.148438 72.675781 133.886719 72.613281 133.625 72.570312 C 130.082031 71.976562 127.089844 70.378906 124.847656 67.554688 C 122.964844 65.183594 122.492188 62.472656 123.269531 59.546875 C 123.777344 57.640625 124.675781 55.964844 126.070312 54.550781 C 128.59375 51.988281 132.402344 51.722656 135.234375 53.265625 C 137.789062 54.65625 139.230469 56.867188 139.996094 59.585938 C 140.578125 61.640625 140.710938 63.75 140.679688 65.875 C 140.675781 66.242188 140.679688 66.613281 140.679688 67.109375 " fill-opacity="1" fill-rule="nonzero"/><g clip-path="url(#b85c503d63)"><path fill="#88c0fa" d="M 49.617188 149.515625 C 49.75 156.914062 49.878906 164.3125 50.007812 171.78125 C 50.519531 171.695312 50.921875 171.621094 51.324219 171.550781 C 52.570312 171.332031 53.246094 171.714844 53.679688 172.890625 C 53.757812 173.109375 53.859375 173.324219 53.886719 173.546875 C 54.046875 174.871094 54.21875 176.195312 54.335938 177.519531 C 54.410156 178.378906 53.984375 179 53.261719 179.464844 C 52.511719 179.945312 51.699219 180.238281 50.847656 180.449219 C 48.238281 181.109375 45.605469 181.644531 42.925781 181.921875 C 42.628906 181.953125 42.328125 181.964844 42.03125 181.941406 C 40.949219 181.855469 40.15625 181.347656 39.800781 180.285156 C 39.359375 178.972656 39.09375 177.613281 39.019531 176.234375 C 38.953125 174.90625 39.535156 174.171875 40.804688 173.808594 C 41.109375 173.71875 41.417969 173.636719 41.714844 173.550781 C 41.492188 161.351562 41.269531 149.183594 41.046875 136.917969 C 40.804688 136.917969 40.5625 136.925781 40.320312 136.914062 C 39.816406 136.898438 39.308594 136.890625 38.808594 136.839844 C 38.011719 136.757812 37.46875 136.289062 37.273438 135.542969 C 36.863281 133.976562 36.675781 132.371094 36.839844 130.757812 C 36.9375 129.804688 37.546875 129.253906 38.492188 129.214844 C 42.238281 129.054688 45.980469 128.917969 49.722656 128.773438 C 49.929688 128.765625 50.136719 128.769531 50.34375 128.789062 C 51.265625 128.886719 51.980469 129.285156 52.488281 130.101562 C 56.421875 136.40625 60.347656 142.710938 64.320312 148.992188 C 65.941406 151.558594 67.660156 154.0625 69.339844 156.59375 C 69.4375 156.742188 69.550781 156.878906 69.769531 157.160156 C 69.792969 156.675781 69.824219 156.34375 69.824219 156.015625 C 69.859375 146.070312 69.902344 136.128906 69.921875 126.183594 C 69.925781 123.789062 69.835938 121.398438 69.785156 119.003906 C 69.78125 118.804688 69.742188 118.601562 69.726562 118.457031 C 69.039062 118.457031 68.398438 118.464844 67.761719 118.453125 C 66.722656 118.4375 66.019531 117.917969 65.90625 116.882812 C 65.777344 115.746094 65.796875 114.589844 65.773438 113.441406 C 65.765625 113.074219 65.804688 112.703125 65.847656 112.339844 C 65.9375 111.546875 66.375 111.003906 67.140625 110.8125 C 68.007812 110.597656 68.890625 110.441406 69.777344 110.300781 C 72.203125 109.925781 74.636719 109.570312 77.066406 109.210938 C 77.792969 109.101562 78.519531 108.992188 79.25 108.90625 C 80.164062 108.800781 80.734375 109.128906 80.980469 110.011719 C 81.394531 111.484375 81.542969 112.996094 81.476562 114.519531 C 81.441406 115.320312 80.917969 115.8125 80.191406 116.066406 C 79.691406 116.238281 79.175781 116.359375 78.617188 116.519531 C 78.582031 117.21875 78.523438 117.925781 78.511719 118.632812 C 78.480469 120.679688 78.476562 122.730469 78.445312 124.777344 C 78.40625 127.628906 78.351562 130.484375 78.300781 133.335938 C 78.261719 135.890625 78.214844 138.445312 78.171875 141 C 78.125 143.808594 78.078125 146.613281 78.027344 149.421875 C 77.984375 152.046875 77.941406 154.667969 77.894531 157.289062 C 77.851562 159.753906 77.804688 162.214844 77.761719 164.675781 C 77.757812 164.902344 77.761719 165.128906 77.761719 165.386719 C 78.050781 165.402344 78.273438 165.40625 78.496094 165.429688 C 79.308594 165.519531 79.867188 166 80 166.808594 C 80.085938 167.324219 80.089844 167.863281 80.085938 168.390625 C 80.078125 169.238281 80.023438 170.089844 80.011719 170.941406 C 79.984375 172.394531 79.464844 173.167969 78.074219 173.601562 C 76.535156 174.078125 74.972656 174.460938 73.351562 174.527344 C 72.59375 174.558594 71.835938 174.613281 71.078125 174.648438 C 68.648438 174.757812 66.664062 173.886719 65.21875 171.910156 C 63.691406 169.808594 62.164062 167.703125 60.699219 165.558594 C 57.152344 160.371094 53.644531 155.164062 50.117188 149.964844 C 50.003906 149.796875 49.882812 149.636719 49.765625 149.472656 C 49.714844 149.488281 49.667969 149.503906 49.617188 149.515625 " fill-opacity="1" fill-rule="nonzero"/></g><path fill="#88c0fa" d="M 107.742188 113.058594 C 104.367188 113.441406 101.109375 113.808594 97.792969 114.183594 C 97.792969 121.726562 97.792969 129.21875 97.792969 136.789062 C 99.113281 136.691406 100.414062 136.5 101.765625 136.269531 C 101.78125 135.527344 101.824219 134.820312 101.800781 134.113281 C 101.777344 133.339844 102.105469 132.820312 102.820312 132.574219 C 104.21875 132.09375 105.667969 131.824219 107.148438 131.875 C 108.484375 131.921875 109.148438 132.613281 109.277344 133.933594 C 109.308594 134.253906 109.34375 134.578125 109.34375 134.898438 C 109.351562 138.121094 109.363281 141.34375 109.34375 144.566406 C 109.34375 145.113281 109.25 145.667969 109.128906 146.203125 C 108.949219 146.964844 108.4375 147.441406 107.667969 147.59375 C 106.367188 147.847656 105.054688 147.832031 103.753906 147.667969 C 102.835938 147.554688 102.335938 146.914062 102.214844 145.890625 C 102.15625 145.414062 102.121094 144.9375 102.066406 144.375 C 100.625 144.539062 99.222656 144.699219 97.757812 144.867188 C 97.757812 150.933594 97.757812 156.953125 97.757812 162.972656 C 98.28125 163.089844 106.917969 162.257812 108.28125 161.945312 C 108.316406 161.640625 108.367188 161.304688 108.386719 160.96875 C 108.453125 159.933594 108.503906 158.902344 108.5625 157.867188 C 108.570312 157.730469 108.578125 157.589844 108.597656 157.453125 C 108.800781 155.902344 109.464844 155.191406 111.03125 155.042969 C 112.238281 154.925781 113.460938 154.941406 114.675781 154.902344 C 114.769531 154.898438 114.859375 154.910156 114.953125 154.921875 C 116.292969 155.089844 117.050781 155.828125 117.089844 157.191406 C 117.121094 158.242188 117.054688 159.308594 116.929688 160.355469 C 116.710938 162.15625 116.417969 163.953125 116.144531 165.75 C 116.09375 166.089844 115.992188 166.421875 115.921875 166.757812 C 115.683594 167.933594 114.910156 168.511719 113.777344 168.683594 C 112.164062 168.929688 110.550781 169.191406 108.933594 169.402344 C 105.792969 169.820312 102.648438 170.230469 99.5 170.597656 C 97.035156 170.886719 94.5625 171.117188 92.09375 171.355469 C 90.261719 171.53125 88.433594 171.707031 86.597656 171.820312 C 85.753906 171.875 84.898438 171.816406 84.058594 171.726562 C 83.136719 171.628906 82.53125 171.054688 82.335938 170.164062 C 82.007812 168.664062 81.960938 167.152344 82.445312 165.664062 C 82.816406 164.53125 83.449219 164.070312 84.625 163.996094 C 84.945312 163.976562 85.265625 163.941406 85.667969 163.902344 C 85.691406 148.050781 85.640625 132.230469 85.621094 116.398438 C 85.398438 116.371094 85.261719 116.332031 85.128906 116.34375 C 84.1875 116.398438 83.304688 115.71875 83.039062 114.671875 C 82.933594 114.273438 82.878906 113.859375 82.839844 113.449219 C 82.753906 112.441406 82.703125 111.429688 82.605469 110.421875 C 82.492188 109.257812 83.300781 108.539062 84.117188 108.308594 C 85 108.058594 85.902344 107.871094 86.800781 107.683594 C 91.484375 106.71875 96.207031 105.984375 100.957031 105.425781 C 103.71875 105.101562 106.476562 104.773438 109.242188 104.457031 C 109.554688 104.421875 109.707031 104.300781 109.824219 103.992188 C 110 103.523438 110.21875 103.058594 110.511719 102.65625 C 110.847656 102.195312 111.386719 101.976562 111.941406 101.886719 C 113.417969 101.644531 114.902344 101.496094 116.402344 101.707031 C 117.585938 101.871094 118.152344 102.519531 118.082031 103.71875 C 118.046875 104.265625 117.933594 104.820312 117.757812 105.335938 C 116.777344 108.210938 115.773438 111.074219 114.757812 113.933594 C 114.605469 114.367188 114.390625 114.78125 114.160156 115.175781 C 113.820312 115.761719 113.300781 116.152344 112.625 116.234375 C 111.710938 116.34375 110.792969 116.464844 109.878906 116.453125 C 108.269531 116.4375 107.414062 115.34375 107.664062 113.75 C 107.695312 113.550781 107.710938 113.351562 107.742188 113.058594 " fill-opacity="1" fill-rule="nonzero"/><path fill="#88c0fa" d="M 167.125 159.542969 C 167.183594 159.546875 167.230469 159.566406 167.269531 159.550781 C 167.402344 159.511719 167.53125 159.464844 167.660156 159.414062 C 170.152344 158.433594 172.03125 156.726562 173.367188 154.4375 C 173.898438 153.53125 174.296875 152.535156 174.652344 151.542969 C 175.742188 148.480469 176.050781 145.273438 176.277344 142.058594 C 176.449219 139.648438 176.40625 137.234375 176.339844 134.820312 C 176.265625 132.1875 176.003906 129.585938 175.453125 127.019531 C 175.210938 125.898438 174.953125 124.765625 174.375 123.757812 C 172.855469 121.109375 170.570312 119.445312 167.65625 118.617188 C 167.511719 118.574219 167.351562 118.582031 167.125 118.554688 C 167.125 132.238281 167.125 145.871094 167.125 159.542969 Z M 156.25 118.59375 C 155.792969 118.542969 155.359375 118.511719 154.933594 118.441406 C 153.792969 118.257812 153.191406 117.597656 153.109375 116.441406 C 153.023438 115.1875 153.191406 113.964844 153.589844 112.773438 C 154.027344 111.460938 154.917969 110.667969 156.300781 110.574219 C 158.066406 110.453125 159.835938 110.351562 161.601562 110.375 C 163.503906 110.398438 165.410156 110.554688 167.3125 110.683594 C 170.074219 110.867188 172.785156 111.371094 175.40625 112.253906 C 179.21875 113.535156 182.167969 115.890625 184.117188 119.460938 C 185.78125 122.5 186.835938 125.742188 187.476562 129.128906 C 188.046875 132.144531 188.265625 135.195312 188.148438 138.261719 C 187.945312 143.585938 187.128906 148.792969 185 153.71875 C 181.859375 160.992188 176.390625 165.398438 168.609375 166.949219 C 164.992188 167.671875 161.351562 167.683594 157.695312 167.570312 C 156.847656 167.542969 155.996094 167.457031 155.15625 167.328125 C 153.652344 167.097656 152.933594 166.265625 152.972656 164.734375 C 153 163.726562 153.113281 162.714844 153.273438 161.71875 C 153.472656 160.5 154.082031 160.035156 155.316406 160.035156 C 155.609375 160.035156 155.90625 160.035156 156.25 160.035156 C 156.25 146.191406 156.25 132.398438 156.25 118.59375 " fill-opacity="1" fill-rule="nonzero"/><path fill="#88c0fa" d="M 211.285156 107.128906 C 211.640625 106.125 211.96875 105.171875 212.308594 104.222656 C 212.46875 103.792969 212.636719 103.363281 212.824219 102.945312 C 213.300781 101.890625 214.179688 101.425781 215.273438 101.507812 C 216.996094 101.632812 218.695312 101.957031 220.304688 102.617188 C 220.746094 102.796875 221.179688 103.027344 221.574219 103.304688 C 222.539062 103.984375 222.835938 104.90625 222.457031 106.023438 C 222.265625 106.589844 222.042969 107.148438 221.777344 107.679688 C 219.773438 111.660156 218.285156 115.839844 217 120.09375 C 216.816406 120.710938 216.597656 121.316406 216.347656 121.910156 C 215.773438 123.265625 214.988281 123.691406 213.550781 123.355469 C 212.617188 123.136719 211.695312 122.832031 210.789062 122.503906 C 210.058594 122.234375 209.363281 121.871094 208.652344 121.542969 C 207.808594 121.15625 207.390625 120.515625 207.453125 119.570312 C 207.523438 118.515625 207.589844 117.457031 207.363281 116.40625 C 207.140625 115.394531 206.734375 114.488281 205.976562 113.757812 C 204.316406 112.152344 201.414062 112.753906 200.527344 114.898438 C 199.882812 116.453125 200.113281 117.996094 200.800781 119.441406 C 201.238281 120.367188 201.847656 121.230469 202.480469 122.039062 C 203.503906 123.347656 204.738281 124.460938 206.003906 125.53125 C 207.851562 127.085938 209.699219 128.644531 211.503906 130.25 C 213.683594 132.1875 215.523438 134.4375 217.039062 136.921875 C 218.933594 140.019531 220.101562 143.394531 220.476562 147.027344 C 220.75 149.703125 220.714844 152.359375 220.050781 154.980469 C 219.363281 157.707031 218.113281 160.148438 216.21875 162.226562 C 215.667969 162.835938 215.035156 163.394531 214.371094 163.875 C 212.488281 165.226562 210.460938 166.316406 208.183594 166.8125 C 205.402344 167.414062 202.625 167.449219 199.878906 166.53125 C 197.964844 165.886719 196.289062 164.894531 194.910156 163.414062 C 194.785156 163.28125 194.695312 163.113281 194.539062 162.882812 C 194.363281 163.179688 194.273438 163.324219 194.191406 163.476562 C 193.910156 164 193.660156 164.550781 193.34375 165.054688 C 192.730469 166.023438 191.914062 166.269531 190.851562 165.855469 C 190.722656 165.804688 190.59375 165.753906 190.472656 165.6875 C 189.042969 164.921875 187.753906 163.960938 186.617188 162.808594 C 185.601562 161.769531 185.53125 160.992188 186.351562 159.789062 C 187.785156 157.6875 188.964844 155.460938 189.785156 153.046875 C 190.183594 151.871094 190.578125 150.695312 190.972656 149.519531 C 191.0625 149.257812 191.144531 148.992188 191.257812 148.742188 C 191.625 147.925781 192.324219 147.496094 193.203125 147.628906 C 194.726562 147.863281 196.210938 148.277344 197.644531 148.847656 C 198 148.988281 198.328125 149.226562 198.636719 149.464844 C 199.113281 149.839844 199.371094 150.34375 199.367188 150.960938 C 199.359375 151.628906 199.34375 152.296875 199.328125 152.960938 C 199.289062 154.453125 199.605469 155.839844 200.460938 157.082031 C 201.109375 158.027344 201.984375 158.703125 203.078125 159.003906 C 204.835938 159.488281 206.292969 158.890625 207.460938 157.550781 C 208.386719 156.496094 208.789062 155.191406 209 153.839844 C 209.574219 150.144531 208.652344 146.761719 206.757812 143.609375 C 205.308594 141.195312 203.40625 139.164062 201.269531 137.363281 C 199.230469 135.640625 197.140625 133.984375 195.085938 132.28125 C 193.394531 130.875 191.917969 129.269531 190.738281 127.40625 C 189.273438 125.089844 188.515625 122.554688 188.628906 119.808594 C 188.753906 116.890625 189.6875 114.21875 191.359375 111.820312 C 193.511719 108.730469 196.335938 106.554688 199.988281 105.535156 C 202.414062 104.855469 204.867188 104.65625 207.34375 105.292969 C 208.535156 105.59375 209.648438 106.074219 210.675781 106.746094 C 210.867188 106.871094 211.058594 106.988281 211.285156 107.128906 " fill-opacity="1" fill-rule="nonzero"/><path fill="#88c0fa" d="M 133.242188 117.785156 C 133.242188 124.257812 133.242188 130.625 133.242188 137.066406 C 134.605469 137.117188 135.96875 137.167969 137.421875 137.222656 C 137.457031 136.703125 137.5 136.230469 137.523438 135.757812 C 137.570312 134.71875 137.976562 134.21875 139.011719 134.136719 C 140.394531 134.03125 141.773438 134.175781 143.113281 134.527344 C 144.164062 134.804688 144.683594 135.589844 144.695312 136.769531 C 144.714844 138.886719 144.714844 141.003906 144.714844 143.121094 C 144.714844 144.339844 144.699219 145.5625 144.675781 146.78125 C 144.671875 147.125 144.648438 147.472656 144.597656 147.8125 C 144.476562 148.617188 143.996094 149.148438 143.1875 149.175781 C 141.785156 149.222656 140.378906 149.148438 139.023438 148.738281 C 138.160156 148.476562 137.648438 147.835938 137.519531 146.933594 C 137.449219 146.4375 137.425781 145.929688 137.375 145.363281 C 135.996094 145.164062 134.640625 144.96875 133.179688 144.757812 C 133.113281 150.148438 133.09375 155.445312 133.113281 160.832031 C 136.550781 161.109375 139.929688 161.382812 143.375 161.660156 C 143.5 160.804688 143.609375 160.039062 143.734375 159.273438 C 143.808594 158.820312 143.890625 158.363281 144.015625 157.921875 C 144.253906 157.074219 144.839844 156.609375 145.714844 156.554688 C 147.25 156.453125 148.746094 156.6875 150.1875 157.207031 C 151.394531 157.644531 151.898438 158.449219 151.769531 159.71875 C 151.6875 160.515625 151.53125 161.3125 151.339844 162.09375 C 150.996094 163.476562 150.609375 164.847656 150.230469 166.222656 C 150.011719 167.015625 149.5625 167.683594 149.042969 168.308594 C 148.449219 169.019531 147.636719 169.25 146.761719 169.253906 C 145.40625 169.261719 144.046875 169.230469 142.691406 169.183594 C 140.992188 169.125 139.292969 169.058594 137.59375 168.953125 C 134.796875 168.78125 132 168.585938 129.203125 168.378906 C 127.253906 168.234375 125.308594 168.070312 123.363281 167.882812 C 122.378906 167.785156 121.398438 167.644531 120.429688 167.457031 C 119.363281 167.253906 118.558594 166.6875 118.269531 165.578125 C 118.183594 165.246094 118.15625 164.894531 118.15625 164.550781 C 118.160156 163.726562 118.183594 162.898438 118.226562 162.074219 C 118.242188 161.804688 118.34375 161.535156 118.429688 161.273438 C 118.753906 160.320312 119.429688 159.816406 120.425781 159.730469 C 120.671875 159.707031 120.917969 159.683594 121.152344 159.664062 C 121.4375 158.039062 121.449219 118.332031 121.164062 116.777344 C 120.730469 116.742188 120.277344 116.707031 119.828125 116.660156 C 118.707031 116.546875 118.136719 116.058594 117.871094 114.949219 C 117.550781 113.609375 117.609375 112.246094 117.695312 110.894531 C 117.742188 110.148438 118.34375 109.265625 119.453125 109.285156 C 122 109.332031 124.554688 109.328125 127.101562 109.425781 C 129.398438 109.511719 131.691406 109.675781 133.984375 109.855469 C 136.367188 110.042969 138.746094 110.285156 141.125 110.5 C 142.175781 110.59375 143.226562 110.675781 144.308594 110.765625 C 144.472656 110.378906 144.632812 110.027344 144.78125 109.671875 C 145.148438 108.785156 145.8125 108.304688 146.761719 108.347656 C 148.253906 108.410156 149.746094 108.484375 151.230469 108.644531 C 152.398438 108.769531 152.984375 109.691406 152.703125 110.839844 C 152.546875 111.484375 152.324219 112.121094 152.074219 112.738281 C 151.320312 114.617188 150.542969 116.488281 149.765625 118.355469 C 149.589844 118.78125 149.390625 119.199219 149.167969 119.597656 C 148.632812 120.574219 147.785156 120.984375 146.695312 120.878906 C 145.78125 120.789062 144.871094 120.664062 143.964844 120.527344 C 143 120.378906 142.609375 119.917969 142.554688 118.960938 C 142.550781 118.867188 142.546875 118.777344 142.539062 118.597656 C 139.476562 118.332031 136.425781 118.0625 133.242188 117.785156 " fill-opacity="1" fill-rule="nonzero"/><path fill="#88c0fa" d="M 199.207031 267.167969 C 199.429688 267.175781 199.542969 267.191406 199.65625 267.1875 C 199.820312 267.179688 199.980469 267.160156 200.140625 267.148438 C 201.632812 267.03125 202.996094 266.476562 204.347656 265.890625 C 206.183594 265.09375 207.648438 263.832031 208.777344 262.171875 C 209.886719 260.535156 210.484375 258.722656 210.714844 256.773438 C 211.015625 254.242188 210.546875 251.867188 209.207031 249.691406 C 208.261719 248.160156 206.921875 247.140625 205.199219 246.601562 C 203.597656 246.101562 201.984375 246.152344 200.359375 246.425781 C 199.984375 246.492188 199.617188 246.601562 199.207031 246.699219 C 199.207031 253.550781 199.207031 260.332031 199.207031 267.167969 Z M 199.09375 275.378906 C 199.09375 275.691406 199.09375 275.941406 199.09375 276.191406 C 199.085938 280.496094 199.058594 284.800781 199.09375 289.105469 C 199.101562 290.285156 198.582031 291.085938 197.660156 291.675781 C 197.203125 291.96875 196.679688 292.179688 196.164062 292.363281 C 194.1875 293.066406 192.140625 293.496094 190.074219 293.820312 C 189.511719 293.910156 188.925781 293.90625 188.355469 293.875 C 187.597656 293.835938 187.070312 293.367188 186.910156 292.625 C 186.839844 292.289062 186.820312 291.941406 186.820312 291.597656 C 186.847656 279.394531 186.878906 267.195312 186.910156 254.992188 C 186.917969 251.792969 186.949219 248.59375 186.914062 245.394531 C 186.902344 244.179688 187.375 243.328125 188.402344 242.722656 C 190.351562 241.578125 192.394531 240.632812 194.527344 239.898438 C 197.515625 238.867188 200.585938 238.21875 203.730469 237.886719 C 205.867188 237.660156 207.996094 237.601562 210.117188 238 C 216.179688 239.148438 220.15625 242.734375 221.972656 248.570312 C 224.402344 256.390625 222.558594 263.285156 216.976562 269.191406 C 214.53125 271.78125 211.585938 273.640625 208.128906 274.582031 C 205.773438 275.222656 203.371094 275.625 200.910156 275.511719 C 200.339844 275.484375 199.769531 275.429688 199.09375 275.378906 " fill-opacity="1" fill-rule="nonzero"/><path fill="#88c0fa" d="M 110.25 295.121094 C 107.28125 295.128906 104.222656 294.34375 101.507812 292.460938 C 98.222656 290.179688 96 287.144531 95.242188 283.152344 C 94.769531 280.664062 95.058594 278.246094 96.167969 275.953125 C 96.863281 274.511719 97.851562 273.320312 99.269531 272.53125 C 100.609375 271.78125 102.027344 271.542969 103.523438 271.980469 C 105.300781 272.5 106.347656 273.796875 107.082031 275.398438 C 107.332031 275.933594 107.152344 276.46875 106.976562 277.003906 C 106.722656 277.789062 106.476562 278.582031 106.316406 279.386719 C 106.015625 280.933594 106.183594 282.464844 106.648438 283.957031 C 107.023438 285.15625 107.699219 286.183594 108.859375 286.742188 C 111.097656 287.828125 113.070312 286.890625 114.070312 285.015625 C 114.753906 283.742188 114.851562 282.335938 114.816406 280.917969 C 114.761719 278.765625 113.996094 276.820312 112.941406 274.996094 C 112.039062 273.433594 110.914062 272.027344 109.515625 270.875 C 107.722656 269.398438 105.921875 267.933594 104.09375 266.5 C 102.121094 264.949219 100.144531 263.40625 98.5 261.492188 C 96.496094 259.164062 95.074219 256.554688 94.546875 253.492188 C 94.195312 251.4375 94.261719 249.414062 94.882812 247.417969 C 96.289062 242.890625 99.03125 239.488281 103.410156 237.574219 C 107.800781 235.65625 112.238281 235.703125 116.550781 237.820312 C 119.929688 239.480469 122.140625 242.171875 122.964844 245.90625 C 123.367188 247.71875 123.230469 249.527344 122.84375 251.316406 C 122.636719 252.28125 122.367188 253.234375 122.050781 254.167969 C 121.75 255.050781 121.222656 255.804688 120.539062 256.449219 C 119.734375 257.203125 118.78125 257.441406 117.730469 257.203125 C 116.394531 256.902344 115.171875 256.3125 114 255.621094 C 113.75 255.472656 113.523438 255.257812 113.332031 255.035156 C 112.730469 254.332031 112.683594 253.894531 113.140625 253.089844 C 113.796875 251.9375 114.210938 250.699219 114.425781 249.394531 C 114.636719 248.121094 114.402344 246.917969 113.742188 245.8125 C 112.742188 244.144531 110.449219 243.335938 108.613281 243.980469 C 107.863281 244.246094 107.320312 244.769531 106.886719 245.40625 C 105.984375 246.714844 105.785156 248.15625 106.144531 249.6875 C 106.625 251.746094 107.660156 253.488281 109.253906 254.863281 C 110.785156 256.1875 112.351562 257.46875 113.933594 258.734375 C 116.695312 260.941406 119.175781 263.417969 121.390625 266.175781 C 123.84375 269.234375 125.167969 272.710938 125.417969 276.617188 C 125.710938 281.175781 124.71875 285.386719 122.121094 289.179688 C 119.378906 293.1875 115.371094 295.1875 110.25 295.121094 " fill-opacity="1" fill-rule="nonzero"/><g clip-path="url(#f1805b3315)"><path fill="#88c0fa" d="M 147.160156 292.019531 C 147.726562 292.097656 148.1875 292.128906 148.628906 292.230469 C 149.523438 292.429688 150.035156 293.027344 150.054688 293.9375 C 150.078125 295.226562 149.957031 296.507812 149.679688 297.773438 C 149.433594 298.890625 148.746094 299.566406 147.609375 299.675781 C 146.558594 299.769531 145.496094 299.792969 144.445312 299.796875 C 140.808594 299.808594 137.175781 299.792969 133.546875 299.796875 C 132.5 299.796875 131.855469 299.277344 131.742188 298.210938 C 131.660156 297.410156 131.632812 296.597656 131.632812 295.796875 C 131.632812 295.0625 131.679688 294.324219 131.746094 293.59375 C 131.773438 293.253906 131.859375 292.90625 131.992188 292.597656 C 132.242188 291.992188 132.726562 291.667969 133.386719 291.640625 C 133.84375 291.625 134.300781 291.640625 134.84375 291.640625 C 134.929688 275.988281 134.851562 260.363281 134.902344 244.707031 C 134.722656 244.65625 134.574219 244.605469 134.425781 244.578125 C 131.726562 244.15625 129.023438 243.738281 126.328125 243.316406 C 126.144531 243.285156 125.964844 243.238281 125.789062 243.195312 C 123.882812 242.734375 123.078125 241.863281 122.753906 239.914062 C 122.464844 238.191406 122.59375 236.472656 122.828125 234.757812 C 122.878906 234.371094 122.945312 233.988281 123.035156 233.605469 C 123.277344 232.578125 123.941406 232.078125 124.996094 232.195312 C 125.859375 232.285156 126.714844 232.472656 127.578125 232.585938 C 130.011719 232.898438 132.449219 233.226562 134.890625 233.492188 C 137.933594 233.820312 140.992188 233.9375 144.046875 233.878906 C 148.757812 233.792969 153.460938 233.566406 158.136719 232.921875 C 158.523438 232.867188 158.90625 232.796875 159.292969 232.742188 C 160.402344 232.574219 161.167969 233.125 161.257812 234.238281 C 161.355469 235.40625 161.390625 236.578125 161.410156 237.75 C 161.4375 239.199219 161.425781 240.652344 161.421875 242.101562 C 161.417969 242.984375 161.066406 243.433594 160.1875 243.546875 C 158.089844 243.816406 155.992188 244.09375 153.890625 244.277344 C 151.785156 244.460938 149.671875 244.539062 147.5625 244.664062 C 147.472656 244.667969 147.386719 244.691406 147.21875 244.714844 C 147.203125 245.167969 147.167969 245.621094 147.167969 246.074219 C 147.164062 258.847656 147.164062 271.625 147.164062 284.402344 C 147.160156 286.679688 147.160156 288.957031 147.160156 291.238281 C 147.160156 291.488281 147.160156 291.734375 147.160156 292.019531 " fill-opacity="1" fill-rule="nonzero"/></g><g clip-path="url(#c6a2730ab4)"><path fill="#88c0fa" d="M 166.675781 254.339844 C 166.675781 259.1875 166.675781 263.917969 166.675781 268.703125 C 166.925781 268.6875 167.148438 268.679688 167.371094 268.65625 C 169.515625 268.414062 171.660156 268.171875 173.804688 267.933594 C 173.964844 267.914062 174.128906 267.917969 174.289062 267.917969 C 175.878906 267.925781 176.679688 268.625 176.84375 270.203125 C 176.992188 271.648438 176.960938 273.097656 176.742188 274.535156 C 176.585938 275.5625 176.128906 276.023438 175.089844 276.175781 C 174.273438 276.292969 173.449219 276.367188 172.625 276.464844 C 170.710938 276.6875 168.796875 276.910156 166.878906 277.136719 C 166.789062 277.148438 166.703125 277.179688 166.550781 277.21875 C 166.550781 281.644531 166.550781 286.070312 166.550781 290.523438 C 167.003906 290.523438 167.457031 290.546875 167.910156 290.519531 C 171.421875 290.300781 174.894531 289.777344 178.328125 289.003906 C 179.246094 288.796875 180.15625 288.542969 181.070312 288.316406 C 181.785156 288.136719 182.292969 288.421875 182.472656 289.136719 C 182.558594 289.464844 182.605469 289.820312 182.601562 290.15625 C 182.589844 291.792969 182.558594 293.425781 182.53125 295.058594 C 182.527344 295.105469 182.523438 295.152344 182.519531 295.195312 C 182.386719 296.496094 182.023438 296.964844 180.753906 297.21875 C 178.660156 297.636719 176.558594 298.050781 174.449219 298.363281 C 172.066406 298.71875 169.667969 299 167.269531 299.238281 C 165.078125 299.457031 162.871094 299.605469 160.664062 299.492188 C 159.59375 299.433594 158.507812 299.316406 157.464844 299.078125 C 155.660156 298.660156 154.585938 297.460938 154.378906 295.617188 C 154.167969 293.746094 154.003906 291.867188 153.941406 289.984375 C 153.640625 281.0625 153.621094 272.132812 153.671875 263.203125 C 153.6875 260.464844 153.667969 257.722656 153.710938 254.984375 C 153.738281 253.355469 153.847656 251.722656 153.9375 250.09375 C 154.007812 248.878906 154.585938 247.960938 155.742188 247.5625 C 156.824219 247.1875 157.9375 246.882812 159.058594 246.65625 C 161.828125 246.089844 164.636719 245.753906 167.449219 245.5 C 170.765625 245.203125 174.085938 244.929688 177.402344 244.667969 C 178.457031 244.582031 179.515625 244.5625 180.570312 244.535156 C 180.863281 244.527344 181.167969 244.578125 181.453125 244.65625 C 182.179688 244.84375 182.605469 245.335938 182.65625 246.078125 C 182.738281 247.40625 182.777344 248.738281 182.824219 250.074219 C 182.839844 250.488281 182.824219 250.902344 182.804688 251.316406 C 182.757812 252.367188 182.269531 253 181.253906 253.238281 C 180.675781 253.375 180.078125 253.464844 179.488281 253.5 C 177.421875 253.628906 175.355469 253.699219 173.292969 253.835938 C 171.121094 253.976562 168.949219 254.164062 166.675781 254.339844 " fill-opacity="1" fill-rule="nonzero"/></g><path fill="#88c0fa" d="M 172.410156 32.992188 C 173.050781 33.132812 173.609375 33.144531 174.191406 33 C 176.824219 32.355469 178.777344 30.824219 179.980469 28.394531 C 181.140625 26.054688 181.578125 23.578125 181.261719 20.96875 C 180.871094 17.71875 179.054688 15.539062 176.023438 14.773438 C 175.316406 14.597656 174.589844 14.460938 173.796875 14.691406 C 173.335938 20.796875 172.871094 26.902344 172.410156 32.992188 Z M 180.074219 37.402344 C 180.546875 38.625 180.921875 39.835938 181.472656 40.964844 C 182.152344 42.367188 182.941406 43.722656 183.746094 45.058594 C 184.308594 45.988281 185.089844 46.75 185.957031 47.410156 C 186.453125 47.785156 186.984375 48.09375 187.632812 48.242188 C 187.746094 48.027344 187.851562 47.828125 187.960938 47.632812 C 189.023438 45.75 191.3125 45.339844 192.972656 46.726562 C 193.941406 47.539062 194.476562 48.597656 194.605469 49.824219 C 194.972656 53.394531 193.277344 56.648438 189.328125 57.589844 C 187.371094 58.058594 185.496094 57.679688 183.730469 56.75 C 182.449219 56.074219 181.40625 55.109375 180.46875 54.019531 C 178.101562 51.28125 176.597656 48.105469 175.765625 44.609375 C 175.363281 42.910156 175.097656 41.179688 174.773438 39.464844 C 174.75 39.355469 174.730469 39.25 174.695312 39.085938 C 173.851562 39.175781 173.039062 39.261719 172.136719 39.355469 C 172.089844 40.394531 172.058594 41.421875 172 42.445312 C 171.882812 44.417969 171.753906 46.390625 171.628906 48.359375 C 171.625 48.429688 171.613281 48.5 171.601562 48.566406 C 171.332031 50.375 170.464844 51.171875 168.648438 51.175781 C 167.316406 51.175781 165.988281 51.101562 164.660156 51.007812 C 164.234375 50.980469 163.808594 50.816406 163.40625 50.660156 C 162.398438 50.265625 161.863281 49.496094 161.847656 48.429688 C 161.835938 47.351562 161.898438 46.273438 161.957031 45.195312 C 162.09375 42.625 162.253906 40.054688 162.390625 37.484375 C 162.539062 34.796875 162.667969 32.113281 162.808594 29.425781 C 162.945312 26.855469 163.085938 24.285156 163.222656 21.714844 C 163.363281 19.121094 163.496094 16.527344 163.636719 13.933594 C 163.675781 13.175781 163.699219 12.414062 163.777344 11.664062 C 163.867188 10.855469 164.28125 10.238281 165.035156 9.890625 C 166.207031 9.347656 167.445312 8.988281 168.71875 8.792969 C 171.808594 8.308594 174.910156 8.332031 177.976562 8.902344 C 181.324219 9.519531 184.265625 11.007812 186.546875 13.5625 C 189.96875 17.386719 190.894531 21.859375 189.472656 26.746094 C 188.136719 31.34375 185.292969 34.773438 180.980469 36.933594 C 180.699219 37.078125 180.417969 37.222656 180.074219 37.402344 " fill-opacity="1" fill-rule="nonzero"/><g clip-path="url(#b41cad34da)"><path fill="#88c0fa" d="M 145.402344 14.964844 C 145.402344 19.003906 145.402344 22.953125 145.402344 26.976562 C 146.210938 26.921875 146.980469 26.875 147.75 26.824219 C 149.054688 26.734375 150.363281 26.640625 151.667969 26.550781 C 152.355469 26.507812 153.042969 26.429688 153.730469 26.421875 C 154.691406 26.414062 155.316406 26.917969 155.425781 27.878906 C 155.566406 29.113281 155.601562 30.363281 155.339844 31.589844 C 155.097656 32.738281 154.429688 33.351562 153.261719 33.480469 C 152.421875 33.574219 151.570312 33.625 150.722656 33.636719 C 148.976562 33.660156 147.230469 33.640625 145.476562 33.640625 C 145.339844 34.070312 145.21875 42.746094 145.351562 43.640625 C 145.539062 43.648438 145.738281 43.675781 145.9375 43.671875 C 147.429688 43.632812 148.921875 43.601562 150.414062 43.539062 C 152.089844 43.472656 153.765625 43.367188 155.441406 43.292969 C 156.128906 43.265625 156.820312 43.261719 157.507812 43.277344 C 157.804688 43.28125 158.105469 43.335938 158.390625 43.414062 C 159.183594 43.636719 159.667969 44.183594 159.707031 44.996094 C 159.757812 46.121094 159.785156 47.257812 159.695312 48.378906 C 159.585938 49.738281 158.789062 50.328125 157.734375 50.382812 C 157.480469 50.398438 157.230469 50.441406 156.980469 50.441406 C 151.621094 50.460938 146.261719 50.484375 140.902344 50.488281 C 140.101562 50.488281 139.296875 50.425781 138.5 50.332031 C 136.941406 50.148438 136.183594 49.472656 135.894531 47.933594 C 135.695312 46.875 135.558594 45.796875 135.476562 44.722656 C 135.320312 42.609375 135.148438 40.496094 135.105469 38.382812 C 135.039062 35.183594 135.074219 31.984375 135.070312 28.785156 C 135.066406 26.414062 135.050781 24.039062 135.074219 21.671875 C 135.097656 19.4375 135.140625 17.207031 135.214844 14.972656 C 135.257812 13.734375 135.433594 12.511719 135.832031 11.316406 C 136.21875 10.15625 136.960938 9.46875 138.132812 9.179688 C 140.101562 8.695312 142.101562 8.40625 144.113281 8.203125 C 147.132812 7.890625 150.152344 7.652344 153.1875 7.628906 C 154.863281 7.613281 156.542969 7.59375 158.214844 7.644531 C 159.894531 7.695312 160.746094 8.546875 160.863281 10.214844 C 160.925781 11.148438 160.964844 12.09375 160.953125 13.035156 C 160.941406 14.261719 160.371094 14.882812 159.160156 14.949219 C 158.035156 15.007812 156.90625 14.96875 155.78125 14.964844 C 152.585938 14.953125 149.390625 14.933594 146.195312 14.917969 C 145.945312 14.917969 145.699219 14.945312 145.402344 14.964844 " fill-opacity="1" fill-rule="nonzero"/></g><path fill="#88c0fa" d="M 87.488281 23.277344 C 88.269531 27.066406 89.039062 30.816406 89.816406 34.617188 C 90.042969 34.574219 90.214844 34.550781 90.386719 34.507812 C 92.417969 34.011719 94.4375 33.480469 96.476562 33.027344 C 97.652344 32.761719 98.554688 33.359375 98.738281 34.554688 C 98.910156 35.664062 98.980469 36.796875 98.976562 37.917969 C 98.972656 38.941406 98.566406 39.386719 97.539062 39.679688 C 95.660156 40.210938 93.769531 40.703125 91.886719 41.210938 C 91.710938 41.257812 91.539062 41.3125 91.28125 41.386719 C 92.058594 45.007812 92.902344 48.59375 93.8125 52.214844 C 94.089844 52.136719 94.304688 52.082031 94.523438 52.015625 C 98.042969 50.960938 101.5625 49.90625 105.082031 48.855469 C 105.324219 48.78125 105.574219 48.722656 105.824219 48.695312 C 106.695312 48.59375 107.308594 48.9375 107.609375 49.765625 C 108.007812 50.847656 108.230469 51.976562 108.25 53.136719 C 108.265625 53.964844 107.882812 54.550781 107.128906 54.867188 C 106.664062 55.0625 106.179688 55.214844 105.695312 55.351562 C 101.667969 56.464844 97.644531 57.59375 93.605469 58.671875 C 92.386719 58.996094 91.136719 59.203125 89.890625 59.398438 C 89.101562 59.519531 88.285156 59.59375 87.5 59.320312 C 86.386719 58.925781 85.636719 58.121094 85.226562 57.054688 C 84.710938 55.703125 84.277344 54.320312 83.847656 52.9375 C 82.324219 48.011719 81.21875 42.984375 80.125 37.949219 C 78.9375 32.511719 77.933594 27.042969 76.992188 21.5625 C 76.769531 20.273438 77.097656 19.589844 78.339844 19.132812 C 79.980469 18.53125 81.644531 18 83.3125 17.492188 C 87.707031 16.148438 92.152344 14.992188 96.621094 13.929688 C 97.042969 13.828125 97.480469 13.753906 97.910156 13.75 C 98.902344 13.738281 99.675781 14.386719 99.707031 15.375 C 99.742188 16.613281 99.664062 17.855469 99.609375 19.09375 C 99.578125 19.878906 99.097656 20.355469 98.390625 20.597656 C 97.871094 20.777344 97.335938 20.917969 96.800781 21.046875 C 93.894531 21.738281 90.988281 22.414062 88.082031 23.101562 C 87.910156 23.140625 87.742188 23.199219 87.488281 23.277344 " fill-opacity="1" fill-rule="nonzero"/><path fill="#88c0fa" d="M 119.105469 44.425781 C 119.3125 43.5625 119.554688 42.703125 119.71875 41.832031 C 120.46875 37.875 121.203125 33.921875 121.921875 29.964844 C 122.695312 25.6875 123.441406 21.40625 124.203125 17.128906 C 124.492188 15.523438 124.796875 13.914062 125.113281 12.3125 C 125.203125 11.84375 125.347656 11.378906 125.503906 10.921875 C 125.882812 9.816406 126.671875 9.226562 127.835938 9.210938 C 129.171875 9.195312 130.496094 9.359375 131.777344 9.757812 C 132.71875 10.054688 133.203125 10.8125 133.03125 11.792969 C 132.785156 13.167969 132.453125 14.535156 132.152344 15.902344 C 131.277344 19.828125 130.445312 23.765625 129.511719 27.679688 C 128.222656 33.09375 127.109375 38.550781 125.523438 43.886719 C 125.105469 45.296875 124.628906 46.691406 124.167969 48.085938 C 124.0625 48.414062 123.914062 48.726562 123.773438 49.042969 C 123.066406 50.671875 121.894531 51.695312 120.105469 52.058594 C 118.824219 52.316406 117.566406 52.660156 116.246094 52.742188 C 114.375 52.855469 112.808594 52.3125 111.828125 50.652344 C 111.074219 49.371094 110.367188 48.039062 109.789062 46.667969 C 106.585938 39.101562 103.785156 31.390625 101.660156 23.441406 C 101.433594 22.597656 101.222656 21.75 100.957031 20.917969 C 100.777344 20.359375 100.9375 19.925781 101.324219 19.546875 C 101.519531 19.351562 101.746094 19.1875 101.972656 19.03125 C 103.816406 17.761719 105.804688 16.753906 107.816406 15.792969 C 107.984375 15.710938 108.15625 15.640625 108.332031 15.597656 C 109.578125 15.292969 110.371094 15.585938 110.910156 16.613281 C 111.257812 17.273438 111.542969 17.996094 111.730469 18.722656 C 112.402344 21.351562 113.023438 23.992188 113.65625 26.632812 C 114.945312 32.023438 116.382812 37.371094 118.082031 42.652344 C 118.179688 42.957031 118.300781 43.257812 118.441406 43.542969 C 118.589844 43.851562 118.773438 44.140625 118.941406 44.441406 C 118.996094 44.4375 119.050781 44.429688 119.105469 44.425781 " fill-opacity="1" fill-rule="nonzero"/><g clip-path="url(#a9985ef52d)"><path fill="#88c0fa" d="M 239.644531 156.636719 C 241.515625 156.636719 243.246094 156.636719 244.988281 156.636719 C 244.875 155.820312 242.523438 148.535156 242.195312 148.042969 C 241.335938 150.933594 240.496094 153.765625 239.644531 156.636719 Z M 248.710938 167.652344 C 248.160156 166.023438 247.613281 164.421875 247.074219 162.824219 C 244.007812 162.824219 240.984375 162.824219 237.910156 162.824219 C 237.699219 163.589844 237.496094 164.316406 237.304688 165.042969 C 237.019531 166.113281 236.761719 167.1875 236.457031 168.246094 C 236.34375 168.640625 236.167969 169.023438 235.964844 169.378906 C 235.699219 169.851562 235.265625 170.132812 234.714844 170.097656 C 233.617188 170.03125 232.507812 169.992188 231.421875 169.824219 C 230.175781 169.628906 229.742188 168.898438 230.082031 167.679688 C 231.203125 163.671875 232.3125 159.660156 233.496094 155.667969 C 234.761719 151.390625 236.105469 147.136719 237.414062 142.871094 C 237.460938 142.71875 237.492188 142.5625 237.546875 142.339844 C 237.210938 142.359375 236.917969 142.375 236.625 142.394531 C 235.503906 142.476562 234.933594 142.066406 234.855469 140.976562 C 234.78125 139.96875 234.757812 138.949219 234.832031 137.941406 C 234.945312 136.402344 235.714844 135.585938 237.277344 135.300781 C 239.625 134.875 241.988281 134.507812 244.339844 134.097656 C 246.039062 133.800781 247.730469 133.484375 249.421875 133.148438 C 249.96875 133.039062 250.382812 133.1875 250.675781 133.636719 C 250.859375 133.925781 251 134.246094 251.121094 134.566406 C 251.617188 135.890625 251.820312 137.277344 251.941406 138.679688 C 251.960938 138.953125 251.941406 139.234375 251.886719 139.503906 C 251.75 140.195312 251.355469 140.667969 250.640625 140.816406 C 250.167969 140.914062 249.691406 140.988281 249.21875 141.078125 C 249.039062 141.109375 248.867188 141.148438 248.695312 141.183594 C 248.765625 142.347656 255.898438 163.484375 256.753906 165.082031 C 257.152344 164.945312 257.554688 164.796875 257.964844 164.671875 C 258.867188 164.394531 259.371094 164.574219 259.789062 165.40625 C 260.148438 166.125 260.464844 166.871094 260.738281 167.625 C 260.867188 167.980469 260.886719 168.390625 260.902344 168.777344 C 260.929688 169.535156 260.574219 170.113281 259.925781 170.480469 C 259.546875 170.691406 259.140625 170.875 258.730469 171.003906 C 255.96875 171.882812 253.207031 172.75 250.441406 173.597656 C 250.007812 173.730469 249.542969 173.804688 249.089844 173.839844 C 248.488281 173.886719 247.996094 173.609375 247.722656 173.078125 C 247.1875 172.03125 246.746094 170.941406 246.675781 169.75 C 246.621094 168.859375 246.929688 168.386719 247.75 168.019531 C 248.039062 167.886719 248.34375 167.789062 248.710938 167.652344 " fill-opacity="1" fill-rule="nonzero"/></g><path fill="#88c0fa" d="M 206.140625 31.386719 C 206.292969 31.199219 206.410156 31.0625 206.515625 30.917969 C 209.550781 26.726562 212.582031 22.53125 215.621094 18.34375 C 216.039062 17.765625 216.46875 17.191406 216.9375 16.65625 C 217.722656 15.761719 218.671875 15.632812 219.640625 16.316406 C 220.566406 16.972656 221.332031 17.800781 222 18.71875 C 222.550781 19.476562 222.605469 20.316406 222.191406 21.132812 C 221.839844 21.824219 221.4375 22.507812 220.964844 23.121094 C 218.558594 26.234375 216.128906 29.328125 213.699219 32.417969 C 212.148438 34.390625 210.574219 36.34375 209.03125 38.316406 C 208.839844 38.558594 208.6875 38.871094 208.628906 39.171875 C 207.867188 42.957031 207.136719 46.75 206.386719 50.539062 C 206.082031 52.070312 205.757812 53.597656 205.433594 55.128906 C 205.375 55.394531 205.277344 55.65625 205.171875 55.910156 C 204.722656 57.007812 203.925781 57.613281 202.71875 57.53125 C 202.011719 57.484375 201.289062 57.433594 200.613281 57.242188 C 199.511719 56.925781 198.445312 56.496094 197.359375 56.113281 C 197.253906 56.074219 197.152344 56.023438 197.046875 55.96875 C 196.078125 55.476562 195.761719 54.820312 195.832031 53.726562 C 195.957031 51.691406 196.523438 49.746094 196.9375 47.769531 C 197.652344 44.347656 198.371094 40.929688 199.097656 37.511719 C 199.15625 37.226562 199.152344 36.996094 199.007812 36.726562 C 196.050781 31.253906 193.96875 25.445312 192.429688 19.433594 C 192.101562 18.164062 191.847656 16.878906 191.566406 15.597656 C 191.527344 15.417969 191.492188 15.238281 191.476562 15.054688 C 191.34375 13.578125 191.707031 12.835938 193.050781 12.242188 C 194.878906 11.4375 196.789062 10.835938 198.753906 10.4375 C 199.902344 10.207031 200.722656 10.605469 201.238281 11.699219 C 201.664062 12.609375 202.007812 13.578125 202.226562 14.558594 C 202.785156 17.046875 203.203125 19.566406 203.773438 22.054688 C 204.449219 25.007812 205.222656 27.945312 205.957031 30.886719 C 205.996094 31.039062 206.066406 31.183594 206.140625 31.386719 " fill-opacity="1" fill-rule="nonzero"/><path fill="#88c0fa" d="M 60.675781 208.871094 C 60.398438 210.539062 60.109375 212.296875 59.808594 214.105469 C 59.578125 214.070312 59.402344 214.058594 59.234375 214.011719 C 53.707031 212.488281 49.863281 209.023438 47.546875 203.820312 C 46.757812 202.050781 46.1875 200.207031 45.96875 198.269531 C 45.441406 193.585938 46.457031 189.394531 49.929688 186.007812 C 51.199219 184.769531 52.652344 183.835938 54.410156 183.421875 C 56.660156 182.894531 58.710938 183.699219 59.832031 185.578125 C 59.996094 185.851562 60.128906 186.152344 60.234375 186.453125 C 60.441406 187.058594 60.363281 187.519531 59.84375 188.039062 C 58.386719 189.503906 57.28125 191.226562 56.625 193.203125 C 55.519531 196.511719 55.308594 199.863281 56.261719 203.25 C 56.726562 204.902344 57.546875 206.351562 58.859375 207.480469 C 59.398438 207.9375 59.984375 208.34375 60.675781 208.871094 " fill-opacity="1" fill-rule="nonzero"/><path fill="#88c0fa" d="M 69.039062 52.648438 C 68.960938 54.171875 68.921875 55.480469 68.8125 56.785156 C 68.773438 57.253906 68.601562 57.722656 68.4375 58.175781 C 68.222656 58.777344 67.746094 59.152344 67.167969 59.363281 C 66.5 59.605469 65.8125 59.792969 65.132812 60.003906 C 64.167969 60.304688 63.207031 60.605469 62.238281 60.898438 C 61.933594 60.992188 61.621094 61.097656 61.308594 61.121094 C 60.320312 61.203125 59.78125 60.816406 59.574219 59.851562 C 59.4375 59.226562 59.367188 58.582031 59.304688 57.945312 C 59.066406 55.519531 58.871094 53.09375 58.597656 50.671875 C 58.464844 49.511719 58.265625 48.34375 57.964844 47.21875 C 57.648438 46.035156 57.984375 45.179688 58.863281 44.402344 C 59.886719 43.496094 61.03125 42.851562 62.347656 42.527344 C 63.417969 42.261719 64.5 42.117188 65.621094 42.292969 C 66.636719 42.449219 67.355469 42.964844 67.859375 43.832031 C 68.371094 44.707031 68.578125 45.675781 68.65625 46.664062 C 68.8125 48.726562 68.921875 50.792969 69.039062 52.648438 " fill-opacity="1" fill-rule="nonzero"/><path fill="#88c0fa" d="M 79.082031 270.675781 C 80.992188 268.324219 83.316406 266.402344 85.199219 264.066406 C 85.015625 264.117188 84.867188 264.207031 84.730469 264.308594 C 83.273438 265.394531 81.8125 266.476562 80.359375 267.566406 C 79.9375 267.882812 79.507812 268.195312 79.109375 268.539062 C 78.179688 269.347656 78.175781 269.691406 79.082031 270.675781 Z M 91.535156 260.078125 C 91.347656 261.417969 91.21875 262.769531 90.953125 264.097656 C 90.410156 266.851562 89.683594 269.5625 88.519531 272.128906 C 88.152344 272.941406 87.714844 273.726562 87.28125 274.511719 C 87.105469 274.828125 86.871094 275.121094 86.636719 275.402344 C 85.257812 277.078125 83.507812 277.367188 81.800781 276.011719 C 80.277344 274.804688 78.871094 273.4375 77.453125 272.097656 C 77.042969 271.714844 76.738281 271.199219 76.457031 270.703125 C 76.019531 269.921875 76.066406 269.117188 76.496094 268.332031 C 76.859375 267.671875 77.402344 267.175781 77.992188 266.730469 C 79.347656 265.707031 80.726562 264.710938 82.085938 263.691406 C 84.476562 261.898438 86.78125 259.996094 88.878906 257.859375 C 89.023438 257.714844 89.175781 257.5625 89.347656 257.457031 C 89.980469 257.0625 90.691406 257.269531 91.035156 257.929688 C 91.390625 258.601562 91.507812 259.316406 91.535156 260.078125 " fill-opacity="1" fill-rule="nonzero"/><path fill="#88c0fa" d="M 115.21875 172.859375 C 116.175781 172.9375 117.148438 172.9375 118.085938 173.113281 C 119.726562 173.421875 120.492188 174.542969 120.167969 176.171875 C 119.90625 177.5 119.546875 178.808594 119.179688 180.113281 C 118.699219 181.816406 118.175781 183.507812 117.65625 185.199219 C 117.558594 185.527344 117.410156 185.839844 117.28125 186.160156 C 116.828125 187.289062 115.980469 187.894531 114.78125 187.875 C 113.175781 187.84375 111.570312 187.765625 109.972656 187.625 C 109.003906 187.539062 108.394531 186.820312 108.402344 185.839844 C 108.40625 184.875 108.496094 183.910156 108.585938 182.949219 C 108.742188 181.234375 108.921875 179.523438 109.097656 177.808594 C 109.183594 176.960938 109.261719 176.117188 109.371094 175.273438 C 109.46875 174.539062 109.820312 173.933594 110.542969 173.703125 C 111.324219 173.453125 112.132812 173.273438 112.945312 173.140625 C 113.691406 173.015625 114.453125 172.996094 115.207031 172.929688 C 115.210938 172.90625 115.214844 172.882812 115.21875 172.859375 " fill-opacity="1" fill-rule="nonzero"/><path fill="#88c0fa" d="M 223.753906 37.375 C 223.496094 37.171875 223.292969 36.992188 223.070312 36.835938 C 222.59375 36.503906 222.46875 36.480469 222.066406 36.902344 C 221.59375 37.394531 221.144531 37.925781 220.753906 38.488281 C 219.613281 40.136719 218.742188 41.933594 217.925781 43.757812 C 217.894531 43.820312 217.898438 43.898438 217.886719 43.972656 C 219.695312 41.664062 221.304688 39.21875 223.753906 37.375 Z M 228.742188 41.515625 C 228.71875 42.40625 228.394531 43.148438 227.6875 43.679688 C 227.15625 44.082031 226.609375 44.460938 226.042969 44.808594 C 221.976562 47.300781 218.117188 50.058594 214.597656 53.289062 C 214.414062 53.457031 214.21875 53.625 214.007812 53.761719 C 213.652344 53.992188 213.28125 54.019531 212.90625 53.785156 C 212.5625 53.566406 212.507812 53.238281 212.585938 52.878906 C 212.710938 52.320312 212.839844 51.757812 212.996094 51.207031 C 214.207031 47.046875 215.753906 43.019531 217.890625 39.242188 C 218.40625 38.324219 219.011719 37.449219 219.640625 36.601562 C 220.007812 36.113281 220.464844 35.667969 220.953125 35.292969 C 221.925781 34.542969 223.003906 34.472656 224.027344 35.171875 C 224.722656 35.644531 225.371094 36.207031 225.972656 36.804688 C 226.917969 37.75 227.648438 38.871094 228.332031 40.023438 C 228.601562 40.480469 228.773438 40.980469 228.742188 41.515625 " fill-opacity="1" fill-rule="nonzero"/><path fill="#88c0fa" d="M 76.039062 57.71875 C 76.117188 57.234375 76.144531 56.824219 76.257812 56.4375 C 76.375 56.046875 76.535156 55.65625 76.75 55.3125 C 76.953125 54.988281 77.25 54.722656 77.539062 54.394531 C 76.542969 54.324219 75.945312 54.636719 75.589844 55.363281 C 75.222656 56.113281 75.367188 56.976562 76.039062 57.71875 Z M 80.835938 56.34375 C 80.839844 58.136719 79.660156 59.664062 78 60.011719 C 76.179688 60.394531 74.390625 59.351562 73.765625 57.546875 C 73.066406 55.527344 74.105469 53.304688 76.058594 52.6875 C 78.632812 51.867188 80.914062 54.046875 80.835938 56.34375 " fill-opacity="1" fill-rule="nonzero"/><path fill="#88c0fa" d="M 156.742188 176.589844 C 156.027344 176.753906 155.691406 177.109375 155.632812 177.652344 C 155.578125 178.152344 155.828125 178.5625 156.375 178.84375 C 156.175781 178.066406 156.242188 177.339844 156.742188 176.589844 Z M 156.929688 180.882812 C 155.214844 180.898438 153.800781 179.519531 153.792969 177.808594 C 153.777344 176.082031 155.148438 174.695312 156.855469 174.660156 C 158.417969 174.625 160.015625 176.035156 160.003906 177.734375 C 159.984375 179.464844 158.636719 180.867188 156.929688 180.882812 " fill-opacity="1" fill-rule="nonzero"/><path fill="#88c0fa" d="M 229.726562 140.5625 C 229.730469 141.890625 228.648438 142.992188 227.332031 142.996094 C 226.023438 143 224.90625 141.894531 224.898438 140.589844 C 224.894531 139.269531 225.984375 138.21875 227.304688 138.152344 C 228.4375 138.097656 229.847656 139.382812 229.726562 140.5625 " fill-opacity="1" fill-rule="nonzero"/><path fill="#88c0fa" d="M 113.144531 60.527344 C 114.488281 60.535156 115.476562 61.535156 115.472656 62.886719 C 115.46875 64.214844 114.445312 65.25 113.132812 65.253906 C 111.792969 65.253906 110.71875 64.171875 110.742188 62.839844 C 110.769531 61.46875 111.949219 60.441406 113.144531 60.527344 " fill-opacity="1" fill-rule="nonzero"/></svg>