<svg version="1.1" id="Layer_1" xmlns="http://www.w3.org/2000/svg" xmlns:xlink="http://www.w3.org/1999/xlink" x="0px" y="0px"
	 width="100%" viewBox="0 0 416 251" enable-background="new 0 0 416 251" xml:space="preserve">
<path fill="#FCFDFE" opacity="1.000000" stroke="none" 
	d="
M274.000000,252.000000 
	C182.666702,252.000000 91.833397,252.000000 1.000073,252.000000 
	C1.000049,168.333389 1.000049,84.666794 1.000024,1.000140 
	C139.666550,1.000094 278.333099,1.000094 416.999756,1.000047 
	C416.999817,84.666527 416.999817,168.333054 416.999908,251.999786 
	C369.500000,252.000000 322.000000,252.000000 274.000000,252.000000 
M209.901398,102.309731 
	C206.957062,111.210587 204.012726,120.111450 200.681137,130.182983 
	C197.104568,118.670502 193.888718,108.538269 190.840942,98.355736 
	C190.072678,95.789032 189.007294,94.676361 186.053757,94.665070 
	C175.269653,94.623863 175.271484,94.481682 171.909607,104.708344 
	C171.442688,106.128693 170.952911,107.541496 170.478516,108.959404 
	C168.275330,115.544525 166.073853,122.130226 163.500534,129.825882 
	C159.894791,118.427071 156.749268,108.277779 153.413940,98.191254 
	C152.982605,96.886833 151.640976,95.014206 150.599380,94.931206 
	C146.079346,94.570999 141.514236,94.776726 136.296799,94.776726 
	C140.949966,109.081451 145.240189,122.510612 149.709076,135.880066 
	C151.302216,140.646210 152.074310,147.224884 155.499908,149.419785 
	C159.125885,151.743088 165.464417,149.832886 170.977234,149.767532 
	C174.461121,139.273392 177.984253,128.661026 181.996262,116.576080 
	C184.578522,124.606247 186.714874,131.145294 188.783691,137.705627 
	C192.722870,150.197021 192.706924,150.082489 205.530792,150.088577 
	C208.609009,150.090042 209.812531,149.057220 210.696472,146.226685 
	C215.450378,131.003845 220.413849,115.846428 225.304932,100.666405 
	C225.886978,98.859955 226.468674,97.053383 227.085510,95.138214 
	C212.757401,93.742706 212.757401,93.742706 209.901398,102.309731 
M349.090485,26.503181 
	C349.090485,21.719538 349.090485,16.935896 349.090485,12.017925 
	C343.817505,12.017925 339.081573,12.017925 333.886444,12.017925 
	C333.886444,21.467493 333.886444,30.674885 333.886444,41.169849 
	C326.826599,32.676208 320.587799,25.175272 314.354553,17.669729 
	C309.046844,11.278642 305.075195,10.131932 296.770569,12.610338 
	C296.770569,30.566807 296.770569,48.523277 296.770569,66.685600 
	C301.843719,66.685600 306.727203,66.685600 312.106079,66.685600 
	C312.106079,57.197956 312.106079,48.016254 312.106079,37.845638 
	C318.733765,45.832851 325.310181,52.553925 330.411957,60.252270 
	C335.310394,67.643829 341.544128,67.749237 348.751282,66.613533 
	C348.887177,66.103516 349.040405,65.795692 349.041016,65.487572 
	C349.066071,52.825943 349.077454,40.164280 349.090485,26.503181 
M212.494324,66.188431 
	C227.224335,63.116142 235.613647,53.319801 235.573669,39.238319 
	C235.534088,25.294163 226.896301,14.390884 212.275436,12.599210 
	C201.360336,11.261649 190.149719,12.335471 178.957138,12.335471 
	C178.957138,30.448027 178.957138,48.588833 178.957138,66.344131 
	C190.104584,66.344131 200.873215,66.344131 212.494324,66.188431 
M115.709023,96.649307 
	C110.210030,95.689522 104.693550,93.833641 99.215385,93.940575 
	C83.739998,94.242622 71.848709,105.332191 70.921387,119.385216 
	C69.850082,135.620163 79.146210,147.518692 95.313454,150.605698 
	C110.517151,153.508728 125.367043,145.801407 130.324417,132.434479 
	C135.486557,118.515495 130.051941,104.657021 115.709023,96.649307 
M296.515869,94.762161 
	C293.267487,94.762161 290.019073,94.762161 286.947418,94.762161 
	C286.947418,113.620148 286.947418,131.669815 286.947418,149.622864 
	C292.209808,149.622864 297.101318,149.622864 302.397644,149.622864 
	C302.397644,144.657089 302.397644,140.067535 302.397644,135.660599 
	C308.159851,134.105911 312.039307,135.639282 314.542999,140.800095 
	C315.763763,143.316376 317.535309,145.610870 319.325073,147.785538 
	C320.154724,148.793594 321.593842,149.831650 322.808228,149.896942 
	C327.390289,150.143295 331.993530,149.995895 337.417847,149.995895 
	C333.227234,143.811432 329.484070,138.287262 325.761444,132.793442 
	C335.066864,126.222023 338.215698,118.458786 335.638458,109.301910 
	C333.330597,101.102074 325.596405,95.462944 315.488159,94.967415 
	C309.506500,94.674187 303.503571,94.815941 296.515869,94.762161 
M100.484123,198.394516 
	C96.862991,198.394516 93.241867,198.394516 89.114029,198.394516 
	C89.114029,191.341248 89.114029,184.771210 89.114029,178.085052 
	C83.714088,178.085052 78.831757,178.085052 73.835724,178.085052 
	C73.835724,196.459625 73.835724,214.512085 73.835724,232.717407 
	C78.984940,232.717407 83.881058,232.717407 89.257507,232.717407 
	C89.257507,225.551193 89.257507,218.655533 89.257507,211.620941 
	C96.481392,211.620941 103.220360,211.620941 110.496078,211.620941 
	C110.496078,218.768906 110.496078,225.664719 110.496078,232.732849 
	C115.935448,232.732849 120.834389,232.732849 125.704300,232.732849 
	C125.704300,214.283188 125.704300,196.101105 125.704300,178.050476 
	C120.544571,178.050476 115.774353,178.050476 110.440895,178.050476 
	C110.440895,184.879837 110.440895,191.439011 110.440895,198.394669 
	C107.070816,198.394669 104.267555,198.394669 100.484123,198.394516 
M299.367950,227.208710 
	C292.998962,218.936996 286.629974,210.665298 280.102325,202.187531 
	C287.459137,194.171661 294.606079,186.384491 302.520111,177.761459 
	C298.001099,177.761459 294.545227,178.051910 291.159637,177.688110 
	C286.905457,177.230972 284.048218,178.802185 281.302460,181.991150 
	C276.036102,188.107620 270.338379,193.852722 263.872711,200.764099 
	C263.872711,192.263306 263.872711,185.076767 263.872711,178.078796 
	C258.489319,178.078796 253.721313,178.078796 248.856720,178.078796 
	C248.856720,196.463898 248.856720,214.530487 248.856720,232.666885 
	C254.025253,232.666885 258.914307,232.666885 263.875305,232.666885 
	C264.566803,225.680481 261.612854,217.802124 270.195312,213.427826 
	C274.633423,219.021896 279.035675,224.642670 283.537018,230.182968 
	C284.420624,231.270493 285.648712,232.781921 286.783844,232.841476 
	C292.140381,233.122528 297.519836,232.966736 303.662506,232.966736 
	C301.972931,230.677505 300.903717,229.228790 299.367950,227.208710 
M141.595627,55.038544 
	C135.502594,54.120380 132.818558,51.695576 132.087234,46.025784 
	C131.748337,43.398438 131.819199,40.710579 131.809891,38.049786 
	C131.779800,29.441265 131.798660,20.832573 131.798660,11.996239 
	C126.334724,11.996239 121.426010,11.996239 116.376190,11.996239 
	C116.376190,23.975002 115.452431,35.832626 116.609329,47.483650 
	C118.065010,62.143673 128.779922,69.079697 145.515106,67.969429 
	C158.967972,67.076920 167.675507,57.948090 167.958649,44.080891 
	C168.162476,34.098396 168.023178,24.108639 167.996582,14.122229 
	C167.994583,13.367432 167.669495,12.613493 167.554443,12.117258 
	C162.486801,12.117258 157.740723,12.117258 152.723907,12.117258 
	C152.723907,14.453176 152.752274,16.431726 152.719070,18.409243 
	C152.565567,27.552990 152.740814,36.720356 152.111069,45.831760 
	C151.677963,52.097908 148.782745,54.310436 141.595627,55.038544 
M281.975555,44.830864 
	C282.758850,41.105289 283.542114,37.379715 284.464172,32.994041 
	C275.178345,32.994041 267.272675,32.994041 259.226929,32.994041 
	C259.226929,29.795517 259.226929,27.052155 259.226929,23.776791 
	C268.489288,23.776791 277.542236,23.776791 286.631958,23.776791 
	C286.631958,19.505035 286.631958,15.773005 286.631958,12.028410 
	C272.231506,12.028410 258.152527,12.028410 243.828430,12.028410 
	C243.828430,30.355278 243.828430,48.414749 243.828430,66.737816 
	C258.488800,66.737816 273.034760,66.737816 287.696716,66.737816 
	C287.696716,62.759903 287.696716,59.031906 287.696716,54.817326 
	C278.041382,54.817326 268.648438,54.817326 259.322815,54.817326 
	C259.322815,51.246506 259.322815,48.174973 259.322815,44.860432 
	C266.778625,44.860432 273.916382,44.860432 281.975555,44.830864 
M176.299881,189.852615 
	C177.741501,189.762833 179.183121,189.673035 180.622925,189.583374 
	C180.622925,185.483688 180.622925,181.750839 180.622925,178.035767 
	C166.213257,178.035767 152.134399,178.035767 137.819641,178.035767 
	C137.819641,196.368210 137.819641,214.425583 137.819641,232.742081 
	C152.500061,232.742081 167.043945,232.742081 181.693848,232.742081 
	C181.693848,228.752762 181.693848,225.024887 181.693848,220.812866 
	C172.036804,220.812866 162.644409,220.812866 153.323914,220.812866 
	C153.323914,217.243698 153.323914,214.172363 153.323914,210.612198 
	C161.528152,210.612198 169.419022,210.612198 177.352112,210.612198 
	C177.352112,206.532501 177.352112,202.958084 177.352112,198.940460 
	C169.129288,198.940460 161.222885,198.940460 153.250763,198.940460 
	C153.250763,195.742630 153.250763,192.998260 153.250763,189.852615 
	C160.773880,189.852615 168.055664,189.852615 176.299881,189.852615 
M253.617920,127.864899 
	C260.189453,127.864899 266.760986,127.864899 273.341309,127.864899 
	C273.341309,123.502556 273.341309,119.929413 273.341309,115.915230 
	C265.106079,115.915230 257.198822,115.915230 249.262329,115.915230 
	C249.262329,112.717438 249.262329,109.972404 249.262329,106.705521 
	C258.563812,106.705521 267.618713,106.705521 276.599884,106.705521 
	C276.599884,102.434944 276.599884,98.700348 276.599884,95.057846 
	C262.164520,95.057846 248.082886,95.057846 233.796570,95.057846 
	C233.796570,113.410820 233.796570,131.465714 233.796570,149.719498 
	C248.554764,149.719498 263.095703,149.719498 277.670624,149.719498 
	C277.670624,145.703613 277.670624,141.975403 277.670624,137.766296 
	C267.987701,137.766296 258.594757,137.766296 249.003616,137.766296 
	C249.003616,135.293655 249.183533,133.289307 248.961685,131.330444 
	C248.624619,128.354248 249.959961,127.465446 253.617920,127.864899 
M51.834305,96.361229 
	C39.849354,95.601944 27.864401,94.842651 15.885762,94.083763 
	C15.885762,113.555397 15.885762,131.597275 15.885762,149.682785 
	C21.087395,149.682785 25.978329,149.682785 31.241180,149.682785 
	C31.241180,144.935181 31.241180,140.500381 31.241180,135.914841 
	C36.717701,135.601410 41.858757,135.559830 46.934399,134.962479 
	C56.579624,133.827301 63.793106,127.294296 65.012970,119.014282 
	C66.577736,108.393188 62.504925,101.111176 51.834305,96.361229 
M51.540413,26.528126 
	C53.500977,22.928669 55.461540,19.329212 57.634968,15.338951 
	C45.297462,9.993401 33.712574,8.514799 22.044878,13.838363 
	C15.324348,16.904707 12.283615,22.559839 12.787641,30.044886 
	C13.274726,37.278355 17.842350,40.978947 24.116705,43.010708 
	C28.536066,44.441784 33.119514,45.358475 37.577114,46.681946 
	C40.328789,47.498924 44.283150,47.736431 43.804073,51.772797 
	C43.319878,55.852345 39.359226,55.541977 36.281609,55.914822 
	C35.297375,56.034061 34.237289,56.113987 33.293232,55.881584 
	C27.729008,54.511787 22.188787,53.044495 16.327419,51.529095 
	C14.918551,54.714485 13.335715,58.293209 11.793017,61.781181 
	C22.107800,68.734406 39.413746,70.146004 49.508537,65.116577 
	C56.562466,61.602173 59.804565,56.117313 59.281765,48.689407 
	C58.771767,41.443375 54.119095,37.800182 47.830677,35.834610 
	C42.919994,34.299671 37.785938,33.448112 32.940083,31.752802 
	C31.063574,31.096310 29.707142,28.953236 28.113783,27.487400 
	C30.061363,25.985674 32.100700,23.113974 33.939449,23.237129 
	C39.629528,23.618231 45.243225,25.139656 51.540413,26.528126 
M39.739414,176.830383 
	C25.143917,178.233200 14.280962,188.174911 12.981893,201.318710 
	C11.510482,216.206284 18.876465,227.928238 32.360622,232.439804 
	C45.396385,236.801315 62.345886,232.043808 66.318726,223.144073 
	C63.299023,220.424164 60.239021,217.667969 57.230270,214.957947 
	C47.913357,222.382782 38.984688,222.973618 32.852886,216.789780 
	C27.487772,211.379135 27.095032,200.706207 32.041298,194.734650 
	C37.654308,187.958160 46.174820,188.195679 57.483650,195.551880 
	C60.480782,192.808945 63.513248,190.033661 66.497574,187.302429 
	C61.096798,179.646896 52.912029,176.397400 39.739414,176.830383 
M206.558441,232.139816 
	C220.751450,236.585556 234.581146,233.191422 241.552673,223.360870 
	C238.412384,220.528030 235.249603,217.674896 232.141693,214.871246 
	C223.239960,222.438187 213.846817,223.007645 207.718185,216.655609 
	C202.423416,211.167816 202.158249,200.453781 207.171738,194.577103 
	C212.928513,187.829208 222.306152,188.152939 232.356735,195.678421 
	C235.407791,192.845459 238.510193,189.964813 241.580383,187.114090 
	C234.037247,177.608963 220.356308,174.126419 207.574936,178.126968 
	C196.571625,181.570984 188.701782,191.195908 187.930115,202.152847 
	C186.930740,216.342972 192.597992,225.786011 206.558441,232.139816 
M387.981110,50.498051 
	C387.981110,41.742992 387.981110,32.987930 387.981110,23.893066 
	C393.964630,23.893066 399.237823,23.893066 404.694183,23.893066 
	C404.694183,19.786564 404.694183,16.039835 404.694183,12.025448 
	C388.228821,12.025448 371.993500,12.025448 355.486816,12.025448 
	C355.486816,16.001293 355.486816,19.744389 355.486816,24.043140 
	C361.037689,24.043140 366.443085,24.043140 372.364197,24.043140 
	C372.364197,38.654381 372.364197,52.722134 372.364197,66.706696 
	C377.835510,66.706696 382.760040,66.706696 387.981110,66.706696 
	C387.981110,61.442841 387.981110,56.469654 387.981110,50.498051 
M77.252274,24.140724 
	C77.568306,25.843901 78.147545,27.545418 78.158279,29.250515 
	C78.236496,41.675762 78.200378,54.101734 78.200378,66.658897 
	C83.723373,66.658897 88.749008,66.658897 94.247482,66.658897 
	C94.247482,52.282742 94.247482,38.245945 94.247482,23.879057 
	C99.984482,23.879057 105.248161,23.879057 110.701813,23.879057 
	C110.701813,19.792410 110.701813,16.052481 110.701813,12.153609 
	C94.163063,12.153609 77.849731,12.153609 61.545483,12.153609 
	C61.545483,16.291792 61.545483,20.023312 61.545483,24.056707 
	C66.678230,24.056707 71.483917,24.056707 77.252274,24.140724 
z"/>
<path fill="#0357A2" opacity="1.000000" stroke="none" 
	d="
M209.990021,101.916389 
	C212.757401,93.742706 212.757401,93.742706 227.085510,95.138214 
	C226.468674,97.053383 225.886978,98.859955 225.304932,100.666405 
	C220.413849,115.846428 215.450378,131.003845 210.696472,146.226685 
	C209.812531,149.057220 208.609009,150.090042 205.530792,150.088577 
	C192.706924,150.082489 192.722870,150.197021 188.783691,137.705627 
	C186.714874,131.145294 184.578522,124.606247 181.996262,116.576080 
	C177.984253,128.661026 174.461121,139.273392 170.977234,149.767532 
	C165.464417,149.832886 159.125885,151.743088 155.499908,149.419785 
	C152.074310,147.224884 151.302216,140.646210 149.709076,135.880066 
	C145.240189,122.510612 140.949966,109.081451 136.296799,94.776726 
	C141.514236,94.776726 146.079346,94.570999 150.599380,94.931206 
	C151.640976,95.014206 152.982605,96.886833 153.413940,98.191254 
	C156.749268,108.277779 159.894791,118.427071 163.500534,129.825882 
	C166.073853,122.130226 168.275330,115.544525 170.478516,108.959404 
	C170.952911,107.541496 171.442688,106.128693 171.909607,104.708344 
	C175.271484,94.481682 175.269653,94.623863 186.053757,94.665070 
	C189.007294,94.676361 190.072678,95.789032 190.840942,98.355736 
	C193.888718,108.538269 197.104568,118.670502 200.681137,130.182983 
	C204.012726,120.111450 206.957062,111.210587 209.990021,101.916389 
z"/>
<path fill="#0256A2" opacity="1.000000" stroke="none" 
	d="
M349.090515,27.002903 
	C349.077454,40.164280 349.066071,52.825943 349.041016,65.487572 
	C349.040405,65.795692 348.887177,66.103516 348.751282,66.613533 
	C341.544128,67.749237 335.310394,67.643829 330.411957,60.252270 
	C325.310181,52.553925 318.733765,45.832851 312.106079,37.845638 
	C312.106079,48.016254 312.106079,57.197956 312.106079,66.685600 
	C306.727203,66.685600 301.843719,66.685600 296.770569,66.685600 
	C296.770569,48.523277 296.770569,30.566807 296.774048,12.610011 
	C305.075195,10.131932 309.046844,11.278642 314.354553,17.669729 
	C320.587799,25.175272 326.826599,32.676208 333.886444,41.169849 
	C333.886444,30.674885 333.886444,21.467493 333.886444,12.017925 
	C339.081573,12.017925 343.817505,12.017925 349.090485,12.017925 
	C349.090485,16.935896 349.090485,21.719538 349.090515,27.002903 
z"/>
<path fill="#0256A2" opacity="1.000000" stroke="none" 
	d="
M212.068085,66.266281 
	C200.873215,66.344131 190.104584,66.344131 178.957138,66.344131 
	C178.957138,48.588833 178.957138,30.448027 178.957138,12.335471 
	C190.149719,12.335471 201.360336,11.261649 212.275436,12.599210 
	C226.896301,14.390884 235.534088,25.294163 235.573669,39.238319 
	C235.613647,53.319801 227.224335,63.116142 212.068085,66.266281 
M219.548508,36.213699 
	C216.791595,25.769234 208.354218,21.898018 194.092682,24.786243 
	C194.092682,29.648266 194.092682,34.594841 194.092682,39.541420 
	C194.092682,44.435326 194.092682,49.329227 194.092682,54.121078 
	C212.552887,56.225643 220.214096,50.937675 219.548508,36.213699 
z"/>
<path fill="#0458A3" opacity="1.000000" stroke="none" 
	d="
M116.059029,96.799500 
	C130.051941,104.657021 135.486557,118.515495 130.324417,132.434479 
	C125.367043,145.801407 110.517151,153.508728 95.313454,150.605698 
	C79.146210,147.518692 69.850082,135.620163 70.921387,119.385216 
	C71.848709,105.332191 83.739998,94.242622 99.215385,93.940575 
	C104.693550,93.833641 110.210030,95.689522 116.059029,96.799500 
M98.061485,106.960533 
	C88.364960,110.112137 83.998848,119.249878 87.659958,128.729599 
	C90.714691,136.639206 99.580154,140.305649 107.437622,136.908920 
	C114.236557,133.969818 117.719612,126.170197 115.877396,118.009705 
	C114.148354,110.350540 108.038162,106.330879 98.061485,106.960533 
z"/>
<path fill="#0256A2" opacity="1.000000" stroke="none" 
	d="
M297.013031,94.762131 
	C303.503571,94.815941 309.506500,94.674187 315.488159,94.967415 
	C325.596405,95.462944 333.330597,101.102074 335.638458,109.301910 
	C338.215698,118.458786 335.066864,126.222023 325.761444,132.793442 
	C329.484070,138.287262 333.227234,143.811432 337.417847,149.995895 
	C331.993530,149.995895 327.390289,150.143295 322.808228,149.896942 
	C321.593842,149.831650 320.154724,148.793594 319.325073,147.785538 
	C317.535309,145.610870 315.763763,143.316376 314.542999,140.800095 
	C312.039307,135.639282 308.159851,134.105911 302.397644,135.660599 
	C302.397644,140.067535 302.397644,144.657089 302.397644,149.622864 
	C297.101318,149.622864 292.209808,149.622864 286.947418,149.622864 
	C286.947418,131.669815 286.947418,113.620148 286.947418,94.762161 
	C290.019073,94.762161 293.267487,94.762161 297.013031,94.762131 
M313.850067,122.959908 
	C318.705872,121.963173 320.938904,118.920799 320.481018,114.058159 
	C320.071167,109.705849 317.008728,107.286522 311.719910,107.048721 
	C308.632050,106.909874 305.532898,107.023415 302.367279,107.023415 
	C302.367279,112.625206 302.367279,117.675186 302.367279,123.034348 
	C306.083038,123.034348 309.529266,123.034348 313.850067,122.959908 
z"/>
<path fill="#0156A2" opacity="1.000000" stroke="none" 
	d="
M100.974213,198.394592 
	C104.267555,198.394669 107.070816,198.394669 110.440895,198.394669 
	C110.440895,191.439011 110.440895,184.879837 110.440895,178.050476 
	C115.774353,178.050476 120.544571,178.050476 125.704300,178.050476 
	C125.704300,196.101105 125.704300,214.283188 125.704300,232.732849 
	C120.834389,232.732849 115.935448,232.732849 110.496078,232.732849 
	C110.496078,225.664719 110.496078,218.768906 110.496078,211.620941 
	C103.220360,211.620941 96.481392,211.620941 89.257507,211.620941 
	C89.257507,218.655533 89.257507,225.551193 89.257507,232.717407 
	C83.881058,232.717407 78.984940,232.717407 73.835724,232.717407 
	C73.835724,214.512085 73.835724,196.459625 73.835724,178.085052 
	C78.831757,178.085052 83.714088,178.085052 89.114029,178.085052 
	C89.114029,184.771210 89.114029,191.341248 89.114029,198.394516 
	C93.241867,198.394516 96.862991,198.394516 100.974213,198.394592 
z"/>
<path fill="#0256A2" opacity="1.000000" stroke="none" 
	d="
M299.601227,227.494385 
	C300.903717,229.228790 301.972931,230.677505 303.662506,232.966736 
	C297.519836,232.966736 292.140381,233.122528 286.783844,232.841476 
	C285.648712,232.781921 284.420624,231.270493 283.537018,230.182968 
	C279.035675,224.642670 274.633423,219.021896 270.195312,213.427826 
	C261.612854,217.802124 264.566803,225.680481 263.875305,232.666885 
	C258.914307,232.666885 254.025253,232.666885 248.856720,232.666885 
	C248.856720,214.530487 248.856720,196.463898 248.856720,178.078796 
	C253.721313,178.078796 258.489319,178.078796 263.872711,178.078796 
	C263.872711,185.076767 263.872711,192.263306 263.872711,200.764099 
	C270.338379,193.852722 276.036102,188.107620 281.302460,181.991150 
	C284.048218,178.802185 286.905457,177.230972 291.159637,177.688110 
	C294.545227,178.051910 298.001099,177.761459 302.520111,177.761459 
	C294.606079,186.384491 287.459137,194.171661 280.102325,202.187531 
	C286.629974,210.665298 292.998962,218.936996 299.601227,227.494385 
z"/>
<path fill="#0457A2" opacity="1.000000" stroke="none" 
	d="
M142.010956,55.044312 
	C148.782745,54.310436 151.677963,52.097908 152.111069,45.831760 
	C152.740814,36.720356 152.565567,27.552990 152.719070,18.409243 
	C152.752274,16.431726 152.723907,14.453176 152.723907,12.117258 
	C157.740723,12.117258 162.486801,12.117258 167.554443,12.117258 
	C167.669495,12.613493 167.994583,13.367432 167.996582,14.122229 
	C168.023178,24.108639 168.162476,34.098396 167.958649,44.080891 
	C167.675507,57.948090 158.967972,67.076920 145.515106,67.969429 
	C128.779922,69.079697 118.065010,62.143673 116.609329,47.483650 
	C115.452431,35.832626 116.376190,23.975002 116.376190,11.996239 
	C121.426010,11.996239 126.334724,11.996239 131.798660,11.996239 
	C131.798660,20.832573 131.779800,29.441265 131.809891,38.049786 
	C131.819199,40.710579 131.748337,43.398438 132.087234,46.025784 
	C132.818558,51.695576 135.502594,54.120380 142.010956,55.044312 
z"/>
<path fill="#0357A2" opacity="1.000000" stroke="none" 
	d="
M281.514862,44.845650 
	C273.916382,44.860432 266.778625,44.860432 259.322815,44.860432 
	C259.322815,48.174973 259.322815,51.246506 259.322815,54.817326 
	C268.648438,54.817326 278.041382,54.817326 287.696716,54.817326 
	C287.696716,59.031906 287.696716,62.759903 287.696716,66.737816 
	C273.034760,66.737816 258.488800,66.737816 243.828430,66.737816 
	C243.828430,48.414749 243.828430,30.355278 243.828430,12.028410 
	C258.152527,12.028410 272.231506,12.028410 286.631958,12.028410 
	C286.631958,15.773005 286.631958,19.505035 286.631958,23.776791 
	C277.542236,23.776791 268.489288,23.776791 259.226929,23.776791 
	C259.226929,27.052155 259.226929,29.795517 259.226929,32.994041 
	C267.272675,32.994041 275.178345,32.994041 284.464172,32.994041 
	C283.542114,37.379715 282.758850,41.105289 281.514862,44.845650 
z"/>
<path fill="#0357A2" opacity="1.000000" stroke="none" 
	d="
M175.818665,189.852615 
	C168.055664,189.852615 160.773880,189.852615 153.250763,189.852615 
	C153.250763,192.998260 153.250763,195.742630 153.250763,198.940460 
	C161.222885,198.940460 169.129288,198.940460 177.352112,198.940460 
	C177.352112,202.958084 177.352112,206.532501 177.352112,210.612198 
	C169.419022,210.612198 161.528152,210.612198 153.323914,210.612198 
	C153.323914,214.172363 153.323914,217.243698 153.323914,220.812866 
	C162.644409,220.812866 172.036804,220.812866 181.693848,220.812866 
	C181.693848,225.024887 181.693848,228.752762 181.693848,232.742081 
	C167.043945,232.742081 152.500061,232.742081 137.819641,232.742081 
	C137.819641,214.425583 137.819641,196.368210 137.819641,178.035767 
	C152.134399,178.035767 166.213257,178.035767 180.622925,178.035767 
	C180.622925,181.750839 180.622925,185.483688 180.622925,189.583374 
	C179.183121,189.673035 177.741501,189.762833 175.818665,189.852615 
z"/>
<path fill="#0357A2" opacity="1.000000" stroke="none" 
	d="
M253.133728,127.865112 
	C249.959961,127.465446 248.624619,128.354248 248.961685,131.330444 
	C249.183533,133.289307 249.003616,135.293655 249.003616,137.766296 
	C258.594757,137.766296 267.987701,137.766296 277.670624,137.766296 
	C277.670624,141.975403 277.670624,145.703613 277.670624,149.719498 
	C263.095703,149.719498 248.554764,149.719498 233.796570,149.719498 
	C233.796570,131.465714 233.796570,113.410820 233.796570,95.057846 
	C248.082886,95.057846 262.164520,95.057846 276.599884,95.057846 
	C276.599884,98.700348 276.599884,102.434944 276.599884,106.705521 
	C267.618713,106.705521 258.563812,106.705521 249.262329,106.705521 
	C249.262329,109.972404 249.262329,112.717438 249.262329,115.915230 
	C257.198822,115.915230 265.106079,115.915230 273.341309,115.915230 
	C273.341309,119.929413 273.341309,123.502556 273.341309,127.864899 
	C266.760986,127.864899 260.189453,127.864899 253.133728,127.865112 
z"/>
<path fill="#0357A2" opacity="1.000000" stroke="none" 
	d="
M52.188469,96.539543 
	C62.504925,101.111176 66.577736,108.393188 65.012970,119.014282 
	C63.793106,127.294296 56.579624,133.827301 46.934399,134.962479 
	C41.858757,135.559830 36.717701,135.601410 31.241180,135.914841 
	C31.241180,140.500381 31.241180,144.935181 31.241180,149.682785 
	C25.978329,149.682785 21.087395,149.682785 15.885762,149.682785 
	C15.885762,131.597275 15.885762,113.555397 15.885762,94.083763 
	C27.864401,94.842651 39.849354,95.601944 52.188469,96.539543 
M31.095079,110.703964 
	C31.095079,114.774773 31.095079,118.845581 31.095079,122.971695 
	C35.426514,122.971695 39.083263,123.230873 42.685513,122.898834 
	C46.290993,122.566498 49.369465,120.501007 49.206257,116.697533 
	C49.086926,113.916473 47.820248,109.470200 45.984352,108.820686 
	C41.659489,107.290596 36.690750,107.548103 31.971680,107.258751 
	C31.731878,107.244041 31.390615,108.883995 31.095079,110.703964 
z"/>
<path fill="#0558A3" opacity="1.000000" stroke="none" 
	d="
M51.213493,26.373251 
	C45.243225,25.139656 39.629528,23.618231 33.939449,23.237129 
	C32.100700,23.113974 30.061363,25.985674 28.113781,27.487398 
	C29.707142,28.953236 31.063574,31.096310 32.940083,31.752802 
	C37.785938,33.448112 42.919994,34.299671 47.830677,35.834610 
	C54.119095,37.800182 58.771767,41.443375 59.281765,48.689407 
	C59.804565,56.117313 56.562466,61.602173 49.508537,65.116577 
	C39.413746,70.146004 22.107800,68.734406 11.793017,61.781181 
	C13.335715,58.293209 14.918551,54.714485 16.327419,51.529095 
	C22.188787,53.044495 27.729008,54.511787 33.293232,55.881584 
	C34.237289,56.113987 35.297375,56.034061 36.281609,55.914822 
	C39.359226,55.541977 43.319878,55.852345 43.804073,51.772797 
	C44.283150,47.736431 40.328789,47.498924 37.577114,46.681946 
	C33.119514,45.358475 28.536066,44.441784 24.116705,43.010708 
	C17.842350,40.978947 13.274726,37.278355 12.787641,30.044886 
	C12.283615,22.559839 15.324348,16.904707 22.044878,13.838363 
	C33.712574,8.514799 45.297462,9.993401 57.634968,15.338951 
	C55.461540,19.329212 53.500977,22.928669 51.213493,26.373251 
z"/>
<path fill="#0558A3" opacity="1.000000" stroke="none" 
	d="
M40.205769,176.805023 
	C52.912029,176.397400 61.096798,179.646896 66.497574,187.302429 
	C63.513248,190.033661 60.480782,192.808945 57.483650,195.551880 
	C46.174820,188.195679 37.654308,187.958160 32.041298,194.734650 
	C27.095032,200.706207 27.487772,211.379135 32.852886,216.789780 
	C38.984688,222.973618 47.913357,222.382782 57.230270,214.957947 
	C60.239021,217.667969 63.299023,220.424164 66.318726,223.144073 
	C62.345886,232.043808 45.396385,236.801315 32.360622,232.439804 
	C18.876465,227.928238 11.510482,216.206284 12.981893,201.318710 
	C14.280962,188.174911 25.143917,178.233200 40.205769,176.805023 
z"/>
<path fill="#0558A3" opacity="1.000000" stroke="none" 
	d="
M206.180695,232.036621 
	C192.597992,225.786011 186.930740,216.342972 187.930115,202.152847 
	C188.701782,191.195908 196.571625,181.570984 207.574936,178.126968 
	C220.356308,174.126419 234.037247,177.608963 241.580383,187.114090 
	C238.510193,189.964813 235.407791,192.845459 232.356735,195.678421 
	C222.306152,188.152939 212.928513,187.829208 207.171738,194.577103 
	C202.158249,200.453781 202.423416,211.167816 207.718185,216.655609 
	C213.846817,223.007645 223.239960,222.438187 232.141693,214.871246 
	C235.249603,217.674896 238.412384,220.528030 241.552673,223.360870 
	C234.581146,233.191422 220.751450,236.585556 206.180695,232.036621 
z"/>
<path fill="#0458A2" opacity="1.000000" stroke="none" 
	d="
M387.981110,50.997261 
	C387.981110,56.469654 387.981110,61.442841 387.981110,66.706696 
	C382.760040,66.706696 377.835510,66.706696 372.364197,66.706696 
	C372.364197,52.722134 372.364197,38.654381 372.364197,24.043140 
	C366.443085,24.043140 361.037689,24.043140 355.486816,24.043140 
	C355.486816,19.744389 355.486816,16.001293 355.486816,12.025448 
	C371.993500,12.025448 388.228821,12.025448 404.694183,12.025448 
	C404.694183,16.039835 404.694183,19.786564 404.694183,23.893066 
	C399.237823,23.893066 393.964630,23.893066 387.981110,23.893066 
	C387.981110,32.987930 387.981110,41.742992 387.981110,50.997261 
z"/>
<path fill="#0458A2" opacity="1.000000" stroke="none" 
	d="
M76.770935,24.098717 
	C71.483917,24.056707 66.678230,24.056707 61.545483,24.056707 
	C61.545483,20.023312 61.545483,16.291792 61.545483,12.153609 
	C77.849731,12.153609 94.163063,12.153609 110.701813,12.153609 
	C110.701813,16.052481 110.701813,19.792410 110.701813,23.879057 
	C105.248161,23.879057 99.984482,23.879057 94.247482,23.879057 
	C94.247482,38.245945 94.247482,52.282742 94.247482,66.658897 
	C88.749008,66.658897 83.723373,66.658897 78.200378,66.658897 
	C78.200378,54.101734 78.236496,41.675762 78.158279,29.250515 
	C78.147545,27.545418 77.568306,25.843901 76.770935,24.098717 
z"/>
<path fill="#F9FBFD" opacity="1.000000" stroke="none" 
	d="
M219.630783,36.616005 
	C220.214096,50.937675 212.552887,56.225643 194.092682,54.121078 
	C194.092682,49.329227 194.092682,44.435326 194.092682,39.541420 
	C194.092682,34.594841 194.092682,29.648266 194.092682,24.786243 
	C208.354218,21.898018 216.791595,25.769234 219.630783,36.616005 
z"/>
<path fill="#FCFDFE" opacity="1.000000" stroke="none" 
	d="
M98.486450,106.904480 
	C108.038162,106.330879 114.148354,110.350540 115.877396,118.009705 
	C117.719612,126.170197 114.236557,133.969818 107.437622,136.908920 
	C99.580154,140.305649 90.714691,136.639206 87.659958,128.729599 
	C83.998848,119.249878 88.364960,110.112137 98.486450,106.904480 
z"/>
<path fill="#F9FBFD" opacity="1.000000" stroke="none" 
	d="
M313.412781,122.997131 
	C309.529266,123.034348 306.083038,123.034348 302.367279,123.034348 
	C302.367279,117.675186 302.367279,112.625206 302.367279,107.023415 
	C305.532898,107.023415 308.632050,106.909874 311.719910,107.048721 
	C317.008728,107.286522 320.071167,109.705849 320.481018,114.058159 
	C320.938904,118.920799 318.705872,121.963173 313.412781,122.997131 
z"/>
<path fill="#F9FBFD" opacity="1.000000" stroke="none" 
	d="
M31.095837,110.228752 
	C31.390615,108.883995 31.731878,107.244041 31.971680,107.258751 
	C36.690750,107.548103 41.659489,107.290596 45.984352,108.820686 
	C47.820248,109.470200 49.086926,113.916473 49.206257,116.697533 
	C49.369465,120.501007 46.290993,122.566498 42.685513,122.898834 
	C39.083263,123.230873 35.426514,122.971695 31.095079,122.971695 
	C31.095079,118.845581 31.095079,114.774773 31.095837,110.228752 
z"/>
</svg>